%TF.GenerationSoftware,KiCad,Pcbnew,(5.1.9)-1*%
%TF.CreationDate,2021-06-27T18:44:15-04:00*%
%TF.ProjectId,C64PowerSupply,43363450-6f77-4657-9253-7570706c792e,A*%
%TF.SameCoordinates,Original*%
%TF.FileFunction,Legend,Bot*%
%TF.FilePolarity,Positive*%
%FSLAX46Y46*%
G04 Gerber Fmt 4.6, Leading zero omitted, Abs format (unit mm)*
G04 Created by KiCad (PCBNEW (5.1.9)-1) date 2021-06-27 18:44:15*
%MOMM*%
%LPD*%
G01*
G04 APERTURE LIST*
%ADD10C,0.150000*%
%ADD11C,0.203200*%
%ADD12C,0.120000*%
%ADD13C,0.508000*%
G04 APERTURE END LIST*
D10*
X78009714Y-102560380D02*
X78009714Y-101560380D01*
X78009714Y-102036571D02*
X77438285Y-102036571D01*
X77438285Y-102560380D02*
X77438285Y-101560380D01*
X78009714Y-107640380D02*
X78009714Y-106640380D01*
X77438285Y-107640380D01*
X77438285Y-106640380D01*
X79501904Y-111768000D02*
X79597142Y-111720380D01*
X79740000Y-111720380D01*
X79882857Y-111768000D01*
X79978095Y-111863238D01*
X80025714Y-111958476D01*
X80073333Y-112148952D01*
X80073333Y-112291809D01*
X80025714Y-112482285D01*
X79978095Y-112577523D01*
X79882857Y-112672761D01*
X79740000Y-112720380D01*
X79644761Y-112720380D01*
X79501904Y-112672761D01*
X79454285Y-112625142D01*
X79454285Y-112291809D01*
X79644761Y-112291809D01*
X79025714Y-112720380D02*
X79025714Y-111720380D01*
X78454285Y-112720380D01*
X78454285Y-111720380D01*
X77978095Y-112720380D02*
X77978095Y-111720380D01*
X77740000Y-111720380D01*
X77597142Y-111768000D01*
X77501904Y-111863238D01*
X77454285Y-111958476D01*
X77406666Y-112148952D01*
X77406666Y-112291809D01*
X77454285Y-112482285D01*
X77501904Y-112577523D01*
X77597142Y-112672761D01*
X77740000Y-112720380D01*
X77978095Y-112720380D01*
D11*
X81327171Y-125185714D02*
X79803171Y-124822857D01*
X80891742Y-124532571D01*
X79803171Y-124242285D01*
X81327171Y-123879428D01*
X80238600Y-123371428D02*
X80238600Y-122645714D01*
X79803171Y-123516571D02*
X81327171Y-123008571D01*
X79803171Y-122500571D01*
X79803171Y-121121714D02*
X80528885Y-121629714D01*
X79803171Y-121992571D02*
X81327171Y-121992571D01*
X81327171Y-121412000D01*
X81254600Y-121266857D01*
X81182028Y-121194285D01*
X81036885Y-121121714D01*
X80819171Y-121121714D01*
X80674028Y-121194285D01*
X80601457Y-121266857D01*
X80528885Y-121412000D01*
X80528885Y-121992571D01*
X79803171Y-120468571D02*
X81327171Y-120468571D01*
X79803171Y-119597714D01*
X81327171Y-119597714D01*
X79803171Y-118872000D02*
X81327171Y-118872000D01*
X79803171Y-118146285D02*
X81327171Y-118146285D01*
X79803171Y-117275428D01*
X81327171Y-117275428D01*
X81254600Y-115751428D02*
X81327171Y-115896571D01*
X81327171Y-116114285D01*
X81254600Y-116332000D01*
X81109457Y-116477142D01*
X80964314Y-116549714D01*
X80674028Y-116622285D01*
X80456314Y-116622285D01*
X80166028Y-116549714D01*
X80020885Y-116477142D01*
X79875742Y-116332000D01*
X79803171Y-116114285D01*
X79803171Y-115969142D01*
X79875742Y-115751428D01*
X79948314Y-115678857D01*
X80456314Y-115678857D01*
X80456314Y-115969142D01*
X77313971Y-124060857D02*
X77313971Y-124931714D01*
X77313971Y-124496285D02*
X78837971Y-124496285D01*
X78620257Y-124641428D01*
X78475114Y-124786571D01*
X78402542Y-124931714D01*
X78692828Y-123480285D02*
X78765400Y-123407714D01*
X78837971Y-123262571D01*
X78837971Y-122899714D01*
X78765400Y-122754571D01*
X78692828Y-122682000D01*
X78547685Y-122609428D01*
X78402542Y-122609428D01*
X78184828Y-122682000D01*
X77313971Y-123552857D01*
X77313971Y-122609428D01*
X78837971Y-121666000D02*
X78837971Y-121520857D01*
X78765400Y-121375714D01*
X78692828Y-121303142D01*
X78547685Y-121230571D01*
X78257400Y-121158000D01*
X77894542Y-121158000D01*
X77604257Y-121230571D01*
X77459114Y-121303142D01*
X77386542Y-121375714D01*
X77313971Y-121520857D01*
X77313971Y-121666000D01*
X77386542Y-121811142D01*
X77459114Y-121883714D01*
X77604257Y-121956285D01*
X77894542Y-122028857D01*
X78257400Y-122028857D01*
X78547685Y-121956285D01*
X78692828Y-121883714D01*
X78765400Y-121811142D01*
X78837971Y-121666000D01*
X78837971Y-119561428D02*
X77313971Y-119053428D01*
X78837971Y-118545428D01*
X77749400Y-118110000D02*
X77749400Y-117384285D01*
X77313971Y-118255142D02*
X78837971Y-117747142D01*
X77313971Y-117239142D01*
X77459114Y-115860285D02*
X77386542Y-115932857D01*
X77313971Y-116150571D01*
X77313971Y-116295714D01*
X77386542Y-116513428D01*
X77531685Y-116658571D01*
X77676828Y-116731142D01*
X77967114Y-116803714D01*
X78184828Y-116803714D01*
X78475114Y-116731142D01*
X78620257Y-116658571D01*
X78765400Y-116513428D01*
X78837971Y-116295714D01*
X78837971Y-116150571D01*
X78765400Y-115932857D01*
X78692828Y-115860285D01*
D10*
X188491619Y-103068380D02*
X188301142Y-103068380D01*
X188205904Y-103020761D01*
X188158285Y-102973142D01*
X188063047Y-102830285D01*
X188015428Y-102639809D01*
X188015428Y-102258857D01*
X188063047Y-102163619D01*
X188110666Y-102116000D01*
X188205904Y-102068380D01*
X188396380Y-102068380D01*
X188491619Y-102116000D01*
X188539238Y-102163619D01*
X188586857Y-102258857D01*
X188586857Y-102496952D01*
X188539238Y-102592190D01*
X188491619Y-102639809D01*
X188396380Y-102687428D01*
X188205904Y-102687428D01*
X188110666Y-102639809D01*
X188063047Y-102592190D01*
X188015428Y-102496952D01*
X187729714Y-102068380D02*
X187396380Y-103068380D01*
X187063047Y-102068380D01*
X186777333Y-102782666D02*
X186301142Y-102782666D01*
X186872571Y-103068380D02*
X186539238Y-102068380D01*
X186205904Y-103068380D01*
X185301142Y-102973142D02*
X185348761Y-103020761D01*
X185491619Y-103068380D01*
X185586857Y-103068380D01*
X185729714Y-103020761D01*
X185824952Y-102925523D01*
X185872571Y-102830285D01*
X185920190Y-102639809D01*
X185920190Y-102496952D01*
X185872571Y-102306476D01*
X185824952Y-102211238D01*
X185729714Y-102116000D01*
X185586857Y-102068380D01*
X185491619Y-102068380D01*
X185348761Y-102116000D01*
X185301142Y-102163619D01*
D12*
X186944000Y-100076000D02*
X187960000Y-100076000D01*
X187960000Y-100076000D02*
X188468000Y-100076000D01*
X186944000Y-101600000D02*
X186944000Y-100076000D01*
X188468000Y-105156000D02*
X186944000Y-105156000D01*
X186944000Y-105156000D02*
X186944000Y-103632000D01*
D10*
X187705904Y-89416000D02*
X187801142Y-89368380D01*
X187944000Y-89368380D01*
X188086857Y-89416000D01*
X188182095Y-89511238D01*
X188229714Y-89606476D01*
X188277333Y-89796952D01*
X188277333Y-89939809D01*
X188229714Y-90130285D01*
X188182095Y-90225523D01*
X188086857Y-90320761D01*
X187944000Y-90368380D01*
X187848761Y-90368380D01*
X187705904Y-90320761D01*
X187658285Y-90273142D01*
X187658285Y-89939809D01*
X187848761Y-89939809D01*
X187229714Y-90368380D02*
X187229714Y-89368380D01*
X186658285Y-90368380D01*
X186658285Y-89368380D01*
X186182095Y-90368380D02*
X186182095Y-89368380D01*
X185944000Y-89368380D01*
X185801142Y-89416000D01*
X185705904Y-89511238D01*
X185658285Y-89606476D01*
X185610666Y-89796952D01*
X185610666Y-89939809D01*
X185658285Y-90130285D01*
X185705904Y-90225523D01*
X185801142Y-90320761D01*
X185944000Y-90368380D01*
X186182095Y-90368380D01*
X187626476Y-94448380D02*
X188102666Y-94448380D01*
X188150285Y-94924571D01*
X188102666Y-94876952D01*
X188007428Y-94829333D01*
X187769333Y-94829333D01*
X187674095Y-94876952D01*
X187626476Y-94924571D01*
X187578857Y-95019809D01*
X187578857Y-95257904D01*
X187626476Y-95353142D01*
X187674095Y-95400761D01*
X187769333Y-95448380D01*
X188007428Y-95448380D01*
X188102666Y-95400761D01*
X188150285Y-95353142D01*
X187293142Y-94448380D02*
X186959809Y-95448380D01*
X186626476Y-94448380D01*
X186293142Y-95448380D02*
X186293142Y-94448380D01*
X186055047Y-94448380D01*
X185912190Y-94496000D01*
X185816952Y-94591238D01*
X185769333Y-94686476D01*
X185721714Y-94876952D01*
X185721714Y-95019809D01*
X185769333Y-95210285D01*
X185816952Y-95305523D01*
X185912190Y-95400761D01*
X186055047Y-95448380D01*
X186293142Y-95448380D01*
X184721714Y-95353142D02*
X184769333Y-95400761D01*
X184912190Y-95448380D01*
X185007428Y-95448380D01*
X185150285Y-95400761D01*
X185245523Y-95305523D01*
X185293142Y-95210285D01*
X185340761Y-95019809D01*
X185340761Y-94876952D01*
X185293142Y-94686476D01*
X185245523Y-94591238D01*
X185150285Y-94496000D01*
X185007428Y-94448380D01*
X184912190Y-94448380D01*
X184769333Y-94496000D01*
X184721714Y-94543619D01*
D11*
X134173443Y-69908057D02*
X134221824Y-69956438D01*
X134366967Y-70004819D01*
X134463729Y-70004819D01*
X134608872Y-69956438D01*
X134705634Y-69859676D01*
X134754015Y-69762914D01*
X134802396Y-69569390D01*
X134802396Y-69424247D01*
X134754015Y-69230723D01*
X134705634Y-69133961D01*
X134608872Y-69037200D01*
X134463729Y-68988819D01*
X134366967Y-68988819D01*
X134221824Y-69037200D01*
X134173443Y-69085580D01*
X133302586Y-68988819D02*
X133496110Y-68988819D01*
X133592872Y-69037200D01*
X133641253Y-69085580D01*
X133738015Y-69230723D01*
X133786396Y-69424247D01*
X133786396Y-69811295D01*
X133738015Y-69908057D01*
X133689634Y-69956438D01*
X133592872Y-70004819D01*
X133399348Y-70004819D01*
X133302586Y-69956438D01*
X133254205Y-69908057D01*
X133205824Y-69811295D01*
X133205824Y-69569390D01*
X133254205Y-69472628D01*
X133302586Y-69424247D01*
X133399348Y-69375866D01*
X133592872Y-69375866D01*
X133689634Y-69424247D01*
X133738015Y-69472628D01*
X133786396Y-69569390D01*
X132334967Y-69327485D02*
X132334967Y-70004819D01*
X132576872Y-68940438D02*
X132818777Y-69666152D01*
X132189824Y-69666152D01*
X131028681Y-70004819D02*
X131028681Y-68988819D01*
X130641634Y-68988819D01*
X130544872Y-69037200D01*
X130496491Y-69085580D01*
X130448110Y-69182342D01*
X130448110Y-69327485D01*
X130496491Y-69424247D01*
X130544872Y-69472628D01*
X130641634Y-69521009D01*
X131028681Y-69521009D01*
X129867539Y-70004819D02*
X129964300Y-69956438D01*
X130012681Y-69908057D01*
X130061062Y-69811295D01*
X130061062Y-69521009D01*
X130012681Y-69424247D01*
X129964300Y-69375866D01*
X129867539Y-69327485D01*
X129722396Y-69327485D01*
X129625634Y-69375866D01*
X129577253Y-69424247D01*
X129528872Y-69521009D01*
X129528872Y-69811295D01*
X129577253Y-69908057D01*
X129625634Y-69956438D01*
X129722396Y-70004819D01*
X129867539Y-70004819D01*
X129190205Y-69327485D02*
X128996681Y-70004819D01*
X128803158Y-69521009D01*
X128609634Y-70004819D01*
X128416110Y-69327485D01*
X127642015Y-69956438D02*
X127738777Y-70004819D01*
X127932300Y-70004819D01*
X128029062Y-69956438D01*
X128077443Y-69859676D01*
X128077443Y-69472628D01*
X128029062Y-69375866D01*
X127932300Y-69327485D01*
X127738777Y-69327485D01*
X127642015Y-69375866D01*
X127593634Y-69472628D01*
X127593634Y-69569390D01*
X128077443Y-69666152D01*
X127158205Y-70004819D02*
X127158205Y-69327485D01*
X127158205Y-69521009D02*
X127109824Y-69424247D01*
X127061443Y-69375866D01*
X126964681Y-69327485D01*
X126867920Y-69327485D01*
X125803539Y-69956438D02*
X125658396Y-70004819D01*
X125416491Y-70004819D01*
X125319729Y-69956438D01*
X125271348Y-69908057D01*
X125222967Y-69811295D01*
X125222967Y-69714533D01*
X125271348Y-69617771D01*
X125319729Y-69569390D01*
X125416491Y-69521009D01*
X125610015Y-69472628D01*
X125706777Y-69424247D01*
X125755158Y-69375866D01*
X125803539Y-69279104D01*
X125803539Y-69182342D01*
X125755158Y-69085580D01*
X125706777Y-69037200D01*
X125610015Y-68988819D01*
X125368110Y-68988819D01*
X125222967Y-69037200D01*
X124352110Y-69327485D02*
X124352110Y-70004819D01*
X124787539Y-69327485D02*
X124787539Y-69859676D01*
X124739158Y-69956438D01*
X124642396Y-70004819D01*
X124497253Y-70004819D01*
X124400491Y-69956438D01*
X124352110Y-69908057D01*
X123868300Y-69327485D02*
X123868300Y-70343485D01*
X123868300Y-69375866D02*
X123771539Y-69327485D01*
X123578015Y-69327485D01*
X123481253Y-69375866D01*
X123432872Y-69424247D01*
X123384491Y-69521009D01*
X123384491Y-69811295D01*
X123432872Y-69908057D01*
X123481253Y-69956438D01*
X123578015Y-70004819D01*
X123771539Y-70004819D01*
X123868300Y-69956438D01*
X122949062Y-69327485D02*
X122949062Y-70343485D01*
X122949062Y-69375866D02*
X122852300Y-69327485D01*
X122658777Y-69327485D01*
X122562015Y-69375866D01*
X122513634Y-69424247D01*
X122465253Y-69521009D01*
X122465253Y-69811295D01*
X122513634Y-69908057D01*
X122562015Y-69956438D01*
X122658777Y-70004819D01*
X122852300Y-70004819D01*
X122949062Y-69956438D01*
X121884681Y-70004819D02*
X121981443Y-69956438D01*
X122029824Y-69859676D01*
X122029824Y-68988819D01*
X121594396Y-69327485D02*
X121352491Y-70004819D01*
X121110586Y-69327485D02*
X121352491Y-70004819D01*
X121449253Y-70246723D01*
X121497634Y-70295104D01*
X121594396Y-70343485D01*
X119368872Y-70004819D02*
X119707539Y-69521009D01*
X119949443Y-70004819D02*
X119949443Y-68988819D01*
X119562396Y-68988819D01*
X119465634Y-69037200D01*
X119417253Y-69085580D01*
X119368872Y-69182342D01*
X119368872Y-69327485D01*
X119417253Y-69424247D01*
X119465634Y-69472628D01*
X119562396Y-69521009D01*
X119949443Y-69521009D01*
X118546396Y-69956438D02*
X118643158Y-70004819D01*
X118836681Y-70004819D01*
X118933443Y-69956438D01*
X118981824Y-69859676D01*
X118981824Y-69472628D01*
X118933443Y-69375866D01*
X118836681Y-69327485D01*
X118643158Y-69327485D01*
X118546396Y-69375866D01*
X118498015Y-69472628D01*
X118498015Y-69569390D01*
X118981824Y-69666152D01*
X118159348Y-69327485D02*
X117917443Y-70004819D01*
X117675539Y-69327485D01*
X117336872Y-69714533D02*
X116853062Y-69714533D01*
X117433634Y-70004819D02*
X117094967Y-68988819D01*
X116756300Y-70004819D01*
X134802396Y-70812780D02*
X134754015Y-70764400D01*
X134657253Y-70716019D01*
X134415348Y-70716019D01*
X134318586Y-70764400D01*
X134270205Y-70812780D01*
X134221824Y-70909542D01*
X134221824Y-71006304D01*
X134270205Y-71151447D01*
X134850777Y-71732019D01*
X134221824Y-71732019D01*
X133592872Y-70716019D02*
X133496110Y-70716019D01*
X133399348Y-70764400D01*
X133350967Y-70812780D01*
X133302586Y-70909542D01*
X133254205Y-71103066D01*
X133254205Y-71344971D01*
X133302586Y-71538495D01*
X133350967Y-71635257D01*
X133399348Y-71683638D01*
X133496110Y-71732019D01*
X133592872Y-71732019D01*
X133689634Y-71683638D01*
X133738015Y-71635257D01*
X133786396Y-71538495D01*
X133834777Y-71344971D01*
X133834777Y-71103066D01*
X133786396Y-70909542D01*
X133738015Y-70812780D01*
X133689634Y-70764400D01*
X133592872Y-70716019D01*
X132867158Y-70812780D02*
X132818777Y-70764400D01*
X132722015Y-70716019D01*
X132480110Y-70716019D01*
X132383348Y-70764400D01*
X132334967Y-70812780D01*
X132286586Y-70909542D01*
X132286586Y-71006304D01*
X132334967Y-71151447D01*
X132915539Y-71732019D01*
X132286586Y-71732019D01*
X131318967Y-71732019D02*
X131899539Y-71732019D01*
X131609253Y-71732019D02*
X131609253Y-70716019D01*
X131706015Y-70861161D01*
X131802777Y-70957923D01*
X131899539Y-71006304D01*
X130109443Y-71732019D02*
X130109443Y-70716019D01*
X129867539Y-70716019D01*
X129722396Y-70764400D01*
X129625634Y-70861161D01*
X129577253Y-70957923D01*
X129528872Y-71151447D01*
X129528872Y-71296590D01*
X129577253Y-71490114D01*
X129625634Y-71586876D01*
X129722396Y-71683638D01*
X129867539Y-71732019D01*
X130109443Y-71732019D01*
X128948300Y-71732019D02*
X129045062Y-71683638D01*
X129093443Y-71635257D01*
X129141824Y-71538495D01*
X129141824Y-71248209D01*
X129093443Y-71151447D01*
X129045062Y-71103066D01*
X128948300Y-71054685D01*
X128803158Y-71054685D01*
X128706396Y-71103066D01*
X128658015Y-71151447D01*
X128609634Y-71248209D01*
X128609634Y-71538495D01*
X128658015Y-71635257D01*
X128706396Y-71683638D01*
X128803158Y-71732019D01*
X128948300Y-71732019D01*
X128174205Y-71732019D02*
X128174205Y-71054685D01*
X128174205Y-71151447D02*
X128125824Y-71103066D01*
X128029062Y-71054685D01*
X127883920Y-71054685D01*
X127787158Y-71103066D01*
X127738777Y-71199828D01*
X127738777Y-71732019D01*
X127738777Y-71199828D02*
X127690396Y-71103066D01*
X127593634Y-71054685D01*
X127448491Y-71054685D01*
X127351729Y-71103066D01*
X127303348Y-71199828D01*
X127303348Y-71732019D01*
X126819539Y-71732019D02*
X126819539Y-71054685D01*
X126819539Y-70716019D02*
X126867920Y-70764400D01*
X126819539Y-70812780D01*
X126771158Y-70764400D01*
X126819539Y-70716019D01*
X126819539Y-70812780D01*
X126335729Y-71054685D02*
X126335729Y-71732019D01*
X126335729Y-71151447D02*
X126287348Y-71103066D01*
X126190586Y-71054685D01*
X126045443Y-71054685D01*
X125948681Y-71103066D01*
X125900300Y-71199828D01*
X125900300Y-71732019D01*
X125416491Y-71732019D02*
X125416491Y-71054685D01*
X125416491Y-70716019D02*
X125464872Y-70764400D01*
X125416491Y-70812780D01*
X125368110Y-70764400D01*
X125416491Y-70716019D01*
X125416491Y-70812780D01*
X124497253Y-71683638D02*
X124594015Y-71732019D01*
X124787539Y-71732019D01*
X124884300Y-71683638D01*
X124932681Y-71635257D01*
X124981062Y-71538495D01*
X124981062Y-71248209D01*
X124932681Y-71151447D01*
X124884300Y-71103066D01*
X124787539Y-71054685D01*
X124594015Y-71054685D01*
X124497253Y-71103066D01*
X123432872Y-70716019D02*
X122852300Y-70716019D01*
X123142586Y-71732019D02*
X123142586Y-70716019D01*
X122513634Y-71732019D02*
X122513634Y-70716019D01*
X122078205Y-71732019D02*
X122078205Y-71199828D01*
X122126586Y-71103066D01*
X122223348Y-71054685D01*
X122368491Y-71054685D01*
X122465253Y-71103066D01*
X122513634Y-71151447D01*
X121594396Y-71732019D02*
X121594396Y-71054685D01*
X121594396Y-70716019D02*
X121642777Y-70764400D01*
X121594396Y-70812780D01*
X121546015Y-70764400D01*
X121594396Y-70716019D01*
X121594396Y-70812780D01*
X121110586Y-71732019D02*
X121110586Y-70716019D01*
X121110586Y-71103066D02*
X121013824Y-71054685D01*
X120820300Y-71054685D01*
X120723539Y-71103066D01*
X120675158Y-71151447D01*
X120626777Y-71248209D01*
X120626777Y-71538495D01*
X120675158Y-71635257D01*
X120723539Y-71683638D01*
X120820300Y-71732019D01*
X121013824Y-71732019D01*
X121110586Y-71683638D01*
X120046205Y-71732019D02*
X120142967Y-71683638D01*
X120191348Y-71635257D01*
X120239729Y-71538495D01*
X120239729Y-71248209D01*
X120191348Y-71151447D01*
X120142967Y-71103066D01*
X120046205Y-71054685D01*
X119901062Y-71054685D01*
X119804300Y-71103066D01*
X119755919Y-71151447D01*
X119707539Y-71248209D01*
X119707539Y-71538495D01*
X119755919Y-71635257D01*
X119804300Y-71683638D01*
X119901062Y-71732019D01*
X120046205Y-71732019D01*
X118836681Y-71732019D02*
X118836681Y-70716019D01*
X118836681Y-71683638D02*
X118933443Y-71732019D01*
X119126967Y-71732019D01*
X119223729Y-71683638D01*
X119272110Y-71635257D01*
X119320491Y-71538495D01*
X119320491Y-71248209D01*
X119272110Y-71151447D01*
X119223729Y-71103066D01*
X119126967Y-71054685D01*
X118933443Y-71054685D01*
X118836681Y-71103066D01*
X117965824Y-71683638D02*
X118062586Y-71732019D01*
X118256110Y-71732019D01*
X118352872Y-71683638D01*
X118401253Y-71586876D01*
X118401253Y-71199828D01*
X118352872Y-71103066D01*
X118256110Y-71054685D01*
X118062586Y-71054685D01*
X117965824Y-71103066D01*
X117917443Y-71199828D01*
X117917443Y-71296590D01*
X118401253Y-71393352D01*
X117046586Y-71732019D02*
X117046586Y-71199828D01*
X117094967Y-71103066D01*
X117191729Y-71054685D01*
X117385253Y-71054685D01*
X117482015Y-71103066D01*
X117046586Y-71683638D02*
X117143348Y-71732019D01*
X117385253Y-71732019D01*
X117482015Y-71683638D01*
X117530396Y-71586876D01*
X117530396Y-71490114D01*
X117482015Y-71393352D01*
X117385253Y-71344971D01*
X117143348Y-71344971D01*
X117046586Y-71296590D01*
X116127348Y-71054685D02*
X116127348Y-71732019D01*
X116562777Y-71054685D02*
X116562777Y-71586876D01*
X116514396Y-71683638D01*
X116417634Y-71732019D01*
X116272491Y-71732019D01*
X116175729Y-71683638D01*
X116127348Y-71635257D01*
X134754015Y-73459219D02*
X134754015Y-72443219D01*
X134318586Y-73459219D02*
X134318586Y-72927028D01*
X134366967Y-72830266D01*
X134463729Y-72781885D01*
X134608872Y-72781885D01*
X134705634Y-72830266D01*
X134754015Y-72878647D01*
X133979920Y-72781885D02*
X133592872Y-72781885D01*
X133834777Y-72443219D02*
X133834777Y-73314076D01*
X133786396Y-73410838D01*
X133689634Y-73459219D01*
X133592872Y-73459219D01*
X133399348Y-72781885D02*
X133012300Y-72781885D01*
X133254205Y-72443219D02*
X133254205Y-73314076D01*
X133205824Y-73410838D01*
X133109062Y-73459219D01*
X133012300Y-73459219D01*
X132673634Y-72781885D02*
X132673634Y-73797885D01*
X132673634Y-72830266D02*
X132576872Y-72781885D01*
X132383348Y-72781885D01*
X132286586Y-72830266D01*
X132238205Y-72878647D01*
X132189824Y-72975409D01*
X132189824Y-73265695D01*
X132238205Y-73362457D01*
X132286586Y-73410838D01*
X132383348Y-73459219D01*
X132576872Y-73459219D01*
X132673634Y-73410838D01*
X131802777Y-73410838D02*
X131706015Y-73459219D01*
X131512491Y-73459219D01*
X131415729Y-73410838D01*
X131367348Y-73314076D01*
X131367348Y-73265695D01*
X131415729Y-73168933D01*
X131512491Y-73120552D01*
X131657634Y-73120552D01*
X131754396Y-73072171D01*
X131802777Y-72975409D01*
X131802777Y-72927028D01*
X131754396Y-72830266D01*
X131657634Y-72781885D01*
X131512491Y-72781885D01*
X131415729Y-72830266D01*
X130931920Y-73362457D02*
X130883539Y-73410838D01*
X130931920Y-73459219D01*
X130980300Y-73410838D01*
X130931920Y-73362457D01*
X130931920Y-73459219D01*
X130931920Y-72830266D02*
X130883539Y-72878647D01*
X130931920Y-72927028D01*
X130980300Y-72878647D01*
X130931920Y-72830266D01*
X130931920Y-72927028D01*
X129722396Y-72394838D02*
X130593253Y-73701123D01*
X128658015Y-72394838D02*
X129528872Y-73701123D01*
X127883920Y-72781885D02*
X127883920Y-73604361D01*
X127932300Y-73701123D01*
X127980681Y-73749504D01*
X128077443Y-73797885D01*
X128222586Y-73797885D01*
X128319348Y-73749504D01*
X127883920Y-73410838D02*
X127980681Y-73459219D01*
X128174205Y-73459219D01*
X128270967Y-73410838D01*
X128319348Y-73362457D01*
X128367729Y-73265695D01*
X128367729Y-72975409D01*
X128319348Y-72878647D01*
X128270967Y-72830266D01*
X128174205Y-72781885D01*
X127980681Y-72781885D01*
X127883920Y-72830266D01*
X127400110Y-73459219D02*
X127400110Y-72781885D01*
X127400110Y-72443219D02*
X127448491Y-72491600D01*
X127400110Y-72539980D01*
X127351729Y-72491600D01*
X127400110Y-72443219D01*
X127400110Y-72539980D01*
X127061443Y-72781885D02*
X126674396Y-72781885D01*
X126916300Y-72443219D02*
X126916300Y-73314076D01*
X126867920Y-73410838D01*
X126771158Y-73459219D01*
X126674396Y-73459219D01*
X126335729Y-73459219D02*
X126335729Y-72443219D01*
X125900300Y-73459219D02*
X125900300Y-72927028D01*
X125948681Y-72830266D01*
X126045443Y-72781885D01*
X126190586Y-72781885D01*
X126287348Y-72830266D01*
X126335729Y-72878647D01*
X124981062Y-72781885D02*
X124981062Y-73459219D01*
X125416491Y-72781885D02*
X125416491Y-73314076D01*
X125368110Y-73410838D01*
X125271348Y-73459219D01*
X125126205Y-73459219D01*
X125029443Y-73410838D01*
X124981062Y-73362457D01*
X124497253Y-73459219D02*
X124497253Y-72443219D01*
X124497253Y-72830266D02*
X124400491Y-72781885D01*
X124206967Y-72781885D01*
X124110205Y-72830266D01*
X124061824Y-72878647D01*
X124013443Y-72975409D01*
X124013443Y-73265695D01*
X124061824Y-73362457D01*
X124110205Y-73410838D01*
X124206967Y-73459219D01*
X124400491Y-73459219D01*
X124497253Y-73410838D01*
X123578015Y-73362457D02*
X123529634Y-73410838D01*
X123578015Y-73459219D01*
X123626396Y-73410838D01*
X123578015Y-73362457D01*
X123578015Y-73459219D01*
X122658777Y-73410838D02*
X122755539Y-73459219D01*
X122949062Y-73459219D01*
X123045824Y-73410838D01*
X123094205Y-73362457D01*
X123142586Y-73265695D01*
X123142586Y-72975409D01*
X123094205Y-72878647D01*
X123045824Y-72830266D01*
X122949062Y-72781885D01*
X122755539Y-72781885D01*
X122658777Y-72830266D01*
X122078205Y-73459219D02*
X122174967Y-73410838D01*
X122223348Y-73362457D01*
X122271729Y-73265695D01*
X122271729Y-72975409D01*
X122223348Y-72878647D01*
X122174967Y-72830266D01*
X122078205Y-72781885D01*
X121933062Y-72781885D01*
X121836300Y-72830266D01*
X121787920Y-72878647D01*
X121739539Y-72975409D01*
X121739539Y-73265695D01*
X121787920Y-73362457D01*
X121836300Y-73410838D01*
X121933062Y-73459219D01*
X122078205Y-73459219D01*
X121304110Y-73459219D02*
X121304110Y-72781885D01*
X121304110Y-72878647D02*
X121255729Y-72830266D01*
X121158967Y-72781885D01*
X121013824Y-72781885D01*
X120917062Y-72830266D01*
X120868681Y-72927028D01*
X120868681Y-73459219D01*
X120868681Y-72927028D02*
X120820300Y-72830266D01*
X120723539Y-72781885D01*
X120578396Y-72781885D01*
X120481634Y-72830266D01*
X120433253Y-72927028D01*
X120433253Y-73459219D01*
X119223729Y-72394838D02*
X120094586Y-73701123D01*
X118885062Y-73459219D02*
X118885062Y-72443219D01*
X118449634Y-73459219D02*
X118449634Y-72927028D01*
X118498015Y-72830266D01*
X118594777Y-72781885D01*
X118739920Y-72781885D01*
X118836681Y-72830266D01*
X118885062Y-72878647D01*
X117820681Y-73459219D02*
X117917443Y-73410838D01*
X117965824Y-73362457D01*
X118014205Y-73265695D01*
X118014205Y-72975409D01*
X117965824Y-72878647D01*
X117917443Y-72830266D01*
X117820681Y-72781885D01*
X117675539Y-72781885D01*
X117578777Y-72830266D01*
X117530396Y-72878647D01*
X117482015Y-72975409D01*
X117482015Y-73265695D01*
X117530396Y-73362457D01*
X117578777Y-73410838D01*
X117675539Y-73459219D01*
X117820681Y-73459219D01*
X117191729Y-72781885D02*
X116804681Y-72781885D01*
X117046586Y-72443219D02*
X117046586Y-73314076D01*
X116998205Y-73410838D01*
X116901443Y-73459219D01*
X116804681Y-73459219D01*
X116466015Y-73459219D02*
X116466015Y-72443219D01*
X116369253Y-73072171D02*
X116078967Y-73459219D01*
X116078967Y-72781885D02*
X116466015Y-73168933D01*
X115256491Y-73410838D02*
X115353253Y-73459219D01*
X115546777Y-73459219D01*
X115643539Y-73410838D01*
X115691919Y-73314076D01*
X115691919Y-72927028D01*
X115643539Y-72830266D01*
X115546777Y-72781885D01*
X115353253Y-72781885D01*
X115256491Y-72830266D01*
X115208110Y-72927028D01*
X115208110Y-73023790D01*
X115691919Y-73120552D01*
X114869443Y-72781885D02*
X114627539Y-73459219D01*
X114385634Y-72781885D02*
X114627539Y-73459219D01*
X114724300Y-73701123D01*
X114772681Y-73749504D01*
X114869443Y-73797885D01*
X114046967Y-73410838D02*
X113950205Y-73459219D01*
X113756681Y-73459219D01*
X113659919Y-73410838D01*
X113611539Y-73314076D01*
X113611539Y-73265695D01*
X113659919Y-73168933D01*
X113756681Y-73120552D01*
X113901824Y-73120552D01*
X113998586Y-73072171D01*
X114046967Y-72975409D01*
X114046967Y-72927028D01*
X113998586Y-72830266D01*
X113901824Y-72781885D01*
X113756681Y-72781885D01*
X113659919Y-72830266D01*
X113030967Y-73459219D02*
X113127729Y-73410838D01*
X113176110Y-73362457D01*
X113224491Y-73265695D01*
X113224491Y-72975409D01*
X113176110Y-72878647D01*
X113127729Y-72830266D01*
X113030967Y-72781885D01*
X112885824Y-72781885D01*
X112789062Y-72830266D01*
X112740681Y-72878647D01*
X112692300Y-72975409D01*
X112692300Y-73265695D01*
X112740681Y-73362457D01*
X112789062Y-73410838D01*
X112885824Y-73459219D01*
X113030967Y-73459219D01*
X112402015Y-72781885D02*
X112014967Y-72781885D01*
X112256872Y-73459219D02*
X112256872Y-72588361D01*
X112208491Y-72491600D01*
X112111729Y-72443219D01*
X112014967Y-72443219D01*
X111821443Y-72781885D02*
X111434396Y-72781885D01*
X111676300Y-72443219D02*
X111676300Y-73314076D01*
X111627920Y-73410838D01*
X111531158Y-73459219D01*
X111434396Y-73459219D01*
X110370015Y-72394838D02*
X111240872Y-73701123D01*
X109595920Y-73410838D02*
X109692681Y-73459219D01*
X109886205Y-73459219D01*
X109982967Y-73410838D01*
X110031348Y-73362457D01*
X110079729Y-73265695D01*
X110079729Y-72975409D01*
X110031348Y-72878647D01*
X109982967Y-72830266D01*
X109886205Y-72781885D01*
X109692681Y-72781885D01*
X109595920Y-72830266D01*
X108725062Y-72443219D02*
X108918586Y-72443219D01*
X109015348Y-72491600D01*
X109063729Y-72539980D01*
X109160491Y-72685123D01*
X109208872Y-72878647D01*
X109208872Y-73265695D01*
X109160491Y-73362457D01*
X109112110Y-73410838D01*
X109015348Y-73459219D01*
X108821824Y-73459219D01*
X108725062Y-73410838D01*
X108676681Y-73362457D01*
X108628300Y-73265695D01*
X108628300Y-73023790D01*
X108676681Y-72927028D01*
X108725062Y-72878647D01*
X108821824Y-72830266D01*
X109015348Y-72830266D01*
X109112110Y-72878647D01*
X109160491Y-72927028D01*
X109208872Y-73023790D01*
X107757443Y-72781885D02*
X107757443Y-73459219D01*
X107999348Y-72394838D02*
X108241253Y-73120552D01*
X107612300Y-73120552D01*
X107225253Y-73459219D02*
X107225253Y-72443219D01*
X106838205Y-72443219D01*
X106741443Y-72491600D01*
X106693062Y-72539980D01*
X106644681Y-72636742D01*
X106644681Y-72781885D01*
X106693062Y-72878647D01*
X106741443Y-72927028D01*
X106838205Y-72975409D01*
X107225253Y-72975409D01*
X106064110Y-73459219D02*
X106160872Y-73410838D01*
X106209253Y-73362457D01*
X106257634Y-73265695D01*
X106257634Y-72975409D01*
X106209253Y-72878647D01*
X106160872Y-72830266D01*
X106064110Y-72781885D01*
X105918967Y-72781885D01*
X105822205Y-72830266D01*
X105773824Y-72878647D01*
X105725443Y-72975409D01*
X105725443Y-73265695D01*
X105773824Y-73362457D01*
X105822205Y-73410838D01*
X105918967Y-73459219D01*
X106064110Y-73459219D01*
X105386777Y-72781885D02*
X105193253Y-73459219D01*
X104999729Y-72975409D01*
X104806205Y-73459219D01*
X104612681Y-72781885D01*
X103838586Y-73410838D02*
X103935348Y-73459219D01*
X104128872Y-73459219D01*
X104225634Y-73410838D01*
X104274015Y-73314076D01*
X104274015Y-72927028D01*
X104225634Y-72830266D01*
X104128872Y-72781885D01*
X103935348Y-72781885D01*
X103838586Y-72830266D01*
X103790205Y-72927028D01*
X103790205Y-73023790D01*
X104274015Y-73120552D01*
X103354777Y-73459219D02*
X103354777Y-72781885D01*
X103354777Y-72975409D02*
X103306396Y-72878647D01*
X103258015Y-72830266D01*
X103161253Y-72781885D01*
X103064491Y-72781885D01*
X102774205Y-73410838D02*
X102629062Y-73459219D01*
X102387158Y-73459219D01*
X102290396Y-73410838D01*
X102242015Y-73362457D01*
X102193634Y-73265695D01*
X102193634Y-73168933D01*
X102242015Y-73072171D01*
X102290396Y-73023790D01*
X102387158Y-72975409D01*
X102580681Y-72927028D01*
X102677443Y-72878647D01*
X102725824Y-72830266D01*
X102774205Y-72733504D01*
X102774205Y-72636742D01*
X102725824Y-72539980D01*
X102677443Y-72491600D01*
X102580681Y-72443219D01*
X102338777Y-72443219D01*
X102193634Y-72491600D01*
X101322777Y-72781885D02*
X101322777Y-73459219D01*
X101758205Y-72781885D02*
X101758205Y-73314076D01*
X101709824Y-73410838D01*
X101613062Y-73459219D01*
X101467919Y-73459219D01*
X101371158Y-73410838D01*
X101322777Y-73362457D01*
X100838967Y-72781885D02*
X100838967Y-73797885D01*
X100838967Y-72830266D02*
X100742205Y-72781885D01*
X100548681Y-72781885D01*
X100451919Y-72830266D01*
X100403539Y-72878647D01*
X100355158Y-72975409D01*
X100355158Y-73265695D01*
X100403539Y-73362457D01*
X100451919Y-73410838D01*
X100548681Y-73459219D01*
X100742205Y-73459219D01*
X100838967Y-73410838D01*
X99919729Y-72781885D02*
X99919729Y-73797885D01*
X99919729Y-72830266D02*
X99822967Y-72781885D01*
X99629443Y-72781885D01*
X99532681Y-72830266D01*
X99484300Y-72878647D01*
X99435919Y-72975409D01*
X99435919Y-73265695D01*
X99484300Y-73362457D01*
X99532681Y-73410838D01*
X99629443Y-73459219D01*
X99822967Y-73459219D01*
X99919729Y-73410838D01*
X98855348Y-73459219D02*
X98952110Y-73410838D01*
X99000491Y-73314076D01*
X99000491Y-72443219D01*
X98565062Y-72781885D02*
X98323158Y-73459219D01*
X98081253Y-72781885D02*
X98323158Y-73459219D01*
X98419919Y-73701123D01*
X98468300Y-73749504D01*
X98565062Y-73797885D01*
X97694205Y-73072171D02*
X96920110Y-73072171D01*
X96436300Y-73459219D02*
X96436300Y-72443219D01*
X96339539Y-73072171D02*
X96049253Y-73459219D01*
X96049253Y-72781885D02*
X96436300Y-73168933D01*
X95613824Y-73459219D02*
X95613824Y-72781885D01*
X95613824Y-72443219D02*
X95662205Y-72491600D01*
X95613824Y-72539980D01*
X95565443Y-72491600D01*
X95613824Y-72443219D01*
X95613824Y-72539980D01*
X94694586Y-73410838D02*
X94791348Y-73459219D01*
X94984872Y-73459219D01*
X95081634Y-73410838D01*
X95130015Y-73362457D01*
X95178396Y-73265695D01*
X95178396Y-72975409D01*
X95130015Y-72878647D01*
X95081634Y-72830266D01*
X94984872Y-72781885D01*
X94791348Y-72781885D01*
X94694586Y-72830266D01*
X93823729Y-73459219D02*
X93823729Y-72927028D01*
X93872110Y-72830266D01*
X93968872Y-72781885D01*
X94162396Y-72781885D01*
X94259158Y-72830266D01*
X93823729Y-73410838D02*
X93920491Y-73459219D01*
X94162396Y-73459219D01*
X94259158Y-73410838D01*
X94307539Y-73314076D01*
X94307539Y-73217314D01*
X94259158Y-73120552D01*
X94162396Y-73072171D01*
X93920491Y-73072171D01*
X93823729Y-73023790D01*
X92904491Y-73459219D02*
X92904491Y-72443219D01*
X92904491Y-73410838D02*
X93001253Y-73459219D01*
X93194777Y-73459219D01*
X93291539Y-73410838D01*
X93339919Y-73362457D01*
X93388300Y-73265695D01*
X93388300Y-72975409D01*
X93339919Y-72878647D01*
X93291539Y-72830266D01*
X93194777Y-72781885D01*
X93001253Y-72781885D01*
X92904491Y-72830266D01*
X134318586Y-75186419D02*
X134318586Y-74170419D01*
X134318586Y-75138038D02*
X134415348Y-75186419D01*
X134608872Y-75186419D01*
X134705634Y-75138038D01*
X134754015Y-75089657D01*
X134802396Y-74992895D01*
X134802396Y-74702609D01*
X134754015Y-74605847D01*
X134705634Y-74557466D01*
X134608872Y-74509085D01*
X134415348Y-74509085D01*
X134318586Y-74557466D01*
X133447729Y-75138038D02*
X133544491Y-75186419D01*
X133738015Y-75186419D01*
X133834777Y-75138038D01*
X133883158Y-75041276D01*
X133883158Y-74654228D01*
X133834777Y-74557466D01*
X133738015Y-74509085D01*
X133544491Y-74509085D01*
X133447729Y-74557466D01*
X133399348Y-74654228D01*
X133399348Y-74750990D01*
X133883158Y-74847752D01*
X133060681Y-74509085D02*
X132818777Y-75186419D01*
X132576872Y-74509085D01*
X131560872Y-74702609D02*
X131609253Y-74654228D01*
X131706015Y-74605847D01*
X131802777Y-74605847D01*
X131899539Y-74654228D01*
X131947920Y-74702609D01*
X131996300Y-74799371D01*
X131996300Y-74896133D01*
X131947920Y-74992895D01*
X131899539Y-75041276D01*
X131802777Y-75089657D01*
X131706015Y-75089657D01*
X131609253Y-75041276D01*
X131560872Y-74992895D01*
X131560872Y-74605847D02*
X131560872Y-74992895D01*
X131512491Y-75041276D01*
X131464110Y-75041276D01*
X131367348Y-74992895D01*
X131318967Y-74896133D01*
X131318967Y-74654228D01*
X131415729Y-74509085D01*
X131560872Y-74412323D01*
X131754396Y-74363942D01*
X131947920Y-74412323D01*
X132093062Y-74509085D01*
X132189824Y-74654228D01*
X132238205Y-74847752D01*
X132189824Y-75041276D01*
X132093062Y-75186419D01*
X131947920Y-75283180D01*
X131754396Y-75331561D01*
X131560872Y-75283180D01*
X131415729Y-75186419D01*
X130883539Y-75186419D02*
X130883539Y-74170419D01*
X130448110Y-75186419D02*
X130448110Y-74654228D01*
X130496491Y-74557466D01*
X130593253Y-74509085D01*
X130738396Y-74509085D01*
X130835158Y-74557466D01*
X130883539Y-74605847D01*
X129819158Y-75186419D02*
X129915920Y-75138038D01*
X129964300Y-75089657D01*
X130012681Y-74992895D01*
X130012681Y-74702609D01*
X129964300Y-74605847D01*
X129915920Y-74557466D01*
X129819158Y-74509085D01*
X129674015Y-74509085D01*
X129577253Y-74557466D01*
X129528872Y-74605847D01*
X129480491Y-74702609D01*
X129480491Y-74992895D01*
X129528872Y-75089657D01*
X129577253Y-75138038D01*
X129674015Y-75186419D01*
X129819158Y-75186419D01*
X129190205Y-74509085D02*
X128803158Y-74509085D01*
X129045062Y-74170419D02*
X129045062Y-75041276D01*
X128996681Y-75138038D01*
X128899920Y-75186419D01*
X128803158Y-75186419D01*
X128464491Y-75186419D02*
X128464491Y-74170419D01*
X128367729Y-74799371D02*
X128077443Y-75186419D01*
X128077443Y-74509085D02*
X128464491Y-74896133D01*
X127254967Y-75138038D02*
X127351729Y-75186419D01*
X127545253Y-75186419D01*
X127642015Y-75138038D01*
X127690396Y-75041276D01*
X127690396Y-74654228D01*
X127642015Y-74557466D01*
X127545253Y-74509085D01*
X127351729Y-74509085D01*
X127254967Y-74557466D01*
X127206586Y-74654228D01*
X127206586Y-74750990D01*
X127690396Y-74847752D01*
X126867920Y-74509085D02*
X126626015Y-75186419D01*
X126384110Y-74509085D02*
X126626015Y-75186419D01*
X126722777Y-75428323D01*
X126771158Y-75476704D01*
X126867920Y-75525085D01*
X126045443Y-75138038D02*
X125948681Y-75186419D01*
X125755158Y-75186419D01*
X125658396Y-75138038D01*
X125610015Y-75041276D01*
X125610015Y-74992895D01*
X125658396Y-74896133D01*
X125755158Y-74847752D01*
X125900300Y-74847752D01*
X125997062Y-74799371D01*
X126045443Y-74702609D01*
X126045443Y-74654228D01*
X125997062Y-74557466D01*
X125900300Y-74509085D01*
X125755158Y-74509085D01*
X125658396Y-74557466D01*
X125029443Y-75186419D02*
X125126205Y-75138038D01*
X125174586Y-75089657D01*
X125222967Y-74992895D01*
X125222967Y-74702609D01*
X125174586Y-74605847D01*
X125126205Y-74557466D01*
X125029443Y-74509085D01*
X124884300Y-74509085D01*
X124787539Y-74557466D01*
X124739158Y-74605847D01*
X124690777Y-74702609D01*
X124690777Y-74992895D01*
X124739158Y-75089657D01*
X124787539Y-75138038D01*
X124884300Y-75186419D01*
X125029443Y-75186419D01*
X124400491Y-74509085D02*
X124013443Y-74509085D01*
X124255348Y-75186419D02*
X124255348Y-74315561D01*
X124206967Y-74218800D01*
X124110205Y-74170419D01*
X124013443Y-74170419D01*
X123819920Y-74509085D02*
X123432872Y-74509085D01*
X123674777Y-74170419D02*
X123674777Y-75041276D01*
X123626396Y-75138038D01*
X123529634Y-75186419D01*
X123432872Y-75186419D01*
X123094205Y-75089657D02*
X123045824Y-75138038D01*
X123094205Y-75186419D01*
X123142586Y-75138038D01*
X123094205Y-75089657D01*
X123094205Y-75186419D01*
X122610396Y-74509085D02*
X122610396Y-75186419D01*
X122610396Y-74605847D02*
X122562015Y-74557466D01*
X122465253Y-74509085D01*
X122320110Y-74509085D01*
X122223348Y-74557466D01*
X122174967Y-74654228D01*
X122174967Y-75186419D01*
X121304110Y-75138038D02*
X121400872Y-75186419D01*
X121594396Y-75186419D01*
X121691158Y-75138038D01*
X121739539Y-75041276D01*
X121739539Y-74654228D01*
X121691158Y-74557466D01*
X121594396Y-74509085D01*
X121400872Y-74509085D01*
X121304110Y-74557466D01*
X121255729Y-74654228D01*
X121255729Y-74750990D01*
X121739539Y-74847752D01*
X120965443Y-74509085D02*
X120578396Y-74509085D01*
X120820300Y-74170419D02*
X120820300Y-75041276D01*
X120771920Y-75138038D01*
X120675158Y-75186419D01*
X120578396Y-75186419D01*
D13*
X89916000Y-126492000D02*
X89916000Y-66548000D01*
X69088000Y-126492000D02*
X89916000Y-126492000D01*
X69088000Y-66548000D02*
X69088000Y-126492000D01*
X89916000Y-66548000D02*
X69088000Y-66548000D01*
D12*
%TO.C,R3*%
X177011064Y-107977000D02*
X176556936Y-107977000D01*
X177011064Y-109447000D02*
X176556936Y-109447000D01*
%TO.C,R2*%
X176556936Y-111479000D02*
X177011064Y-111479000D01*
X176556936Y-110009000D02*
X177011064Y-110009000D01*
%TO.C,R1*%
X177011064Y-112041000D02*
X176556936Y-112041000D01*
X177011064Y-113511000D02*
X176556936Y-113511000D01*
%TO.C,R3*%
D10*
X179998666Y-109164380D02*
X180332000Y-108688190D01*
X180570095Y-109164380D02*
X180570095Y-108164380D01*
X180189142Y-108164380D01*
X180093904Y-108212000D01*
X180046285Y-108259619D01*
X179998666Y-108354857D01*
X179998666Y-108497714D01*
X180046285Y-108592952D01*
X180093904Y-108640571D01*
X180189142Y-108688190D01*
X180570095Y-108688190D01*
X179665333Y-108164380D02*
X179046285Y-108164380D01*
X179379619Y-108545333D01*
X179236761Y-108545333D01*
X179141523Y-108592952D01*
X179093904Y-108640571D01*
X179046285Y-108735809D01*
X179046285Y-108973904D01*
X179093904Y-109069142D01*
X179141523Y-109116761D01*
X179236761Y-109164380D01*
X179522476Y-109164380D01*
X179617714Y-109116761D01*
X179665333Y-109069142D01*
%TO.C,R2*%
X179998666Y-111196380D02*
X180332000Y-110720190D01*
X180570095Y-111196380D02*
X180570095Y-110196380D01*
X180189142Y-110196380D01*
X180093904Y-110244000D01*
X180046285Y-110291619D01*
X179998666Y-110386857D01*
X179998666Y-110529714D01*
X180046285Y-110624952D01*
X180093904Y-110672571D01*
X180189142Y-110720190D01*
X180570095Y-110720190D01*
X179617714Y-110291619D02*
X179570095Y-110244000D01*
X179474857Y-110196380D01*
X179236761Y-110196380D01*
X179141523Y-110244000D01*
X179093904Y-110291619D01*
X179046285Y-110386857D01*
X179046285Y-110482095D01*
X179093904Y-110624952D01*
X179665333Y-111196380D01*
X179046285Y-111196380D01*
%TO.C,R1*%
X179998666Y-113228380D02*
X180332000Y-112752190D01*
X180570095Y-113228380D02*
X180570095Y-112228380D01*
X180189142Y-112228380D01*
X180093904Y-112276000D01*
X180046285Y-112323619D01*
X179998666Y-112418857D01*
X179998666Y-112561714D01*
X180046285Y-112656952D01*
X180093904Y-112704571D01*
X180189142Y-112752190D01*
X180570095Y-112752190D01*
X179046285Y-113228380D02*
X179617714Y-113228380D01*
X179332000Y-113228380D02*
X179332000Y-112228380D01*
X179427238Y-112371238D01*
X179522476Y-112466476D01*
X179617714Y-112514095D01*
%TD*%
M02*
