G04 #@! TF.GenerationSoftware,KiCad,Pcbnew,(6.0.7)*
G04 #@! TF.CreationDate,2022-09-18T10:38:10-04:00*
G04 #@! TF.ProjectId,C64PowerSupply,43363450-6f77-4657-9253-7570706c792e,B*
G04 #@! TF.SameCoordinates,Original*
G04 #@! TF.FileFunction,Soldermask,Top*
G04 #@! TF.FilePolarity,Negative*
%FSLAX46Y46*%
G04 Gerber Fmt 4.6, Leading zero omitted, Abs format (unit mm)*
G04 Created by KiCad (PCBNEW (6.0.7)) date 2022-09-18 10:38:10*
%MOMM*%
%LPD*%
G01*
G04 APERTURE LIST*
G04 Aperture macros list*
%AMRoundRect*
0 Rectangle with rounded corners*
0 $1 Rounding radius*
0 $2 $3 $4 $5 $6 $7 $8 $9 X,Y pos of 4 corners*
0 Add a 4 corners polygon primitive as box body*
4,1,4,$2,$3,$4,$5,$6,$7,$8,$9,$2,$3,0*
0 Add four circle primitives for the rounded corners*
1,1,$1+$1,$2,$3*
1,1,$1+$1,$4,$5*
1,1,$1+$1,$6,$7*
1,1,$1+$1,$8,$9*
0 Add four rect primitives between the rounded corners*
20,1,$1+$1,$2,$3,$4,$5,0*
20,1,$1+$1,$4,$5,$6,$7,0*
20,1,$1+$1,$6,$7,$8,$9,0*
20,1,$1+$1,$8,$9,$2,$3,0*%
G04 Aperture macros list end*
%ADD10C,5.080000*%
%ADD11R,3.048000X3.048000*%
%ADD12C,3.400000*%
%ADD13R,2.600000X2.600000*%
%ADD14C,2.600000*%
%ADD15C,2.500000*%
%ADD16R,2.400000X2.400000*%
%ADD17C,2.400000*%
%ADD18RoundRect,0.250000X0.412500X1.100000X-0.412500X1.100000X-0.412500X-1.100000X0.412500X-1.100000X0*%
%ADD19R,3.500000X2.350000*%
%ADD20C,5.700000*%
%ADD21RoundRect,0.250000X-0.450000X0.350000X-0.450000X-0.350000X0.450000X-0.350000X0.450000X0.350000X0*%
%ADD22C,1.440000*%
%ADD23RoundRect,0.250000X0.412500X0.650000X-0.412500X0.650000X-0.412500X-0.650000X0.412500X-0.650000X0*%
%ADD24R,2.500000X2.300000*%
%ADD25RoundRect,0.250000X0.475000X-0.337500X0.475000X0.337500X-0.475000X0.337500X-0.475000X-0.337500X0*%
%ADD26R,2.400000X3.100000*%
%ADD27RoundRect,0.070000X-1.100000X-0.250000X1.100000X-0.250000X1.100000X0.250000X-1.100000X0.250000X0*%
%ADD28C,0.770000*%
%ADD29RoundRect,0.250000X-0.337500X-0.475000X0.337500X-0.475000X0.337500X0.475000X-0.337500X0.475000X0*%
%ADD30C,1.800000*%
%ADD31R,2.000000X2.000000*%
%ADD32C,2.000000*%
%ADD33RoundRect,0.250000X0.337500X0.475000X-0.337500X0.475000X-0.337500X-0.475000X0.337500X-0.475000X0*%
%ADD34R,1.000000X1.500000*%
G04 APERTURE END LIST*
D10*
X153670000Y-119380000D03*
X90170000Y-68580000D03*
X90170000Y-119380000D03*
X153670000Y-68580000D03*
D11*
X102870000Y-118110000D03*
D12*
X118110000Y-118110000D03*
X125730000Y-118110000D03*
X140970000Y-118110000D03*
X102870000Y-69850000D03*
X118110000Y-69850000D03*
X125730000Y-69850000D03*
X140970000Y-69850000D03*
D13*
X77970000Y-102108000D03*
D14*
X77970000Y-107108000D03*
X77970000Y-112108000D03*
D15*
X104020000Y-57150000D03*
X89020000Y-57150000D03*
D13*
X187960000Y-106680000D03*
D14*
X187960000Y-101680000D03*
X187960000Y-96680000D03*
X187960000Y-91680000D03*
D16*
X166667246Y-78740000D03*
D17*
X174167246Y-78740000D03*
D18*
X173012500Y-93980000D03*
X169887500Y-93980000D03*
D19*
X176530000Y-105870000D03*
X176530000Y-99845000D03*
D16*
X164705000Y-67310000D03*
D17*
X175605000Y-67210000D03*
X175605000Y-56410000D03*
X164705000Y-56410000D03*
D20*
X73660000Y-55880000D03*
X190500000Y-55880000D03*
X190500000Y-121920000D03*
X73660000Y-121920000D03*
D21*
X175260000Y-117110000D03*
X175260000Y-119110000D03*
X175260000Y-113300000D03*
X175260000Y-115300000D03*
D17*
X76200000Y-96400000D03*
X76200000Y-81400000D03*
D22*
X181610000Y-114290000D03*
X181610000Y-116830000D03*
X181610000Y-119370000D03*
D23*
X156502500Y-105410000D03*
X153377500Y-105410000D03*
D24*
X114690000Y-57150000D03*
X118990000Y-57150000D03*
D25*
X170180000Y-114067500D03*
X170180000Y-111992500D03*
D13*
X187960000Y-85090000D03*
D14*
X187960000Y-80090000D03*
X187960000Y-75090000D03*
X187960000Y-70090000D03*
D26*
X162560000Y-110490000D03*
D27*
X159685000Y-108585000D03*
X159685000Y-109855000D03*
X159685000Y-111125000D03*
X159685000Y-112395000D03*
X165435000Y-112395000D03*
X165435000Y-111125000D03*
X165435000Y-109855000D03*
X165435000Y-108585000D03*
D28*
X161910000Y-111790000D03*
X161910000Y-109190000D03*
X161910000Y-110490000D03*
X163210000Y-109190000D03*
X163210000Y-110490000D03*
X163210000Y-111790000D03*
D15*
X140970000Y-57150000D03*
X155970000Y-57150000D03*
D29*
X166602500Y-104140000D03*
X168677500Y-104140000D03*
D24*
X126120000Y-57150000D03*
X130420000Y-57150000D03*
D30*
X75500000Y-74870000D03*
X76900000Y-67370000D03*
D31*
X92710000Y-102870000D03*
D32*
X92710000Y-107950000D03*
X92710000Y-113030000D03*
X87630000Y-102870000D03*
X87630000Y-107950000D03*
X87630000Y-113030000D03*
D18*
X173012500Y-90170000D03*
X169887500Y-90170000D03*
D33*
X155745000Y-109220000D03*
X153670000Y-109220000D03*
D21*
X170180000Y-117110000D03*
X170180000Y-119110000D03*
D34*
X76850000Y-116840000D03*
X75550000Y-116840000D03*
M02*
