%TF.GenerationSoftware,KiCad,Pcbnew,(6.0.7)*%
%TF.CreationDate,2022-09-18T10:38:15-04:00*%
%TF.ProjectId,C64PowerSupply,43363450-6f77-4657-9253-7570706c792e,B*%
%TF.SameCoordinates,Original*%
%TF.FileFunction,Drillmap*%
%TF.FilePolarity,Positive*%
%FSLAX45Y45*%
G04 Gerber Fmt 4.5, Leading zero omitted, Abs format (unit mm)*
G04 Created by KiCad (PCBNEW (6.0.7)) date 2022-09-18 10:38:15*
%MOMM*%
%LPD*%
G01*
G04 APERTURE LIST*
%ADD10C,0.050000*%
%ADD11C,0.200000*%
%ADD12C,0.033000*%
%ADD13C,0.040000*%
%ADD14C,0.080000*%
%ADD15C,0.100000*%
%ADD16C,0.120000*%
%ADD17C,0.130000*%
%ADD18C,0.170000*%
%ADD19C,0.320000*%
G04 APERTURE END LIST*
D10*
X19558000Y-5080000D02*
X6858000Y-5080000D01*
X6858000Y-5080000D02*
X6858000Y-12700000D01*
X6858000Y-12700000D02*
X19558000Y-12700000D01*
X19558000Y-12700000D02*
X19558000Y-5080000D01*
D11*
D12*
X16174500Y-10902500D02*
X16207500Y-10935500D01*
X16207500Y-10902500D02*
X16174500Y-10935500D01*
X16174500Y-11032500D02*
X16207500Y-11065500D01*
X16207500Y-11032500D02*
X16174500Y-11065500D01*
X16174500Y-11162500D02*
X16207500Y-11195500D01*
X16207500Y-11162500D02*
X16174500Y-11195500D01*
X16304500Y-10902500D02*
X16337500Y-10935500D01*
X16337500Y-10902500D02*
X16304500Y-10935500D01*
X16304500Y-11032500D02*
X16337500Y-11065500D01*
X16337500Y-11032500D02*
X16304500Y-11065500D01*
X16304500Y-11162500D02*
X16337500Y-11195500D01*
X16337500Y-11162500D02*
X16304500Y-11195500D01*
D13*
X14942500Y-10414000D02*
G75*
G03*
X14942500Y-10414000I-20000J0D01*
G01*
X14942500Y-10541000D02*
G75*
G03*
X14942500Y-10541000I-20000J0D01*
G01*
X14942500Y-10668000D02*
G75*
G03*
X14942500Y-10668000I-20000J0D01*
G01*
X14942500Y-10795000D02*
G75*
G03*
X14942500Y-10795000I-20000J0D01*
G01*
X14942500Y-10922000D02*
G75*
G03*
X14942500Y-10922000I-20000J0D01*
G01*
X14942500Y-11049000D02*
G75*
G03*
X14942500Y-11049000I-20000J0D01*
G01*
X15069500Y-10414000D02*
G75*
G03*
X15069500Y-10414000I-20000J0D01*
G01*
X15069500Y-10541000D02*
G75*
G03*
X15069500Y-10541000I-20000J0D01*
G01*
X15069500Y-10668000D02*
G75*
G03*
X15069500Y-10668000I-20000J0D01*
G01*
X15069500Y-10795000D02*
G75*
G03*
X15069500Y-10795000I-20000J0D01*
G01*
X15069500Y-10922000D02*
G75*
G03*
X15069500Y-10922000I-20000J0D01*
G01*
X15069500Y-11049000D02*
G75*
G03*
X15069500Y-11049000I-20000J0D01*
G01*
X15196500Y-10414000D02*
G75*
G03*
X15196500Y-10414000I-20000J0D01*
G01*
X15196500Y-10541000D02*
G75*
G03*
X15196500Y-10541000I-20000J0D01*
G01*
X15196500Y-10668000D02*
G75*
G03*
X15196500Y-10668000I-20000J0D01*
G01*
X15196500Y-10795000D02*
G75*
G03*
X15196500Y-10795000I-20000J0D01*
G01*
X15196500Y-10922000D02*
G75*
G03*
X15196500Y-10922000I-20000J0D01*
G01*
X15196500Y-11049000D02*
G75*
G03*
X15196500Y-11049000I-20000J0D01*
G01*
X15895000Y-11430000D02*
G75*
G03*
X15895000Y-11430000I-20000J0D01*
G01*
X15895000Y-11557000D02*
G75*
G03*
X15895000Y-11557000I-20000J0D01*
G01*
X15895000Y-11684000D02*
G75*
G03*
X15895000Y-11684000I-20000J0D01*
G01*
X15895000Y-11811000D02*
G75*
G03*
X15895000Y-11811000I-20000J0D01*
G01*
X16022000Y-10414000D02*
G75*
G03*
X16022000Y-10414000I-20000J0D01*
G01*
X16022000Y-11430000D02*
G75*
G03*
X16022000Y-11430000I-20000J0D01*
G01*
X16022000Y-11557000D02*
G75*
G03*
X16022000Y-11557000I-20000J0D01*
G01*
X16022000Y-11684000D02*
G75*
G03*
X16022000Y-11684000I-20000J0D01*
G01*
X16022000Y-11811000D02*
G75*
G03*
X16022000Y-11811000I-20000J0D01*
G01*
X16149000Y-11430000D02*
G75*
G03*
X16149000Y-11430000I-20000J0D01*
G01*
X16149000Y-11557000D02*
G75*
G03*
X16149000Y-11557000I-20000J0D01*
G01*
X16149000Y-11684000D02*
G75*
G03*
X16149000Y-11684000I-20000J0D01*
G01*
X16149000Y-11811000D02*
G75*
G03*
X16149000Y-11811000I-20000J0D01*
G01*
X16276000Y-11430000D02*
G75*
G03*
X16276000Y-11430000I-20000J0D01*
G01*
X16276000Y-11557000D02*
G75*
G03*
X16276000Y-11557000I-20000J0D01*
G01*
X16276000Y-11684000D02*
G75*
G03*
X16276000Y-11684000I-20000J0D01*
G01*
X16276000Y-11811000D02*
G75*
G03*
X16276000Y-11811000I-20000J0D01*
G01*
X16403000Y-8890000D02*
G75*
G03*
X16403000Y-8890000I-20000J0D01*
G01*
X16403000Y-9017000D02*
G75*
G03*
X16403000Y-9017000I-20000J0D01*
G01*
X16403000Y-9144000D02*
G75*
G03*
X16403000Y-9144000I-20000J0D01*
G01*
X16403000Y-9271000D02*
G75*
G03*
X16403000Y-9271000I-20000J0D01*
G01*
X16403000Y-9398000D02*
G75*
G03*
X16403000Y-9398000I-20000J0D01*
G01*
X16403000Y-9525000D02*
G75*
G03*
X16403000Y-9525000I-20000J0D01*
G01*
X16403000Y-11430000D02*
G75*
G03*
X16403000Y-11430000I-20000J0D01*
G01*
X16403000Y-11557000D02*
G75*
G03*
X16403000Y-11557000I-20000J0D01*
G01*
X16403000Y-11684000D02*
G75*
G03*
X16403000Y-11684000I-20000J0D01*
G01*
X16403000Y-11811000D02*
G75*
G03*
X16403000Y-11811000I-20000J0D01*
G01*
X16530000Y-8890000D02*
G75*
G03*
X16530000Y-8890000I-20000J0D01*
G01*
X16530000Y-9017000D02*
G75*
G03*
X16530000Y-9017000I-20000J0D01*
G01*
X16530000Y-9144000D02*
G75*
G03*
X16530000Y-9144000I-20000J0D01*
G01*
X16530000Y-9271000D02*
G75*
G03*
X16530000Y-9271000I-20000J0D01*
G01*
X16530000Y-9398000D02*
G75*
G03*
X16530000Y-9398000I-20000J0D01*
G01*
X16530000Y-9525000D02*
G75*
G03*
X16530000Y-9525000I-20000J0D01*
G01*
X16530000Y-10414000D02*
G75*
G03*
X16530000Y-10414000I-20000J0D01*
G01*
X16656207Y-8889686D02*
G75*
G03*
X16656207Y-8889686I-20000J0D01*
G01*
X16657000Y-9017000D02*
G75*
G03*
X16657000Y-9017000I-20000J0D01*
G01*
X16657000Y-9144000D02*
G75*
G03*
X16657000Y-9144000I-20000J0D01*
G01*
X16657000Y-9271000D02*
G75*
G03*
X16657000Y-9271000I-20000J0D01*
G01*
X16657000Y-9398000D02*
G75*
G03*
X16657000Y-9398000I-20000J0D01*
G01*
X16657000Y-9525000D02*
G75*
G03*
X16657000Y-9525000I-20000J0D01*
G01*
X16784000Y-8890000D02*
G75*
G03*
X16784000Y-8890000I-20000J0D01*
G01*
X16784000Y-9017000D02*
G75*
G03*
X16784000Y-9017000I-20000J0D01*
G01*
X16784000Y-9144000D02*
G75*
G03*
X16784000Y-9144000I-20000J0D01*
G01*
X16784000Y-9271000D02*
G75*
G03*
X16784000Y-9271000I-20000J0D01*
G01*
X16784000Y-9398000D02*
G75*
G03*
X16784000Y-9398000I-20000J0D01*
G01*
X16784000Y-9525000D02*
G75*
G03*
X16784000Y-9525000I-20000J0D01*
G01*
D14*
X7550000Y-7447000D02*
X7550000Y-7527000D01*
X7510000Y-7487000D02*
X7590000Y-7487000D01*
X7690000Y-6697000D02*
X7690000Y-6777000D01*
X7650000Y-6737000D02*
X7730000Y-6737000D01*
X18161000Y-11389000D02*
X18161000Y-11469000D01*
X18121000Y-11429000D02*
X18201000Y-11429000D01*
X18161000Y-11643000D02*
X18161000Y-11723000D01*
X18121000Y-11683000D02*
X18201000Y-11683000D01*
X18161000Y-11897000D02*
X18161000Y-11977000D01*
X18121000Y-11937000D02*
X18201000Y-11937000D01*
D15*
X8798356Y-10322356D02*
X8798356Y-10251644D01*
X8727644Y-10251644D01*
X8727644Y-10322356D01*
X8798356Y-10322356D01*
X8798356Y-10830356D02*
X8798356Y-10759644D01*
X8727644Y-10759644D01*
X8727644Y-10830356D01*
X8798356Y-10830356D01*
X8798356Y-11338356D02*
X8798356Y-11267644D01*
X8727644Y-11267644D01*
X8727644Y-11338356D01*
X8798356Y-11338356D01*
X9306356Y-10322356D02*
X9306356Y-10251644D01*
X9235644Y-10251644D01*
X9235644Y-10322356D01*
X9306356Y-10322356D01*
X9306356Y-10830356D02*
X9306356Y-10759644D01*
X9235644Y-10759644D01*
X9235644Y-10830356D01*
X9306356Y-10830356D01*
X9306356Y-11338356D02*
X9306356Y-11267644D01*
X9235644Y-11267644D01*
X9235644Y-11338356D01*
X9306356Y-11338356D01*
D16*
X7620000Y-8200000D02*
X7680000Y-8140000D01*
X7620000Y-8080000D01*
X7560000Y-8140000D01*
X7620000Y-8200000D01*
X7620000Y-9700000D02*
X7680000Y-9640000D01*
X7620000Y-9580000D01*
X7560000Y-9640000D01*
X7620000Y-9700000D01*
X16470500Y-5701000D02*
X16530500Y-5641000D01*
X16470500Y-5581000D01*
X16410500Y-5641000D01*
X16470500Y-5701000D01*
X16470500Y-6791000D02*
X16530500Y-6731000D01*
X16470500Y-6671000D01*
X16410500Y-6731000D01*
X16470500Y-6791000D01*
X16666725Y-7934000D02*
X16726725Y-7874000D01*
X16666725Y-7814000D01*
X16606725Y-7874000D01*
X16666725Y-7934000D01*
X17416725Y-7934000D02*
X17476725Y-7874000D01*
X17416725Y-7814000D01*
X17356725Y-7874000D01*
X17416725Y-7934000D01*
X17560500Y-5701000D02*
X17620500Y-5641000D01*
X17560500Y-5581000D01*
X17500500Y-5641000D01*
X17560500Y-5701000D01*
X17560500Y-6781000D02*
X17620500Y-6721000D01*
X17560500Y-6661000D01*
X17500500Y-6721000D01*
X17560500Y-6781000D01*
D17*
X7732000Y-10145800D02*
X7862000Y-10275800D01*
X7862000Y-10145800D02*
X7732000Y-10275800D01*
X7862000Y-10210800D02*
G75*
G03*
X7862000Y-10210800I-65000J0D01*
G01*
X7732000Y-10645800D02*
X7862000Y-10775800D01*
X7862000Y-10645800D02*
X7732000Y-10775800D01*
X7862000Y-10710800D02*
G75*
G03*
X7862000Y-10710800I-65000J0D01*
G01*
X7732000Y-11145800D02*
X7862000Y-11275800D01*
X7862000Y-11145800D02*
X7732000Y-11275800D01*
X7862000Y-11210800D02*
G75*
G03*
X7862000Y-11210800I-65000J0D01*
G01*
X18731000Y-6944000D02*
X18861000Y-7074000D01*
X18861000Y-6944000D02*
X18731000Y-7074000D01*
X18861000Y-7009000D02*
G75*
G03*
X18861000Y-7009000I-65000J0D01*
G01*
X18731000Y-7444000D02*
X18861000Y-7574000D01*
X18861000Y-7444000D02*
X18731000Y-7574000D01*
X18861000Y-7509000D02*
G75*
G03*
X18861000Y-7509000I-65000J0D01*
G01*
X18731000Y-7944000D02*
X18861000Y-8074000D01*
X18861000Y-7944000D02*
X18731000Y-8074000D01*
X18861000Y-8009000D02*
G75*
G03*
X18861000Y-8009000I-65000J0D01*
G01*
X18731000Y-8444000D02*
X18861000Y-8574000D01*
X18861000Y-8444000D02*
X18731000Y-8574000D01*
X18861000Y-8509000D02*
G75*
G03*
X18861000Y-8509000I-65000J0D01*
G01*
X18731000Y-9103000D02*
X18861000Y-9233000D01*
X18861000Y-9103000D02*
X18731000Y-9233000D01*
X18861000Y-9168000D02*
G75*
G03*
X18861000Y-9168000I-65000J0D01*
G01*
X18731000Y-9603000D02*
X18861000Y-9733000D01*
X18861000Y-9603000D02*
X18731000Y-9733000D01*
X18861000Y-9668000D02*
G75*
G03*
X18861000Y-9668000I-65000J0D01*
G01*
X18731000Y-10103000D02*
X18861000Y-10233000D01*
X18861000Y-10103000D02*
X18731000Y-10233000D01*
X18861000Y-10168000D02*
G75*
G03*
X18861000Y-10168000I-65000J0D01*
G01*
X18731000Y-10603000D02*
X18861000Y-10733000D01*
X18861000Y-10603000D02*
X18731000Y-10733000D01*
X18861000Y-10668000D02*
G75*
G03*
X18861000Y-10668000I-65000J0D01*
G01*
D18*
X8817000Y-5630000D02*
X8987000Y-5800000D01*
X8987000Y-5630000D02*
X8817000Y-5800000D01*
X8902000Y-5630000D02*
X8902000Y-5800000D01*
X8817000Y-5715000D02*
X8987000Y-5715000D01*
X10202000Y-6900000D02*
X10372000Y-7070000D01*
X10372000Y-6900000D02*
X10202000Y-7070000D01*
X10287000Y-6900000D02*
X10287000Y-7070000D01*
X10202000Y-6985000D02*
X10372000Y-6985000D01*
X10202000Y-11726000D02*
X10372000Y-11896000D01*
X10372000Y-11726000D02*
X10202000Y-11896000D01*
X10287000Y-11726000D02*
X10287000Y-11896000D01*
X10202000Y-11811000D02*
X10372000Y-11811000D01*
X10317000Y-5630000D02*
X10487000Y-5800000D01*
X10487000Y-5630000D02*
X10317000Y-5800000D01*
X10402000Y-5630000D02*
X10402000Y-5800000D01*
X10317000Y-5715000D02*
X10487000Y-5715000D01*
X11726000Y-6900000D02*
X11896000Y-7070000D01*
X11896000Y-6900000D02*
X11726000Y-7070000D01*
X11811000Y-6900000D02*
X11811000Y-7070000D01*
X11726000Y-6985000D02*
X11896000Y-6985000D01*
X11726000Y-11726000D02*
X11896000Y-11896000D01*
X11896000Y-11726000D02*
X11726000Y-11896000D01*
X11811000Y-11726000D02*
X11811000Y-11896000D01*
X11726000Y-11811000D02*
X11896000Y-11811000D01*
X12488000Y-6900000D02*
X12658000Y-7070000D01*
X12658000Y-6900000D02*
X12488000Y-7070000D01*
X12573000Y-6900000D02*
X12573000Y-7070000D01*
X12488000Y-6985000D02*
X12658000Y-6985000D01*
X12488000Y-11726000D02*
X12658000Y-11896000D01*
X12658000Y-11726000D02*
X12488000Y-11896000D01*
X12573000Y-11726000D02*
X12573000Y-11896000D01*
X12488000Y-11811000D02*
X12658000Y-11811000D01*
X14012000Y-5630000D02*
X14182000Y-5800000D01*
X14182000Y-5630000D02*
X14012000Y-5800000D01*
X14097000Y-5630000D02*
X14097000Y-5800000D01*
X14012000Y-5715000D02*
X14182000Y-5715000D01*
X14012000Y-6900000D02*
X14182000Y-7070000D01*
X14182000Y-6900000D02*
X14012000Y-7070000D01*
X14097000Y-6900000D02*
X14097000Y-7070000D01*
X14012000Y-6985000D02*
X14182000Y-6985000D01*
X14012000Y-11726000D02*
X14182000Y-11896000D01*
X14182000Y-11726000D02*
X14012000Y-11896000D01*
X14097000Y-11726000D02*
X14097000Y-11896000D01*
X14012000Y-11811000D02*
X14182000Y-11811000D01*
X15512000Y-5630000D02*
X15682000Y-5800000D01*
X15682000Y-5630000D02*
X15512000Y-5800000D01*
X15597000Y-5630000D02*
X15597000Y-5800000D01*
X15512000Y-5715000D02*
X15682000Y-5715000D01*
D19*
X7206000Y-5428000D02*
X7526000Y-5748000D01*
X7526000Y-5428000D02*
X7206000Y-5748000D01*
X7479138Y-5701138D02*
X7479138Y-5474862D01*
X7252862Y-5474862D01*
X7252862Y-5701138D01*
X7479138Y-5701138D01*
X7206000Y-12032000D02*
X7526000Y-12352000D01*
X7526000Y-12032000D02*
X7206000Y-12352000D01*
X7479138Y-12305138D02*
X7479138Y-12078862D01*
X7252862Y-12078862D01*
X7252862Y-12305138D01*
X7479138Y-12305138D01*
X18890000Y-5428000D02*
X19210000Y-5748000D01*
X19210000Y-5428000D02*
X18890000Y-5748000D01*
X19163138Y-5701138D02*
X19163138Y-5474862D01*
X18936862Y-5474862D01*
X18936862Y-5701138D01*
X19163138Y-5701138D01*
X18890000Y-12032000D02*
X19210000Y-12352000D01*
X19210000Y-12032000D02*
X18890000Y-12352000D01*
X19163138Y-12305138D02*
X19163138Y-12078862D01*
X18936862Y-12078862D01*
X18936862Y-12305138D01*
X19163138Y-12305138D01*
D11*
X7113119Y-13012976D02*
X7113119Y-12812976D01*
X7160738Y-12812976D01*
X7189309Y-12822500D01*
X7208357Y-12841548D01*
X7217881Y-12860595D01*
X7227405Y-12898690D01*
X7227405Y-12927262D01*
X7217881Y-12965357D01*
X7208357Y-12984405D01*
X7189309Y-13003452D01*
X7160738Y-13012976D01*
X7113119Y-13012976D01*
X7313119Y-13012976D02*
X7313119Y-12879643D01*
X7313119Y-12917738D02*
X7322643Y-12898690D01*
X7332167Y-12889167D01*
X7351214Y-12879643D01*
X7370262Y-12879643D01*
X7436928Y-13012976D02*
X7436928Y-12879643D01*
X7436928Y-12812976D02*
X7427405Y-12822500D01*
X7436928Y-12832024D01*
X7446452Y-12822500D01*
X7436928Y-12812976D01*
X7436928Y-12832024D01*
X7560738Y-13012976D02*
X7541690Y-13003452D01*
X7532167Y-12984405D01*
X7532167Y-12812976D01*
X7665500Y-13012976D02*
X7646452Y-13003452D01*
X7636928Y-12984405D01*
X7636928Y-12812976D01*
X7894071Y-13012976D02*
X7894071Y-12812976D01*
X7960738Y-12955833D01*
X8027405Y-12812976D01*
X8027405Y-13012976D01*
X8208357Y-13012976D02*
X8208357Y-12908214D01*
X8198833Y-12889167D01*
X8179786Y-12879643D01*
X8141690Y-12879643D01*
X8122643Y-12889167D01*
X8208357Y-13003452D02*
X8189309Y-13012976D01*
X8141690Y-13012976D01*
X8122643Y-13003452D01*
X8113119Y-12984405D01*
X8113119Y-12965357D01*
X8122643Y-12946309D01*
X8141690Y-12936786D01*
X8189309Y-12936786D01*
X8208357Y-12927262D01*
X8303595Y-12879643D02*
X8303595Y-13079643D01*
X8303595Y-12889167D02*
X8322643Y-12879643D01*
X8360738Y-12879643D01*
X8379786Y-12889167D01*
X8389310Y-12898690D01*
X8398833Y-12917738D01*
X8398833Y-12974881D01*
X8389310Y-12993928D01*
X8379786Y-13003452D01*
X8360738Y-13012976D01*
X8322643Y-13012976D01*
X8303595Y-13003452D01*
X8484548Y-12993928D02*
X8494071Y-13003452D01*
X8484548Y-13012976D01*
X8475024Y-13003452D01*
X8484548Y-12993928D01*
X8484548Y-13012976D01*
X8484548Y-12889167D02*
X8494071Y-12898690D01*
X8484548Y-12908214D01*
X8475024Y-12898690D01*
X8484548Y-12889167D01*
X8484548Y-12908214D01*
D12*
X6822500Y-13326000D02*
X6855500Y-13359000D01*
X6855500Y-13326000D02*
X6822500Y-13359000D01*
D11*
X7151214Y-13232976D02*
X7170262Y-13232976D01*
X7189309Y-13242500D01*
X7198833Y-13252024D01*
X7208357Y-13271071D01*
X7217881Y-13309167D01*
X7217881Y-13356786D01*
X7208357Y-13394881D01*
X7198833Y-13413928D01*
X7189309Y-13423452D01*
X7170262Y-13432976D01*
X7151214Y-13432976D01*
X7132167Y-13423452D01*
X7122643Y-13413928D01*
X7113119Y-13394881D01*
X7103595Y-13356786D01*
X7103595Y-13309167D01*
X7113119Y-13271071D01*
X7122643Y-13252024D01*
X7132167Y-13242500D01*
X7151214Y-13232976D01*
X7303595Y-13413928D02*
X7313119Y-13423452D01*
X7303595Y-13432976D01*
X7294071Y-13423452D01*
X7303595Y-13413928D01*
X7303595Y-13432976D01*
X7379786Y-13232976D02*
X7503595Y-13232976D01*
X7436928Y-13309167D01*
X7465500Y-13309167D01*
X7484548Y-13318690D01*
X7494071Y-13328214D01*
X7503595Y-13347262D01*
X7503595Y-13394881D01*
X7494071Y-13413928D01*
X7484548Y-13423452D01*
X7465500Y-13432976D01*
X7408357Y-13432976D01*
X7389309Y-13423452D01*
X7379786Y-13413928D01*
X7570262Y-13232976D02*
X7694071Y-13232976D01*
X7627405Y-13309167D01*
X7655976Y-13309167D01*
X7675024Y-13318690D01*
X7684548Y-13328214D01*
X7694071Y-13347262D01*
X7694071Y-13394881D01*
X7684548Y-13413928D01*
X7675024Y-13423452D01*
X7655976Y-13432976D01*
X7598833Y-13432976D01*
X7579786Y-13423452D01*
X7570262Y-13413928D01*
X7817881Y-13232976D02*
X7836928Y-13232976D01*
X7855976Y-13242500D01*
X7865500Y-13252024D01*
X7875024Y-13271071D01*
X7884548Y-13309167D01*
X7884548Y-13356786D01*
X7875024Y-13394881D01*
X7865500Y-13413928D01*
X7855976Y-13423452D01*
X7836928Y-13432976D01*
X7817881Y-13432976D01*
X7798833Y-13423452D01*
X7789309Y-13413928D01*
X7779786Y-13394881D01*
X7770262Y-13356786D01*
X7770262Y-13309167D01*
X7779786Y-13271071D01*
X7789309Y-13252024D01*
X7798833Y-13242500D01*
X7817881Y-13232976D01*
X7970262Y-13432976D02*
X7970262Y-13299643D01*
X7970262Y-13318690D02*
X7979786Y-13309167D01*
X7998833Y-13299643D01*
X8027405Y-13299643D01*
X8046452Y-13309167D01*
X8055976Y-13328214D01*
X8055976Y-13432976D01*
X8055976Y-13328214D02*
X8065500Y-13309167D01*
X8084548Y-13299643D01*
X8113119Y-13299643D01*
X8132167Y-13309167D01*
X8141690Y-13328214D01*
X8141690Y-13432976D01*
X8236928Y-13432976D02*
X8236928Y-13299643D01*
X8236928Y-13318690D02*
X8246452Y-13309167D01*
X8265500Y-13299643D01*
X8294071Y-13299643D01*
X8313119Y-13309167D01*
X8322643Y-13328214D01*
X8322643Y-13432976D01*
X8322643Y-13328214D02*
X8332167Y-13309167D01*
X8351214Y-13299643D01*
X8379786Y-13299643D01*
X8398833Y-13309167D01*
X8408357Y-13328214D01*
X8408357Y-13432976D01*
X8798833Y-13223452D02*
X8627405Y-13480595D01*
X9055976Y-13232976D02*
X9075024Y-13232976D01*
X9094071Y-13242500D01*
X9103595Y-13252024D01*
X9113119Y-13271071D01*
X9122643Y-13309167D01*
X9122643Y-13356786D01*
X9113119Y-13394881D01*
X9103595Y-13413928D01*
X9094071Y-13423452D01*
X9075024Y-13432976D01*
X9055976Y-13432976D01*
X9036929Y-13423452D01*
X9027405Y-13413928D01*
X9017881Y-13394881D01*
X9008357Y-13356786D01*
X9008357Y-13309167D01*
X9017881Y-13271071D01*
X9027405Y-13252024D01*
X9036929Y-13242500D01*
X9055976Y-13232976D01*
X9208357Y-13413928D02*
X9217881Y-13423452D01*
X9208357Y-13432976D01*
X9198833Y-13423452D01*
X9208357Y-13413928D01*
X9208357Y-13432976D01*
X9341690Y-13232976D02*
X9360738Y-13232976D01*
X9379786Y-13242500D01*
X9389310Y-13252024D01*
X9398833Y-13271071D01*
X9408357Y-13309167D01*
X9408357Y-13356786D01*
X9398833Y-13394881D01*
X9389310Y-13413928D01*
X9379786Y-13423452D01*
X9360738Y-13432976D01*
X9341690Y-13432976D01*
X9322643Y-13423452D01*
X9313119Y-13413928D01*
X9303595Y-13394881D01*
X9294071Y-13356786D01*
X9294071Y-13309167D01*
X9303595Y-13271071D01*
X9313119Y-13252024D01*
X9322643Y-13242500D01*
X9341690Y-13232976D01*
X9598833Y-13432976D02*
X9484548Y-13432976D01*
X9541690Y-13432976D02*
X9541690Y-13232976D01*
X9522643Y-13261548D01*
X9503595Y-13280595D01*
X9484548Y-13290119D01*
X9665500Y-13232976D02*
X9789310Y-13232976D01*
X9722643Y-13309167D01*
X9751214Y-13309167D01*
X9770262Y-13318690D01*
X9779786Y-13328214D01*
X9789310Y-13347262D01*
X9789310Y-13394881D01*
X9779786Y-13413928D01*
X9770262Y-13423452D01*
X9751214Y-13432976D01*
X9694071Y-13432976D01*
X9675024Y-13423452D01*
X9665500Y-13413928D01*
X9913119Y-13232976D02*
X9932167Y-13232976D01*
X9951214Y-13242500D01*
X9960738Y-13252024D01*
X9970262Y-13271071D01*
X9979786Y-13309167D01*
X9979786Y-13356786D01*
X9970262Y-13394881D01*
X9960738Y-13413928D01*
X9951214Y-13423452D01*
X9932167Y-13432976D01*
X9913119Y-13432976D01*
X9894071Y-13423452D01*
X9884548Y-13413928D01*
X9875024Y-13394881D01*
X9865500Y-13356786D01*
X9865500Y-13309167D01*
X9875024Y-13271071D01*
X9884548Y-13252024D01*
X9894071Y-13242500D01*
X9913119Y-13232976D01*
X10055976Y-13232976D02*
X10055976Y-13271071D01*
X10132167Y-13232976D02*
X10132167Y-13271071D01*
X10427405Y-13509167D02*
X10417881Y-13499643D01*
X10398833Y-13471071D01*
X10389310Y-13452024D01*
X10379786Y-13423452D01*
X10370262Y-13375833D01*
X10370262Y-13337738D01*
X10379786Y-13290119D01*
X10389310Y-13261548D01*
X10398833Y-13242500D01*
X10417881Y-13213928D01*
X10427405Y-13204405D01*
X10589310Y-13232976D02*
X10551214Y-13232976D01*
X10532167Y-13242500D01*
X10522643Y-13252024D01*
X10503595Y-13280595D01*
X10494071Y-13318690D01*
X10494071Y-13394881D01*
X10503595Y-13413928D01*
X10513119Y-13423452D01*
X10532167Y-13432976D01*
X10570262Y-13432976D01*
X10589310Y-13423452D01*
X10598833Y-13413928D01*
X10608357Y-13394881D01*
X10608357Y-13347262D01*
X10598833Y-13328214D01*
X10589310Y-13318690D01*
X10570262Y-13309167D01*
X10532167Y-13309167D01*
X10513119Y-13318690D01*
X10503595Y-13328214D01*
X10494071Y-13347262D01*
X10846452Y-13432976D02*
X10846452Y-13232976D01*
X10932167Y-13432976D02*
X10932167Y-13328214D01*
X10922643Y-13309167D01*
X10903595Y-13299643D01*
X10875024Y-13299643D01*
X10855976Y-13309167D01*
X10846452Y-13318690D01*
X11055976Y-13432976D02*
X11036929Y-13423452D01*
X11027405Y-13413928D01*
X11017881Y-13394881D01*
X11017881Y-13337738D01*
X11027405Y-13318690D01*
X11036929Y-13309167D01*
X11055976Y-13299643D01*
X11084548Y-13299643D01*
X11103595Y-13309167D01*
X11113119Y-13318690D01*
X11122643Y-13337738D01*
X11122643Y-13394881D01*
X11113119Y-13413928D01*
X11103595Y-13423452D01*
X11084548Y-13432976D01*
X11055976Y-13432976D01*
X11236928Y-13432976D02*
X11217881Y-13423452D01*
X11208357Y-13404405D01*
X11208357Y-13232976D01*
X11389309Y-13423452D02*
X11370262Y-13432976D01*
X11332167Y-13432976D01*
X11313119Y-13423452D01*
X11303595Y-13404405D01*
X11303595Y-13328214D01*
X11313119Y-13309167D01*
X11332167Y-13299643D01*
X11370262Y-13299643D01*
X11389309Y-13309167D01*
X11398833Y-13328214D01*
X11398833Y-13347262D01*
X11303595Y-13366309D01*
X11475024Y-13423452D02*
X11494071Y-13432976D01*
X11532167Y-13432976D01*
X11551214Y-13423452D01*
X11560738Y-13404405D01*
X11560738Y-13394881D01*
X11551214Y-13375833D01*
X11532167Y-13366309D01*
X11503595Y-13366309D01*
X11484548Y-13356786D01*
X11475024Y-13337738D01*
X11475024Y-13328214D01*
X11484548Y-13309167D01*
X11503595Y-13299643D01*
X11532167Y-13299643D01*
X11551214Y-13309167D01*
X11627405Y-13509167D02*
X11636928Y-13499643D01*
X11655976Y-13471071D01*
X11665500Y-13452024D01*
X11675024Y-13423452D01*
X11684548Y-13375833D01*
X11684548Y-13337738D01*
X11675024Y-13290119D01*
X11665500Y-13261548D01*
X11655976Y-13242500D01*
X11636928Y-13213928D01*
X11627405Y-13204405D01*
D13*
X6855500Y-13606500D02*
G75*
G03*
X6855500Y-13606500I-20000J0D01*
G01*
D11*
X7151214Y-13496976D02*
X7170262Y-13496976D01*
X7189309Y-13506500D01*
X7198833Y-13516024D01*
X7208357Y-13535071D01*
X7217881Y-13573167D01*
X7217881Y-13620786D01*
X7208357Y-13658881D01*
X7198833Y-13677928D01*
X7189309Y-13687452D01*
X7170262Y-13696976D01*
X7151214Y-13696976D01*
X7132167Y-13687452D01*
X7122643Y-13677928D01*
X7113119Y-13658881D01*
X7103595Y-13620786D01*
X7103595Y-13573167D01*
X7113119Y-13535071D01*
X7122643Y-13516024D01*
X7132167Y-13506500D01*
X7151214Y-13496976D01*
X7303595Y-13677928D02*
X7313119Y-13687452D01*
X7303595Y-13696976D01*
X7294071Y-13687452D01*
X7303595Y-13677928D01*
X7303595Y-13696976D01*
X7484548Y-13563643D02*
X7484548Y-13696976D01*
X7436928Y-13487452D02*
X7389309Y-13630309D01*
X7513119Y-13630309D01*
X7627405Y-13496976D02*
X7646452Y-13496976D01*
X7665500Y-13506500D01*
X7675024Y-13516024D01*
X7684548Y-13535071D01*
X7694071Y-13573167D01*
X7694071Y-13620786D01*
X7684548Y-13658881D01*
X7675024Y-13677928D01*
X7665500Y-13687452D01*
X7646452Y-13696976D01*
X7627405Y-13696976D01*
X7608357Y-13687452D01*
X7598833Y-13677928D01*
X7589309Y-13658881D01*
X7579786Y-13620786D01*
X7579786Y-13573167D01*
X7589309Y-13535071D01*
X7598833Y-13516024D01*
X7608357Y-13506500D01*
X7627405Y-13496976D01*
X7817881Y-13496976D02*
X7836928Y-13496976D01*
X7855976Y-13506500D01*
X7865500Y-13516024D01*
X7875024Y-13535071D01*
X7884548Y-13573167D01*
X7884548Y-13620786D01*
X7875024Y-13658881D01*
X7865500Y-13677928D01*
X7855976Y-13687452D01*
X7836928Y-13696976D01*
X7817881Y-13696976D01*
X7798833Y-13687452D01*
X7789309Y-13677928D01*
X7779786Y-13658881D01*
X7770262Y-13620786D01*
X7770262Y-13573167D01*
X7779786Y-13535071D01*
X7789309Y-13516024D01*
X7798833Y-13506500D01*
X7817881Y-13496976D01*
X7970262Y-13696976D02*
X7970262Y-13563643D01*
X7970262Y-13582690D02*
X7979786Y-13573167D01*
X7998833Y-13563643D01*
X8027405Y-13563643D01*
X8046452Y-13573167D01*
X8055976Y-13592214D01*
X8055976Y-13696976D01*
X8055976Y-13592214D02*
X8065500Y-13573167D01*
X8084548Y-13563643D01*
X8113119Y-13563643D01*
X8132167Y-13573167D01*
X8141690Y-13592214D01*
X8141690Y-13696976D01*
X8236928Y-13696976D02*
X8236928Y-13563643D01*
X8236928Y-13582690D02*
X8246452Y-13573167D01*
X8265500Y-13563643D01*
X8294071Y-13563643D01*
X8313119Y-13573167D01*
X8322643Y-13592214D01*
X8322643Y-13696976D01*
X8322643Y-13592214D02*
X8332167Y-13573167D01*
X8351214Y-13563643D01*
X8379786Y-13563643D01*
X8398833Y-13573167D01*
X8408357Y-13592214D01*
X8408357Y-13696976D01*
X8798833Y-13487452D02*
X8627405Y-13744595D01*
X9055976Y-13496976D02*
X9075024Y-13496976D01*
X9094071Y-13506500D01*
X9103595Y-13516024D01*
X9113119Y-13535071D01*
X9122643Y-13573167D01*
X9122643Y-13620786D01*
X9113119Y-13658881D01*
X9103595Y-13677928D01*
X9094071Y-13687452D01*
X9075024Y-13696976D01*
X9055976Y-13696976D01*
X9036929Y-13687452D01*
X9027405Y-13677928D01*
X9017881Y-13658881D01*
X9008357Y-13620786D01*
X9008357Y-13573167D01*
X9017881Y-13535071D01*
X9027405Y-13516024D01*
X9036929Y-13506500D01*
X9055976Y-13496976D01*
X9208357Y-13677928D02*
X9217881Y-13687452D01*
X9208357Y-13696976D01*
X9198833Y-13687452D01*
X9208357Y-13677928D01*
X9208357Y-13696976D01*
X9341690Y-13496976D02*
X9360738Y-13496976D01*
X9379786Y-13506500D01*
X9389310Y-13516024D01*
X9398833Y-13535071D01*
X9408357Y-13573167D01*
X9408357Y-13620786D01*
X9398833Y-13658881D01*
X9389310Y-13677928D01*
X9379786Y-13687452D01*
X9360738Y-13696976D01*
X9341690Y-13696976D01*
X9322643Y-13687452D01*
X9313119Y-13677928D01*
X9303595Y-13658881D01*
X9294071Y-13620786D01*
X9294071Y-13573167D01*
X9303595Y-13535071D01*
X9313119Y-13516024D01*
X9322643Y-13506500D01*
X9341690Y-13496976D01*
X9598833Y-13696976D02*
X9484548Y-13696976D01*
X9541690Y-13696976D02*
X9541690Y-13496976D01*
X9522643Y-13525548D01*
X9503595Y-13544595D01*
X9484548Y-13554119D01*
X9779786Y-13496976D02*
X9684548Y-13496976D01*
X9675024Y-13592214D01*
X9684548Y-13582690D01*
X9703595Y-13573167D01*
X9751214Y-13573167D01*
X9770262Y-13582690D01*
X9779786Y-13592214D01*
X9789310Y-13611262D01*
X9789310Y-13658881D01*
X9779786Y-13677928D01*
X9770262Y-13687452D01*
X9751214Y-13696976D01*
X9703595Y-13696976D01*
X9684548Y-13687452D01*
X9675024Y-13677928D01*
X9855976Y-13496976D02*
X9989310Y-13496976D01*
X9903595Y-13696976D01*
X10055976Y-13496976D02*
X10055976Y-13535071D01*
X10132167Y-13496976D02*
X10132167Y-13535071D01*
X10427405Y-13773167D02*
X10417881Y-13763643D01*
X10398833Y-13735071D01*
X10389310Y-13716024D01*
X10379786Y-13687452D01*
X10370262Y-13639833D01*
X10370262Y-13601738D01*
X10379786Y-13554119D01*
X10389310Y-13525548D01*
X10398833Y-13506500D01*
X10417881Y-13477928D01*
X10427405Y-13468405D01*
X10589310Y-13496976D02*
X10551214Y-13496976D01*
X10532167Y-13506500D01*
X10522643Y-13516024D01*
X10503595Y-13544595D01*
X10494071Y-13582690D01*
X10494071Y-13658881D01*
X10503595Y-13677928D01*
X10513119Y-13687452D01*
X10532167Y-13696976D01*
X10570262Y-13696976D01*
X10589310Y-13687452D01*
X10598833Y-13677928D01*
X10608357Y-13658881D01*
X10608357Y-13611262D01*
X10598833Y-13592214D01*
X10589310Y-13582690D01*
X10570262Y-13573167D01*
X10532167Y-13573167D01*
X10513119Y-13582690D01*
X10503595Y-13592214D01*
X10494071Y-13611262D01*
X10779786Y-13563643D02*
X10779786Y-13696976D01*
X10732167Y-13487452D02*
X10684548Y-13630309D01*
X10808357Y-13630309D01*
X11036929Y-13696976D02*
X11036929Y-13496976D01*
X11122643Y-13696976D02*
X11122643Y-13592214D01*
X11113119Y-13573167D01*
X11094071Y-13563643D01*
X11065500Y-13563643D01*
X11046452Y-13573167D01*
X11036929Y-13582690D01*
X11246452Y-13696976D02*
X11227405Y-13687452D01*
X11217881Y-13677928D01*
X11208357Y-13658881D01*
X11208357Y-13601738D01*
X11217881Y-13582690D01*
X11227405Y-13573167D01*
X11246452Y-13563643D01*
X11275024Y-13563643D01*
X11294071Y-13573167D01*
X11303595Y-13582690D01*
X11313119Y-13601738D01*
X11313119Y-13658881D01*
X11303595Y-13677928D01*
X11294071Y-13687452D01*
X11275024Y-13696976D01*
X11246452Y-13696976D01*
X11427405Y-13696976D02*
X11408357Y-13687452D01*
X11398833Y-13668405D01*
X11398833Y-13496976D01*
X11579786Y-13687452D02*
X11560738Y-13696976D01*
X11522643Y-13696976D01*
X11503595Y-13687452D01*
X11494071Y-13668405D01*
X11494071Y-13592214D01*
X11503595Y-13573167D01*
X11522643Y-13563643D01*
X11560738Y-13563643D01*
X11579786Y-13573167D01*
X11589309Y-13592214D01*
X11589309Y-13611262D01*
X11494071Y-13630309D01*
X11665500Y-13687452D02*
X11684548Y-13696976D01*
X11722643Y-13696976D01*
X11741690Y-13687452D01*
X11751214Y-13668405D01*
X11751214Y-13658881D01*
X11741690Y-13639833D01*
X11722643Y-13630309D01*
X11694071Y-13630309D01*
X11675024Y-13620786D01*
X11665500Y-13601738D01*
X11665500Y-13592214D01*
X11675024Y-13573167D01*
X11694071Y-13563643D01*
X11722643Y-13563643D01*
X11741690Y-13573167D01*
X11817881Y-13773167D02*
X11827405Y-13763643D01*
X11846452Y-13735071D01*
X11855976Y-13716024D01*
X11865500Y-13687452D01*
X11875024Y-13639833D01*
X11875024Y-13601738D01*
X11865500Y-13554119D01*
X11855976Y-13525548D01*
X11846452Y-13506500D01*
X11827405Y-13477928D01*
X11817881Y-13468405D01*
D14*
X6815500Y-13830500D02*
X6815500Y-13910500D01*
X6775500Y-13870500D02*
X6855500Y-13870500D01*
D11*
X7151214Y-13760976D02*
X7170262Y-13760976D01*
X7189309Y-13770500D01*
X7198833Y-13780024D01*
X7208357Y-13799071D01*
X7217881Y-13837167D01*
X7217881Y-13884786D01*
X7208357Y-13922881D01*
X7198833Y-13941928D01*
X7189309Y-13951452D01*
X7170262Y-13960976D01*
X7151214Y-13960976D01*
X7132167Y-13951452D01*
X7122643Y-13941928D01*
X7113119Y-13922881D01*
X7103595Y-13884786D01*
X7103595Y-13837167D01*
X7113119Y-13799071D01*
X7122643Y-13780024D01*
X7132167Y-13770500D01*
X7151214Y-13760976D01*
X7303595Y-13941928D02*
X7313119Y-13951452D01*
X7303595Y-13960976D01*
X7294071Y-13951452D01*
X7303595Y-13941928D01*
X7303595Y-13960976D01*
X7427405Y-13846690D02*
X7408357Y-13837167D01*
X7398833Y-13827643D01*
X7389309Y-13808595D01*
X7389309Y-13799071D01*
X7398833Y-13780024D01*
X7408357Y-13770500D01*
X7427405Y-13760976D01*
X7465500Y-13760976D01*
X7484548Y-13770500D01*
X7494071Y-13780024D01*
X7503595Y-13799071D01*
X7503595Y-13808595D01*
X7494071Y-13827643D01*
X7484548Y-13837167D01*
X7465500Y-13846690D01*
X7427405Y-13846690D01*
X7408357Y-13856214D01*
X7398833Y-13865738D01*
X7389309Y-13884786D01*
X7389309Y-13922881D01*
X7398833Y-13941928D01*
X7408357Y-13951452D01*
X7427405Y-13960976D01*
X7465500Y-13960976D01*
X7484548Y-13951452D01*
X7494071Y-13941928D01*
X7503595Y-13922881D01*
X7503595Y-13884786D01*
X7494071Y-13865738D01*
X7484548Y-13856214D01*
X7465500Y-13846690D01*
X7627405Y-13760976D02*
X7646452Y-13760976D01*
X7665500Y-13770500D01*
X7675024Y-13780024D01*
X7684548Y-13799071D01*
X7694071Y-13837167D01*
X7694071Y-13884786D01*
X7684548Y-13922881D01*
X7675024Y-13941928D01*
X7665500Y-13951452D01*
X7646452Y-13960976D01*
X7627405Y-13960976D01*
X7608357Y-13951452D01*
X7598833Y-13941928D01*
X7589309Y-13922881D01*
X7579786Y-13884786D01*
X7579786Y-13837167D01*
X7589309Y-13799071D01*
X7598833Y-13780024D01*
X7608357Y-13770500D01*
X7627405Y-13760976D01*
X7817881Y-13760976D02*
X7836928Y-13760976D01*
X7855976Y-13770500D01*
X7865500Y-13780024D01*
X7875024Y-13799071D01*
X7884548Y-13837167D01*
X7884548Y-13884786D01*
X7875024Y-13922881D01*
X7865500Y-13941928D01*
X7855976Y-13951452D01*
X7836928Y-13960976D01*
X7817881Y-13960976D01*
X7798833Y-13951452D01*
X7789309Y-13941928D01*
X7779786Y-13922881D01*
X7770262Y-13884786D01*
X7770262Y-13837167D01*
X7779786Y-13799071D01*
X7789309Y-13780024D01*
X7798833Y-13770500D01*
X7817881Y-13760976D01*
X7970262Y-13960976D02*
X7970262Y-13827643D01*
X7970262Y-13846690D02*
X7979786Y-13837167D01*
X7998833Y-13827643D01*
X8027405Y-13827643D01*
X8046452Y-13837167D01*
X8055976Y-13856214D01*
X8055976Y-13960976D01*
X8055976Y-13856214D02*
X8065500Y-13837167D01*
X8084548Y-13827643D01*
X8113119Y-13827643D01*
X8132167Y-13837167D01*
X8141690Y-13856214D01*
X8141690Y-13960976D01*
X8236928Y-13960976D02*
X8236928Y-13827643D01*
X8236928Y-13846690D02*
X8246452Y-13837167D01*
X8265500Y-13827643D01*
X8294071Y-13827643D01*
X8313119Y-13837167D01*
X8322643Y-13856214D01*
X8322643Y-13960976D01*
X8322643Y-13856214D02*
X8332167Y-13837167D01*
X8351214Y-13827643D01*
X8379786Y-13827643D01*
X8398833Y-13837167D01*
X8408357Y-13856214D01*
X8408357Y-13960976D01*
X8798833Y-13751452D02*
X8627405Y-14008595D01*
X9055976Y-13760976D02*
X9075024Y-13760976D01*
X9094071Y-13770500D01*
X9103595Y-13780024D01*
X9113119Y-13799071D01*
X9122643Y-13837167D01*
X9122643Y-13884786D01*
X9113119Y-13922881D01*
X9103595Y-13941928D01*
X9094071Y-13951452D01*
X9075024Y-13960976D01*
X9055976Y-13960976D01*
X9036929Y-13951452D01*
X9027405Y-13941928D01*
X9017881Y-13922881D01*
X9008357Y-13884786D01*
X9008357Y-13837167D01*
X9017881Y-13799071D01*
X9027405Y-13780024D01*
X9036929Y-13770500D01*
X9055976Y-13760976D01*
X9208357Y-13941928D02*
X9217881Y-13951452D01*
X9208357Y-13960976D01*
X9198833Y-13951452D01*
X9208357Y-13941928D01*
X9208357Y-13960976D01*
X9341690Y-13760976D02*
X9360738Y-13760976D01*
X9379786Y-13770500D01*
X9389310Y-13780024D01*
X9398833Y-13799071D01*
X9408357Y-13837167D01*
X9408357Y-13884786D01*
X9398833Y-13922881D01*
X9389310Y-13941928D01*
X9379786Y-13951452D01*
X9360738Y-13960976D01*
X9341690Y-13960976D01*
X9322643Y-13951452D01*
X9313119Y-13941928D01*
X9303595Y-13922881D01*
X9294071Y-13884786D01*
X9294071Y-13837167D01*
X9303595Y-13799071D01*
X9313119Y-13780024D01*
X9322643Y-13770500D01*
X9341690Y-13760976D01*
X9475024Y-13760976D02*
X9598833Y-13760976D01*
X9532167Y-13837167D01*
X9560738Y-13837167D01*
X9579786Y-13846690D01*
X9589310Y-13856214D01*
X9598833Y-13875262D01*
X9598833Y-13922881D01*
X9589310Y-13941928D01*
X9579786Y-13951452D01*
X9560738Y-13960976D01*
X9503595Y-13960976D01*
X9484548Y-13951452D01*
X9475024Y-13941928D01*
X9789310Y-13960976D02*
X9675024Y-13960976D01*
X9732167Y-13960976D02*
X9732167Y-13760976D01*
X9713119Y-13789548D01*
X9694071Y-13808595D01*
X9675024Y-13818119D01*
X9970262Y-13760976D02*
X9875024Y-13760976D01*
X9865500Y-13856214D01*
X9875024Y-13846690D01*
X9894071Y-13837167D01*
X9941690Y-13837167D01*
X9960738Y-13846690D01*
X9970262Y-13856214D01*
X9979786Y-13875262D01*
X9979786Y-13922881D01*
X9970262Y-13941928D01*
X9960738Y-13951452D01*
X9941690Y-13960976D01*
X9894071Y-13960976D01*
X9875024Y-13951452D01*
X9865500Y-13941928D01*
X10055976Y-13760976D02*
X10055976Y-13799071D01*
X10132167Y-13760976D02*
X10132167Y-13799071D01*
X10427405Y-14037167D02*
X10417881Y-14027643D01*
X10398833Y-13999071D01*
X10389310Y-13980024D01*
X10379786Y-13951452D01*
X10370262Y-13903833D01*
X10370262Y-13865738D01*
X10379786Y-13818119D01*
X10389310Y-13789548D01*
X10398833Y-13770500D01*
X10417881Y-13741928D01*
X10427405Y-13732405D01*
X10598833Y-13760976D02*
X10503595Y-13760976D01*
X10494071Y-13856214D01*
X10503595Y-13846690D01*
X10522643Y-13837167D01*
X10570262Y-13837167D01*
X10589310Y-13846690D01*
X10598833Y-13856214D01*
X10608357Y-13875262D01*
X10608357Y-13922881D01*
X10598833Y-13941928D01*
X10589310Y-13951452D01*
X10570262Y-13960976D01*
X10522643Y-13960976D01*
X10503595Y-13951452D01*
X10494071Y-13941928D01*
X10846452Y-13960976D02*
X10846452Y-13760976D01*
X10932167Y-13960976D02*
X10932167Y-13856214D01*
X10922643Y-13837167D01*
X10903595Y-13827643D01*
X10875024Y-13827643D01*
X10855976Y-13837167D01*
X10846452Y-13846690D01*
X11055976Y-13960976D02*
X11036929Y-13951452D01*
X11027405Y-13941928D01*
X11017881Y-13922881D01*
X11017881Y-13865738D01*
X11027405Y-13846690D01*
X11036929Y-13837167D01*
X11055976Y-13827643D01*
X11084548Y-13827643D01*
X11103595Y-13837167D01*
X11113119Y-13846690D01*
X11122643Y-13865738D01*
X11122643Y-13922881D01*
X11113119Y-13941928D01*
X11103595Y-13951452D01*
X11084548Y-13960976D01*
X11055976Y-13960976D01*
X11236928Y-13960976D02*
X11217881Y-13951452D01*
X11208357Y-13932405D01*
X11208357Y-13760976D01*
X11389309Y-13951452D02*
X11370262Y-13960976D01*
X11332167Y-13960976D01*
X11313119Y-13951452D01*
X11303595Y-13932405D01*
X11303595Y-13856214D01*
X11313119Y-13837167D01*
X11332167Y-13827643D01*
X11370262Y-13827643D01*
X11389309Y-13837167D01*
X11398833Y-13856214D01*
X11398833Y-13875262D01*
X11303595Y-13894309D01*
X11475024Y-13951452D02*
X11494071Y-13960976D01*
X11532167Y-13960976D01*
X11551214Y-13951452D01*
X11560738Y-13932405D01*
X11560738Y-13922881D01*
X11551214Y-13903833D01*
X11532167Y-13894309D01*
X11503595Y-13894309D01*
X11484548Y-13884786D01*
X11475024Y-13865738D01*
X11475024Y-13856214D01*
X11484548Y-13837167D01*
X11503595Y-13827643D01*
X11532167Y-13827643D01*
X11551214Y-13837167D01*
X11627405Y-14037167D02*
X11636928Y-14027643D01*
X11655976Y-13999071D01*
X11665500Y-13980024D01*
X11675024Y-13951452D01*
X11684548Y-13903833D01*
X11684548Y-13865738D01*
X11675024Y-13818119D01*
X11665500Y-13789548D01*
X11655976Y-13770500D01*
X11636928Y-13741928D01*
X11627405Y-13732405D01*
D15*
X6840856Y-14169856D02*
X6840856Y-14099144D01*
X6770144Y-14099144D01*
X6770144Y-14169856D01*
X6840856Y-14169856D01*
D11*
X7217881Y-14224976D02*
X7103595Y-14224976D01*
X7160738Y-14224976D02*
X7160738Y-14024976D01*
X7141690Y-14053548D01*
X7122643Y-14072595D01*
X7103595Y-14082119D01*
X7303595Y-14205928D02*
X7313119Y-14215452D01*
X7303595Y-14224976D01*
X7294071Y-14215452D01*
X7303595Y-14205928D01*
X7303595Y-14224976D01*
X7436928Y-14024976D02*
X7455976Y-14024976D01*
X7475024Y-14034500D01*
X7484548Y-14044024D01*
X7494071Y-14063071D01*
X7503595Y-14101167D01*
X7503595Y-14148786D01*
X7494071Y-14186881D01*
X7484548Y-14205928D01*
X7475024Y-14215452D01*
X7455976Y-14224976D01*
X7436928Y-14224976D01*
X7417881Y-14215452D01*
X7408357Y-14205928D01*
X7398833Y-14186881D01*
X7389309Y-14148786D01*
X7389309Y-14101167D01*
X7398833Y-14063071D01*
X7408357Y-14044024D01*
X7417881Y-14034500D01*
X7436928Y-14024976D01*
X7627405Y-14024976D02*
X7646452Y-14024976D01*
X7665500Y-14034500D01*
X7675024Y-14044024D01*
X7684548Y-14063071D01*
X7694071Y-14101167D01*
X7694071Y-14148786D01*
X7684548Y-14186881D01*
X7675024Y-14205928D01*
X7665500Y-14215452D01*
X7646452Y-14224976D01*
X7627405Y-14224976D01*
X7608357Y-14215452D01*
X7598833Y-14205928D01*
X7589309Y-14186881D01*
X7579786Y-14148786D01*
X7579786Y-14101167D01*
X7589309Y-14063071D01*
X7598833Y-14044024D01*
X7608357Y-14034500D01*
X7627405Y-14024976D01*
X7817881Y-14024976D02*
X7836928Y-14024976D01*
X7855976Y-14034500D01*
X7865500Y-14044024D01*
X7875024Y-14063071D01*
X7884548Y-14101167D01*
X7884548Y-14148786D01*
X7875024Y-14186881D01*
X7865500Y-14205928D01*
X7855976Y-14215452D01*
X7836928Y-14224976D01*
X7817881Y-14224976D01*
X7798833Y-14215452D01*
X7789309Y-14205928D01*
X7779786Y-14186881D01*
X7770262Y-14148786D01*
X7770262Y-14101167D01*
X7779786Y-14063071D01*
X7789309Y-14044024D01*
X7798833Y-14034500D01*
X7817881Y-14024976D01*
X7970262Y-14224976D02*
X7970262Y-14091643D01*
X7970262Y-14110690D02*
X7979786Y-14101167D01*
X7998833Y-14091643D01*
X8027405Y-14091643D01*
X8046452Y-14101167D01*
X8055976Y-14120214D01*
X8055976Y-14224976D01*
X8055976Y-14120214D02*
X8065500Y-14101167D01*
X8084548Y-14091643D01*
X8113119Y-14091643D01*
X8132167Y-14101167D01*
X8141690Y-14120214D01*
X8141690Y-14224976D01*
X8236928Y-14224976D02*
X8236928Y-14091643D01*
X8236928Y-14110690D02*
X8246452Y-14101167D01*
X8265500Y-14091643D01*
X8294071Y-14091643D01*
X8313119Y-14101167D01*
X8322643Y-14120214D01*
X8322643Y-14224976D01*
X8322643Y-14120214D02*
X8332167Y-14101167D01*
X8351214Y-14091643D01*
X8379786Y-14091643D01*
X8398833Y-14101167D01*
X8408357Y-14120214D01*
X8408357Y-14224976D01*
X8798833Y-14015452D02*
X8627405Y-14272595D01*
X9055976Y-14024976D02*
X9075024Y-14024976D01*
X9094071Y-14034500D01*
X9103595Y-14044024D01*
X9113119Y-14063071D01*
X9122643Y-14101167D01*
X9122643Y-14148786D01*
X9113119Y-14186881D01*
X9103595Y-14205928D01*
X9094071Y-14215452D01*
X9075024Y-14224976D01*
X9055976Y-14224976D01*
X9036929Y-14215452D01*
X9027405Y-14205928D01*
X9017881Y-14186881D01*
X9008357Y-14148786D01*
X9008357Y-14101167D01*
X9017881Y-14063071D01*
X9027405Y-14044024D01*
X9036929Y-14034500D01*
X9055976Y-14024976D01*
X9208357Y-14205928D02*
X9217881Y-14215452D01*
X9208357Y-14224976D01*
X9198833Y-14215452D01*
X9208357Y-14205928D01*
X9208357Y-14224976D01*
X9341690Y-14024976D02*
X9360738Y-14024976D01*
X9379786Y-14034500D01*
X9389310Y-14044024D01*
X9398833Y-14063071D01*
X9408357Y-14101167D01*
X9408357Y-14148786D01*
X9398833Y-14186881D01*
X9389310Y-14205928D01*
X9379786Y-14215452D01*
X9360738Y-14224976D01*
X9341690Y-14224976D01*
X9322643Y-14215452D01*
X9313119Y-14205928D01*
X9303595Y-14186881D01*
X9294071Y-14148786D01*
X9294071Y-14101167D01*
X9303595Y-14063071D01*
X9313119Y-14044024D01*
X9322643Y-14034500D01*
X9341690Y-14024976D01*
X9475024Y-14024976D02*
X9598833Y-14024976D01*
X9532167Y-14101167D01*
X9560738Y-14101167D01*
X9579786Y-14110690D01*
X9589310Y-14120214D01*
X9598833Y-14139262D01*
X9598833Y-14186881D01*
X9589310Y-14205928D01*
X9579786Y-14215452D01*
X9560738Y-14224976D01*
X9503595Y-14224976D01*
X9484548Y-14215452D01*
X9475024Y-14205928D01*
X9694071Y-14224976D02*
X9732167Y-14224976D01*
X9751214Y-14215452D01*
X9760738Y-14205928D01*
X9779786Y-14177357D01*
X9789310Y-14139262D01*
X9789310Y-14063071D01*
X9779786Y-14044024D01*
X9770262Y-14034500D01*
X9751214Y-14024976D01*
X9713119Y-14024976D01*
X9694071Y-14034500D01*
X9684548Y-14044024D01*
X9675024Y-14063071D01*
X9675024Y-14110690D01*
X9684548Y-14129738D01*
X9694071Y-14139262D01*
X9713119Y-14148786D01*
X9751214Y-14148786D01*
X9770262Y-14139262D01*
X9779786Y-14129738D01*
X9789310Y-14110690D01*
X9960738Y-14091643D02*
X9960738Y-14224976D01*
X9913119Y-14015452D02*
X9865500Y-14158309D01*
X9989310Y-14158309D01*
X10055976Y-14024976D02*
X10055976Y-14063071D01*
X10132167Y-14024976D02*
X10132167Y-14063071D01*
X10427405Y-14301167D02*
X10417881Y-14291643D01*
X10398833Y-14263071D01*
X10389310Y-14244024D01*
X10379786Y-14215452D01*
X10370262Y-14167833D01*
X10370262Y-14129738D01*
X10379786Y-14082119D01*
X10389310Y-14053548D01*
X10398833Y-14034500D01*
X10417881Y-14005928D01*
X10427405Y-13996405D01*
X10589310Y-14024976D02*
X10551214Y-14024976D01*
X10532167Y-14034500D01*
X10522643Y-14044024D01*
X10503595Y-14072595D01*
X10494071Y-14110690D01*
X10494071Y-14186881D01*
X10503595Y-14205928D01*
X10513119Y-14215452D01*
X10532167Y-14224976D01*
X10570262Y-14224976D01*
X10589310Y-14215452D01*
X10598833Y-14205928D01*
X10608357Y-14186881D01*
X10608357Y-14139262D01*
X10598833Y-14120214D01*
X10589310Y-14110690D01*
X10570262Y-14101167D01*
X10532167Y-14101167D01*
X10513119Y-14110690D01*
X10503595Y-14120214D01*
X10494071Y-14139262D01*
X10846452Y-14224976D02*
X10846452Y-14024976D01*
X10932167Y-14224976D02*
X10932167Y-14120214D01*
X10922643Y-14101167D01*
X10903595Y-14091643D01*
X10875024Y-14091643D01*
X10855976Y-14101167D01*
X10846452Y-14110690D01*
X11055976Y-14224976D02*
X11036929Y-14215452D01*
X11027405Y-14205928D01*
X11017881Y-14186881D01*
X11017881Y-14129738D01*
X11027405Y-14110690D01*
X11036929Y-14101167D01*
X11055976Y-14091643D01*
X11084548Y-14091643D01*
X11103595Y-14101167D01*
X11113119Y-14110690D01*
X11122643Y-14129738D01*
X11122643Y-14186881D01*
X11113119Y-14205928D01*
X11103595Y-14215452D01*
X11084548Y-14224976D01*
X11055976Y-14224976D01*
X11236928Y-14224976D02*
X11217881Y-14215452D01*
X11208357Y-14196405D01*
X11208357Y-14024976D01*
X11389309Y-14215452D02*
X11370262Y-14224976D01*
X11332167Y-14224976D01*
X11313119Y-14215452D01*
X11303595Y-14196405D01*
X11303595Y-14120214D01*
X11313119Y-14101167D01*
X11332167Y-14091643D01*
X11370262Y-14091643D01*
X11389309Y-14101167D01*
X11398833Y-14120214D01*
X11398833Y-14139262D01*
X11303595Y-14158309D01*
X11475024Y-14215452D02*
X11494071Y-14224976D01*
X11532167Y-14224976D01*
X11551214Y-14215452D01*
X11560738Y-14196405D01*
X11560738Y-14186881D01*
X11551214Y-14167833D01*
X11532167Y-14158309D01*
X11503595Y-14158309D01*
X11484548Y-14148786D01*
X11475024Y-14129738D01*
X11475024Y-14120214D01*
X11484548Y-14101167D01*
X11503595Y-14091643D01*
X11532167Y-14091643D01*
X11551214Y-14101167D01*
X11627405Y-14301167D02*
X11636928Y-14291643D01*
X11655976Y-14263071D01*
X11665500Y-14244024D01*
X11675024Y-14215452D01*
X11684548Y-14167833D01*
X11684548Y-14129738D01*
X11675024Y-14082119D01*
X11665500Y-14053548D01*
X11655976Y-14034500D01*
X11636928Y-14005928D01*
X11627405Y-13996405D01*
D16*
X6795500Y-14458500D02*
X6855500Y-14398500D01*
X6795500Y-14338500D01*
X6735500Y-14398500D01*
X6795500Y-14458500D01*
D11*
X7217881Y-14488976D02*
X7103595Y-14488976D01*
X7160738Y-14488976D02*
X7160738Y-14288976D01*
X7141690Y-14317548D01*
X7122643Y-14336595D01*
X7103595Y-14346119D01*
X7303595Y-14469928D02*
X7313119Y-14479452D01*
X7303595Y-14488976D01*
X7294071Y-14479452D01*
X7303595Y-14469928D01*
X7303595Y-14488976D01*
X7389309Y-14308024D02*
X7398833Y-14298500D01*
X7417881Y-14288976D01*
X7465500Y-14288976D01*
X7484548Y-14298500D01*
X7494071Y-14308024D01*
X7503595Y-14327071D01*
X7503595Y-14346119D01*
X7494071Y-14374690D01*
X7379786Y-14488976D01*
X7503595Y-14488976D01*
X7627405Y-14288976D02*
X7646452Y-14288976D01*
X7665500Y-14298500D01*
X7675024Y-14308024D01*
X7684548Y-14327071D01*
X7694071Y-14365167D01*
X7694071Y-14412786D01*
X7684548Y-14450881D01*
X7675024Y-14469928D01*
X7665500Y-14479452D01*
X7646452Y-14488976D01*
X7627405Y-14488976D01*
X7608357Y-14479452D01*
X7598833Y-14469928D01*
X7589309Y-14450881D01*
X7579786Y-14412786D01*
X7579786Y-14365167D01*
X7589309Y-14327071D01*
X7598833Y-14308024D01*
X7608357Y-14298500D01*
X7627405Y-14288976D01*
X7817881Y-14288976D02*
X7836928Y-14288976D01*
X7855976Y-14298500D01*
X7865500Y-14308024D01*
X7875024Y-14327071D01*
X7884548Y-14365167D01*
X7884548Y-14412786D01*
X7875024Y-14450881D01*
X7865500Y-14469928D01*
X7855976Y-14479452D01*
X7836928Y-14488976D01*
X7817881Y-14488976D01*
X7798833Y-14479452D01*
X7789309Y-14469928D01*
X7779786Y-14450881D01*
X7770262Y-14412786D01*
X7770262Y-14365167D01*
X7779786Y-14327071D01*
X7789309Y-14308024D01*
X7798833Y-14298500D01*
X7817881Y-14288976D01*
X7970262Y-14488976D02*
X7970262Y-14355643D01*
X7970262Y-14374690D02*
X7979786Y-14365167D01*
X7998833Y-14355643D01*
X8027405Y-14355643D01*
X8046452Y-14365167D01*
X8055976Y-14384214D01*
X8055976Y-14488976D01*
X8055976Y-14384214D02*
X8065500Y-14365167D01*
X8084548Y-14355643D01*
X8113119Y-14355643D01*
X8132167Y-14365167D01*
X8141690Y-14384214D01*
X8141690Y-14488976D01*
X8236928Y-14488976D02*
X8236928Y-14355643D01*
X8236928Y-14374690D02*
X8246452Y-14365167D01*
X8265500Y-14355643D01*
X8294071Y-14355643D01*
X8313119Y-14365167D01*
X8322643Y-14384214D01*
X8322643Y-14488976D01*
X8322643Y-14384214D02*
X8332167Y-14365167D01*
X8351214Y-14355643D01*
X8379786Y-14355643D01*
X8398833Y-14365167D01*
X8408357Y-14384214D01*
X8408357Y-14488976D01*
X8798833Y-14279452D02*
X8627405Y-14536595D01*
X9055976Y-14288976D02*
X9075024Y-14288976D01*
X9094071Y-14298500D01*
X9103595Y-14308024D01*
X9113119Y-14327071D01*
X9122643Y-14365167D01*
X9122643Y-14412786D01*
X9113119Y-14450881D01*
X9103595Y-14469928D01*
X9094071Y-14479452D01*
X9075024Y-14488976D01*
X9055976Y-14488976D01*
X9036929Y-14479452D01*
X9027405Y-14469928D01*
X9017881Y-14450881D01*
X9008357Y-14412786D01*
X9008357Y-14365167D01*
X9017881Y-14327071D01*
X9027405Y-14308024D01*
X9036929Y-14298500D01*
X9055976Y-14288976D01*
X9208357Y-14469928D02*
X9217881Y-14479452D01*
X9208357Y-14488976D01*
X9198833Y-14479452D01*
X9208357Y-14469928D01*
X9208357Y-14488976D01*
X9341690Y-14288976D02*
X9360738Y-14288976D01*
X9379786Y-14298500D01*
X9389310Y-14308024D01*
X9398833Y-14327071D01*
X9408357Y-14365167D01*
X9408357Y-14412786D01*
X9398833Y-14450881D01*
X9389310Y-14469928D01*
X9379786Y-14479452D01*
X9360738Y-14488976D01*
X9341690Y-14488976D01*
X9322643Y-14479452D01*
X9313119Y-14469928D01*
X9303595Y-14450881D01*
X9294071Y-14412786D01*
X9294071Y-14365167D01*
X9303595Y-14327071D01*
X9313119Y-14308024D01*
X9322643Y-14298500D01*
X9341690Y-14288976D01*
X9579786Y-14355643D02*
X9579786Y-14488976D01*
X9532167Y-14279452D02*
X9484548Y-14422309D01*
X9608357Y-14422309D01*
X9665500Y-14288976D02*
X9798833Y-14288976D01*
X9713119Y-14488976D01*
X9865500Y-14308024D02*
X9875024Y-14298500D01*
X9894071Y-14288976D01*
X9941690Y-14288976D01*
X9960738Y-14298500D01*
X9970262Y-14308024D01*
X9979786Y-14327071D01*
X9979786Y-14346119D01*
X9970262Y-14374690D01*
X9855976Y-14488976D01*
X9979786Y-14488976D01*
X10055976Y-14288976D02*
X10055976Y-14327071D01*
X10132167Y-14288976D02*
X10132167Y-14327071D01*
X10427405Y-14565167D02*
X10417881Y-14555643D01*
X10398833Y-14527071D01*
X10389310Y-14508024D01*
X10379786Y-14479452D01*
X10370262Y-14431833D01*
X10370262Y-14393738D01*
X10379786Y-14346119D01*
X10389310Y-14317548D01*
X10398833Y-14298500D01*
X10417881Y-14269928D01*
X10427405Y-14260405D01*
X10532167Y-14374690D02*
X10513119Y-14365167D01*
X10503595Y-14355643D01*
X10494071Y-14336595D01*
X10494071Y-14327071D01*
X10503595Y-14308024D01*
X10513119Y-14298500D01*
X10532167Y-14288976D01*
X10570262Y-14288976D01*
X10589310Y-14298500D01*
X10598833Y-14308024D01*
X10608357Y-14327071D01*
X10608357Y-14336595D01*
X10598833Y-14355643D01*
X10589310Y-14365167D01*
X10570262Y-14374690D01*
X10532167Y-14374690D01*
X10513119Y-14384214D01*
X10503595Y-14393738D01*
X10494071Y-14412786D01*
X10494071Y-14450881D01*
X10503595Y-14469928D01*
X10513119Y-14479452D01*
X10532167Y-14488976D01*
X10570262Y-14488976D01*
X10589310Y-14479452D01*
X10598833Y-14469928D01*
X10608357Y-14450881D01*
X10608357Y-14412786D01*
X10598833Y-14393738D01*
X10589310Y-14384214D01*
X10570262Y-14374690D01*
X10846452Y-14488976D02*
X10846452Y-14288976D01*
X10932167Y-14488976D02*
X10932167Y-14384214D01*
X10922643Y-14365167D01*
X10903595Y-14355643D01*
X10875024Y-14355643D01*
X10855976Y-14365167D01*
X10846452Y-14374690D01*
X11055976Y-14488976D02*
X11036929Y-14479452D01*
X11027405Y-14469928D01*
X11017881Y-14450881D01*
X11017881Y-14393738D01*
X11027405Y-14374690D01*
X11036929Y-14365167D01*
X11055976Y-14355643D01*
X11084548Y-14355643D01*
X11103595Y-14365167D01*
X11113119Y-14374690D01*
X11122643Y-14393738D01*
X11122643Y-14450881D01*
X11113119Y-14469928D01*
X11103595Y-14479452D01*
X11084548Y-14488976D01*
X11055976Y-14488976D01*
X11236928Y-14488976D02*
X11217881Y-14479452D01*
X11208357Y-14460405D01*
X11208357Y-14288976D01*
X11389309Y-14479452D02*
X11370262Y-14488976D01*
X11332167Y-14488976D01*
X11313119Y-14479452D01*
X11303595Y-14460405D01*
X11303595Y-14384214D01*
X11313119Y-14365167D01*
X11332167Y-14355643D01*
X11370262Y-14355643D01*
X11389309Y-14365167D01*
X11398833Y-14384214D01*
X11398833Y-14403262D01*
X11303595Y-14422309D01*
X11475024Y-14479452D02*
X11494071Y-14488976D01*
X11532167Y-14488976D01*
X11551214Y-14479452D01*
X11560738Y-14460405D01*
X11560738Y-14450881D01*
X11551214Y-14431833D01*
X11532167Y-14422309D01*
X11503595Y-14422309D01*
X11484548Y-14412786D01*
X11475024Y-14393738D01*
X11475024Y-14384214D01*
X11484548Y-14365167D01*
X11503595Y-14355643D01*
X11532167Y-14355643D01*
X11551214Y-14365167D01*
X11627405Y-14565167D02*
X11636928Y-14555643D01*
X11655976Y-14527071D01*
X11665500Y-14508024D01*
X11675024Y-14479452D01*
X11684548Y-14431833D01*
X11684548Y-14393738D01*
X11675024Y-14346119D01*
X11665500Y-14317548D01*
X11655976Y-14298500D01*
X11636928Y-14269928D01*
X11627405Y-14260405D01*
D17*
X6725500Y-14597500D02*
X6855500Y-14727500D01*
X6855500Y-14597500D02*
X6725500Y-14727500D01*
X6855500Y-14662500D02*
G75*
G03*
X6855500Y-14662500I-65000J0D01*
G01*
D11*
X7217881Y-14752976D02*
X7103595Y-14752976D01*
X7160738Y-14752976D02*
X7160738Y-14552976D01*
X7141690Y-14581548D01*
X7122643Y-14600595D01*
X7103595Y-14610119D01*
X7303595Y-14733928D02*
X7313119Y-14743452D01*
X7303595Y-14752976D01*
X7294071Y-14743452D01*
X7303595Y-14733928D01*
X7303595Y-14752976D01*
X7379786Y-14552976D02*
X7503595Y-14552976D01*
X7436928Y-14629167D01*
X7465500Y-14629167D01*
X7484548Y-14638690D01*
X7494071Y-14648214D01*
X7503595Y-14667262D01*
X7503595Y-14714881D01*
X7494071Y-14733928D01*
X7484548Y-14743452D01*
X7465500Y-14752976D01*
X7408357Y-14752976D01*
X7389309Y-14743452D01*
X7379786Y-14733928D01*
X7627405Y-14552976D02*
X7646452Y-14552976D01*
X7665500Y-14562500D01*
X7675024Y-14572024D01*
X7684548Y-14591071D01*
X7694071Y-14629167D01*
X7694071Y-14676786D01*
X7684548Y-14714881D01*
X7675024Y-14733928D01*
X7665500Y-14743452D01*
X7646452Y-14752976D01*
X7627405Y-14752976D01*
X7608357Y-14743452D01*
X7598833Y-14733928D01*
X7589309Y-14714881D01*
X7579786Y-14676786D01*
X7579786Y-14629167D01*
X7589309Y-14591071D01*
X7598833Y-14572024D01*
X7608357Y-14562500D01*
X7627405Y-14552976D01*
X7817881Y-14552976D02*
X7836928Y-14552976D01*
X7855976Y-14562500D01*
X7865500Y-14572024D01*
X7875024Y-14591071D01*
X7884548Y-14629167D01*
X7884548Y-14676786D01*
X7875024Y-14714881D01*
X7865500Y-14733928D01*
X7855976Y-14743452D01*
X7836928Y-14752976D01*
X7817881Y-14752976D01*
X7798833Y-14743452D01*
X7789309Y-14733928D01*
X7779786Y-14714881D01*
X7770262Y-14676786D01*
X7770262Y-14629167D01*
X7779786Y-14591071D01*
X7789309Y-14572024D01*
X7798833Y-14562500D01*
X7817881Y-14552976D01*
X7970262Y-14752976D02*
X7970262Y-14619643D01*
X7970262Y-14638690D02*
X7979786Y-14629167D01*
X7998833Y-14619643D01*
X8027405Y-14619643D01*
X8046452Y-14629167D01*
X8055976Y-14648214D01*
X8055976Y-14752976D01*
X8055976Y-14648214D02*
X8065500Y-14629167D01*
X8084548Y-14619643D01*
X8113119Y-14619643D01*
X8132167Y-14629167D01*
X8141690Y-14648214D01*
X8141690Y-14752976D01*
X8236928Y-14752976D02*
X8236928Y-14619643D01*
X8236928Y-14638690D02*
X8246452Y-14629167D01*
X8265500Y-14619643D01*
X8294071Y-14619643D01*
X8313119Y-14629167D01*
X8322643Y-14648214D01*
X8322643Y-14752976D01*
X8322643Y-14648214D02*
X8332167Y-14629167D01*
X8351214Y-14619643D01*
X8379786Y-14619643D01*
X8398833Y-14629167D01*
X8408357Y-14648214D01*
X8408357Y-14752976D01*
X8798833Y-14543452D02*
X8627405Y-14800595D01*
X9055976Y-14552976D02*
X9075024Y-14552976D01*
X9094071Y-14562500D01*
X9103595Y-14572024D01*
X9113119Y-14591071D01*
X9122643Y-14629167D01*
X9122643Y-14676786D01*
X9113119Y-14714881D01*
X9103595Y-14733928D01*
X9094071Y-14743452D01*
X9075024Y-14752976D01*
X9055976Y-14752976D01*
X9036929Y-14743452D01*
X9027405Y-14733928D01*
X9017881Y-14714881D01*
X9008357Y-14676786D01*
X9008357Y-14629167D01*
X9017881Y-14591071D01*
X9027405Y-14572024D01*
X9036929Y-14562500D01*
X9055976Y-14552976D01*
X9208357Y-14733928D02*
X9217881Y-14743452D01*
X9208357Y-14752976D01*
X9198833Y-14743452D01*
X9208357Y-14733928D01*
X9208357Y-14752976D01*
X9341690Y-14552976D02*
X9360738Y-14552976D01*
X9379786Y-14562500D01*
X9389310Y-14572024D01*
X9398833Y-14591071D01*
X9408357Y-14629167D01*
X9408357Y-14676786D01*
X9398833Y-14714881D01*
X9389310Y-14733928D01*
X9379786Y-14743452D01*
X9360738Y-14752976D01*
X9341690Y-14752976D01*
X9322643Y-14743452D01*
X9313119Y-14733928D01*
X9303595Y-14714881D01*
X9294071Y-14676786D01*
X9294071Y-14629167D01*
X9303595Y-14591071D01*
X9313119Y-14572024D01*
X9322643Y-14562500D01*
X9341690Y-14552976D01*
X9589310Y-14552976D02*
X9494071Y-14552976D01*
X9484548Y-14648214D01*
X9494071Y-14638690D01*
X9513119Y-14629167D01*
X9560738Y-14629167D01*
X9579786Y-14638690D01*
X9589310Y-14648214D01*
X9598833Y-14667262D01*
X9598833Y-14714881D01*
X9589310Y-14733928D01*
X9579786Y-14743452D01*
X9560738Y-14752976D01*
X9513119Y-14752976D01*
X9494071Y-14743452D01*
X9484548Y-14733928D01*
X9789310Y-14752976D02*
X9675024Y-14752976D01*
X9732167Y-14752976D02*
X9732167Y-14552976D01*
X9713119Y-14581548D01*
X9694071Y-14600595D01*
X9675024Y-14610119D01*
X9865500Y-14572024D02*
X9875024Y-14562500D01*
X9894071Y-14552976D01*
X9941690Y-14552976D01*
X9960738Y-14562500D01*
X9970262Y-14572024D01*
X9979786Y-14591071D01*
X9979786Y-14610119D01*
X9970262Y-14638690D01*
X9855976Y-14752976D01*
X9979786Y-14752976D01*
X10055976Y-14552976D02*
X10055976Y-14591071D01*
X10132167Y-14552976D02*
X10132167Y-14591071D01*
X10427405Y-14829167D02*
X10417881Y-14819643D01*
X10398833Y-14791071D01*
X10389310Y-14772024D01*
X10379786Y-14743452D01*
X10370262Y-14695833D01*
X10370262Y-14657738D01*
X10379786Y-14610119D01*
X10389310Y-14581548D01*
X10398833Y-14562500D01*
X10417881Y-14533928D01*
X10427405Y-14524405D01*
X10608357Y-14752976D02*
X10494071Y-14752976D01*
X10551214Y-14752976D02*
X10551214Y-14552976D01*
X10532167Y-14581548D01*
X10513119Y-14600595D01*
X10494071Y-14610119D01*
X10798833Y-14752976D02*
X10684548Y-14752976D01*
X10741690Y-14752976D02*
X10741690Y-14552976D01*
X10722643Y-14581548D01*
X10703595Y-14600595D01*
X10684548Y-14610119D01*
X11036929Y-14752976D02*
X11036929Y-14552976D01*
X11122643Y-14752976D02*
X11122643Y-14648214D01*
X11113119Y-14629167D01*
X11094071Y-14619643D01*
X11065500Y-14619643D01*
X11046452Y-14629167D01*
X11036929Y-14638690D01*
X11246452Y-14752976D02*
X11227405Y-14743452D01*
X11217881Y-14733928D01*
X11208357Y-14714881D01*
X11208357Y-14657738D01*
X11217881Y-14638690D01*
X11227405Y-14629167D01*
X11246452Y-14619643D01*
X11275024Y-14619643D01*
X11294071Y-14629167D01*
X11303595Y-14638690D01*
X11313119Y-14657738D01*
X11313119Y-14714881D01*
X11303595Y-14733928D01*
X11294071Y-14743452D01*
X11275024Y-14752976D01*
X11246452Y-14752976D01*
X11427405Y-14752976D02*
X11408357Y-14743452D01*
X11398833Y-14724405D01*
X11398833Y-14552976D01*
X11579786Y-14743452D02*
X11560738Y-14752976D01*
X11522643Y-14752976D01*
X11503595Y-14743452D01*
X11494071Y-14724405D01*
X11494071Y-14648214D01*
X11503595Y-14629167D01*
X11522643Y-14619643D01*
X11560738Y-14619643D01*
X11579786Y-14629167D01*
X11589309Y-14648214D01*
X11589309Y-14667262D01*
X11494071Y-14686309D01*
X11665500Y-14743452D02*
X11684548Y-14752976D01*
X11722643Y-14752976D01*
X11741690Y-14743452D01*
X11751214Y-14724405D01*
X11751214Y-14714881D01*
X11741690Y-14695833D01*
X11722643Y-14686309D01*
X11694071Y-14686309D01*
X11675024Y-14676786D01*
X11665500Y-14657738D01*
X11665500Y-14648214D01*
X11675024Y-14629167D01*
X11694071Y-14619643D01*
X11722643Y-14619643D01*
X11741690Y-14629167D01*
X11817881Y-14829167D02*
X11827405Y-14819643D01*
X11846452Y-14791071D01*
X11855976Y-14772024D01*
X11865500Y-14743452D01*
X11875024Y-14695833D01*
X11875024Y-14657738D01*
X11865500Y-14610119D01*
X11855976Y-14581548D01*
X11846452Y-14562500D01*
X11827405Y-14533928D01*
X11817881Y-14524405D01*
D18*
X6685500Y-14841500D02*
X6855500Y-15011500D01*
X6855500Y-14841500D02*
X6685500Y-15011500D01*
X6770500Y-14841500D02*
X6770500Y-15011500D01*
X6685500Y-14926500D02*
X6855500Y-14926500D01*
D11*
X7217881Y-15016976D02*
X7103595Y-15016976D01*
X7160738Y-15016976D02*
X7160738Y-14816976D01*
X7141690Y-14845548D01*
X7122643Y-14864595D01*
X7103595Y-14874119D01*
X7303595Y-14997928D02*
X7313119Y-15007452D01*
X7303595Y-15016976D01*
X7294071Y-15007452D01*
X7303595Y-14997928D01*
X7303595Y-15016976D01*
X7379786Y-14816976D02*
X7513119Y-14816976D01*
X7427405Y-15016976D01*
X7627405Y-14816976D02*
X7646452Y-14816976D01*
X7665500Y-14826500D01*
X7675024Y-14836024D01*
X7684548Y-14855071D01*
X7694071Y-14893167D01*
X7694071Y-14940786D01*
X7684548Y-14978881D01*
X7675024Y-14997928D01*
X7665500Y-15007452D01*
X7646452Y-15016976D01*
X7627405Y-15016976D01*
X7608357Y-15007452D01*
X7598833Y-14997928D01*
X7589309Y-14978881D01*
X7579786Y-14940786D01*
X7579786Y-14893167D01*
X7589309Y-14855071D01*
X7598833Y-14836024D01*
X7608357Y-14826500D01*
X7627405Y-14816976D01*
X7817881Y-14816976D02*
X7836928Y-14816976D01*
X7855976Y-14826500D01*
X7865500Y-14836024D01*
X7875024Y-14855071D01*
X7884548Y-14893167D01*
X7884548Y-14940786D01*
X7875024Y-14978881D01*
X7865500Y-14997928D01*
X7855976Y-15007452D01*
X7836928Y-15016976D01*
X7817881Y-15016976D01*
X7798833Y-15007452D01*
X7789309Y-14997928D01*
X7779786Y-14978881D01*
X7770262Y-14940786D01*
X7770262Y-14893167D01*
X7779786Y-14855071D01*
X7789309Y-14836024D01*
X7798833Y-14826500D01*
X7817881Y-14816976D01*
X7970262Y-15016976D02*
X7970262Y-14883643D01*
X7970262Y-14902690D02*
X7979786Y-14893167D01*
X7998833Y-14883643D01*
X8027405Y-14883643D01*
X8046452Y-14893167D01*
X8055976Y-14912214D01*
X8055976Y-15016976D01*
X8055976Y-14912214D02*
X8065500Y-14893167D01*
X8084548Y-14883643D01*
X8113119Y-14883643D01*
X8132167Y-14893167D01*
X8141690Y-14912214D01*
X8141690Y-15016976D01*
X8236928Y-15016976D02*
X8236928Y-14883643D01*
X8236928Y-14902690D02*
X8246452Y-14893167D01*
X8265500Y-14883643D01*
X8294071Y-14883643D01*
X8313119Y-14893167D01*
X8322643Y-14912214D01*
X8322643Y-15016976D01*
X8322643Y-14912214D02*
X8332167Y-14893167D01*
X8351214Y-14883643D01*
X8379786Y-14883643D01*
X8398833Y-14893167D01*
X8408357Y-14912214D01*
X8408357Y-15016976D01*
X8798833Y-14807452D02*
X8627405Y-15064595D01*
X9055976Y-14816976D02*
X9075024Y-14816976D01*
X9094071Y-14826500D01*
X9103595Y-14836024D01*
X9113119Y-14855071D01*
X9122643Y-14893167D01*
X9122643Y-14940786D01*
X9113119Y-14978881D01*
X9103595Y-14997928D01*
X9094071Y-15007452D01*
X9075024Y-15016976D01*
X9055976Y-15016976D01*
X9036929Y-15007452D01*
X9027405Y-14997928D01*
X9017881Y-14978881D01*
X9008357Y-14940786D01*
X9008357Y-14893167D01*
X9017881Y-14855071D01*
X9027405Y-14836024D01*
X9036929Y-14826500D01*
X9055976Y-14816976D01*
X9208357Y-14997928D02*
X9217881Y-15007452D01*
X9208357Y-15016976D01*
X9198833Y-15007452D01*
X9208357Y-14997928D01*
X9208357Y-15016976D01*
X9341690Y-14816976D02*
X9360738Y-14816976D01*
X9379786Y-14826500D01*
X9389310Y-14836024D01*
X9398833Y-14855071D01*
X9408357Y-14893167D01*
X9408357Y-14940786D01*
X9398833Y-14978881D01*
X9389310Y-14997928D01*
X9379786Y-15007452D01*
X9360738Y-15016976D01*
X9341690Y-15016976D01*
X9322643Y-15007452D01*
X9313119Y-14997928D01*
X9303595Y-14978881D01*
X9294071Y-14940786D01*
X9294071Y-14893167D01*
X9303595Y-14855071D01*
X9313119Y-14836024D01*
X9322643Y-14826500D01*
X9341690Y-14816976D01*
X9579786Y-14816976D02*
X9541690Y-14816976D01*
X9522643Y-14826500D01*
X9513119Y-14836024D01*
X9494071Y-14864595D01*
X9484548Y-14902690D01*
X9484548Y-14978881D01*
X9494071Y-14997928D01*
X9503595Y-15007452D01*
X9522643Y-15016976D01*
X9560738Y-15016976D01*
X9579786Y-15007452D01*
X9589310Y-14997928D01*
X9598833Y-14978881D01*
X9598833Y-14931262D01*
X9589310Y-14912214D01*
X9579786Y-14902690D01*
X9560738Y-14893167D01*
X9522643Y-14893167D01*
X9503595Y-14902690D01*
X9494071Y-14912214D01*
X9484548Y-14931262D01*
X9770262Y-14816976D02*
X9732167Y-14816976D01*
X9713119Y-14826500D01*
X9703595Y-14836024D01*
X9684548Y-14864595D01*
X9675024Y-14902690D01*
X9675024Y-14978881D01*
X9684548Y-14997928D01*
X9694071Y-15007452D01*
X9713119Y-15016976D01*
X9751214Y-15016976D01*
X9770262Y-15007452D01*
X9779786Y-14997928D01*
X9789310Y-14978881D01*
X9789310Y-14931262D01*
X9779786Y-14912214D01*
X9770262Y-14902690D01*
X9751214Y-14893167D01*
X9713119Y-14893167D01*
X9694071Y-14902690D01*
X9684548Y-14912214D01*
X9675024Y-14931262D01*
X9884548Y-15016976D02*
X9922643Y-15016976D01*
X9941690Y-15007452D01*
X9951214Y-14997928D01*
X9970262Y-14969357D01*
X9979786Y-14931262D01*
X9979786Y-14855071D01*
X9970262Y-14836024D01*
X9960738Y-14826500D01*
X9941690Y-14816976D01*
X9903595Y-14816976D01*
X9884548Y-14826500D01*
X9875024Y-14836024D01*
X9865500Y-14855071D01*
X9865500Y-14902690D01*
X9875024Y-14921738D01*
X9884548Y-14931262D01*
X9903595Y-14940786D01*
X9941690Y-14940786D01*
X9960738Y-14931262D01*
X9970262Y-14921738D01*
X9979786Y-14902690D01*
X10055976Y-14816976D02*
X10055976Y-14855071D01*
X10132167Y-14816976D02*
X10132167Y-14855071D01*
X10427405Y-15093167D02*
X10417881Y-15083643D01*
X10398833Y-15055071D01*
X10389310Y-15036024D01*
X10379786Y-15007452D01*
X10370262Y-14959833D01*
X10370262Y-14921738D01*
X10379786Y-14874119D01*
X10389310Y-14845548D01*
X10398833Y-14826500D01*
X10417881Y-14797928D01*
X10427405Y-14788405D01*
X10608357Y-15016976D02*
X10494071Y-15016976D01*
X10551214Y-15016976D02*
X10551214Y-14816976D01*
X10532167Y-14845548D01*
X10513119Y-14864595D01*
X10494071Y-14874119D01*
X10684548Y-14836024D02*
X10694071Y-14826500D01*
X10713119Y-14816976D01*
X10760738Y-14816976D01*
X10779786Y-14826500D01*
X10789310Y-14836024D01*
X10798833Y-14855071D01*
X10798833Y-14874119D01*
X10789310Y-14902690D01*
X10675024Y-15016976D01*
X10798833Y-15016976D01*
X11036929Y-15016976D02*
X11036929Y-14816976D01*
X11122643Y-15016976D02*
X11122643Y-14912214D01*
X11113119Y-14893167D01*
X11094071Y-14883643D01*
X11065500Y-14883643D01*
X11046452Y-14893167D01*
X11036929Y-14902690D01*
X11246452Y-15016976D02*
X11227405Y-15007452D01*
X11217881Y-14997928D01*
X11208357Y-14978881D01*
X11208357Y-14921738D01*
X11217881Y-14902690D01*
X11227405Y-14893167D01*
X11246452Y-14883643D01*
X11275024Y-14883643D01*
X11294071Y-14893167D01*
X11303595Y-14902690D01*
X11313119Y-14921738D01*
X11313119Y-14978881D01*
X11303595Y-14997928D01*
X11294071Y-15007452D01*
X11275024Y-15016976D01*
X11246452Y-15016976D01*
X11427405Y-15016976D02*
X11408357Y-15007452D01*
X11398833Y-14988405D01*
X11398833Y-14816976D01*
X11579786Y-15007452D02*
X11560738Y-15016976D01*
X11522643Y-15016976D01*
X11503595Y-15007452D01*
X11494071Y-14988405D01*
X11494071Y-14912214D01*
X11503595Y-14893167D01*
X11522643Y-14883643D01*
X11560738Y-14883643D01*
X11579786Y-14893167D01*
X11589309Y-14912214D01*
X11589309Y-14931262D01*
X11494071Y-14950309D01*
X11665500Y-15007452D02*
X11684548Y-15016976D01*
X11722643Y-15016976D01*
X11741690Y-15007452D01*
X11751214Y-14988405D01*
X11751214Y-14978881D01*
X11741690Y-14959833D01*
X11722643Y-14950309D01*
X11694071Y-14950309D01*
X11675024Y-14940786D01*
X11665500Y-14921738D01*
X11665500Y-14912214D01*
X11675024Y-14893167D01*
X11694071Y-14883643D01*
X11722643Y-14883643D01*
X11741690Y-14893167D01*
X11817881Y-15093167D02*
X11827405Y-15083643D01*
X11846452Y-15055071D01*
X11855976Y-15036024D01*
X11865500Y-15007452D01*
X11875024Y-14959833D01*
X11875024Y-14921738D01*
X11865500Y-14874119D01*
X11855976Y-14845548D01*
X11846452Y-14826500D01*
X11827405Y-14797928D01*
X11817881Y-14788405D01*
X6655500Y-15116500D02*
X6855500Y-15316500D01*
X6855500Y-15116500D02*
X6655500Y-15316500D01*
X6826211Y-15287211D02*
X6826211Y-15145789D01*
X6684789Y-15145789D01*
X6684789Y-15287211D01*
X6826211Y-15287211D01*
X7094071Y-15106976D02*
X7217881Y-15106976D01*
X7151214Y-15183167D01*
X7179786Y-15183167D01*
X7198833Y-15192690D01*
X7208357Y-15202214D01*
X7217881Y-15221262D01*
X7217881Y-15268881D01*
X7208357Y-15287928D01*
X7198833Y-15297452D01*
X7179786Y-15306976D01*
X7122643Y-15306976D01*
X7103595Y-15297452D01*
X7094071Y-15287928D01*
X7303595Y-15287928D02*
X7313119Y-15297452D01*
X7303595Y-15306976D01*
X7294071Y-15297452D01*
X7303595Y-15287928D01*
X7303595Y-15306976D01*
X7389309Y-15126024D02*
X7398833Y-15116500D01*
X7417881Y-15106976D01*
X7465500Y-15106976D01*
X7484548Y-15116500D01*
X7494071Y-15126024D01*
X7503595Y-15145071D01*
X7503595Y-15164119D01*
X7494071Y-15192690D01*
X7379786Y-15306976D01*
X7503595Y-15306976D01*
X7627405Y-15106976D02*
X7646452Y-15106976D01*
X7665500Y-15116500D01*
X7675024Y-15126024D01*
X7684548Y-15145071D01*
X7694071Y-15183167D01*
X7694071Y-15230786D01*
X7684548Y-15268881D01*
X7675024Y-15287928D01*
X7665500Y-15297452D01*
X7646452Y-15306976D01*
X7627405Y-15306976D01*
X7608357Y-15297452D01*
X7598833Y-15287928D01*
X7589309Y-15268881D01*
X7579786Y-15230786D01*
X7579786Y-15183167D01*
X7589309Y-15145071D01*
X7598833Y-15126024D01*
X7608357Y-15116500D01*
X7627405Y-15106976D01*
X7817881Y-15106976D02*
X7836928Y-15106976D01*
X7855976Y-15116500D01*
X7865500Y-15126024D01*
X7875024Y-15145071D01*
X7884548Y-15183167D01*
X7884548Y-15230786D01*
X7875024Y-15268881D01*
X7865500Y-15287928D01*
X7855976Y-15297452D01*
X7836928Y-15306976D01*
X7817881Y-15306976D01*
X7798833Y-15297452D01*
X7789309Y-15287928D01*
X7779786Y-15268881D01*
X7770262Y-15230786D01*
X7770262Y-15183167D01*
X7779786Y-15145071D01*
X7789309Y-15126024D01*
X7798833Y-15116500D01*
X7817881Y-15106976D01*
X7970262Y-15306976D02*
X7970262Y-15173643D01*
X7970262Y-15192690D02*
X7979786Y-15183167D01*
X7998833Y-15173643D01*
X8027405Y-15173643D01*
X8046452Y-15183167D01*
X8055976Y-15202214D01*
X8055976Y-15306976D01*
X8055976Y-15202214D02*
X8065500Y-15183167D01*
X8084548Y-15173643D01*
X8113119Y-15173643D01*
X8132167Y-15183167D01*
X8141690Y-15202214D01*
X8141690Y-15306976D01*
X8236928Y-15306976D02*
X8236928Y-15173643D01*
X8236928Y-15192690D02*
X8246452Y-15183167D01*
X8265500Y-15173643D01*
X8294071Y-15173643D01*
X8313119Y-15183167D01*
X8322643Y-15202214D01*
X8322643Y-15306976D01*
X8322643Y-15202214D02*
X8332167Y-15183167D01*
X8351214Y-15173643D01*
X8379786Y-15173643D01*
X8398833Y-15183167D01*
X8408357Y-15202214D01*
X8408357Y-15306976D01*
X8798833Y-15097452D02*
X8627405Y-15354595D01*
X9055976Y-15106976D02*
X9075024Y-15106976D01*
X9094071Y-15116500D01*
X9103595Y-15126024D01*
X9113119Y-15145071D01*
X9122643Y-15183167D01*
X9122643Y-15230786D01*
X9113119Y-15268881D01*
X9103595Y-15287928D01*
X9094071Y-15297452D01*
X9075024Y-15306976D01*
X9055976Y-15306976D01*
X9036929Y-15297452D01*
X9027405Y-15287928D01*
X9017881Y-15268881D01*
X9008357Y-15230786D01*
X9008357Y-15183167D01*
X9017881Y-15145071D01*
X9027405Y-15126024D01*
X9036929Y-15116500D01*
X9055976Y-15106976D01*
X9208357Y-15287928D02*
X9217881Y-15297452D01*
X9208357Y-15306976D01*
X9198833Y-15297452D01*
X9208357Y-15287928D01*
X9208357Y-15306976D01*
X9408357Y-15306976D02*
X9294071Y-15306976D01*
X9351214Y-15306976D02*
X9351214Y-15106976D01*
X9332167Y-15135548D01*
X9313119Y-15154595D01*
X9294071Y-15164119D01*
X9484548Y-15126024D02*
X9494071Y-15116500D01*
X9513119Y-15106976D01*
X9560738Y-15106976D01*
X9579786Y-15116500D01*
X9589310Y-15126024D01*
X9598833Y-15145071D01*
X9598833Y-15164119D01*
X9589310Y-15192690D01*
X9475024Y-15306976D01*
X9598833Y-15306976D01*
X9770262Y-15106976D02*
X9732167Y-15106976D01*
X9713119Y-15116500D01*
X9703595Y-15126024D01*
X9684548Y-15154595D01*
X9675024Y-15192690D01*
X9675024Y-15268881D01*
X9684548Y-15287928D01*
X9694071Y-15297452D01*
X9713119Y-15306976D01*
X9751214Y-15306976D01*
X9770262Y-15297452D01*
X9779786Y-15287928D01*
X9789310Y-15268881D01*
X9789310Y-15221262D01*
X9779786Y-15202214D01*
X9770262Y-15192690D01*
X9751214Y-15183167D01*
X9713119Y-15183167D01*
X9694071Y-15192690D01*
X9684548Y-15202214D01*
X9675024Y-15221262D01*
X9913119Y-15106976D02*
X9932167Y-15106976D01*
X9951214Y-15116500D01*
X9960738Y-15126024D01*
X9970262Y-15145071D01*
X9979786Y-15183167D01*
X9979786Y-15230786D01*
X9970262Y-15268881D01*
X9960738Y-15287928D01*
X9951214Y-15297452D01*
X9932167Y-15306976D01*
X9913119Y-15306976D01*
X9894071Y-15297452D01*
X9884548Y-15287928D01*
X9875024Y-15268881D01*
X9865500Y-15230786D01*
X9865500Y-15183167D01*
X9875024Y-15145071D01*
X9884548Y-15126024D01*
X9894071Y-15116500D01*
X9913119Y-15106976D01*
X10055976Y-15106976D02*
X10055976Y-15145071D01*
X10132167Y-15106976D02*
X10132167Y-15145071D01*
X10427405Y-15383167D02*
X10417881Y-15373643D01*
X10398833Y-15345071D01*
X10389310Y-15326024D01*
X10379786Y-15297452D01*
X10370262Y-15249833D01*
X10370262Y-15211738D01*
X10379786Y-15164119D01*
X10389310Y-15135548D01*
X10398833Y-15116500D01*
X10417881Y-15087928D01*
X10427405Y-15078405D01*
X10589310Y-15173643D02*
X10589310Y-15306976D01*
X10541690Y-15097452D02*
X10494071Y-15240309D01*
X10617881Y-15240309D01*
X10846452Y-15306976D02*
X10846452Y-15106976D01*
X10932167Y-15306976D02*
X10932167Y-15202214D01*
X10922643Y-15183167D01*
X10903595Y-15173643D01*
X10875024Y-15173643D01*
X10855976Y-15183167D01*
X10846452Y-15192690D01*
X11055976Y-15306976D02*
X11036929Y-15297452D01*
X11027405Y-15287928D01*
X11017881Y-15268881D01*
X11017881Y-15211738D01*
X11027405Y-15192690D01*
X11036929Y-15183167D01*
X11055976Y-15173643D01*
X11084548Y-15173643D01*
X11103595Y-15183167D01*
X11113119Y-15192690D01*
X11122643Y-15211738D01*
X11122643Y-15268881D01*
X11113119Y-15287928D01*
X11103595Y-15297452D01*
X11084548Y-15306976D01*
X11055976Y-15306976D01*
X11236928Y-15306976D02*
X11217881Y-15297452D01*
X11208357Y-15278405D01*
X11208357Y-15106976D01*
X11389309Y-15297452D02*
X11370262Y-15306976D01*
X11332167Y-15306976D01*
X11313119Y-15297452D01*
X11303595Y-15278405D01*
X11303595Y-15202214D01*
X11313119Y-15183167D01*
X11332167Y-15173643D01*
X11370262Y-15173643D01*
X11389309Y-15183167D01*
X11398833Y-15202214D01*
X11398833Y-15221262D01*
X11303595Y-15240309D01*
X11475024Y-15297452D02*
X11494071Y-15306976D01*
X11532167Y-15306976D01*
X11551214Y-15297452D01*
X11560738Y-15278405D01*
X11560738Y-15268881D01*
X11551214Y-15249833D01*
X11532167Y-15240309D01*
X11503595Y-15240309D01*
X11484548Y-15230786D01*
X11475024Y-15211738D01*
X11475024Y-15202214D01*
X11484548Y-15183167D01*
X11503595Y-15173643D01*
X11532167Y-15173643D01*
X11551214Y-15183167D01*
X11627405Y-15383167D02*
X11636928Y-15373643D01*
X11655976Y-15345071D01*
X11665500Y-15326024D01*
X11675024Y-15297452D01*
X11684548Y-15249833D01*
X11684548Y-15211738D01*
X11675024Y-15164119D01*
X11665500Y-15135548D01*
X11655976Y-15116500D01*
X11636928Y-15087928D01*
X11627405Y-15078405D01*
M02*
