%TF.GenerationSoftware,KiCad,Pcbnew,(6.0.7)*%
%TF.CreationDate,2022-09-18T10:38:15-04:00*%
%TF.ProjectId,C64PowerSupply,43363450-6f77-4657-9253-7570706c792e,B*%
%TF.SameCoordinates,Original*%
%TF.FileFunction,Drillmap*%
%TF.FilePolarity,Positive*%
%FSLAX45Y45*%
G04 Gerber Fmt 4.5, Leading zero omitted, Abs format (unit mm)*
G04 Created by KiCad (PCBNEW (6.0.7)) date 2022-09-18 10:38:15*
%MOMM*%
%LPD*%
G01*
G04 APERTURE LIST*
%ADD10C,0.050000*%
%ADD11C,0.200000*%
%ADD12C,0.508000*%
G04 APERTURE END LIST*
D10*
X19558000Y-5080000D02*
X6858000Y-5080000D01*
X6858000Y-5080000D02*
X6858000Y-12700000D01*
X6858000Y-12700000D02*
X19558000Y-12700000D01*
X19558000Y-12700000D02*
X19558000Y-5080000D01*
D11*
D12*
X8763000Y-6604000D02*
X9271000Y-7112000D01*
X9271000Y-6604000D02*
X8763000Y-7112000D01*
X8763000Y-11684000D02*
X9271000Y-12192000D01*
X9271000Y-11684000D02*
X8763000Y-12192000D01*
X15113000Y-6604000D02*
X15621000Y-7112000D01*
X15621000Y-6604000D02*
X15113000Y-7112000D01*
X15113000Y-11684000D02*
X15621000Y-12192000D01*
X15621000Y-11684000D02*
X15113000Y-12192000D01*
D11*
X7113119Y-13012976D02*
X7113119Y-12812976D01*
X7160738Y-12812976D01*
X7189309Y-12822500D01*
X7208357Y-12841548D01*
X7217881Y-12860595D01*
X7227405Y-12898690D01*
X7227405Y-12927262D01*
X7217881Y-12965357D01*
X7208357Y-12984405D01*
X7189309Y-13003452D01*
X7160738Y-13012976D01*
X7113119Y-13012976D01*
X7313119Y-13012976D02*
X7313119Y-12879643D01*
X7313119Y-12917738D02*
X7322643Y-12898690D01*
X7332167Y-12889167D01*
X7351214Y-12879643D01*
X7370262Y-12879643D01*
X7436928Y-13012976D02*
X7436928Y-12879643D01*
X7436928Y-12812976D02*
X7427405Y-12822500D01*
X7436928Y-12832024D01*
X7446452Y-12822500D01*
X7436928Y-12812976D01*
X7436928Y-12832024D01*
X7560738Y-13012976D02*
X7541690Y-13003452D01*
X7532167Y-12984405D01*
X7532167Y-12812976D01*
X7665500Y-13012976D02*
X7646452Y-13003452D01*
X7636928Y-12984405D01*
X7636928Y-12812976D01*
X7894071Y-13012976D02*
X7894071Y-12812976D01*
X7960738Y-12955833D01*
X8027405Y-12812976D01*
X8027405Y-13012976D01*
X8208357Y-13012976D02*
X8208357Y-12908214D01*
X8198833Y-12889167D01*
X8179786Y-12879643D01*
X8141690Y-12879643D01*
X8122643Y-12889167D01*
X8208357Y-13003452D02*
X8189309Y-13012976D01*
X8141690Y-13012976D01*
X8122643Y-13003452D01*
X8113119Y-12984405D01*
X8113119Y-12965357D01*
X8122643Y-12946309D01*
X8141690Y-12936786D01*
X8189309Y-12936786D01*
X8208357Y-12927262D01*
X8303595Y-12879643D02*
X8303595Y-13079643D01*
X8303595Y-12889167D02*
X8322643Y-12879643D01*
X8360738Y-12879643D01*
X8379786Y-12889167D01*
X8389310Y-12898690D01*
X8398833Y-12917738D01*
X8398833Y-12974881D01*
X8389310Y-12993928D01*
X8379786Y-13003452D01*
X8360738Y-13012976D01*
X8322643Y-13012976D01*
X8303595Y-13003452D01*
X8484548Y-12993928D02*
X8494071Y-13003452D01*
X8484548Y-13012976D01*
X8475024Y-13003452D01*
X8484548Y-12993928D01*
X8484548Y-13012976D01*
X8484548Y-12889167D02*
X8494071Y-12898690D01*
X8484548Y-12908214D01*
X8475024Y-12898690D01*
X8484548Y-12889167D01*
X8484548Y-12908214D01*
X6655500Y-13242500D02*
X6855500Y-13442500D01*
X6855500Y-13242500D02*
X6655500Y-13442500D01*
X7208357Y-13232976D02*
X7113119Y-13232976D01*
X7103595Y-13328214D01*
X7113119Y-13318690D01*
X7132167Y-13309167D01*
X7179786Y-13309167D01*
X7198833Y-13318690D01*
X7208357Y-13328214D01*
X7217881Y-13347262D01*
X7217881Y-13394881D01*
X7208357Y-13413928D01*
X7198833Y-13423452D01*
X7179786Y-13432976D01*
X7132167Y-13432976D01*
X7113119Y-13423452D01*
X7103595Y-13413928D01*
X7303595Y-13413928D02*
X7313119Y-13423452D01*
X7303595Y-13432976D01*
X7294071Y-13423452D01*
X7303595Y-13413928D01*
X7303595Y-13432976D01*
X7436928Y-13232976D02*
X7455976Y-13232976D01*
X7475024Y-13242500D01*
X7484548Y-13252024D01*
X7494071Y-13271071D01*
X7503595Y-13309167D01*
X7503595Y-13356786D01*
X7494071Y-13394881D01*
X7484548Y-13413928D01*
X7475024Y-13423452D01*
X7455976Y-13432976D01*
X7436928Y-13432976D01*
X7417881Y-13423452D01*
X7408357Y-13413928D01*
X7398833Y-13394881D01*
X7389309Y-13356786D01*
X7389309Y-13309167D01*
X7398833Y-13271071D01*
X7408357Y-13252024D01*
X7417881Y-13242500D01*
X7436928Y-13232976D01*
X7617881Y-13318690D02*
X7598833Y-13309167D01*
X7589309Y-13299643D01*
X7579786Y-13280595D01*
X7579786Y-13271071D01*
X7589309Y-13252024D01*
X7598833Y-13242500D01*
X7617881Y-13232976D01*
X7655976Y-13232976D01*
X7675024Y-13242500D01*
X7684548Y-13252024D01*
X7694071Y-13271071D01*
X7694071Y-13280595D01*
X7684548Y-13299643D01*
X7675024Y-13309167D01*
X7655976Y-13318690D01*
X7617881Y-13318690D01*
X7598833Y-13328214D01*
X7589309Y-13337738D01*
X7579786Y-13356786D01*
X7579786Y-13394881D01*
X7589309Y-13413928D01*
X7598833Y-13423452D01*
X7617881Y-13432976D01*
X7655976Y-13432976D01*
X7675024Y-13423452D01*
X7684548Y-13413928D01*
X7694071Y-13394881D01*
X7694071Y-13356786D01*
X7684548Y-13337738D01*
X7675024Y-13328214D01*
X7655976Y-13318690D01*
X7817881Y-13232976D02*
X7836928Y-13232976D01*
X7855976Y-13242500D01*
X7865500Y-13252024D01*
X7875024Y-13271071D01*
X7884548Y-13309167D01*
X7884548Y-13356786D01*
X7875024Y-13394881D01*
X7865500Y-13413928D01*
X7855976Y-13423452D01*
X7836928Y-13432976D01*
X7817881Y-13432976D01*
X7798833Y-13423452D01*
X7789309Y-13413928D01*
X7779786Y-13394881D01*
X7770262Y-13356786D01*
X7770262Y-13309167D01*
X7779786Y-13271071D01*
X7789309Y-13252024D01*
X7798833Y-13242500D01*
X7817881Y-13232976D01*
X7970262Y-13432976D02*
X7970262Y-13299643D01*
X7970262Y-13318690D02*
X7979786Y-13309167D01*
X7998833Y-13299643D01*
X8027405Y-13299643D01*
X8046452Y-13309167D01*
X8055976Y-13328214D01*
X8055976Y-13432976D01*
X8055976Y-13328214D02*
X8065500Y-13309167D01*
X8084548Y-13299643D01*
X8113119Y-13299643D01*
X8132167Y-13309167D01*
X8141690Y-13328214D01*
X8141690Y-13432976D01*
X8236928Y-13432976D02*
X8236928Y-13299643D01*
X8236928Y-13318690D02*
X8246452Y-13309167D01*
X8265500Y-13299643D01*
X8294071Y-13299643D01*
X8313119Y-13309167D01*
X8322643Y-13328214D01*
X8322643Y-13432976D01*
X8322643Y-13328214D02*
X8332167Y-13309167D01*
X8351214Y-13299643D01*
X8379786Y-13299643D01*
X8398833Y-13309167D01*
X8408357Y-13328214D01*
X8408357Y-13432976D01*
X8798833Y-13223452D02*
X8627405Y-13480595D01*
X9055976Y-13232976D02*
X9075024Y-13232976D01*
X9094071Y-13242500D01*
X9103595Y-13252024D01*
X9113119Y-13271071D01*
X9122643Y-13309167D01*
X9122643Y-13356786D01*
X9113119Y-13394881D01*
X9103595Y-13413928D01*
X9094071Y-13423452D01*
X9075024Y-13432976D01*
X9055976Y-13432976D01*
X9036929Y-13423452D01*
X9027405Y-13413928D01*
X9017881Y-13394881D01*
X9008357Y-13356786D01*
X9008357Y-13309167D01*
X9017881Y-13271071D01*
X9027405Y-13252024D01*
X9036929Y-13242500D01*
X9055976Y-13232976D01*
X9208357Y-13413928D02*
X9217881Y-13423452D01*
X9208357Y-13432976D01*
X9198833Y-13423452D01*
X9208357Y-13413928D01*
X9208357Y-13432976D01*
X9294071Y-13252024D02*
X9303595Y-13242500D01*
X9322643Y-13232976D01*
X9370262Y-13232976D01*
X9389310Y-13242500D01*
X9398833Y-13252024D01*
X9408357Y-13271071D01*
X9408357Y-13290119D01*
X9398833Y-13318690D01*
X9284548Y-13432976D01*
X9408357Y-13432976D01*
X9532167Y-13232976D02*
X9551214Y-13232976D01*
X9570262Y-13242500D01*
X9579786Y-13252024D01*
X9589310Y-13271071D01*
X9598833Y-13309167D01*
X9598833Y-13356786D01*
X9589310Y-13394881D01*
X9579786Y-13413928D01*
X9570262Y-13423452D01*
X9551214Y-13432976D01*
X9532167Y-13432976D01*
X9513119Y-13423452D01*
X9503595Y-13413928D01*
X9494071Y-13394881D01*
X9484548Y-13356786D01*
X9484548Y-13309167D01*
X9494071Y-13271071D01*
X9503595Y-13252024D01*
X9513119Y-13242500D01*
X9532167Y-13232976D01*
X9722643Y-13232976D02*
X9741690Y-13232976D01*
X9760738Y-13242500D01*
X9770262Y-13252024D01*
X9779786Y-13271071D01*
X9789310Y-13309167D01*
X9789310Y-13356786D01*
X9779786Y-13394881D01*
X9770262Y-13413928D01*
X9760738Y-13423452D01*
X9741690Y-13432976D01*
X9722643Y-13432976D01*
X9703595Y-13423452D01*
X9694071Y-13413928D01*
X9684548Y-13394881D01*
X9675024Y-13356786D01*
X9675024Y-13309167D01*
X9684548Y-13271071D01*
X9694071Y-13252024D01*
X9703595Y-13242500D01*
X9722643Y-13232976D01*
X9913119Y-13232976D02*
X9932167Y-13232976D01*
X9951214Y-13242500D01*
X9960738Y-13252024D01*
X9970262Y-13271071D01*
X9979786Y-13309167D01*
X9979786Y-13356786D01*
X9970262Y-13394881D01*
X9960738Y-13413928D01*
X9951214Y-13423452D01*
X9932167Y-13432976D01*
X9913119Y-13432976D01*
X9894071Y-13423452D01*
X9884548Y-13413928D01*
X9875024Y-13394881D01*
X9865500Y-13356786D01*
X9865500Y-13309167D01*
X9875024Y-13271071D01*
X9884548Y-13252024D01*
X9894071Y-13242500D01*
X9913119Y-13232976D01*
X10055976Y-13232976D02*
X10055976Y-13271071D01*
X10132167Y-13232976D02*
X10132167Y-13271071D01*
X10427405Y-13509167D02*
X10417881Y-13499643D01*
X10398833Y-13471071D01*
X10389310Y-13452024D01*
X10379786Y-13423452D01*
X10370262Y-13375833D01*
X10370262Y-13337738D01*
X10379786Y-13290119D01*
X10389310Y-13261548D01*
X10398833Y-13242500D01*
X10417881Y-13213928D01*
X10427405Y-13204405D01*
X10589310Y-13299643D02*
X10589310Y-13432976D01*
X10541690Y-13223452D02*
X10494071Y-13366309D01*
X10617881Y-13366309D01*
X10846452Y-13432976D02*
X10846452Y-13232976D01*
X10932167Y-13432976D02*
X10932167Y-13328214D01*
X10922643Y-13309167D01*
X10903595Y-13299643D01*
X10875024Y-13299643D01*
X10855976Y-13309167D01*
X10846452Y-13318690D01*
X11055976Y-13432976D02*
X11036929Y-13423452D01*
X11027405Y-13413928D01*
X11017881Y-13394881D01*
X11017881Y-13337738D01*
X11027405Y-13318690D01*
X11036929Y-13309167D01*
X11055976Y-13299643D01*
X11084548Y-13299643D01*
X11103595Y-13309167D01*
X11113119Y-13318690D01*
X11122643Y-13337738D01*
X11122643Y-13394881D01*
X11113119Y-13413928D01*
X11103595Y-13423452D01*
X11084548Y-13432976D01*
X11055976Y-13432976D01*
X11236928Y-13432976D02*
X11217881Y-13423452D01*
X11208357Y-13404405D01*
X11208357Y-13232976D01*
X11389309Y-13423452D02*
X11370262Y-13432976D01*
X11332167Y-13432976D01*
X11313119Y-13423452D01*
X11303595Y-13404405D01*
X11303595Y-13328214D01*
X11313119Y-13309167D01*
X11332167Y-13299643D01*
X11370262Y-13299643D01*
X11389309Y-13309167D01*
X11398833Y-13328214D01*
X11398833Y-13347262D01*
X11303595Y-13366309D01*
X11475024Y-13423452D02*
X11494071Y-13432976D01*
X11532167Y-13432976D01*
X11551214Y-13423452D01*
X11560738Y-13404405D01*
X11560738Y-13394881D01*
X11551214Y-13375833D01*
X11532167Y-13366309D01*
X11503595Y-13366309D01*
X11484548Y-13356786D01*
X11475024Y-13337738D01*
X11475024Y-13328214D01*
X11484548Y-13309167D01*
X11503595Y-13299643D01*
X11532167Y-13299643D01*
X11551214Y-13309167D01*
X11627405Y-13509167D02*
X11636928Y-13499643D01*
X11655976Y-13471071D01*
X11665500Y-13452024D01*
X11675024Y-13423452D01*
X11684548Y-13375833D01*
X11684548Y-13337738D01*
X11675024Y-13290119D01*
X11665500Y-13261548D01*
X11655976Y-13242500D01*
X11636928Y-13213928D01*
X11627405Y-13204405D01*
X11989309Y-13509167D02*
X11979786Y-13499643D01*
X11960738Y-13471071D01*
X11951214Y-13452024D01*
X11941690Y-13423452D01*
X11932167Y-13375833D01*
X11932167Y-13337738D01*
X11941690Y-13290119D01*
X11951214Y-13261548D01*
X11960738Y-13242500D01*
X11979786Y-13213928D01*
X11989309Y-13204405D01*
X12065500Y-13299643D02*
X12065500Y-13432976D01*
X12065500Y-13318690D02*
X12075024Y-13309167D01*
X12094071Y-13299643D01*
X12122643Y-13299643D01*
X12141690Y-13309167D01*
X12151214Y-13328214D01*
X12151214Y-13432976D01*
X12275024Y-13432976D02*
X12255976Y-13423452D01*
X12246452Y-13413928D01*
X12236928Y-13394881D01*
X12236928Y-13337738D01*
X12246452Y-13318690D01*
X12255976Y-13309167D01*
X12275024Y-13299643D01*
X12303595Y-13299643D01*
X12322643Y-13309167D01*
X12332167Y-13318690D01*
X12341690Y-13337738D01*
X12341690Y-13394881D01*
X12332167Y-13413928D01*
X12322643Y-13423452D01*
X12303595Y-13432976D01*
X12275024Y-13432976D01*
X12398833Y-13299643D02*
X12475024Y-13299643D01*
X12427405Y-13232976D02*
X12427405Y-13404405D01*
X12436928Y-13423452D01*
X12455976Y-13432976D01*
X12475024Y-13432976D01*
X12694071Y-13299643D02*
X12694071Y-13499643D01*
X12694071Y-13309167D02*
X12713119Y-13299643D01*
X12751214Y-13299643D01*
X12770262Y-13309167D01*
X12779786Y-13318690D01*
X12789309Y-13337738D01*
X12789309Y-13394881D01*
X12779786Y-13413928D01*
X12770262Y-13423452D01*
X12751214Y-13432976D01*
X12713119Y-13432976D01*
X12694071Y-13423452D01*
X12903595Y-13432976D02*
X12884548Y-13423452D01*
X12875024Y-13404405D01*
X12875024Y-13232976D01*
X13065500Y-13432976D02*
X13065500Y-13328214D01*
X13055976Y-13309167D01*
X13036928Y-13299643D01*
X12998833Y-13299643D01*
X12979786Y-13309167D01*
X13065500Y-13423452D02*
X13046452Y-13432976D01*
X12998833Y-13432976D01*
X12979786Y-13423452D01*
X12970262Y-13404405D01*
X12970262Y-13385357D01*
X12979786Y-13366309D01*
X12998833Y-13356786D01*
X13046452Y-13356786D01*
X13065500Y-13347262D01*
X13132167Y-13299643D02*
X13208357Y-13299643D01*
X13160738Y-13232976D02*
X13160738Y-13404405D01*
X13170262Y-13423452D01*
X13189309Y-13432976D01*
X13208357Y-13432976D01*
X13351214Y-13423452D02*
X13332167Y-13432976D01*
X13294071Y-13432976D01*
X13275024Y-13423452D01*
X13265500Y-13404405D01*
X13265500Y-13328214D01*
X13275024Y-13309167D01*
X13294071Y-13299643D01*
X13332167Y-13299643D01*
X13351214Y-13309167D01*
X13360738Y-13328214D01*
X13360738Y-13347262D01*
X13265500Y-13366309D01*
X13532167Y-13432976D02*
X13532167Y-13232976D01*
X13532167Y-13423452D02*
X13513119Y-13432976D01*
X13475024Y-13432976D01*
X13455976Y-13423452D01*
X13446452Y-13413928D01*
X13436928Y-13394881D01*
X13436928Y-13337738D01*
X13446452Y-13318690D01*
X13455976Y-13309167D01*
X13475024Y-13299643D01*
X13513119Y-13299643D01*
X13532167Y-13309167D01*
X13608357Y-13509167D02*
X13617881Y-13499643D01*
X13636928Y-13471071D01*
X13646452Y-13452024D01*
X13655976Y-13423452D01*
X13665500Y-13375833D01*
X13665500Y-13337738D01*
X13655976Y-13290119D01*
X13646452Y-13261548D01*
X13636928Y-13242500D01*
X13617881Y-13213928D01*
X13608357Y-13204405D01*
M02*
