M48
; DRILL file {KiCad (6.0.7)} date Sun Sep 18 10:38:16 2022
; FORMAT={-:-/ absolute / metric / decimal}
; #@! TF.CreationDate,2022-09-18T10:38:16-04:00
; #@! TF.GenerationSoftware,Kicad,Pcbnew,(6.0.7)
; #@! TF.FileFunction,Plated,1,2,PTH
FMAT,2
METRIC
; #@! TA.AperFunction,Plated,PTH,ComponentDrill
T1C0.330
; #@! TA.AperFunction,Plated,PTH,ViaDrill
T2C0.400
; #@! TA.AperFunction,Plated,PTH,ComponentDrill
T3C0.800
; #@! TA.AperFunction,Plated,PTH,ComponentDrill
T4C1.000
; #@! TA.AperFunction,Plated,PTH,ComponentDrill
T5C1.200
; #@! TA.AperFunction,Plated,PTH,ComponentDrill
T6C1.300
; #@! TA.AperFunction,Plated,PTH,ComponentDrill
T7C1.700
; #@! TA.AperFunction,Plated,PTH,ComponentDrill
T8C3.200
%
G90
G05
T1
X161.91Y-109.19
X161.91Y-110.49
X161.91Y-111.79
X163.21Y-109.19
X163.21Y-110.49
X163.21Y-111.79
T2
X149.225Y-104.14
X149.225Y-105.41
X149.225Y-106.68
X149.225Y-107.95
X149.225Y-109.22
X149.225Y-110.49
X150.495Y-104.14
X150.495Y-105.41
X150.495Y-106.68
X150.495Y-107.95
X150.495Y-109.22
X150.495Y-110.49
X151.765Y-104.14
X151.765Y-105.41
X151.765Y-106.68
X151.765Y-107.95
X151.765Y-109.22
X151.765Y-110.49
X158.75Y-114.3
X158.75Y-115.57
X158.75Y-116.84
X158.75Y-118.11
X160.02Y-104.14
X160.02Y-114.3
X160.02Y-115.57
X160.02Y-116.84
X160.02Y-118.11
X161.29Y-114.3
X161.29Y-115.57
X161.29Y-116.84
X161.29Y-118.11
X162.56Y-114.3
X162.56Y-115.57
X162.56Y-116.84
X162.56Y-118.11
X163.83Y-88.9
X163.83Y-90.17
X163.83Y-91.44
X163.83Y-92.71
X163.83Y-93.98
X163.83Y-95.25
X163.83Y-114.3
X163.83Y-115.57
X163.83Y-116.84
X163.83Y-118.11
X165.1Y-88.9
X165.1Y-90.17
X165.1Y-91.44
X165.1Y-92.71
X165.1Y-93.98
X165.1Y-95.25
X165.1Y-104.14
X166.362Y-88.897
X166.37Y-90.17
X166.37Y-91.44
X166.37Y-92.71
X166.37Y-93.98
X166.37Y-95.25
X167.64Y-88.9
X167.64Y-90.17
X167.64Y-91.44
X167.64Y-92.71
X167.64Y-93.98
X167.64Y-95.25
T3
X75.5Y-74.87
X76.9Y-67.37
X181.61Y-114.29
X181.61Y-116.83
X181.61Y-119.37
T4
X87.63Y-102.87
X87.63Y-107.95
X87.63Y-113.03
X92.71Y-102.87
X92.71Y-107.95
X92.71Y-113.03
T5
X76.2Y-81.4
X76.2Y-96.4
X164.705Y-56.41
X164.705Y-67.31
X166.667Y-78.74
X174.167Y-78.74
X175.605Y-56.41
X175.605Y-67.21
T6
X77.97Y-102.108
X77.97Y-107.108
X77.97Y-112.108
X187.96Y-70.09
X187.96Y-75.09
X187.96Y-80.09
X187.96Y-85.09
X187.96Y-91.68
X187.96Y-96.68
X187.96Y-101.68
X187.96Y-106.68
T7
X89.02Y-57.15
X102.87Y-69.85
X102.87Y-118.11
X104.02Y-57.15
X118.11Y-69.85
X118.11Y-118.11
X125.73Y-69.85
X125.73Y-118.11
X140.97Y-57.15
X140.97Y-69.85
X140.97Y-118.11
X155.97Y-57.15
T8
X73.66Y-55.88
X73.66Y-121.92
X190.5Y-55.88
X190.5Y-121.92
T0
M30
