M48
; DRILL file {KiCad (5.1.9)-1} date 06/30/21 23:10:07
; FORMAT={-:-/ absolute / metric / decimal}
; #@! TF.CreationDate,2021-06-30T23:10:07-04:00
; #@! TF.GenerationSoftware,Kicad,Pcbnew,(5.1.9)-1
; #@! TF.FileFunction,Plated,1,2,PTH
FMAT,2
METRIC
T1C0.800
T2C1.100
T3C1.200
T4C1.300
T5C1.700
T6C3.200
%
G90
G05
T1
X170.744Y-88.9
X174.244Y-88.9
X179.324Y-90.424
X179.324Y-95.504
X181.864Y-92.964
X187.96Y-113.284
X191.46Y-113.284
T2
X173.54Y-102.108
X175.24Y-105.808
X176.94Y-102.108
X178.64Y-105.808
X180.34Y-102.108
T3
X74.676Y-80.25
X74.676Y-95.25
X153.67Y-96.52
X161.377Y-88.813
X161.448Y-104.157
X164.084Y-72.256
X164.084Y-79.756
X169.085Y-96.52
X181.864Y-75.812
X181.864Y-83.312
T4
X75.692Y-102.108
X75.692Y-107.108
X75.692Y-112.108
X191.008Y-89.648
X191.008Y-94.648
X191.008Y-99.648
X191.008Y-104.648
T5
X149.225Y-107.428
X149.225Y-122.428
X149.352Y-70.725
X149.352Y-85.725
T6
X73.66Y-71.12
X73.66Y-121.92
X190.5Y-71.12
X190.5Y-121.92
T1
X83.79Y-71.37G85X83.79Y-70.87
G05
X83.79Y-117.09G85X83.79Y-116.59
G05
X83.82Y-76.45G85X83.82Y-75.95
G05
X83.82Y-122.17G85X83.82Y-121.67
G05
X139.7Y-68.83G85X139.7Y-68.33
G05
X139.7Y-73.91G85X139.7Y-73.41
G05
X139.7Y-119.63G85X139.7Y-119.13
G05
X139.73Y-124.71G85X139.73Y-124.21
G05
T0
M30
