G04 #@! TF.GenerationSoftware,KiCad,Pcbnew,(6.0.7)*
G04 #@! TF.CreationDate,2022-09-18T10:38:10-04:00*
G04 #@! TF.ProjectId,C64PowerSupply,43363450-6f77-4657-9253-7570706c792e,B*
G04 #@! TF.SameCoordinates,Original*
G04 #@! TF.FileFunction,Soldermask,Bot*
G04 #@! TF.FilePolarity,Negative*
%FSLAX46Y46*%
G04 Gerber Fmt 4.6, Leading zero omitted, Abs format (unit mm)*
G04 Created by KiCad (PCBNEW (6.0.7)) date 2022-09-18 10:38:10*
%MOMM*%
%LPD*%
G01*
G04 APERTURE LIST*
%ADD10C,5.080000*%
%ADD11R,3.048000X3.048000*%
%ADD12C,3.400000*%
%ADD13R,2.600000X2.600000*%
%ADD14C,2.600000*%
%ADD15C,2.500000*%
%ADD16R,2.400000X2.400000*%
%ADD17C,2.400000*%
%ADD18C,5.700000*%
%ADD19C,1.440000*%
%ADD20C,0.770000*%
%ADD21C,1.800000*%
%ADD22R,2.000000X2.000000*%
%ADD23C,2.000000*%
G04 APERTURE END LIST*
D10*
X153670000Y-119380000D03*
X90170000Y-68580000D03*
X90170000Y-119380000D03*
X153670000Y-68580000D03*
D11*
X102870000Y-118110000D03*
D12*
X118110000Y-118110000D03*
X125730000Y-118110000D03*
X140970000Y-118110000D03*
X102870000Y-69850000D03*
X118110000Y-69850000D03*
X125730000Y-69850000D03*
X140970000Y-69850000D03*
D13*
X77970000Y-102108000D03*
D14*
X77970000Y-107108000D03*
X77970000Y-112108000D03*
D15*
X104020000Y-57150000D03*
X89020000Y-57150000D03*
D13*
X187960000Y-106680000D03*
D14*
X187960000Y-101680000D03*
X187960000Y-96680000D03*
X187960000Y-91680000D03*
D16*
X166667246Y-78740000D03*
D17*
X174167246Y-78740000D03*
D16*
X164705000Y-67310000D03*
D17*
X175605000Y-67210000D03*
X175605000Y-56410000D03*
X164705000Y-56410000D03*
D18*
X73660000Y-55880000D03*
X190500000Y-55880000D03*
X190500000Y-121920000D03*
X73660000Y-121920000D03*
D17*
X76200000Y-96400000D03*
X76200000Y-81400000D03*
D19*
X181610000Y-114290000D03*
X181610000Y-116830000D03*
X181610000Y-119370000D03*
D13*
X187960000Y-85090000D03*
D14*
X187960000Y-80090000D03*
X187960000Y-75090000D03*
X187960000Y-70090000D03*
D20*
X161910000Y-111790000D03*
X161910000Y-109190000D03*
X161910000Y-110490000D03*
X163210000Y-109190000D03*
X163210000Y-110490000D03*
X163210000Y-111790000D03*
D15*
X140970000Y-57150000D03*
X155970000Y-57150000D03*
D21*
X75500000Y-74870000D03*
X76900000Y-67370000D03*
D22*
X92710000Y-102870000D03*
D23*
X92710000Y-107950000D03*
X92710000Y-113030000D03*
X87630000Y-102870000D03*
X87630000Y-107950000D03*
X87630000Y-113030000D03*
M02*
