G04 #@! TF.GenerationSoftware,KiCad,Pcbnew,(6.0.7)*
G04 #@! TF.CreationDate,2022-09-18T10:38:10-04:00*
G04 #@! TF.ProjectId,C64PowerSupply,43363450-6f77-4657-9253-7570706c792e,B*
G04 #@! TF.SameCoordinates,Original*
G04 #@! TF.FileFunction,Copper,L2,Bot*
G04 #@! TF.FilePolarity,Positive*
%FSLAX46Y46*%
G04 Gerber Fmt 4.6, Leading zero omitted, Abs format (unit mm)*
G04 Created by KiCad (PCBNEW (6.0.7)) date 2022-09-18 10:38:10*
%MOMM*%
%LPD*%
G01*
G04 APERTURE LIST*
G04 #@! TA.AperFunction,ComponentPad*
%ADD10R,3.048000X3.048000*%
G04 #@! TD*
G04 #@! TA.AperFunction,ComponentPad*
%ADD11C,3.400000*%
G04 #@! TD*
G04 #@! TA.AperFunction,ComponentPad*
%ADD12R,2.600000X2.600000*%
G04 #@! TD*
G04 #@! TA.AperFunction,ComponentPad*
%ADD13C,2.600000*%
G04 #@! TD*
G04 #@! TA.AperFunction,ComponentPad*
%ADD14C,2.500000*%
G04 #@! TD*
G04 #@! TA.AperFunction,ComponentPad*
%ADD15R,2.400000X2.400000*%
G04 #@! TD*
G04 #@! TA.AperFunction,ComponentPad*
%ADD16C,2.400000*%
G04 #@! TD*
G04 #@! TA.AperFunction,ComponentPad*
%ADD17C,5.700000*%
G04 #@! TD*
G04 #@! TA.AperFunction,ComponentPad*
%ADD18C,1.440000*%
G04 #@! TD*
G04 #@! TA.AperFunction,SMDPad,CuDef*
%ADD19R,2.600000X3.300000*%
G04 #@! TD*
G04 #@! TA.AperFunction,ComponentPad*
%ADD20C,0.630000*%
G04 #@! TD*
G04 #@! TA.AperFunction,ComponentPad*
%ADD21C,1.800000*%
G04 #@! TD*
G04 #@! TA.AperFunction,ComponentPad*
%ADD22R,2.000000X2.000000*%
G04 #@! TD*
G04 #@! TA.AperFunction,ComponentPad*
%ADD23C,2.000000*%
G04 #@! TD*
G04 #@! TA.AperFunction,ViaPad*
%ADD24C,0.800000*%
G04 #@! TD*
G04 #@! TA.AperFunction,Conductor*
%ADD25C,0.250000*%
G04 #@! TD*
G04 #@! TA.AperFunction,Conductor*
%ADD26C,1.200000*%
G04 #@! TD*
G04 APERTURE END LIST*
D10*
X102870000Y-118110000D03*
D11*
X118110000Y-118110000D03*
X125730000Y-118110000D03*
X140970000Y-118110000D03*
X102870000Y-69850000D03*
X118110000Y-69850000D03*
X125730000Y-69850000D03*
X140970000Y-69850000D03*
D12*
X77970000Y-102108000D03*
D13*
X77970000Y-107108000D03*
X77970000Y-112108000D03*
D14*
X104020000Y-57150000D03*
X89020000Y-57150000D03*
D12*
X187960000Y-106680000D03*
D13*
X187960000Y-101680000D03*
X187960000Y-96680000D03*
X187960000Y-91680000D03*
D15*
X166667246Y-78740000D03*
D16*
X174167246Y-78740000D03*
D15*
X164705000Y-67310000D03*
D16*
X175605000Y-67210000D03*
X175605000Y-56410000D03*
X164705000Y-56410000D03*
D17*
X73660000Y-55880000D03*
X190500000Y-55880000D03*
X190500000Y-121920000D03*
X73660000Y-121920000D03*
D16*
X76200000Y-96400000D03*
X76200000Y-81400000D03*
D18*
X181610000Y-114290000D03*
X181610000Y-116830000D03*
X181610000Y-119370000D03*
D12*
X187960000Y-85090000D03*
D13*
X187960000Y-80090000D03*
X187960000Y-75090000D03*
X187960000Y-70090000D03*
D19*
X162560000Y-110490000D03*
D20*
X161910000Y-111790000D03*
X161910000Y-109190000D03*
X161910000Y-110490000D03*
X163210000Y-109190000D03*
X163210000Y-110490000D03*
X163210000Y-111790000D03*
D14*
X140970000Y-57150000D03*
X155970000Y-57150000D03*
D21*
X75500000Y-74870000D03*
X76900000Y-67370000D03*
D22*
X92710000Y-102870000D03*
D23*
X92710000Y-107950000D03*
X92710000Y-113030000D03*
X87630000Y-102870000D03*
X87630000Y-107950000D03*
X87630000Y-113030000D03*
D24*
X163830000Y-95250000D03*
X163830000Y-115570000D03*
X150495000Y-104140000D03*
X149225000Y-107950000D03*
X161290000Y-115570000D03*
X149225000Y-105410000D03*
X149225000Y-106680000D03*
X150495000Y-110490000D03*
X165100000Y-93980000D03*
X161290000Y-114300000D03*
X150495000Y-106680000D03*
X151765000Y-104140000D03*
X162560000Y-116840000D03*
X166370000Y-90170000D03*
X167640000Y-92710000D03*
X150495000Y-109220000D03*
X166370000Y-91440000D03*
X163830000Y-114300000D03*
X160020000Y-114300000D03*
X150495000Y-107950000D03*
X161290000Y-118110000D03*
X160020000Y-115570000D03*
X158750000Y-115570000D03*
X165100000Y-92710000D03*
X163830000Y-92710000D03*
X165100000Y-91440000D03*
X167640000Y-95250000D03*
X163830000Y-93980000D03*
X167640000Y-93980000D03*
X161290000Y-116840000D03*
X163830000Y-91440000D03*
X165100000Y-90170000D03*
X149225000Y-109220000D03*
X151765000Y-107950000D03*
X165100000Y-88900000D03*
X163830000Y-118110000D03*
X151765000Y-109220000D03*
X151765000Y-110490000D03*
X160020000Y-118110000D03*
X166370000Y-93980000D03*
X162560000Y-118110000D03*
X166370000Y-95250000D03*
X162560000Y-115570000D03*
X150495000Y-105410000D03*
X162560000Y-114300000D03*
X165100000Y-95250000D03*
X163830000Y-116840000D03*
X160020000Y-116840000D03*
X151765000Y-106680000D03*
X149225000Y-110490000D03*
X167640000Y-91440000D03*
X158750000Y-118110000D03*
X163830000Y-90170000D03*
X149225000Y-104140000D03*
X166362070Y-88896858D03*
X158750000Y-114300000D03*
X167640000Y-90170000D03*
X167640000Y-88900000D03*
X158750000Y-116840000D03*
X151765000Y-105410000D03*
X163830000Y-88900000D03*
X166370000Y-92710000D03*
X165100000Y-104140000D03*
X160020000Y-104140000D03*
D25*
X185975000Y-96680000D02*
X187960000Y-96680000D01*
X184150000Y-111750000D02*
X184150000Y-98505000D01*
X181610000Y-114290000D02*
X184150000Y-111750000D01*
X184150000Y-98505000D02*
X185975000Y-96680000D01*
D26*
X73025000Y-77345000D02*
X73025000Y-93225000D01*
X75500000Y-74870000D02*
X73025000Y-77345000D01*
X76200000Y-100338000D02*
X77970000Y-102108000D01*
X76200000Y-96400000D02*
X76200000Y-100338000D01*
X140970000Y-118110000D02*
X134620000Y-124460000D01*
X83820000Y-120650000D02*
X83820000Y-105410000D01*
X73025000Y-93225000D02*
X76200000Y-96400000D01*
X83820000Y-105410000D02*
X80518000Y-102108000D01*
X80518000Y-102108000D02*
X77970000Y-102108000D01*
X134620000Y-124460000D02*
X87630000Y-124460000D01*
X87630000Y-124460000D02*
X83820000Y-120650000D01*
X87630000Y-113030000D02*
X92710000Y-113030000D01*
X93050000Y-108290000D02*
X115910000Y-108290000D01*
X115910000Y-108290000D02*
X125730000Y-118110000D01*
X92710000Y-107950000D02*
X93050000Y-108290000D01*
X90170000Y-110490000D02*
X110490000Y-110490000D01*
X110490000Y-110490000D02*
X118110000Y-118110000D01*
X87630000Y-107950000D02*
X90170000Y-110490000D01*
D25*
X165100000Y-104140000D02*
X160020000Y-104140000D01*
D26*
X187960000Y-106680000D02*
X191770000Y-106680000D01*
X191770000Y-66040000D02*
X179070000Y-53340000D01*
X191770000Y-86360000D02*
X190500000Y-85090000D01*
X106560000Y-53340000D02*
X104020000Y-55880000D01*
X190500000Y-85090000D02*
X191770000Y-83820000D01*
X179070000Y-53340000D02*
X106560000Y-53340000D01*
X104020000Y-55880000D02*
X104020000Y-57150000D01*
X191770000Y-106680000D02*
X191770000Y-86360000D01*
X190500000Y-85090000D02*
X187960000Y-85090000D01*
X191770000Y-83820000D02*
X191770000Y-66040000D01*
G04 #@! TA.AperFunction,Conductor*
G36*
X195013621Y-51328502D02*
G01*
X195060114Y-51382158D01*
X195071500Y-51434500D01*
X195071500Y-126365500D01*
X195051498Y-126433621D01*
X194997842Y-126480114D01*
X194945500Y-126491500D01*
X147446000Y-126491500D01*
X147377879Y-126471498D01*
X147331386Y-126417842D01*
X147320000Y-126365500D01*
X147320000Y-124621758D01*
X188511069Y-124621758D01*
X188519207Y-124632765D01*
X188597342Y-124692720D01*
X188602972Y-124696575D01*
X188907929Y-124881992D01*
X188913931Y-124885210D01*
X189237139Y-125036611D01*
X189243444Y-125039159D01*
X189581117Y-125154771D01*
X189587668Y-125156624D01*
X189935838Y-125235087D01*
X189942557Y-125236224D01*
X190297174Y-125276628D01*
X190303964Y-125277031D01*
X190660865Y-125278899D01*
X190667666Y-125278567D01*
X191022686Y-125241880D01*
X191029414Y-125240814D01*
X191378402Y-125165997D01*
X191384950Y-125164218D01*
X191723820Y-125052147D01*
X191730162Y-125049661D01*
X192054921Y-124901660D01*
X192060975Y-124898495D01*
X192367851Y-124716285D01*
X192373503Y-124712503D01*
X192480041Y-124632512D01*
X192488494Y-124621187D01*
X192481749Y-124608856D01*
X190512812Y-122639919D01*
X190498868Y-122632305D01*
X190497035Y-122632436D01*
X190490420Y-122636687D01*
X188517950Y-124609157D01*
X188511069Y-124621758D01*
X147320000Y-124621758D01*
X147320000Y-119433291D01*
X150616985Y-119433291D01*
X150617250Y-119436851D01*
X150635036Y-119676189D01*
X150642643Y-119778559D01*
X150707221Y-120118704D01*
X150708285Y-120122129D01*
X150708285Y-120122131D01*
X150727849Y-120185137D01*
X150809890Y-120449351D01*
X150811333Y-120452629D01*
X150811335Y-120452636D01*
X150907178Y-120670456D01*
X150949329Y-120766251D01*
X151123746Y-121065329D01*
X151330899Y-121342739D01*
X151333343Y-121345337D01*
X151333348Y-121345343D01*
X151449511Y-121468828D01*
X151568123Y-121594916D01*
X151832370Y-121818618D01*
X152120242Y-122010967D01*
X152123424Y-122012606D01*
X152123426Y-122012607D01*
X152424855Y-122167854D01*
X152424860Y-122167856D01*
X152428038Y-122169493D01*
X152431379Y-122170759D01*
X152431384Y-122170761D01*
X152561465Y-122220044D01*
X152751801Y-122292156D01*
X152755260Y-122293034D01*
X152755268Y-122293037D01*
X153083902Y-122376499D01*
X153083910Y-122376501D01*
X153087369Y-122377379D01*
X153255927Y-122400319D01*
X153427434Y-122423660D01*
X153427441Y-122423661D01*
X153430427Y-122424067D01*
X153543253Y-122428500D01*
X153757702Y-122428500D01*
X153896676Y-122420609D01*
X154012096Y-122414055D01*
X154012103Y-122414054D01*
X154015664Y-122413852D01*
X154151634Y-122390488D01*
X154353366Y-122355825D01*
X154353374Y-122355823D01*
X154356884Y-122355220D01*
X154360309Y-122354222D01*
X154360312Y-122354221D01*
X154685832Y-122259340D01*
X154685833Y-122259340D01*
X154689273Y-122258337D01*
X155008558Y-122124450D01*
X155310634Y-121955279D01*
X155371229Y-121911657D01*
X187137260Y-121911657D01*
X187155318Y-122268127D01*
X187156028Y-122274883D01*
X187212478Y-122627305D01*
X187213917Y-122633960D01*
X187308094Y-122978215D01*
X187310243Y-122984676D01*
X187441053Y-123316756D01*
X187443884Y-123322939D01*
X187609789Y-123638943D01*
X187613283Y-123644804D01*
X187785968Y-123901785D01*
X187795952Y-123910084D01*
X187810044Y-123902849D01*
X189780081Y-121932812D01*
X189786459Y-121921132D01*
X191212305Y-121921132D01*
X191212436Y-121922965D01*
X191216687Y-121929580D01*
X193190124Y-123903017D01*
X193201729Y-123909354D01*
X193213935Y-123899825D01*
X193368503Y-123674929D01*
X193372050Y-123669118D01*
X193541250Y-123354879D01*
X193544157Y-123348701D01*
X193678435Y-123018016D01*
X193680649Y-123011586D01*
X193778427Y-122668331D01*
X193779934Y-122661701D01*
X193840073Y-122309873D01*
X193840853Y-122303133D01*
X193862740Y-121945275D01*
X193862856Y-121941673D01*
X193862926Y-121921820D01*
X193862834Y-121918193D01*
X193843446Y-121560208D01*
X193842711Y-121553442D01*
X193785034Y-121201233D01*
X193783567Y-121194561D01*
X193688194Y-120850655D01*
X193686020Y-120844192D01*
X193554053Y-120512575D01*
X193551197Y-120506395D01*
X193384194Y-120190981D01*
X193380682Y-120185137D01*
X193213724Y-119938539D01*
X193203651Y-119930225D01*
X193189677Y-119937430D01*
X191219919Y-121907188D01*
X191212305Y-121921132D01*
X189786459Y-121921132D01*
X189787695Y-121918868D01*
X189787564Y-121917035D01*
X189783313Y-121910420D01*
X187809575Y-119936682D01*
X187798039Y-119930382D01*
X187785756Y-119940006D01*
X187625394Y-120175086D01*
X187621859Y-120180923D01*
X187453754Y-120495757D01*
X187450878Y-120501926D01*
X187317754Y-120833081D01*
X187315561Y-120839521D01*
X187218979Y-121183121D01*
X187217496Y-121189756D01*
X187158589Y-121541773D01*
X187157830Y-121548545D01*
X187137284Y-121904862D01*
X187137260Y-121911657D01*
X155371229Y-121911657D01*
X155591617Y-121753000D01*
X155669754Y-121682025D01*
X155845249Y-121522617D01*
X155845255Y-121522611D01*
X155847896Y-121520212D01*
X156076175Y-121259910D01*
X156273520Y-120975439D01*
X156437393Y-120670456D01*
X156565687Y-120348883D01*
X156656754Y-120014854D01*
X156709422Y-119672663D01*
X156714361Y-119546965D01*
X156721314Y-119370000D01*
X180376807Y-119370000D01*
X180395542Y-119584142D01*
X180396966Y-119589455D01*
X180396966Y-119589457D01*
X180418306Y-119669096D01*
X180451178Y-119791777D01*
X180453500Y-119796757D01*
X180453501Y-119796759D01*
X180520299Y-119940006D01*
X180542024Y-119986596D01*
X180665319Y-120162681D01*
X180817319Y-120314681D01*
X180993403Y-120437976D01*
X180998381Y-120440297D01*
X180998384Y-120440299D01*
X181130544Y-120501926D01*
X181188223Y-120528822D01*
X181193531Y-120530244D01*
X181193533Y-120530245D01*
X181390543Y-120583034D01*
X181390545Y-120583034D01*
X181395858Y-120584458D01*
X181610000Y-120603193D01*
X181824142Y-120584458D01*
X181829455Y-120583034D01*
X181829457Y-120583034D01*
X182026467Y-120530245D01*
X182026469Y-120530244D01*
X182031777Y-120528822D01*
X182089456Y-120501926D01*
X182221616Y-120440299D01*
X182221619Y-120440297D01*
X182226597Y-120437976D01*
X182402681Y-120314681D01*
X182554681Y-120162681D01*
X182677976Y-119986596D01*
X182699702Y-119940006D01*
X182766499Y-119796759D01*
X182766500Y-119796757D01*
X182768822Y-119791777D01*
X182801695Y-119669096D01*
X182823034Y-119589457D01*
X182823034Y-119589455D01*
X182824458Y-119584142D01*
X182843193Y-119370000D01*
X182829962Y-119218771D01*
X188511382Y-119218771D01*
X188518089Y-119230982D01*
X190487188Y-121200081D01*
X190501132Y-121207695D01*
X190502965Y-121207564D01*
X190509580Y-121203313D01*
X192481910Y-119230983D01*
X192488755Y-119218448D01*
X192480524Y-119207355D01*
X192392958Y-119140649D01*
X192387332Y-119136825D01*
X192081722Y-118952469D01*
X192075710Y-118949272D01*
X191751966Y-118798995D01*
X191745666Y-118796475D01*
X191407595Y-118682045D01*
X191401017Y-118680209D01*
X191052592Y-118602965D01*
X191045857Y-118601850D01*
X190691106Y-118562685D01*
X190684324Y-118562306D01*
X190327395Y-118561683D01*
X190320622Y-118562038D01*
X189965714Y-118599966D01*
X189959005Y-118601053D01*
X189610289Y-118677086D01*
X189603714Y-118678897D01*
X189265250Y-118792145D01*
X189258928Y-118794648D01*
X188934680Y-118943785D01*
X188928637Y-118946971D01*
X188622404Y-119130248D01*
X188616744Y-119134066D01*
X188519841Y-119207354D01*
X188511382Y-119218771D01*
X182829962Y-119218771D01*
X182824458Y-119155858D01*
X182768822Y-118948223D01*
X182699236Y-118798995D01*
X182680299Y-118758385D01*
X182680297Y-118758382D01*
X182677976Y-118753404D01*
X182554681Y-118577319D01*
X182402681Y-118425319D01*
X182226597Y-118302024D01*
X182221619Y-118299703D01*
X182221616Y-118299701D01*
X182038247Y-118214195D01*
X181984962Y-118167278D01*
X181965501Y-118099000D01*
X181986043Y-118031041D01*
X182038247Y-117985805D01*
X182221616Y-117900299D01*
X182221619Y-117900297D01*
X182226597Y-117897976D01*
X182402681Y-117774681D01*
X182554681Y-117622681D01*
X182677976Y-117446596D01*
X182690320Y-117420126D01*
X182766499Y-117256759D01*
X182766500Y-117256757D01*
X182768822Y-117251777D01*
X182772035Y-117239788D01*
X182823034Y-117049457D01*
X182823034Y-117049455D01*
X182824458Y-117044142D01*
X182843193Y-116830000D01*
X182824458Y-116615858D01*
X182823034Y-116610543D01*
X182770245Y-116413533D01*
X182770244Y-116413531D01*
X182768822Y-116408223D01*
X182735302Y-116336340D01*
X182680299Y-116218385D01*
X182680297Y-116218382D01*
X182677976Y-116213404D01*
X182554681Y-116037319D01*
X182402681Y-115885319D01*
X182226597Y-115762024D01*
X182221619Y-115759703D01*
X182221616Y-115759701D01*
X182038247Y-115674195D01*
X181984962Y-115627278D01*
X181965501Y-115559000D01*
X181986043Y-115491041D01*
X182038247Y-115445805D01*
X182221616Y-115360299D01*
X182221619Y-115360297D01*
X182226597Y-115357976D01*
X182402681Y-115234681D01*
X182554681Y-115082681D01*
X182677976Y-114906596D01*
X182768822Y-114711777D01*
X182824458Y-114504142D01*
X182843193Y-114290000D01*
X182824458Y-114075858D01*
X182821221Y-114063776D01*
X182822911Y-113992800D01*
X182853833Y-113942071D01*
X184542247Y-112253657D01*
X184550537Y-112246113D01*
X184557018Y-112242000D01*
X184603659Y-112192332D01*
X184606413Y-112189491D01*
X184626134Y-112169770D01*
X184628612Y-112166575D01*
X184636318Y-112157553D01*
X184661158Y-112131101D01*
X184666586Y-112125321D01*
X184676346Y-112107568D01*
X184687199Y-112091045D01*
X184694753Y-112081306D01*
X184699613Y-112075041D01*
X184717176Y-112034457D01*
X184722383Y-112023827D01*
X184743695Y-111985060D01*
X184745666Y-111977383D01*
X184745668Y-111977378D01*
X184748732Y-111965442D01*
X184755138Y-111946730D01*
X184760034Y-111935417D01*
X184763181Y-111928145D01*
X184770097Y-111884481D01*
X184772504Y-111872860D01*
X184781528Y-111837711D01*
X184781528Y-111837710D01*
X184783500Y-111830030D01*
X184783500Y-111809769D01*
X184785051Y-111790058D01*
X184785240Y-111788868D01*
X184788219Y-111770057D01*
X184784059Y-111726046D01*
X184783500Y-111714189D01*
X184783500Y-101632526D01*
X186147050Y-101632526D01*
X186159947Y-101901019D01*
X186212388Y-102164656D01*
X186303220Y-102417646D01*
X186430450Y-102654431D01*
X186433241Y-102658168D01*
X186433245Y-102658175D01*
X186514887Y-102767506D01*
X186591281Y-102869810D01*
X186594590Y-102873090D01*
X186594595Y-102873096D01*
X186778863Y-103055762D01*
X186782180Y-103059050D01*
X186785942Y-103061808D01*
X186785945Y-103061811D01*
X186898299Y-103144192D01*
X186998954Y-103217995D01*
X187003089Y-103220171D01*
X187003093Y-103220173D01*
X187232698Y-103340975D01*
X187236840Y-103343154D01*
X187490613Y-103431775D01*
X187495206Y-103432647D01*
X187750109Y-103481042D01*
X187750112Y-103481042D01*
X187754698Y-103481913D01*
X187882370Y-103486929D01*
X188018625Y-103492283D01*
X188018630Y-103492283D01*
X188023293Y-103492466D01*
X188127607Y-103481042D01*
X188285844Y-103463713D01*
X188285850Y-103463712D01*
X188290497Y-103463203D01*
X188313104Y-103457251D01*
X188545918Y-103395956D01*
X188545920Y-103395955D01*
X188550441Y-103394765D01*
X188554738Y-103392919D01*
X188793120Y-103290502D01*
X188793122Y-103290501D01*
X188797414Y-103288657D01*
X188916071Y-103215230D01*
X189022017Y-103149669D01*
X189022021Y-103149666D01*
X189025990Y-103147210D01*
X189231149Y-102973530D01*
X189408382Y-102771434D01*
X189553797Y-102545361D01*
X189664199Y-102300278D01*
X189701209Y-102169051D01*
X189735893Y-102046072D01*
X189735894Y-102046069D01*
X189737163Y-102041568D01*
X189755043Y-101901019D01*
X189770688Y-101778045D01*
X189770688Y-101778041D01*
X189771086Y-101774915D01*
X189773571Y-101680000D01*
X189753650Y-101411937D01*
X189694327Y-101149763D01*
X189596902Y-100899238D01*
X189463518Y-100665864D01*
X189297105Y-100454769D01*
X189101317Y-100270591D01*
X188880457Y-100117374D01*
X188876264Y-100115306D01*
X188643564Y-100000551D01*
X188643561Y-100000550D01*
X188639376Y-99998486D01*
X188591745Y-99983239D01*
X188537621Y-99965914D01*
X188383370Y-99916538D01*
X188378763Y-99915788D01*
X188378760Y-99915787D01*
X188122674Y-99874081D01*
X188122675Y-99874081D01*
X188118063Y-99873330D01*
X187987719Y-99871624D01*
X187853961Y-99869873D01*
X187853958Y-99869873D01*
X187849284Y-99869812D01*
X187582937Y-99906060D01*
X187324874Y-99981278D01*
X187080763Y-100093815D01*
X187076854Y-100096378D01*
X186859881Y-100238631D01*
X186859876Y-100238635D01*
X186855968Y-100241197D01*
X186655426Y-100420188D01*
X186483544Y-100626854D01*
X186344096Y-100856656D01*
X186240148Y-101104545D01*
X186173981Y-101365077D01*
X186147050Y-101632526D01*
X184783500Y-101632526D01*
X184783500Y-98819594D01*
X184803502Y-98751473D01*
X184820405Y-98730499D01*
X186123958Y-97426947D01*
X186186270Y-97392921D01*
X186257086Y-97397986D01*
X186313921Y-97440533D01*
X186324045Y-97456403D01*
X186430450Y-97654431D01*
X186433241Y-97658168D01*
X186433245Y-97658175D01*
X186514887Y-97767506D01*
X186591281Y-97869810D01*
X186594590Y-97873090D01*
X186594595Y-97873096D01*
X186723972Y-98001348D01*
X186782180Y-98059050D01*
X186785942Y-98061808D01*
X186785945Y-98061811D01*
X186870624Y-98123900D01*
X186998954Y-98217995D01*
X187003089Y-98220171D01*
X187003093Y-98220173D01*
X187232698Y-98340975D01*
X187236840Y-98343154D01*
X187490613Y-98431775D01*
X187495206Y-98432647D01*
X187750109Y-98481042D01*
X187750112Y-98481042D01*
X187754698Y-98481913D01*
X187882370Y-98486929D01*
X188018625Y-98492283D01*
X188018630Y-98492283D01*
X188023293Y-98492466D01*
X188127607Y-98481042D01*
X188285844Y-98463713D01*
X188285850Y-98463712D01*
X188290497Y-98463203D01*
X188405599Y-98432899D01*
X188545918Y-98395956D01*
X188545920Y-98395955D01*
X188550441Y-98394765D01*
X188579817Y-98382144D01*
X188793120Y-98290502D01*
X188793122Y-98290501D01*
X188797414Y-98288657D01*
X188961315Y-98187232D01*
X189022017Y-98149669D01*
X189022021Y-98149666D01*
X189025990Y-98147210D01*
X189231149Y-97973530D01*
X189408382Y-97771434D01*
X189553797Y-97545361D01*
X189664199Y-97300278D01*
X189737163Y-97041568D01*
X189771086Y-96774915D01*
X189773571Y-96680000D01*
X189753650Y-96411937D01*
X189717726Y-96253173D01*
X189695361Y-96154331D01*
X189695360Y-96154326D01*
X189694327Y-96149763D01*
X189596902Y-95899238D01*
X189463518Y-95665864D01*
X189297105Y-95454769D01*
X189101317Y-95270591D01*
X188880457Y-95117374D01*
X188876264Y-95115306D01*
X188643564Y-95000551D01*
X188643561Y-95000550D01*
X188639376Y-94998486D01*
X188591745Y-94983239D01*
X188537621Y-94965914D01*
X188383370Y-94916538D01*
X188378763Y-94915788D01*
X188378760Y-94915787D01*
X188122674Y-94874081D01*
X188122675Y-94874081D01*
X188118063Y-94873330D01*
X187987719Y-94871624D01*
X187853961Y-94869873D01*
X187853958Y-94869873D01*
X187849284Y-94869812D01*
X187582937Y-94906060D01*
X187324874Y-94981278D01*
X187080763Y-95093815D01*
X187076854Y-95096378D01*
X186859881Y-95238631D01*
X186859876Y-95238635D01*
X186855968Y-95241197D01*
X186655426Y-95420188D01*
X186483544Y-95626854D01*
X186344096Y-95856656D01*
X186342287Y-95860970D01*
X186342285Y-95860974D01*
X186296892Y-95969225D01*
X186252103Y-96024312D01*
X186180695Y-96046500D01*
X186053768Y-96046500D01*
X186042585Y-96045973D01*
X186035092Y-96044298D01*
X186027166Y-96044547D01*
X186027165Y-96044547D01*
X185967002Y-96046438D01*
X185963044Y-96046500D01*
X185935144Y-96046500D01*
X185931154Y-96047004D01*
X185919320Y-96047936D01*
X185875111Y-96049326D01*
X185867497Y-96051538D01*
X185867492Y-96051539D01*
X185855659Y-96054977D01*
X185836296Y-96058988D01*
X185816203Y-96061526D01*
X185808836Y-96064443D01*
X185808831Y-96064444D01*
X185775092Y-96077802D01*
X185763865Y-96081646D01*
X185721407Y-96093982D01*
X185714581Y-96098019D01*
X185703972Y-96104293D01*
X185686224Y-96112988D01*
X185667383Y-96120448D01*
X185660967Y-96125110D01*
X185660966Y-96125110D01*
X185631613Y-96146436D01*
X185621693Y-96152952D01*
X185590465Y-96171420D01*
X185590462Y-96171422D01*
X185583638Y-96175458D01*
X185569317Y-96189779D01*
X185554284Y-96202619D01*
X185537893Y-96214528D01*
X185532842Y-96220634D01*
X185509702Y-96248605D01*
X185501712Y-96257384D01*
X183757747Y-98001348D01*
X183749461Y-98008888D01*
X183742982Y-98013000D01*
X183737557Y-98018777D01*
X183696357Y-98062651D01*
X183693602Y-98065493D01*
X183673865Y-98085230D01*
X183671385Y-98088427D01*
X183663682Y-98097447D01*
X183633414Y-98129679D01*
X183629595Y-98136625D01*
X183629593Y-98136628D01*
X183623652Y-98147434D01*
X183612801Y-98163953D01*
X183600386Y-98179959D01*
X183597241Y-98187228D01*
X183597238Y-98187232D01*
X183582826Y-98220537D01*
X183577609Y-98231187D01*
X183556305Y-98269940D01*
X183554334Y-98277615D01*
X183554334Y-98277616D01*
X183551267Y-98289562D01*
X183544863Y-98308266D01*
X183536819Y-98326855D01*
X183535580Y-98334678D01*
X183535577Y-98334688D01*
X183529901Y-98370524D01*
X183527495Y-98382144D01*
X183516500Y-98424970D01*
X183516500Y-98445224D01*
X183514949Y-98464934D01*
X183511780Y-98484943D01*
X183512526Y-98492835D01*
X183515941Y-98528961D01*
X183516500Y-98540819D01*
X183516500Y-111435405D01*
X183496498Y-111503526D01*
X183479595Y-111524500D01*
X181957928Y-113046167D01*
X181895616Y-113080193D01*
X181836227Y-113078780D01*
X181833182Y-113077964D01*
X181824142Y-113075542D01*
X181610000Y-113056807D01*
X181395858Y-113075542D01*
X181390545Y-113076966D01*
X181390543Y-113076966D01*
X181193533Y-113129755D01*
X181193531Y-113129756D01*
X181188223Y-113131178D01*
X181183243Y-113133500D01*
X181183241Y-113133501D01*
X180998385Y-113219701D01*
X180998382Y-113219703D01*
X180993404Y-113222024D01*
X180817319Y-113345319D01*
X180665319Y-113497319D01*
X180542024Y-113673404D01*
X180451178Y-113868223D01*
X180395542Y-114075858D01*
X180376807Y-114290000D01*
X180395542Y-114504142D01*
X180451178Y-114711777D01*
X180542024Y-114906596D01*
X180665319Y-115082681D01*
X180817319Y-115234681D01*
X180993403Y-115357976D01*
X180998381Y-115360297D01*
X180998384Y-115360299D01*
X181181753Y-115445805D01*
X181235038Y-115492722D01*
X181254499Y-115561000D01*
X181233957Y-115628959D01*
X181181753Y-115674195D01*
X180998385Y-115759701D01*
X180998382Y-115759703D01*
X180993404Y-115762024D01*
X180817319Y-115885319D01*
X180665319Y-116037319D01*
X180542024Y-116213404D01*
X180539703Y-116218382D01*
X180539701Y-116218385D01*
X180484698Y-116336340D01*
X180451178Y-116408223D01*
X180449756Y-116413531D01*
X180449755Y-116413533D01*
X180396966Y-116610543D01*
X180395542Y-116615858D01*
X180376807Y-116830000D01*
X180395542Y-117044142D01*
X180396966Y-117049455D01*
X180396966Y-117049457D01*
X180447966Y-117239788D01*
X180451178Y-117251777D01*
X180453500Y-117256757D01*
X180453501Y-117256759D01*
X180529681Y-117420126D01*
X180542024Y-117446596D01*
X180665319Y-117622681D01*
X180817319Y-117774681D01*
X180993403Y-117897976D01*
X180998381Y-117900297D01*
X180998384Y-117900299D01*
X181181753Y-117985805D01*
X181235038Y-118032722D01*
X181254499Y-118101000D01*
X181233957Y-118168959D01*
X181181753Y-118214195D01*
X180998385Y-118299701D01*
X180998382Y-118299703D01*
X180993404Y-118302024D01*
X180817319Y-118425319D01*
X180665319Y-118577319D01*
X180542024Y-118753404D01*
X180539703Y-118758382D01*
X180539701Y-118758385D01*
X180520764Y-118798995D01*
X180451178Y-118948223D01*
X180395542Y-119155858D01*
X180376807Y-119370000D01*
X156721314Y-119370000D01*
X156722875Y-119330279D01*
X156722875Y-119330274D01*
X156723015Y-119326709D01*
X156705492Y-119090904D01*
X156697622Y-118985003D01*
X156697621Y-118984998D01*
X156697357Y-118981441D01*
X156632779Y-118641296D01*
X156530110Y-118310649D01*
X156527704Y-118305179D01*
X156392115Y-117997030D01*
X156392113Y-117997025D01*
X156390671Y-117993749D01*
X156216254Y-117694671D01*
X156009101Y-117417261D01*
X156006657Y-117414663D01*
X156006652Y-117414657D01*
X155839889Y-117237383D01*
X155771877Y-117165084D01*
X155507630Y-116941382D01*
X155219758Y-116749033D01*
X155002820Y-116637302D01*
X154915145Y-116592146D01*
X154915140Y-116592144D01*
X154911962Y-116590507D01*
X154908621Y-116589241D01*
X154908616Y-116589239D01*
X154778535Y-116539956D01*
X154588199Y-116467844D01*
X154584740Y-116466966D01*
X154584732Y-116466963D01*
X154256098Y-116383501D01*
X154256090Y-116383499D01*
X154252631Y-116382621D01*
X154084073Y-116359681D01*
X153912566Y-116336340D01*
X153912559Y-116336339D01*
X153909573Y-116335933D01*
X153796747Y-116331500D01*
X153582298Y-116331500D01*
X153443324Y-116339391D01*
X153327904Y-116345945D01*
X153327897Y-116345946D01*
X153324336Y-116346148D01*
X153188366Y-116369512D01*
X152986634Y-116404175D01*
X152986626Y-116404177D01*
X152983116Y-116404780D01*
X152979691Y-116405778D01*
X152979688Y-116405779D01*
X152766754Y-116467844D01*
X152650727Y-116501663D01*
X152331442Y-116635550D01*
X152029366Y-116804721D01*
X151748383Y-117007000D01*
X151745729Y-117009411D01*
X151494751Y-117237383D01*
X151494745Y-117237389D01*
X151492104Y-117239788D01*
X151263825Y-117500090D01*
X151066480Y-117784561D01*
X150902607Y-118089544D01*
X150901280Y-118092869D01*
X150901280Y-118092870D01*
X150883751Y-118136807D01*
X150774313Y-118411117D01*
X150683246Y-118745146D01*
X150630578Y-119087337D01*
X150630438Y-119090904D01*
X150619257Y-119375475D01*
X150616985Y-119433291D01*
X147320000Y-119433291D01*
X147320000Y-112550407D01*
X161600690Y-112550407D01*
X161603473Y-112554125D01*
X161703038Y-112591152D01*
X161716621Y-112594539D01*
X161885673Y-112617094D01*
X161899671Y-112617388D01*
X162069513Y-112601931D01*
X162083238Y-112599114D01*
X162209715Y-112558019D01*
X162220847Y-112550407D01*
X162900690Y-112550407D01*
X162903473Y-112554125D01*
X163003038Y-112591152D01*
X163016621Y-112594539D01*
X163185673Y-112617094D01*
X163199671Y-112617388D01*
X163369513Y-112601931D01*
X163383238Y-112599114D01*
X163509715Y-112558019D01*
X163521356Y-112550059D01*
X163520778Y-112546719D01*
X163519610Y-112545087D01*
X163222812Y-112248289D01*
X163208868Y-112240675D01*
X163207035Y-112240806D01*
X163200420Y-112245057D01*
X162907450Y-112538027D01*
X162900690Y-112550407D01*
X162220847Y-112550407D01*
X162221356Y-112550059D01*
X162220778Y-112546719D01*
X162219610Y-112545087D01*
X161922812Y-112248289D01*
X161908868Y-112240675D01*
X161907035Y-112240806D01*
X161900420Y-112245057D01*
X161607450Y-112538027D01*
X161600690Y-112550407D01*
X147320000Y-112550407D01*
X147320000Y-111785449D01*
X161082561Y-111785449D01*
X161099203Y-111955183D01*
X161102115Y-111968882D01*
X161142207Y-112089406D01*
X161150249Y-112100992D01*
X161153814Y-112100350D01*
X161155102Y-112099421D01*
X161451711Y-111802812D01*
X161459325Y-111788868D01*
X161459194Y-111787035D01*
X161454943Y-111780420D01*
X161161792Y-111487269D01*
X161149412Y-111480509D01*
X161145791Y-111483220D01*
X161107424Y-111588630D01*
X161104131Y-111602245D01*
X161082757Y-111771442D01*
X161082561Y-111785449D01*
X147320000Y-111785449D01*
X147320000Y-111141132D01*
X161710675Y-111141132D01*
X161710806Y-111142965D01*
X161715057Y-111149580D01*
X162547188Y-111981711D01*
X162561132Y-111989325D01*
X162562965Y-111989194D01*
X162569580Y-111984943D01*
X162763391Y-111791132D01*
X163660675Y-111791132D01*
X163660806Y-111792965D01*
X163665057Y-111799580D01*
X163957878Y-112092401D01*
X163970258Y-112099161D01*
X163974074Y-112096304D01*
X164009686Y-112002554D01*
X164013168Y-111988992D01*
X164037334Y-111817048D01*
X164037940Y-111809164D01*
X164038153Y-111793962D01*
X164037766Y-111786062D01*
X164018411Y-111613510D01*
X164015311Y-111599863D01*
X163977437Y-111491105D01*
X163969236Y-111479633D01*
X163965229Y-111480414D01*
X163964612Y-111480865D01*
X163668289Y-111777188D01*
X163660675Y-111791132D01*
X162763391Y-111791132D01*
X163401711Y-111152812D01*
X163409325Y-111138868D01*
X163409194Y-111137035D01*
X163404943Y-111130420D01*
X162853618Y-110579095D01*
X162819592Y-110516783D01*
X162821427Y-110491132D01*
X163660675Y-110491132D01*
X163660806Y-110492965D01*
X163665057Y-110499580D01*
X163957878Y-110792401D01*
X163970258Y-110799161D01*
X163974074Y-110796304D01*
X164009686Y-110702554D01*
X164013168Y-110688992D01*
X164037334Y-110517048D01*
X164037940Y-110509164D01*
X164038153Y-110493962D01*
X164037766Y-110486062D01*
X164018411Y-110313510D01*
X164015311Y-110299863D01*
X163977437Y-110191105D01*
X163969236Y-110179633D01*
X163965229Y-110180414D01*
X163964612Y-110180865D01*
X163668289Y-110477188D01*
X163660675Y-110491132D01*
X162821427Y-110491132D01*
X162824657Y-110445968D01*
X162853618Y-110400905D01*
X163401711Y-109852812D01*
X163409325Y-109838868D01*
X163409194Y-109837035D01*
X163404943Y-109830420D01*
X162765655Y-109191132D01*
X163660675Y-109191132D01*
X163660806Y-109192965D01*
X163665057Y-109199580D01*
X163957878Y-109492401D01*
X163970258Y-109499161D01*
X163974074Y-109496304D01*
X164009686Y-109402554D01*
X164013168Y-109388992D01*
X164036919Y-109220000D01*
X170815000Y-109220000D01*
X182245000Y-109220000D01*
X182245000Y-95885000D01*
X170815000Y-95885000D01*
X170815000Y-109220000D01*
X164036919Y-109220000D01*
X164037334Y-109217048D01*
X164037940Y-109209164D01*
X164038153Y-109193962D01*
X164037766Y-109186062D01*
X164018411Y-109013510D01*
X164015311Y-108999863D01*
X163977437Y-108891105D01*
X163969236Y-108879633D01*
X163965229Y-108880414D01*
X163964612Y-108880865D01*
X163668289Y-109177188D01*
X163660675Y-109191132D01*
X162765655Y-109191132D01*
X162572812Y-108998289D01*
X162558868Y-108990675D01*
X162557035Y-108990806D01*
X162550420Y-108995057D01*
X161718289Y-109827188D01*
X161710675Y-109841132D01*
X161710806Y-109842965D01*
X161715057Y-109849580D01*
X162266382Y-110400905D01*
X162300408Y-110463217D01*
X162295343Y-110534032D01*
X162266382Y-110579095D01*
X161718289Y-111127188D01*
X161710675Y-111141132D01*
X147320000Y-111141132D01*
X147320000Y-110485449D01*
X161082561Y-110485449D01*
X161099203Y-110655183D01*
X161102115Y-110668882D01*
X161142207Y-110789406D01*
X161150249Y-110800992D01*
X161153814Y-110800350D01*
X161155102Y-110799421D01*
X161451711Y-110502812D01*
X161459325Y-110488868D01*
X161459194Y-110487035D01*
X161454943Y-110480420D01*
X161161792Y-110187269D01*
X161149412Y-110180509D01*
X161145791Y-110183220D01*
X161107424Y-110288630D01*
X161104131Y-110302245D01*
X161082757Y-110471442D01*
X161082561Y-110485449D01*
X147320000Y-110485449D01*
X147320000Y-109185449D01*
X161082561Y-109185449D01*
X161099203Y-109355183D01*
X161102115Y-109368882D01*
X161142207Y-109489406D01*
X161150249Y-109500992D01*
X161153814Y-109500350D01*
X161155102Y-109499421D01*
X161451711Y-109202812D01*
X161459325Y-109188868D01*
X161459194Y-109187035D01*
X161454943Y-109180420D01*
X161161792Y-108887269D01*
X161149412Y-108880509D01*
X161145791Y-108883220D01*
X161107424Y-108988630D01*
X161104131Y-109002245D01*
X161082757Y-109171442D01*
X161082561Y-109185449D01*
X147320000Y-109185449D01*
X147320000Y-108430523D01*
X161599338Y-108430523D01*
X161600049Y-108434312D01*
X161600738Y-108435261D01*
X161897188Y-108731711D01*
X161911132Y-108739325D01*
X161912965Y-108739194D01*
X161919580Y-108734943D01*
X162212944Y-108441579D01*
X162218981Y-108430523D01*
X162899338Y-108430523D01*
X162900049Y-108434312D01*
X162900738Y-108435261D01*
X163197188Y-108731711D01*
X163211132Y-108739325D01*
X163212965Y-108739194D01*
X163219580Y-108734943D01*
X163512944Y-108441579D01*
X163519704Y-108429199D01*
X163517119Y-108425745D01*
X163516819Y-108425585D01*
X163405756Y-108386036D01*
X163392131Y-108382840D01*
X163222775Y-108362646D01*
X163208778Y-108362548D01*
X163039160Y-108380376D01*
X163025485Y-108383382D01*
X162910866Y-108422402D01*
X162899338Y-108430523D01*
X162218981Y-108430523D01*
X162219704Y-108429199D01*
X162217119Y-108425745D01*
X162216819Y-108425585D01*
X162105756Y-108386036D01*
X162092131Y-108382840D01*
X161922775Y-108362646D01*
X161908778Y-108362548D01*
X161739160Y-108380376D01*
X161725485Y-108383382D01*
X161610866Y-108422402D01*
X161599338Y-108430523D01*
X147320000Y-108430523D01*
X147320000Y-106680000D01*
X99186000Y-106680000D01*
X99117879Y-106659998D01*
X99071386Y-106606342D01*
X99060000Y-106554000D01*
X99060000Y-104140000D01*
X159106496Y-104140000D01*
X159126458Y-104329928D01*
X159185473Y-104511556D01*
X159280960Y-104676944D01*
X159408747Y-104818866D01*
X159563248Y-104931118D01*
X159569276Y-104933802D01*
X159569278Y-104933803D01*
X159731681Y-105006109D01*
X159737712Y-105008794D01*
X159831113Y-105028647D01*
X159918056Y-105047128D01*
X159918061Y-105047128D01*
X159924513Y-105048500D01*
X160115487Y-105048500D01*
X160121939Y-105047128D01*
X160121944Y-105047128D01*
X160208888Y-105028647D01*
X160302288Y-105008794D01*
X160308319Y-105006109D01*
X160470722Y-104933803D01*
X160470724Y-104933802D01*
X160476752Y-104931118D01*
X160549512Y-104878255D01*
X160609671Y-104834546D01*
X160631253Y-104818866D01*
X160635668Y-104813963D01*
X160640580Y-104809540D01*
X160641705Y-104810789D01*
X160695014Y-104777949D01*
X160728200Y-104773500D01*
X164391800Y-104773500D01*
X164459921Y-104793502D01*
X164479147Y-104809843D01*
X164479420Y-104809540D01*
X164484332Y-104813963D01*
X164488747Y-104818866D01*
X164510329Y-104834546D01*
X164570489Y-104878255D01*
X164643248Y-104931118D01*
X164649276Y-104933802D01*
X164649278Y-104933803D01*
X164811681Y-105006109D01*
X164817712Y-105008794D01*
X164911113Y-105028647D01*
X164998056Y-105047128D01*
X164998061Y-105047128D01*
X165004513Y-105048500D01*
X165195487Y-105048500D01*
X165201939Y-105047128D01*
X165201944Y-105047128D01*
X165288888Y-105028647D01*
X165382288Y-105008794D01*
X165388319Y-105006109D01*
X165550722Y-104933803D01*
X165550724Y-104933802D01*
X165556752Y-104931118D01*
X165711253Y-104818866D01*
X165839040Y-104676944D01*
X165934527Y-104511556D01*
X165993542Y-104329928D01*
X166013504Y-104140000D01*
X165993542Y-103950072D01*
X165934527Y-103768444D01*
X165839040Y-103603056D01*
X165739465Y-103492466D01*
X165715675Y-103466045D01*
X165715674Y-103466044D01*
X165711253Y-103461134D01*
X165556752Y-103348882D01*
X165550724Y-103346198D01*
X165550722Y-103346197D01*
X165388319Y-103273891D01*
X165388318Y-103273891D01*
X165382288Y-103271206D01*
X165288887Y-103251353D01*
X165201944Y-103232872D01*
X165201939Y-103232872D01*
X165195487Y-103231500D01*
X165004513Y-103231500D01*
X164998061Y-103232872D01*
X164998056Y-103232872D01*
X164911113Y-103251353D01*
X164817712Y-103271206D01*
X164811682Y-103273891D01*
X164811681Y-103273891D01*
X164649278Y-103346197D01*
X164649276Y-103346198D01*
X164643248Y-103348882D01*
X164637907Y-103352762D01*
X164637906Y-103352763D01*
X164580096Y-103394765D01*
X164488747Y-103461134D01*
X164484332Y-103466037D01*
X164479420Y-103470460D01*
X164478295Y-103469211D01*
X164424986Y-103502051D01*
X164391800Y-103506500D01*
X160728200Y-103506500D01*
X160660079Y-103486498D01*
X160640853Y-103470157D01*
X160640580Y-103470460D01*
X160635668Y-103466037D01*
X160631253Y-103461134D01*
X160539904Y-103394765D01*
X160482094Y-103352763D01*
X160482093Y-103352762D01*
X160476752Y-103348882D01*
X160470724Y-103346198D01*
X160470722Y-103346197D01*
X160308319Y-103273891D01*
X160308318Y-103273891D01*
X160302288Y-103271206D01*
X160208887Y-103251353D01*
X160121944Y-103232872D01*
X160121939Y-103232872D01*
X160115487Y-103231500D01*
X159924513Y-103231500D01*
X159918061Y-103232872D01*
X159918056Y-103232872D01*
X159831113Y-103251353D01*
X159737712Y-103271206D01*
X159731682Y-103273891D01*
X159731681Y-103273891D01*
X159569278Y-103346197D01*
X159569276Y-103346198D01*
X159563248Y-103348882D01*
X159408747Y-103461134D01*
X159404326Y-103466044D01*
X159404325Y-103466045D01*
X159380536Y-103492466D01*
X159280960Y-103603056D01*
X159185473Y-103768444D01*
X159126458Y-103950072D01*
X159106496Y-104140000D01*
X99060000Y-104140000D01*
X99060000Y-99060000D01*
X83946000Y-99060000D01*
X83877879Y-99039998D01*
X83831386Y-98986342D01*
X83820000Y-98934000D01*
X83820000Y-93262065D01*
X187090662Y-93262065D01*
X187095128Y-93268031D01*
X187232905Y-93340519D01*
X187241454Y-93344236D01*
X187486327Y-93429749D01*
X187495336Y-93432163D01*
X187750166Y-93480544D01*
X187759423Y-93481598D01*
X188018607Y-93491783D01*
X188027921Y-93491457D01*
X188285753Y-93463220D01*
X188294930Y-93461519D01*
X188545758Y-93395481D01*
X188554574Y-93392445D01*
X188792888Y-93290058D01*
X188801156Y-93285754D01*
X188821267Y-93273309D01*
X188830681Y-93262812D01*
X188826794Y-93253901D01*
X187972812Y-92399919D01*
X187958868Y-92392305D01*
X187957035Y-92392436D01*
X187950420Y-92396687D01*
X187097422Y-93249685D01*
X187090662Y-93262065D01*
X83820000Y-93262065D01*
X83820000Y-91637211D01*
X186147775Y-91637211D01*
X186160220Y-91896288D01*
X186161356Y-91905543D01*
X186211961Y-92159945D01*
X186214449Y-92168917D01*
X186302095Y-92413033D01*
X186305895Y-92421568D01*
X186369121Y-92539238D01*
X186379026Y-92549277D01*
X186386258Y-92546635D01*
X187240081Y-91692812D01*
X187246459Y-91681132D01*
X188672305Y-91681132D01*
X188672436Y-91682965D01*
X188676687Y-91689580D01*
X189532275Y-92545168D01*
X189544655Y-92551928D01*
X189552426Y-92546111D01*
X189555279Y-92540855D01*
X189661807Y-92304370D01*
X189664997Y-92295605D01*
X189735402Y-92045972D01*
X189737262Y-92036830D01*
X189770187Y-91778019D01*
X189770668Y-91771733D01*
X189772987Y-91683160D01*
X189772836Y-91676851D01*
X189753501Y-91416663D01*
X189752125Y-91407457D01*
X189694878Y-91154467D01*
X189692154Y-91145556D01*
X189598145Y-90903811D01*
X189594131Y-90895395D01*
X189551325Y-90820502D01*
X189541160Y-90810725D01*
X189533259Y-90813848D01*
X188679919Y-91667188D01*
X188672305Y-91681132D01*
X187246459Y-91681132D01*
X187247695Y-91678868D01*
X187247564Y-91677035D01*
X187243313Y-91670420D01*
X186389543Y-90816650D01*
X186377163Y-90809890D01*
X186369642Y-90815520D01*
X186346971Y-90852882D01*
X186342733Y-90861199D01*
X186242432Y-91100389D01*
X186239471Y-91109239D01*
X186175628Y-91360625D01*
X186174006Y-91369822D01*
X186148020Y-91627885D01*
X186147775Y-91637211D01*
X83820000Y-91637211D01*
X83820000Y-90095829D01*
X187087076Y-90095829D01*
X187088829Y-90101722D01*
X187947188Y-90960081D01*
X187961132Y-90967695D01*
X187962965Y-90967564D01*
X187969580Y-90963313D01*
X188823781Y-90109112D01*
X188830541Y-90096732D01*
X188826487Y-90091316D01*
X188643376Y-90001016D01*
X188634743Y-89997528D01*
X188387703Y-89918450D01*
X188378643Y-89916274D01*
X188122630Y-89874580D01*
X188113343Y-89873768D01*
X187853992Y-89870373D01*
X187844681Y-89870943D01*
X187587682Y-89905919D01*
X187578546Y-89907860D01*
X187329543Y-89980439D01*
X187320800Y-89983707D01*
X187097700Y-90086557D01*
X187087076Y-90095829D01*
X83820000Y-90095829D01*
X83820000Y-79988134D01*
X164958746Y-79988134D01*
X164965501Y-80050316D01*
X165016631Y-80186705D01*
X165103985Y-80303261D01*
X165220541Y-80390615D01*
X165356930Y-80441745D01*
X165419112Y-80448500D01*
X167915380Y-80448500D01*
X167977562Y-80441745D01*
X168113951Y-80390615D01*
X168230507Y-80303261D01*
X168271908Y-80248020D01*
X173371953Y-80248020D01*
X173376419Y-80253986D01*
X173480138Y-80308555D01*
X173488687Y-80312272D01*
X173719528Y-80392885D01*
X173728537Y-80395299D01*
X173968764Y-80440908D01*
X173978021Y-80441962D01*
X174222353Y-80451563D01*
X174231666Y-80451237D01*
X174474724Y-80424618D01*
X174483901Y-80422917D01*
X174720353Y-80360665D01*
X174729172Y-80357628D01*
X174953828Y-80261108D01*
X174956894Y-80259512D01*
X174965279Y-80250163D01*
X174961392Y-80241253D01*
X174762665Y-80042526D01*
X186147050Y-80042526D01*
X186147274Y-80047192D01*
X186147274Y-80047197D01*
X186149179Y-80086851D01*
X186159947Y-80311019D01*
X186212388Y-80574656D01*
X186303220Y-80827646D01*
X186430450Y-81064431D01*
X186433241Y-81068168D01*
X186433245Y-81068175D01*
X186514887Y-81177506D01*
X186591281Y-81279810D01*
X186594590Y-81283090D01*
X186594595Y-81283096D01*
X186778863Y-81465762D01*
X186782180Y-81469050D01*
X186785942Y-81471808D01*
X186785945Y-81471811D01*
X186898299Y-81554192D01*
X186998954Y-81627995D01*
X187003089Y-81630171D01*
X187003093Y-81630173D01*
X187232698Y-81750975D01*
X187236840Y-81753154D01*
X187490613Y-81841775D01*
X187495206Y-81842647D01*
X187750109Y-81891042D01*
X187750112Y-81891042D01*
X187754698Y-81891913D01*
X187882370Y-81896929D01*
X188018625Y-81902283D01*
X188018630Y-81902283D01*
X188023293Y-81902466D01*
X188127607Y-81891042D01*
X188285844Y-81873713D01*
X188285850Y-81873712D01*
X188290497Y-81873203D01*
X188295021Y-81872012D01*
X188545918Y-81805956D01*
X188545920Y-81805955D01*
X188550441Y-81804765D01*
X188554738Y-81802919D01*
X188793120Y-81700502D01*
X188793122Y-81700501D01*
X188797414Y-81698657D01*
X188916071Y-81625230D01*
X189022017Y-81559669D01*
X189022021Y-81559666D01*
X189025990Y-81557210D01*
X189231149Y-81383530D01*
X189408382Y-81181434D01*
X189553797Y-80955361D01*
X189664199Y-80710278D01*
X189701209Y-80579051D01*
X189735893Y-80456072D01*
X189735894Y-80456069D01*
X189737163Y-80451568D01*
X189744917Y-80390615D01*
X189770688Y-80188045D01*
X189770688Y-80188041D01*
X189771086Y-80184915D01*
X189771260Y-80178297D01*
X189773488Y-80093160D01*
X189773571Y-80090000D01*
X189753650Y-79821937D01*
X189694327Y-79559763D01*
X189596902Y-79309238D01*
X189463518Y-79075864D01*
X189297105Y-78864769D01*
X189101317Y-78680591D01*
X188880457Y-78527374D01*
X188876264Y-78525306D01*
X188643564Y-78410551D01*
X188643561Y-78410550D01*
X188639376Y-78408486D01*
X188591745Y-78393239D01*
X188537621Y-78375914D01*
X188383370Y-78326538D01*
X188378763Y-78325788D01*
X188378760Y-78325787D01*
X188122674Y-78284081D01*
X188122675Y-78284081D01*
X188118063Y-78283330D01*
X187987719Y-78281624D01*
X187853961Y-78279873D01*
X187853958Y-78279873D01*
X187849284Y-78279812D01*
X187582937Y-78316060D01*
X187324874Y-78391278D01*
X187080763Y-78503815D01*
X187076854Y-78506378D01*
X186859881Y-78648631D01*
X186859876Y-78648635D01*
X186855968Y-78651197D01*
X186655426Y-78830188D01*
X186483544Y-79036854D01*
X186344096Y-79266656D01*
X186342287Y-79270970D01*
X186342285Y-79270974D01*
X186317502Y-79330076D01*
X186240148Y-79514545D01*
X186173981Y-79775077D01*
X186147050Y-80042526D01*
X174762665Y-80042526D01*
X174180058Y-79459919D01*
X174166114Y-79452305D01*
X174164281Y-79452436D01*
X174157666Y-79456687D01*
X173378713Y-80235640D01*
X173371953Y-80248020D01*
X168271908Y-80248020D01*
X168317861Y-80186705D01*
X168368991Y-80050316D01*
X168375746Y-79988134D01*
X168375746Y-78699835D01*
X172455268Y-78699835D01*
X172467000Y-78944064D01*
X172468137Y-78953324D01*
X172515839Y-79193143D01*
X172518328Y-79202118D01*
X172600954Y-79432250D01*
X172604749Y-79440775D01*
X172650215Y-79525391D01*
X172660119Y-79535429D01*
X172667352Y-79532787D01*
X173447327Y-78752812D01*
X173453705Y-78741132D01*
X174879551Y-78741132D01*
X174879682Y-78742965D01*
X174883933Y-78749580D01*
X175665610Y-79531257D01*
X175677990Y-79538017D01*
X175682755Y-79534450D01*
X175774818Y-79330076D01*
X175778012Y-79321301D01*
X175844381Y-79085973D01*
X175846239Y-79076844D01*
X175877290Y-78832770D01*
X175877771Y-78826483D01*
X175879952Y-78743160D01*
X175879801Y-78736851D01*
X175861567Y-78491486D01*
X175860190Y-78482280D01*
X175806225Y-78243786D01*
X175803501Y-78234875D01*
X175714877Y-78006978D01*
X175710866Y-77998569D01*
X175685275Y-77953795D01*
X175675111Y-77944019D01*
X175667212Y-77947141D01*
X174887165Y-78727188D01*
X174879551Y-78741132D01*
X173453705Y-78741132D01*
X173454941Y-78738868D01*
X173454810Y-78737035D01*
X173450559Y-78730420D01*
X172669590Y-77949451D01*
X172657210Y-77942691D01*
X172649689Y-77948321D01*
X172643568Y-77958409D01*
X172639330Y-77966726D01*
X172544775Y-78192214D01*
X172541818Y-78201052D01*
X172481630Y-78438042D01*
X172480009Y-78447232D01*
X172455513Y-78690510D01*
X172455268Y-78699835D01*
X168375746Y-78699835D01*
X168375746Y-77491866D01*
X168368991Y-77429684D01*
X168317861Y-77293295D01*
X168271326Y-77231203D01*
X173369695Y-77231203D01*
X173371448Y-77237095D01*
X174154434Y-78020081D01*
X174168378Y-78027695D01*
X174170211Y-78027564D01*
X174176826Y-78023313D01*
X174956349Y-77243790D01*
X174963109Y-77231410D01*
X174959055Y-77225994D01*
X174813054Y-77153994D01*
X174804422Y-77150507D01*
X174571534Y-77075958D01*
X174562484Y-77073785D01*
X174321137Y-77034480D01*
X174311848Y-77033668D01*
X174067360Y-77030467D01*
X174058049Y-77031037D01*
X173815768Y-77064010D01*
X173806649Y-77065948D01*
X173571914Y-77134367D01*
X173563161Y-77137639D01*
X173380320Y-77221931D01*
X173369695Y-77231203D01*
X168271326Y-77231203D01*
X168230507Y-77176739D01*
X168113951Y-77089385D01*
X167977562Y-77038255D01*
X167915380Y-77031500D01*
X165419112Y-77031500D01*
X165356930Y-77038255D01*
X165220541Y-77089385D01*
X165103985Y-77176739D01*
X165016631Y-77293295D01*
X164965501Y-77429684D01*
X164958746Y-77491866D01*
X164958746Y-79988134D01*
X83820000Y-79988134D01*
X83820000Y-75042526D01*
X186147050Y-75042526D01*
X186159947Y-75311019D01*
X186212388Y-75574656D01*
X186303220Y-75827646D01*
X186430450Y-76064431D01*
X186433241Y-76068168D01*
X186433245Y-76068175D01*
X186514887Y-76177506D01*
X186591281Y-76279810D01*
X186594590Y-76283090D01*
X186594595Y-76283096D01*
X186778863Y-76465762D01*
X186782180Y-76469050D01*
X186785942Y-76471808D01*
X186785945Y-76471811D01*
X186898299Y-76554192D01*
X186998954Y-76627995D01*
X187003089Y-76630171D01*
X187003093Y-76630173D01*
X187232698Y-76750975D01*
X187236840Y-76753154D01*
X187490613Y-76841775D01*
X187495206Y-76842647D01*
X187750109Y-76891042D01*
X187750112Y-76891042D01*
X187754698Y-76891913D01*
X187882370Y-76896929D01*
X188018625Y-76902283D01*
X188018630Y-76902283D01*
X188023293Y-76902466D01*
X188127607Y-76891042D01*
X188285844Y-76873713D01*
X188285850Y-76873712D01*
X188290497Y-76873203D01*
X188295021Y-76872012D01*
X188545918Y-76805956D01*
X188545920Y-76805955D01*
X188550441Y-76804765D01*
X188554738Y-76802919D01*
X188793120Y-76700502D01*
X188793122Y-76700501D01*
X188797414Y-76698657D01*
X188916071Y-76625230D01*
X189022017Y-76559669D01*
X189022021Y-76559666D01*
X189025990Y-76557210D01*
X189231149Y-76383530D01*
X189408382Y-76181434D01*
X189553797Y-75955361D01*
X189664199Y-75710278D01*
X189701209Y-75579051D01*
X189735893Y-75456072D01*
X189735894Y-75456069D01*
X189737163Y-75451568D01*
X189755043Y-75311019D01*
X189770688Y-75188045D01*
X189770688Y-75188041D01*
X189771086Y-75184915D01*
X189773571Y-75090000D01*
X189753650Y-74821937D01*
X189694327Y-74559763D01*
X189596902Y-74309238D01*
X189463518Y-74075864D01*
X189297105Y-73864769D01*
X189101317Y-73680591D01*
X188880457Y-73527374D01*
X188876264Y-73525306D01*
X188643564Y-73410551D01*
X188643561Y-73410550D01*
X188639376Y-73408486D01*
X188591745Y-73393239D01*
X188537621Y-73375914D01*
X188383370Y-73326538D01*
X188378763Y-73325788D01*
X188378760Y-73325787D01*
X188122674Y-73284081D01*
X188122675Y-73284081D01*
X188118063Y-73283330D01*
X187987719Y-73281624D01*
X187853961Y-73279873D01*
X187853958Y-73279873D01*
X187849284Y-73279812D01*
X187582937Y-73316060D01*
X187324874Y-73391278D01*
X187080763Y-73503815D01*
X187076854Y-73506378D01*
X186859881Y-73648631D01*
X186859876Y-73648635D01*
X186855968Y-73651197D01*
X186655426Y-73830188D01*
X186483544Y-74036854D01*
X186344096Y-74266656D01*
X186240148Y-74514545D01*
X186173981Y-74775077D01*
X186147050Y-75042526D01*
X83820000Y-75042526D01*
X83820000Y-68633291D01*
X87116985Y-68633291D01*
X87126156Y-68756705D01*
X87141544Y-68963767D01*
X87142643Y-68978559D01*
X87207221Y-69318704D01*
X87208285Y-69322129D01*
X87208285Y-69322131D01*
X87225538Y-69377695D01*
X87309890Y-69649351D01*
X87311333Y-69652629D01*
X87311335Y-69652636D01*
X87407178Y-69870456D01*
X87449329Y-69966251D01*
X87623746Y-70265329D01*
X87830899Y-70542739D01*
X87833343Y-70545337D01*
X87833348Y-70545343D01*
X87949511Y-70668828D01*
X88068123Y-70794916D01*
X88101336Y-70823033D01*
X88262274Y-70959277D01*
X88332370Y-71018618D01*
X88620242Y-71210967D01*
X88623424Y-71212606D01*
X88623426Y-71212607D01*
X88924855Y-71367854D01*
X88924860Y-71367856D01*
X88928038Y-71369493D01*
X88931379Y-71370759D01*
X88931384Y-71370761D01*
X89039988Y-71411907D01*
X89251801Y-71492156D01*
X89255260Y-71493034D01*
X89255268Y-71493037D01*
X89583902Y-71576499D01*
X89583910Y-71576501D01*
X89587369Y-71577379D01*
X89755927Y-71600319D01*
X89927434Y-71623660D01*
X89927441Y-71623661D01*
X89930427Y-71624067D01*
X90043253Y-71628500D01*
X90257702Y-71628500D01*
X90396676Y-71620609D01*
X90512096Y-71614055D01*
X90512103Y-71614054D01*
X90515664Y-71613852D01*
X90651634Y-71590488D01*
X90853366Y-71555825D01*
X90853374Y-71555823D01*
X90856884Y-71555220D01*
X90860309Y-71554222D01*
X90860312Y-71554221D01*
X91185832Y-71459340D01*
X91185833Y-71459340D01*
X91189273Y-71458337D01*
X91508558Y-71324450D01*
X91810634Y-71155279D01*
X92091617Y-70953000D01*
X92257519Y-70802305D01*
X92345249Y-70722617D01*
X92345255Y-70722611D01*
X92347896Y-70720212D01*
X92576175Y-70459910D01*
X92773520Y-70175439D01*
X92937393Y-69870456D01*
X92945554Y-69850000D01*
X100656761Y-69850000D01*
X100657031Y-69854119D01*
X100673332Y-70102812D01*
X100675696Y-70138886D01*
X100676500Y-70142926D01*
X100676500Y-70142929D01*
X100684219Y-70181733D01*
X100732175Y-70422828D01*
X100733501Y-70426734D01*
X100733502Y-70426738D01*
X100785160Y-70578917D01*
X100825234Y-70696970D01*
X100827055Y-70700663D01*
X100827056Y-70700665D01*
X100912491Y-70873909D01*
X100953279Y-70956619D01*
X101114119Y-71197335D01*
X101116831Y-71200427D01*
X101116836Y-71200434D01*
X101266211Y-71370761D01*
X101305004Y-71414996D01*
X101308093Y-71417705D01*
X101519565Y-71603163D01*
X101519571Y-71603168D01*
X101522665Y-71605881D01*
X101763380Y-71766721D01*
X101767079Y-71768545D01*
X101767084Y-71768548D01*
X102016606Y-71891598D01*
X102023030Y-71894766D01*
X102026928Y-71896089D01*
X102026930Y-71896090D01*
X102293262Y-71986498D01*
X102293266Y-71986499D01*
X102297172Y-71987825D01*
X102301216Y-71988629D01*
X102301222Y-71988631D01*
X102577071Y-72043500D01*
X102577074Y-72043500D01*
X102581114Y-72044304D01*
X102585225Y-72044573D01*
X102585229Y-72044574D01*
X102865881Y-72062969D01*
X102870000Y-72063239D01*
X102874119Y-72062969D01*
X103154771Y-72044574D01*
X103154775Y-72044573D01*
X103158886Y-72044304D01*
X103162926Y-72043500D01*
X103162929Y-72043500D01*
X103438778Y-71988631D01*
X103438784Y-71988629D01*
X103442828Y-71987825D01*
X103446734Y-71986499D01*
X103446738Y-71986498D01*
X103713070Y-71896090D01*
X103713072Y-71896089D01*
X103716970Y-71894766D01*
X103723394Y-71891598D01*
X103972916Y-71768548D01*
X103972921Y-71768545D01*
X103976620Y-71766721D01*
X104217335Y-71605881D01*
X104220429Y-71603168D01*
X104220435Y-71603163D01*
X104431907Y-71417705D01*
X104434996Y-71414996D01*
X104473789Y-71370761D01*
X104623164Y-71200434D01*
X104623169Y-71200427D01*
X104625881Y-71197335D01*
X104786721Y-70956619D01*
X104827509Y-70873909D01*
X104912944Y-70700665D01*
X104912945Y-70700663D01*
X104914766Y-70696970D01*
X104954840Y-70578917D01*
X105006498Y-70426738D01*
X105006499Y-70426734D01*
X105007825Y-70422828D01*
X105055782Y-70181733D01*
X105063500Y-70142929D01*
X105063500Y-70142926D01*
X105064304Y-70138886D01*
X105066669Y-70102812D01*
X105082969Y-69854119D01*
X105083239Y-69850000D01*
X115896761Y-69850000D01*
X115897031Y-69854119D01*
X115913332Y-70102812D01*
X115915696Y-70138886D01*
X115916500Y-70142926D01*
X115916500Y-70142929D01*
X115924219Y-70181733D01*
X115972175Y-70422828D01*
X115973501Y-70426734D01*
X115973502Y-70426738D01*
X116025160Y-70578917D01*
X116065234Y-70696970D01*
X116067055Y-70700663D01*
X116067056Y-70700665D01*
X116152491Y-70873909D01*
X116193279Y-70956619D01*
X116354119Y-71197335D01*
X116356831Y-71200427D01*
X116356836Y-71200434D01*
X116506211Y-71370761D01*
X116545004Y-71414996D01*
X116548093Y-71417705D01*
X116759565Y-71603163D01*
X116759571Y-71603168D01*
X116762665Y-71605881D01*
X117003380Y-71766721D01*
X117007079Y-71768545D01*
X117007084Y-71768548D01*
X117256606Y-71891598D01*
X117263030Y-71894766D01*
X117266928Y-71896089D01*
X117266930Y-71896090D01*
X117533262Y-71986498D01*
X117533266Y-71986499D01*
X117537172Y-71987825D01*
X117541216Y-71988629D01*
X117541222Y-71988631D01*
X117817071Y-72043500D01*
X117817074Y-72043500D01*
X117821114Y-72044304D01*
X117825225Y-72044573D01*
X117825229Y-72044574D01*
X118105881Y-72062969D01*
X118110000Y-72063239D01*
X118114119Y-72062969D01*
X118394771Y-72044574D01*
X118394775Y-72044573D01*
X118398886Y-72044304D01*
X118402926Y-72043500D01*
X118402929Y-72043500D01*
X118678778Y-71988631D01*
X118678784Y-71988629D01*
X118682828Y-71987825D01*
X118686734Y-71986499D01*
X118686738Y-71986498D01*
X118953070Y-71896090D01*
X118953072Y-71896089D01*
X118956970Y-71894766D01*
X118963394Y-71891598D01*
X119212916Y-71768548D01*
X119212921Y-71768545D01*
X119216620Y-71766721D01*
X119457335Y-71605881D01*
X119460429Y-71603168D01*
X119460435Y-71603163D01*
X119671907Y-71417705D01*
X119674996Y-71414996D01*
X119713789Y-71370761D01*
X119863164Y-71200434D01*
X119863169Y-71200427D01*
X119865881Y-71197335D01*
X120026721Y-70956619D01*
X120067509Y-70873909D01*
X120152944Y-70700665D01*
X120152945Y-70700663D01*
X120154766Y-70696970D01*
X120194840Y-70578917D01*
X120246498Y-70426738D01*
X120246499Y-70426734D01*
X120247825Y-70422828D01*
X120295782Y-70181733D01*
X120303500Y-70142929D01*
X120303500Y-70142926D01*
X120304304Y-70138886D01*
X120306669Y-70102812D01*
X120322969Y-69854119D01*
X120323239Y-69850000D01*
X123516761Y-69850000D01*
X123517031Y-69854119D01*
X123533332Y-70102812D01*
X123535696Y-70138886D01*
X123536500Y-70142926D01*
X123536500Y-70142929D01*
X123544219Y-70181733D01*
X123592175Y-70422828D01*
X123593501Y-70426734D01*
X123593502Y-70426738D01*
X123645160Y-70578917D01*
X123685234Y-70696970D01*
X123687055Y-70700663D01*
X123687056Y-70700665D01*
X123772491Y-70873909D01*
X123813279Y-70956619D01*
X123974119Y-71197335D01*
X123976831Y-71200427D01*
X123976836Y-71200434D01*
X124126211Y-71370761D01*
X124165004Y-71414996D01*
X124168093Y-71417705D01*
X124379565Y-71603163D01*
X124379571Y-71603168D01*
X124382665Y-71605881D01*
X124623380Y-71766721D01*
X124627079Y-71768545D01*
X124627084Y-71768548D01*
X124876606Y-71891598D01*
X124883030Y-71894766D01*
X124886928Y-71896089D01*
X124886930Y-71896090D01*
X125153262Y-71986498D01*
X125153266Y-71986499D01*
X125157172Y-71987825D01*
X125161216Y-71988629D01*
X125161222Y-71988631D01*
X125437071Y-72043500D01*
X125437074Y-72043500D01*
X125441114Y-72044304D01*
X125445225Y-72044573D01*
X125445229Y-72044574D01*
X125725881Y-72062969D01*
X125730000Y-72063239D01*
X125734119Y-72062969D01*
X126014771Y-72044574D01*
X126014775Y-72044573D01*
X126018886Y-72044304D01*
X126022926Y-72043500D01*
X126022929Y-72043500D01*
X126298778Y-71988631D01*
X126298784Y-71988629D01*
X126302828Y-71987825D01*
X126306734Y-71986499D01*
X126306738Y-71986498D01*
X126573070Y-71896090D01*
X126573072Y-71896089D01*
X126576970Y-71894766D01*
X126583394Y-71891598D01*
X126832916Y-71768548D01*
X126832921Y-71768545D01*
X126836620Y-71766721D01*
X127077335Y-71605881D01*
X127080429Y-71603168D01*
X127080435Y-71603163D01*
X127291907Y-71417705D01*
X127294996Y-71414996D01*
X127333789Y-71370761D01*
X127483164Y-71200434D01*
X127483169Y-71200427D01*
X127485881Y-71197335D01*
X127646721Y-70956619D01*
X127687509Y-70873909D01*
X127772944Y-70700665D01*
X127772945Y-70700663D01*
X127774766Y-70696970D01*
X127814840Y-70578917D01*
X127866498Y-70426738D01*
X127866499Y-70426734D01*
X127867825Y-70422828D01*
X127915782Y-70181733D01*
X127923500Y-70142929D01*
X127923500Y-70142926D01*
X127924304Y-70138886D01*
X127926669Y-70102812D01*
X127942969Y-69854119D01*
X127943239Y-69850000D01*
X138756761Y-69850000D01*
X138757031Y-69854119D01*
X138773332Y-70102812D01*
X138775696Y-70138886D01*
X138776500Y-70142926D01*
X138776500Y-70142929D01*
X138784219Y-70181733D01*
X138832175Y-70422828D01*
X138833501Y-70426734D01*
X138833502Y-70426738D01*
X138885160Y-70578917D01*
X138925234Y-70696970D01*
X138927055Y-70700663D01*
X138927056Y-70700665D01*
X139012491Y-70873909D01*
X139053279Y-70956619D01*
X139214119Y-71197335D01*
X139216831Y-71200427D01*
X139216836Y-71200434D01*
X139366211Y-71370761D01*
X139405004Y-71414996D01*
X139408093Y-71417705D01*
X139619565Y-71603163D01*
X139619571Y-71603168D01*
X139622665Y-71605881D01*
X139863380Y-71766721D01*
X139867079Y-71768545D01*
X139867084Y-71768548D01*
X140116606Y-71891598D01*
X140123030Y-71894766D01*
X140126928Y-71896089D01*
X140126930Y-71896090D01*
X140393262Y-71986498D01*
X140393266Y-71986499D01*
X140397172Y-71987825D01*
X140401216Y-71988629D01*
X140401222Y-71988631D01*
X140677071Y-72043500D01*
X140677074Y-72043500D01*
X140681114Y-72044304D01*
X140685225Y-72044573D01*
X140685229Y-72044574D01*
X140965881Y-72062969D01*
X140970000Y-72063239D01*
X140974119Y-72062969D01*
X141254771Y-72044574D01*
X141254775Y-72044573D01*
X141258886Y-72044304D01*
X141262926Y-72043500D01*
X141262929Y-72043500D01*
X141538778Y-71988631D01*
X141538784Y-71988629D01*
X141542828Y-71987825D01*
X141546734Y-71986499D01*
X141546738Y-71986498D01*
X141813070Y-71896090D01*
X141813072Y-71896089D01*
X141816970Y-71894766D01*
X141823394Y-71891598D01*
X142072916Y-71768548D01*
X142072921Y-71768545D01*
X142076620Y-71766721D01*
X142218283Y-71672065D01*
X187090662Y-71672065D01*
X187095128Y-71678031D01*
X187232905Y-71750519D01*
X187241454Y-71754236D01*
X187486327Y-71839749D01*
X187495336Y-71842163D01*
X187750166Y-71890544D01*
X187759423Y-71891598D01*
X188018607Y-71901783D01*
X188027921Y-71901457D01*
X188285753Y-71873220D01*
X188294930Y-71871519D01*
X188545758Y-71805481D01*
X188554574Y-71802445D01*
X188792888Y-71700058D01*
X188801156Y-71695754D01*
X188821267Y-71683309D01*
X188830681Y-71672812D01*
X188826794Y-71663901D01*
X187972812Y-70809919D01*
X187958868Y-70802305D01*
X187957035Y-70802436D01*
X187950420Y-70806687D01*
X187097422Y-71659685D01*
X187090662Y-71672065D01*
X142218283Y-71672065D01*
X142317335Y-71605881D01*
X142320429Y-71603168D01*
X142320435Y-71603163D01*
X142531907Y-71417705D01*
X142534996Y-71414996D01*
X142573789Y-71370761D01*
X142723164Y-71200434D01*
X142723169Y-71200427D01*
X142725881Y-71197335D01*
X142886721Y-70956619D01*
X142927509Y-70873909D01*
X143012944Y-70700665D01*
X143012945Y-70700663D01*
X143014766Y-70696970D01*
X143054840Y-70578917D01*
X143106498Y-70426738D01*
X143106499Y-70426734D01*
X143107825Y-70422828D01*
X143155782Y-70181733D01*
X143163500Y-70142929D01*
X143163500Y-70142926D01*
X143164304Y-70138886D01*
X143166669Y-70102812D01*
X143182969Y-69854119D01*
X143183239Y-69850000D01*
X143170303Y-69652636D01*
X143164574Y-69565229D01*
X143164573Y-69565225D01*
X143164304Y-69561114D01*
X143163500Y-69557071D01*
X143108631Y-69281222D01*
X143108629Y-69281216D01*
X143107825Y-69277172D01*
X143105798Y-69271199D01*
X143016090Y-69006930D01*
X143016089Y-69006928D01*
X143014766Y-69003030D01*
X142969583Y-68911407D01*
X142888550Y-68747090D01*
X142886721Y-68743381D01*
X142813162Y-68633291D01*
X150616985Y-68633291D01*
X150626156Y-68756705D01*
X150641544Y-68963767D01*
X150642643Y-68978559D01*
X150707221Y-69318704D01*
X150708285Y-69322129D01*
X150708285Y-69322131D01*
X150725538Y-69377695D01*
X150809890Y-69649351D01*
X150811333Y-69652629D01*
X150811335Y-69652636D01*
X150907178Y-69870456D01*
X150949329Y-69966251D01*
X151123746Y-70265329D01*
X151330899Y-70542739D01*
X151333343Y-70545337D01*
X151333348Y-70545343D01*
X151449511Y-70668828D01*
X151568123Y-70794916D01*
X151601336Y-70823033D01*
X151762274Y-70959277D01*
X151832370Y-71018618D01*
X152120242Y-71210967D01*
X152123424Y-71212606D01*
X152123426Y-71212607D01*
X152424855Y-71367854D01*
X152424860Y-71367856D01*
X152428038Y-71369493D01*
X152431379Y-71370759D01*
X152431384Y-71370761D01*
X152539988Y-71411907D01*
X152751801Y-71492156D01*
X152755260Y-71493034D01*
X152755268Y-71493037D01*
X153083902Y-71576499D01*
X153083910Y-71576501D01*
X153087369Y-71577379D01*
X153255927Y-71600319D01*
X153427434Y-71623660D01*
X153427441Y-71623661D01*
X153430427Y-71624067D01*
X153543253Y-71628500D01*
X153757702Y-71628500D01*
X153896676Y-71620609D01*
X154012096Y-71614055D01*
X154012103Y-71614054D01*
X154015664Y-71613852D01*
X154151634Y-71590488D01*
X154353366Y-71555825D01*
X154353374Y-71555823D01*
X154356884Y-71555220D01*
X154360309Y-71554222D01*
X154360312Y-71554221D01*
X154685832Y-71459340D01*
X154685833Y-71459340D01*
X154689273Y-71458337D01*
X155008558Y-71324450D01*
X155310634Y-71155279D01*
X155591617Y-70953000D01*
X155757519Y-70802305D01*
X155845249Y-70722617D01*
X155845255Y-70722611D01*
X155847896Y-70720212D01*
X156076175Y-70459910D01*
X156273520Y-70175439D01*
X156342419Y-70047211D01*
X186147775Y-70047211D01*
X186160220Y-70306288D01*
X186161356Y-70315543D01*
X186211961Y-70569945D01*
X186214449Y-70578917D01*
X186302095Y-70823033D01*
X186305895Y-70831568D01*
X186369121Y-70949238D01*
X186379026Y-70959277D01*
X186386258Y-70956635D01*
X187240081Y-70102812D01*
X187246459Y-70091132D01*
X188672305Y-70091132D01*
X188672436Y-70092965D01*
X188676687Y-70099580D01*
X189532275Y-70955168D01*
X189544655Y-70961928D01*
X189552426Y-70956111D01*
X189555279Y-70950855D01*
X189661807Y-70714370D01*
X189664997Y-70705605D01*
X189735402Y-70455972D01*
X189737262Y-70446830D01*
X189770187Y-70188019D01*
X189770668Y-70181733D01*
X189772987Y-70093160D01*
X189772836Y-70086851D01*
X189753501Y-69826663D01*
X189752125Y-69817457D01*
X189694878Y-69564467D01*
X189692154Y-69555556D01*
X189598145Y-69313811D01*
X189594131Y-69305395D01*
X189551325Y-69230502D01*
X189541160Y-69220725D01*
X189533259Y-69223848D01*
X188679919Y-70077188D01*
X188672305Y-70091132D01*
X187246459Y-70091132D01*
X187247695Y-70088868D01*
X187247564Y-70087035D01*
X187243313Y-70080420D01*
X186389543Y-69226650D01*
X186377163Y-69219890D01*
X186369642Y-69225520D01*
X186346971Y-69262882D01*
X186342733Y-69271199D01*
X186242432Y-69510389D01*
X186239471Y-69519239D01*
X186175628Y-69770625D01*
X186174006Y-69779822D01*
X186148020Y-70037885D01*
X186147775Y-70047211D01*
X156342419Y-70047211D01*
X156437393Y-69870456D01*
X156565687Y-69548883D01*
X156656754Y-69214854D01*
X156709422Y-68872663D01*
X156717662Y-68662953D01*
X156721781Y-68558134D01*
X162996500Y-68558134D01*
X163003255Y-68620316D01*
X163054385Y-68756705D01*
X163141739Y-68873261D01*
X163258295Y-68960615D01*
X163394684Y-69011745D01*
X163456866Y-69018500D01*
X165953134Y-69018500D01*
X166015316Y-69011745D01*
X166151705Y-68960615D01*
X166268261Y-68873261D01*
X166355615Y-68756705D01*
X166406745Y-68620316D01*
X166413500Y-68558134D01*
X166413500Y-67165151D01*
X173892296Y-67165151D01*
X173892520Y-67169817D01*
X173892520Y-67169822D01*
X173893827Y-67197030D01*
X173904480Y-67418798D01*
X173905393Y-67423386D01*
X173947836Y-67636761D01*
X173954021Y-67667857D01*
X173955600Y-67672255D01*
X173955602Y-67672262D01*
X174000022Y-67795980D01*
X174039831Y-67906858D01*
X174160025Y-68130551D01*
X174162820Y-68134294D01*
X174162822Y-68134297D01*
X174309171Y-68330282D01*
X174309176Y-68330288D01*
X174311963Y-68334020D01*
X174315272Y-68337300D01*
X174315277Y-68337306D01*
X174478960Y-68499566D01*
X174492307Y-68512797D01*
X174496069Y-68515555D01*
X174496072Y-68515558D01*
X174601764Y-68593054D01*
X174697094Y-68662953D01*
X174701229Y-68665129D01*
X174701233Y-68665131D01*
X174819289Y-68727243D01*
X174921827Y-68781191D01*
X175161568Y-68864912D01*
X175411050Y-68912278D01*
X175531532Y-68917011D01*
X175660125Y-68922064D01*
X175660130Y-68922064D01*
X175664793Y-68922247D01*
X175763774Y-68911407D01*
X175912569Y-68895112D01*
X175912575Y-68895111D01*
X175917222Y-68894602D01*
X176000552Y-68872663D01*
X176158273Y-68831138D01*
X176162793Y-68829948D01*
X176316546Y-68763891D01*
X176391807Y-68731557D01*
X176391810Y-68731555D01*
X176396110Y-68729708D01*
X176400090Y-68727245D01*
X176400094Y-68727243D01*
X176608064Y-68598547D01*
X176608066Y-68598545D01*
X176612047Y-68596082D01*
X176615624Y-68593054D01*
X176718659Y-68505829D01*
X187087076Y-68505829D01*
X187088829Y-68511722D01*
X187947188Y-69370081D01*
X187961132Y-69377695D01*
X187962965Y-69377564D01*
X187969580Y-69373313D01*
X188823781Y-68519112D01*
X188830541Y-68506732D01*
X188826487Y-68501316D01*
X188643376Y-68411016D01*
X188634743Y-68407528D01*
X188387703Y-68328450D01*
X188378643Y-68326274D01*
X188122630Y-68284580D01*
X188113343Y-68283768D01*
X187853992Y-68280373D01*
X187844681Y-68280943D01*
X187587682Y-68315919D01*
X187578546Y-68317860D01*
X187329543Y-68390439D01*
X187320800Y-68393707D01*
X187097700Y-68496557D01*
X187087076Y-68505829D01*
X176718659Y-68505829D01*
X176802289Y-68435031D01*
X176802291Y-68435029D01*
X176805862Y-68432006D01*
X176973295Y-68241084D01*
X177009368Y-68185003D01*
X177108141Y-68031442D01*
X177110669Y-68027512D01*
X177214967Y-67795980D01*
X177283896Y-67551575D01*
X177315943Y-67299667D01*
X177318291Y-67210000D01*
X177299472Y-66956759D01*
X177284776Y-66891810D01*
X177244459Y-66713639D01*
X177243428Y-66709082D01*
X177206708Y-66614657D01*
X177153084Y-66476762D01*
X177153083Y-66476760D01*
X177151391Y-66472409D01*
X177130866Y-66436498D01*
X177027702Y-66255997D01*
X177027700Y-66255995D01*
X177025383Y-66251940D01*
X176868171Y-66052517D01*
X176756420Y-65947393D01*
X176686610Y-65881722D01*
X176686608Y-65881720D01*
X176683209Y-65878523D01*
X176558697Y-65792146D01*
X176478393Y-65736437D01*
X176478390Y-65736435D01*
X176474561Y-65733779D01*
X176470384Y-65731719D01*
X176470377Y-65731715D01*
X176250996Y-65623528D01*
X176250992Y-65623527D01*
X176246810Y-65621464D01*
X176004960Y-65544047D01*
X176000355Y-65543297D01*
X175758935Y-65503980D01*
X175758934Y-65503980D01*
X175754323Y-65503229D01*
X175627364Y-65501567D01*
X175505083Y-65499966D01*
X175505080Y-65499966D01*
X175500406Y-65499905D01*
X175248787Y-65534149D01*
X175004993Y-65605208D01*
X175000740Y-65607168D01*
X175000739Y-65607169D01*
X174992366Y-65611029D01*
X174774380Y-65711522D01*
X174770471Y-65714085D01*
X174565928Y-65848189D01*
X174565923Y-65848193D01*
X174562015Y-65850755D01*
X174502115Y-65904218D01*
X174405843Y-65990144D01*
X174372562Y-66019848D01*
X174210183Y-66215087D01*
X174078447Y-66432182D01*
X174076638Y-66436496D01*
X174076637Y-66436498D01*
X173999636Y-66620126D01*
X173980246Y-66666365D01*
X173979095Y-66670897D01*
X173979094Y-66670900D01*
X173971681Y-66700090D01*
X173917738Y-66912490D01*
X173892296Y-67165151D01*
X166413500Y-67165151D01*
X166413500Y-66061866D01*
X166406745Y-65999684D01*
X166355615Y-65863295D01*
X166268261Y-65746739D01*
X166151705Y-65659385D01*
X166015316Y-65608255D01*
X165953134Y-65601500D01*
X163456866Y-65601500D01*
X163394684Y-65608255D01*
X163258295Y-65659385D01*
X163141739Y-65746739D01*
X163054385Y-65863295D01*
X163003255Y-65999684D01*
X162996500Y-66061866D01*
X162996500Y-68558134D01*
X156721781Y-68558134D01*
X156722875Y-68530279D01*
X156722875Y-68530274D01*
X156723015Y-68526709D01*
X156705283Y-68288093D01*
X156697622Y-68185003D01*
X156697621Y-68184998D01*
X156697357Y-68181441D01*
X156632779Y-67841296D01*
X156621582Y-67805234D01*
X156531175Y-67514079D01*
X156530110Y-67510649D01*
X156491714Y-67423386D01*
X156392115Y-67197030D01*
X156392113Y-67197025D01*
X156390671Y-67193749D01*
X156216254Y-66894671D01*
X156009101Y-66617261D01*
X156006657Y-66614663D01*
X156006652Y-66614657D01*
X155872838Y-66472409D01*
X155771877Y-66365084D01*
X155582670Y-66204908D01*
X155510352Y-66143686D01*
X155510348Y-66143683D01*
X155507630Y-66141382D01*
X155219758Y-65949033D01*
X155155774Y-65916079D01*
X154915145Y-65792146D01*
X154915140Y-65792144D01*
X154911962Y-65790507D01*
X154908621Y-65789241D01*
X154908616Y-65789239D01*
X154756783Y-65731715D01*
X154588199Y-65667844D01*
X154584740Y-65666966D01*
X154584732Y-65666963D01*
X154256098Y-65583501D01*
X154256090Y-65583499D01*
X154252631Y-65582621D01*
X154084073Y-65559681D01*
X153912566Y-65536340D01*
X153912559Y-65536339D01*
X153909573Y-65535933D01*
X153796747Y-65531500D01*
X153582298Y-65531500D01*
X153443324Y-65539391D01*
X153327904Y-65545945D01*
X153327897Y-65545946D01*
X153324336Y-65546148D01*
X153218505Y-65564333D01*
X152986634Y-65604175D01*
X152986626Y-65604177D01*
X152983116Y-65604780D01*
X152979691Y-65605778D01*
X152979688Y-65605779D01*
X152766754Y-65667844D01*
X152650727Y-65701663D01*
X152331442Y-65835550D01*
X152248996Y-65881722D01*
X152082121Y-65975177D01*
X152029366Y-66004721D01*
X151748383Y-66207000D01*
X151745729Y-66209411D01*
X151494751Y-66437383D01*
X151494745Y-66437389D01*
X151492104Y-66439788D01*
X151263825Y-66700090D01*
X151066480Y-66984561D01*
X150902607Y-67289544D01*
X150774313Y-67611117D01*
X150683246Y-67945146D01*
X150630578Y-68287337D01*
X150630438Y-68290904D01*
X150619805Y-68561531D01*
X150616985Y-68633291D01*
X142813162Y-68633291D01*
X142725881Y-68502665D01*
X142723169Y-68499573D01*
X142723164Y-68499566D01*
X142537705Y-68288093D01*
X142534996Y-68285004D01*
X142416906Y-68181441D01*
X142320435Y-68096837D01*
X142320429Y-68096832D01*
X142317335Y-68094119D01*
X142076620Y-67933279D01*
X142072921Y-67931455D01*
X142072916Y-67931452D01*
X141820665Y-67807056D01*
X141820663Y-67807055D01*
X141816970Y-67805234D01*
X141776423Y-67791470D01*
X141546738Y-67713502D01*
X141546734Y-67713501D01*
X141542828Y-67712175D01*
X141538784Y-67711371D01*
X141538778Y-67711369D01*
X141262929Y-67656500D01*
X141262926Y-67656500D01*
X141258886Y-67655696D01*
X141254775Y-67655427D01*
X141254771Y-67655426D01*
X140974119Y-67637031D01*
X140970000Y-67636761D01*
X140965881Y-67637031D01*
X140685229Y-67655426D01*
X140685225Y-67655427D01*
X140681114Y-67655696D01*
X140677074Y-67656500D01*
X140677071Y-67656500D01*
X140401222Y-67711369D01*
X140401216Y-67711371D01*
X140397172Y-67712175D01*
X140393266Y-67713501D01*
X140393262Y-67713502D01*
X140163577Y-67791470D01*
X140123030Y-67805234D01*
X140119337Y-67807055D01*
X140119335Y-67807056D01*
X140042768Y-67844815D01*
X139863381Y-67933279D01*
X139622665Y-68094119D01*
X139619573Y-68096831D01*
X139619566Y-68096836D01*
X139523094Y-68181441D01*
X139405004Y-68285004D01*
X139402295Y-68288093D01*
X139216836Y-68499566D01*
X139216831Y-68499573D01*
X139214119Y-68502665D01*
X139053279Y-68743381D01*
X139051450Y-68747090D01*
X138970418Y-68911407D01*
X138925234Y-69003030D01*
X138923911Y-69006928D01*
X138923910Y-69006930D01*
X138834203Y-69271199D01*
X138832175Y-69277172D01*
X138831371Y-69281216D01*
X138831369Y-69281222D01*
X138776500Y-69557071D01*
X138775696Y-69561114D01*
X138775427Y-69565225D01*
X138775426Y-69565229D01*
X138769697Y-69652636D01*
X138756761Y-69850000D01*
X127943239Y-69850000D01*
X127930303Y-69652636D01*
X127924574Y-69565229D01*
X127924573Y-69565225D01*
X127924304Y-69561114D01*
X127923500Y-69557071D01*
X127868631Y-69281222D01*
X127868629Y-69281216D01*
X127867825Y-69277172D01*
X127865798Y-69271199D01*
X127776090Y-69006930D01*
X127776089Y-69006928D01*
X127774766Y-69003030D01*
X127729583Y-68911407D01*
X127648550Y-68747090D01*
X127646721Y-68743381D01*
X127485881Y-68502665D01*
X127483169Y-68499573D01*
X127483164Y-68499566D01*
X127297705Y-68288093D01*
X127294996Y-68285004D01*
X127176906Y-68181441D01*
X127080435Y-68096837D01*
X127080429Y-68096832D01*
X127077335Y-68094119D01*
X126836620Y-67933279D01*
X126832921Y-67931455D01*
X126832916Y-67931452D01*
X126580665Y-67807056D01*
X126580663Y-67807055D01*
X126576970Y-67805234D01*
X126536423Y-67791470D01*
X126306738Y-67713502D01*
X126306734Y-67713501D01*
X126302828Y-67712175D01*
X126298784Y-67711371D01*
X126298778Y-67711369D01*
X126022929Y-67656500D01*
X126022926Y-67656500D01*
X126018886Y-67655696D01*
X126014775Y-67655427D01*
X126014771Y-67655426D01*
X125734119Y-67637031D01*
X125730000Y-67636761D01*
X125725881Y-67637031D01*
X125445229Y-67655426D01*
X125445225Y-67655427D01*
X125441114Y-67655696D01*
X125437074Y-67656500D01*
X125437071Y-67656500D01*
X125161222Y-67711369D01*
X125161216Y-67711371D01*
X125157172Y-67712175D01*
X125153266Y-67713501D01*
X125153262Y-67713502D01*
X124923577Y-67791470D01*
X124883030Y-67805234D01*
X124879337Y-67807055D01*
X124879335Y-67807056D01*
X124802768Y-67844815D01*
X124623381Y-67933279D01*
X124382665Y-68094119D01*
X124379573Y-68096831D01*
X124379566Y-68096836D01*
X124283094Y-68181441D01*
X124165004Y-68285004D01*
X124162295Y-68288093D01*
X123976836Y-68499566D01*
X123976831Y-68499573D01*
X123974119Y-68502665D01*
X123813279Y-68743381D01*
X123811450Y-68747090D01*
X123730418Y-68911407D01*
X123685234Y-69003030D01*
X123683911Y-69006928D01*
X123683910Y-69006930D01*
X123594203Y-69271199D01*
X123592175Y-69277172D01*
X123591371Y-69281216D01*
X123591369Y-69281222D01*
X123536500Y-69557071D01*
X123535696Y-69561114D01*
X123535427Y-69565225D01*
X123535426Y-69565229D01*
X123529697Y-69652636D01*
X123516761Y-69850000D01*
X120323239Y-69850000D01*
X120310303Y-69652636D01*
X120304574Y-69565229D01*
X120304573Y-69565225D01*
X120304304Y-69561114D01*
X120303500Y-69557071D01*
X120248631Y-69281222D01*
X120248629Y-69281216D01*
X120247825Y-69277172D01*
X120245798Y-69271199D01*
X120156090Y-69006930D01*
X120156089Y-69006928D01*
X120154766Y-69003030D01*
X120109583Y-68911407D01*
X120028550Y-68747090D01*
X120026721Y-68743381D01*
X119865881Y-68502665D01*
X119863169Y-68499573D01*
X119863164Y-68499566D01*
X119677705Y-68288093D01*
X119674996Y-68285004D01*
X119556906Y-68181441D01*
X119460435Y-68096837D01*
X119460429Y-68096832D01*
X119457335Y-68094119D01*
X119216620Y-67933279D01*
X119212921Y-67931455D01*
X119212916Y-67931452D01*
X118960665Y-67807056D01*
X118960663Y-67807055D01*
X118956970Y-67805234D01*
X118916423Y-67791470D01*
X118686738Y-67713502D01*
X118686734Y-67713501D01*
X118682828Y-67712175D01*
X118678784Y-67711371D01*
X118678778Y-67711369D01*
X118402929Y-67656500D01*
X118402926Y-67656500D01*
X118398886Y-67655696D01*
X118394775Y-67655427D01*
X118394771Y-67655426D01*
X118114119Y-67637031D01*
X118110000Y-67636761D01*
X118105881Y-67637031D01*
X117825229Y-67655426D01*
X117825225Y-67655427D01*
X117821114Y-67655696D01*
X117817074Y-67656500D01*
X117817071Y-67656500D01*
X117541222Y-67711369D01*
X117541216Y-67711371D01*
X117537172Y-67712175D01*
X117533266Y-67713501D01*
X117533262Y-67713502D01*
X117303577Y-67791470D01*
X117263030Y-67805234D01*
X117259337Y-67807055D01*
X117259335Y-67807056D01*
X117182768Y-67844815D01*
X117003381Y-67933279D01*
X116762665Y-68094119D01*
X116759573Y-68096831D01*
X116759566Y-68096836D01*
X116663094Y-68181441D01*
X116545004Y-68285004D01*
X116542295Y-68288093D01*
X116356836Y-68499566D01*
X116356831Y-68499573D01*
X116354119Y-68502665D01*
X116193279Y-68743381D01*
X116191450Y-68747090D01*
X116110418Y-68911407D01*
X116065234Y-69003030D01*
X116063911Y-69006928D01*
X116063910Y-69006930D01*
X115974203Y-69271199D01*
X115972175Y-69277172D01*
X115971371Y-69281216D01*
X115971369Y-69281222D01*
X115916500Y-69557071D01*
X115915696Y-69561114D01*
X115915427Y-69565225D01*
X115915426Y-69565229D01*
X115909697Y-69652636D01*
X115896761Y-69850000D01*
X105083239Y-69850000D01*
X105070303Y-69652636D01*
X105064574Y-69565229D01*
X105064573Y-69565225D01*
X105064304Y-69561114D01*
X105063500Y-69557071D01*
X105008631Y-69281222D01*
X105008629Y-69281216D01*
X105007825Y-69277172D01*
X105005798Y-69271199D01*
X104916090Y-69006930D01*
X104916089Y-69006928D01*
X104914766Y-69003030D01*
X104869583Y-68911407D01*
X104788550Y-68747090D01*
X104786721Y-68743381D01*
X104625881Y-68502665D01*
X104623169Y-68499573D01*
X104623164Y-68499566D01*
X104437705Y-68288093D01*
X104434996Y-68285004D01*
X104316906Y-68181441D01*
X104220435Y-68096837D01*
X104220429Y-68096832D01*
X104217335Y-68094119D01*
X103976620Y-67933279D01*
X103972921Y-67931455D01*
X103972916Y-67931452D01*
X103720665Y-67807056D01*
X103720663Y-67807055D01*
X103716970Y-67805234D01*
X103676423Y-67791470D01*
X103446738Y-67713502D01*
X103446734Y-67713501D01*
X103442828Y-67712175D01*
X103438784Y-67711371D01*
X103438778Y-67711369D01*
X103162929Y-67656500D01*
X103162926Y-67656500D01*
X103158886Y-67655696D01*
X103154775Y-67655427D01*
X103154771Y-67655426D01*
X102874119Y-67637031D01*
X102870000Y-67636761D01*
X102865881Y-67637031D01*
X102585229Y-67655426D01*
X102585225Y-67655427D01*
X102581114Y-67655696D01*
X102577074Y-67656500D01*
X102577071Y-67656500D01*
X102301222Y-67711369D01*
X102301216Y-67711371D01*
X102297172Y-67712175D01*
X102293266Y-67713501D01*
X102293262Y-67713502D01*
X102063577Y-67791470D01*
X102023030Y-67805234D01*
X102019337Y-67807055D01*
X102019335Y-67807056D01*
X101942768Y-67844815D01*
X101763381Y-67933279D01*
X101522665Y-68094119D01*
X101519573Y-68096831D01*
X101519566Y-68096836D01*
X101423094Y-68181441D01*
X101305004Y-68285004D01*
X101302295Y-68288093D01*
X101116836Y-68499566D01*
X101116831Y-68499573D01*
X101114119Y-68502665D01*
X100953279Y-68743381D01*
X100951450Y-68747090D01*
X100870418Y-68911407D01*
X100825234Y-69003030D01*
X100823911Y-69006928D01*
X100823910Y-69006930D01*
X100734203Y-69271199D01*
X100732175Y-69277172D01*
X100731371Y-69281216D01*
X100731369Y-69281222D01*
X100676500Y-69557071D01*
X100675696Y-69561114D01*
X100675427Y-69565225D01*
X100675426Y-69565229D01*
X100669697Y-69652636D01*
X100656761Y-69850000D01*
X92945554Y-69850000D01*
X93065687Y-69548883D01*
X93156754Y-69214854D01*
X93209422Y-68872663D01*
X93217662Y-68662953D01*
X93222875Y-68530279D01*
X93222875Y-68530274D01*
X93223015Y-68526709D01*
X93205283Y-68288093D01*
X93197622Y-68185003D01*
X93197621Y-68184998D01*
X93197357Y-68181441D01*
X93132779Y-67841296D01*
X93121582Y-67805234D01*
X93031175Y-67514079D01*
X93030110Y-67510649D01*
X92991714Y-67423386D01*
X92892115Y-67197030D01*
X92892113Y-67197025D01*
X92890671Y-67193749D01*
X92716254Y-66894671D01*
X92509101Y-66617261D01*
X92506657Y-66614663D01*
X92506652Y-66614657D01*
X92372838Y-66472409D01*
X92271877Y-66365084D01*
X92082670Y-66204908D01*
X92010352Y-66143686D01*
X92010348Y-66143683D01*
X92007630Y-66141382D01*
X91719758Y-65949033D01*
X91655774Y-65916079D01*
X91415145Y-65792146D01*
X91415140Y-65792144D01*
X91411962Y-65790507D01*
X91408621Y-65789241D01*
X91408616Y-65789239D01*
X91256783Y-65731715D01*
X91088199Y-65667844D01*
X91084740Y-65666966D01*
X91084732Y-65666963D01*
X90756098Y-65583501D01*
X90756090Y-65583499D01*
X90752631Y-65582621D01*
X90584073Y-65559681D01*
X90412566Y-65536340D01*
X90412559Y-65536339D01*
X90409573Y-65535933D01*
X90296747Y-65531500D01*
X90082298Y-65531500D01*
X89943324Y-65539391D01*
X89827904Y-65545945D01*
X89827897Y-65545946D01*
X89824336Y-65546148D01*
X89718505Y-65564333D01*
X89486634Y-65604175D01*
X89486626Y-65604177D01*
X89483116Y-65604780D01*
X89479691Y-65605778D01*
X89479688Y-65605779D01*
X89266754Y-65667844D01*
X89150727Y-65701663D01*
X88831442Y-65835550D01*
X88748996Y-65881722D01*
X88582121Y-65975177D01*
X88529366Y-66004721D01*
X88248383Y-66207000D01*
X88245729Y-66209411D01*
X87994751Y-66437383D01*
X87994745Y-66437389D01*
X87992104Y-66439788D01*
X87763825Y-66700090D01*
X87566480Y-66984561D01*
X87402607Y-67289544D01*
X87274313Y-67611117D01*
X87183246Y-67945146D01*
X87130578Y-68287337D01*
X87130438Y-68290904D01*
X87119805Y-68561531D01*
X87116985Y-68633291D01*
X83820000Y-68633291D01*
X83820000Y-60960000D01*
X69214500Y-60960000D01*
X69146379Y-60939998D01*
X69099886Y-60886342D01*
X69088500Y-60834000D01*
X69088500Y-58581758D01*
X71671069Y-58581758D01*
X71679207Y-58592765D01*
X71757342Y-58652720D01*
X71762972Y-58656575D01*
X72067929Y-58841992D01*
X72073931Y-58845210D01*
X72397139Y-58996611D01*
X72403444Y-58999159D01*
X72741117Y-59114771D01*
X72747668Y-59116624D01*
X73095838Y-59195087D01*
X73102557Y-59196224D01*
X73457174Y-59236628D01*
X73463964Y-59237031D01*
X73820865Y-59238899D01*
X73827666Y-59238567D01*
X74182686Y-59201880D01*
X74189414Y-59200814D01*
X74538402Y-59125997D01*
X74544950Y-59124218D01*
X74883820Y-59012147D01*
X74890162Y-59009661D01*
X75214921Y-58861660D01*
X75220975Y-58858495D01*
X75527851Y-58676285D01*
X75533503Y-58672503D01*
X75640041Y-58592512D01*
X75648494Y-58581187D01*
X75641749Y-58568856D01*
X73672812Y-56599919D01*
X73658868Y-56592305D01*
X73657035Y-56592436D01*
X73650420Y-56596687D01*
X71677950Y-58569157D01*
X71671069Y-58581758D01*
X69088500Y-58581758D01*
X69088500Y-55871657D01*
X70297260Y-55871657D01*
X70315318Y-56228127D01*
X70316028Y-56234883D01*
X70372478Y-56587305D01*
X70373917Y-56593960D01*
X70468094Y-56938215D01*
X70470243Y-56944676D01*
X70601053Y-57276756D01*
X70603884Y-57282939D01*
X70769789Y-57598943D01*
X70773283Y-57604804D01*
X70945968Y-57861785D01*
X70955952Y-57870084D01*
X70970044Y-57862849D01*
X72940081Y-55892812D01*
X72946459Y-55881132D01*
X74372305Y-55881132D01*
X74372436Y-55882965D01*
X74376687Y-55889580D01*
X76350124Y-57863017D01*
X76361729Y-57869354D01*
X76373935Y-57859825D01*
X76528503Y-57634929D01*
X76532050Y-57629118D01*
X76701250Y-57314879D01*
X76704157Y-57308701D01*
X76787343Y-57103839D01*
X87257173Y-57103839D01*
X87257397Y-57108505D01*
X87257397Y-57108511D01*
X87261852Y-57201257D01*
X87269713Y-57364908D01*
X87320704Y-57621256D01*
X87409026Y-57867252D01*
X87432668Y-57911253D01*
X87514143Y-58062885D01*
X87532737Y-58097491D01*
X87535532Y-58101234D01*
X87535534Y-58101237D01*
X87686330Y-58303177D01*
X87686335Y-58303183D01*
X87689122Y-58306915D01*
X87692431Y-58310195D01*
X87692436Y-58310201D01*
X87871426Y-58487635D01*
X87874743Y-58490923D01*
X87878505Y-58493681D01*
X87878508Y-58493684D01*
X87998626Y-58581758D01*
X88085524Y-58645474D01*
X88089667Y-58647654D01*
X88089669Y-58647655D01*
X88312684Y-58764989D01*
X88312689Y-58764991D01*
X88316834Y-58767172D01*
X88563590Y-58853344D01*
X88568183Y-58854216D01*
X88815785Y-58901224D01*
X88815788Y-58901224D01*
X88820374Y-58902095D01*
X88950959Y-58907226D01*
X89076875Y-58912174D01*
X89076881Y-58912174D01*
X89081543Y-58912357D01*
X89160977Y-58903657D01*
X89336707Y-58884412D01*
X89336712Y-58884411D01*
X89341360Y-58883902D01*
X89345884Y-58882711D01*
X89589594Y-58818548D01*
X89589596Y-58818547D01*
X89594117Y-58817357D01*
X89834262Y-58714182D01*
X89927355Y-58656575D01*
X90052547Y-58579104D01*
X90052548Y-58579104D01*
X90056519Y-58576646D01*
X90060082Y-58573629D01*
X90060087Y-58573626D01*
X90252439Y-58410787D01*
X90252440Y-58410786D01*
X90256005Y-58407768D01*
X90347729Y-58303177D01*
X90425257Y-58214774D01*
X90425261Y-58214769D01*
X90428339Y-58211259D01*
X90569733Y-57991437D01*
X90677083Y-57753129D01*
X90748030Y-57501572D01*
X90764832Y-57369496D01*
X90780616Y-57245421D01*
X90780616Y-57245417D01*
X90781014Y-57242291D01*
X90783431Y-57150000D01*
X90780001Y-57103839D01*
X102257173Y-57103839D01*
X102257397Y-57108505D01*
X102257397Y-57108511D01*
X102261852Y-57201257D01*
X102269713Y-57364908D01*
X102320704Y-57621256D01*
X102409026Y-57867252D01*
X102432668Y-57911253D01*
X102514143Y-58062885D01*
X102532737Y-58097491D01*
X102535532Y-58101234D01*
X102535534Y-58101237D01*
X102686330Y-58303177D01*
X102686335Y-58303183D01*
X102689122Y-58306915D01*
X102692431Y-58310195D01*
X102692436Y-58310201D01*
X102871426Y-58487635D01*
X102874743Y-58490923D01*
X102878505Y-58493681D01*
X102878508Y-58493684D01*
X102998626Y-58581758D01*
X103085524Y-58645474D01*
X103089667Y-58647654D01*
X103089669Y-58647655D01*
X103312684Y-58764989D01*
X103312689Y-58764991D01*
X103316834Y-58767172D01*
X103563590Y-58853344D01*
X103568183Y-58854216D01*
X103815785Y-58901224D01*
X103815788Y-58901224D01*
X103820374Y-58902095D01*
X103950959Y-58907226D01*
X104076875Y-58912174D01*
X104076881Y-58912174D01*
X104081543Y-58912357D01*
X104160977Y-58903657D01*
X104336707Y-58884412D01*
X104336712Y-58884411D01*
X104341360Y-58883902D01*
X104345884Y-58882711D01*
X104589594Y-58818548D01*
X104589596Y-58818547D01*
X104594117Y-58817357D01*
X104834262Y-58714182D01*
X104927355Y-58656575D01*
X105052547Y-58579104D01*
X105052548Y-58579104D01*
X105056519Y-58576646D01*
X105060082Y-58573629D01*
X105060087Y-58573626D01*
X105252439Y-58410787D01*
X105252440Y-58410786D01*
X105256005Y-58407768D01*
X105347729Y-58303177D01*
X105425257Y-58214774D01*
X105425261Y-58214769D01*
X105428339Y-58211259D01*
X105569733Y-57991437D01*
X105677083Y-57753129D01*
X105748030Y-57501572D01*
X105764832Y-57369496D01*
X105780616Y-57245421D01*
X105780616Y-57245417D01*
X105781014Y-57242291D01*
X105783431Y-57150000D01*
X105780001Y-57103839D01*
X139207173Y-57103839D01*
X139207397Y-57108505D01*
X139207397Y-57108511D01*
X139211852Y-57201257D01*
X139219713Y-57364908D01*
X139270704Y-57621256D01*
X139359026Y-57867252D01*
X139382668Y-57911253D01*
X139464143Y-58062885D01*
X139482737Y-58097491D01*
X139485532Y-58101234D01*
X139485534Y-58101237D01*
X139636330Y-58303177D01*
X139636335Y-58303183D01*
X139639122Y-58306915D01*
X139642431Y-58310195D01*
X139642436Y-58310201D01*
X139821426Y-58487635D01*
X139824743Y-58490923D01*
X139828505Y-58493681D01*
X139828508Y-58493684D01*
X139948626Y-58581758D01*
X140035524Y-58645474D01*
X140039667Y-58647654D01*
X140039669Y-58647655D01*
X140262684Y-58764989D01*
X140262689Y-58764991D01*
X140266834Y-58767172D01*
X140513590Y-58853344D01*
X140518183Y-58854216D01*
X140765785Y-58901224D01*
X140765788Y-58901224D01*
X140770374Y-58902095D01*
X140900959Y-58907226D01*
X141026875Y-58912174D01*
X141026881Y-58912174D01*
X141031543Y-58912357D01*
X141110977Y-58903657D01*
X141286707Y-58884412D01*
X141286712Y-58884411D01*
X141291360Y-58883902D01*
X141295884Y-58882711D01*
X141539594Y-58818548D01*
X141539596Y-58818547D01*
X141544117Y-58817357D01*
X141784262Y-58714182D01*
X141877355Y-58656575D01*
X142002547Y-58579104D01*
X142002548Y-58579104D01*
X142006519Y-58576646D01*
X142010082Y-58573629D01*
X142010087Y-58573626D01*
X142202439Y-58410787D01*
X142202440Y-58410786D01*
X142206005Y-58407768D01*
X142297729Y-58303177D01*
X142375257Y-58214774D01*
X142375261Y-58214769D01*
X142378339Y-58211259D01*
X142519733Y-57991437D01*
X142627083Y-57753129D01*
X142698030Y-57501572D01*
X142714832Y-57369496D01*
X142730616Y-57245421D01*
X142730616Y-57245417D01*
X142731014Y-57242291D01*
X142733431Y-57150000D01*
X142730001Y-57103839D01*
X154207173Y-57103839D01*
X154207397Y-57108505D01*
X154207397Y-57108511D01*
X154211852Y-57201257D01*
X154219713Y-57364908D01*
X154270704Y-57621256D01*
X154359026Y-57867252D01*
X154382668Y-57911253D01*
X154464143Y-58062885D01*
X154482737Y-58097491D01*
X154485532Y-58101234D01*
X154485534Y-58101237D01*
X154636330Y-58303177D01*
X154636335Y-58303183D01*
X154639122Y-58306915D01*
X154642431Y-58310195D01*
X154642436Y-58310201D01*
X154821426Y-58487635D01*
X154824743Y-58490923D01*
X154828505Y-58493681D01*
X154828508Y-58493684D01*
X154948626Y-58581758D01*
X155035524Y-58645474D01*
X155039667Y-58647654D01*
X155039669Y-58647655D01*
X155262684Y-58764989D01*
X155262689Y-58764991D01*
X155266834Y-58767172D01*
X155513590Y-58853344D01*
X155518183Y-58854216D01*
X155765785Y-58901224D01*
X155765788Y-58901224D01*
X155770374Y-58902095D01*
X155900959Y-58907226D01*
X156026875Y-58912174D01*
X156026881Y-58912174D01*
X156031543Y-58912357D01*
X156110977Y-58903657D01*
X156286707Y-58884412D01*
X156286712Y-58884411D01*
X156291360Y-58883902D01*
X156295884Y-58882711D01*
X156539594Y-58818548D01*
X156539596Y-58818547D01*
X156544117Y-58817357D01*
X156784262Y-58714182D01*
X156877355Y-58656575D01*
X157002547Y-58579104D01*
X157002548Y-58579104D01*
X157006519Y-58576646D01*
X157010082Y-58573629D01*
X157010087Y-58573626D01*
X157202439Y-58410787D01*
X157202440Y-58410786D01*
X157206005Y-58407768D01*
X157297729Y-58303177D01*
X157375257Y-58214774D01*
X157375261Y-58214769D01*
X157378339Y-58211259D01*
X157519733Y-57991437D01*
X157627083Y-57753129D01*
X157698030Y-57501572D01*
X157714832Y-57369496D01*
X157730616Y-57245421D01*
X157730616Y-57245417D01*
X157731014Y-57242291D01*
X157733431Y-57150000D01*
X157729655Y-57099185D01*
X157714407Y-56894000D01*
X157714406Y-56893996D01*
X157714061Y-56889348D01*
X157710163Y-56872118D01*
X157657408Y-56638980D01*
X157656377Y-56634423D01*
X157642959Y-56599919D01*
X157563340Y-56395176D01*
X157563339Y-56395173D01*
X157561647Y-56390823D01*
X157549652Y-56369835D01*
X157546975Y-56365151D01*
X162992296Y-56365151D01*
X162992520Y-56369817D01*
X162992520Y-56369822D01*
X162995066Y-56422812D01*
X163004480Y-56618798D01*
X163054021Y-56867857D01*
X163055600Y-56872255D01*
X163055602Y-56872262D01*
X163100022Y-56995980D01*
X163139831Y-57106858D01*
X163142048Y-57110984D01*
X163248285Y-57308701D01*
X163260025Y-57330551D01*
X163262820Y-57334294D01*
X163262822Y-57334297D01*
X163409171Y-57530282D01*
X163409176Y-57530288D01*
X163411963Y-57534020D01*
X163415272Y-57537300D01*
X163415277Y-57537306D01*
X163513756Y-57634929D01*
X163592307Y-57712797D01*
X163596069Y-57715555D01*
X163596072Y-57715558D01*
X163647313Y-57753129D01*
X163797094Y-57862953D01*
X163801229Y-57865129D01*
X163801233Y-57865131D01*
X163813103Y-57871376D01*
X164021827Y-57981191D01*
X164062421Y-57995367D01*
X164255764Y-58062885D01*
X164261568Y-58064912D01*
X164511050Y-58112278D01*
X164631532Y-58117011D01*
X164760125Y-58122064D01*
X164760130Y-58122064D01*
X164764793Y-58122247D01*
X164855821Y-58112278D01*
X165012569Y-58095112D01*
X165012575Y-58095111D01*
X165017222Y-58094602D01*
X165126680Y-58065784D01*
X165258273Y-58031138D01*
X165262793Y-58029948D01*
X165382415Y-57978555D01*
X165491807Y-57931557D01*
X165491810Y-57931555D01*
X165496110Y-57929708D01*
X165500090Y-57927245D01*
X165500094Y-57927243D01*
X165514998Y-57918020D01*
X174809707Y-57918020D01*
X174814173Y-57923986D01*
X174917892Y-57978555D01*
X174926441Y-57982272D01*
X175157282Y-58062885D01*
X175166291Y-58065299D01*
X175406518Y-58110908D01*
X175415775Y-58111962D01*
X175660107Y-58121563D01*
X175669420Y-58121237D01*
X175912478Y-58094618D01*
X175921655Y-58092917D01*
X176158107Y-58030665D01*
X176166926Y-58027628D01*
X176391582Y-57931108D01*
X176394648Y-57929512D01*
X176403033Y-57920163D01*
X176399146Y-57911253D01*
X175617812Y-57129919D01*
X175603868Y-57122305D01*
X175602035Y-57122436D01*
X175595420Y-57126687D01*
X174816467Y-57905640D01*
X174809707Y-57918020D01*
X165514998Y-57918020D01*
X165708064Y-57798547D01*
X165708066Y-57798545D01*
X165712047Y-57796082D01*
X165715624Y-57793054D01*
X165902289Y-57635031D01*
X165902291Y-57635029D01*
X165905862Y-57632006D01*
X166073295Y-57441084D01*
X166210669Y-57227512D01*
X166314967Y-56995980D01*
X166383896Y-56751575D01*
X166403189Y-56599919D01*
X166415545Y-56502798D01*
X166415545Y-56502792D01*
X166415943Y-56499667D01*
X166416027Y-56496483D01*
X166417264Y-56449233D01*
X166418291Y-56410000D01*
X166416866Y-56390823D01*
X166415306Y-56369835D01*
X173893022Y-56369835D01*
X173904754Y-56614064D01*
X173905891Y-56623324D01*
X173953593Y-56863143D01*
X173956082Y-56872118D01*
X174038708Y-57102250D01*
X174042503Y-57110775D01*
X174087969Y-57195391D01*
X174097873Y-57205429D01*
X174105106Y-57202787D01*
X174885081Y-56422812D01*
X174891459Y-56411132D01*
X176317305Y-56411132D01*
X176317436Y-56412965D01*
X176321687Y-56419580D01*
X177103364Y-57201257D01*
X177115744Y-57208017D01*
X177120509Y-57204450D01*
X177212572Y-57000076D01*
X177215766Y-56991301D01*
X177282135Y-56755973D01*
X177283993Y-56746844D01*
X177315044Y-56502770D01*
X177315525Y-56496483D01*
X177317706Y-56413160D01*
X177317555Y-56406851D01*
X177299321Y-56161486D01*
X177297944Y-56152280D01*
X177243979Y-55913786D01*
X177241255Y-55904875D01*
X177152631Y-55676978D01*
X177148620Y-55668569D01*
X177123029Y-55623795D01*
X177112865Y-55614019D01*
X177104966Y-55617141D01*
X176324919Y-56397188D01*
X176317305Y-56411132D01*
X174891459Y-56411132D01*
X174892695Y-56408868D01*
X174892564Y-56407035D01*
X174888313Y-56400420D01*
X174107344Y-55619451D01*
X174094964Y-55612691D01*
X174087443Y-55618321D01*
X174081322Y-55628409D01*
X174077084Y-55636726D01*
X173982529Y-55862214D01*
X173979572Y-55871052D01*
X173919384Y-56108042D01*
X173917763Y-56117232D01*
X173893267Y-56360510D01*
X173893022Y-56369835D01*
X166415306Y-56369835D01*
X166399818Y-56161411D01*
X166399817Y-56161407D01*
X166399472Y-56156759D01*
X166398437Y-56152181D01*
X166354643Y-55958643D01*
X166343428Y-55909082D01*
X166333272Y-55882965D01*
X166253084Y-55676762D01*
X166253083Y-55676760D01*
X166251391Y-55672409D01*
X166229005Y-55633241D01*
X166127702Y-55455997D01*
X166127700Y-55455995D01*
X166125383Y-55451940D01*
X165968171Y-55252517D01*
X165783209Y-55078523D01*
X165702379Y-55022449D01*
X165578393Y-54936437D01*
X165578390Y-54936435D01*
X165574561Y-54933779D01*
X165570384Y-54931719D01*
X165570377Y-54931715D01*
X165508505Y-54901203D01*
X174807449Y-54901203D01*
X174809202Y-54907095D01*
X175592188Y-55690081D01*
X175606132Y-55697695D01*
X175607965Y-55697564D01*
X175614580Y-55693313D01*
X176394103Y-54913790D01*
X176400863Y-54901410D01*
X176396809Y-54895994D01*
X176250808Y-54823994D01*
X176242176Y-54820507D01*
X176009288Y-54745958D01*
X176000238Y-54743785D01*
X175758891Y-54704480D01*
X175749602Y-54703668D01*
X175506777Y-54700489D01*
X175506442Y-54700386D01*
X175495803Y-54701037D01*
X175253522Y-54734010D01*
X175244403Y-54735948D01*
X175009668Y-54804367D01*
X175000915Y-54807639D01*
X174818074Y-54891931D01*
X174807449Y-54901203D01*
X165508505Y-54901203D01*
X165350996Y-54823528D01*
X165350992Y-54823527D01*
X165346810Y-54821464D01*
X165104960Y-54744047D01*
X165100355Y-54743297D01*
X164858935Y-54703980D01*
X164858934Y-54703980D01*
X164854323Y-54703229D01*
X164645017Y-54700489D01*
X164628157Y-54695298D01*
X164628004Y-54695396D01*
X164602125Y-54699928D01*
X164600406Y-54699905D01*
X164348787Y-54734149D01*
X164344301Y-54735457D01*
X164344299Y-54735457D01*
X164317401Y-54743297D01*
X164104993Y-54805208D01*
X164100740Y-54807168D01*
X164100739Y-54807169D01*
X164072818Y-54820041D01*
X163874380Y-54911522D01*
X163870471Y-54914085D01*
X163665928Y-55048189D01*
X163665923Y-55048193D01*
X163662015Y-55050755D01*
X163600141Y-55105980D01*
X163530995Y-55167695D01*
X163472562Y-55219848D01*
X163310183Y-55415087D01*
X163178447Y-55632182D01*
X163176638Y-55636496D01*
X163176637Y-55636498D01*
X163116648Y-55779557D01*
X163080246Y-55866365D01*
X163079095Y-55870897D01*
X163079094Y-55870900D01*
X163066141Y-55921903D01*
X163017738Y-56112490D01*
X162992296Y-56365151D01*
X157546975Y-56365151D01*
X157472520Y-56234883D01*
X157431951Y-56163902D01*
X157270138Y-55958643D01*
X157079763Y-55779557D01*
X156891185Y-55648735D01*
X156868851Y-55633241D01*
X156868848Y-55633239D01*
X156865009Y-55630576D01*
X156860615Y-55628409D01*
X156634781Y-55517040D01*
X156634778Y-55517039D01*
X156630593Y-55514975D01*
X156607673Y-55507638D01*
X156386123Y-55436720D01*
X156381665Y-55435293D01*
X156123693Y-55393279D01*
X156009942Y-55391790D01*
X155867022Y-55389919D01*
X155867019Y-55389919D01*
X155862345Y-55389858D01*
X155603362Y-55425104D01*
X155352433Y-55498243D01*
X155348180Y-55500203D01*
X155348179Y-55500204D01*
X155311659Y-55517040D01*
X155115072Y-55607668D01*
X155077682Y-55632182D01*
X154900404Y-55748410D01*
X154900399Y-55748414D01*
X154896491Y-55750976D01*
X154701494Y-55925018D01*
X154534363Y-56125970D01*
X154531934Y-56129973D01*
X154447041Y-56269873D01*
X154398771Y-56349419D01*
X154297697Y-56590455D01*
X154233359Y-56843783D01*
X154232891Y-56848434D01*
X154232890Y-56848438D01*
X154231397Y-56863269D01*
X154207173Y-57103839D01*
X142730001Y-57103839D01*
X142729655Y-57099185D01*
X142714407Y-56894000D01*
X142714406Y-56893996D01*
X142714061Y-56889348D01*
X142710163Y-56872118D01*
X142657408Y-56638980D01*
X142656377Y-56634423D01*
X142642959Y-56599919D01*
X142563340Y-56395176D01*
X142563339Y-56395173D01*
X142561647Y-56390823D01*
X142549652Y-56369835D01*
X142472520Y-56234883D01*
X142431951Y-56163902D01*
X142270138Y-55958643D01*
X142079763Y-55779557D01*
X141891185Y-55648735D01*
X141868851Y-55633241D01*
X141868848Y-55633239D01*
X141865009Y-55630576D01*
X141860615Y-55628409D01*
X141634781Y-55517040D01*
X141634778Y-55517039D01*
X141630593Y-55514975D01*
X141607673Y-55507638D01*
X141386123Y-55436720D01*
X141381665Y-55435293D01*
X141123693Y-55393279D01*
X141009942Y-55391790D01*
X140867022Y-55389919D01*
X140867019Y-55389919D01*
X140862345Y-55389858D01*
X140603362Y-55425104D01*
X140352433Y-55498243D01*
X140348180Y-55500203D01*
X140348179Y-55500204D01*
X140311659Y-55517040D01*
X140115072Y-55607668D01*
X140077682Y-55632182D01*
X139900404Y-55748410D01*
X139900399Y-55748414D01*
X139896491Y-55750976D01*
X139701494Y-55925018D01*
X139534363Y-56125970D01*
X139531934Y-56129973D01*
X139447041Y-56269873D01*
X139398771Y-56349419D01*
X139297697Y-56590455D01*
X139233359Y-56843783D01*
X139232891Y-56848434D01*
X139232890Y-56848438D01*
X139231397Y-56863269D01*
X139207173Y-57103839D01*
X105780001Y-57103839D01*
X105779655Y-57099185D01*
X105764407Y-56894000D01*
X105764406Y-56893996D01*
X105764061Y-56889348D01*
X105760163Y-56872118D01*
X105707408Y-56638980D01*
X105706377Y-56634423D01*
X105692959Y-56599919D01*
X105613340Y-56395176D01*
X105613339Y-56395173D01*
X105611647Y-56390823D01*
X105599652Y-56369835D01*
X105484275Y-56167968D01*
X105484270Y-56167960D01*
X105481951Y-56163902D01*
X105472711Y-56152181D01*
X105446249Y-56086300D01*
X105459606Y-56016571D01*
X105482570Y-55985085D01*
X106982250Y-54485405D01*
X107044562Y-54451379D01*
X107071345Y-54448500D01*
X164592506Y-54448500D01*
X164611342Y-54454031D01*
X164612753Y-54453150D01*
X164646666Y-54448500D01*
X175500729Y-54448500D01*
X175503179Y-54449219D01*
X175508426Y-54448500D01*
X178558655Y-54448500D01*
X178626776Y-54468502D01*
X178647750Y-54485405D01*
X190624595Y-66462250D01*
X190658621Y-66524562D01*
X190661500Y-66551345D01*
X190661500Y-83308654D01*
X190641498Y-83376775D01*
X190624595Y-83397749D01*
X190077749Y-83944595D01*
X190015437Y-83978621D01*
X189988654Y-83981500D01*
X189894500Y-83981500D01*
X189826379Y-83961498D01*
X189779886Y-83907842D01*
X189768500Y-83855500D01*
X189768500Y-83741866D01*
X189761745Y-83679684D01*
X189710615Y-83543295D01*
X189623261Y-83426739D01*
X189506705Y-83339385D01*
X189370316Y-83288255D01*
X189308134Y-83281500D01*
X186611866Y-83281500D01*
X186549684Y-83288255D01*
X186413295Y-83339385D01*
X186296739Y-83426739D01*
X186209385Y-83543295D01*
X186158255Y-83679684D01*
X186151500Y-83741866D01*
X186151500Y-86438134D01*
X186151869Y-86441531D01*
X186152185Y-86444440D01*
X186158255Y-86500316D01*
X186209385Y-86636705D01*
X186296739Y-86753261D01*
X186413295Y-86840615D01*
X186549684Y-86891745D01*
X186611866Y-86898500D01*
X189308134Y-86898500D01*
X189370316Y-86891745D01*
X189506705Y-86840615D01*
X189623261Y-86753261D01*
X189710615Y-86636705D01*
X189761745Y-86500316D01*
X189767815Y-86444440D01*
X189768131Y-86441531D01*
X189768500Y-86438134D01*
X189768500Y-86324500D01*
X189788502Y-86256379D01*
X189842158Y-86209886D01*
X189894500Y-86198500D01*
X189988655Y-86198500D01*
X190056776Y-86218502D01*
X190077750Y-86235405D01*
X190624595Y-86782250D01*
X190658621Y-86844562D01*
X190661500Y-86871345D01*
X190661500Y-105445500D01*
X190641498Y-105513621D01*
X190587842Y-105560114D01*
X190535500Y-105571500D01*
X189894500Y-105571500D01*
X189826379Y-105551498D01*
X189779886Y-105497842D01*
X189768500Y-105445500D01*
X189768500Y-105331866D01*
X189761745Y-105269684D01*
X189710615Y-105133295D01*
X189623261Y-105016739D01*
X189506705Y-104929385D01*
X189370316Y-104878255D01*
X189308134Y-104871500D01*
X186611866Y-104871500D01*
X186549684Y-104878255D01*
X186413295Y-104929385D01*
X186296739Y-105016739D01*
X186209385Y-105133295D01*
X186158255Y-105269684D01*
X186151500Y-105331866D01*
X186151500Y-108028134D01*
X186158255Y-108090316D01*
X186209385Y-108226705D01*
X186296739Y-108343261D01*
X186413295Y-108430615D01*
X186549684Y-108481745D01*
X186611866Y-108488500D01*
X189308134Y-108488500D01*
X189370316Y-108481745D01*
X189506705Y-108430615D01*
X189623261Y-108343261D01*
X189710615Y-108226705D01*
X189761745Y-108090316D01*
X189768500Y-108028134D01*
X189768500Y-107914500D01*
X189788502Y-107846379D01*
X189842158Y-107799886D01*
X189894500Y-107788500D01*
X191680909Y-107788500D01*
X191698989Y-107789804D01*
X191709664Y-107791352D01*
X191709667Y-107791352D01*
X191715604Y-107792213D01*
X191792907Y-107788635D01*
X191798732Y-107788500D01*
X191822846Y-107788500D01*
X191825818Y-107788216D01*
X191825828Y-107788216D01*
X191845259Y-107786362D01*
X191851398Y-107785928D01*
X191862916Y-107785395D01*
X191926899Y-107782433D01*
X191932725Y-107781029D01*
X191932731Y-107781028D01*
X191944745Y-107778133D01*
X191962297Y-107775196D01*
X191974591Y-107774023D01*
X191974601Y-107774021D01*
X191980566Y-107773452D01*
X191986320Y-107771764D01*
X191986325Y-107771763D01*
X192053102Y-107752173D01*
X192059052Y-107750584D01*
X192126704Y-107734280D01*
X192132534Y-107732875D01*
X192137989Y-107730395D01*
X192137991Y-107730394D01*
X192149242Y-107725278D01*
X192165928Y-107719073D01*
X192177776Y-107715598D01*
X192177784Y-107715595D01*
X192183534Y-107713908D01*
X192250753Y-107679288D01*
X192256261Y-107676620D01*
X192325087Y-107645326D01*
X192340058Y-107634706D01*
X192355260Y-107625464D01*
X192366252Y-107619802D01*
X192371580Y-107617058D01*
X192376291Y-107613358D01*
X192376298Y-107613353D01*
X192431022Y-107570367D01*
X192435954Y-107566684D01*
X192492712Y-107526422D01*
X192492718Y-107526417D01*
X192497611Y-107522946D01*
X192510301Y-107509690D01*
X192523488Y-107497732D01*
X192533202Y-107490102D01*
X192537920Y-107486396D01*
X192587483Y-107429280D01*
X192591599Y-107424765D01*
X192639731Y-107374486D01*
X192639735Y-107374481D01*
X192643881Y-107370150D01*
X192647131Y-107365117D01*
X192647134Y-107365113D01*
X192653836Y-107354733D01*
X192664520Y-107340503D01*
X192672619Y-107331169D01*
X192676552Y-107326637D01*
X192714407Y-107261202D01*
X192717620Y-107255949D01*
X192755364Y-107197495D01*
X192755365Y-107197493D01*
X192758620Y-107192452D01*
X192765480Y-107175430D01*
X192773280Y-107159436D01*
X192782473Y-107143546D01*
X192807272Y-107072133D01*
X192809420Y-107066402D01*
X192837686Y-106996263D01*
X192841202Y-106978256D01*
X192845839Y-106961072D01*
X192849894Y-106949397D01*
X192849897Y-106949384D01*
X192851861Y-106943729D01*
X192862706Y-106868928D01*
X192863738Y-106862858D01*
X192877358Y-106793118D01*
X192878228Y-106788663D01*
X192878500Y-106783101D01*
X192878500Y-106769091D01*
X192879804Y-106751011D01*
X192881352Y-106740336D01*
X192881352Y-106740333D01*
X192882213Y-106734396D01*
X192878635Y-106657093D01*
X192878500Y-106651268D01*
X192878500Y-86464252D01*
X192879410Y-86453469D01*
X192879106Y-86453447D01*
X192879545Y-86447471D01*
X192880551Y-86441554D01*
X192878530Y-86348926D01*
X192878500Y-86346178D01*
X192878500Y-86307154D01*
X192877795Y-86299769D01*
X192877256Y-86290556D01*
X192876068Y-86236079D01*
X192876068Y-86236077D01*
X192875937Y-86230082D01*
X192868885Y-86197325D01*
X192866633Y-86182774D01*
X192864022Y-86155410D01*
X192863452Y-86149434D01*
X192861762Y-86143673D01*
X192846424Y-86091388D01*
X192844152Y-86082440D01*
X192832682Y-86029164D01*
X192832679Y-86029153D01*
X192831418Y-86023298D01*
X192818300Y-85992468D01*
X192813341Y-85978619D01*
X192803908Y-85946466D01*
X192776203Y-85892674D01*
X192772287Y-85884333D01*
X192750948Y-85834182D01*
X192750948Y-85834181D01*
X192748600Y-85828664D01*
X192729888Y-85800870D01*
X192722397Y-85788203D01*
X192709806Y-85763754D01*
X192709802Y-85763747D01*
X192707058Y-85758420D01*
X192686541Y-85732300D01*
X192669697Y-85710857D01*
X192664263Y-85703391D01*
X192633013Y-85656974D01*
X192633007Y-85656966D01*
X192630472Y-85653201D01*
X192626731Y-85649075D01*
X192606123Y-85628467D01*
X192596132Y-85617205D01*
X192580102Y-85596797D01*
X192580098Y-85596793D01*
X192576396Y-85592080D01*
X192529391Y-85551291D01*
X192522877Y-85545221D01*
X192156751Y-85179095D01*
X192122725Y-85116783D01*
X192127790Y-85045968D01*
X192156751Y-85000905D01*
X192480106Y-84677550D01*
X192488381Y-84670563D01*
X192488182Y-84670333D01*
X192492723Y-84666414D01*
X192497611Y-84662946D01*
X192561736Y-84595960D01*
X192563659Y-84593996D01*
X192591195Y-84566460D01*
X192595914Y-84560746D01*
X192602047Y-84553852D01*
X192639732Y-84514485D01*
X192639736Y-84514480D01*
X192643881Y-84510150D01*
X192662054Y-84482005D01*
X192670748Y-84470127D01*
X192688263Y-84448917D01*
X192692080Y-84444295D01*
X192721087Y-84391203D01*
X192725798Y-84383283D01*
X192758620Y-84332452D01*
X192771142Y-84301381D01*
X192777435Y-84288068D01*
X192790618Y-84263938D01*
X192793496Y-84258671D01*
X192795324Y-84252959D01*
X192795327Y-84252953D01*
X192811941Y-84201049D01*
X192815072Y-84192375D01*
X192837686Y-84136263D01*
X192844105Y-84103392D01*
X192847768Y-84089125D01*
X192856152Y-84062936D01*
X192856154Y-84062925D01*
X192857981Y-84057219D01*
X192865196Y-83997159D01*
X192866633Y-83988038D01*
X192877357Y-83933122D01*
X192878228Y-83928663D01*
X192878500Y-83923101D01*
X192878500Y-83893951D01*
X192879399Y-83878923D01*
X192882495Y-83853154D01*
X192882495Y-83853150D01*
X192883209Y-83847207D01*
X192878815Y-83785147D01*
X192878500Y-83776248D01*
X192878500Y-66144252D01*
X192879410Y-66133469D01*
X192879106Y-66133447D01*
X192879545Y-66127471D01*
X192880551Y-66121554D01*
X192878530Y-66028926D01*
X192878500Y-66026178D01*
X192878500Y-65987154D01*
X192877795Y-65979769D01*
X192877256Y-65970556D01*
X192876068Y-65916079D01*
X192876068Y-65916077D01*
X192875937Y-65910082D01*
X192869832Y-65881722D01*
X192868885Y-65877325D01*
X192866633Y-65862774D01*
X192864203Y-65837302D01*
X192863452Y-65829434D01*
X192852513Y-65792146D01*
X192846424Y-65771388D01*
X192844152Y-65762440D01*
X192832682Y-65709164D01*
X192832679Y-65709153D01*
X192831418Y-65703298D01*
X192818300Y-65672468D01*
X192813341Y-65658619D01*
X192803908Y-65626466D01*
X192776203Y-65572674D01*
X192772287Y-65564333D01*
X192764550Y-65546148D01*
X192748600Y-65508664D01*
X192729888Y-65480870D01*
X192722397Y-65468203D01*
X192709806Y-65443754D01*
X192709802Y-65443747D01*
X192707058Y-65438420D01*
X192686541Y-65412300D01*
X192669697Y-65390857D01*
X192664263Y-65383391D01*
X192633013Y-65336974D01*
X192633007Y-65336966D01*
X192630472Y-65333201D01*
X192626731Y-65329075D01*
X192606123Y-65308467D01*
X192596132Y-65297205D01*
X192580102Y-65276797D01*
X192580098Y-65276793D01*
X192576396Y-65272080D01*
X192529391Y-65231291D01*
X192522877Y-65225221D01*
X185879414Y-58581758D01*
X188511069Y-58581758D01*
X188519207Y-58592765D01*
X188597342Y-58652720D01*
X188602972Y-58656575D01*
X188907929Y-58841992D01*
X188913931Y-58845210D01*
X189237139Y-58996611D01*
X189243444Y-58999159D01*
X189581117Y-59114771D01*
X189587668Y-59116624D01*
X189935838Y-59195087D01*
X189942557Y-59196224D01*
X190297174Y-59236628D01*
X190303964Y-59237031D01*
X190660865Y-59238899D01*
X190667666Y-59238567D01*
X191022686Y-59201880D01*
X191029414Y-59200814D01*
X191378402Y-59125997D01*
X191384950Y-59124218D01*
X191723820Y-59012147D01*
X191730162Y-59009661D01*
X192054921Y-58861660D01*
X192060975Y-58858495D01*
X192367851Y-58676285D01*
X192373503Y-58672503D01*
X192480041Y-58592512D01*
X192488494Y-58581187D01*
X192481749Y-58568856D01*
X190512812Y-56599919D01*
X190498868Y-56592305D01*
X190497035Y-56592436D01*
X190490420Y-56596687D01*
X188517950Y-58569157D01*
X188511069Y-58581758D01*
X185879414Y-58581758D01*
X183169313Y-55871657D01*
X187137260Y-55871657D01*
X187155318Y-56228127D01*
X187156028Y-56234883D01*
X187212478Y-56587305D01*
X187213917Y-56593960D01*
X187308094Y-56938215D01*
X187310243Y-56944676D01*
X187441053Y-57276756D01*
X187443884Y-57282939D01*
X187609789Y-57598943D01*
X187613283Y-57604804D01*
X187785968Y-57861785D01*
X187795952Y-57870084D01*
X187810044Y-57862849D01*
X189780081Y-55892812D01*
X189786459Y-55881132D01*
X191212305Y-55881132D01*
X191212436Y-55882965D01*
X191216687Y-55889580D01*
X193190124Y-57863017D01*
X193201729Y-57869354D01*
X193213935Y-57859825D01*
X193368503Y-57634929D01*
X193372050Y-57629118D01*
X193541250Y-57314879D01*
X193544157Y-57308701D01*
X193678435Y-56978016D01*
X193680649Y-56971586D01*
X193778427Y-56628331D01*
X193779934Y-56621701D01*
X193840073Y-56269873D01*
X193840853Y-56263133D01*
X193862740Y-55905275D01*
X193862856Y-55901673D01*
X193862926Y-55881820D01*
X193862834Y-55878193D01*
X193843446Y-55520208D01*
X193842711Y-55513442D01*
X193785034Y-55161233D01*
X193783567Y-55154561D01*
X193688194Y-54810655D01*
X193686020Y-54804192D01*
X193554053Y-54472575D01*
X193551197Y-54466395D01*
X193384194Y-54150981D01*
X193380682Y-54145137D01*
X193213724Y-53898539D01*
X193203651Y-53890225D01*
X193189677Y-53897430D01*
X191219919Y-55867188D01*
X191212305Y-55881132D01*
X189786459Y-55881132D01*
X189787695Y-55878868D01*
X189787564Y-55877035D01*
X189783313Y-55870420D01*
X187809575Y-53896682D01*
X187798039Y-53890382D01*
X187785756Y-53900006D01*
X187625394Y-54135086D01*
X187621859Y-54140923D01*
X187453754Y-54455757D01*
X187450878Y-54461926D01*
X187317754Y-54793081D01*
X187315561Y-54799521D01*
X187218979Y-55143121D01*
X187217496Y-55149756D01*
X187158589Y-55501773D01*
X187157830Y-55508545D01*
X187137284Y-55864862D01*
X187137260Y-55871657D01*
X183169313Y-55871657D01*
X180476427Y-53178771D01*
X188511382Y-53178771D01*
X188518089Y-53190982D01*
X190487188Y-55160081D01*
X190501132Y-55167695D01*
X190502965Y-55167564D01*
X190509580Y-55163313D01*
X192481910Y-53190983D01*
X192488755Y-53178448D01*
X192480524Y-53167355D01*
X192392958Y-53100649D01*
X192387332Y-53096825D01*
X192081722Y-52912469D01*
X192075710Y-52909272D01*
X191751966Y-52758995D01*
X191745666Y-52756475D01*
X191407595Y-52642045D01*
X191401017Y-52640209D01*
X191052592Y-52562965D01*
X191045857Y-52561850D01*
X190691106Y-52522685D01*
X190684324Y-52522306D01*
X190327395Y-52521683D01*
X190320622Y-52522038D01*
X189965714Y-52559966D01*
X189959005Y-52561053D01*
X189610289Y-52637086D01*
X189603714Y-52638897D01*
X189265250Y-52752145D01*
X189258928Y-52754648D01*
X188934680Y-52903785D01*
X188928637Y-52906971D01*
X188622404Y-53090248D01*
X188616744Y-53094066D01*
X188519841Y-53167354D01*
X188511382Y-53178771D01*
X180476427Y-53178771D01*
X179927551Y-52629895D01*
X179920565Y-52621621D01*
X179920335Y-52621820D01*
X179916412Y-52617275D01*
X179912946Y-52612389D01*
X179845984Y-52548287D01*
X179844020Y-52546364D01*
X179816460Y-52518804D01*
X179814145Y-52516892D01*
X179810739Y-52514079D01*
X179803855Y-52507957D01*
X179760150Y-52466119D01*
X179755114Y-52462867D01*
X179755110Y-52462864D01*
X179732008Y-52447947D01*
X179720126Y-52439251D01*
X179698919Y-52421738D01*
X179698916Y-52421736D01*
X179694295Y-52417920D01*
X179641203Y-52388913D01*
X179633283Y-52384202D01*
X179582452Y-52351380D01*
X179576884Y-52349136D01*
X179576882Y-52349135D01*
X179551381Y-52338858D01*
X179538068Y-52332565D01*
X179536413Y-52331661D01*
X179508671Y-52316504D01*
X179502959Y-52314676D01*
X179502953Y-52314673D01*
X179451049Y-52298059D01*
X179442375Y-52294928D01*
X179386263Y-52272314D01*
X179353392Y-52265895D01*
X179339125Y-52262232D01*
X179312927Y-52253846D01*
X179312925Y-52253846D01*
X179307219Y-52252019D01*
X179301272Y-52251305D01*
X179301265Y-52251303D01*
X179247154Y-52244802D01*
X179238033Y-52243366D01*
X179211473Y-52238179D01*
X179178663Y-52231772D01*
X179173101Y-52231500D01*
X179143960Y-52231500D01*
X179128932Y-52230601D01*
X179103155Y-52227504D01*
X179103149Y-52227504D01*
X179097207Y-52226790D01*
X179091232Y-52227213D01*
X179091229Y-52227213D01*
X179035137Y-52231185D01*
X179026238Y-52231500D01*
X106664252Y-52231500D01*
X106653469Y-52230590D01*
X106653447Y-52230894D01*
X106647471Y-52230455D01*
X106641554Y-52229449D01*
X106548926Y-52231470D01*
X106546178Y-52231500D01*
X106507154Y-52231500D01*
X106499769Y-52232205D01*
X106490561Y-52232744D01*
X106462127Y-52233364D01*
X106436079Y-52233932D01*
X106436077Y-52233932D01*
X106430082Y-52234063D01*
X106424223Y-52235324D01*
X106424218Y-52235325D01*
X106397325Y-52241115D01*
X106382774Y-52243367D01*
X106369405Y-52244643D01*
X106349434Y-52246548D01*
X106343674Y-52248238D01*
X106343673Y-52248238D01*
X106291388Y-52263576D01*
X106282440Y-52265848D01*
X106229168Y-52277317D01*
X106229156Y-52277321D01*
X106223298Y-52278582D01*
X106217776Y-52280931D01*
X106217778Y-52280931D01*
X106192479Y-52291696D01*
X106178615Y-52296661D01*
X106146466Y-52306092D01*
X106141142Y-52308834D01*
X106092679Y-52333794D01*
X106084326Y-52337716D01*
X106028663Y-52361401D01*
X106023687Y-52364751D01*
X106000879Y-52380106D01*
X105988208Y-52387600D01*
X105958420Y-52402942D01*
X105934492Y-52421738D01*
X105910858Y-52440303D01*
X105903390Y-52445739D01*
X105873118Y-52466119D01*
X105853200Y-52479528D01*
X105849075Y-52483269D01*
X105828467Y-52503877D01*
X105817205Y-52513868D01*
X105796797Y-52529898D01*
X105796793Y-52529902D01*
X105792080Y-52533604D01*
X105788149Y-52538134D01*
X105788148Y-52538135D01*
X105751291Y-52580609D01*
X105745221Y-52587123D01*
X103309895Y-55022449D01*
X103301621Y-55029435D01*
X103301820Y-55029665D01*
X103297275Y-55033588D01*
X103292389Y-55037054D01*
X103288247Y-55041381D01*
X103228287Y-55104016D01*
X103226364Y-55105980D01*
X103198804Y-55133540D01*
X103196894Y-55135852D01*
X103196892Y-55135855D01*
X103194079Y-55139261D01*
X103187957Y-55146145D01*
X103146119Y-55189850D01*
X103142867Y-55194886D01*
X103142864Y-55194890D01*
X103127947Y-55217992D01*
X103119252Y-55229873D01*
X103097920Y-55255705D01*
X103095046Y-55260966D01*
X103068913Y-55308797D01*
X103064202Y-55316717D01*
X103031380Y-55367548D01*
X103029136Y-55373116D01*
X103029135Y-55373118D01*
X103018858Y-55398619D01*
X103012565Y-55411932D01*
X102996504Y-55441329D01*
X102994676Y-55447041D01*
X102994673Y-55447047D01*
X102978059Y-55498951D01*
X102974928Y-55507625D01*
X102952314Y-55563737D01*
X102951164Y-55569627D01*
X102945895Y-55596608D01*
X102942232Y-55610875D01*
X102936588Y-55628508D01*
X102932019Y-55642781D01*
X102931305Y-55648728D01*
X102931303Y-55648735D01*
X102924802Y-55702846D01*
X102923366Y-55711965D01*
X102917386Y-55742589D01*
X102884700Y-55805614D01*
X102877631Y-55812436D01*
X102751494Y-55925018D01*
X102584363Y-56125970D01*
X102581934Y-56129973D01*
X102497041Y-56269873D01*
X102448771Y-56349419D01*
X102347697Y-56590455D01*
X102283359Y-56843783D01*
X102282891Y-56848434D01*
X102282890Y-56848438D01*
X102281397Y-56863269D01*
X102257173Y-57103839D01*
X90780001Y-57103839D01*
X90779655Y-57099185D01*
X90764407Y-56894000D01*
X90764406Y-56893996D01*
X90764061Y-56889348D01*
X90760163Y-56872118D01*
X90707408Y-56638980D01*
X90706377Y-56634423D01*
X90692959Y-56599919D01*
X90613340Y-56395176D01*
X90613339Y-56395173D01*
X90611647Y-56390823D01*
X90599652Y-56369835D01*
X90522520Y-56234883D01*
X90481951Y-56163902D01*
X90320138Y-55958643D01*
X90129763Y-55779557D01*
X89941185Y-55648735D01*
X89918851Y-55633241D01*
X89918848Y-55633239D01*
X89915009Y-55630576D01*
X89910615Y-55628409D01*
X89684781Y-55517040D01*
X89684778Y-55517039D01*
X89680593Y-55514975D01*
X89657673Y-55507638D01*
X89436123Y-55436720D01*
X89431665Y-55435293D01*
X89173693Y-55393279D01*
X89059942Y-55391790D01*
X88917022Y-55389919D01*
X88917019Y-55389919D01*
X88912345Y-55389858D01*
X88653362Y-55425104D01*
X88402433Y-55498243D01*
X88398180Y-55500203D01*
X88398179Y-55500204D01*
X88361659Y-55517040D01*
X88165072Y-55607668D01*
X88127682Y-55632182D01*
X87950404Y-55748410D01*
X87950399Y-55748414D01*
X87946491Y-55750976D01*
X87751494Y-55925018D01*
X87584363Y-56125970D01*
X87581934Y-56129973D01*
X87497041Y-56269873D01*
X87448771Y-56349419D01*
X87347697Y-56590455D01*
X87283359Y-56843783D01*
X87282891Y-56848434D01*
X87282890Y-56848438D01*
X87281397Y-56863269D01*
X87257173Y-57103839D01*
X76787343Y-57103839D01*
X76838435Y-56978016D01*
X76840649Y-56971586D01*
X76938427Y-56628331D01*
X76939934Y-56621701D01*
X77000073Y-56269873D01*
X77000853Y-56263133D01*
X77022740Y-55905275D01*
X77022856Y-55901673D01*
X77022926Y-55881820D01*
X77022834Y-55878193D01*
X77003446Y-55520208D01*
X77002711Y-55513442D01*
X76945034Y-55161233D01*
X76943567Y-55154561D01*
X76848194Y-54810655D01*
X76846020Y-54804192D01*
X76714053Y-54472575D01*
X76711197Y-54466395D01*
X76544194Y-54150981D01*
X76540682Y-54145137D01*
X76373724Y-53898539D01*
X76363651Y-53890225D01*
X76349677Y-53897430D01*
X74379919Y-55867188D01*
X74372305Y-55881132D01*
X72946459Y-55881132D01*
X72947695Y-55878868D01*
X72947564Y-55877035D01*
X72943313Y-55870420D01*
X70969575Y-53896682D01*
X70958039Y-53890382D01*
X70945756Y-53900006D01*
X70785394Y-54135086D01*
X70781859Y-54140923D01*
X70613754Y-54455757D01*
X70610878Y-54461926D01*
X70477754Y-54793081D01*
X70475561Y-54799521D01*
X70378979Y-55143121D01*
X70377496Y-55149756D01*
X70318589Y-55501773D01*
X70317830Y-55508545D01*
X70297284Y-55864862D01*
X70297260Y-55871657D01*
X69088500Y-55871657D01*
X69088500Y-53178771D01*
X71671382Y-53178771D01*
X71678089Y-53190982D01*
X73647188Y-55160081D01*
X73661132Y-55167695D01*
X73662965Y-55167564D01*
X73669580Y-55163313D01*
X75641910Y-53190983D01*
X75648755Y-53178448D01*
X75640524Y-53167355D01*
X75552958Y-53100649D01*
X75547332Y-53096825D01*
X75241722Y-52912469D01*
X75235710Y-52909272D01*
X74911966Y-52758995D01*
X74905666Y-52756475D01*
X74567595Y-52642045D01*
X74561017Y-52640209D01*
X74212592Y-52562965D01*
X74205857Y-52561850D01*
X73851106Y-52522685D01*
X73844324Y-52522306D01*
X73487395Y-52521683D01*
X73480622Y-52522038D01*
X73125714Y-52559966D01*
X73119005Y-52561053D01*
X72770289Y-52637086D01*
X72763714Y-52638897D01*
X72425250Y-52752145D01*
X72418928Y-52754648D01*
X72094680Y-52903785D01*
X72088637Y-52906971D01*
X71782404Y-53090248D01*
X71776744Y-53094066D01*
X71679841Y-53167354D01*
X71671382Y-53178771D01*
X69088500Y-53178771D01*
X69088500Y-51434500D01*
X69108502Y-51366379D01*
X69162158Y-51319886D01*
X69214500Y-51308500D01*
X194945500Y-51308500D01*
X195013621Y-51328502D01*
G37*
G04 #@! TD.AperFunction*
M02*
