G04 #@! TF.GenerationSoftware,KiCad,Pcbnew,(5.1.9)-1*
G04 #@! TF.CreationDate,2021-06-30T23:09:52-04:00*
G04 #@! TF.ProjectId,C64PowerSupply,43363450-6f77-4657-9253-7570706c792e,A*
G04 #@! TF.SameCoordinates,Original*
G04 #@! TF.FileFunction,Copper,L2,Bot*
G04 #@! TF.FilePolarity,Positive*
%FSLAX46Y46*%
G04 Gerber Fmt 4.6, Leading zero omitted, Abs format (unit mm)*
G04 Created by KiCad (PCBNEW (5.1.9)-1) date 2021-06-30 23:09:52*
%MOMM*%
%LPD*%
G01*
G04 APERTURE LIST*
G04 #@! TA.AperFunction,ComponentPad*
%ADD10C,2.600000*%
G04 #@! TD*
G04 #@! TA.AperFunction,ComponentPad*
%ADD11R,2.600000X2.600000*%
G04 #@! TD*
G04 #@! TA.AperFunction,ComponentPad*
%ADD12C,1.440000*%
G04 #@! TD*
G04 #@! TA.AperFunction,ComponentPad*
%ADD13C,2.500000*%
G04 #@! TD*
G04 #@! TA.AperFunction,ComponentPad*
%ADD14C,5.700000*%
G04 #@! TD*
G04 #@! TA.AperFunction,ComponentPad*
%ADD15C,2.400000*%
G04 #@! TD*
G04 #@! TA.AperFunction,ComponentPad*
%ADD16C,0.100000*%
G04 #@! TD*
G04 #@! TA.AperFunction,ComponentPad*
%ADD17C,1.600000*%
G04 #@! TD*
G04 #@! TA.AperFunction,ComponentPad*
%ADD18R,1.600000X1.600000*%
G04 #@! TD*
G04 #@! TA.AperFunction,ComponentPad*
%ADD19O,1.800000X1.800000*%
G04 #@! TD*
G04 #@! TA.AperFunction,ComponentPad*
%ADD20R,1.800000X1.800000*%
G04 #@! TD*
G04 #@! TA.AperFunction,ComponentPad*
%ADD21R,2.400000X2.400000*%
G04 #@! TD*
G04 #@! TA.AperFunction,ComponentPad*
%ADD22R,1.700000X2.500000*%
G04 #@! TD*
G04 #@! TA.AperFunction,ComponentPad*
%ADD23O,1.700000X2.500000*%
G04 #@! TD*
G04 #@! TA.AperFunction,Conductor*
%ADD24C,1.000000*%
G04 #@! TD*
G04 #@! TA.AperFunction,Conductor*
%ADD25C,1.200000*%
G04 #@! TD*
G04 #@! TA.AperFunction,Conductor*
%ADD26C,0.250000*%
G04 #@! TD*
G04 #@! TA.AperFunction,Conductor*
%ADD27C,0.254000*%
G04 #@! TD*
G04 #@! TA.AperFunction,Conductor*
%ADD28C,0.100000*%
G04 #@! TD*
G04 APERTURE END LIST*
D10*
X191008000Y-89648000D03*
X191008000Y-94648000D03*
X191008000Y-99648000D03*
D11*
X191008000Y-104648000D03*
D10*
X75692000Y-112108000D03*
X75692000Y-107108000D03*
D11*
X75692000Y-102108000D03*
D12*
X179324000Y-95504000D03*
X181864000Y-92964000D03*
X179324000Y-90424000D03*
D13*
X149352000Y-70725000D03*
X149352000Y-85725000D03*
X149225000Y-107428000D03*
X149225000Y-122428000D03*
D14*
X73660000Y-121920000D03*
X190500000Y-121920000D03*
X190500000Y-71120000D03*
X73660000Y-71120000D03*
D15*
X161448175Y-104156753D03*
G04 #@! TA.AperFunction,ComponentPad*
D16*
G36*
X153670000Y-94822944D02*
G01*
X155367056Y-96520000D01*
X153670000Y-98217056D01*
X151972944Y-96520000D01*
X153670000Y-94822944D01*
G37*
G04 #@! TD.AperFunction*
D15*
X161377464Y-88812536D03*
X169084928Y-96520000D03*
G04 #@! TA.AperFunction,SMDPad,CuDef*
G36*
G01*
X184346001Y-97136000D02*
X183445999Y-97136000D01*
G75*
G02*
X183196000Y-96886001I0J249999D01*
G01*
X183196000Y-96185999D01*
G75*
G02*
X183445999Y-95936000I249999J0D01*
G01*
X184346001Y-95936000D01*
G75*
G02*
X184596000Y-96185999I0J-249999D01*
G01*
X184596000Y-96886001D01*
G75*
G02*
X184346001Y-97136000I-249999J0D01*
G01*
G37*
G04 #@! TD.AperFunction*
G04 #@! TA.AperFunction,SMDPad,CuDef*
G36*
G01*
X184346001Y-99136000D02*
X183445999Y-99136000D01*
G75*
G02*
X183196000Y-98886001I0J249999D01*
G01*
X183196000Y-98185999D01*
G75*
G02*
X183445999Y-97936000I249999J0D01*
G01*
X184346001Y-97936000D01*
G75*
G02*
X184596000Y-98185999I0J-249999D01*
G01*
X184596000Y-98886001D01*
G75*
G02*
X184346001Y-99136000I-249999J0D01*
G01*
G37*
G04 #@! TD.AperFunction*
G04 #@! TA.AperFunction,SMDPad,CuDef*
G36*
G01*
X181413999Y-97936000D02*
X182314001Y-97936000D01*
G75*
G02*
X182564000Y-98185999I0J-249999D01*
G01*
X182564000Y-98886001D01*
G75*
G02*
X182314001Y-99136000I-249999J0D01*
G01*
X181413999Y-99136000D01*
G75*
G02*
X181164000Y-98886001I0J249999D01*
G01*
X181164000Y-98185999D01*
G75*
G02*
X181413999Y-97936000I249999J0D01*
G01*
G37*
G04 #@! TD.AperFunction*
G04 #@! TA.AperFunction,SMDPad,CuDef*
G36*
G01*
X181413999Y-95936000D02*
X182314001Y-95936000D01*
G75*
G02*
X182564000Y-96185999I0J-249999D01*
G01*
X182564000Y-96886001D01*
G75*
G02*
X182314001Y-97136000I-249999J0D01*
G01*
X181413999Y-97136000D01*
G75*
G02*
X181164000Y-96886001I0J249999D01*
G01*
X181164000Y-96185999D01*
G75*
G02*
X181413999Y-95936000I249999J0D01*
G01*
G37*
G04 #@! TD.AperFunction*
D17*
X191460000Y-113284000D03*
D18*
X187960000Y-113284000D03*
D19*
X173540000Y-102108000D03*
X175240000Y-105808000D03*
X176940000Y-102108000D03*
X178640000Y-105808000D03*
D20*
X180340000Y-102108000D03*
D17*
X170744000Y-88900000D03*
D18*
X174244000Y-88900000D03*
D15*
X181864000Y-75812000D03*
D21*
X181864000Y-83312000D03*
D15*
X164084000Y-72256000D03*
D21*
X164084000Y-79756000D03*
D15*
X74676000Y-80250000D03*
X74676000Y-95250000D03*
D22*
X83820000Y-121920000D03*
D23*
X83790000Y-116840000D03*
X83790000Y-71120000D03*
X139700000Y-68580000D03*
X139700000Y-73660000D03*
X139700000Y-119380000D03*
X139730000Y-124460000D03*
X83820000Y-76200000D03*
D24*
X74676000Y-120904000D02*
X73660000Y-121920000D01*
X191460000Y-112152630D02*
X187851360Y-108543990D01*
X191460000Y-113284000D02*
X191460000Y-112152630D01*
X190500000Y-114244000D02*
X191460000Y-113284000D01*
X190500000Y-121920000D02*
X190500000Y-114244000D01*
X69629492Y-121920000D02*
X69605010Y-121895518D01*
X73660000Y-121920000D02*
X69629492Y-121920000D01*
X73152000Y-70612000D02*
X73660000Y-71120000D01*
X69605010Y-70612000D02*
X73152000Y-70612000D01*
X70104000Y-112268000D02*
X69605010Y-111769010D01*
X74676000Y-112268000D02*
X70104000Y-112268000D01*
X69605010Y-121895518D02*
X69605010Y-111769010D01*
X124818934Y-99717066D02*
X157629066Y-99717066D01*
X69605010Y-111769010D02*
X69605010Y-70612000D01*
X173540000Y-102108000D02*
X176940000Y-102108000D01*
X191008000Y-89916000D02*
X187851360Y-93072640D01*
X187436000Y-96536000D02*
X187851360Y-96120640D01*
X183896000Y-96536000D02*
X187436000Y-96536000D01*
X187851360Y-96120640D02*
X187851360Y-108543990D01*
X187851360Y-93072640D02*
X187851360Y-96120640D01*
D25*
X169173866Y-108543990D02*
X187851360Y-108543990D01*
X169084928Y-108632928D02*
X169173866Y-108543990D01*
X169164000Y-102108000D02*
X169084928Y-102028928D01*
X173540000Y-102108000D02*
X169164000Y-102108000D01*
X169084928Y-102028928D02*
X169084928Y-108632928D01*
X169084928Y-96520000D02*
X169084928Y-102028928D01*
X178308000Y-72256000D02*
X182372000Y-76320000D01*
X164592000Y-72256000D02*
X178308000Y-72256000D01*
X185300000Y-76320000D02*
X190500000Y-71120000D01*
X182372000Y-76320000D02*
X185300000Y-76320000D01*
X190500000Y-89408000D02*
X191008000Y-89916000D01*
X190500000Y-71120000D02*
X190500000Y-89408000D01*
X160826132Y-96520000D02*
X157629066Y-99717066D01*
X169084928Y-96520000D02*
X160826132Y-96520000D01*
X110347999Y-99770001D02*
X110295064Y-99717066D01*
X157576131Y-99770001D02*
X110347999Y-99770001D01*
X157629066Y-99717066D02*
X157576131Y-99770001D01*
X110199999Y-99770001D02*
X108612988Y-98182990D01*
X110347999Y-99770001D02*
X110199999Y-99770001D01*
X69853010Y-98182990D02*
X69705010Y-98034990D01*
X108612988Y-98182990D02*
X69853010Y-98182990D01*
X147080000Y-107428000D02*
X149225000Y-107428000D01*
X137160000Y-117348000D02*
X147080000Y-107428000D01*
X137160000Y-121890000D02*
X137160000Y-117348000D01*
X139730000Y-124460000D02*
X137160000Y-121890000D01*
D26*
X175580000Y-105808000D02*
X175240000Y-105808000D01*
X175240000Y-105808000D02*
X175497002Y-105808000D01*
X183896000Y-98536000D02*
X181864000Y-98536000D01*
X175240000Y-105808000D02*
X176908000Y-104140000D01*
X182372000Y-104140000D02*
X183896000Y-102616000D01*
X176908000Y-104140000D02*
X182372000Y-104140000D01*
X183896000Y-102616000D02*
X183896000Y-98536000D01*
D25*
X194450001Y-103518001D02*
X191008000Y-100076000D01*
X194450001Y-123867000D02*
X194450001Y-103518001D01*
X192447000Y-125870001D02*
X194450001Y-123867000D01*
X145174001Y-125870001D02*
X192447000Y-125870001D01*
X139700000Y-120396000D02*
X145174001Y-125870001D01*
X139700000Y-119380000D02*
X139700000Y-120396000D01*
D26*
X180832000Y-95504000D02*
X181864000Y-96536000D01*
X179324000Y-95504000D02*
X180832000Y-95504000D01*
D27*
X139408889Y-66716487D02*
X139128966Y-66801401D01*
X138870986Y-66939294D01*
X138644866Y-67124866D01*
X138459294Y-67350987D01*
X138321401Y-67608967D01*
X138236487Y-67888890D01*
X138215000Y-68107051D01*
X138215000Y-69052950D01*
X138236487Y-69271111D01*
X138321401Y-69551034D01*
X138459294Y-69809014D01*
X138644866Y-70035134D01*
X138870987Y-70220706D01*
X139128967Y-70358599D01*
X139408890Y-70443513D01*
X139700000Y-70472185D01*
X139991111Y-70443513D01*
X140271034Y-70358599D01*
X140529014Y-70220706D01*
X140755134Y-70035134D01*
X140940706Y-69809014D01*
X141078599Y-69551034D01*
X141163513Y-69271111D01*
X141185000Y-69052949D01*
X141185000Y-68667967D01*
X188227572Y-68667967D01*
X190500000Y-70940395D01*
X192772428Y-68667967D01*
X192454243Y-68214150D01*
X191849790Y-67888731D01*
X191193465Y-67687488D01*
X190510490Y-67618155D01*
X189827112Y-67683395D01*
X189169593Y-67880702D01*
X188563201Y-68202494D01*
X188545757Y-68214150D01*
X188227572Y-68667967D01*
X141185000Y-68667967D01*
X141185000Y-68107050D01*
X141163513Y-67888889D01*
X141078599Y-67608966D01*
X140940706Y-67350986D01*
X140755134Y-67124866D01*
X140529013Y-66939294D01*
X140271033Y-66801401D01*
X139991110Y-66716487D01*
X139823716Y-66700000D01*
X194920000Y-66700000D01*
X194920001Y-102241447D01*
X192872344Y-100193791D01*
X192943000Y-99838581D01*
X192943000Y-99457419D01*
X192868639Y-99083581D01*
X192722775Y-98731434D01*
X192511013Y-98414509D01*
X192241491Y-98144987D01*
X191924566Y-97933225D01*
X191572419Y-97787361D01*
X191198581Y-97713000D01*
X190817419Y-97713000D01*
X190443581Y-97787361D01*
X190091434Y-97933225D01*
X189774509Y-98144987D01*
X189504987Y-98414509D01*
X189293225Y-98731434D01*
X189147361Y-99083581D01*
X189073000Y-99457419D01*
X189073000Y-99838581D01*
X189147361Y-100212419D01*
X189293225Y-100564566D01*
X189504987Y-100881491D01*
X189774509Y-101151013D01*
X190091434Y-101362775D01*
X190443581Y-101508639D01*
X190756287Y-101570840D01*
X191895374Y-102709928D01*
X189708000Y-102709928D01*
X189583518Y-102722188D01*
X189463820Y-102758498D01*
X189353506Y-102817463D01*
X189256815Y-102896815D01*
X189177463Y-102993506D01*
X189118498Y-103103820D01*
X189082188Y-103223518D01*
X189069928Y-103348000D01*
X189069928Y-105948000D01*
X189082188Y-106072482D01*
X189118498Y-106192180D01*
X189177463Y-106302494D01*
X189256815Y-106399185D01*
X189353506Y-106478537D01*
X189463820Y-106537502D01*
X189583518Y-106573812D01*
X189708000Y-106586072D01*
X192308000Y-106586072D01*
X192432482Y-106573812D01*
X192552180Y-106537502D01*
X192662494Y-106478537D01*
X192759185Y-106399185D01*
X192838537Y-106302494D01*
X192897502Y-106192180D01*
X192933812Y-106072482D01*
X192946072Y-105948000D01*
X192946072Y-103760626D01*
X193215002Y-104029556D01*
X193215001Y-119831947D01*
X192952033Y-119647572D01*
X190679605Y-121920000D01*
X190693748Y-121934143D01*
X190514143Y-122113748D01*
X190500000Y-122099605D01*
X188227572Y-124372033D01*
X188411947Y-124635001D01*
X145685555Y-124635001D01*
X143292898Y-122242344D01*
X147340000Y-122242344D01*
X147340000Y-122613656D01*
X147412439Y-122977834D01*
X147554534Y-123320882D01*
X147760825Y-123629618D01*
X148023382Y-123892175D01*
X148332118Y-124098466D01*
X148675166Y-124240561D01*
X149039344Y-124313000D01*
X149410656Y-124313000D01*
X149774834Y-124240561D01*
X150117882Y-124098466D01*
X150426618Y-123892175D01*
X150689175Y-123629618D01*
X150895466Y-123320882D01*
X151037561Y-122977834D01*
X151110000Y-122613656D01*
X151110000Y-122242344D01*
X151037561Y-121878166D01*
X150895466Y-121535118D01*
X150689175Y-121226382D01*
X150426618Y-120963825D01*
X150117882Y-120757534D01*
X149774834Y-120615439D01*
X149410656Y-120543000D01*
X149039344Y-120543000D01*
X148675166Y-120615439D01*
X148332118Y-120757534D01*
X148023382Y-120963825D01*
X147760825Y-121226382D01*
X147554534Y-121535118D01*
X147412439Y-121878166D01*
X147340000Y-122242344D01*
X143292898Y-122242344D01*
X141153773Y-120103220D01*
X141163513Y-120071111D01*
X141185000Y-119852949D01*
X141185000Y-118907050D01*
X141163513Y-118688889D01*
X141078599Y-118408966D01*
X140940706Y-118150986D01*
X140755134Y-117924866D01*
X140529013Y-117739294D01*
X140271033Y-117601401D01*
X139991110Y-117516487D01*
X139700000Y-117487815D01*
X139408889Y-117516487D01*
X139128966Y-117601401D01*
X138870986Y-117739294D01*
X138644866Y-117924866D01*
X138459294Y-118150987D01*
X138395000Y-118271273D01*
X138395000Y-117859553D01*
X145510553Y-110744000D01*
X155829000Y-110744000D01*
X155829000Y-121920000D01*
X155831440Y-121944776D01*
X155838667Y-121968601D01*
X155850403Y-121990557D01*
X155866197Y-122009803D01*
X155885443Y-122025597D01*
X155907399Y-122037333D01*
X155931224Y-122044560D01*
X155956000Y-122047000D01*
X167132000Y-122047000D01*
X167156776Y-122044560D01*
X167180601Y-122037333D01*
X167202557Y-122025597D01*
X167221803Y-122009803D01*
X167237597Y-121990557D01*
X167249333Y-121968601D01*
X167256560Y-121944776D01*
X167259000Y-121920000D01*
X167259000Y-121909510D01*
X186998155Y-121909510D01*
X187063395Y-122592888D01*
X187260702Y-123250407D01*
X187582494Y-123856799D01*
X187594150Y-123874243D01*
X188047967Y-124192428D01*
X190320395Y-121920000D01*
X188047967Y-119647572D01*
X187594150Y-119965757D01*
X187268731Y-120570210D01*
X187067488Y-121226535D01*
X186998155Y-121909510D01*
X167259000Y-121909510D01*
X167259000Y-119467967D01*
X188227572Y-119467967D01*
X190500000Y-121740395D01*
X192772428Y-119467967D01*
X192454243Y-119014150D01*
X191849790Y-118688731D01*
X191193465Y-118487488D01*
X190510490Y-118418155D01*
X189827112Y-118483395D01*
X189169593Y-118680702D01*
X188563201Y-119002494D01*
X188545757Y-119014150D01*
X188227572Y-119467967D01*
X167259000Y-119467967D01*
X167259000Y-114004520D01*
X169672000Y-114004520D01*
X169672000Y-114392280D01*
X169747648Y-114772590D01*
X169896038Y-115130835D01*
X170111466Y-115453246D01*
X170385654Y-115727434D01*
X170708065Y-115942862D01*
X171066310Y-116091252D01*
X171446620Y-116166900D01*
X171834380Y-116166900D01*
X172214690Y-116091252D01*
X172572935Y-115942862D01*
X172895346Y-115727434D01*
X173169534Y-115453246D01*
X173384962Y-115130835D01*
X173533352Y-114772590D01*
X173609000Y-114392280D01*
X173609000Y-114004520D01*
X179959000Y-114004520D01*
X179959000Y-114392280D01*
X180034648Y-114772590D01*
X180183038Y-115130835D01*
X180398466Y-115453246D01*
X180672654Y-115727434D01*
X180995065Y-115942862D01*
X181353310Y-116091252D01*
X181733620Y-116166900D01*
X182121380Y-116166900D01*
X182501690Y-116091252D01*
X182859935Y-115942862D01*
X183182346Y-115727434D01*
X183456534Y-115453246D01*
X183671962Y-115130835D01*
X183820352Y-114772590D01*
X183896000Y-114392280D01*
X183896000Y-114004520D01*
X183820352Y-113624210D01*
X183671962Y-113265965D01*
X183456534Y-112943554D01*
X183182346Y-112669366D01*
X182904926Y-112484000D01*
X186521928Y-112484000D01*
X186521928Y-114084000D01*
X186534188Y-114208482D01*
X186570498Y-114328180D01*
X186629463Y-114438494D01*
X186708815Y-114535185D01*
X186805506Y-114614537D01*
X186915820Y-114673502D01*
X187035518Y-114709812D01*
X187160000Y-114722072D01*
X188760000Y-114722072D01*
X188884482Y-114709812D01*
X189004180Y-114673502D01*
X189114494Y-114614537D01*
X189211185Y-114535185D01*
X189290537Y-114438494D01*
X189349502Y-114328180D01*
X189365117Y-114276702D01*
X190646903Y-114276702D01*
X190718486Y-114520671D01*
X190973996Y-114641571D01*
X191248184Y-114710300D01*
X191530512Y-114724217D01*
X191810130Y-114682787D01*
X192076292Y-114587603D01*
X192201514Y-114520671D01*
X192273097Y-114276702D01*
X191460000Y-113463605D01*
X190646903Y-114276702D01*
X189365117Y-114276702D01*
X189385812Y-114208482D01*
X189398072Y-114084000D01*
X189398072Y-113354512D01*
X190019783Y-113354512D01*
X190061213Y-113634130D01*
X190156397Y-113900292D01*
X190223329Y-114025514D01*
X190467298Y-114097097D01*
X191280395Y-113284000D01*
X191639605Y-113284000D01*
X192452702Y-114097097D01*
X192696671Y-114025514D01*
X192817571Y-113770004D01*
X192886300Y-113495816D01*
X192900217Y-113213488D01*
X192858787Y-112933870D01*
X192763603Y-112667708D01*
X192696671Y-112542486D01*
X192452702Y-112470903D01*
X191639605Y-113284000D01*
X191280395Y-113284000D01*
X190467298Y-112470903D01*
X190223329Y-112542486D01*
X190102429Y-112797996D01*
X190033700Y-113072184D01*
X190019783Y-113354512D01*
X189398072Y-113354512D01*
X189398072Y-112484000D01*
X189385812Y-112359518D01*
X189365118Y-112291298D01*
X190646903Y-112291298D01*
X191460000Y-113104395D01*
X192273097Y-112291298D01*
X192201514Y-112047329D01*
X191946004Y-111926429D01*
X191671816Y-111857700D01*
X191389488Y-111843783D01*
X191109870Y-111885213D01*
X190843708Y-111980397D01*
X190718486Y-112047329D01*
X190646903Y-112291298D01*
X189365118Y-112291298D01*
X189349502Y-112239820D01*
X189290537Y-112129506D01*
X189211185Y-112032815D01*
X189114494Y-111953463D01*
X189004180Y-111894498D01*
X188884482Y-111858188D01*
X188760000Y-111845928D01*
X187160000Y-111845928D01*
X187035518Y-111858188D01*
X186915820Y-111894498D01*
X186805506Y-111953463D01*
X186708815Y-112032815D01*
X186629463Y-112129506D01*
X186570498Y-112239820D01*
X186534188Y-112359518D01*
X186521928Y-112484000D01*
X182904926Y-112484000D01*
X182859935Y-112453938D01*
X182501690Y-112305548D01*
X182121380Y-112229900D01*
X181733620Y-112229900D01*
X181353310Y-112305548D01*
X180995065Y-112453938D01*
X180672654Y-112669366D01*
X180398466Y-112943554D01*
X180183038Y-113265965D01*
X180034648Y-113624210D01*
X179959000Y-114004520D01*
X173609000Y-114004520D01*
X173533352Y-113624210D01*
X173384962Y-113265965D01*
X173169534Y-112943554D01*
X172895346Y-112669366D01*
X172572935Y-112453938D01*
X172214690Y-112305548D01*
X171834380Y-112229900D01*
X171446620Y-112229900D01*
X171066310Y-112305548D01*
X170708065Y-112453938D01*
X170385654Y-112669366D01*
X170111466Y-112943554D01*
X169896038Y-113265965D01*
X169747648Y-113624210D01*
X169672000Y-114004520D01*
X167259000Y-114004520D01*
X167259000Y-110744000D01*
X167256560Y-110719224D01*
X167249333Y-110695399D01*
X167237597Y-110673443D01*
X167221803Y-110654197D01*
X167202557Y-110638403D01*
X167180601Y-110626667D01*
X167156776Y-110619440D01*
X167132000Y-110617000D01*
X155956000Y-110617000D01*
X155931224Y-110619440D01*
X155907399Y-110626667D01*
X155885443Y-110638403D01*
X155866197Y-110654197D01*
X155850403Y-110673443D01*
X155838667Y-110695399D01*
X155831440Y-110719224D01*
X155829000Y-110744000D01*
X145510553Y-110744000D01*
X147591553Y-108663000D01*
X147794207Y-108663000D01*
X148023382Y-108892175D01*
X148332118Y-109098466D01*
X148675166Y-109240561D01*
X149039344Y-109313000D01*
X149410656Y-109313000D01*
X149774834Y-109240561D01*
X150117882Y-109098466D01*
X150426618Y-108892175D01*
X150689175Y-108629618D01*
X150895466Y-108320882D01*
X151037561Y-107977834D01*
X151110000Y-107613656D01*
X151110000Y-107242344D01*
X151037561Y-106878166D01*
X150895466Y-106535118D01*
X150689175Y-106226382D01*
X150426618Y-105963825D01*
X150117882Y-105757534D01*
X149774834Y-105615439D01*
X149410656Y-105543000D01*
X149039344Y-105543000D01*
X148675166Y-105615439D01*
X148332118Y-105757534D01*
X148023382Y-105963825D01*
X147794207Y-106193000D01*
X147140665Y-106193000D01*
X147080000Y-106187025D01*
X147019335Y-106193000D01*
X146837898Y-106210870D01*
X146605099Y-106281489D01*
X146390551Y-106396167D01*
X146202498Y-106550498D01*
X146163821Y-106597626D01*
X136329621Y-116431826D01*
X136282499Y-116470498D01*
X136128168Y-116658551D01*
X136013490Y-116873099D01*
X136013489Y-116873101D01*
X135942870Y-117105898D01*
X135919025Y-117348000D01*
X135925001Y-117408675D01*
X135925000Y-121829335D01*
X135919025Y-121890000D01*
X135925000Y-121950664D01*
X135942870Y-122132101D01*
X136013489Y-122364900D01*
X136128167Y-122579448D01*
X136282498Y-122767502D01*
X136329625Y-122806178D01*
X138245000Y-124721554D01*
X138245000Y-124932950D01*
X138266487Y-125151111D01*
X138351401Y-125431034D01*
X138489294Y-125689014D01*
X138674866Y-125915134D01*
X138900987Y-126100706D01*
X139158967Y-126238599D01*
X139438890Y-126323513D01*
X139606284Y-126340000D01*
X89535000Y-126340000D01*
X89535000Y-103976021D01*
X159613175Y-103976021D01*
X159613175Y-104337485D01*
X159683693Y-104692003D01*
X159822019Y-105025952D01*
X160022837Y-105326497D01*
X160278431Y-105582091D01*
X160578976Y-105782909D01*
X160912925Y-105921235D01*
X161267443Y-105991753D01*
X161628907Y-105991753D01*
X161983425Y-105921235D01*
X162317374Y-105782909D01*
X162506085Y-105656816D01*
X173705000Y-105656816D01*
X173705000Y-105959184D01*
X173763989Y-106255743D01*
X173879701Y-106535095D01*
X174047688Y-106786505D01*
X174261495Y-107000312D01*
X174512905Y-107168299D01*
X174792257Y-107284011D01*
X175088816Y-107343000D01*
X175391184Y-107343000D01*
X175687743Y-107284011D01*
X175967095Y-107168299D01*
X176218505Y-107000312D01*
X176432312Y-106786505D01*
X176600299Y-106535095D01*
X176716011Y-106255743D01*
X176775000Y-105959184D01*
X176775000Y-105656816D01*
X176723731Y-105399070D01*
X177222802Y-104900000D01*
X177400578Y-104900000D01*
X177279701Y-105080905D01*
X177163989Y-105360257D01*
X177105000Y-105656816D01*
X177105000Y-105959184D01*
X177163989Y-106255743D01*
X177279701Y-106535095D01*
X177447688Y-106786505D01*
X177661495Y-107000312D01*
X177912905Y-107168299D01*
X178192257Y-107284011D01*
X178488816Y-107343000D01*
X178791184Y-107343000D01*
X179087743Y-107284011D01*
X179367095Y-107168299D01*
X179618505Y-107000312D01*
X179832312Y-106786505D01*
X180000299Y-106535095D01*
X180116011Y-106255743D01*
X180175000Y-105959184D01*
X180175000Y-105656816D01*
X180116011Y-105360257D01*
X180000299Y-105080905D01*
X179879422Y-104900000D01*
X182334678Y-104900000D01*
X182372000Y-104903676D01*
X182409322Y-104900000D01*
X182409333Y-104900000D01*
X182520986Y-104889003D01*
X182664247Y-104845546D01*
X182796276Y-104774974D01*
X182912001Y-104680001D01*
X182935803Y-104650998D01*
X184407009Y-103179794D01*
X184436001Y-103156001D01*
X184459795Y-103127008D01*
X184459799Y-103127004D01*
X184530973Y-103040277D01*
X184530974Y-103040276D01*
X184601546Y-102908247D01*
X184645003Y-102764986D01*
X184656000Y-102653333D01*
X184656000Y-102653324D01*
X184659676Y-102616001D01*
X184656000Y-102578678D01*
X184656000Y-99715527D01*
X184685851Y-99706472D01*
X184839387Y-99624405D01*
X184973962Y-99513962D01*
X185084405Y-99379387D01*
X185166472Y-99225851D01*
X185217008Y-99059255D01*
X185234072Y-98886001D01*
X185234072Y-98185999D01*
X185217008Y-98012745D01*
X185166472Y-97846149D01*
X185084405Y-97692613D01*
X185017724Y-97611363D01*
X185047185Y-97587185D01*
X185126537Y-97490494D01*
X185185502Y-97380180D01*
X185221812Y-97260482D01*
X185234072Y-97136000D01*
X185231000Y-96821750D01*
X185072250Y-96663000D01*
X184023000Y-96663000D01*
X184023000Y-96683000D01*
X183769000Y-96683000D01*
X183769000Y-96663000D01*
X183749000Y-96663000D01*
X183749000Y-96409000D01*
X183769000Y-96409000D01*
X183769000Y-95459750D01*
X184023000Y-95459750D01*
X184023000Y-96409000D01*
X185072250Y-96409000D01*
X185231000Y-96250250D01*
X185234072Y-95936000D01*
X185221812Y-95811518D01*
X185185502Y-95691820D01*
X185126537Y-95581506D01*
X185047185Y-95484815D01*
X184950494Y-95405463D01*
X184840180Y-95346498D01*
X184720482Y-95310188D01*
X184596000Y-95297928D01*
X184181750Y-95301000D01*
X184023000Y-95459750D01*
X183769000Y-95459750D01*
X183610250Y-95301000D01*
X183196000Y-95297928D01*
X183071518Y-95310188D01*
X182951820Y-95346498D01*
X182841506Y-95405463D01*
X182796959Y-95442021D01*
X182653851Y-95365528D01*
X182487255Y-95314992D01*
X182314001Y-95297928D01*
X181700730Y-95297928D01*
X181395803Y-94993002D01*
X181372001Y-94963999D01*
X181256276Y-94869026D01*
X181124247Y-94798454D01*
X180980986Y-94754997D01*
X180869333Y-94744000D01*
X180869322Y-94744000D01*
X180832000Y-94740324D01*
X180794678Y-94744000D01*
X180445828Y-94744000D01*
X180376497Y-94640238D01*
X180193678Y-94457419D01*
X189073000Y-94457419D01*
X189073000Y-94838581D01*
X189147361Y-95212419D01*
X189293225Y-95564566D01*
X189504987Y-95881491D01*
X189774509Y-96151013D01*
X190091434Y-96362775D01*
X190443581Y-96508639D01*
X190817419Y-96583000D01*
X191198581Y-96583000D01*
X191572419Y-96508639D01*
X191924566Y-96362775D01*
X192241491Y-96151013D01*
X192511013Y-95881491D01*
X192722775Y-95564566D01*
X192868639Y-95212419D01*
X192943000Y-94838581D01*
X192943000Y-94457419D01*
X192868639Y-94083581D01*
X192722775Y-93731434D01*
X192511013Y-93414509D01*
X192241491Y-93144987D01*
X191924566Y-92933225D01*
X191572419Y-92787361D01*
X191198581Y-92713000D01*
X190817419Y-92713000D01*
X190443581Y-92787361D01*
X190091434Y-92933225D01*
X189774509Y-93144987D01*
X189504987Y-93414509D01*
X189293225Y-93731434D01*
X189147361Y-94083581D01*
X189073000Y-94457419D01*
X180193678Y-94457419D01*
X180187762Y-94451503D01*
X179965833Y-94303215D01*
X179719239Y-94201072D01*
X179457456Y-94149000D01*
X179190544Y-94149000D01*
X178928761Y-94201072D01*
X178682167Y-94303215D01*
X178460238Y-94451503D01*
X178271503Y-94640238D01*
X178123215Y-94862167D01*
X178021072Y-95108761D01*
X177969000Y-95370544D01*
X177969000Y-95637456D01*
X178021072Y-95899239D01*
X178123215Y-96145833D01*
X178271503Y-96367762D01*
X178460238Y-96556497D01*
X178682167Y-96704785D01*
X178928761Y-96806928D01*
X179190544Y-96859000D01*
X179457456Y-96859000D01*
X179719239Y-96806928D01*
X179965833Y-96704785D01*
X180187762Y-96556497D01*
X180376497Y-96367762D01*
X180445828Y-96264000D01*
X180517199Y-96264000D01*
X180525928Y-96272729D01*
X180525928Y-96886001D01*
X180542992Y-97059255D01*
X180593528Y-97225851D01*
X180675595Y-97379387D01*
X180786038Y-97513962D01*
X180812891Y-97536000D01*
X180786038Y-97558038D01*
X180675595Y-97692613D01*
X180593528Y-97846149D01*
X180542992Y-98012745D01*
X180525928Y-98185999D01*
X180525928Y-98886001D01*
X180542992Y-99059255D01*
X180593528Y-99225851D01*
X180675595Y-99379387D01*
X180786038Y-99513962D01*
X180920613Y-99624405D01*
X181074149Y-99706472D01*
X181240745Y-99757008D01*
X181413999Y-99774072D01*
X182314001Y-99774072D01*
X182487255Y-99757008D01*
X182653851Y-99706472D01*
X182807387Y-99624405D01*
X182880000Y-99564813D01*
X182952613Y-99624405D01*
X183106149Y-99706472D01*
X183136001Y-99715527D01*
X183136000Y-102301197D01*
X182057199Y-103380000D01*
X181756170Y-103380000D01*
X181770537Y-103362494D01*
X181829502Y-103252180D01*
X181865812Y-103132482D01*
X181878072Y-103008000D01*
X181878072Y-101208000D01*
X181865812Y-101083518D01*
X181829502Y-100963820D01*
X181770537Y-100853506D01*
X181691185Y-100756815D01*
X181594494Y-100677463D01*
X181484180Y-100618498D01*
X181364482Y-100582188D01*
X181240000Y-100569928D01*
X179440000Y-100569928D01*
X179315518Y-100582188D01*
X179195820Y-100618498D01*
X179085506Y-100677463D01*
X178988815Y-100756815D01*
X178909463Y-100853506D01*
X178850498Y-100963820D01*
X178814188Y-101083518D01*
X178801928Y-101208000D01*
X178801928Y-103008000D01*
X178814188Y-103132482D01*
X178850498Y-103252180D01*
X178909463Y-103362494D01*
X178923830Y-103380000D01*
X177790066Y-103380000D01*
X177847573Y-103345962D01*
X178071649Y-103145116D01*
X178252236Y-102904414D01*
X178382394Y-102633107D01*
X178431036Y-102472740D01*
X178310378Y-102235000D01*
X177067000Y-102235000D01*
X177067000Y-102255000D01*
X176813000Y-102255000D01*
X176813000Y-102235000D01*
X175569622Y-102235000D01*
X175448964Y-102472740D01*
X175497606Y-102633107D01*
X175627764Y-102904414D01*
X175808351Y-103145116D01*
X176032427Y-103345962D01*
X176291380Y-103499234D01*
X176430977Y-103548314D01*
X176367999Y-103599999D01*
X176344201Y-103628997D01*
X175648930Y-104324269D01*
X175391184Y-104273000D01*
X175088816Y-104273000D01*
X174792257Y-104331989D01*
X174512905Y-104447701D01*
X174261495Y-104615688D01*
X174047688Y-104829495D01*
X173879701Y-105080905D01*
X173763989Y-105360257D01*
X173705000Y-105656816D01*
X162506085Y-105656816D01*
X162617919Y-105582091D01*
X162873513Y-105326497D01*
X163074331Y-105025952D01*
X163212657Y-104692003D01*
X163283175Y-104337485D01*
X163283175Y-103976021D01*
X163212657Y-103621503D01*
X163074331Y-103287554D01*
X162873513Y-102987009D01*
X162617919Y-102731415D01*
X162317374Y-102530597D01*
X162177695Y-102472740D01*
X172048964Y-102472740D01*
X172097606Y-102633107D01*
X172227764Y-102904414D01*
X172408351Y-103145116D01*
X172632427Y-103345962D01*
X172891380Y-103499234D01*
X173175259Y-103599041D01*
X173413000Y-103478992D01*
X173413000Y-102235000D01*
X173667000Y-102235000D01*
X173667000Y-103478992D01*
X173904741Y-103599041D01*
X174188620Y-103499234D01*
X174447573Y-103345962D01*
X174671649Y-103145116D01*
X174852236Y-102904414D01*
X174982394Y-102633107D01*
X175031036Y-102472740D01*
X174910378Y-102235000D01*
X173667000Y-102235000D01*
X173413000Y-102235000D01*
X172169622Y-102235000D01*
X172048964Y-102472740D01*
X162177695Y-102472740D01*
X161983425Y-102392271D01*
X161628907Y-102321753D01*
X161267443Y-102321753D01*
X160912925Y-102392271D01*
X160578976Y-102530597D01*
X160278431Y-102731415D01*
X160022837Y-102987009D01*
X159822019Y-103287554D01*
X159683693Y-103621503D01*
X159613175Y-103976021D01*
X89535000Y-103976021D01*
X89535000Y-101743260D01*
X172048964Y-101743260D01*
X172169622Y-101981000D01*
X173413000Y-101981000D01*
X173413000Y-100737008D01*
X173667000Y-100737008D01*
X173667000Y-101981000D01*
X174910378Y-101981000D01*
X175031036Y-101743260D01*
X175448964Y-101743260D01*
X175569622Y-101981000D01*
X176813000Y-101981000D01*
X176813000Y-100737008D01*
X177067000Y-100737008D01*
X177067000Y-101981000D01*
X178310378Y-101981000D01*
X178431036Y-101743260D01*
X178382394Y-101582893D01*
X178252236Y-101311586D01*
X178071649Y-101070884D01*
X177847573Y-100870038D01*
X177588620Y-100716766D01*
X177304741Y-100616959D01*
X177067000Y-100737008D01*
X176813000Y-100737008D01*
X176575259Y-100616959D01*
X176291380Y-100716766D01*
X176032427Y-100870038D01*
X175808351Y-101070884D01*
X175627764Y-101311586D01*
X175497606Y-101582893D01*
X175448964Y-101743260D01*
X175031036Y-101743260D01*
X174982394Y-101582893D01*
X174852236Y-101311586D01*
X174671649Y-101070884D01*
X174447573Y-100870038D01*
X174188620Y-100716766D01*
X173904741Y-100616959D01*
X173667000Y-100737008D01*
X173413000Y-100737008D01*
X173175259Y-100616959D01*
X172891380Y-100716766D01*
X172632427Y-100870038D01*
X172408351Y-101070884D01*
X172227764Y-101311586D01*
X172097606Y-101582893D01*
X172048964Y-101743260D01*
X89535000Y-101743260D01*
X89535000Y-96245701D01*
X108975000Y-96245701D01*
X108975000Y-96794299D01*
X109082026Y-97332354D01*
X109291965Y-97839192D01*
X109596750Y-98295334D01*
X109984666Y-98683250D01*
X110440808Y-98988035D01*
X110947646Y-99197974D01*
X111485701Y-99305000D01*
X112034299Y-99305000D01*
X112572354Y-99197974D01*
X113079192Y-98988035D01*
X113535334Y-98683250D01*
X113923250Y-98295334D01*
X114228035Y-97839192D01*
X114437974Y-97332354D01*
X114545000Y-96794299D01*
X114545000Y-96520000D01*
X151334872Y-96520000D01*
X151347132Y-96644482D01*
X151383442Y-96764180D01*
X151442407Y-96874494D01*
X151521759Y-96971185D01*
X153218815Y-98668241D01*
X153315506Y-98747593D01*
X153425820Y-98806558D01*
X153545518Y-98842868D01*
X153670000Y-98855128D01*
X153794482Y-98842868D01*
X153914180Y-98806558D01*
X154024494Y-98747593D01*
X154121185Y-98668241D01*
X155818241Y-96971185D01*
X155849416Y-96933198D01*
X167287942Y-96933198D01*
X167403082Y-97275833D01*
X167582854Y-97589422D01*
X167820350Y-97861913D01*
X168106443Y-98082835D01*
X168430138Y-98243699D01*
X168671730Y-98316986D01*
X168957928Y-98200336D01*
X168957928Y-96647000D01*
X169211928Y-96647000D01*
X169211928Y-98200336D01*
X169498126Y-98316986D01*
X169840761Y-98201846D01*
X170154350Y-98022074D01*
X170426841Y-97784578D01*
X170647763Y-97498485D01*
X170808627Y-97174790D01*
X170881914Y-96933198D01*
X170765264Y-96647000D01*
X169211928Y-96647000D01*
X168957928Y-96647000D01*
X167404592Y-96647000D01*
X167287942Y-96933198D01*
X155849416Y-96933198D01*
X155897593Y-96874494D01*
X155956558Y-96764180D01*
X155992868Y-96644482D01*
X156005128Y-96520000D01*
X155992868Y-96395518D01*
X155956558Y-96275820D01*
X155897593Y-96165506D01*
X155849417Y-96106802D01*
X167287942Y-96106802D01*
X167404592Y-96393000D01*
X168957928Y-96393000D01*
X168957928Y-94839664D01*
X169211928Y-94839664D01*
X169211928Y-96393000D01*
X170765264Y-96393000D01*
X170881914Y-96106802D01*
X170766774Y-95764167D01*
X170587002Y-95450578D01*
X170349506Y-95178087D01*
X170063413Y-94957165D01*
X169739718Y-94796301D01*
X169498126Y-94723014D01*
X169211928Y-94839664D01*
X168957928Y-94839664D01*
X168671730Y-94723014D01*
X168329095Y-94838154D01*
X168015506Y-95017926D01*
X167743015Y-95255422D01*
X167522093Y-95541515D01*
X167361229Y-95865210D01*
X167287942Y-96106802D01*
X155849417Y-96106802D01*
X155818241Y-96068815D01*
X154121185Y-94371759D01*
X154024494Y-94292407D01*
X153914180Y-94233442D01*
X153794482Y-94197132D01*
X153670000Y-94184872D01*
X153545518Y-94197132D01*
X153425820Y-94233442D01*
X153315506Y-94292407D01*
X153218815Y-94371759D01*
X151521759Y-96068815D01*
X151442407Y-96165506D01*
X151383442Y-96275820D01*
X151347132Y-96395518D01*
X151334872Y-96520000D01*
X114545000Y-96520000D01*
X114545000Y-96245701D01*
X114437974Y-95707646D01*
X114228035Y-95200808D01*
X113923250Y-94744666D01*
X113535334Y-94356750D01*
X113079192Y-94051965D01*
X112572354Y-93842026D01*
X112034299Y-93735000D01*
X111485701Y-93735000D01*
X110947646Y-93842026D01*
X110440808Y-94051965D01*
X109984666Y-94356750D01*
X109596750Y-94744666D01*
X109291965Y-95200808D01*
X109082026Y-95707646D01*
X108975000Y-96245701D01*
X89535000Y-96245701D01*
X89535000Y-92830544D01*
X180509000Y-92830544D01*
X180509000Y-93097456D01*
X180561072Y-93359239D01*
X180663215Y-93605833D01*
X180811503Y-93827762D01*
X181000238Y-94016497D01*
X181222167Y-94164785D01*
X181468761Y-94266928D01*
X181730544Y-94319000D01*
X181997456Y-94319000D01*
X182259239Y-94266928D01*
X182505833Y-94164785D01*
X182727762Y-94016497D01*
X182916497Y-93827762D01*
X183064785Y-93605833D01*
X183166928Y-93359239D01*
X183219000Y-93097456D01*
X183219000Y-92830544D01*
X183166928Y-92568761D01*
X183064785Y-92322167D01*
X182916497Y-92100238D01*
X182727762Y-91911503D01*
X182505833Y-91763215D01*
X182259239Y-91661072D01*
X181997456Y-91609000D01*
X181730544Y-91609000D01*
X181468761Y-91661072D01*
X181222167Y-91763215D01*
X181000238Y-91911503D01*
X180811503Y-92100238D01*
X180663215Y-92322167D01*
X180561072Y-92568761D01*
X180509000Y-92830544D01*
X89535000Y-92830544D01*
X89535000Y-88631804D01*
X159542464Y-88631804D01*
X159542464Y-88993268D01*
X159612982Y-89347786D01*
X159751308Y-89681735D01*
X159952126Y-89982280D01*
X160207720Y-90237874D01*
X160508265Y-90438692D01*
X160842214Y-90577018D01*
X161196732Y-90647536D01*
X161558196Y-90647536D01*
X161912714Y-90577018D01*
X162246663Y-90438692D01*
X162547208Y-90237874D01*
X162802802Y-89982280D01*
X162862656Y-89892702D01*
X169930903Y-89892702D01*
X170002486Y-90136671D01*
X170257996Y-90257571D01*
X170532184Y-90326300D01*
X170814512Y-90340217D01*
X171094130Y-90298787D01*
X171360292Y-90203603D01*
X171485514Y-90136671D01*
X171557097Y-89892702D01*
X170744000Y-89079605D01*
X169930903Y-89892702D01*
X162862656Y-89892702D01*
X163003620Y-89681735D01*
X163141946Y-89347786D01*
X163212464Y-88993268D01*
X163212464Y-88970512D01*
X169303783Y-88970512D01*
X169345213Y-89250130D01*
X169440397Y-89516292D01*
X169507329Y-89641514D01*
X169751298Y-89713097D01*
X170564395Y-88900000D01*
X170923605Y-88900000D01*
X171736702Y-89713097D01*
X171980671Y-89641514D01*
X172101571Y-89386004D01*
X172170300Y-89111816D01*
X172184217Y-88829488D01*
X172142787Y-88549870D01*
X172047603Y-88283708D01*
X171980671Y-88158486D01*
X171781340Y-88100000D01*
X172805928Y-88100000D01*
X172805928Y-89700000D01*
X172818188Y-89824482D01*
X172854498Y-89944180D01*
X172913463Y-90054494D01*
X172992815Y-90151185D01*
X173089506Y-90230537D01*
X173199820Y-90289502D01*
X173319518Y-90325812D01*
X173444000Y-90338072D01*
X175044000Y-90338072D01*
X175168482Y-90325812D01*
X175284744Y-90290544D01*
X177969000Y-90290544D01*
X177969000Y-90557456D01*
X178021072Y-90819239D01*
X178123215Y-91065833D01*
X178271503Y-91287762D01*
X178460238Y-91476497D01*
X178682167Y-91624785D01*
X178928761Y-91726928D01*
X179190544Y-91779000D01*
X179457456Y-91779000D01*
X179719239Y-91726928D01*
X179965833Y-91624785D01*
X180187762Y-91476497D01*
X180376497Y-91287762D01*
X180524785Y-91065833D01*
X180553203Y-90997224D01*
X189838381Y-90997224D01*
X189970317Y-91292312D01*
X190311045Y-91463159D01*
X190678557Y-91564250D01*
X191058729Y-91591701D01*
X191436951Y-91544457D01*
X191798690Y-91424333D01*
X192045683Y-91292312D01*
X192177619Y-90997224D01*
X191008000Y-89827605D01*
X189838381Y-90997224D01*
X180553203Y-90997224D01*
X180626928Y-90819239D01*
X180679000Y-90557456D01*
X180679000Y-90290544D01*
X180626928Y-90028761D01*
X180524785Y-89782167D01*
X180469034Y-89698729D01*
X189064299Y-89698729D01*
X189111543Y-90076951D01*
X189231667Y-90438690D01*
X189363688Y-90685683D01*
X189658776Y-90817619D01*
X190828395Y-89648000D01*
X191187605Y-89648000D01*
X192357224Y-90817619D01*
X192652312Y-90685683D01*
X192823159Y-90344955D01*
X192924250Y-89977443D01*
X192951701Y-89597271D01*
X192904457Y-89219049D01*
X192784333Y-88857310D01*
X192652312Y-88610317D01*
X192357224Y-88478381D01*
X191187605Y-89648000D01*
X190828395Y-89648000D01*
X189658776Y-88478381D01*
X189363688Y-88610317D01*
X189192841Y-88951045D01*
X189091750Y-89318557D01*
X189064299Y-89698729D01*
X180469034Y-89698729D01*
X180376497Y-89560238D01*
X180187762Y-89371503D01*
X179965833Y-89223215D01*
X179719239Y-89121072D01*
X179457456Y-89069000D01*
X179190544Y-89069000D01*
X178928761Y-89121072D01*
X178682167Y-89223215D01*
X178460238Y-89371503D01*
X178271503Y-89560238D01*
X178123215Y-89782167D01*
X178021072Y-90028761D01*
X177969000Y-90290544D01*
X175284744Y-90290544D01*
X175288180Y-90289502D01*
X175398494Y-90230537D01*
X175495185Y-90151185D01*
X175574537Y-90054494D01*
X175633502Y-89944180D01*
X175669812Y-89824482D01*
X175682072Y-89700000D01*
X175682072Y-88298776D01*
X189838381Y-88298776D01*
X191008000Y-89468395D01*
X192177619Y-88298776D01*
X192045683Y-88003688D01*
X191704955Y-87832841D01*
X191337443Y-87731750D01*
X190957271Y-87704299D01*
X190579049Y-87751543D01*
X190217310Y-87871667D01*
X189970317Y-88003688D01*
X189838381Y-88298776D01*
X175682072Y-88298776D01*
X175682072Y-88100000D01*
X175669812Y-87975518D01*
X175633502Y-87855820D01*
X175574537Y-87745506D01*
X175495185Y-87648815D01*
X175398494Y-87569463D01*
X175288180Y-87510498D01*
X175168482Y-87474188D01*
X175044000Y-87461928D01*
X173444000Y-87461928D01*
X173319518Y-87474188D01*
X173199820Y-87510498D01*
X173089506Y-87569463D01*
X172992815Y-87648815D01*
X172913463Y-87745506D01*
X172854498Y-87855820D01*
X172818188Y-87975518D01*
X172805928Y-88100000D01*
X171781340Y-88100000D01*
X171736702Y-88086903D01*
X170923605Y-88900000D01*
X170564395Y-88900000D01*
X169751298Y-88086903D01*
X169507329Y-88158486D01*
X169386429Y-88413996D01*
X169317700Y-88688184D01*
X169303783Y-88970512D01*
X163212464Y-88970512D01*
X163212464Y-88631804D01*
X163141946Y-88277286D01*
X163003620Y-87943337D01*
X162979540Y-87907298D01*
X169930903Y-87907298D01*
X170744000Y-88720395D01*
X171557097Y-87907298D01*
X171485514Y-87663329D01*
X171230004Y-87542429D01*
X170955816Y-87473700D01*
X170673488Y-87459783D01*
X170393870Y-87501213D01*
X170127708Y-87596397D01*
X170002486Y-87663329D01*
X169930903Y-87907298D01*
X162979540Y-87907298D01*
X162802802Y-87642792D01*
X162547208Y-87387198D01*
X162246663Y-87186380D01*
X161912714Y-87048054D01*
X161558196Y-86977536D01*
X161196732Y-86977536D01*
X160842214Y-87048054D01*
X160508265Y-87186380D01*
X160207720Y-87387198D01*
X159952126Y-87642792D01*
X159751308Y-87943337D01*
X159612982Y-88277286D01*
X159542464Y-88631804D01*
X89535000Y-88631804D01*
X89535000Y-85539344D01*
X147467000Y-85539344D01*
X147467000Y-85910656D01*
X147539439Y-86274834D01*
X147681534Y-86617882D01*
X147887825Y-86926618D01*
X148150382Y-87189175D01*
X148459118Y-87395466D01*
X148802166Y-87537561D01*
X149166344Y-87610000D01*
X149537656Y-87610000D01*
X149901834Y-87537561D01*
X150244882Y-87395466D01*
X150553618Y-87189175D01*
X150816175Y-86926618D01*
X151022466Y-86617882D01*
X151164561Y-86274834D01*
X151237000Y-85910656D01*
X151237000Y-85539344D01*
X151164561Y-85175166D01*
X151022466Y-84832118D01*
X150816175Y-84523382D01*
X150553618Y-84260825D01*
X150244882Y-84054534D01*
X149901834Y-83912439D01*
X149537656Y-83840000D01*
X149166344Y-83840000D01*
X148802166Y-83912439D01*
X148459118Y-84054534D01*
X148150382Y-84260825D01*
X147887825Y-84523382D01*
X147681534Y-84832118D01*
X147539439Y-85175166D01*
X147467000Y-85539344D01*
X89535000Y-85539344D01*
X89535000Y-82112000D01*
X180025928Y-82112000D01*
X180025928Y-84512000D01*
X180038188Y-84636482D01*
X180074498Y-84756180D01*
X180133463Y-84866494D01*
X180212815Y-84963185D01*
X180309506Y-85042537D01*
X180419820Y-85101502D01*
X180539518Y-85137812D01*
X180664000Y-85150072D01*
X183064000Y-85150072D01*
X183188482Y-85137812D01*
X183308180Y-85101502D01*
X183418494Y-85042537D01*
X183515185Y-84963185D01*
X183594537Y-84866494D01*
X183653502Y-84756180D01*
X183689812Y-84636482D01*
X183702072Y-84512000D01*
X183702072Y-82112000D01*
X183689812Y-81987518D01*
X183653502Y-81867820D01*
X183594537Y-81757506D01*
X183515185Y-81660815D01*
X183418494Y-81581463D01*
X183308180Y-81522498D01*
X183188482Y-81486188D01*
X183064000Y-81473928D01*
X180664000Y-81473928D01*
X180539518Y-81486188D01*
X180419820Y-81522498D01*
X180309506Y-81581463D01*
X180212815Y-81660815D01*
X180133463Y-81757506D01*
X180074498Y-81867820D01*
X180038188Y-81987518D01*
X180025928Y-82112000D01*
X89535000Y-82112000D01*
X89535000Y-78556000D01*
X162245928Y-78556000D01*
X162245928Y-80956000D01*
X162258188Y-81080482D01*
X162294498Y-81200180D01*
X162353463Y-81310494D01*
X162432815Y-81407185D01*
X162529506Y-81486537D01*
X162639820Y-81545502D01*
X162759518Y-81581812D01*
X162884000Y-81594072D01*
X165284000Y-81594072D01*
X165408482Y-81581812D01*
X165528180Y-81545502D01*
X165638494Y-81486537D01*
X165735185Y-81407185D01*
X165814537Y-81310494D01*
X165873502Y-81200180D01*
X165909812Y-81080482D01*
X165922072Y-80956000D01*
X165922072Y-78556000D01*
X165909812Y-78431518D01*
X165873502Y-78311820D01*
X165814537Y-78201506D01*
X165735185Y-78104815D01*
X165638494Y-78025463D01*
X165528180Y-77966498D01*
X165408482Y-77930188D01*
X165284000Y-77917928D01*
X162884000Y-77917928D01*
X162759518Y-77930188D01*
X162639820Y-77966498D01*
X162529506Y-78025463D01*
X162432815Y-78104815D01*
X162353463Y-78201506D01*
X162294498Y-78311820D01*
X162258188Y-78431518D01*
X162245928Y-78556000D01*
X89535000Y-78556000D01*
X89535000Y-77089980D01*
X180765626Y-77089980D01*
X180885514Y-77374836D01*
X181209210Y-77535699D01*
X181558069Y-77630322D01*
X181918684Y-77655067D01*
X182277198Y-77608985D01*
X182619833Y-77493846D01*
X182842486Y-77374836D01*
X182962374Y-77089980D01*
X181864000Y-75991605D01*
X180765626Y-77089980D01*
X89535000Y-77089980D01*
X89535000Y-75866684D01*
X180020933Y-75866684D01*
X180067015Y-76225198D01*
X180182154Y-76567833D01*
X180301164Y-76790486D01*
X180586020Y-76910374D01*
X181684395Y-75812000D01*
X182043605Y-75812000D01*
X183141980Y-76910374D01*
X183426836Y-76790486D01*
X183587699Y-76466790D01*
X183682322Y-76117931D01*
X183707067Y-75757316D01*
X183660985Y-75398802D01*
X183545846Y-75056167D01*
X183426836Y-74833514D01*
X183141980Y-74713626D01*
X182043605Y-75812000D01*
X181684395Y-75812000D01*
X180586020Y-74713626D01*
X180301164Y-74833514D01*
X180140301Y-75157210D01*
X180045678Y-75506069D01*
X180020933Y-75866684D01*
X89535000Y-75866684D01*
X89535000Y-73187051D01*
X138215000Y-73187051D01*
X138215000Y-74132950D01*
X138236487Y-74351111D01*
X138321401Y-74631034D01*
X138459294Y-74889014D01*
X138644866Y-75115134D01*
X138870987Y-75300706D01*
X139128967Y-75438599D01*
X139408890Y-75523513D01*
X139700000Y-75552185D01*
X139991111Y-75523513D01*
X140271034Y-75438599D01*
X140529014Y-75300706D01*
X140755134Y-75115134D01*
X140940706Y-74889014D01*
X141078599Y-74631034D01*
X141108027Y-74534020D01*
X180765626Y-74534020D01*
X181864000Y-75632395D01*
X182962374Y-74534020D01*
X182842486Y-74249164D01*
X182518790Y-74088301D01*
X182169931Y-73993678D01*
X181809316Y-73968933D01*
X181450802Y-74015015D01*
X181108167Y-74130154D01*
X180885514Y-74249164D01*
X180765626Y-74534020D01*
X141108027Y-74534020D01*
X141163513Y-74351111D01*
X141185000Y-74132949D01*
X141185000Y-73533980D01*
X162985626Y-73533980D01*
X163105514Y-73818836D01*
X163429210Y-73979699D01*
X163778069Y-74074322D01*
X164138684Y-74099067D01*
X164497198Y-74052985D01*
X164839833Y-73937846D01*
X165062486Y-73818836D01*
X165166358Y-73572033D01*
X188227572Y-73572033D01*
X188545757Y-74025850D01*
X189150210Y-74351269D01*
X189806535Y-74552512D01*
X190489510Y-74621845D01*
X191172888Y-74556605D01*
X191830407Y-74359298D01*
X192436799Y-74037506D01*
X192454243Y-74025850D01*
X192772428Y-73572033D01*
X190500000Y-71299605D01*
X188227572Y-73572033D01*
X165166358Y-73572033D01*
X165182374Y-73533980D01*
X164084000Y-72435605D01*
X162985626Y-73533980D01*
X141185000Y-73533980D01*
X141185000Y-73187050D01*
X141163513Y-72968889D01*
X141078599Y-72688966D01*
X140940706Y-72430986D01*
X140755134Y-72204866D01*
X140529013Y-72019294D01*
X140271033Y-71881401D01*
X139991110Y-71796487D01*
X139700000Y-71767815D01*
X139408889Y-71796487D01*
X139128966Y-71881401D01*
X138870986Y-72019294D01*
X138644866Y-72204866D01*
X138459294Y-72430987D01*
X138321401Y-72688967D01*
X138236487Y-72968890D01*
X138215000Y-73187051D01*
X89535000Y-73187051D01*
X89535000Y-70539344D01*
X147467000Y-70539344D01*
X147467000Y-70910656D01*
X147539439Y-71274834D01*
X147681534Y-71617882D01*
X147887825Y-71926618D01*
X148150382Y-72189175D01*
X148459118Y-72395466D01*
X148802166Y-72537561D01*
X149166344Y-72610000D01*
X149537656Y-72610000D01*
X149901834Y-72537561D01*
X150244882Y-72395466D01*
X150371767Y-72310684D01*
X162240933Y-72310684D01*
X162287015Y-72669198D01*
X162402154Y-73011833D01*
X162521164Y-73234486D01*
X162806020Y-73354374D01*
X163904395Y-72256000D01*
X164263605Y-72256000D01*
X165361980Y-73354374D01*
X165646836Y-73234486D01*
X165807699Y-72910790D01*
X165902322Y-72561931D01*
X165927067Y-72201316D01*
X165880985Y-71842802D01*
X165765846Y-71500167D01*
X165646836Y-71277514D01*
X165361980Y-71157626D01*
X164263605Y-72256000D01*
X163904395Y-72256000D01*
X162806020Y-71157626D01*
X162521164Y-71277514D01*
X162360301Y-71601210D01*
X162265678Y-71950069D01*
X162240933Y-72310684D01*
X150371767Y-72310684D01*
X150553618Y-72189175D01*
X150816175Y-71926618D01*
X151022466Y-71617882D01*
X151164561Y-71274834D01*
X151223600Y-70978020D01*
X162985626Y-70978020D01*
X164084000Y-72076395D01*
X165050884Y-71109510D01*
X186998155Y-71109510D01*
X187063395Y-71792888D01*
X187260702Y-72450407D01*
X187582494Y-73056799D01*
X187594150Y-73074243D01*
X188047967Y-73392428D01*
X190320395Y-71120000D01*
X190679605Y-71120000D01*
X192952033Y-73392428D01*
X193405850Y-73074243D01*
X193731269Y-72469790D01*
X193932512Y-71813465D01*
X194001845Y-71130490D01*
X193936605Y-70447112D01*
X193739298Y-69789593D01*
X193417506Y-69183201D01*
X193405850Y-69165757D01*
X192952033Y-68847572D01*
X190679605Y-71120000D01*
X190320395Y-71120000D01*
X188047967Y-68847572D01*
X187594150Y-69165757D01*
X187268731Y-69770210D01*
X187067488Y-70426535D01*
X186998155Y-71109510D01*
X165050884Y-71109510D01*
X165182374Y-70978020D01*
X165062486Y-70693164D01*
X164738790Y-70532301D01*
X164389931Y-70437678D01*
X164029316Y-70412933D01*
X163670802Y-70459015D01*
X163328167Y-70574154D01*
X163105514Y-70693164D01*
X162985626Y-70978020D01*
X151223600Y-70978020D01*
X151237000Y-70910656D01*
X151237000Y-70539344D01*
X151164561Y-70175166D01*
X151022466Y-69832118D01*
X150816175Y-69523382D01*
X150553618Y-69260825D01*
X150244882Y-69054534D01*
X149901834Y-68912439D01*
X149537656Y-68840000D01*
X149166344Y-68840000D01*
X148802166Y-68912439D01*
X148459118Y-69054534D01*
X148150382Y-69260825D01*
X147887825Y-69523382D01*
X147681534Y-69832118D01*
X147539439Y-70175166D01*
X147467000Y-70539344D01*
X89535000Y-70539344D01*
X89535000Y-66700000D01*
X139576284Y-66700000D01*
X139408889Y-66716487D01*
G04 #@! TA.AperFunction,Conductor*
D28*
G36*
X139408889Y-66716487D02*
G01*
X139128966Y-66801401D01*
X138870986Y-66939294D01*
X138644866Y-67124866D01*
X138459294Y-67350987D01*
X138321401Y-67608967D01*
X138236487Y-67888890D01*
X138215000Y-68107051D01*
X138215000Y-69052950D01*
X138236487Y-69271111D01*
X138321401Y-69551034D01*
X138459294Y-69809014D01*
X138644866Y-70035134D01*
X138870987Y-70220706D01*
X139128967Y-70358599D01*
X139408890Y-70443513D01*
X139700000Y-70472185D01*
X139991111Y-70443513D01*
X140271034Y-70358599D01*
X140529014Y-70220706D01*
X140755134Y-70035134D01*
X140940706Y-69809014D01*
X141078599Y-69551034D01*
X141163513Y-69271111D01*
X141185000Y-69052949D01*
X141185000Y-68667967D01*
X188227572Y-68667967D01*
X190500000Y-70940395D01*
X192772428Y-68667967D01*
X192454243Y-68214150D01*
X191849790Y-67888731D01*
X191193465Y-67687488D01*
X190510490Y-67618155D01*
X189827112Y-67683395D01*
X189169593Y-67880702D01*
X188563201Y-68202494D01*
X188545757Y-68214150D01*
X188227572Y-68667967D01*
X141185000Y-68667967D01*
X141185000Y-68107050D01*
X141163513Y-67888889D01*
X141078599Y-67608966D01*
X140940706Y-67350986D01*
X140755134Y-67124866D01*
X140529013Y-66939294D01*
X140271033Y-66801401D01*
X139991110Y-66716487D01*
X139823716Y-66700000D01*
X194920000Y-66700000D01*
X194920001Y-102241447D01*
X192872344Y-100193791D01*
X192943000Y-99838581D01*
X192943000Y-99457419D01*
X192868639Y-99083581D01*
X192722775Y-98731434D01*
X192511013Y-98414509D01*
X192241491Y-98144987D01*
X191924566Y-97933225D01*
X191572419Y-97787361D01*
X191198581Y-97713000D01*
X190817419Y-97713000D01*
X190443581Y-97787361D01*
X190091434Y-97933225D01*
X189774509Y-98144987D01*
X189504987Y-98414509D01*
X189293225Y-98731434D01*
X189147361Y-99083581D01*
X189073000Y-99457419D01*
X189073000Y-99838581D01*
X189147361Y-100212419D01*
X189293225Y-100564566D01*
X189504987Y-100881491D01*
X189774509Y-101151013D01*
X190091434Y-101362775D01*
X190443581Y-101508639D01*
X190756287Y-101570840D01*
X191895374Y-102709928D01*
X189708000Y-102709928D01*
X189583518Y-102722188D01*
X189463820Y-102758498D01*
X189353506Y-102817463D01*
X189256815Y-102896815D01*
X189177463Y-102993506D01*
X189118498Y-103103820D01*
X189082188Y-103223518D01*
X189069928Y-103348000D01*
X189069928Y-105948000D01*
X189082188Y-106072482D01*
X189118498Y-106192180D01*
X189177463Y-106302494D01*
X189256815Y-106399185D01*
X189353506Y-106478537D01*
X189463820Y-106537502D01*
X189583518Y-106573812D01*
X189708000Y-106586072D01*
X192308000Y-106586072D01*
X192432482Y-106573812D01*
X192552180Y-106537502D01*
X192662494Y-106478537D01*
X192759185Y-106399185D01*
X192838537Y-106302494D01*
X192897502Y-106192180D01*
X192933812Y-106072482D01*
X192946072Y-105948000D01*
X192946072Y-103760626D01*
X193215002Y-104029556D01*
X193215001Y-119831947D01*
X192952033Y-119647572D01*
X190679605Y-121920000D01*
X190693748Y-121934143D01*
X190514143Y-122113748D01*
X190500000Y-122099605D01*
X188227572Y-124372033D01*
X188411947Y-124635001D01*
X145685555Y-124635001D01*
X143292898Y-122242344D01*
X147340000Y-122242344D01*
X147340000Y-122613656D01*
X147412439Y-122977834D01*
X147554534Y-123320882D01*
X147760825Y-123629618D01*
X148023382Y-123892175D01*
X148332118Y-124098466D01*
X148675166Y-124240561D01*
X149039344Y-124313000D01*
X149410656Y-124313000D01*
X149774834Y-124240561D01*
X150117882Y-124098466D01*
X150426618Y-123892175D01*
X150689175Y-123629618D01*
X150895466Y-123320882D01*
X151037561Y-122977834D01*
X151110000Y-122613656D01*
X151110000Y-122242344D01*
X151037561Y-121878166D01*
X150895466Y-121535118D01*
X150689175Y-121226382D01*
X150426618Y-120963825D01*
X150117882Y-120757534D01*
X149774834Y-120615439D01*
X149410656Y-120543000D01*
X149039344Y-120543000D01*
X148675166Y-120615439D01*
X148332118Y-120757534D01*
X148023382Y-120963825D01*
X147760825Y-121226382D01*
X147554534Y-121535118D01*
X147412439Y-121878166D01*
X147340000Y-122242344D01*
X143292898Y-122242344D01*
X141153773Y-120103220D01*
X141163513Y-120071111D01*
X141185000Y-119852949D01*
X141185000Y-118907050D01*
X141163513Y-118688889D01*
X141078599Y-118408966D01*
X140940706Y-118150986D01*
X140755134Y-117924866D01*
X140529013Y-117739294D01*
X140271033Y-117601401D01*
X139991110Y-117516487D01*
X139700000Y-117487815D01*
X139408889Y-117516487D01*
X139128966Y-117601401D01*
X138870986Y-117739294D01*
X138644866Y-117924866D01*
X138459294Y-118150987D01*
X138395000Y-118271273D01*
X138395000Y-117859553D01*
X145510553Y-110744000D01*
X155829000Y-110744000D01*
X155829000Y-121920000D01*
X155831440Y-121944776D01*
X155838667Y-121968601D01*
X155850403Y-121990557D01*
X155866197Y-122009803D01*
X155885443Y-122025597D01*
X155907399Y-122037333D01*
X155931224Y-122044560D01*
X155956000Y-122047000D01*
X167132000Y-122047000D01*
X167156776Y-122044560D01*
X167180601Y-122037333D01*
X167202557Y-122025597D01*
X167221803Y-122009803D01*
X167237597Y-121990557D01*
X167249333Y-121968601D01*
X167256560Y-121944776D01*
X167259000Y-121920000D01*
X167259000Y-121909510D01*
X186998155Y-121909510D01*
X187063395Y-122592888D01*
X187260702Y-123250407D01*
X187582494Y-123856799D01*
X187594150Y-123874243D01*
X188047967Y-124192428D01*
X190320395Y-121920000D01*
X188047967Y-119647572D01*
X187594150Y-119965757D01*
X187268731Y-120570210D01*
X187067488Y-121226535D01*
X186998155Y-121909510D01*
X167259000Y-121909510D01*
X167259000Y-119467967D01*
X188227572Y-119467967D01*
X190500000Y-121740395D01*
X192772428Y-119467967D01*
X192454243Y-119014150D01*
X191849790Y-118688731D01*
X191193465Y-118487488D01*
X190510490Y-118418155D01*
X189827112Y-118483395D01*
X189169593Y-118680702D01*
X188563201Y-119002494D01*
X188545757Y-119014150D01*
X188227572Y-119467967D01*
X167259000Y-119467967D01*
X167259000Y-114004520D01*
X169672000Y-114004520D01*
X169672000Y-114392280D01*
X169747648Y-114772590D01*
X169896038Y-115130835D01*
X170111466Y-115453246D01*
X170385654Y-115727434D01*
X170708065Y-115942862D01*
X171066310Y-116091252D01*
X171446620Y-116166900D01*
X171834380Y-116166900D01*
X172214690Y-116091252D01*
X172572935Y-115942862D01*
X172895346Y-115727434D01*
X173169534Y-115453246D01*
X173384962Y-115130835D01*
X173533352Y-114772590D01*
X173609000Y-114392280D01*
X173609000Y-114004520D01*
X179959000Y-114004520D01*
X179959000Y-114392280D01*
X180034648Y-114772590D01*
X180183038Y-115130835D01*
X180398466Y-115453246D01*
X180672654Y-115727434D01*
X180995065Y-115942862D01*
X181353310Y-116091252D01*
X181733620Y-116166900D01*
X182121380Y-116166900D01*
X182501690Y-116091252D01*
X182859935Y-115942862D01*
X183182346Y-115727434D01*
X183456534Y-115453246D01*
X183671962Y-115130835D01*
X183820352Y-114772590D01*
X183896000Y-114392280D01*
X183896000Y-114004520D01*
X183820352Y-113624210D01*
X183671962Y-113265965D01*
X183456534Y-112943554D01*
X183182346Y-112669366D01*
X182904926Y-112484000D01*
X186521928Y-112484000D01*
X186521928Y-114084000D01*
X186534188Y-114208482D01*
X186570498Y-114328180D01*
X186629463Y-114438494D01*
X186708815Y-114535185D01*
X186805506Y-114614537D01*
X186915820Y-114673502D01*
X187035518Y-114709812D01*
X187160000Y-114722072D01*
X188760000Y-114722072D01*
X188884482Y-114709812D01*
X189004180Y-114673502D01*
X189114494Y-114614537D01*
X189211185Y-114535185D01*
X189290537Y-114438494D01*
X189349502Y-114328180D01*
X189365117Y-114276702D01*
X190646903Y-114276702D01*
X190718486Y-114520671D01*
X190973996Y-114641571D01*
X191248184Y-114710300D01*
X191530512Y-114724217D01*
X191810130Y-114682787D01*
X192076292Y-114587603D01*
X192201514Y-114520671D01*
X192273097Y-114276702D01*
X191460000Y-113463605D01*
X190646903Y-114276702D01*
X189365117Y-114276702D01*
X189385812Y-114208482D01*
X189398072Y-114084000D01*
X189398072Y-113354512D01*
X190019783Y-113354512D01*
X190061213Y-113634130D01*
X190156397Y-113900292D01*
X190223329Y-114025514D01*
X190467298Y-114097097D01*
X191280395Y-113284000D01*
X191639605Y-113284000D01*
X192452702Y-114097097D01*
X192696671Y-114025514D01*
X192817571Y-113770004D01*
X192886300Y-113495816D01*
X192900217Y-113213488D01*
X192858787Y-112933870D01*
X192763603Y-112667708D01*
X192696671Y-112542486D01*
X192452702Y-112470903D01*
X191639605Y-113284000D01*
X191280395Y-113284000D01*
X190467298Y-112470903D01*
X190223329Y-112542486D01*
X190102429Y-112797996D01*
X190033700Y-113072184D01*
X190019783Y-113354512D01*
X189398072Y-113354512D01*
X189398072Y-112484000D01*
X189385812Y-112359518D01*
X189365118Y-112291298D01*
X190646903Y-112291298D01*
X191460000Y-113104395D01*
X192273097Y-112291298D01*
X192201514Y-112047329D01*
X191946004Y-111926429D01*
X191671816Y-111857700D01*
X191389488Y-111843783D01*
X191109870Y-111885213D01*
X190843708Y-111980397D01*
X190718486Y-112047329D01*
X190646903Y-112291298D01*
X189365118Y-112291298D01*
X189349502Y-112239820D01*
X189290537Y-112129506D01*
X189211185Y-112032815D01*
X189114494Y-111953463D01*
X189004180Y-111894498D01*
X188884482Y-111858188D01*
X188760000Y-111845928D01*
X187160000Y-111845928D01*
X187035518Y-111858188D01*
X186915820Y-111894498D01*
X186805506Y-111953463D01*
X186708815Y-112032815D01*
X186629463Y-112129506D01*
X186570498Y-112239820D01*
X186534188Y-112359518D01*
X186521928Y-112484000D01*
X182904926Y-112484000D01*
X182859935Y-112453938D01*
X182501690Y-112305548D01*
X182121380Y-112229900D01*
X181733620Y-112229900D01*
X181353310Y-112305548D01*
X180995065Y-112453938D01*
X180672654Y-112669366D01*
X180398466Y-112943554D01*
X180183038Y-113265965D01*
X180034648Y-113624210D01*
X179959000Y-114004520D01*
X173609000Y-114004520D01*
X173533352Y-113624210D01*
X173384962Y-113265965D01*
X173169534Y-112943554D01*
X172895346Y-112669366D01*
X172572935Y-112453938D01*
X172214690Y-112305548D01*
X171834380Y-112229900D01*
X171446620Y-112229900D01*
X171066310Y-112305548D01*
X170708065Y-112453938D01*
X170385654Y-112669366D01*
X170111466Y-112943554D01*
X169896038Y-113265965D01*
X169747648Y-113624210D01*
X169672000Y-114004520D01*
X167259000Y-114004520D01*
X167259000Y-110744000D01*
X167256560Y-110719224D01*
X167249333Y-110695399D01*
X167237597Y-110673443D01*
X167221803Y-110654197D01*
X167202557Y-110638403D01*
X167180601Y-110626667D01*
X167156776Y-110619440D01*
X167132000Y-110617000D01*
X155956000Y-110617000D01*
X155931224Y-110619440D01*
X155907399Y-110626667D01*
X155885443Y-110638403D01*
X155866197Y-110654197D01*
X155850403Y-110673443D01*
X155838667Y-110695399D01*
X155831440Y-110719224D01*
X155829000Y-110744000D01*
X145510553Y-110744000D01*
X147591553Y-108663000D01*
X147794207Y-108663000D01*
X148023382Y-108892175D01*
X148332118Y-109098466D01*
X148675166Y-109240561D01*
X149039344Y-109313000D01*
X149410656Y-109313000D01*
X149774834Y-109240561D01*
X150117882Y-109098466D01*
X150426618Y-108892175D01*
X150689175Y-108629618D01*
X150895466Y-108320882D01*
X151037561Y-107977834D01*
X151110000Y-107613656D01*
X151110000Y-107242344D01*
X151037561Y-106878166D01*
X150895466Y-106535118D01*
X150689175Y-106226382D01*
X150426618Y-105963825D01*
X150117882Y-105757534D01*
X149774834Y-105615439D01*
X149410656Y-105543000D01*
X149039344Y-105543000D01*
X148675166Y-105615439D01*
X148332118Y-105757534D01*
X148023382Y-105963825D01*
X147794207Y-106193000D01*
X147140665Y-106193000D01*
X147080000Y-106187025D01*
X147019335Y-106193000D01*
X146837898Y-106210870D01*
X146605099Y-106281489D01*
X146390551Y-106396167D01*
X146202498Y-106550498D01*
X146163821Y-106597626D01*
X136329621Y-116431826D01*
X136282499Y-116470498D01*
X136128168Y-116658551D01*
X136013490Y-116873099D01*
X136013489Y-116873101D01*
X135942870Y-117105898D01*
X135919025Y-117348000D01*
X135925001Y-117408675D01*
X135925000Y-121829335D01*
X135919025Y-121890000D01*
X135925000Y-121950664D01*
X135942870Y-122132101D01*
X136013489Y-122364900D01*
X136128167Y-122579448D01*
X136282498Y-122767502D01*
X136329625Y-122806178D01*
X138245000Y-124721554D01*
X138245000Y-124932950D01*
X138266487Y-125151111D01*
X138351401Y-125431034D01*
X138489294Y-125689014D01*
X138674866Y-125915134D01*
X138900987Y-126100706D01*
X139158967Y-126238599D01*
X139438890Y-126323513D01*
X139606284Y-126340000D01*
X89535000Y-126340000D01*
X89535000Y-103976021D01*
X159613175Y-103976021D01*
X159613175Y-104337485D01*
X159683693Y-104692003D01*
X159822019Y-105025952D01*
X160022837Y-105326497D01*
X160278431Y-105582091D01*
X160578976Y-105782909D01*
X160912925Y-105921235D01*
X161267443Y-105991753D01*
X161628907Y-105991753D01*
X161983425Y-105921235D01*
X162317374Y-105782909D01*
X162506085Y-105656816D01*
X173705000Y-105656816D01*
X173705000Y-105959184D01*
X173763989Y-106255743D01*
X173879701Y-106535095D01*
X174047688Y-106786505D01*
X174261495Y-107000312D01*
X174512905Y-107168299D01*
X174792257Y-107284011D01*
X175088816Y-107343000D01*
X175391184Y-107343000D01*
X175687743Y-107284011D01*
X175967095Y-107168299D01*
X176218505Y-107000312D01*
X176432312Y-106786505D01*
X176600299Y-106535095D01*
X176716011Y-106255743D01*
X176775000Y-105959184D01*
X176775000Y-105656816D01*
X176723731Y-105399070D01*
X177222802Y-104900000D01*
X177400578Y-104900000D01*
X177279701Y-105080905D01*
X177163989Y-105360257D01*
X177105000Y-105656816D01*
X177105000Y-105959184D01*
X177163989Y-106255743D01*
X177279701Y-106535095D01*
X177447688Y-106786505D01*
X177661495Y-107000312D01*
X177912905Y-107168299D01*
X178192257Y-107284011D01*
X178488816Y-107343000D01*
X178791184Y-107343000D01*
X179087743Y-107284011D01*
X179367095Y-107168299D01*
X179618505Y-107000312D01*
X179832312Y-106786505D01*
X180000299Y-106535095D01*
X180116011Y-106255743D01*
X180175000Y-105959184D01*
X180175000Y-105656816D01*
X180116011Y-105360257D01*
X180000299Y-105080905D01*
X179879422Y-104900000D01*
X182334678Y-104900000D01*
X182372000Y-104903676D01*
X182409322Y-104900000D01*
X182409333Y-104900000D01*
X182520986Y-104889003D01*
X182664247Y-104845546D01*
X182796276Y-104774974D01*
X182912001Y-104680001D01*
X182935803Y-104650998D01*
X184407009Y-103179794D01*
X184436001Y-103156001D01*
X184459795Y-103127008D01*
X184459799Y-103127004D01*
X184530973Y-103040277D01*
X184530974Y-103040276D01*
X184601546Y-102908247D01*
X184645003Y-102764986D01*
X184656000Y-102653333D01*
X184656000Y-102653324D01*
X184659676Y-102616001D01*
X184656000Y-102578678D01*
X184656000Y-99715527D01*
X184685851Y-99706472D01*
X184839387Y-99624405D01*
X184973962Y-99513962D01*
X185084405Y-99379387D01*
X185166472Y-99225851D01*
X185217008Y-99059255D01*
X185234072Y-98886001D01*
X185234072Y-98185999D01*
X185217008Y-98012745D01*
X185166472Y-97846149D01*
X185084405Y-97692613D01*
X185017724Y-97611363D01*
X185047185Y-97587185D01*
X185126537Y-97490494D01*
X185185502Y-97380180D01*
X185221812Y-97260482D01*
X185234072Y-97136000D01*
X185231000Y-96821750D01*
X185072250Y-96663000D01*
X184023000Y-96663000D01*
X184023000Y-96683000D01*
X183769000Y-96683000D01*
X183769000Y-96663000D01*
X183749000Y-96663000D01*
X183749000Y-96409000D01*
X183769000Y-96409000D01*
X183769000Y-95459750D01*
X184023000Y-95459750D01*
X184023000Y-96409000D01*
X185072250Y-96409000D01*
X185231000Y-96250250D01*
X185234072Y-95936000D01*
X185221812Y-95811518D01*
X185185502Y-95691820D01*
X185126537Y-95581506D01*
X185047185Y-95484815D01*
X184950494Y-95405463D01*
X184840180Y-95346498D01*
X184720482Y-95310188D01*
X184596000Y-95297928D01*
X184181750Y-95301000D01*
X184023000Y-95459750D01*
X183769000Y-95459750D01*
X183610250Y-95301000D01*
X183196000Y-95297928D01*
X183071518Y-95310188D01*
X182951820Y-95346498D01*
X182841506Y-95405463D01*
X182796959Y-95442021D01*
X182653851Y-95365528D01*
X182487255Y-95314992D01*
X182314001Y-95297928D01*
X181700730Y-95297928D01*
X181395803Y-94993002D01*
X181372001Y-94963999D01*
X181256276Y-94869026D01*
X181124247Y-94798454D01*
X180980986Y-94754997D01*
X180869333Y-94744000D01*
X180869322Y-94744000D01*
X180832000Y-94740324D01*
X180794678Y-94744000D01*
X180445828Y-94744000D01*
X180376497Y-94640238D01*
X180193678Y-94457419D01*
X189073000Y-94457419D01*
X189073000Y-94838581D01*
X189147361Y-95212419D01*
X189293225Y-95564566D01*
X189504987Y-95881491D01*
X189774509Y-96151013D01*
X190091434Y-96362775D01*
X190443581Y-96508639D01*
X190817419Y-96583000D01*
X191198581Y-96583000D01*
X191572419Y-96508639D01*
X191924566Y-96362775D01*
X192241491Y-96151013D01*
X192511013Y-95881491D01*
X192722775Y-95564566D01*
X192868639Y-95212419D01*
X192943000Y-94838581D01*
X192943000Y-94457419D01*
X192868639Y-94083581D01*
X192722775Y-93731434D01*
X192511013Y-93414509D01*
X192241491Y-93144987D01*
X191924566Y-92933225D01*
X191572419Y-92787361D01*
X191198581Y-92713000D01*
X190817419Y-92713000D01*
X190443581Y-92787361D01*
X190091434Y-92933225D01*
X189774509Y-93144987D01*
X189504987Y-93414509D01*
X189293225Y-93731434D01*
X189147361Y-94083581D01*
X189073000Y-94457419D01*
X180193678Y-94457419D01*
X180187762Y-94451503D01*
X179965833Y-94303215D01*
X179719239Y-94201072D01*
X179457456Y-94149000D01*
X179190544Y-94149000D01*
X178928761Y-94201072D01*
X178682167Y-94303215D01*
X178460238Y-94451503D01*
X178271503Y-94640238D01*
X178123215Y-94862167D01*
X178021072Y-95108761D01*
X177969000Y-95370544D01*
X177969000Y-95637456D01*
X178021072Y-95899239D01*
X178123215Y-96145833D01*
X178271503Y-96367762D01*
X178460238Y-96556497D01*
X178682167Y-96704785D01*
X178928761Y-96806928D01*
X179190544Y-96859000D01*
X179457456Y-96859000D01*
X179719239Y-96806928D01*
X179965833Y-96704785D01*
X180187762Y-96556497D01*
X180376497Y-96367762D01*
X180445828Y-96264000D01*
X180517199Y-96264000D01*
X180525928Y-96272729D01*
X180525928Y-96886001D01*
X180542992Y-97059255D01*
X180593528Y-97225851D01*
X180675595Y-97379387D01*
X180786038Y-97513962D01*
X180812891Y-97536000D01*
X180786038Y-97558038D01*
X180675595Y-97692613D01*
X180593528Y-97846149D01*
X180542992Y-98012745D01*
X180525928Y-98185999D01*
X180525928Y-98886001D01*
X180542992Y-99059255D01*
X180593528Y-99225851D01*
X180675595Y-99379387D01*
X180786038Y-99513962D01*
X180920613Y-99624405D01*
X181074149Y-99706472D01*
X181240745Y-99757008D01*
X181413999Y-99774072D01*
X182314001Y-99774072D01*
X182487255Y-99757008D01*
X182653851Y-99706472D01*
X182807387Y-99624405D01*
X182880000Y-99564813D01*
X182952613Y-99624405D01*
X183106149Y-99706472D01*
X183136001Y-99715527D01*
X183136000Y-102301197D01*
X182057199Y-103380000D01*
X181756170Y-103380000D01*
X181770537Y-103362494D01*
X181829502Y-103252180D01*
X181865812Y-103132482D01*
X181878072Y-103008000D01*
X181878072Y-101208000D01*
X181865812Y-101083518D01*
X181829502Y-100963820D01*
X181770537Y-100853506D01*
X181691185Y-100756815D01*
X181594494Y-100677463D01*
X181484180Y-100618498D01*
X181364482Y-100582188D01*
X181240000Y-100569928D01*
X179440000Y-100569928D01*
X179315518Y-100582188D01*
X179195820Y-100618498D01*
X179085506Y-100677463D01*
X178988815Y-100756815D01*
X178909463Y-100853506D01*
X178850498Y-100963820D01*
X178814188Y-101083518D01*
X178801928Y-101208000D01*
X178801928Y-103008000D01*
X178814188Y-103132482D01*
X178850498Y-103252180D01*
X178909463Y-103362494D01*
X178923830Y-103380000D01*
X177790066Y-103380000D01*
X177847573Y-103345962D01*
X178071649Y-103145116D01*
X178252236Y-102904414D01*
X178382394Y-102633107D01*
X178431036Y-102472740D01*
X178310378Y-102235000D01*
X177067000Y-102235000D01*
X177067000Y-102255000D01*
X176813000Y-102255000D01*
X176813000Y-102235000D01*
X175569622Y-102235000D01*
X175448964Y-102472740D01*
X175497606Y-102633107D01*
X175627764Y-102904414D01*
X175808351Y-103145116D01*
X176032427Y-103345962D01*
X176291380Y-103499234D01*
X176430977Y-103548314D01*
X176367999Y-103599999D01*
X176344201Y-103628997D01*
X175648930Y-104324269D01*
X175391184Y-104273000D01*
X175088816Y-104273000D01*
X174792257Y-104331989D01*
X174512905Y-104447701D01*
X174261495Y-104615688D01*
X174047688Y-104829495D01*
X173879701Y-105080905D01*
X173763989Y-105360257D01*
X173705000Y-105656816D01*
X162506085Y-105656816D01*
X162617919Y-105582091D01*
X162873513Y-105326497D01*
X163074331Y-105025952D01*
X163212657Y-104692003D01*
X163283175Y-104337485D01*
X163283175Y-103976021D01*
X163212657Y-103621503D01*
X163074331Y-103287554D01*
X162873513Y-102987009D01*
X162617919Y-102731415D01*
X162317374Y-102530597D01*
X162177695Y-102472740D01*
X172048964Y-102472740D01*
X172097606Y-102633107D01*
X172227764Y-102904414D01*
X172408351Y-103145116D01*
X172632427Y-103345962D01*
X172891380Y-103499234D01*
X173175259Y-103599041D01*
X173413000Y-103478992D01*
X173413000Y-102235000D01*
X173667000Y-102235000D01*
X173667000Y-103478992D01*
X173904741Y-103599041D01*
X174188620Y-103499234D01*
X174447573Y-103345962D01*
X174671649Y-103145116D01*
X174852236Y-102904414D01*
X174982394Y-102633107D01*
X175031036Y-102472740D01*
X174910378Y-102235000D01*
X173667000Y-102235000D01*
X173413000Y-102235000D01*
X172169622Y-102235000D01*
X172048964Y-102472740D01*
X162177695Y-102472740D01*
X161983425Y-102392271D01*
X161628907Y-102321753D01*
X161267443Y-102321753D01*
X160912925Y-102392271D01*
X160578976Y-102530597D01*
X160278431Y-102731415D01*
X160022837Y-102987009D01*
X159822019Y-103287554D01*
X159683693Y-103621503D01*
X159613175Y-103976021D01*
X89535000Y-103976021D01*
X89535000Y-101743260D01*
X172048964Y-101743260D01*
X172169622Y-101981000D01*
X173413000Y-101981000D01*
X173413000Y-100737008D01*
X173667000Y-100737008D01*
X173667000Y-101981000D01*
X174910378Y-101981000D01*
X175031036Y-101743260D01*
X175448964Y-101743260D01*
X175569622Y-101981000D01*
X176813000Y-101981000D01*
X176813000Y-100737008D01*
X177067000Y-100737008D01*
X177067000Y-101981000D01*
X178310378Y-101981000D01*
X178431036Y-101743260D01*
X178382394Y-101582893D01*
X178252236Y-101311586D01*
X178071649Y-101070884D01*
X177847573Y-100870038D01*
X177588620Y-100716766D01*
X177304741Y-100616959D01*
X177067000Y-100737008D01*
X176813000Y-100737008D01*
X176575259Y-100616959D01*
X176291380Y-100716766D01*
X176032427Y-100870038D01*
X175808351Y-101070884D01*
X175627764Y-101311586D01*
X175497606Y-101582893D01*
X175448964Y-101743260D01*
X175031036Y-101743260D01*
X174982394Y-101582893D01*
X174852236Y-101311586D01*
X174671649Y-101070884D01*
X174447573Y-100870038D01*
X174188620Y-100716766D01*
X173904741Y-100616959D01*
X173667000Y-100737008D01*
X173413000Y-100737008D01*
X173175259Y-100616959D01*
X172891380Y-100716766D01*
X172632427Y-100870038D01*
X172408351Y-101070884D01*
X172227764Y-101311586D01*
X172097606Y-101582893D01*
X172048964Y-101743260D01*
X89535000Y-101743260D01*
X89535000Y-96245701D01*
X108975000Y-96245701D01*
X108975000Y-96794299D01*
X109082026Y-97332354D01*
X109291965Y-97839192D01*
X109596750Y-98295334D01*
X109984666Y-98683250D01*
X110440808Y-98988035D01*
X110947646Y-99197974D01*
X111485701Y-99305000D01*
X112034299Y-99305000D01*
X112572354Y-99197974D01*
X113079192Y-98988035D01*
X113535334Y-98683250D01*
X113923250Y-98295334D01*
X114228035Y-97839192D01*
X114437974Y-97332354D01*
X114545000Y-96794299D01*
X114545000Y-96520000D01*
X151334872Y-96520000D01*
X151347132Y-96644482D01*
X151383442Y-96764180D01*
X151442407Y-96874494D01*
X151521759Y-96971185D01*
X153218815Y-98668241D01*
X153315506Y-98747593D01*
X153425820Y-98806558D01*
X153545518Y-98842868D01*
X153670000Y-98855128D01*
X153794482Y-98842868D01*
X153914180Y-98806558D01*
X154024494Y-98747593D01*
X154121185Y-98668241D01*
X155818241Y-96971185D01*
X155849416Y-96933198D01*
X167287942Y-96933198D01*
X167403082Y-97275833D01*
X167582854Y-97589422D01*
X167820350Y-97861913D01*
X168106443Y-98082835D01*
X168430138Y-98243699D01*
X168671730Y-98316986D01*
X168957928Y-98200336D01*
X168957928Y-96647000D01*
X169211928Y-96647000D01*
X169211928Y-98200336D01*
X169498126Y-98316986D01*
X169840761Y-98201846D01*
X170154350Y-98022074D01*
X170426841Y-97784578D01*
X170647763Y-97498485D01*
X170808627Y-97174790D01*
X170881914Y-96933198D01*
X170765264Y-96647000D01*
X169211928Y-96647000D01*
X168957928Y-96647000D01*
X167404592Y-96647000D01*
X167287942Y-96933198D01*
X155849416Y-96933198D01*
X155897593Y-96874494D01*
X155956558Y-96764180D01*
X155992868Y-96644482D01*
X156005128Y-96520000D01*
X155992868Y-96395518D01*
X155956558Y-96275820D01*
X155897593Y-96165506D01*
X155849417Y-96106802D01*
X167287942Y-96106802D01*
X167404592Y-96393000D01*
X168957928Y-96393000D01*
X168957928Y-94839664D01*
X169211928Y-94839664D01*
X169211928Y-96393000D01*
X170765264Y-96393000D01*
X170881914Y-96106802D01*
X170766774Y-95764167D01*
X170587002Y-95450578D01*
X170349506Y-95178087D01*
X170063413Y-94957165D01*
X169739718Y-94796301D01*
X169498126Y-94723014D01*
X169211928Y-94839664D01*
X168957928Y-94839664D01*
X168671730Y-94723014D01*
X168329095Y-94838154D01*
X168015506Y-95017926D01*
X167743015Y-95255422D01*
X167522093Y-95541515D01*
X167361229Y-95865210D01*
X167287942Y-96106802D01*
X155849417Y-96106802D01*
X155818241Y-96068815D01*
X154121185Y-94371759D01*
X154024494Y-94292407D01*
X153914180Y-94233442D01*
X153794482Y-94197132D01*
X153670000Y-94184872D01*
X153545518Y-94197132D01*
X153425820Y-94233442D01*
X153315506Y-94292407D01*
X153218815Y-94371759D01*
X151521759Y-96068815D01*
X151442407Y-96165506D01*
X151383442Y-96275820D01*
X151347132Y-96395518D01*
X151334872Y-96520000D01*
X114545000Y-96520000D01*
X114545000Y-96245701D01*
X114437974Y-95707646D01*
X114228035Y-95200808D01*
X113923250Y-94744666D01*
X113535334Y-94356750D01*
X113079192Y-94051965D01*
X112572354Y-93842026D01*
X112034299Y-93735000D01*
X111485701Y-93735000D01*
X110947646Y-93842026D01*
X110440808Y-94051965D01*
X109984666Y-94356750D01*
X109596750Y-94744666D01*
X109291965Y-95200808D01*
X109082026Y-95707646D01*
X108975000Y-96245701D01*
X89535000Y-96245701D01*
X89535000Y-92830544D01*
X180509000Y-92830544D01*
X180509000Y-93097456D01*
X180561072Y-93359239D01*
X180663215Y-93605833D01*
X180811503Y-93827762D01*
X181000238Y-94016497D01*
X181222167Y-94164785D01*
X181468761Y-94266928D01*
X181730544Y-94319000D01*
X181997456Y-94319000D01*
X182259239Y-94266928D01*
X182505833Y-94164785D01*
X182727762Y-94016497D01*
X182916497Y-93827762D01*
X183064785Y-93605833D01*
X183166928Y-93359239D01*
X183219000Y-93097456D01*
X183219000Y-92830544D01*
X183166928Y-92568761D01*
X183064785Y-92322167D01*
X182916497Y-92100238D01*
X182727762Y-91911503D01*
X182505833Y-91763215D01*
X182259239Y-91661072D01*
X181997456Y-91609000D01*
X181730544Y-91609000D01*
X181468761Y-91661072D01*
X181222167Y-91763215D01*
X181000238Y-91911503D01*
X180811503Y-92100238D01*
X180663215Y-92322167D01*
X180561072Y-92568761D01*
X180509000Y-92830544D01*
X89535000Y-92830544D01*
X89535000Y-88631804D01*
X159542464Y-88631804D01*
X159542464Y-88993268D01*
X159612982Y-89347786D01*
X159751308Y-89681735D01*
X159952126Y-89982280D01*
X160207720Y-90237874D01*
X160508265Y-90438692D01*
X160842214Y-90577018D01*
X161196732Y-90647536D01*
X161558196Y-90647536D01*
X161912714Y-90577018D01*
X162246663Y-90438692D01*
X162547208Y-90237874D01*
X162802802Y-89982280D01*
X162862656Y-89892702D01*
X169930903Y-89892702D01*
X170002486Y-90136671D01*
X170257996Y-90257571D01*
X170532184Y-90326300D01*
X170814512Y-90340217D01*
X171094130Y-90298787D01*
X171360292Y-90203603D01*
X171485514Y-90136671D01*
X171557097Y-89892702D01*
X170744000Y-89079605D01*
X169930903Y-89892702D01*
X162862656Y-89892702D01*
X163003620Y-89681735D01*
X163141946Y-89347786D01*
X163212464Y-88993268D01*
X163212464Y-88970512D01*
X169303783Y-88970512D01*
X169345213Y-89250130D01*
X169440397Y-89516292D01*
X169507329Y-89641514D01*
X169751298Y-89713097D01*
X170564395Y-88900000D01*
X170923605Y-88900000D01*
X171736702Y-89713097D01*
X171980671Y-89641514D01*
X172101571Y-89386004D01*
X172170300Y-89111816D01*
X172184217Y-88829488D01*
X172142787Y-88549870D01*
X172047603Y-88283708D01*
X171980671Y-88158486D01*
X171781340Y-88100000D01*
X172805928Y-88100000D01*
X172805928Y-89700000D01*
X172818188Y-89824482D01*
X172854498Y-89944180D01*
X172913463Y-90054494D01*
X172992815Y-90151185D01*
X173089506Y-90230537D01*
X173199820Y-90289502D01*
X173319518Y-90325812D01*
X173444000Y-90338072D01*
X175044000Y-90338072D01*
X175168482Y-90325812D01*
X175284744Y-90290544D01*
X177969000Y-90290544D01*
X177969000Y-90557456D01*
X178021072Y-90819239D01*
X178123215Y-91065833D01*
X178271503Y-91287762D01*
X178460238Y-91476497D01*
X178682167Y-91624785D01*
X178928761Y-91726928D01*
X179190544Y-91779000D01*
X179457456Y-91779000D01*
X179719239Y-91726928D01*
X179965833Y-91624785D01*
X180187762Y-91476497D01*
X180376497Y-91287762D01*
X180524785Y-91065833D01*
X180553203Y-90997224D01*
X189838381Y-90997224D01*
X189970317Y-91292312D01*
X190311045Y-91463159D01*
X190678557Y-91564250D01*
X191058729Y-91591701D01*
X191436951Y-91544457D01*
X191798690Y-91424333D01*
X192045683Y-91292312D01*
X192177619Y-90997224D01*
X191008000Y-89827605D01*
X189838381Y-90997224D01*
X180553203Y-90997224D01*
X180626928Y-90819239D01*
X180679000Y-90557456D01*
X180679000Y-90290544D01*
X180626928Y-90028761D01*
X180524785Y-89782167D01*
X180469034Y-89698729D01*
X189064299Y-89698729D01*
X189111543Y-90076951D01*
X189231667Y-90438690D01*
X189363688Y-90685683D01*
X189658776Y-90817619D01*
X190828395Y-89648000D01*
X191187605Y-89648000D01*
X192357224Y-90817619D01*
X192652312Y-90685683D01*
X192823159Y-90344955D01*
X192924250Y-89977443D01*
X192951701Y-89597271D01*
X192904457Y-89219049D01*
X192784333Y-88857310D01*
X192652312Y-88610317D01*
X192357224Y-88478381D01*
X191187605Y-89648000D01*
X190828395Y-89648000D01*
X189658776Y-88478381D01*
X189363688Y-88610317D01*
X189192841Y-88951045D01*
X189091750Y-89318557D01*
X189064299Y-89698729D01*
X180469034Y-89698729D01*
X180376497Y-89560238D01*
X180187762Y-89371503D01*
X179965833Y-89223215D01*
X179719239Y-89121072D01*
X179457456Y-89069000D01*
X179190544Y-89069000D01*
X178928761Y-89121072D01*
X178682167Y-89223215D01*
X178460238Y-89371503D01*
X178271503Y-89560238D01*
X178123215Y-89782167D01*
X178021072Y-90028761D01*
X177969000Y-90290544D01*
X175284744Y-90290544D01*
X175288180Y-90289502D01*
X175398494Y-90230537D01*
X175495185Y-90151185D01*
X175574537Y-90054494D01*
X175633502Y-89944180D01*
X175669812Y-89824482D01*
X175682072Y-89700000D01*
X175682072Y-88298776D01*
X189838381Y-88298776D01*
X191008000Y-89468395D01*
X192177619Y-88298776D01*
X192045683Y-88003688D01*
X191704955Y-87832841D01*
X191337443Y-87731750D01*
X190957271Y-87704299D01*
X190579049Y-87751543D01*
X190217310Y-87871667D01*
X189970317Y-88003688D01*
X189838381Y-88298776D01*
X175682072Y-88298776D01*
X175682072Y-88100000D01*
X175669812Y-87975518D01*
X175633502Y-87855820D01*
X175574537Y-87745506D01*
X175495185Y-87648815D01*
X175398494Y-87569463D01*
X175288180Y-87510498D01*
X175168482Y-87474188D01*
X175044000Y-87461928D01*
X173444000Y-87461928D01*
X173319518Y-87474188D01*
X173199820Y-87510498D01*
X173089506Y-87569463D01*
X172992815Y-87648815D01*
X172913463Y-87745506D01*
X172854498Y-87855820D01*
X172818188Y-87975518D01*
X172805928Y-88100000D01*
X171781340Y-88100000D01*
X171736702Y-88086903D01*
X170923605Y-88900000D01*
X170564395Y-88900000D01*
X169751298Y-88086903D01*
X169507329Y-88158486D01*
X169386429Y-88413996D01*
X169317700Y-88688184D01*
X169303783Y-88970512D01*
X163212464Y-88970512D01*
X163212464Y-88631804D01*
X163141946Y-88277286D01*
X163003620Y-87943337D01*
X162979540Y-87907298D01*
X169930903Y-87907298D01*
X170744000Y-88720395D01*
X171557097Y-87907298D01*
X171485514Y-87663329D01*
X171230004Y-87542429D01*
X170955816Y-87473700D01*
X170673488Y-87459783D01*
X170393870Y-87501213D01*
X170127708Y-87596397D01*
X170002486Y-87663329D01*
X169930903Y-87907298D01*
X162979540Y-87907298D01*
X162802802Y-87642792D01*
X162547208Y-87387198D01*
X162246663Y-87186380D01*
X161912714Y-87048054D01*
X161558196Y-86977536D01*
X161196732Y-86977536D01*
X160842214Y-87048054D01*
X160508265Y-87186380D01*
X160207720Y-87387198D01*
X159952126Y-87642792D01*
X159751308Y-87943337D01*
X159612982Y-88277286D01*
X159542464Y-88631804D01*
X89535000Y-88631804D01*
X89535000Y-85539344D01*
X147467000Y-85539344D01*
X147467000Y-85910656D01*
X147539439Y-86274834D01*
X147681534Y-86617882D01*
X147887825Y-86926618D01*
X148150382Y-87189175D01*
X148459118Y-87395466D01*
X148802166Y-87537561D01*
X149166344Y-87610000D01*
X149537656Y-87610000D01*
X149901834Y-87537561D01*
X150244882Y-87395466D01*
X150553618Y-87189175D01*
X150816175Y-86926618D01*
X151022466Y-86617882D01*
X151164561Y-86274834D01*
X151237000Y-85910656D01*
X151237000Y-85539344D01*
X151164561Y-85175166D01*
X151022466Y-84832118D01*
X150816175Y-84523382D01*
X150553618Y-84260825D01*
X150244882Y-84054534D01*
X149901834Y-83912439D01*
X149537656Y-83840000D01*
X149166344Y-83840000D01*
X148802166Y-83912439D01*
X148459118Y-84054534D01*
X148150382Y-84260825D01*
X147887825Y-84523382D01*
X147681534Y-84832118D01*
X147539439Y-85175166D01*
X147467000Y-85539344D01*
X89535000Y-85539344D01*
X89535000Y-82112000D01*
X180025928Y-82112000D01*
X180025928Y-84512000D01*
X180038188Y-84636482D01*
X180074498Y-84756180D01*
X180133463Y-84866494D01*
X180212815Y-84963185D01*
X180309506Y-85042537D01*
X180419820Y-85101502D01*
X180539518Y-85137812D01*
X180664000Y-85150072D01*
X183064000Y-85150072D01*
X183188482Y-85137812D01*
X183308180Y-85101502D01*
X183418494Y-85042537D01*
X183515185Y-84963185D01*
X183594537Y-84866494D01*
X183653502Y-84756180D01*
X183689812Y-84636482D01*
X183702072Y-84512000D01*
X183702072Y-82112000D01*
X183689812Y-81987518D01*
X183653502Y-81867820D01*
X183594537Y-81757506D01*
X183515185Y-81660815D01*
X183418494Y-81581463D01*
X183308180Y-81522498D01*
X183188482Y-81486188D01*
X183064000Y-81473928D01*
X180664000Y-81473928D01*
X180539518Y-81486188D01*
X180419820Y-81522498D01*
X180309506Y-81581463D01*
X180212815Y-81660815D01*
X180133463Y-81757506D01*
X180074498Y-81867820D01*
X180038188Y-81987518D01*
X180025928Y-82112000D01*
X89535000Y-82112000D01*
X89535000Y-78556000D01*
X162245928Y-78556000D01*
X162245928Y-80956000D01*
X162258188Y-81080482D01*
X162294498Y-81200180D01*
X162353463Y-81310494D01*
X162432815Y-81407185D01*
X162529506Y-81486537D01*
X162639820Y-81545502D01*
X162759518Y-81581812D01*
X162884000Y-81594072D01*
X165284000Y-81594072D01*
X165408482Y-81581812D01*
X165528180Y-81545502D01*
X165638494Y-81486537D01*
X165735185Y-81407185D01*
X165814537Y-81310494D01*
X165873502Y-81200180D01*
X165909812Y-81080482D01*
X165922072Y-80956000D01*
X165922072Y-78556000D01*
X165909812Y-78431518D01*
X165873502Y-78311820D01*
X165814537Y-78201506D01*
X165735185Y-78104815D01*
X165638494Y-78025463D01*
X165528180Y-77966498D01*
X165408482Y-77930188D01*
X165284000Y-77917928D01*
X162884000Y-77917928D01*
X162759518Y-77930188D01*
X162639820Y-77966498D01*
X162529506Y-78025463D01*
X162432815Y-78104815D01*
X162353463Y-78201506D01*
X162294498Y-78311820D01*
X162258188Y-78431518D01*
X162245928Y-78556000D01*
X89535000Y-78556000D01*
X89535000Y-77089980D01*
X180765626Y-77089980D01*
X180885514Y-77374836D01*
X181209210Y-77535699D01*
X181558069Y-77630322D01*
X181918684Y-77655067D01*
X182277198Y-77608985D01*
X182619833Y-77493846D01*
X182842486Y-77374836D01*
X182962374Y-77089980D01*
X181864000Y-75991605D01*
X180765626Y-77089980D01*
X89535000Y-77089980D01*
X89535000Y-75866684D01*
X180020933Y-75866684D01*
X180067015Y-76225198D01*
X180182154Y-76567833D01*
X180301164Y-76790486D01*
X180586020Y-76910374D01*
X181684395Y-75812000D01*
X182043605Y-75812000D01*
X183141980Y-76910374D01*
X183426836Y-76790486D01*
X183587699Y-76466790D01*
X183682322Y-76117931D01*
X183707067Y-75757316D01*
X183660985Y-75398802D01*
X183545846Y-75056167D01*
X183426836Y-74833514D01*
X183141980Y-74713626D01*
X182043605Y-75812000D01*
X181684395Y-75812000D01*
X180586020Y-74713626D01*
X180301164Y-74833514D01*
X180140301Y-75157210D01*
X180045678Y-75506069D01*
X180020933Y-75866684D01*
X89535000Y-75866684D01*
X89535000Y-73187051D01*
X138215000Y-73187051D01*
X138215000Y-74132950D01*
X138236487Y-74351111D01*
X138321401Y-74631034D01*
X138459294Y-74889014D01*
X138644866Y-75115134D01*
X138870987Y-75300706D01*
X139128967Y-75438599D01*
X139408890Y-75523513D01*
X139700000Y-75552185D01*
X139991111Y-75523513D01*
X140271034Y-75438599D01*
X140529014Y-75300706D01*
X140755134Y-75115134D01*
X140940706Y-74889014D01*
X141078599Y-74631034D01*
X141108027Y-74534020D01*
X180765626Y-74534020D01*
X181864000Y-75632395D01*
X182962374Y-74534020D01*
X182842486Y-74249164D01*
X182518790Y-74088301D01*
X182169931Y-73993678D01*
X181809316Y-73968933D01*
X181450802Y-74015015D01*
X181108167Y-74130154D01*
X180885514Y-74249164D01*
X180765626Y-74534020D01*
X141108027Y-74534020D01*
X141163513Y-74351111D01*
X141185000Y-74132949D01*
X141185000Y-73533980D01*
X162985626Y-73533980D01*
X163105514Y-73818836D01*
X163429210Y-73979699D01*
X163778069Y-74074322D01*
X164138684Y-74099067D01*
X164497198Y-74052985D01*
X164839833Y-73937846D01*
X165062486Y-73818836D01*
X165166358Y-73572033D01*
X188227572Y-73572033D01*
X188545757Y-74025850D01*
X189150210Y-74351269D01*
X189806535Y-74552512D01*
X190489510Y-74621845D01*
X191172888Y-74556605D01*
X191830407Y-74359298D01*
X192436799Y-74037506D01*
X192454243Y-74025850D01*
X192772428Y-73572033D01*
X190500000Y-71299605D01*
X188227572Y-73572033D01*
X165166358Y-73572033D01*
X165182374Y-73533980D01*
X164084000Y-72435605D01*
X162985626Y-73533980D01*
X141185000Y-73533980D01*
X141185000Y-73187050D01*
X141163513Y-72968889D01*
X141078599Y-72688966D01*
X140940706Y-72430986D01*
X140755134Y-72204866D01*
X140529013Y-72019294D01*
X140271033Y-71881401D01*
X139991110Y-71796487D01*
X139700000Y-71767815D01*
X139408889Y-71796487D01*
X139128966Y-71881401D01*
X138870986Y-72019294D01*
X138644866Y-72204866D01*
X138459294Y-72430987D01*
X138321401Y-72688967D01*
X138236487Y-72968890D01*
X138215000Y-73187051D01*
X89535000Y-73187051D01*
X89535000Y-70539344D01*
X147467000Y-70539344D01*
X147467000Y-70910656D01*
X147539439Y-71274834D01*
X147681534Y-71617882D01*
X147887825Y-71926618D01*
X148150382Y-72189175D01*
X148459118Y-72395466D01*
X148802166Y-72537561D01*
X149166344Y-72610000D01*
X149537656Y-72610000D01*
X149901834Y-72537561D01*
X150244882Y-72395466D01*
X150371767Y-72310684D01*
X162240933Y-72310684D01*
X162287015Y-72669198D01*
X162402154Y-73011833D01*
X162521164Y-73234486D01*
X162806020Y-73354374D01*
X163904395Y-72256000D01*
X164263605Y-72256000D01*
X165361980Y-73354374D01*
X165646836Y-73234486D01*
X165807699Y-72910790D01*
X165902322Y-72561931D01*
X165927067Y-72201316D01*
X165880985Y-71842802D01*
X165765846Y-71500167D01*
X165646836Y-71277514D01*
X165361980Y-71157626D01*
X164263605Y-72256000D01*
X163904395Y-72256000D01*
X162806020Y-71157626D01*
X162521164Y-71277514D01*
X162360301Y-71601210D01*
X162265678Y-71950069D01*
X162240933Y-72310684D01*
X150371767Y-72310684D01*
X150553618Y-72189175D01*
X150816175Y-71926618D01*
X151022466Y-71617882D01*
X151164561Y-71274834D01*
X151223600Y-70978020D01*
X162985626Y-70978020D01*
X164084000Y-72076395D01*
X165050884Y-71109510D01*
X186998155Y-71109510D01*
X187063395Y-71792888D01*
X187260702Y-72450407D01*
X187582494Y-73056799D01*
X187594150Y-73074243D01*
X188047967Y-73392428D01*
X190320395Y-71120000D01*
X190679605Y-71120000D01*
X192952033Y-73392428D01*
X193405850Y-73074243D01*
X193731269Y-72469790D01*
X193932512Y-71813465D01*
X194001845Y-71130490D01*
X193936605Y-70447112D01*
X193739298Y-69789593D01*
X193417506Y-69183201D01*
X193405850Y-69165757D01*
X192952033Y-68847572D01*
X190679605Y-71120000D01*
X190320395Y-71120000D01*
X188047967Y-68847572D01*
X187594150Y-69165757D01*
X187268731Y-69770210D01*
X187067488Y-70426535D01*
X186998155Y-71109510D01*
X165050884Y-71109510D01*
X165182374Y-70978020D01*
X165062486Y-70693164D01*
X164738790Y-70532301D01*
X164389931Y-70437678D01*
X164029316Y-70412933D01*
X163670802Y-70459015D01*
X163328167Y-70574154D01*
X163105514Y-70693164D01*
X162985626Y-70978020D01*
X151223600Y-70978020D01*
X151237000Y-70910656D01*
X151237000Y-70539344D01*
X151164561Y-70175166D01*
X151022466Y-69832118D01*
X150816175Y-69523382D01*
X150553618Y-69260825D01*
X150244882Y-69054534D01*
X149901834Y-68912439D01*
X149537656Y-68840000D01*
X149166344Y-68840000D01*
X148802166Y-68912439D01*
X148459118Y-69054534D01*
X148150382Y-69260825D01*
X147887825Y-69523382D01*
X147681534Y-69832118D01*
X147539439Y-70175166D01*
X147467000Y-70539344D01*
X89535000Y-70539344D01*
X89535000Y-66700000D01*
X139576284Y-66700000D01*
X139408889Y-66716487D01*
G37*
G04 #@! TD.AperFunction*
M02*
