%FSLAX45Y45*%
G04 Gerber Fmt 4.5, Leading zero omitted, Abs format (unit mm)*
G04 Created by KiCad (PCBNEW (5.1.9)-1) date 2021-06-30 23:10:08*
%MOMM*%
%LPD*%
G01*
G04 APERTURE LIST*
%TA.AperFunction,Profile*%
%ADD10C,0.050000*%
%TD*%
%ADD11C,0.200000*%
%ADD12C,0.300000*%
G04 APERTURE END LIST*
D10*
X6858000Y-12700000D02*
X6858000Y-6604000D01*
X19558000Y-12700000D02*
X6858000Y-12700000D01*
X19558000Y-6604000D02*
X19558000Y-12700000D01*
X6858000Y-6604000D02*
X19558000Y-6604000D01*
D11*
X17030700Y-11286490D02*
X17297400Y-11553190D01*
X17297400Y-11286490D02*
X17030700Y-11553190D01*
X18059400Y-11286490D02*
X18326100Y-11553190D01*
X18326100Y-11286490D02*
X18059400Y-11553190D01*
X11391000Y-9652000D02*
G75*
G03*
X11391000Y-9652000I-215000J0D01*
G01*
D12*
X7141928Y-13168214D02*
X7141928Y-12868214D01*
X7213357Y-12868214D01*
X7256214Y-12882500D01*
X7284786Y-12911071D01*
X7299071Y-12939643D01*
X7313357Y-12996786D01*
X7313357Y-13039643D01*
X7299071Y-13096786D01*
X7284786Y-13125357D01*
X7256214Y-13153929D01*
X7213357Y-13168214D01*
X7141928Y-13168214D01*
X7441928Y-13168214D02*
X7441928Y-12968214D01*
X7441928Y-13025357D02*
X7456214Y-12996786D01*
X7470500Y-12982500D01*
X7499071Y-12968214D01*
X7527643Y-12968214D01*
X7627643Y-13168214D02*
X7627643Y-12968214D01*
X7627643Y-12868214D02*
X7613357Y-12882500D01*
X7627643Y-12896786D01*
X7641928Y-12882500D01*
X7627643Y-12868214D01*
X7627643Y-12896786D01*
X7813357Y-13168214D02*
X7784786Y-13153929D01*
X7770500Y-13125357D01*
X7770500Y-12868214D01*
X7970500Y-13168214D02*
X7941928Y-13153929D01*
X7927643Y-13125357D01*
X7927643Y-12868214D01*
X8313357Y-13168214D02*
X8313357Y-12868214D01*
X8413357Y-13082500D01*
X8513357Y-12868214D01*
X8513357Y-13168214D01*
X8784786Y-13168214D02*
X8784786Y-13011071D01*
X8770500Y-12982500D01*
X8741928Y-12968214D01*
X8684786Y-12968214D01*
X8656214Y-12982500D01*
X8784786Y-13153929D02*
X8756214Y-13168214D01*
X8684786Y-13168214D01*
X8656214Y-13153929D01*
X8641928Y-13125357D01*
X8641928Y-13096786D01*
X8656214Y-13068214D01*
X8684786Y-13053929D01*
X8756214Y-13053929D01*
X8784786Y-13039643D01*
X8927643Y-12968214D02*
X8927643Y-13268214D01*
X8927643Y-12982500D02*
X8956214Y-12968214D01*
X9013357Y-12968214D01*
X9041928Y-12982500D01*
X9056214Y-12996786D01*
X9070500Y-13025357D01*
X9070500Y-13111071D01*
X9056214Y-13139643D01*
X9041928Y-13153929D01*
X9013357Y-13168214D01*
X8956214Y-13168214D01*
X8927643Y-13153929D01*
X9199071Y-13139643D02*
X9213357Y-13153929D01*
X9199071Y-13168214D01*
X9184786Y-13153929D01*
X9199071Y-13139643D01*
X9199071Y-13168214D01*
X9199071Y-12982500D02*
X9213357Y-12996786D01*
X9199071Y-13011071D01*
X9184786Y-12996786D01*
X9199071Y-12982500D01*
X9199071Y-13011071D01*
X6588800Y-13529150D02*
X6855500Y-13795850D01*
X6855500Y-13529150D02*
X6588800Y-13795850D01*
X7127643Y-13526786D02*
X7141928Y-13512500D01*
X7170500Y-13498214D01*
X7241928Y-13498214D01*
X7270500Y-13512500D01*
X7284786Y-13526786D01*
X7299071Y-13555357D01*
X7299071Y-13583929D01*
X7284786Y-13626786D01*
X7113357Y-13798214D01*
X7299071Y-13798214D01*
X7427643Y-13769643D02*
X7441928Y-13783929D01*
X7427643Y-13798214D01*
X7413357Y-13783929D01*
X7427643Y-13769643D01*
X7427643Y-13798214D01*
X7699071Y-13498214D02*
X7641928Y-13498214D01*
X7613357Y-13512500D01*
X7599071Y-13526786D01*
X7570500Y-13569643D01*
X7556214Y-13626786D01*
X7556214Y-13741071D01*
X7570500Y-13769643D01*
X7584786Y-13783929D01*
X7613357Y-13798214D01*
X7670500Y-13798214D01*
X7699071Y-13783929D01*
X7713357Y-13769643D01*
X7727643Y-13741071D01*
X7727643Y-13669643D01*
X7713357Y-13641071D01*
X7699071Y-13626786D01*
X7670500Y-13612500D01*
X7613357Y-13612500D01*
X7584786Y-13626786D01*
X7570500Y-13641071D01*
X7556214Y-13669643D01*
X7827643Y-13498214D02*
X8027643Y-13498214D01*
X7899071Y-13798214D01*
X8141928Y-13798214D02*
X8141928Y-13598214D01*
X8141928Y-13626786D02*
X8156214Y-13612500D01*
X8184786Y-13598214D01*
X8227643Y-13598214D01*
X8256214Y-13612500D01*
X8270500Y-13641071D01*
X8270500Y-13798214D01*
X8270500Y-13641071D02*
X8284786Y-13612500D01*
X8313357Y-13598214D01*
X8356214Y-13598214D01*
X8384786Y-13612500D01*
X8399071Y-13641071D01*
X8399071Y-13798214D01*
X8541928Y-13798214D02*
X8541928Y-13598214D01*
X8541928Y-13626786D02*
X8556214Y-13612500D01*
X8584786Y-13598214D01*
X8627643Y-13598214D01*
X8656214Y-13612500D01*
X8670500Y-13641071D01*
X8670500Y-13798214D01*
X8670500Y-13641071D02*
X8684786Y-13612500D01*
X8713357Y-13598214D01*
X8756214Y-13598214D01*
X8784786Y-13612500D01*
X8799071Y-13641071D01*
X8799071Y-13798214D01*
X9384786Y-13483929D02*
X9127643Y-13869643D01*
X9770500Y-13498214D02*
X9799071Y-13498214D01*
X9827643Y-13512500D01*
X9841928Y-13526786D01*
X9856214Y-13555357D01*
X9870500Y-13612500D01*
X9870500Y-13683929D01*
X9856214Y-13741071D01*
X9841928Y-13769643D01*
X9827643Y-13783929D01*
X9799071Y-13798214D01*
X9770500Y-13798214D01*
X9741928Y-13783929D01*
X9727643Y-13769643D01*
X9713357Y-13741071D01*
X9699071Y-13683929D01*
X9699071Y-13612500D01*
X9713357Y-13555357D01*
X9727643Y-13526786D01*
X9741928Y-13512500D01*
X9770500Y-13498214D01*
X9999071Y-13769643D02*
X10013357Y-13783929D01*
X9999071Y-13798214D01*
X9984786Y-13783929D01*
X9999071Y-13769643D01*
X9999071Y-13798214D01*
X10299071Y-13798214D02*
X10127643Y-13798214D01*
X10213357Y-13798214D02*
X10213357Y-13498214D01*
X10184786Y-13541071D01*
X10156214Y-13569643D01*
X10127643Y-13583929D01*
X10484786Y-13498214D02*
X10513357Y-13498214D01*
X10541928Y-13512500D01*
X10556214Y-13526786D01*
X10570500Y-13555357D01*
X10584786Y-13612500D01*
X10584786Y-13683929D01*
X10570500Y-13741071D01*
X10556214Y-13769643D01*
X10541928Y-13783929D01*
X10513357Y-13798214D01*
X10484786Y-13798214D01*
X10456214Y-13783929D01*
X10441928Y-13769643D01*
X10427643Y-13741071D01*
X10413357Y-13683929D01*
X10413357Y-13612500D01*
X10427643Y-13555357D01*
X10441928Y-13526786D01*
X10456214Y-13512500D01*
X10484786Y-13498214D01*
X10856214Y-13498214D02*
X10713357Y-13498214D01*
X10699071Y-13641071D01*
X10713357Y-13626786D01*
X10741928Y-13612500D01*
X10813357Y-13612500D01*
X10841928Y-13626786D01*
X10856214Y-13641071D01*
X10870500Y-13669643D01*
X10870500Y-13741071D01*
X10856214Y-13769643D01*
X10841928Y-13783929D01*
X10813357Y-13798214D01*
X10741928Y-13798214D01*
X10713357Y-13783929D01*
X10699071Y-13769643D01*
X10984786Y-13498214D02*
X10984786Y-13555357D01*
X11099071Y-13498214D02*
X11099071Y-13555357D01*
X11541928Y-13912500D02*
X11527643Y-13898214D01*
X11499071Y-13855357D01*
X11484786Y-13826786D01*
X11470500Y-13783929D01*
X11456214Y-13712500D01*
X11456214Y-13655357D01*
X11470500Y-13583929D01*
X11484786Y-13541071D01*
X11499071Y-13512500D01*
X11527643Y-13469643D01*
X11541928Y-13455357D01*
X11641928Y-13526786D02*
X11656214Y-13512500D01*
X11684786Y-13498214D01*
X11756214Y-13498214D01*
X11784786Y-13512500D01*
X11799071Y-13526786D01*
X11813357Y-13555357D01*
X11813357Y-13583929D01*
X11799071Y-13626786D01*
X11627643Y-13798214D01*
X11813357Y-13798214D01*
X12170500Y-13798214D02*
X12170500Y-13498214D01*
X12299071Y-13798214D02*
X12299071Y-13641071D01*
X12284786Y-13612500D01*
X12256214Y-13598214D01*
X12213357Y-13598214D01*
X12184786Y-13612500D01*
X12170500Y-13626786D01*
X12484786Y-13798214D02*
X12456214Y-13783929D01*
X12441928Y-13769643D01*
X12427643Y-13741071D01*
X12427643Y-13655357D01*
X12441928Y-13626786D01*
X12456214Y-13612500D01*
X12484786Y-13598214D01*
X12527643Y-13598214D01*
X12556214Y-13612500D01*
X12570500Y-13626786D01*
X12584786Y-13655357D01*
X12584786Y-13741071D01*
X12570500Y-13769643D01*
X12556214Y-13783929D01*
X12527643Y-13798214D01*
X12484786Y-13798214D01*
X12756214Y-13798214D02*
X12727643Y-13783929D01*
X12713357Y-13755357D01*
X12713357Y-13498214D01*
X12984786Y-13783929D02*
X12956214Y-13798214D01*
X12899071Y-13798214D01*
X12870500Y-13783929D01*
X12856214Y-13755357D01*
X12856214Y-13641071D01*
X12870500Y-13612500D01*
X12899071Y-13598214D01*
X12956214Y-13598214D01*
X12984786Y-13612500D01*
X12999071Y-13641071D01*
X12999071Y-13669643D01*
X12856214Y-13698214D01*
X13113357Y-13783929D02*
X13141928Y-13798214D01*
X13199071Y-13798214D01*
X13227643Y-13783929D01*
X13241928Y-13755357D01*
X13241928Y-13741071D01*
X13227643Y-13712500D01*
X13199071Y-13698214D01*
X13156214Y-13698214D01*
X13127643Y-13683929D01*
X13113357Y-13655357D01*
X13113357Y-13641071D01*
X13127643Y-13612500D01*
X13156214Y-13598214D01*
X13199071Y-13598214D01*
X13227643Y-13612500D01*
X13341928Y-13912500D02*
X13356214Y-13898214D01*
X13384786Y-13855357D01*
X13399071Y-13826786D01*
X13413357Y-13783929D01*
X13427643Y-13712500D01*
X13427643Y-13655357D01*
X13413357Y-13583929D01*
X13399071Y-13541071D01*
X13384786Y-13512500D01*
X13356214Y-13469643D01*
X13341928Y-13455357D01*
X13884786Y-13912500D02*
X13870500Y-13898214D01*
X13841928Y-13855357D01*
X13827643Y-13826786D01*
X13813357Y-13783929D01*
X13799071Y-13712500D01*
X13799071Y-13655357D01*
X13813357Y-13583929D01*
X13827643Y-13541071D01*
X13841928Y-13512500D01*
X13870500Y-13469643D01*
X13884786Y-13455357D01*
X13999071Y-13598214D02*
X13999071Y-13798214D01*
X13999071Y-13626786D02*
X14013357Y-13612500D01*
X14041928Y-13598214D01*
X14084786Y-13598214D01*
X14113357Y-13612500D01*
X14127643Y-13641071D01*
X14127643Y-13798214D01*
X14313357Y-13798214D02*
X14284786Y-13783929D01*
X14270500Y-13769643D01*
X14256214Y-13741071D01*
X14256214Y-13655357D01*
X14270500Y-13626786D01*
X14284786Y-13612500D01*
X14313357Y-13598214D01*
X14356214Y-13598214D01*
X14384786Y-13612500D01*
X14399071Y-13626786D01*
X14413357Y-13655357D01*
X14413357Y-13741071D01*
X14399071Y-13769643D01*
X14384786Y-13783929D01*
X14356214Y-13798214D01*
X14313357Y-13798214D01*
X14499071Y-13598214D02*
X14613357Y-13598214D01*
X14541928Y-13498214D02*
X14541928Y-13755357D01*
X14556214Y-13783929D01*
X14584786Y-13798214D01*
X14613357Y-13798214D01*
X14941928Y-13598214D02*
X14941928Y-13898214D01*
X14941928Y-13612500D02*
X14970500Y-13598214D01*
X15027643Y-13598214D01*
X15056214Y-13612500D01*
X15070500Y-13626786D01*
X15084786Y-13655357D01*
X15084786Y-13741071D01*
X15070500Y-13769643D01*
X15056214Y-13783929D01*
X15027643Y-13798214D01*
X14970500Y-13798214D01*
X14941928Y-13783929D01*
X15256214Y-13798214D02*
X15227643Y-13783929D01*
X15213357Y-13755357D01*
X15213357Y-13498214D01*
X15499071Y-13798214D02*
X15499071Y-13641071D01*
X15484786Y-13612500D01*
X15456214Y-13598214D01*
X15399071Y-13598214D01*
X15370500Y-13612500D01*
X15499071Y-13783929D02*
X15470500Y-13798214D01*
X15399071Y-13798214D01*
X15370500Y-13783929D01*
X15356214Y-13755357D01*
X15356214Y-13726786D01*
X15370500Y-13698214D01*
X15399071Y-13683929D01*
X15470500Y-13683929D01*
X15499071Y-13669643D01*
X15599071Y-13598214D02*
X15713357Y-13598214D01*
X15641928Y-13498214D02*
X15641928Y-13755357D01*
X15656214Y-13783929D01*
X15684786Y-13798214D01*
X15713357Y-13798214D01*
X15927643Y-13783929D02*
X15899071Y-13798214D01*
X15841928Y-13798214D01*
X15813357Y-13783929D01*
X15799071Y-13755357D01*
X15799071Y-13641071D01*
X15813357Y-13612500D01*
X15841928Y-13598214D01*
X15899071Y-13598214D01*
X15927643Y-13612500D01*
X15941928Y-13641071D01*
X15941928Y-13669643D01*
X15799071Y-13698214D01*
X16199071Y-13798214D02*
X16199071Y-13498214D01*
X16199071Y-13783929D02*
X16170500Y-13798214D01*
X16113357Y-13798214D01*
X16084786Y-13783929D01*
X16070500Y-13769643D01*
X16056214Y-13741071D01*
X16056214Y-13655357D01*
X16070500Y-13626786D01*
X16084786Y-13612500D01*
X16113357Y-13598214D01*
X16170500Y-13598214D01*
X16199071Y-13612500D01*
X16313357Y-13912500D02*
X16327643Y-13898214D01*
X16356214Y-13855357D01*
X16370500Y-13826786D01*
X16384786Y-13783929D01*
X16399071Y-13712500D01*
X16399071Y-13655357D01*
X16384786Y-13583929D01*
X16370500Y-13541071D01*
X16356214Y-13512500D01*
X16327643Y-13469643D01*
X16313357Y-13455357D01*
X6855500Y-14059200D02*
G75*
G03*
X6855500Y-14059200I-215000J0D01*
G01*
X7270500Y-13994914D02*
X7270500Y-14194914D01*
X7199071Y-13880629D02*
X7127643Y-14094914D01*
X7313357Y-14094914D01*
X7427643Y-14166343D02*
X7441928Y-14180629D01*
X7427643Y-14194914D01*
X7413357Y-14180629D01*
X7427643Y-14166343D01*
X7427643Y-14194914D01*
X7541928Y-13894914D02*
X7727643Y-13894914D01*
X7627643Y-14009200D01*
X7670500Y-14009200D01*
X7699071Y-14023486D01*
X7713357Y-14037771D01*
X7727643Y-14066343D01*
X7727643Y-14137771D01*
X7713357Y-14166343D01*
X7699071Y-14180629D01*
X7670500Y-14194914D01*
X7584786Y-14194914D01*
X7556214Y-14180629D01*
X7541928Y-14166343D01*
X7913357Y-13894914D02*
X7941928Y-13894914D01*
X7970500Y-13909200D01*
X7984786Y-13923486D01*
X7999071Y-13952057D01*
X8013357Y-14009200D01*
X8013357Y-14080629D01*
X7999071Y-14137771D01*
X7984786Y-14166343D01*
X7970500Y-14180629D01*
X7941928Y-14194914D01*
X7913357Y-14194914D01*
X7884786Y-14180629D01*
X7870500Y-14166343D01*
X7856214Y-14137771D01*
X7841928Y-14080629D01*
X7841928Y-14009200D01*
X7856214Y-13952057D01*
X7870500Y-13923486D01*
X7884786Y-13909200D01*
X7913357Y-13894914D01*
X8141928Y-14194914D02*
X8141928Y-13994914D01*
X8141928Y-14023486D02*
X8156214Y-14009200D01*
X8184786Y-13994914D01*
X8227643Y-13994914D01*
X8256214Y-14009200D01*
X8270500Y-14037771D01*
X8270500Y-14194914D01*
X8270500Y-14037771D02*
X8284786Y-14009200D01*
X8313357Y-13994914D01*
X8356214Y-13994914D01*
X8384786Y-14009200D01*
X8399071Y-14037771D01*
X8399071Y-14194914D01*
X8541928Y-14194914D02*
X8541928Y-13994914D01*
X8541928Y-14023486D02*
X8556214Y-14009200D01*
X8584786Y-13994914D01*
X8627643Y-13994914D01*
X8656214Y-14009200D01*
X8670500Y-14037771D01*
X8670500Y-14194914D01*
X8670500Y-14037771D02*
X8684786Y-14009200D01*
X8713357Y-13994914D01*
X8756214Y-13994914D01*
X8784786Y-14009200D01*
X8799071Y-14037771D01*
X8799071Y-14194914D01*
X9384786Y-13880629D02*
X9127643Y-14266343D01*
X9770500Y-13894914D02*
X9799071Y-13894914D01*
X9827643Y-13909200D01*
X9841928Y-13923486D01*
X9856214Y-13952057D01*
X9870500Y-14009200D01*
X9870500Y-14080629D01*
X9856214Y-14137771D01*
X9841928Y-14166343D01*
X9827643Y-14180629D01*
X9799071Y-14194914D01*
X9770500Y-14194914D01*
X9741928Y-14180629D01*
X9727643Y-14166343D01*
X9713357Y-14137771D01*
X9699071Y-14080629D01*
X9699071Y-14009200D01*
X9713357Y-13952057D01*
X9727643Y-13923486D01*
X9741928Y-13909200D01*
X9770500Y-13894914D01*
X9999071Y-14166343D02*
X10013357Y-14180629D01*
X9999071Y-14194914D01*
X9984786Y-14180629D01*
X9999071Y-14166343D01*
X9999071Y-14194914D01*
X10299071Y-14194914D02*
X10127643Y-14194914D01*
X10213357Y-14194914D02*
X10213357Y-13894914D01*
X10184786Y-13937771D01*
X10156214Y-13966343D01*
X10127643Y-13980629D01*
X10556214Y-13894914D02*
X10499071Y-13894914D01*
X10470500Y-13909200D01*
X10456214Y-13923486D01*
X10427643Y-13966343D01*
X10413357Y-14023486D01*
X10413357Y-14137771D01*
X10427643Y-14166343D01*
X10441928Y-14180629D01*
X10470500Y-14194914D01*
X10527643Y-14194914D01*
X10556214Y-14180629D01*
X10570500Y-14166343D01*
X10584786Y-14137771D01*
X10584786Y-14066343D01*
X10570500Y-14037771D01*
X10556214Y-14023486D01*
X10527643Y-14009200D01*
X10470500Y-14009200D01*
X10441928Y-14023486D01*
X10427643Y-14037771D01*
X10413357Y-14066343D01*
X10727643Y-14194914D02*
X10784786Y-14194914D01*
X10813357Y-14180629D01*
X10827643Y-14166343D01*
X10856214Y-14123486D01*
X10870500Y-14066343D01*
X10870500Y-13952057D01*
X10856214Y-13923486D01*
X10841928Y-13909200D01*
X10813357Y-13894914D01*
X10756214Y-13894914D01*
X10727643Y-13909200D01*
X10713357Y-13923486D01*
X10699071Y-13952057D01*
X10699071Y-14023486D01*
X10713357Y-14052057D01*
X10727643Y-14066343D01*
X10756214Y-14080629D01*
X10813357Y-14080629D01*
X10841928Y-14066343D01*
X10856214Y-14052057D01*
X10870500Y-14023486D01*
X10984786Y-13894914D02*
X10984786Y-13952057D01*
X11099071Y-13894914D02*
X11099071Y-13952057D01*
X11541928Y-14309200D02*
X11527643Y-14294914D01*
X11499071Y-14252057D01*
X11484786Y-14223486D01*
X11470500Y-14180629D01*
X11456214Y-14109200D01*
X11456214Y-14052057D01*
X11470500Y-13980629D01*
X11484786Y-13937771D01*
X11499071Y-13909200D01*
X11527643Y-13866343D01*
X11541928Y-13852057D01*
X11813357Y-14194914D02*
X11641928Y-14194914D01*
X11727643Y-14194914D02*
X11727643Y-13894914D01*
X11699071Y-13937771D01*
X11670500Y-13966343D01*
X11641928Y-13980629D01*
X12170500Y-14194914D02*
X12170500Y-13894914D01*
X12299071Y-14194914D02*
X12299071Y-14037771D01*
X12284786Y-14009200D01*
X12256214Y-13994914D01*
X12213357Y-13994914D01*
X12184786Y-14009200D01*
X12170500Y-14023486D01*
X12484786Y-14194914D02*
X12456214Y-14180629D01*
X12441928Y-14166343D01*
X12427643Y-14137771D01*
X12427643Y-14052057D01*
X12441928Y-14023486D01*
X12456214Y-14009200D01*
X12484786Y-13994914D01*
X12527643Y-13994914D01*
X12556214Y-14009200D01*
X12570500Y-14023486D01*
X12584786Y-14052057D01*
X12584786Y-14137771D01*
X12570500Y-14166343D01*
X12556214Y-14180629D01*
X12527643Y-14194914D01*
X12484786Y-14194914D01*
X12756214Y-14194914D02*
X12727643Y-14180629D01*
X12713357Y-14152057D01*
X12713357Y-13894914D01*
X12984786Y-14180629D02*
X12956214Y-14194914D01*
X12899071Y-14194914D01*
X12870500Y-14180629D01*
X12856214Y-14152057D01*
X12856214Y-14037771D01*
X12870500Y-14009200D01*
X12899071Y-13994914D01*
X12956214Y-13994914D01*
X12984786Y-14009200D01*
X12999071Y-14037771D01*
X12999071Y-14066343D01*
X12856214Y-14094914D01*
X13099071Y-14309200D02*
X13113357Y-14294914D01*
X13141928Y-14252057D01*
X13156214Y-14223486D01*
X13170500Y-14180629D01*
X13184786Y-14109200D01*
X13184786Y-14052057D01*
X13170500Y-13980629D01*
X13156214Y-13937771D01*
X13141928Y-13909200D01*
X13113357Y-13866343D01*
X13099071Y-13852057D01*
X13641928Y-14309200D02*
X13627643Y-14294914D01*
X13599071Y-14252057D01*
X13584786Y-14223486D01*
X13570500Y-14180629D01*
X13556214Y-14109200D01*
X13556214Y-14052057D01*
X13570500Y-13980629D01*
X13584786Y-13937771D01*
X13599071Y-13909200D01*
X13627643Y-13866343D01*
X13641928Y-13852057D01*
X13756214Y-13994914D02*
X13756214Y-14194914D01*
X13756214Y-14023486D02*
X13770500Y-14009200D01*
X13799071Y-13994914D01*
X13841928Y-13994914D01*
X13870500Y-14009200D01*
X13884786Y-14037771D01*
X13884786Y-14194914D01*
X14070500Y-14194914D02*
X14041928Y-14180629D01*
X14027643Y-14166343D01*
X14013357Y-14137771D01*
X14013357Y-14052057D01*
X14027643Y-14023486D01*
X14041928Y-14009200D01*
X14070500Y-13994914D01*
X14113357Y-13994914D01*
X14141928Y-14009200D01*
X14156214Y-14023486D01*
X14170500Y-14052057D01*
X14170500Y-14137771D01*
X14156214Y-14166343D01*
X14141928Y-14180629D01*
X14113357Y-14194914D01*
X14070500Y-14194914D01*
X14256214Y-13994914D02*
X14370500Y-13994914D01*
X14299071Y-13894914D02*
X14299071Y-14152057D01*
X14313357Y-14180629D01*
X14341928Y-14194914D01*
X14370500Y-14194914D01*
X14699071Y-13994914D02*
X14699071Y-14294914D01*
X14699071Y-14009200D02*
X14727643Y-13994914D01*
X14784786Y-13994914D01*
X14813357Y-14009200D01*
X14827643Y-14023486D01*
X14841928Y-14052057D01*
X14841928Y-14137771D01*
X14827643Y-14166343D01*
X14813357Y-14180629D01*
X14784786Y-14194914D01*
X14727643Y-14194914D01*
X14699071Y-14180629D01*
X15013357Y-14194914D02*
X14984786Y-14180629D01*
X14970500Y-14152057D01*
X14970500Y-13894914D01*
X15256214Y-14194914D02*
X15256214Y-14037771D01*
X15241928Y-14009200D01*
X15213357Y-13994914D01*
X15156214Y-13994914D01*
X15127643Y-14009200D01*
X15256214Y-14180629D02*
X15227643Y-14194914D01*
X15156214Y-14194914D01*
X15127643Y-14180629D01*
X15113357Y-14152057D01*
X15113357Y-14123486D01*
X15127643Y-14094914D01*
X15156214Y-14080629D01*
X15227643Y-14080629D01*
X15256214Y-14066343D01*
X15356214Y-13994914D02*
X15470500Y-13994914D01*
X15399071Y-13894914D02*
X15399071Y-14152057D01*
X15413357Y-14180629D01*
X15441928Y-14194914D01*
X15470500Y-14194914D01*
X15684786Y-14180629D02*
X15656214Y-14194914D01*
X15599071Y-14194914D01*
X15570500Y-14180629D01*
X15556214Y-14152057D01*
X15556214Y-14037771D01*
X15570500Y-14009200D01*
X15599071Y-13994914D01*
X15656214Y-13994914D01*
X15684786Y-14009200D01*
X15699071Y-14037771D01*
X15699071Y-14066343D01*
X15556214Y-14094914D01*
X15956214Y-14194914D02*
X15956214Y-13894914D01*
X15956214Y-14180629D02*
X15927643Y-14194914D01*
X15870500Y-14194914D01*
X15841928Y-14180629D01*
X15827643Y-14166343D01*
X15813357Y-14137771D01*
X15813357Y-14052057D01*
X15827643Y-14023486D01*
X15841928Y-14009200D01*
X15870500Y-13994914D01*
X15927643Y-13994914D01*
X15956214Y-14009200D01*
X16070500Y-14309200D02*
X16084786Y-14294914D01*
X16113357Y-14252057D01*
X16127643Y-14223486D01*
X16141928Y-14180629D01*
X16156214Y-14109200D01*
X16156214Y-14052057D01*
X16141928Y-13980629D01*
X16127643Y-13937771D01*
X16113357Y-13909200D01*
X16084786Y-13866343D01*
X16070500Y-13852057D01*
M02*
