%TF.GenerationSoftware,KiCad,Pcbnew,(5.1.9)-1*%
%TF.CreationDate,2021-06-27T18:44:15-04:00*%
%TF.ProjectId,C64PowerSupply,43363450-6f77-4657-9253-7570706c792e,A*%
%TF.SameCoordinates,Original*%
%TF.FileFunction,Copper,L2,Bot*%
%TF.FilePolarity,Positive*%
%FSLAX46Y46*%
G04 Gerber Fmt 4.6, Leading zero omitted, Abs format (unit mm)*
G04 Created by KiCad (PCBNEW (5.1.9)-1) date 2021-06-27 18:44:15*
%MOMM*%
%LPD*%
G01*
G04 APERTURE LIST*
%TA.AperFunction,ComponentPad*%
%ADD10C,3.000000*%
%TD*%
%TA.AperFunction,ComponentPad*%
%ADD11R,3.000000X3.000000*%
%TD*%
%TA.AperFunction,ComponentPad*%
%ADD12C,2.500000*%
%TD*%
%TA.AperFunction,ComponentPad*%
%ADD13C,5.700000*%
%TD*%
%TA.AperFunction,ComponentPad*%
%ADD14C,2.400000*%
%TD*%
%TA.AperFunction,ComponentPad*%
%ADD15C,0.100000*%
%TD*%
%TA.AperFunction,ComponentPad*%
%ADD16C,1.600000*%
%TD*%
%TA.AperFunction,ComponentPad*%
%ADD17R,1.600000X1.600000*%
%TD*%
%TA.AperFunction,ComponentPad*%
%ADD18O,1.800000X1.800000*%
%TD*%
%TA.AperFunction,ComponentPad*%
%ADD19R,1.800000X1.800000*%
%TD*%
%TA.AperFunction,ComponentPad*%
%ADD20R,2.400000X2.400000*%
%TD*%
%TA.AperFunction,ComponentPad*%
%ADD21R,1.700000X2.500000*%
%TD*%
%TA.AperFunction,ComponentPad*%
%ADD22O,1.700000X2.500000*%
%TD*%
%TA.AperFunction,Conductor*%
%ADD23C,1.000000*%
%TD*%
%TA.AperFunction,Conductor*%
%ADD24C,0.250000*%
%TD*%
%TA.AperFunction,Conductor*%
%ADD25C,0.254000*%
%TD*%
%TA.AperFunction,Conductor*%
%ADD26C,0.100000*%
%TD*%
G04 APERTURE END LIST*
D10*
%TO.P,J2,4*%
%TO.N,/9VAC+*%
X191008000Y-105156000D03*
D11*
%TO.P,J2,1*%
%TO.N,GND*%
X191008000Y-89916000D03*
D10*
%TO.P,J2,3*%
%TO.N,/9VAC-*%
X191008000Y-100076000D03*
%TO.P,J2,2*%
%TO.N,VCC*%
X191008000Y-94996000D03*
%TD*%
%TO.P,J1,3*%
%TO.N,/HOT*%
X74676000Y-102108000D03*
%TO.P,J1,2*%
%TO.N,/NEUTRAL*%
X74676000Y-107188000D03*
D11*
%TO.P,J1,1*%
%TO.N,GND*%
X74676000Y-112268000D03*
%TD*%
D12*
%TO.P,F2,2*%
%TO.N,Net-(F2-Pad2)*%
X149352000Y-70725000D03*
%TO.P,F2,1*%
%TO.N,Net-(D1-Pad4)*%
X149352000Y-85725000D03*
%TD*%
%TO.P,F1,2*%
%TO.N,Net-(F1-Pad2)*%
X149225000Y-107428000D03*
%TO.P,F1,1*%
%TO.N,/9VAC+*%
X149225000Y-122428000D03*
%TD*%
D13*
%TO.P,H4,1*%
%TO.N,GND*%
X73660000Y-121920000D03*
%TD*%
%TO.P,H3,1*%
%TO.N,GND*%
X190500000Y-121920000D03*
%TD*%
%TO.P,H2,1*%
%TO.N,GND*%
X190500000Y-71120000D03*
%TD*%
%TO.P,H1,1*%
%TO.N,GND*%
X73660000Y-71120000D03*
%TD*%
D14*
%TO.P,D1,2*%
%TO.N,Net-(D1-Pad2)*%
X161448175Y-104156753D03*
%TA.AperFunction,ComponentPad*%
D15*
%TO.P,D1,1*%
%TO.N,/VUNREG*%
G36*
X153670000Y-94822944D02*
G01*
X155367056Y-96520000D01*
X153670000Y-98217056D01*
X151972944Y-96520000D01*
X153670000Y-94822944D01*
G37*
%TD.AperFunction*%
D14*
%TO.P,D1,4*%
%TO.N,Net-(D1-Pad4)*%
X161377464Y-88812536D03*
%TO.P,D1,3*%
%TO.N,GND*%
X169084928Y-96520000D03*
%TD*%
%TO.P,R3,2*%
%TO.N,GND*%
%TA.AperFunction,SMDPad,CuDef*%
G36*
G01*
X176384000Y-108261999D02*
X176384000Y-109162001D01*
G75*
G02*
X176134001Y-109412000I-249999J0D01*
G01*
X175433999Y-109412000D01*
G75*
G02*
X175184000Y-109162001I0J249999D01*
G01*
X175184000Y-108261999D01*
G75*
G02*
X175433999Y-108012000I249999J0D01*
G01*
X176134001Y-108012000D01*
G75*
G02*
X176384000Y-108261999I0J-249999D01*
G01*
G37*
%TD.AperFunction*%
%TO.P,R3,1*%
%TO.N,/VADJ*%
%TA.AperFunction,SMDPad,CuDef*%
G36*
G01*
X178384000Y-108261999D02*
X178384000Y-109162001D01*
G75*
G02*
X178134001Y-109412000I-249999J0D01*
G01*
X177433999Y-109412000D01*
G75*
G02*
X177184000Y-109162001I0J249999D01*
G01*
X177184000Y-108261999D01*
G75*
G02*
X177433999Y-108012000I249999J0D01*
G01*
X178134001Y-108012000D01*
G75*
G02*
X178384000Y-108261999I0J-249999D01*
G01*
G37*
%TD.AperFunction*%
%TD*%
%TO.P,R2,2*%
%TO.N,/VADJ*%
%TA.AperFunction,SMDPad,CuDef*%
G36*
G01*
X177184000Y-111194001D02*
X177184000Y-110293999D01*
G75*
G02*
X177433999Y-110044000I249999J0D01*
G01*
X178134001Y-110044000D01*
G75*
G02*
X178384000Y-110293999I0J-249999D01*
G01*
X178384000Y-111194001D01*
G75*
G02*
X178134001Y-111444000I-249999J0D01*
G01*
X177433999Y-111444000D01*
G75*
G02*
X177184000Y-111194001I0J249999D01*
G01*
G37*
%TD.AperFunction*%
%TO.P,R2,1*%
%TO.N,Net-(R1-Pad2)*%
%TA.AperFunction,SMDPad,CuDef*%
G36*
G01*
X175184000Y-111194001D02*
X175184000Y-110293999D01*
G75*
G02*
X175433999Y-110044000I249999J0D01*
G01*
X176134001Y-110044000D01*
G75*
G02*
X176384000Y-110293999I0J-249999D01*
G01*
X176384000Y-111194001D01*
G75*
G02*
X176134001Y-111444000I-249999J0D01*
G01*
X175433999Y-111444000D01*
G75*
G02*
X175184000Y-111194001I0J249999D01*
G01*
G37*
%TD.AperFunction*%
%TD*%
%TO.P,R1,2*%
%TO.N,Net-(R1-Pad2)*%
%TA.AperFunction,SMDPad,CuDef*%
G36*
G01*
X176384000Y-112325999D02*
X176384000Y-113226001D01*
G75*
G02*
X176134001Y-113476000I-249999J0D01*
G01*
X175433999Y-113476000D01*
G75*
G02*
X175184000Y-113226001I0J249999D01*
G01*
X175184000Y-112325999D01*
G75*
G02*
X175433999Y-112076000I249999J0D01*
G01*
X176134001Y-112076000D01*
G75*
G02*
X176384000Y-112325999I0J-249999D01*
G01*
G37*
%TD.AperFunction*%
%TO.P,R1,1*%
%TO.N,VCC*%
%TA.AperFunction,SMDPad,CuDef*%
G36*
G01*
X178384000Y-112325999D02*
X178384000Y-113226001D01*
G75*
G02*
X178134001Y-113476000I-249999J0D01*
G01*
X177433999Y-113476000D01*
G75*
G02*
X177184000Y-113226001I0J249999D01*
G01*
X177184000Y-112325999D01*
G75*
G02*
X177433999Y-112076000I249999J0D01*
G01*
X178134001Y-112076000D01*
G75*
G02*
X178384000Y-112325999I0J-249999D01*
G01*
G37*
%TD.AperFunction*%
%TD*%
D16*
%TO.P,C5,2*%
%TO.N,GND*%
X191460000Y-113284000D03*
D17*
%TO.P,C5,1*%
%TO.N,VCC*%
X187960000Y-113284000D03*
%TD*%
D18*
%TO.P,U1,5*%
%TO.N,GND*%
X173540000Y-102108000D03*
%TO.P,U1,4*%
%TO.N,/VADJ*%
X175240000Y-105808000D03*
%TO.P,U1,3*%
%TO.N,GND*%
X176940000Y-102108000D03*
%TO.P,U1,2*%
%TO.N,/REG-OUT*%
X178640000Y-105808000D03*
D19*
%TO.P,U1,1*%
%TO.N,/VUNREG*%
X180340000Y-102108000D03*
%TD*%
D16*
%TO.P,C4,2*%
%TO.N,GND*%
X176840000Y-94996000D03*
D17*
%TO.P,C4,1*%
%TO.N,/VUNREG*%
X180340000Y-94996000D03*
%TD*%
D14*
%TO.P,C3,2*%
%TO.N,GND*%
X182372000Y-76320000D03*
D20*
%TO.P,C3,1*%
%TO.N,/VUNREG*%
X182372000Y-83820000D03*
%TD*%
D14*
%TO.P,C2,2*%
%TO.N,GND*%
X164592000Y-72256000D03*
D20*
%TO.P,C2,1*%
%TO.N,/VUNREG*%
X164592000Y-79756000D03*
%TD*%
D14*
%TO.P,C1,2*%
%TO.N,/NEUTRAL*%
X74676000Y-80250000D03*
%TO.P,C1,1*%
%TO.N,/HOT*%
X74676000Y-95250000D03*
%TD*%
D21*
%TO.P,TR1,1*%
%TO.N,/HOT*%
X83820000Y-121920000D03*
D22*
%TO.P,TR1,2*%
%TO.N,/NEUTRAL*%
X83790000Y-116840000D03*
%TO.P,TR1,4*%
X83790000Y-71120000D03*
%TO.P,TR1,5*%
%TO.N,Net-(D1-Pad2)*%
X139700000Y-68580000D03*
%TO.P,TR1,6*%
%TO.N,Net-(F2-Pad2)*%
X139700000Y-73660000D03*
%TO.P,TR1,7*%
%TO.N,/9VAC-*%
X139700000Y-119380000D03*
%TO.P,TR1,8*%
%TO.N,Net-(F1-Pad2)*%
X139730000Y-124460000D03*
%TO.P,TR1,3*%
%TO.N,/HOT*%
X83820000Y-76200000D03*
%TD*%
D23*
%TO.N,GND*%
X74676000Y-120904000D02*
X73660000Y-121920000D01*
X178308000Y-72256000D02*
X182372000Y-76320000D01*
X164592000Y-72256000D02*
X178308000Y-72256000D01*
X185300000Y-76320000D02*
X182372000Y-76320000D01*
X190500000Y-71120000D02*
X185300000Y-76320000D01*
X191008000Y-71628000D02*
X190500000Y-71120000D01*
X191008000Y-89916000D02*
X191008000Y-71628000D01*
X191460000Y-112152630D02*
X187851360Y-108543990D01*
X191460000Y-113284000D02*
X191460000Y-112152630D01*
X176940000Y-102108000D02*
X173540000Y-102108000D01*
X169084928Y-97652928D02*
X173540000Y-102108000D01*
X169084928Y-96520000D02*
X169084928Y-97652928D01*
X176940000Y-95096000D02*
X176840000Y-94996000D01*
X176940000Y-102108000D02*
X176940000Y-95096000D01*
X176840000Y-93864630D02*
X180788630Y-89916000D01*
X176840000Y-94996000D02*
X176840000Y-93864630D01*
X184235990Y-90592010D02*
X184912000Y-89916000D01*
X184235990Y-108543990D02*
X184235990Y-90592010D01*
X184912000Y-89916000D02*
X191008000Y-89916000D01*
X180788630Y-89916000D02*
X184912000Y-89916000D01*
X187851360Y-108543990D02*
X184235990Y-108543990D01*
X190500000Y-114244000D02*
X191460000Y-113284000D01*
X190500000Y-121920000D02*
X190500000Y-114244000D01*
X174584236Y-108712000D02*
X175784000Y-108712000D01*
X172640001Y-106767765D02*
X174584236Y-108712000D01*
X172640001Y-103007999D02*
X172640001Y-106767765D01*
X173540000Y-102108000D02*
X172640001Y-103007999D01*
X69629492Y-121920000D02*
X69605010Y-121895518D01*
X73660000Y-121920000D02*
X69629492Y-121920000D01*
X73152000Y-70612000D02*
X73660000Y-71120000D01*
X69605010Y-70612000D02*
X73152000Y-70612000D01*
X70104000Y-112268000D02*
X69605010Y-111769010D01*
X74676000Y-112268000D02*
X70104000Y-112268000D01*
X69605010Y-121895518D02*
X69605010Y-111769010D01*
X165887862Y-99717066D02*
X169084928Y-96520000D01*
X110295064Y-99717066D02*
X126850934Y-99717066D01*
X69605010Y-98034990D02*
X108612988Y-98034990D01*
X108612988Y-98034990D02*
X110295064Y-99717066D01*
X126850934Y-99717066D02*
X165887862Y-99717066D01*
X124818934Y-99717066D02*
X126850934Y-99717066D01*
X69605010Y-111769010D02*
X69605010Y-98034990D01*
X69605010Y-98034990D02*
X69605010Y-70612000D01*
%TO.N,Net-(F1-Pad2)*%
X136144000Y-120874000D02*
X139730000Y-124460000D01*
X136144000Y-115824000D02*
X136144000Y-120874000D01*
X144540000Y-107428000D02*
X136144000Y-115824000D01*
X149225000Y-107428000D02*
X144540000Y-107428000D01*
%TO.N,Net-(R1-Pad2)*%
X175784000Y-112776000D02*
X175784000Y-110744000D01*
%TO.N,VCC*%
X186540899Y-111864899D02*
X187960000Y-113284000D01*
X180807419Y-111864899D02*
X186540899Y-111864899D01*
X179896318Y-112776000D02*
X180807419Y-111864899D01*
X177784000Y-112776000D02*
X179896318Y-112776000D01*
D24*
%TO.N,/VADJ*%
X177784000Y-110744000D02*
X177784000Y-108712000D01*
X175580000Y-105808000D02*
X175240000Y-105808000D01*
X177784000Y-108012000D02*
X175580000Y-105808000D01*
X177784000Y-108712000D02*
X177784000Y-108012000D01*
D23*
%TO.N,/9VAC-*%
X194554990Y-103622990D02*
X191008000Y-100076000D01*
X192342011Y-125974990D02*
X194554990Y-123762011D01*
X194554990Y-123762011D02*
X194554990Y-103622990D01*
X148834990Y-125974990D02*
X192342011Y-125974990D01*
X142240000Y-119380000D02*
X148834990Y-125974990D01*
X139700000Y-119380000D02*
X142240000Y-119380000D01*
%TD*%
D25*
%TO.N,GND*%
X139408889Y-66716487D02*
X139128966Y-66801401D01*
X138870986Y-66939294D01*
X138644866Y-67124866D01*
X138459294Y-67350987D01*
X138321401Y-67608967D01*
X138236487Y-67888890D01*
X138215000Y-68107051D01*
X138215000Y-69052950D01*
X138236487Y-69271111D01*
X138321401Y-69551034D01*
X138459294Y-69809014D01*
X138644866Y-70035134D01*
X138870987Y-70220706D01*
X139128967Y-70358599D01*
X139408890Y-70443513D01*
X139700000Y-70472185D01*
X139991111Y-70443513D01*
X140271034Y-70358599D01*
X140529014Y-70220706D01*
X140755134Y-70035134D01*
X140940706Y-69809014D01*
X141078599Y-69551034D01*
X141163513Y-69271111D01*
X141185000Y-69052949D01*
X141185000Y-68667967D01*
X188227572Y-68667967D01*
X190500000Y-70940395D01*
X192772428Y-68667967D01*
X192454243Y-68214150D01*
X191849790Y-67888731D01*
X191193465Y-67687488D01*
X190510490Y-67618155D01*
X189827112Y-67683395D01*
X189169593Y-67880702D01*
X188563201Y-68202494D01*
X188545757Y-68214150D01*
X188227572Y-68667967D01*
X141185000Y-68667967D01*
X141185000Y-68107050D01*
X141163513Y-67888889D01*
X141078599Y-67608966D01*
X140940706Y-67350986D01*
X140755134Y-67124866D01*
X140529013Y-66939294D01*
X140271033Y-66801401D01*
X139991110Y-66716487D01*
X139823716Y-66700000D01*
X194920000Y-66700000D01*
X194920001Y-102382869D01*
X193089977Y-100552845D01*
X193143000Y-100286279D01*
X193143000Y-99865721D01*
X193060953Y-99453244D01*
X192900012Y-99064698D01*
X192666363Y-98715017D01*
X192368983Y-98417637D01*
X192019302Y-98183988D01*
X191630756Y-98023047D01*
X191218279Y-97941000D01*
X190797721Y-97941000D01*
X190385244Y-98023047D01*
X189996698Y-98183988D01*
X189647017Y-98417637D01*
X189349637Y-98715017D01*
X189115988Y-99064698D01*
X188955047Y-99453244D01*
X188873000Y-99865721D01*
X188873000Y-100286279D01*
X188955047Y-100698756D01*
X189115988Y-101087302D01*
X189349637Y-101436983D01*
X189647017Y-101734363D01*
X189996698Y-101968012D01*
X190385244Y-102128953D01*
X190797721Y-102211000D01*
X191218279Y-102211000D01*
X191484845Y-102157977D01*
X193419991Y-104093123D01*
X193419990Y-119987882D01*
X193417506Y-119983201D01*
X193405850Y-119965757D01*
X192952033Y-119647572D01*
X190679605Y-121920000D01*
X190693748Y-121934143D01*
X190514143Y-122113748D01*
X190500000Y-122099605D01*
X188227572Y-124372033D01*
X188545757Y-124825850D01*
X188572021Y-124839990D01*
X149305122Y-124839990D01*
X148713273Y-124248141D01*
X149039344Y-124313000D01*
X149410656Y-124313000D01*
X149774834Y-124240561D01*
X150117882Y-124098466D01*
X150426618Y-123892175D01*
X150689175Y-123629618D01*
X150895466Y-123320882D01*
X151037561Y-122977834D01*
X151110000Y-122613656D01*
X151110000Y-122242344D01*
X151037561Y-121878166D01*
X150895466Y-121535118D01*
X150689175Y-121226382D01*
X150426618Y-120963825D01*
X150117882Y-120757534D01*
X149774834Y-120615439D01*
X149410656Y-120543000D01*
X149039344Y-120543000D01*
X148675166Y-120615439D01*
X148332118Y-120757534D01*
X148023382Y-120963825D01*
X147760825Y-121226382D01*
X147554534Y-121535118D01*
X147412439Y-121878166D01*
X147340000Y-122242344D01*
X147340000Y-122613656D01*
X147404859Y-122939728D01*
X143081996Y-118616865D01*
X143046449Y-118573551D01*
X142873623Y-118431716D01*
X142676447Y-118326324D01*
X142462499Y-118261423D01*
X142295752Y-118245000D01*
X142295751Y-118245000D01*
X142240000Y-118239509D01*
X142184249Y-118245000D01*
X140990957Y-118245000D01*
X140940706Y-118150986D01*
X140755134Y-117924866D01*
X140529013Y-117739294D01*
X140271033Y-117601401D01*
X139991110Y-117516487D01*
X139700000Y-117487815D01*
X139408889Y-117516487D01*
X139128966Y-117601401D01*
X138870986Y-117739294D01*
X138644866Y-117924866D01*
X138459294Y-118150987D01*
X138321401Y-118408967D01*
X138236487Y-118688890D01*
X138215000Y-118907051D01*
X138215000Y-119852950D01*
X138236487Y-120071111D01*
X138321401Y-120351034D01*
X138459294Y-120609014D01*
X138644866Y-120835134D01*
X138870987Y-121020706D01*
X139128967Y-121158599D01*
X139408890Y-121243513D01*
X139700000Y-121272185D01*
X139991111Y-121243513D01*
X140271034Y-121158599D01*
X140529014Y-121020706D01*
X140755134Y-120835134D01*
X140940706Y-120609014D01*
X140990957Y-120515000D01*
X141769869Y-120515000D01*
X147594868Y-126340000D01*
X139853716Y-126340000D01*
X140021111Y-126323513D01*
X140301034Y-126238599D01*
X140559014Y-126100706D01*
X140785134Y-125915134D01*
X140970706Y-125689014D01*
X141108599Y-125431034D01*
X141193513Y-125151111D01*
X141215000Y-124932949D01*
X141215000Y-123987050D01*
X141193513Y-123768889D01*
X141108599Y-123488966D01*
X140970706Y-123230986D01*
X140785134Y-123004866D01*
X140559013Y-122819294D01*
X140301033Y-122681401D01*
X140021110Y-122596487D01*
X139730000Y-122567815D01*
X139468684Y-122593552D01*
X137279000Y-120403869D01*
X137279000Y-116294131D01*
X142829131Y-110744000D01*
X155829000Y-110744000D01*
X155829000Y-121920000D01*
X155831440Y-121944776D01*
X155838667Y-121968601D01*
X155850403Y-121990557D01*
X155866197Y-122009803D01*
X155885443Y-122025597D01*
X155907399Y-122037333D01*
X155931224Y-122044560D01*
X155956000Y-122047000D01*
X167132000Y-122047000D01*
X167156776Y-122044560D01*
X167180601Y-122037333D01*
X167202557Y-122025597D01*
X167221803Y-122009803D01*
X167237597Y-121990557D01*
X167249333Y-121968601D01*
X167256560Y-121944776D01*
X167259000Y-121920000D01*
X167259000Y-121909510D01*
X186998155Y-121909510D01*
X187063395Y-122592888D01*
X187260702Y-123250407D01*
X187582494Y-123856799D01*
X187594150Y-123874243D01*
X188047967Y-124192428D01*
X190320395Y-121920000D01*
X188047967Y-119647572D01*
X187594150Y-119965757D01*
X187268731Y-120570210D01*
X187067488Y-121226535D01*
X186998155Y-121909510D01*
X167259000Y-121909510D01*
X167259000Y-119467967D01*
X188227572Y-119467967D01*
X190500000Y-121740395D01*
X192772428Y-119467967D01*
X192454243Y-119014150D01*
X191849790Y-118688731D01*
X191193465Y-118487488D01*
X190510490Y-118418155D01*
X189827112Y-118483395D01*
X189169593Y-118680702D01*
X188563201Y-119002494D01*
X188545757Y-119014150D01*
X188227572Y-119467967D01*
X167259000Y-119467967D01*
X167259000Y-114004520D01*
X169672000Y-114004520D01*
X169672000Y-114392280D01*
X169747648Y-114772590D01*
X169896038Y-115130835D01*
X170111466Y-115453246D01*
X170385654Y-115727434D01*
X170708065Y-115942862D01*
X171066310Y-116091252D01*
X171446620Y-116166900D01*
X171834380Y-116166900D01*
X172214690Y-116091252D01*
X172572935Y-115942862D01*
X172895346Y-115727434D01*
X173169534Y-115453246D01*
X173384962Y-115130835D01*
X173533352Y-114772590D01*
X173609000Y-114392280D01*
X173609000Y-114004520D01*
X173533352Y-113624210D01*
X173384962Y-113265965D01*
X173169534Y-112943554D01*
X172895346Y-112669366D01*
X172572935Y-112453938D01*
X172214690Y-112305548D01*
X171834380Y-112229900D01*
X171446620Y-112229900D01*
X171066310Y-112305548D01*
X170708065Y-112453938D01*
X170385654Y-112669366D01*
X170111466Y-112943554D01*
X169896038Y-113265965D01*
X169747648Y-113624210D01*
X169672000Y-114004520D01*
X167259000Y-114004520D01*
X167259000Y-110744000D01*
X167256560Y-110719224D01*
X167249333Y-110695399D01*
X167237597Y-110673443D01*
X167221803Y-110654197D01*
X167202557Y-110638403D01*
X167180601Y-110626667D01*
X167156776Y-110619440D01*
X167132000Y-110617000D01*
X155956000Y-110617000D01*
X155931224Y-110619440D01*
X155907399Y-110626667D01*
X155885443Y-110638403D01*
X155866197Y-110654197D01*
X155850403Y-110673443D01*
X155838667Y-110695399D01*
X155831440Y-110719224D01*
X155829000Y-110744000D01*
X142829131Y-110744000D01*
X145010132Y-108563000D01*
X147716312Y-108563000D01*
X147760825Y-108629618D01*
X148023382Y-108892175D01*
X148332118Y-109098466D01*
X148675166Y-109240561D01*
X149039344Y-109313000D01*
X149410656Y-109313000D01*
X149774834Y-109240561D01*
X150117882Y-109098466D01*
X150426618Y-108892175D01*
X150689175Y-108629618D01*
X150895466Y-108320882D01*
X151023408Y-108012000D01*
X174545928Y-108012000D01*
X174549000Y-108426250D01*
X174707750Y-108585000D01*
X175657000Y-108585000D01*
X175657000Y-107535750D01*
X175498250Y-107377000D01*
X175184000Y-107373928D01*
X175059518Y-107386188D01*
X174939820Y-107422498D01*
X174829506Y-107481463D01*
X174732815Y-107560815D01*
X174653463Y-107657506D01*
X174594498Y-107767820D01*
X174558188Y-107887518D01*
X174545928Y-108012000D01*
X151023408Y-108012000D01*
X151037561Y-107977834D01*
X151110000Y-107613656D01*
X151110000Y-107242344D01*
X151037561Y-106878166D01*
X150895466Y-106535118D01*
X150689175Y-106226382D01*
X150426618Y-105963825D01*
X150117882Y-105757534D01*
X149774834Y-105615439D01*
X149410656Y-105543000D01*
X149039344Y-105543000D01*
X148675166Y-105615439D01*
X148332118Y-105757534D01*
X148023382Y-105963825D01*
X147760825Y-106226382D01*
X147716312Y-106293000D01*
X144595751Y-106293000D01*
X144539999Y-106287509D01*
X144484248Y-106293000D01*
X144317501Y-106309423D01*
X144103553Y-106374324D01*
X143906377Y-106479716D01*
X143733551Y-106621551D01*
X143698009Y-106664859D01*
X135380865Y-114982004D01*
X135337551Y-115017551D01*
X135195716Y-115190377D01*
X135091761Y-115384866D01*
X135090324Y-115387554D01*
X135025423Y-115601502D01*
X135003509Y-115824000D01*
X135009000Y-115879752D01*
X135009001Y-120818239D01*
X135003509Y-120874000D01*
X135025423Y-121096498D01*
X135090324Y-121310446D01*
X135090325Y-121310447D01*
X135195717Y-121507623D01*
X135337552Y-121680449D01*
X135380860Y-121715991D01*
X138245000Y-124580132D01*
X138245000Y-124932950D01*
X138266487Y-125151111D01*
X138351401Y-125431034D01*
X138489294Y-125689014D01*
X138674866Y-125915134D01*
X138900987Y-126100706D01*
X139158967Y-126238599D01*
X139438890Y-126323513D01*
X139606284Y-126340000D01*
X89535000Y-126340000D01*
X89535000Y-103976021D01*
X159613175Y-103976021D01*
X159613175Y-104337485D01*
X159683693Y-104692003D01*
X159822019Y-105025952D01*
X160022837Y-105326497D01*
X160278431Y-105582091D01*
X160578976Y-105782909D01*
X160912925Y-105921235D01*
X161267443Y-105991753D01*
X161628907Y-105991753D01*
X161983425Y-105921235D01*
X162317374Y-105782909D01*
X162506085Y-105656816D01*
X173705000Y-105656816D01*
X173705000Y-105959184D01*
X173763989Y-106255743D01*
X173879701Y-106535095D01*
X174047688Y-106786505D01*
X174261495Y-107000312D01*
X174512905Y-107168299D01*
X174792257Y-107284011D01*
X175088816Y-107343000D01*
X175391184Y-107343000D01*
X175687743Y-107284011D01*
X175895255Y-107198056D01*
X176074155Y-107376957D01*
X176069750Y-107377000D01*
X175911000Y-107535750D01*
X175911000Y-108585000D01*
X175931000Y-108585000D01*
X175931000Y-108839000D01*
X175911000Y-108839000D01*
X175911000Y-108859000D01*
X175657000Y-108859000D01*
X175657000Y-108839000D01*
X174707750Y-108839000D01*
X174549000Y-108997750D01*
X174545928Y-109412000D01*
X174558188Y-109536482D01*
X174594498Y-109656180D01*
X174653463Y-109766494D01*
X174690021Y-109811041D01*
X174613528Y-109954149D01*
X174562992Y-110120745D01*
X174545928Y-110293999D01*
X174545928Y-111194001D01*
X174562992Y-111367255D01*
X174613528Y-111533851D01*
X174649001Y-111600215D01*
X174649000Y-111919785D01*
X174613528Y-111986149D01*
X174562992Y-112152745D01*
X174545928Y-112325999D01*
X174545928Y-113226001D01*
X174562992Y-113399255D01*
X174613528Y-113565851D01*
X174695595Y-113719387D01*
X174806038Y-113853962D01*
X174940613Y-113964405D01*
X175094149Y-114046472D01*
X175260745Y-114097008D01*
X175433999Y-114114072D01*
X176134001Y-114114072D01*
X176307255Y-114097008D01*
X176473851Y-114046472D01*
X176627387Y-113964405D01*
X176761962Y-113853962D01*
X176784000Y-113827109D01*
X176806038Y-113853962D01*
X176940613Y-113964405D01*
X177094149Y-114046472D01*
X177260745Y-114097008D01*
X177433999Y-114114072D01*
X178134001Y-114114072D01*
X178307255Y-114097008D01*
X178473851Y-114046472D01*
X178627387Y-113964405D01*
X178692461Y-113911000D01*
X179840567Y-113911000D01*
X179896318Y-113916491D01*
X179952069Y-113911000D01*
X179952070Y-113911000D01*
X179978112Y-113908435D01*
X179959000Y-114004520D01*
X179959000Y-114392280D01*
X180034648Y-114772590D01*
X180183038Y-115130835D01*
X180398466Y-115453246D01*
X180672654Y-115727434D01*
X180995065Y-115942862D01*
X181353310Y-116091252D01*
X181733620Y-116166900D01*
X182121380Y-116166900D01*
X182501690Y-116091252D01*
X182859935Y-115942862D01*
X183182346Y-115727434D01*
X183456534Y-115453246D01*
X183671962Y-115130835D01*
X183820352Y-114772590D01*
X183896000Y-114392280D01*
X183896000Y-114004520D01*
X183820352Y-113624210D01*
X183671962Y-113265965D01*
X183494183Y-112999899D01*
X186070768Y-112999899D01*
X186521928Y-113451060D01*
X186521928Y-114084000D01*
X186534188Y-114208482D01*
X186570498Y-114328180D01*
X186629463Y-114438494D01*
X186708815Y-114535185D01*
X186805506Y-114614537D01*
X186915820Y-114673502D01*
X187035518Y-114709812D01*
X187160000Y-114722072D01*
X188760000Y-114722072D01*
X188884482Y-114709812D01*
X189004180Y-114673502D01*
X189114494Y-114614537D01*
X189211185Y-114535185D01*
X189290537Y-114438494D01*
X189349502Y-114328180D01*
X189365117Y-114276702D01*
X190646903Y-114276702D01*
X190718486Y-114520671D01*
X190973996Y-114641571D01*
X191248184Y-114710300D01*
X191530512Y-114724217D01*
X191810130Y-114682787D01*
X192076292Y-114587603D01*
X192201514Y-114520671D01*
X192273097Y-114276702D01*
X191460000Y-113463605D01*
X190646903Y-114276702D01*
X189365117Y-114276702D01*
X189385812Y-114208482D01*
X189398072Y-114084000D01*
X189398072Y-113354512D01*
X190019783Y-113354512D01*
X190061213Y-113634130D01*
X190156397Y-113900292D01*
X190223329Y-114025514D01*
X190467298Y-114097097D01*
X191280395Y-113284000D01*
X191639605Y-113284000D01*
X192452702Y-114097097D01*
X192696671Y-114025514D01*
X192817571Y-113770004D01*
X192886300Y-113495816D01*
X192900217Y-113213488D01*
X192858787Y-112933870D01*
X192763603Y-112667708D01*
X192696671Y-112542486D01*
X192452702Y-112470903D01*
X191639605Y-113284000D01*
X191280395Y-113284000D01*
X190467298Y-112470903D01*
X190223329Y-112542486D01*
X190102429Y-112797996D01*
X190033700Y-113072184D01*
X190019783Y-113354512D01*
X189398072Y-113354512D01*
X189398072Y-112484000D01*
X189385812Y-112359518D01*
X189365118Y-112291298D01*
X190646903Y-112291298D01*
X191460000Y-113104395D01*
X192273097Y-112291298D01*
X192201514Y-112047329D01*
X191946004Y-111926429D01*
X191671816Y-111857700D01*
X191389488Y-111843783D01*
X191109870Y-111885213D01*
X190843708Y-111980397D01*
X190718486Y-112047329D01*
X190646903Y-112291298D01*
X189365118Y-112291298D01*
X189349502Y-112239820D01*
X189290537Y-112129506D01*
X189211185Y-112032815D01*
X189114494Y-111953463D01*
X189004180Y-111894498D01*
X188884482Y-111858188D01*
X188760000Y-111845928D01*
X188127060Y-111845928D01*
X187382895Y-111101764D01*
X187347348Y-111058450D01*
X187174522Y-110916615D01*
X186977346Y-110811223D01*
X186763398Y-110746322D01*
X186596651Y-110729899D01*
X186596650Y-110729899D01*
X186540899Y-110724408D01*
X186485148Y-110729899D01*
X180863160Y-110729899D01*
X180807418Y-110724409D01*
X180751676Y-110729899D01*
X180751667Y-110729899D01*
X180584920Y-110746322D01*
X180370972Y-110811223D01*
X180173796Y-110916615D01*
X180000970Y-111058450D01*
X179965427Y-111101759D01*
X179426187Y-111641000D01*
X178897199Y-111641000D01*
X178954472Y-111533851D01*
X179005008Y-111367255D01*
X179022072Y-111194001D01*
X179022072Y-110293999D01*
X179005008Y-110120745D01*
X178954472Y-109954149D01*
X178872405Y-109800613D01*
X178812813Y-109728000D01*
X178872405Y-109655387D01*
X178954472Y-109501851D01*
X179005008Y-109335255D01*
X179022072Y-109162001D01*
X179022072Y-108261999D01*
X179005008Y-108088745D01*
X178954472Y-107922149D01*
X178872405Y-107768613D01*
X178761962Y-107634038D01*
X178627387Y-107523595D01*
X178473851Y-107441528D01*
X178307255Y-107390992D01*
X178230205Y-107383403D01*
X178087365Y-107240563D01*
X178192257Y-107284011D01*
X178488816Y-107343000D01*
X178791184Y-107343000D01*
X179087743Y-107284011D01*
X179367095Y-107168299D01*
X179618505Y-107000312D01*
X179832312Y-106786505D01*
X180000299Y-106535095D01*
X180116011Y-106255743D01*
X180175000Y-105959184D01*
X180175000Y-105656816D01*
X180116011Y-105360257D01*
X180000299Y-105080905D01*
X179909972Y-104945721D01*
X188873000Y-104945721D01*
X188873000Y-105366279D01*
X188955047Y-105778756D01*
X189115988Y-106167302D01*
X189349637Y-106516983D01*
X189647017Y-106814363D01*
X189996698Y-107048012D01*
X190385244Y-107208953D01*
X190797721Y-107291000D01*
X191218279Y-107291000D01*
X191630756Y-107208953D01*
X192019302Y-107048012D01*
X192368983Y-106814363D01*
X192666363Y-106516983D01*
X192900012Y-106167302D01*
X193060953Y-105778756D01*
X193143000Y-105366279D01*
X193143000Y-104945721D01*
X193060953Y-104533244D01*
X192900012Y-104144698D01*
X192666363Y-103795017D01*
X192368983Y-103497637D01*
X192019302Y-103263988D01*
X191630756Y-103103047D01*
X191218279Y-103021000D01*
X190797721Y-103021000D01*
X190385244Y-103103047D01*
X189996698Y-103263988D01*
X189647017Y-103497637D01*
X189349637Y-103795017D01*
X189115988Y-104144698D01*
X188955047Y-104533244D01*
X188873000Y-104945721D01*
X179909972Y-104945721D01*
X179832312Y-104829495D01*
X179618505Y-104615688D01*
X179367095Y-104447701D01*
X179087743Y-104331989D01*
X178791184Y-104273000D01*
X178488816Y-104273000D01*
X178192257Y-104331989D01*
X177912905Y-104447701D01*
X177661495Y-104615688D01*
X177447688Y-104829495D01*
X177279701Y-105080905D01*
X177163989Y-105360257D01*
X177105000Y-105656816D01*
X177105000Y-105959184D01*
X177163989Y-106255743D01*
X177207437Y-106360636D01*
X176775000Y-105928199D01*
X176775000Y-105656816D01*
X176716011Y-105360257D01*
X176600299Y-105080905D01*
X176432312Y-104829495D01*
X176218505Y-104615688D01*
X175967095Y-104447701D01*
X175687743Y-104331989D01*
X175391184Y-104273000D01*
X175088816Y-104273000D01*
X174792257Y-104331989D01*
X174512905Y-104447701D01*
X174261495Y-104615688D01*
X174047688Y-104829495D01*
X173879701Y-105080905D01*
X173763989Y-105360257D01*
X173705000Y-105656816D01*
X162506085Y-105656816D01*
X162617919Y-105582091D01*
X162873513Y-105326497D01*
X163074331Y-105025952D01*
X163212657Y-104692003D01*
X163283175Y-104337485D01*
X163283175Y-103976021D01*
X163212657Y-103621503D01*
X163074331Y-103287554D01*
X162873513Y-102987009D01*
X162617919Y-102731415D01*
X162317374Y-102530597D01*
X162177695Y-102472740D01*
X172048964Y-102472740D01*
X172097606Y-102633107D01*
X172227764Y-102904414D01*
X172408351Y-103145116D01*
X172632427Y-103345962D01*
X172891380Y-103499234D01*
X173175259Y-103599041D01*
X173413000Y-103478992D01*
X173413000Y-102235000D01*
X173667000Y-102235000D01*
X173667000Y-103478992D01*
X173904741Y-103599041D01*
X174188620Y-103499234D01*
X174447573Y-103345962D01*
X174671649Y-103145116D01*
X174852236Y-102904414D01*
X174982394Y-102633107D01*
X175031036Y-102472740D01*
X175448964Y-102472740D01*
X175497606Y-102633107D01*
X175627764Y-102904414D01*
X175808351Y-103145116D01*
X176032427Y-103345962D01*
X176291380Y-103499234D01*
X176575259Y-103599041D01*
X176813000Y-103478992D01*
X176813000Y-102235000D01*
X177067000Y-102235000D01*
X177067000Y-103478992D01*
X177304741Y-103599041D01*
X177588620Y-103499234D01*
X177847573Y-103345962D01*
X178071649Y-103145116D01*
X178252236Y-102904414D01*
X178382394Y-102633107D01*
X178431036Y-102472740D01*
X178310378Y-102235000D01*
X177067000Y-102235000D01*
X176813000Y-102235000D01*
X175569622Y-102235000D01*
X175448964Y-102472740D01*
X175031036Y-102472740D01*
X174910378Y-102235000D01*
X173667000Y-102235000D01*
X173413000Y-102235000D01*
X172169622Y-102235000D01*
X172048964Y-102472740D01*
X162177695Y-102472740D01*
X161983425Y-102392271D01*
X161628907Y-102321753D01*
X161267443Y-102321753D01*
X160912925Y-102392271D01*
X160578976Y-102530597D01*
X160278431Y-102731415D01*
X160022837Y-102987009D01*
X159822019Y-103287554D01*
X159683693Y-103621503D01*
X159613175Y-103976021D01*
X89535000Y-103976021D01*
X89535000Y-101743260D01*
X172048964Y-101743260D01*
X172169622Y-101981000D01*
X173413000Y-101981000D01*
X173413000Y-100737008D01*
X173667000Y-100737008D01*
X173667000Y-101981000D01*
X174910378Y-101981000D01*
X175031036Y-101743260D01*
X175448964Y-101743260D01*
X175569622Y-101981000D01*
X176813000Y-101981000D01*
X176813000Y-100737008D01*
X177067000Y-100737008D01*
X177067000Y-101981000D01*
X178310378Y-101981000D01*
X178431036Y-101743260D01*
X178382394Y-101582893D01*
X178252236Y-101311586D01*
X178174521Y-101208000D01*
X178801928Y-101208000D01*
X178801928Y-103008000D01*
X178814188Y-103132482D01*
X178850498Y-103252180D01*
X178909463Y-103362494D01*
X178988815Y-103459185D01*
X179085506Y-103538537D01*
X179195820Y-103597502D01*
X179315518Y-103633812D01*
X179440000Y-103646072D01*
X181240000Y-103646072D01*
X181364482Y-103633812D01*
X181484180Y-103597502D01*
X181594494Y-103538537D01*
X181691185Y-103459185D01*
X181770537Y-103362494D01*
X181829502Y-103252180D01*
X181865812Y-103132482D01*
X181878072Y-103008000D01*
X181878072Y-101208000D01*
X181865812Y-101083518D01*
X181829502Y-100963820D01*
X181770537Y-100853506D01*
X181691185Y-100756815D01*
X181594494Y-100677463D01*
X181484180Y-100618498D01*
X181364482Y-100582188D01*
X181240000Y-100569928D01*
X179440000Y-100569928D01*
X179315518Y-100582188D01*
X179195820Y-100618498D01*
X179085506Y-100677463D01*
X178988815Y-100756815D01*
X178909463Y-100853506D01*
X178850498Y-100963820D01*
X178814188Y-101083518D01*
X178801928Y-101208000D01*
X178174521Y-101208000D01*
X178071649Y-101070884D01*
X177847573Y-100870038D01*
X177588620Y-100716766D01*
X177304741Y-100616959D01*
X177067000Y-100737008D01*
X176813000Y-100737008D01*
X176575259Y-100616959D01*
X176291380Y-100716766D01*
X176032427Y-100870038D01*
X175808351Y-101070884D01*
X175627764Y-101311586D01*
X175497606Y-101582893D01*
X175448964Y-101743260D01*
X175031036Y-101743260D01*
X174982394Y-101582893D01*
X174852236Y-101311586D01*
X174671649Y-101070884D01*
X174447573Y-100870038D01*
X174188620Y-100716766D01*
X173904741Y-100616959D01*
X173667000Y-100737008D01*
X173413000Y-100737008D01*
X173175259Y-100616959D01*
X172891380Y-100716766D01*
X172632427Y-100870038D01*
X172408351Y-101070884D01*
X172227764Y-101311586D01*
X172097606Y-101582893D01*
X172048964Y-101743260D01*
X89535000Y-101743260D01*
X89535000Y-96245701D01*
X108975000Y-96245701D01*
X108975000Y-96794299D01*
X109082026Y-97332354D01*
X109291965Y-97839192D01*
X109596750Y-98295334D01*
X109984666Y-98683250D01*
X110440808Y-98988035D01*
X110947646Y-99197974D01*
X111485701Y-99305000D01*
X112034299Y-99305000D01*
X112572354Y-99197974D01*
X113079192Y-98988035D01*
X113535334Y-98683250D01*
X113923250Y-98295334D01*
X114228035Y-97839192D01*
X114437974Y-97332354D01*
X114545000Y-96794299D01*
X114545000Y-96520000D01*
X151334872Y-96520000D01*
X151347132Y-96644482D01*
X151383442Y-96764180D01*
X151442407Y-96874494D01*
X151521759Y-96971185D01*
X153218815Y-98668241D01*
X153315506Y-98747593D01*
X153425820Y-98806558D01*
X153545518Y-98842868D01*
X153670000Y-98855128D01*
X153794482Y-98842868D01*
X153914180Y-98806558D01*
X154024494Y-98747593D01*
X154121185Y-98668241D01*
X155818241Y-96971185D01*
X155849416Y-96933198D01*
X167287942Y-96933198D01*
X167403082Y-97275833D01*
X167582854Y-97589422D01*
X167820350Y-97861913D01*
X168106443Y-98082835D01*
X168430138Y-98243699D01*
X168671730Y-98316986D01*
X168957928Y-98200336D01*
X168957928Y-96647000D01*
X169211928Y-96647000D01*
X169211928Y-98200336D01*
X169498126Y-98316986D01*
X169840761Y-98201846D01*
X170154350Y-98022074D01*
X170426841Y-97784578D01*
X170647763Y-97498485D01*
X170808627Y-97174790D01*
X170881914Y-96933198D01*
X170765264Y-96647000D01*
X169211928Y-96647000D01*
X168957928Y-96647000D01*
X167404592Y-96647000D01*
X167287942Y-96933198D01*
X155849416Y-96933198D01*
X155897593Y-96874494D01*
X155956558Y-96764180D01*
X155992868Y-96644482D01*
X156005128Y-96520000D01*
X155992868Y-96395518D01*
X155956558Y-96275820D01*
X155897593Y-96165506D01*
X155849417Y-96106802D01*
X167287942Y-96106802D01*
X167404592Y-96393000D01*
X168957928Y-96393000D01*
X168957928Y-94839664D01*
X169211928Y-94839664D01*
X169211928Y-96393000D01*
X170765264Y-96393000D01*
X170881914Y-96106802D01*
X170842228Y-95988702D01*
X176026903Y-95988702D01*
X176098486Y-96232671D01*
X176353996Y-96353571D01*
X176628184Y-96422300D01*
X176910512Y-96436217D01*
X177190130Y-96394787D01*
X177456292Y-96299603D01*
X177581514Y-96232671D01*
X177653097Y-95988702D01*
X176840000Y-95175605D01*
X176026903Y-95988702D01*
X170842228Y-95988702D01*
X170766774Y-95764167D01*
X170587002Y-95450578D01*
X170349506Y-95178087D01*
X170205017Y-95066512D01*
X175399783Y-95066512D01*
X175441213Y-95346130D01*
X175536397Y-95612292D01*
X175603329Y-95737514D01*
X175847298Y-95809097D01*
X176660395Y-94996000D01*
X177019605Y-94996000D01*
X177832702Y-95809097D01*
X178076671Y-95737514D01*
X178197571Y-95482004D01*
X178266300Y-95207816D01*
X178280217Y-94925488D01*
X178238787Y-94645870D01*
X178143603Y-94379708D01*
X178076671Y-94254486D01*
X177877340Y-94196000D01*
X178901928Y-94196000D01*
X178901928Y-95796000D01*
X178914188Y-95920482D01*
X178950498Y-96040180D01*
X179009463Y-96150494D01*
X179088815Y-96247185D01*
X179185506Y-96326537D01*
X179295820Y-96385502D01*
X179415518Y-96421812D01*
X179540000Y-96434072D01*
X181140000Y-96434072D01*
X181264482Y-96421812D01*
X181384180Y-96385502D01*
X181494494Y-96326537D01*
X181591185Y-96247185D01*
X181670537Y-96150494D01*
X181729502Y-96040180D01*
X181765812Y-95920482D01*
X181778072Y-95796000D01*
X181778072Y-94785721D01*
X188873000Y-94785721D01*
X188873000Y-95206279D01*
X188955047Y-95618756D01*
X189115988Y-96007302D01*
X189349637Y-96356983D01*
X189647017Y-96654363D01*
X189996698Y-96888012D01*
X190385244Y-97048953D01*
X190797721Y-97131000D01*
X191218279Y-97131000D01*
X191630756Y-97048953D01*
X192019302Y-96888012D01*
X192368983Y-96654363D01*
X192666363Y-96356983D01*
X192900012Y-96007302D01*
X193060953Y-95618756D01*
X193143000Y-95206279D01*
X193143000Y-94785721D01*
X193060953Y-94373244D01*
X192900012Y-93984698D01*
X192666363Y-93635017D01*
X192368983Y-93337637D01*
X192019302Y-93103988D01*
X191630756Y-92943047D01*
X191218279Y-92861000D01*
X190797721Y-92861000D01*
X190385244Y-92943047D01*
X189996698Y-93103988D01*
X189647017Y-93337637D01*
X189349637Y-93635017D01*
X189115988Y-93984698D01*
X188955047Y-94373244D01*
X188873000Y-94785721D01*
X181778072Y-94785721D01*
X181778072Y-94196000D01*
X181765812Y-94071518D01*
X181729502Y-93951820D01*
X181670537Y-93841506D01*
X181591185Y-93744815D01*
X181494494Y-93665463D01*
X181384180Y-93606498D01*
X181264482Y-93570188D01*
X181140000Y-93557928D01*
X179540000Y-93557928D01*
X179415518Y-93570188D01*
X179295820Y-93606498D01*
X179185506Y-93665463D01*
X179088815Y-93744815D01*
X179009463Y-93841506D01*
X178950498Y-93951820D01*
X178914188Y-94071518D01*
X178901928Y-94196000D01*
X177877340Y-94196000D01*
X177832702Y-94182903D01*
X177019605Y-94996000D01*
X176660395Y-94996000D01*
X175847298Y-94182903D01*
X175603329Y-94254486D01*
X175482429Y-94509996D01*
X175413700Y-94784184D01*
X175399783Y-95066512D01*
X170205017Y-95066512D01*
X170063413Y-94957165D01*
X169739718Y-94796301D01*
X169498126Y-94723014D01*
X169211928Y-94839664D01*
X168957928Y-94839664D01*
X168671730Y-94723014D01*
X168329095Y-94838154D01*
X168015506Y-95017926D01*
X167743015Y-95255422D01*
X167522093Y-95541515D01*
X167361229Y-95865210D01*
X167287942Y-96106802D01*
X155849417Y-96106802D01*
X155818241Y-96068815D01*
X154121185Y-94371759D01*
X154024494Y-94292407D01*
X153914180Y-94233442D01*
X153794482Y-94197132D01*
X153670000Y-94184872D01*
X153545518Y-94197132D01*
X153425820Y-94233442D01*
X153315506Y-94292407D01*
X153218815Y-94371759D01*
X151521759Y-96068815D01*
X151442407Y-96165506D01*
X151383442Y-96275820D01*
X151347132Y-96395518D01*
X151334872Y-96520000D01*
X114545000Y-96520000D01*
X114545000Y-96245701D01*
X114437974Y-95707646D01*
X114228035Y-95200808D01*
X113923250Y-94744666D01*
X113535334Y-94356750D01*
X113079192Y-94051965D01*
X112961700Y-94003298D01*
X176026903Y-94003298D01*
X176840000Y-94816395D01*
X177653097Y-94003298D01*
X177581514Y-93759329D01*
X177326004Y-93638429D01*
X177051816Y-93569700D01*
X176769488Y-93555783D01*
X176489870Y-93597213D01*
X176223708Y-93692397D01*
X176098486Y-93759329D01*
X176026903Y-94003298D01*
X112961700Y-94003298D01*
X112572354Y-93842026D01*
X112034299Y-93735000D01*
X111485701Y-93735000D01*
X110947646Y-93842026D01*
X110440808Y-94051965D01*
X109984666Y-94356750D01*
X109596750Y-94744666D01*
X109291965Y-95200808D01*
X109082026Y-95707646D01*
X108975000Y-96245701D01*
X89535000Y-96245701D01*
X89535000Y-91416000D01*
X188869928Y-91416000D01*
X188882188Y-91540482D01*
X188918498Y-91660180D01*
X188977463Y-91770494D01*
X189056815Y-91867185D01*
X189153506Y-91946537D01*
X189263820Y-92005502D01*
X189383518Y-92041812D01*
X189508000Y-92054072D01*
X190722250Y-92051000D01*
X190881000Y-91892250D01*
X190881000Y-90043000D01*
X191135000Y-90043000D01*
X191135000Y-91892250D01*
X191293750Y-92051000D01*
X192508000Y-92054072D01*
X192632482Y-92041812D01*
X192752180Y-92005502D01*
X192862494Y-91946537D01*
X192959185Y-91867185D01*
X193038537Y-91770494D01*
X193097502Y-91660180D01*
X193133812Y-91540482D01*
X193146072Y-91416000D01*
X193143000Y-90201750D01*
X192984250Y-90043000D01*
X191135000Y-90043000D01*
X190881000Y-90043000D01*
X189031750Y-90043000D01*
X188873000Y-90201750D01*
X188869928Y-91416000D01*
X89535000Y-91416000D01*
X89535000Y-88631804D01*
X159542464Y-88631804D01*
X159542464Y-88993268D01*
X159612982Y-89347786D01*
X159751308Y-89681735D01*
X159952126Y-89982280D01*
X160207720Y-90237874D01*
X160508265Y-90438692D01*
X160842214Y-90577018D01*
X161196732Y-90647536D01*
X161558196Y-90647536D01*
X161912714Y-90577018D01*
X162246663Y-90438692D01*
X162547208Y-90237874D01*
X162802802Y-89982280D01*
X163003620Y-89681735D01*
X163141946Y-89347786D01*
X163212464Y-88993268D01*
X163212464Y-88631804D01*
X163169538Y-88416000D01*
X188869928Y-88416000D01*
X188873000Y-89630250D01*
X189031750Y-89789000D01*
X190881000Y-89789000D01*
X190881000Y-87939750D01*
X191135000Y-87939750D01*
X191135000Y-89789000D01*
X192984250Y-89789000D01*
X193143000Y-89630250D01*
X193146072Y-88416000D01*
X193133812Y-88291518D01*
X193097502Y-88171820D01*
X193038537Y-88061506D01*
X192959185Y-87964815D01*
X192862494Y-87885463D01*
X192752180Y-87826498D01*
X192632482Y-87790188D01*
X192508000Y-87777928D01*
X191293750Y-87781000D01*
X191135000Y-87939750D01*
X190881000Y-87939750D01*
X190722250Y-87781000D01*
X189508000Y-87777928D01*
X189383518Y-87790188D01*
X189263820Y-87826498D01*
X189153506Y-87885463D01*
X189056815Y-87964815D01*
X188977463Y-88061506D01*
X188918498Y-88171820D01*
X188882188Y-88291518D01*
X188869928Y-88416000D01*
X163169538Y-88416000D01*
X163141946Y-88277286D01*
X163003620Y-87943337D01*
X162802802Y-87642792D01*
X162547208Y-87387198D01*
X162246663Y-87186380D01*
X161912714Y-87048054D01*
X161558196Y-86977536D01*
X161196732Y-86977536D01*
X160842214Y-87048054D01*
X160508265Y-87186380D01*
X160207720Y-87387198D01*
X159952126Y-87642792D01*
X159751308Y-87943337D01*
X159612982Y-88277286D01*
X159542464Y-88631804D01*
X89535000Y-88631804D01*
X89535000Y-85539344D01*
X147467000Y-85539344D01*
X147467000Y-85910656D01*
X147539439Y-86274834D01*
X147681534Y-86617882D01*
X147887825Y-86926618D01*
X148150382Y-87189175D01*
X148459118Y-87395466D01*
X148802166Y-87537561D01*
X149166344Y-87610000D01*
X149537656Y-87610000D01*
X149901834Y-87537561D01*
X150244882Y-87395466D01*
X150553618Y-87189175D01*
X150816175Y-86926618D01*
X151022466Y-86617882D01*
X151164561Y-86274834D01*
X151237000Y-85910656D01*
X151237000Y-85539344D01*
X151164561Y-85175166D01*
X151022466Y-84832118D01*
X150816175Y-84523382D01*
X150553618Y-84260825D01*
X150244882Y-84054534D01*
X149901834Y-83912439D01*
X149537656Y-83840000D01*
X149166344Y-83840000D01*
X148802166Y-83912439D01*
X148459118Y-84054534D01*
X148150382Y-84260825D01*
X147887825Y-84523382D01*
X147681534Y-84832118D01*
X147539439Y-85175166D01*
X147467000Y-85539344D01*
X89535000Y-85539344D01*
X89535000Y-82620000D01*
X180533928Y-82620000D01*
X180533928Y-85020000D01*
X180546188Y-85144482D01*
X180582498Y-85264180D01*
X180641463Y-85374494D01*
X180720815Y-85471185D01*
X180817506Y-85550537D01*
X180927820Y-85609502D01*
X181047518Y-85645812D01*
X181172000Y-85658072D01*
X183572000Y-85658072D01*
X183696482Y-85645812D01*
X183816180Y-85609502D01*
X183926494Y-85550537D01*
X184023185Y-85471185D01*
X184102537Y-85374494D01*
X184161502Y-85264180D01*
X184197812Y-85144482D01*
X184210072Y-85020000D01*
X184210072Y-82620000D01*
X184197812Y-82495518D01*
X184161502Y-82375820D01*
X184102537Y-82265506D01*
X184023185Y-82168815D01*
X183926494Y-82089463D01*
X183816180Y-82030498D01*
X183696482Y-81994188D01*
X183572000Y-81981928D01*
X181172000Y-81981928D01*
X181047518Y-81994188D01*
X180927820Y-82030498D01*
X180817506Y-82089463D01*
X180720815Y-82168815D01*
X180641463Y-82265506D01*
X180582498Y-82375820D01*
X180546188Y-82495518D01*
X180533928Y-82620000D01*
X89535000Y-82620000D01*
X89535000Y-78556000D01*
X162753928Y-78556000D01*
X162753928Y-80956000D01*
X162766188Y-81080482D01*
X162802498Y-81200180D01*
X162861463Y-81310494D01*
X162940815Y-81407185D01*
X163037506Y-81486537D01*
X163147820Y-81545502D01*
X163267518Y-81581812D01*
X163392000Y-81594072D01*
X165792000Y-81594072D01*
X165916482Y-81581812D01*
X166036180Y-81545502D01*
X166146494Y-81486537D01*
X166243185Y-81407185D01*
X166322537Y-81310494D01*
X166381502Y-81200180D01*
X166417812Y-81080482D01*
X166430072Y-80956000D01*
X166430072Y-78556000D01*
X166417812Y-78431518D01*
X166381502Y-78311820D01*
X166322537Y-78201506D01*
X166243185Y-78104815D01*
X166146494Y-78025463D01*
X166036180Y-77966498D01*
X165916482Y-77930188D01*
X165792000Y-77917928D01*
X163392000Y-77917928D01*
X163267518Y-77930188D01*
X163147820Y-77966498D01*
X163037506Y-78025463D01*
X162940815Y-78104815D01*
X162861463Y-78201506D01*
X162802498Y-78311820D01*
X162766188Y-78431518D01*
X162753928Y-78556000D01*
X89535000Y-78556000D01*
X89535000Y-77597980D01*
X181273626Y-77597980D01*
X181393514Y-77882836D01*
X181717210Y-78043699D01*
X182066069Y-78138322D01*
X182426684Y-78163067D01*
X182785198Y-78116985D01*
X183127833Y-78001846D01*
X183350486Y-77882836D01*
X183470374Y-77597980D01*
X182372000Y-76499605D01*
X181273626Y-77597980D01*
X89535000Y-77597980D01*
X89535000Y-76374684D01*
X180528933Y-76374684D01*
X180575015Y-76733198D01*
X180690154Y-77075833D01*
X180809164Y-77298486D01*
X181094020Y-77418374D01*
X182192395Y-76320000D01*
X182551605Y-76320000D01*
X183649980Y-77418374D01*
X183934836Y-77298486D01*
X184095699Y-76974790D01*
X184190322Y-76625931D01*
X184215067Y-76265316D01*
X184168985Y-75906802D01*
X184053846Y-75564167D01*
X183934836Y-75341514D01*
X183649980Y-75221626D01*
X182551605Y-76320000D01*
X182192395Y-76320000D01*
X181094020Y-75221626D01*
X180809164Y-75341514D01*
X180648301Y-75665210D01*
X180553678Y-76014069D01*
X180528933Y-76374684D01*
X89535000Y-76374684D01*
X89535000Y-73187051D01*
X138215000Y-73187051D01*
X138215000Y-74132950D01*
X138236487Y-74351111D01*
X138321401Y-74631034D01*
X138459294Y-74889014D01*
X138644866Y-75115134D01*
X138870987Y-75300706D01*
X139128967Y-75438599D01*
X139408890Y-75523513D01*
X139700000Y-75552185D01*
X139991111Y-75523513D01*
X140271034Y-75438599D01*
X140529014Y-75300706D01*
X140755134Y-75115134D01*
X140815137Y-75042020D01*
X181273626Y-75042020D01*
X182372000Y-76140395D01*
X183470374Y-75042020D01*
X183350486Y-74757164D01*
X183026790Y-74596301D01*
X182677931Y-74501678D01*
X182317316Y-74476933D01*
X181958802Y-74523015D01*
X181616167Y-74638154D01*
X181393514Y-74757164D01*
X181273626Y-75042020D01*
X140815137Y-75042020D01*
X140940706Y-74889014D01*
X141078599Y-74631034D01*
X141163513Y-74351111D01*
X141185000Y-74132949D01*
X141185000Y-73533980D01*
X163493626Y-73533980D01*
X163613514Y-73818836D01*
X163937210Y-73979699D01*
X164286069Y-74074322D01*
X164646684Y-74099067D01*
X165005198Y-74052985D01*
X165347833Y-73937846D01*
X165570486Y-73818836D01*
X165674358Y-73572033D01*
X188227572Y-73572033D01*
X188545757Y-74025850D01*
X189150210Y-74351269D01*
X189806535Y-74552512D01*
X190489510Y-74621845D01*
X191172888Y-74556605D01*
X191830407Y-74359298D01*
X192436799Y-74037506D01*
X192454243Y-74025850D01*
X192772428Y-73572033D01*
X190500000Y-71299605D01*
X188227572Y-73572033D01*
X165674358Y-73572033D01*
X165690374Y-73533980D01*
X164592000Y-72435605D01*
X163493626Y-73533980D01*
X141185000Y-73533980D01*
X141185000Y-73187050D01*
X141163513Y-72968889D01*
X141078599Y-72688966D01*
X140940706Y-72430986D01*
X140755134Y-72204866D01*
X140529013Y-72019294D01*
X140271033Y-71881401D01*
X139991110Y-71796487D01*
X139700000Y-71767815D01*
X139408889Y-71796487D01*
X139128966Y-71881401D01*
X138870986Y-72019294D01*
X138644866Y-72204866D01*
X138459294Y-72430987D01*
X138321401Y-72688967D01*
X138236487Y-72968890D01*
X138215000Y-73187051D01*
X89535000Y-73187051D01*
X89535000Y-70539344D01*
X147467000Y-70539344D01*
X147467000Y-70910656D01*
X147539439Y-71274834D01*
X147681534Y-71617882D01*
X147887825Y-71926618D01*
X148150382Y-72189175D01*
X148459118Y-72395466D01*
X148802166Y-72537561D01*
X149166344Y-72610000D01*
X149537656Y-72610000D01*
X149901834Y-72537561D01*
X150244882Y-72395466D01*
X150371767Y-72310684D01*
X162748933Y-72310684D01*
X162795015Y-72669198D01*
X162910154Y-73011833D01*
X163029164Y-73234486D01*
X163314020Y-73354374D01*
X164412395Y-72256000D01*
X164771605Y-72256000D01*
X165869980Y-73354374D01*
X166154836Y-73234486D01*
X166315699Y-72910790D01*
X166410322Y-72561931D01*
X166435067Y-72201316D01*
X166388985Y-71842802D01*
X166273846Y-71500167D01*
X166154836Y-71277514D01*
X165869980Y-71157626D01*
X164771605Y-72256000D01*
X164412395Y-72256000D01*
X163314020Y-71157626D01*
X163029164Y-71277514D01*
X162868301Y-71601210D01*
X162773678Y-71950069D01*
X162748933Y-72310684D01*
X150371767Y-72310684D01*
X150553618Y-72189175D01*
X150816175Y-71926618D01*
X151022466Y-71617882D01*
X151164561Y-71274834D01*
X151223600Y-70978020D01*
X163493626Y-70978020D01*
X164592000Y-72076395D01*
X165558884Y-71109510D01*
X186998155Y-71109510D01*
X187063395Y-71792888D01*
X187260702Y-72450407D01*
X187582494Y-73056799D01*
X187594150Y-73074243D01*
X188047967Y-73392428D01*
X190320395Y-71120000D01*
X190679605Y-71120000D01*
X192952033Y-73392428D01*
X193405850Y-73074243D01*
X193731269Y-72469790D01*
X193932512Y-71813465D01*
X194001845Y-71130490D01*
X193936605Y-70447112D01*
X193739298Y-69789593D01*
X193417506Y-69183201D01*
X193405850Y-69165757D01*
X192952033Y-68847572D01*
X190679605Y-71120000D01*
X190320395Y-71120000D01*
X188047967Y-68847572D01*
X187594150Y-69165757D01*
X187268731Y-69770210D01*
X187067488Y-70426535D01*
X186998155Y-71109510D01*
X165558884Y-71109510D01*
X165690374Y-70978020D01*
X165570486Y-70693164D01*
X165246790Y-70532301D01*
X164897931Y-70437678D01*
X164537316Y-70412933D01*
X164178802Y-70459015D01*
X163836167Y-70574154D01*
X163613514Y-70693164D01*
X163493626Y-70978020D01*
X151223600Y-70978020D01*
X151237000Y-70910656D01*
X151237000Y-70539344D01*
X151164561Y-70175166D01*
X151022466Y-69832118D01*
X150816175Y-69523382D01*
X150553618Y-69260825D01*
X150244882Y-69054534D01*
X149901834Y-68912439D01*
X149537656Y-68840000D01*
X149166344Y-68840000D01*
X148802166Y-68912439D01*
X148459118Y-69054534D01*
X148150382Y-69260825D01*
X147887825Y-69523382D01*
X147681534Y-69832118D01*
X147539439Y-70175166D01*
X147467000Y-70539344D01*
X89535000Y-70539344D01*
X89535000Y-66700000D01*
X139576284Y-66700000D01*
X139408889Y-66716487D01*
%TA.AperFunction,Conductor*%
D26*
G36*
X139408889Y-66716487D02*
G01*
X139128966Y-66801401D01*
X138870986Y-66939294D01*
X138644866Y-67124866D01*
X138459294Y-67350987D01*
X138321401Y-67608967D01*
X138236487Y-67888890D01*
X138215000Y-68107051D01*
X138215000Y-69052950D01*
X138236487Y-69271111D01*
X138321401Y-69551034D01*
X138459294Y-69809014D01*
X138644866Y-70035134D01*
X138870987Y-70220706D01*
X139128967Y-70358599D01*
X139408890Y-70443513D01*
X139700000Y-70472185D01*
X139991111Y-70443513D01*
X140271034Y-70358599D01*
X140529014Y-70220706D01*
X140755134Y-70035134D01*
X140940706Y-69809014D01*
X141078599Y-69551034D01*
X141163513Y-69271111D01*
X141185000Y-69052949D01*
X141185000Y-68667967D01*
X188227572Y-68667967D01*
X190500000Y-70940395D01*
X192772428Y-68667967D01*
X192454243Y-68214150D01*
X191849790Y-67888731D01*
X191193465Y-67687488D01*
X190510490Y-67618155D01*
X189827112Y-67683395D01*
X189169593Y-67880702D01*
X188563201Y-68202494D01*
X188545757Y-68214150D01*
X188227572Y-68667967D01*
X141185000Y-68667967D01*
X141185000Y-68107050D01*
X141163513Y-67888889D01*
X141078599Y-67608966D01*
X140940706Y-67350986D01*
X140755134Y-67124866D01*
X140529013Y-66939294D01*
X140271033Y-66801401D01*
X139991110Y-66716487D01*
X139823716Y-66700000D01*
X194920000Y-66700000D01*
X194920001Y-102382869D01*
X193089977Y-100552845D01*
X193143000Y-100286279D01*
X193143000Y-99865721D01*
X193060953Y-99453244D01*
X192900012Y-99064698D01*
X192666363Y-98715017D01*
X192368983Y-98417637D01*
X192019302Y-98183988D01*
X191630756Y-98023047D01*
X191218279Y-97941000D01*
X190797721Y-97941000D01*
X190385244Y-98023047D01*
X189996698Y-98183988D01*
X189647017Y-98417637D01*
X189349637Y-98715017D01*
X189115988Y-99064698D01*
X188955047Y-99453244D01*
X188873000Y-99865721D01*
X188873000Y-100286279D01*
X188955047Y-100698756D01*
X189115988Y-101087302D01*
X189349637Y-101436983D01*
X189647017Y-101734363D01*
X189996698Y-101968012D01*
X190385244Y-102128953D01*
X190797721Y-102211000D01*
X191218279Y-102211000D01*
X191484845Y-102157977D01*
X193419991Y-104093123D01*
X193419990Y-119987882D01*
X193417506Y-119983201D01*
X193405850Y-119965757D01*
X192952033Y-119647572D01*
X190679605Y-121920000D01*
X190693748Y-121934143D01*
X190514143Y-122113748D01*
X190500000Y-122099605D01*
X188227572Y-124372033D01*
X188545757Y-124825850D01*
X188572021Y-124839990D01*
X149305122Y-124839990D01*
X148713273Y-124248141D01*
X149039344Y-124313000D01*
X149410656Y-124313000D01*
X149774834Y-124240561D01*
X150117882Y-124098466D01*
X150426618Y-123892175D01*
X150689175Y-123629618D01*
X150895466Y-123320882D01*
X151037561Y-122977834D01*
X151110000Y-122613656D01*
X151110000Y-122242344D01*
X151037561Y-121878166D01*
X150895466Y-121535118D01*
X150689175Y-121226382D01*
X150426618Y-120963825D01*
X150117882Y-120757534D01*
X149774834Y-120615439D01*
X149410656Y-120543000D01*
X149039344Y-120543000D01*
X148675166Y-120615439D01*
X148332118Y-120757534D01*
X148023382Y-120963825D01*
X147760825Y-121226382D01*
X147554534Y-121535118D01*
X147412439Y-121878166D01*
X147340000Y-122242344D01*
X147340000Y-122613656D01*
X147404859Y-122939728D01*
X143081996Y-118616865D01*
X143046449Y-118573551D01*
X142873623Y-118431716D01*
X142676447Y-118326324D01*
X142462499Y-118261423D01*
X142295752Y-118245000D01*
X142295751Y-118245000D01*
X142240000Y-118239509D01*
X142184249Y-118245000D01*
X140990957Y-118245000D01*
X140940706Y-118150986D01*
X140755134Y-117924866D01*
X140529013Y-117739294D01*
X140271033Y-117601401D01*
X139991110Y-117516487D01*
X139700000Y-117487815D01*
X139408889Y-117516487D01*
X139128966Y-117601401D01*
X138870986Y-117739294D01*
X138644866Y-117924866D01*
X138459294Y-118150987D01*
X138321401Y-118408967D01*
X138236487Y-118688890D01*
X138215000Y-118907051D01*
X138215000Y-119852950D01*
X138236487Y-120071111D01*
X138321401Y-120351034D01*
X138459294Y-120609014D01*
X138644866Y-120835134D01*
X138870987Y-121020706D01*
X139128967Y-121158599D01*
X139408890Y-121243513D01*
X139700000Y-121272185D01*
X139991111Y-121243513D01*
X140271034Y-121158599D01*
X140529014Y-121020706D01*
X140755134Y-120835134D01*
X140940706Y-120609014D01*
X140990957Y-120515000D01*
X141769869Y-120515000D01*
X147594868Y-126340000D01*
X139853716Y-126340000D01*
X140021111Y-126323513D01*
X140301034Y-126238599D01*
X140559014Y-126100706D01*
X140785134Y-125915134D01*
X140970706Y-125689014D01*
X141108599Y-125431034D01*
X141193513Y-125151111D01*
X141215000Y-124932949D01*
X141215000Y-123987050D01*
X141193513Y-123768889D01*
X141108599Y-123488966D01*
X140970706Y-123230986D01*
X140785134Y-123004866D01*
X140559013Y-122819294D01*
X140301033Y-122681401D01*
X140021110Y-122596487D01*
X139730000Y-122567815D01*
X139468684Y-122593552D01*
X137279000Y-120403869D01*
X137279000Y-116294131D01*
X142829131Y-110744000D01*
X155829000Y-110744000D01*
X155829000Y-121920000D01*
X155831440Y-121944776D01*
X155838667Y-121968601D01*
X155850403Y-121990557D01*
X155866197Y-122009803D01*
X155885443Y-122025597D01*
X155907399Y-122037333D01*
X155931224Y-122044560D01*
X155956000Y-122047000D01*
X167132000Y-122047000D01*
X167156776Y-122044560D01*
X167180601Y-122037333D01*
X167202557Y-122025597D01*
X167221803Y-122009803D01*
X167237597Y-121990557D01*
X167249333Y-121968601D01*
X167256560Y-121944776D01*
X167259000Y-121920000D01*
X167259000Y-121909510D01*
X186998155Y-121909510D01*
X187063395Y-122592888D01*
X187260702Y-123250407D01*
X187582494Y-123856799D01*
X187594150Y-123874243D01*
X188047967Y-124192428D01*
X190320395Y-121920000D01*
X188047967Y-119647572D01*
X187594150Y-119965757D01*
X187268731Y-120570210D01*
X187067488Y-121226535D01*
X186998155Y-121909510D01*
X167259000Y-121909510D01*
X167259000Y-119467967D01*
X188227572Y-119467967D01*
X190500000Y-121740395D01*
X192772428Y-119467967D01*
X192454243Y-119014150D01*
X191849790Y-118688731D01*
X191193465Y-118487488D01*
X190510490Y-118418155D01*
X189827112Y-118483395D01*
X189169593Y-118680702D01*
X188563201Y-119002494D01*
X188545757Y-119014150D01*
X188227572Y-119467967D01*
X167259000Y-119467967D01*
X167259000Y-114004520D01*
X169672000Y-114004520D01*
X169672000Y-114392280D01*
X169747648Y-114772590D01*
X169896038Y-115130835D01*
X170111466Y-115453246D01*
X170385654Y-115727434D01*
X170708065Y-115942862D01*
X171066310Y-116091252D01*
X171446620Y-116166900D01*
X171834380Y-116166900D01*
X172214690Y-116091252D01*
X172572935Y-115942862D01*
X172895346Y-115727434D01*
X173169534Y-115453246D01*
X173384962Y-115130835D01*
X173533352Y-114772590D01*
X173609000Y-114392280D01*
X173609000Y-114004520D01*
X173533352Y-113624210D01*
X173384962Y-113265965D01*
X173169534Y-112943554D01*
X172895346Y-112669366D01*
X172572935Y-112453938D01*
X172214690Y-112305548D01*
X171834380Y-112229900D01*
X171446620Y-112229900D01*
X171066310Y-112305548D01*
X170708065Y-112453938D01*
X170385654Y-112669366D01*
X170111466Y-112943554D01*
X169896038Y-113265965D01*
X169747648Y-113624210D01*
X169672000Y-114004520D01*
X167259000Y-114004520D01*
X167259000Y-110744000D01*
X167256560Y-110719224D01*
X167249333Y-110695399D01*
X167237597Y-110673443D01*
X167221803Y-110654197D01*
X167202557Y-110638403D01*
X167180601Y-110626667D01*
X167156776Y-110619440D01*
X167132000Y-110617000D01*
X155956000Y-110617000D01*
X155931224Y-110619440D01*
X155907399Y-110626667D01*
X155885443Y-110638403D01*
X155866197Y-110654197D01*
X155850403Y-110673443D01*
X155838667Y-110695399D01*
X155831440Y-110719224D01*
X155829000Y-110744000D01*
X142829131Y-110744000D01*
X145010132Y-108563000D01*
X147716312Y-108563000D01*
X147760825Y-108629618D01*
X148023382Y-108892175D01*
X148332118Y-109098466D01*
X148675166Y-109240561D01*
X149039344Y-109313000D01*
X149410656Y-109313000D01*
X149774834Y-109240561D01*
X150117882Y-109098466D01*
X150426618Y-108892175D01*
X150689175Y-108629618D01*
X150895466Y-108320882D01*
X151023408Y-108012000D01*
X174545928Y-108012000D01*
X174549000Y-108426250D01*
X174707750Y-108585000D01*
X175657000Y-108585000D01*
X175657000Y-107535750D01*
X175498250Y-107377000D01*
X175184000Y-107373928D01*
X175059518Y-107386188D01*
X174939820Y-107422498D01*
X174829506Y-107481463D01*
X174732815Y-107560815D01*
X174653463Y-107657506D01*
X174594498Y-107767820D01*
X174558188Y-107887518D01*
X174545928Y-108012000D01*
X151023408Y-108012000D01*
X151037561Y-107977834D01*
X151110000Y-107613656D01*
X151110000Y-107242344D01*
X151037561Y-106878166D01*
X150895466Y-106535118D01*
X150689175Y-106226382D01*
X150426618Y-105963825D01*
X150117882Y-105757534D01*
X149774834Y-105615439D01*
X149410656Y-105543000D01*
X149039344Y-105543000D01*
X148675166Y-105615439D01*
X148332118Y-105757534D01*
X148023382Y-105963825D01*
X147760825Y-106226382D01*
X147716312Y-106293000D01*
X144595751Y-106293000D01*
X144539999Y-106287509D01*
X144484248Y-106293000D01*
X144317501Y-106309423D01*
X144103553Y-106374324D01*
X143906377Y-106479716D01*
X143733551Y-106621551D01*
X143698009Y-106664859D01*
X135380865Y-114982004D01*
X135337551Y-115017551D01*
X135195716Y-115190377D01*
X135091761Y-115384866D01*
X135090324Y-115387554D01*
X135025423Y-115601502D01*
X135003509Y-115824000D01*
X135009000Y-115879752D01*
X135009001Y-120818239D01*
X135003509Y-120874000D01*
X135025423Y-121096498D01*
X135090324Y-121310446D01*
X135090325Y-121310447D01*
X135195717Y-121507623D01*
X135337552Y-121680449D01*
X135380860Y-121715991D01*
X138245000Y-124580132D01*
X138245000Y-124932950D01*
X138266487Y-125151111D01*
X138351401Y-125431034D01*
X138489294Y-125689014D01*
X138674866Y-125915134D01*
X138900987Y-126100706D01*
X139158967Y-126238599D01*
X139438890Y-126323513D01*
X139606284Y-126340000D01*
X89535000Y-126340000D01*
X89535000Y-103976021D01*
X159613175Y-103976021D01*
X159613175Y-104337485D01*
X159683693Y-104692003D01*
X159822019Y-105025952D01*
X160022837Y-105326497D01*
X160278431Y-105582091D01*
X160578976Y-105782909D01*
X160912925Y-105921235D01*
X161267443Y-105991753D01*
X161628907Y-105991753D01*
X161983425Y-105921235D01*
X162317374Y-105782909D01*
X162506085Y-105656816D01*
X173705000Y-105656816D01*
X173705000Y-105959184D01*
X173763989Y-106255743D01*
X173879701Y-106535095D01*
X174047688Y-106786505D01*
X174261495Y-107000312D01*
X174512905Y-107168299D01*
X174792257Y-107284011D01*
X175088816Y-107343000D01*
X175391184Y-107343000D01*
X175687743Y-107284011D01*
X175895255Y-107198056D01*
X176074155Y-107376957D01*
X176069750Y-107377000D01*
X175911000Y-107535750D01*
X175911000Y-108585000D01*
X175931000Y-108585000D01*
X175931000Y-108839000D01*
X175911000Y-108839000D01*
X175911000Y-108859000D01*
X175657000Y-108859000D01*
X175657000Y-108839000D01*
X174707750Y-108839000D01*
X174549000Y-108997750D01*
X174545928Y-109412000D01*
X174558188Y-109536482D01*
X174594498Y-109656180D01*
X174653463Y-109766494D01*
X174690021Y-109811041D01*
X174613528Y-109954149D01*
X174562992Y-110120745D01*
X174545928Y-110293999D01*
X174545928Y-111194001D01*
X174562992Y-111367255D01*
X174613528Y-111533851D01*
X174649001Y-111600215D01*
X174649000Y-111919785D01*
X174613528Y-111986149D01*
X174562992Y-112152745D01*
X174545928Y-112325999D01*
X174545928Y-113226001D01*
X174562992Y-113399255D01*
X174613528Y-113565851D01*
X174695595Y-113719387D01*
X174806038Y-113853962D01*
X174940613Y-113964405D01*
X175094149Y-114046472D01*
X175260745Y-114097008D01*
X175433999Y-114114072D01*
X176134001Y-114114072D01*
X176307255Y-114097008D01*
X176473851Y-114046472D01*
X176627387Y-113964405D01*
X176761962Y-113853962D01*
X176784000Y-113827109D01*
X176806038Y-113853962D01*
X176940613Y-113964405D01*
X177094149Y-114046472D01*
X177260745Y-114097008D01*
X177433999Y-114114072D01*
X178134001Y-114114072D01*
X178307255Y-114097008D01*
X178473851Y-114046472D01*
X178627387Y-113964405D01*
X178692461Y-113911000D01*
X179840567Y-113911000D01*
X179896318Y-113916491D01*
X179952069Y-113911000D01*
X179952070Y-113911000D01*
X179978112Y-113908435D01*
X179959000Y-114004520D01*
X179959000Y-114392280D01*
X180034648Y-114772590D01*
X180183038Y-115130835D01*
X180398466Y-115453246D01*
X180672654Y-115727434D01*
X180995065Y-115942862D01*
X181353310Y-116091252D01*
X181733620Y-116166900D01*
X182121380Y-116166900D01*
X182501690Y-116091252D01*
X182859935Y-115942862D01*
X183182346Y-115727434D01*
X183456534Y-115453246D01*
X183671962Y-115130835D01*
X183820352Y-114772590D01*
X183896000Y-114392280D01*
X183896000Y-114004520D01*
X183820352Y-113624210D01*
X183671962Y-113265965D01*
X183494183Y-112999899D01*
X186070768Y-112999899D01*
X186521928Y-113451060D01*
X186521928Y-114084000D01*
X186534188Y-114208482D01*
X186570498Y-114328180D01*
X186629463Y-114438494D01*
X186708815Y-114535185D01*
X186805506Y-114614537D01*
X186915820Y-114673502D01*
X187035518Y-114709812D01*
X187160000Y-114722072D01*
X188760000Y-114722072D01*
X188884482Y-114709812D01*
X189004180Y-114673502D01*
X189114494Y-114614537D01*
X189211185Y-114535185D01*
X189290537Y-114438494D01*
X189349502Y-114328180D01*
X189365117Y-114276702D01*
X190646903Y-114276702D01*
X190718486Y-114520671D01*
X190973996Y-114641571D01*
X191248184Y-114710300D01*
X191530512Y-114724217D01*
X191810130Y-114682787D01*
X192076292Y-114587603D01*
X192201514Y-114520671D01*
X192273097Y-114276702D01*
X191460000Y-113463605D01*
X190646903Y-114276702D01*
X189365117Y-114276702D01*
X189385812Y-114208482D01*
X189398072Y-114084000D01*
X189398072Y-113354512D01*
X190019783Y-113354512D01*
X190061213Y-113634130D01*
X190156397Y-113900292D01*
X190223329Y-114025514D01*
X190467298Y-114097097D01*
X191280395Y-113284000D01*
X191639605Y-113284000D01*
X192452702Y-114097097D01*
X192696671Y-114025514D01*
X192817571Y-113770004D01*
X192886300Y-113495816D01*
X192900217Y-113213488D01*
X192858787Y-112933870D01*
X192763603Y-112667708D01*
X192696671Y-112542486D01*
X192452702Y-112470903D01*
X191639605Y-113284000D01*
X191280395Y-113284000D01*
X190467298Y-112470903D01*
X190223329Y-112542486D01*
X190102429Y-112797996D01*
X190033700Y-113072184D01*
X190019783Y-113354512D01*
X189398072Y-113354512D01*
X189398072Y-112484000D01*
X189385812Y-112359518D01*
X189365118Y-112291298D01*
X190646903Y-112291298D01*
X191460000Y-113104395D01*
X192273097Y-112291298D01*
X192201514Y-112047329D01*
X191946004Y-111926429D01*
X191671816Y-111857700D01*
X191389488Y-111843783D01*
X191109870Y-111885213D01*
X190843708Y-111980397D01*
X190718486Y-112047329D01*
X190646903Y-112291298D01*
X189365118Y-112291298D01*
X189349502Y-112239820D01*
X189290537Y-112129506D01*
X189211185Y-112032815D01*
X189114494Y-111953463D01*
X189004180Y-111894498D01*
X188884482Y-111858188D01*
X188760000Y-111845928D01*
X188127060Y-111845928D01*
X187382895Y-111101764D01*
X187347348Y-111058450D01*
X187174522Y-110916615D01*
X186977346Y-110811223D01*
X186763398Y-110746322D01*
X186596651Y-110729899D01*
X186596650Y-110729899D01*
X186540899Y-110724408D01*
X186485148Y-110729899D01*
X180863160Y-110729899D01*
X180807418Y-110724409D01*
X180751676Y-110729899D01*
X180751667Y-110729899D01*
X180584920Y-110746322D01*
X180370972Y-110811223D01*
X180173796Y-110916615D01*
X180000970Y-111058450D01*
X179965427Y-111101759D01*
X179426187Y-111641000D01*
X178897199Y-111641000D01*
X178954472Y-111533851D01*
X179005008Y-111367255D01*
X179022072Y-111194001D01*
X179022072Y-110293999D01*
X179005008Y-110120745D01*
X178954472Y-109954149D01*
X178872405Y-109800613D01*
X178812813Y-109728000D01*
X178872405Y-109655387D01*
X178954472Y-109501851D01*
X179005008Y-109335255D01*
X179022072Y-109162001D01*
X179022072Y-108261999D01*
X179005008Y-108088745D01*
X178954472Y-107922149D01*
X178872405Y-107768613D01*
X178761962Y-107634038D01*
X178627387Y-107523595D01*
X178473851Y-107441528D01*
X178307255Y-107390992D01*
X178230205Y-107383403D01*
X178087365Y-107240563D01*
X178192257Y-107284011D01*
X178488816Y-107343000D01*
X178791184Y-107343000D01*
X179087743Y-107284011D01*
X179367095Y-107168299D01*
X179618505Y-107000312D01*
X179832312Y-106786505D01*
X180000299Y-106535095D01*
X180116011Y-106255743D01*
X180175000Y-105959184D01*
X180175000Y-105656816D01*
X180116011Y-105360257D01*
X180000299Y-105080905D01*
X179909972Y-104945721D01*
X188873000Y-104945721D01*
X188873000Y-105366279D01*
X188955047Y-105778756D01*
X189115988Y-106167302D01*
X189349637Y-106516983D01*
X189647017Y-106814363D01*
X189996698Y-107048012D01*
X190385244Y-107208953D01*
X190797721Y-107291000D01*
X191218279Y-107291000D01*
X191630756Y-107208953D01*
X192019302Y-107048012D01*
X192368983Y-106814363D01*
X192666363Y-106516983D01*
X192900012Y-106167302D01*
X193060953Y-105778756D01*
X193143000Y-105366279D01*
X193143000Y-104945721D01*
X193060953Y-104533244D01*
X192900012Y-104144698D01*
X192666363Y-103795017D01*
X192368983Y-103497637D01*
X192019302Y-103263988D01*
X191630756Y-103103047D01*
X191218279Y-103021000D01*
X190797721Y-103021000D01*
X190385244Y-103103047D01*
X189996698Y-103263988D01*
X189647017Y-103497637D01*
X189349637Y-103795017D01*
X189115988Y-104144698D01*
X188955047Y-104533244D01*
X188873000Y-104945721D01*
X179909972Y-104945721D01*
X179832312Y-104829495D01*
X179618505Y-104615688D01*
X179367095Y-104447701D01*
X179087743Y-104331989D01*
X178791184Y-104273000D01*
X178488816Y-104273000D01*
X178192257Y-104331989D01*
X177912905Y-104447701D01*
X177661495Y-104615688D01*
X177447688Y-104829495D01*
X177279701Y-105080905D01*
X177163989Y-105360257D01*
X177105000Y-105656816D01*
X177105000Y-105959184D01*
X177163989Y-106255743D01*
X177207437Y-106360636D01*
X176775000Y-105928199D01*
X176775000Y-105656816D01*
X176716011Y-105360257D01*
X176600299Y-105080905D01*
X176432312Y-104829495D01*
X176218505Y-104615688D01*
X175967095Y-104447701D01*
X175687743Y-104331989D01*
X175391184Y-104273000D01*
X175088816Y-104273000D01*
X174792257Y-104331989D01*
X174512905Y-104447701D01*
X174261495Y-104615688D01*
X174047688Y-104829495D01*
X173879701Y-105080905D01*
X173763989Y-105360257D01*
X173705000Y-105656816D01*
X162506085Y-105656816D01*
X162617919Y-105582091D01*
X162873513Y-105326497D01*
X163074331Y-105025952D01*
X163212657Y-104692003D01*
X163283175Y-104337485D01*
X163283175Y-103976021D01*
X163212657Y-103621503D01*
X163074331Y-103287554D01*
X162873513Y-102987009D01*
X162617919Y-102731415D01*
X162317374Y-102530597D01*
X162177695Y-102472740D01*
X172048964Y-102472740D01*
X172097606Y-102633107D01*
X172227764Y-102904414D01*
X172408351Y-103145116D01*
X172632427Y-103345962D01*
X172891380Y-103499234D01*
X173175259Y-103599041D01*
X173413000Y-103478992D01*
X173413000Y-102235000D01*
X173667000Y-102235000D01*
X173667000Y-103478992D01*
X173904741Y-103599041D01*
X174188620Y-103499234D01*
X174447573Y-103345962D01*
X174671649Y-103145116D01*
X174852236Y-102904414D01*
X174982394Y-102633107D01*
X175031036Y-102472740D01*
X175448964Y-102472740D01*
X175497606Y-102633107D01*
X175627764Y-102904414D01*
X175808351Y-103145116D01*
X176032427Y-103345962D01*
X176291380Y-103499234D01*
X176575259Y-103599041D01*
X176813000Y-103478992D01*
X176813000Y-102235000D01*
X177067000Y-102235000D01*
X177067000Y-103478992D01*
X177304741Y-103599041D01*
X177588620Y-103499234D01*
X177847573Y-103345962D01*
X178071649Y-103145116D01*
X178252236Y-102904414D01*
X178382394Y-102633107D01*
X178431036Y-102472740D01*
X178310378Y-102235000D01*
X177067000Y-102235000D01*
X176813000Y-102235000D01*
X175569622Y-102235000D01*
X175448964Y-102472740D01*
X175031036Y-102472740D01*
X174910378Y-102235000D01*
X173667000Y-102235000D01*
X173413000Y-102235000D01*
X172169622Y-102235000D01*
X172048964Y-102472740D01*
X162177695Y-102472740D01*
X161983425Y-102392271D01*
X161628907Y-102321753D01*
X161267443Y-102321753D01*
X160912925Y-102392271D01*
X160578976Y-102530597D01*
X160278431Y-102731415D01*
X160022837Y-102987009D01*
X159822019Y-103287554D01*
X159683693Y-103621503D01*
X159613175Y-103976021D01*
X89535000Y-103976021D01*
X89535000Y-101743260D01*
X172048964Y-101743260D01*
X172169622Y-101981000D01*
X173413000Y-101981000D01*
X173413000Y-100737008D01*
X173667000Y-100737008D01*
X173667000Y-101981000D01*
X174910378Y-101981000D01*
X175031036Y-101743260D01*
X175448964Y-101743260D01*
X175569622Y-101981000D01*
X176813000Y-101981000D01*
X176813000Y-100737008D01*
X177067000Y-100737008D01*
X177067000Y-101981000D01*
X178310378Y-101981000D01*
X178431036Y-101743260D01*
X178382394Y-101582893D01*
X178252236Y-101311586D01*
X178174521Y-101208000D01*
X178801928Y-101208000D01*
X178801928Y-103008000D01*
X178814188Y-103132482D01*
X178850498Y-103252180D01*
X178909463Y-103362494D01*
X178988815Y-103459185D01*
X179085506Y-103538537D01*
X179195820Y-103597502D01*
X179315518Y-103633812D01*
X179440000Y-103646072D01*
X181240000Y-103646072D01*
X181364482Y-103633812D01*
X181484180Y-103597502D01*
X181594494Y-103538537D01*
X181691185Y-103459185D01*
X181770537Y-103362494D01*
X181829502Y-103252180D01*
X181865812Y-103132482D01*
X181878072Y-103008000D01*
X181878072Y-101208000D01*
X181865812Y-101083518D01*
X181829502Y-100963820D01*
X181770537Y-100853506D01*
X181691185Y-100756815D01*
X181594494Y-100677463D01*
X181484180Y-100618498D01*
X181364482Y-100582188D01*
X181240000Y-100569928D01*
X179440000Y-100569928D01*
X179315518Y-100582188D01*
X179195820Y-100618498D01*
X179085506Y-100677463D01*
X178988815Y-100756815D01*
X178909463Y-100853506D01*
X178850498Y-100963820D01*
X178814188Y-101083518D01*
X178801928Y-101208000D01*
X178174521Y-101208000D01*
X178071649Y-101070884D01*
X177847573Y-100870038D01*
X177588620Y-100716766D01*
X177304741Y-100616959D01*
X177067000Y-100737008D01*
X176813000Y-100737008D01*
X176575259Y-100616959D01*
X176291380Y-100716766D01*
X176032427Y-100870038D01*
X175808351Y-101070884D01*
X175627764Y-101311586D01*
X175497606Y-101582893D01*
X175448964Y-101743260D01*
X175031036Y-101743260D01*
X174982394Y-101582893D01*
X174852236Y-101311586D01*
X174671649Y-101070884D01*
X174447573Y-100870038D01*
X174188620Y-100716766D01*
X173904741Y-100616959D01*
X173667000Y-100737008D01*
X173413000Y-100737008D01*
X173175259Y-100616959D01*
X172891380Y-100716766D01*
X172632427Y-100870038D01*
X172408351Y-101070884D01*
X172227764Y-101311586D01*
X172097606Y-101582893D01*
X172048964Y-101743260D01*
X89535000Y-101743260D01*
X89535000Y-96245701D01*
X108975000Y-96245701D01*
X108975000Y-96794299D01*
X109082026Y-97332354D01*
X109291965Y-97839192D01*
X109596750Y-98295334D01*
X109984666Y-98683250D01*
X110440808Y-98988035D01*
X110947646Y-99197974D01*
X111485701Y-99305000D01*
X112034299Y-99305000D01*
X112572354Y-99197974D01*
X113079192Y-98988035D01*
X113535334Y-98683250D01*
X113923250Y-98295334D01*
X114228035Y-97839192D01*
X114437974Y-97332354D01*
X114545000Y-96794299D01*
X114545000Y-96520000D01*
X151334872Y-96520000D01*
X151347132Y-96644482D01*
X151383442Y-96764180D01*
X151442407Y-96874494D01*
X151521759Y-96971185D01*
X153218815Y-98668241D01*
X153315506Y-98747593D01*
X153425820Y-98806558D01*
X153545518Y-98842868D01*
X153670000Y-98855128D01*
X153794482Y-98842868D01*
X153914180Y-98806558D01*
X154024494Y-98747593D01*
X154121185Y-98668241D01*
X155818241Y-96971185D01*
X155849416Y-96933198D01*
X167287942Y-96933198D01*
X167403082Y-97275833D01*
X167582854Y-97589422D01*
X167820350Y-97861913D01*
X168106443Y-98082835D01*
X168430138Y-98243699D01*
X168671730Y-98316986D01*
X168957928Y-98200336D01*
X168957928Y-96647000D01*
X169211928Y-96647000D01*
X169211928Y-98200336D01*
X169498126Y-98316986D01*
X169840761Y-98201846D01*
X170154350Y-98022074D01*
X170426841Y-97784578D01*
X170647763Y-97498485D01*
X170808627Y-97174790D01*
X170881914Y-96933198D01*
X170765264Y-96647000D01*
X169211928Y-96647000D01*
X168957928Y-96647000D01*
X167404592Y-96647000D01*
X167287942Y-96933198D01*
X155849416Y-96933198D01*
X155897593Y-96874494D01*
X155956558Y-96764180D01*
X155992868Y-96644482D01*
X156005128Y-96520000D01*
X155992868Y-96395518D01*
X155956558Y-96275820D01*
X155897593Y-96165506D01*
X155849417Y-96106802D01*
X167287942Y-96106802D01*
X167404592Y-96393000D01*
X168957928Y-96393000D01*
X168957928Y-94839664D01*
X169211928Y-94839664D01*
X169211928Y-96393000D01*
X170765264Y-96393000D01*
X170881914Y-96106802D01*
X170842228Y-95988702D01*
X176026903Y-95988702D01*
X176098486Y-96232671D01*
X176353996Y-96353571D01*
X176628184Y-96422300D01*
X176910512Y-96436217D01*
X177190130Y-96394787D01*
X177456292Y-96299603D01*
X177581514Y-96232671D01*
X177653097Y-95988702D01*
X176840000Y-95175605D01*
X176026903Y-95988702D01*
X170842228Y-95988702D01*
X170766774Y-95764167D01*
X170587002Y-95450578D01*
X170349506Y-95178087D01*
X170205017Y-95066512D01*
X175399783Y-95066512D01*
X175441213Y-95346130D01*
X175536397Y-95612292D01*
X175603329Y-95737514D01*
X175847298Y-95809097D01*
X176660395Y-94996000D01*
X177019605Y-94996000D01*
X177832702Y-95809097D01*
X178076671Y-95737514D01*
X178197571Y-95482004D01*
X178266300Y-95207816D01*
X178280217Y-94925488D01*
X178238787Y-94645870D01*
X178143603Y-94379708D01*
X178076671Y-94254486D01*
X177877340Y-94196000D01*
X178901928Y-94196000D01*
X178901928Y-95796000D01*
X178914188Y-95920482D01*
X178950498Y-96040180D01*
X179009463Y-96150494D01*
X179088815Y-96247185D01*
X179185506Y-96326537D01*
X179295820Y-96385502D01*
X179415518Y-96421812D01*
X179540000Y-96434072D01*
X181140000Y-96434072D01*
X181264482Y-96421812D01*
X181384180Y-96385502D01*
X181494494Y-96326537D01*
X181591185Y-96247185D01*
X181670537Y-96150494D01*
X181729502Y-96040180D01*
X181765812Y-95920482D01*
X181778072Y-95796000D01*
X181778072Y-94785721D01*
X188873000Y-94785721D01*
X188873000Y-95206279D01*
X188955047Y-95618756D01*
X189115988Y-96007302D01*
X189349637Y-96356983D01*
X189647017Y-96654363D01*
X189996698Y-96888012D01*
X190385244Y-97048953D01*
X190797721Y-97131000D01*
X191218279Y-97131000D01*
X191630756Y-97048953D01*
X192019302Y-96888012D01*
X192368983Y-96654363D01*
X192666363Y-96356983D01*
X192900012Y-96007302D01*
X193060953Y-95618756D01*
X193143000Y-95206279D01*
X193143000Y-94785721D01*
X193060953Y-94373244D01*
X192900012Y-93984698D01*
X192666363Y-93635017D01*
X192368983Y-93337637D01*
X192019302Y-93103988D01*
X191630756Y-92943047D01*
X191218279Y-92861000D01*
X190797721Y-92861000D01*
X190385244Y-92943047D01*
X189996698Y-93103988D01*
X189647017Y-93337637D01*
X189349637Y-93635017D01*
X189115988Y-93984698D01*
X188955047Y-94373244D01*
X188873000Y-94785721D01*
X181778072Y-94785721D01*
X181778072Y-94196000D01*
X181765812Y-94071518D01*
X181729502Y-93951820D01*
X181670537Y-93841506D01*
X181591185Y-93744815D01*
X181494494Y-93665463D01*
X181384180Y-93606498D01*
X181264482Y-93570188D01*
X181140000Y-93557928D01*
X179540000Y-93557928D01*
X179415518Y-93570188D01*
X179295820Y-93606498D01*
X179185506Y-93665463D01*
X179088815Y-93744815D01*
X179009463Y-93841506D01*
X178950498Y-93951820D01*
X178914188Y-94071518D01*
X178901928Y-94196000D01*
X177877340Y-94196000D01*
X177832702Y-94182903D01*
X177019605Y-94996000D01*
X176660395Y-94996000D01*
X175847298Y-94182903D01*
X175603329Y-94254486D01*
X175482429Y-94509996D01*
X175413700Y-94784184D01*
X175399783Y-95066512D01*
X170205017Y-95066512D01*
X170063413Y-94957165D01*
X169739718Y-94796301D01*
X169498126Y-94723014D01*
X169211928Y-94839664D01*
X168957928Y-94839664D01*
X168671730Y-94723014D01*
X168329095Y-94838154D01*
X168015506Y-95017926D01*
X167743015Y-95255422D01*
X167522093Y-95541515D01*
X167361229Y-95865210D01*
X167287942Y-96106802D01*
X155849417Y-96106802D01*
X155818241Y-96068815D01*
X154121185Y-94371759D01*
X154024494Y-94292407D01*
X153914180Y-94233442D01*
X153794482Y-94197132D01*
X153670000Y-94184872D01*
X153545518Y-94197132D01*
X153425820Y-94233442D01*
X153315506Y-94292407D01*
X153218815Y-94371759D01*
X151521759Y-96068815D01*
X151442407Y-96165506D01*
X151383442Y-96275820D01*
X151347132Y-96395518D01*
X151334872Y-96520000D01*
X114545000Y-96520000D01*
X114545000Y-96245701D01*
X114437974Y-95707646D01*
X114228035Y-95200808D01*
X113923250Y-94744666D01*
X113535334Y-94356750D01*
X113079192Y-94051965D01*
X112961700Y-94003298D01*
X176026903Y-94003298D01*
X176840000Y-94816395D01*
X177653097Y-94003298D01*
X177581514Y-93759329D01*
X177326004Y-93638429D01*
X177051816Y-93569700D01*
X176769488Y-93555783D01*
X176489870Y-93597213D01*
X176223708Y-93692397D01*
X176098486Y-93759329D01*
X176026903Y-94003298D01*
X112961700Y-94003298D01*
X112572354Y-93842026D01*
X112034299Y-93735000D01*
X111485701Y-93735000D01*
X110947646Y-93842026D01*
X110440808Y-94051965D01*
X109984666Y-94356750D01*
X109596750Y-94744666D01*
X109291965Y-95200808D01*
X109082026Y-95707646D01*
X108975000Y-96245701D01*
X89535000Y-96245701D01*
X89535000Y-91416000D01*
X188869928Y-91416000D01*
X188882188Y-91540482D01*
X188918498Y-91660180D01*
X188977463Y-91770494D01*
X189056815Y-91867185D01*
X189153506Y-91946537D01*
X189263820Y-92005502D01*
X189383518Y-92041812D01*
X189508000Y-92054072D01*
X190722250Y-92051000D01*
X190881000Y-91892250D01*
X190881000Y-90043000D01*
X191135000Y-90043000D01*
X191135000Y-91892250D01*
X191293750Y-92051000D01*
X192508000Y-92054072D01*
X192632482Y-92041812D01*
X192752180Y-92005502D01*
X192862494Y-91946537D01*
X192959185Y-91867185D01*
X193038537Y-91770494D01*
X193097502Y-91660180D01*
X193133812Y-91540482D01*
X193146072Y-91416000D01*
X193143000Y-90201750D01*
X192984250Y-90043000D01*
X191135000Y-90043000D01*
X190881000Y-90043000D01*
X189031750Y-90043000D01*
X188873000Y-90201750D01*
X188869928Y-91416000D01*
X89535000Y-91416000D01*
X89535000Y-88631804D01*
X159542464Y-88631804D01*
X159542464Y-88993268D01*
X159612982Y-89347786D01*
X159751308Y-89681735D01*
X159952126Y-89982280D01*
X160207720Y-90237874D01*
X160508265Y-90438692D01*
X160842214Y-90577018D01*
X161196732Y-90647536D01*
X161558196Y-90647536D01*
X161912714Y-90577018D01*
X162246663Y-90438692D01*
X162547208Y-90237874D01*
X162802802Y-89982280D01*
X163003620Y-89681735D01*
X163141946Y-89347786D01*
X163212464Y-88993268D01*
X163212464Y-88631804D01*
X163169538Y-88416000D01*
X188869928Y-88416000D01*
X188873000Y-89630250D01*
X189031750Y-89789000D01*
X190881000Y-89789000D01*
X190881000Y-87939750D01*
X191135000Y-87939750D01*
X191135000Y-89789000D01*
X192984250Y-89789000D01*
X193143000Y-89630250D01*
X193146072Y-88416000D01*
X193133812Y-88291518D01*
X193097502Y-88171820D01*
X193038537Y-88061506D01*
X192959185Y-87964815D01*
X192862494Y-87885463D01*
X192752180Y-87826498D01*
X192632482Y-87790188D01*
X192508000Y-87777928D01*
X191293750Y-87781000D01*
X191135000Y-87939750D01*
X190881000Y-87939750D01*
X190722250Y-87781000D01*
X189508000Y-87777928D01*
X189383518Y-87790188D01*
X189263820Y-87826498D01*
X189153506Y-87885463D01*
X189056815Y-87964815D01*
X188977463Y-88061506D01*
X188918498Y-88171820D01*
X188882188Y-88291518D01*
X188869928Y-88416000D01*
X163169538Y-88416000D01*
X163141946Y-88277286D01*
X163003620Y-87943337D01*
X162802802Y-87642792D01*
X162547208Y-87387198D01*
X162246663Y-87186380D01*
X161912714Y-87048054D01*
X161558196Y-86977536D01*
X161196732Y-86977536D01*
X160842214Y-87048054D01*
X160508265Y-87186380D01*
X160207720Y-87387198D01*
X159952126Y-87642792D01*
X159751308Y-87943337D01*
X159612982Y-88277286D01*
X159542464Y-88631804D01*
X89535000Y-88631804D01*
X89535000Y-85539344D01*
X147467000Y-85539344D01*
X147467000Y-85910656D01*
X147539439Y-86274834D01*
X147681534Y-86617882D01*
X147887825Y-86926618D01*
X148150382Y-87189175D01*
X148459118Y-87395466D01*
X148802166Y-87537561D01*
X149166344Y-87610000D01*
X149537656Y-87610000D01*
X149901834Y-87537561D01*
X150244882Y-87395466D01*
X150553618Y-87189175D01*
X150816175Y-86926618D01*
X151022466Y-86617882D01*
X151164561Y-86274834D01*
X151237000Y-85910656D01*
X151237000Y-85539344D01*
X151164561Y-85175166D01*
X151022466Y-84832118D01*
X150816175Y-84523382D01*
X150553618Y-84260825D01*
X150244882Y-84054534D01*
X149901834Y-83912439D01*
X149537656Y-83840000D01*
X149166344Y-83840000D01*
X148802166Y-83912439D01*
X148459118Y-84054534D01*
X148150382Y-84260825D01*
X147887825Y-84523382D01*
X147681534Y-84832118D01*
X147539439Y-85175166D01*
X147467000Y-85539344D01*
X89535000Y-85539344D01*
X89535000Y-82620000D01*
X180533928Y-82620000D01*
X180533928Y-85020000D01*
X180546188Y-85144482D01*
X180582498Y-85264180D01*
X180641463Y-85374494D01*
X180720815Y-85471185D01*
X180817506Y-85550537D01*
X180927820Y-85609502D01*
X181047518Y-85645812D01*
X181172000Y-85658072D01*
X183572000Y-85658072D01*
X183696482Y-85645812D01*
X183816180Y-85609502D01*
X183926494Y-85550537D01*
X184023185Y-85471185D01*
X184102537Y-85374494D01*
X184161502Y-85264180D01*
X184197812Y-85144482D01*
X184210072Y-85020000D01*
X184210072Y-82620000D01*
X184197812Y-82495518D01*
X184161502Y-82375820D01*
X184102537Y-82265506D01*
X184023185Y-82168815D01*
X183926494Y-82089463D01*
X183816180Y-82030498D01*
X183696482Y-81994188D01*
X183572000Y-81981928D01*
X181172000Y-81981928D01*
X181047518Y-81994188D01*
X180927820Y-82030498D01*
X180817506Y-82089463D01*
X180720815Y-82168815D01*
X180641463Y-82265506D01*
X180582498Y-82375820D01*
X180546188Y-82495518D01*
X180533928Y-82620000D01*
X89535000Y-82620000D01*
X89535000Y-78556000D01*
X162753928Y-78556000D01*
X162753928Y-80956000D01*
X162766188Y-81080482D01*
X162802498Y-81200180D01*
X162861463Y-81310494D01*
X162940815Y-81407185D01*
X163037506Y-81486537D01*
X163147820Y-81545502D01*
X163267518Y-81581812D01*
X163392000Y-81594072D01*
X165792000Y-81594072D01*
X165916482Y-81581812D01*
X166036180Y-81545502D01*
X166146494Y-81486537D01*
X166243185Y-81407185D01*
X166322537Y-81310494D01*
X166381502Y-81200180D01*
X166417812Y-81080482D01*
X166430072Y-80956000D01*
X166430072Y-78556000D01*
X166417812Y-78431518D01*
X166381502Y-78311820D01*
X166322537Y-78201506D01*
X166243185Y-78104815D01*
X166146494Y-78025463D01*
X166036180Y-77966498D01*
X165916482Y-77930188D01*
X165792000Y-77917928D01*
X163392000Y-77917928D01*
X163267518Y-77930188D01*
X163147820Y-77966498D01*
X163037506Y-78025463D01*
X162940815Y-78104815D01*
X162861463Y-78201506D01*
X162802498Y-78311820D01*
X162766188Y-78431518D01*
X162753928Y-78556000D01*
X89535000Y-78556000D01*
X89535000Y-77597980D01*
X181273626Y-77597980D01*
X181393514Y-77882836D01*
X181717210Y-78043699D01*
X182066069Y-78138322D01*
X182426684Y-78163067D01*
X182785198Y-78116985D01*
X183127833Y-78001846D01*
X183350486Y-77882836D01*
X183470374Y-77597980D01*
X182372000Y-76499605D01*
X181273626Y-77597980D01*
X89535000Y-77597980D01*
X89535000Y-76374684D01*
X180528933Y-76374684D01*
X180575015Y-76733198D01*
X180690154Y-77075833D01*
X180809164Y-77298486D01*
X181094020Y-77418374D01*
X182192395Y-76320000D01*
X182551605Y-76320000D01*
X183649980Y-77418374D01*
X183934836Y-77298486D01*
X184095699Y-76974790D01*
X184190322Y-76625931D01*
X184215067Y-76265316D01*
X184168985Y-75906802D01*
X184053846Y-75564167D01*
X183934836Y-75341514D01*
X183649980Y-75221626D01*
X182551605Y-76320000D01*
X182192395Y-76320000D01*
X181094020Y-75221626D01*
X180809164Y-75341514D01*
X180648301Y-75665210D01*
X180553678Y-76014069D01*
X180528933Y-76374684D01*
X89535000Y-76374684D01*
X89535000Y-73187051D01*
X138215000Y-73187051D01*
X138215000Y-74132950D01*
X138236487Y-74351111D01*
X138321401Y-74631034D01*
X138459294Y-74889014D01*
X138644866Y-75115134D01*
X138870987Y-75300706D01*
X139128967Y-75438599D01*
X139408890Y-75523513D01*
X139700000Y-75552185D01*
X139991111Y-75523513D01*
X140271034Y-75438599D01*
X140529014Y-75300706D01*
X140755134Y-75115134D01*
X140815137Y-75042020D01*
X181273626Y-75042020D01*
X182372000Y-76140395D01*
X183470374Y-75042020D01*
X183350486Y-74757164D01*
X183026790Y-74596301D01*
X182677931Y-74501678D01*
X182317316Y-74476933D01*
X181958802Y-74523015D01*
X181616167Y-74638154D01*
X181393514Y-74757164D01*
X181273626Y-75042020D01*
X140815137Y-75042020D01*
X140940706Y-74889014D01*
X141078599Y-74631034D01*
X141163513Y-74351111D01*
X141185000Y-74132949D01*
X141185000Y-73533980D01*
X163493626Y-73533980D01*
X163613514Y-73818836D01*
X163937210Y-73979699D01*
X164286069Y-74074322D01*
X164646684Y-74099067D01*
X165005198Y-74052985D01*
X165347833Y-73937846D01*
X165570486Y-73818836D01*
X165674358Y-73572033D01*
X188227572Y-73572033D01*
X188545757Y-74025850D01*
X189150210Y-74351269D01*
X189806535Y-74552512D01*
X190489510Y-74621845D01*
X191172888Y-74556605D01*
X191830407Y-74359298D01*
X192436799Y-74037506D01*
X192454243Y-74025850D01*
X192772428Y-73572033D01*
X190500000Y-71299605D01*
X188227572Y-73572033D01*
X165674358Y-73572033D01*
X165690374Y-73533980D01*
X164592000Y-72435605D01*
X163493626Y-73533980D01*
X141185000Y-73533980D01*
X141185000Y-73187050D01*
X141163513Y-72968889D01*
X141078599Y-72688966D01*
X140940706Y-72430986D01*
X140755134Y-72204866D01*
X140529013Y-72019294D01*
X140271033Y-71881401D01*
X139991110Y-71796487D01*
X139700000Y-71767815D01*
X139408889Y-71796487D01*
X139128966Y-71881401D01*
X138870986Y-72019294D01*
X138644866Y-72204866D01*
X138459294Y-72430987D01*
X138321401Y-72688967D01*
X138236487Y-72968890D01*
X138215000Y-73187051D01*
X89535000Y-73187051D01*
X89535000Y-70539344D01*
X147467000Y-70539344D01*
X147467000Y-70910656D01*
X147539439Y-71274834D01*
X147681534Y-71617882D01*
X147887825Y-71926618D01*
X148150382Y-72189175D01*
X148459118Y-72395466D01*
X148802166Y-72537561D01*
X149166344Y-72610000D01*
X149537656Y-72610000D01*
X149901834Y-72537561D01*
X150244882Y-72395466D01*
X150371767Y-72310684D01*
X162748933Y-72310684D01*
X162795015Y-72669198D01*
X162910154Y-73011833D01*
X163029164Y-73234486D01*
X163314020Y-73354374D01*
X164412395Y-72256000D01*
X164771605Y-72256000D01*
X165869980Y-73354374D01*
X166154836Y-73234486D01*
X166315699Y-72910790D01*
X166410322Y-72561931D01*
X166435067Y-72201316D01*
X166388985Y-71842802D01*
X166273846Y-71500167D01*
X166154836Y-71277514D01*
X165869980Y-71157626D01*
X164771605Y-72256000D01*
X164412395Y-72256000D01*
X163314020Y-71157626D01*
X163029164Y-71277514D01*
X162868301Y-71601210D01*
X162773678Y-71950069D01*
X162748933Y-72310684D01*
X150371767Y-72310684D01*
X150553618Y-72189175D01*
X150816175Y-71926618D01*
X151022466Y-71617882D01*
X151164561Y-71274834D01*
X151223600Y-70978020D01*
X163493626Y-70978020D01*
X164592000Y-72076395D01*
X165558884Y-71109510D01*
X186998155Y-71109510D01*
X187063395Y-71792888D01*
X187260702Y-72450407D01*
X187582494Y-73056799D01*
X187594150Y-73074243D01*
X188047967Y-73392428D01*
X190320395Y-71120000D01*
X190679605Y-71120000D01*
X192952033Y-73392428D01*
X193405850Y-73074243D01*
X193731269Y-72469790D01*
X193932512Y-71813465D01*
X194001845Y-71130490D01*
X193936605Y-70447112D01*
X193739298Y-69789593D01*
X193417506Y-69183201D01*
X193405850Y-69165757D01*
X192952033Y-68847572D01*
X190679605Y-71120000D01*
X190320395Y-71120000D01*
X188047967Y-68847572D01*
X187594150Y-69165757D01*
X187268731Y-69770210D01*
X187067488Y-70426535D01*
X186998155Y-71109510D01*
X165558884Y-71109510D01*
X165690374Y-70978020D01*
X165570486Y-70693164D01*
X165246790Y-70532301D01*
X164897931Y-70437678D01*
X164537316Y-70412933D01*
X164178802Y-70459015D01*
X163836167Y-70574154D01*
X163613514Y-70693164D01*
X163493626Y-70978020D01*
X151223600Y-70978020D01*
X151237000Y-70910656D01*
X151237000Y-70539344D01*
X151164561Y-70175166D01*
X151022466Y-69832118D01*
X150816175Y-69523382D01*
X150553618Y-69260825D01*
X150244882Y-69054534D01*
X149901834Y-68912439D01*
X149537656Y-68840000D01*
X149166344Y-68840000D01*
X148802166Y-68912439D01*
X148459118Y-69054534D01*
X148150382Y-69260825D01*
X147887825Y-69523382D01*
X147681534Y-69832118D01*
X147539439Y-70175166D01*
X147467000Y-70539344D01*
X89535000Y-70539344D01*
X89535000Y-66700000D01*
X139576284Y-66700000D01*
X139408889Y-66716487D01*
G37*
%TD.AperFunction*%
%TD*%
M02*
