G04 #@! TF.GenerationSoftware,KiCad,Pcbnew,(5.1.9)-1*
G04 #@! TF.CreationDate,2021-06-30T23:09:52-04:00*
G04 #@! TF.ProjectId,C64PowerSupply,43363450-6f77-4657-9253-7570706c792e,A*
G04 #@! TF.SameCoordinates,Original*
G04 #@! TF.FileFunction,Legend,Top*
G04 #@! TF.FilePolarity,Positive*
%FSLAX46Y46*%
G04 Gerber Fmt 4.6, Leading zero omitted, Abs format (unit mm)*
G04 Created by KiCad (PCBNEW (5.1.9)-1) date 2021-06-30 23:09:52*
%MOMM*%
%LPD*%
G01*
G04 APERTURE LIST*
%ADD10C,0.508000*%
%ADD11C,0.150000*%
%ADD12C,0.200000*%
%ADD13C,0.203200*%
%ADD14C,0.120000*%
%ADD15C,0.100000*%
%ADD16C,2.600000*%
%ADD17R,2.600000X2.600000*%
%ADD18C,1.440000*%
%ADD19C,2.500000*%
%ADD20C,2.667000*%
%ADD21C,5.700000*%
%ADD22C,2.400000*%
%ADD23R,10.200000X3.500000*%
%ADD24C,1.600000*%
%ADD25R,1.600000X1.600000*%
%ADD26R,2.159000X1.778000*%
%ADD27O,1.800000X1.800000*%
%ADD28R,1.800000X1.800000*%
%ADD29R,2.400000X2.400000*%
%ADD30C,4.300000*%
%ADD31R,1.700000X2.500000*%
%ADD32O,1.700000X2.500000*%
G04 APERTURE END LIST*
D10*
X69088000Y-126492000D02*
X69088000Y-66548000D01*
D11*
X177316190Y-96988380D02*
X177649523Y-97988380D01*
X177982857Y-96988380D01*
X178268571Y-97702666D02*
X178744761Y-97702666D01*
X178173333Y-97988380D02*
X178506666Y-96988380D01*
X178840000Y-97988380D01*
X179173333Y-97988380D02*
X179173333Y-96988380D01*
X179411428Y-96988380D01*
X179554285Y-97036000D01*
X179649523Y-97131238D01*
X179697142Y-97226476D01*
X179744761Y-97416952D01*
X179744761Y-97559809D01*
X179697142Y-97750285D01*
X179649523Y-97845523D01*
X179554285Y-97940761D01*
X179411428Y-97988380D01*
X179173333Y-97988380D01*
X180459047Y-96988380D02*
X180459047Y-97702666D01*
X180411428Y-97845523D01*
X180316190Y-97940761D01*
X180173333Y-97988380D01*
X180078095Y-97988380D01*
X180935238Y-96988380D02*
X180935238Y-97797904D01*
X180982857Y-97893142D01*
X181030476Y-97940761D01*
X181125714Y-97988380D01*
X181316190Y-97988380D01*
X181411428Y-97940761D01*
X181459047Y-97893142D01*
X181506666Y-97797904D01*
X181506666Y-96988380D01*
X181935238Y-97940761D02*
X182078095Y-97988380D01*
X182316190Y-97988380D01*
X182411428Y-97940761D01*
X182459047Y-97893142D01*
X182506666Y-97797904D01*
X182506666Y-97702666D01*
X182459047Y-97607428D01*
X182411428Y-97559809D01*
X182316190Y-97512190D01*
X182125714Y-97464571D01*
X182030476Y-97416952D01*
X181982857Y-97369333D01*
X181935238Y-97274095D01*
X181935238Y-97178857D01*
X181982857Y-97083619D01*
X182030476Y-97036000D01*
X182125714Y-96988380D01*
X182363809Y-96988380D01*
X182506666Y-97036000D01*
X182792380Y-96988380D02*
X183363809Y-96988380D01*
X183078095Y-97988380D02*
X183078095Y-96988380D01*
D12*
X104831428Y-123130571D02*
X104831428Y-124202000D01*
X104760000Y-124416285D01*
X104617142Y-124559142D01*
X104402857Y-124630571D01*
X104260000Y-124630571D01*
X106260000Y-124630571D02*
X105545714Y-124630571D01*
X105545714Y-123130571D01*
X107617142Y-124487714D02*
X107545714Y-124559142D01*
X107331428Y-124630571D01*
X107188571Y-124630571D01*
X106974285Y-124559142D01*
X106831428Y-124416285D01*
X106760000Y-124273428D01*
X106688571Y-123987714D01*
X106688571Y-123773428D01*
X106760000Y-123487714D01*
X106831428Y-123344857D01*
X106974285Y-123202000D01*
X107188571Y-123130571D01*
X107331428Y-123130571D01*
X107545714Y-123202000D01*
X107617142Y-123273428D01*
X108688571Y-123130571D02*
X108688571Y-124202000D01*
X108617142Y-124416285D01*
X108474285Y-124559142D01*
X108260000Y-124630571D01*
X108117142Y-124630571D01*
X110117142Y-124630571D02*
X109402857Y-124630571D01*
X109402857Y-123130571D01*
X111474285Y-124487714D02*
X111402857Y-124559142D01*
X111188571Y-124630571D01*
X111045714Y-124630571D01*
X110831428Y-124559142D01*
X110688571Y-124416285D01*
X110617142Y-124273428D01*
X110545714Y-123987714D01*
X110545714Y-123773428D01*
X110617142Y-123487714D01*
X110688571Y-123344857D01*
X110831428Y-123202000D01*
X111045714Y-123130571D01*
X111188571Y-123130571D01*
X111402857Y-123202000D01*
X111474285Y-123273428D01*
X112545714Y-123130571D02*
X112545714Y-124202000D01*
X112474285Y-124416285D01*
X112331428Y-124559142D01*
X112117142Y-124630571D01*
X111974285Y-124630571D01*
X113974285Y-124630571D02*
X113260000Y-124630571D01*
X113260000Y-123130571D01*
X115331428Y-124487714D02*
X115260000Y-124559142D01*
X115045714Y-124630571D01*
X114902857Y-124630571D01*
X114688571Y-124559142D01*
X114545714Y-124416285D01*
X114474285Y-124273428D01*
X114402857Y-123987714D01*
X114402857Y-123773428D01*
X114474285Y-123487714D01*
X114545714Y-123344857D01*
X114688571Y-123202000D01*
X114902857Y-123130571D01*
X115045714Y-123130571D01*
X115260000Y-123202000D01*
X115331428Y-123273428D01*
X116402857Y-123130571D02*
X116402857Y-124202000D01*
X116331428Y-124416285D01*
X116188571Y-124559142D01*
X115974285Y-124630571D01*
X115831428Y-124630571D01*
X117831428Y-124630571D02*
X117117142Y-124630571D01*
X117117142Y-123130571D01*
X119188571Y-124487714D02*
X119117142Y-124559142D01*
X118902857Y-124630571D01*
X118760000Y-124630571D01*
X118545714Y-124559142D01*
X118402857Y-124416285D01*
X118331428Y-124273428D01*
X118260000Y-123987714D01*
X118260000Y-123773428D01*
X118331428Y-123487714D01*
X118402857Y-123344857D01*
X118545714Y-123202000D01*
X118760000Y-123130571D01*
X118902857Y-123130571D01*
X119117142Y-123202000D01*
X119188571Y-123273428D01*
D13*
X81327171Y-115606285D02*
X79803171Y-115969142D01*
X80891742Y-116259428D01*
X79803171Y-116549714D01*
X81327171Y-116912571D01*
X80238600Y-117420571D02*
X80238600Y-118146285D01*
X79803171Y-117275428D02*
X81327171Y-117783428D01*
X79803171Y-118291428D01*
X79803171Y-119670285D02*
X80528885Y-119162285D01*
X79803171Y-118799428D02*
X81327171Y-118799428D01*
X81327171Y-119380000D01*
X81254600Y-119525142D01*
X81182028Y-119597714D01*
X81036885Y-119670285D01*
X80819171Y-119670285D01*
X80674028Y-119597714D01*
X80601457Y-119525142D01*
X80528885Y-119380000D01*
X80528885Y-118799428D01*
X79803171Y-120323428D02*
X81327171Y-120323428D01*
X79803171Y-121194285D01*
X81327171Y-121194285D01*
X79803171Y-121920000D02*
X81327171Y-121920000D01*
X79803171Y-122645714D02*
X81327171Y-122645714D01*
X79803171Y-123516571D01*
X81327171Y-123516571D01*
X81254600Y-125040571D02*
X81327171Y-124895428D01*
X81327171Y-124677714D01*
X81254600Y-124460000D01*
X81109457Y-124314857D01*
X80964314Y-124242285D01*
X80674028Y-124169714D01*
X80456314Y-124169714D01*
X80166028Y-124242285D01*
X80020885Y-124314857D01*
X79875742Y-124460000D01*
X79803171Y-124677714D01*
X79803171Y-124822857D01*
X79875742Y-125040571D01*
X79948314Y-125113142D01*
X80456314Y-125113142D01*
X80456314Y-124822857D01*
X77313971Y-116731142D02*
X77313971Y-115860285D01*
X77313971Y-116295714D02*
X78837971Y-116295714D01*
X78620257Y-116150571D01*
X78475114Y-116005428D01*
X78402542Y-115860285D01*
X78692828Y-117311714D02*
X78765400Y-117384285D01*
X78837971Y-117529428D01*
X78837971Y-117892285D01*
X78765400Y-118037428D01*
X78692828Y-118110000D01*
X78547685Y-118182571D01*
X78402542Y-118182571D01*
X78184828Y-118110000D01*
X77313971Y-117239142D01*
X77313971Y-118182571D01*
X78837971Y-119126000D02*
X78837971Y-119271142D01*
X78765400Y-119416285D01*
X78692828Y-119488857D01*
X78547685Y-119561428D01*
X78257400Y-119634000D01*
X77894542Y-119634000D01*
X77604257Y-119561428D01*
X77459114Y-119488857D01*
X77386542Y-119416285D01*
X77313971Y-119271142D01*
X77313971Y-119126000D01*
X77386542Y-118980857D01*
X77459114Y-118908285D01*
X77604257Y-118835714D01*
X77894542Y-118763142D01*
X78257400Y-118763142D01*
X78547685Y-118835714D01*
X78692828Y-118908285D01*
X78765400Y-118980857D01*
X78837971Y-119126000D01*
X78837971Y-121230571D02*
X77313971Y-121738571D01*
X78837971Y-122246571D01*
X77749400Y-122682000D02*
X77749400Y-123407714D01*
X77313971Y-122536857D02*
X78837971Y-123044857D01*
X77313971Y-123552857D01*
X77459114Y-124931714D02*
X77386542Y-124859142D01*
X77313971Y-124641428D01*
X77313971Y-124496285D01*
X77386542Y-124278571D01*
X77531685Y-124133428D01*
X77676828Y-124060857D01*
X77967114Y-123988285D01*
X78184828Y-123988285D01*
X78475114Y-124060857D01*
X78620257Y-124133428D01*
X78765400Y-124278571D01*
X78837971Y-124496285D01*
X78837971Y-124641428D01*
X78765400Y-124859142D01*
X78692828Y-124931714D01*
D14*
X185928000Y-105156000D02*
X186944000Y-105156000D01*
X185928000Y-104648000D02*
X185928000Y-105156000D01*
X185928000Y-100584000D02*
X185928000Y-100076000D01*
X186944000Y-100076000D02*
X185928000Y-100076000D01*
D11*
X70350000Y-111506095D02*
X70397619Y-111410857D01*
X70397619Y-111268000D01*
X70350000Y-111125142D01*
X70254761Y-111029904D01*
X70159523Y-110982285D01*
X69969047Y-110934666D01*
X69826190Y-110934666D01*
X69635714Y-110982285D01*
X69540476Y-111029904D01*
X69445238Y-111125142D01*
X69397619Y-111268000D01*
X69397619Y-111363238D01*
X69445238Y-111506095D01*
X69492857Y-111553714D01*
X69826190Y-111553714D01*
X69826190Y-111363238D01*
X69397619Y-111982285D02*
X70397619Y-111982285D01*
X69397619Y-112553714D01*
X70397619Y-112553714D01*
X69397619Y-113029904D02*
X70397619Y-113029904D01*
X70397619Y-113268000D01*
X70350000Y-113410857D01*
X70254761Y-113506095D01*
X70159523Y-113553714D01*
X69969047Y-113601333D01*
X69826190Y-113601333D01*
X69635714Y-113553714D01*
X69540476Y-113506095D01*
X69445238Y-113410857D01*
X69397619Y-113268000D01*
X69397619Y-113029904D01*
X69397619Y-104211809D02*
X70397619Y-104211809D01*
X69397619Y-104783238D01*
X70397619Y-104783238D01*
X69921428Y-105259428D02*
X69921428Y-105592761D01*
X69397619Y-105735619D02*
X69397619Y-105259428D01*
X70397619Y-105259428D01*
X70397619Y-105735619D01*
X70397619Y-106164190D02*
X69588095Y-106164190D01*
X69492857Y-106211809D01*
X69445238Y-106259428D01*
X69397619Y-106354666D01*
X69397619Y-106545142D01*
X69445238Y-106640380D01*
X69492857Y-106688000D01*
X69588095Y-106735619D01*
X70397619Y-106735619D01*
X70397619Y-107068952D02*
X70397619Y-107640380D01*
X69397619Y-107354666D02*
X70397619Y-107354666D01*
X69397619Y-108545142D02*
X69873809Y-108211809D01*
X69397619Y-107973714D02*
X70397619Y-107973714D01*
X70397619Y-108354666D01*
X70350000Y-108449904D01*
X70302380Y-108497523D01*
X70207142Y-108545142D01*
X70064285Y-108545142D01*
X69969047Y-108497523D01*
X69921428Y-108449904D01*
X69873809Y-108354666D01*
X69873809Y-107973714D01*
X69683333Y-108926095D02*
X69683333Y-109402285D01*
X69397619Y-108830857D02*
X70397619Y-109164190D01*
X69397619Y-109497523D01*
X69397619Y-110307047D02*
X69397619Y-109830857D01*
X70397619Y-109830857D01*
X69397619Y-100663523D02*
X70397619Y-100663523D01*
X69921428Y-100663523D02*
X69921428Y-101234952D01*
X69397619Y-101234952D02*
X70397619Y-101234952D01*
X70397619Y-101901619D02*
X70397619Y-102092095D01*
X70350000Y-102187333D01*
X70254761Y-102282571D01*
X70064285Y-102330190D01*
X69730952Y-102330190D01*
X69540476Y-102282571D01*
X69445238Y-102187333D01*
X69397619Y-102092095D01*
X69397619Y-101901619D01*
X69445238Y-101806380D01*
X69540476Y-101711142D01*
X69730952Y-101663523D01*
X70064285Y-101663523D01*
X70254761Y-101711142D01*
X70350000Y-101806380D01*
X70397619Y-101901619D01*
X70397619Y-102615904D02*
X70397619Y-103187333D01*
X69397619Y-102901619D02*
X70397619Y-102901619D01*
X186380380Y-104163619D02*
X186380380Y-103973142D01*
X186332761Y-103877904D01*
X186285142Y-103830285D01*
X186142285Y-103735047D01*
X185951809Y-103687428D01*
X185570857Y-103687428D01*
X185475619Y-103735047D01*
X185428000Y-103782666D01*
X185380380Y-103877904D01*
X185380380Y-104068380D01*
X185428000Y-104163619D01*
X185475619Y-104211238D01*
X185570857Y-104258857D01*
X185808952Y-104258857D01*
X185904190Y-104211238D01*
X185951809Y-104163619D01*
X185999428Y-104068380D01*
X185999428Y-103877904D01*
X185951809Y-103782666D01*
X185904190Y-103735047D01*
X185808952Y-103687428D01*
X185380380Y-103401714D02*
X186380380Y-103068380D01*
X185380380Y-102735047D01*
X186094666Y-102449333D02*
X186094666Y-101973142D01*
X186380380Y-102544571D02*
X185380380Y-102211238D01*
X186380380Y-101877904D01*
X186285142Y-100973142D02*
X186332761Y-101020761D01*
X186380380Y-101163619D01*
X186380380Y-101258857D01*
X186332761Y-101401714D01*
X186237523Y-101496952D01*
X186142285Y-101544571D01*
X185951809Y-101592190D01*
X185808952Y-101592190D01*
X185618476Y-101544571D01*
X185523238Y-101496952D01*
X185428000Y-101401714D01*
X185380380Y-101258857D01*
X185380380Y-101163619D01*
X185428000Y-101020761D01*
X185475619Y-100973142D01*
X185380380Y-96186476D02*
X185380380Y-96662666D01*
X185856571Y-96710285D01*
X185808952Y-96662666D01*
X185761333Y-96567428D01*
X185761333Y-96329333D01*
X185808952Y-96234095D01*
X185856571Y-96186476D01*
X185951809Y-96138857D01*
X186189904Y-96138857D01*
X186285142Y-96186476D01*
X186332761Y-96234095D01*
X186380380Y-96329333D01*
X186380380Y-96567428D01*
X186332761Y-96662666D01*
X186285142Y-96710285D01*
X185380380Y-95853142D02*
X186380380Y-95519809D01*
X185380380Y-95186476D01*
X186380380Y-94853142D02*
X185380380Y-94853142D01*
X185380380Y-94615047D01*
X185428000Y-94472190D01*
X185523238Y-94376952D01*
X185618476Y-94329333D01*
X185808952Y-94281714D01*
X185951809Y-94281714D01*
X186142285Y-94329333D01*
X186237523Y-94376952D01*
X186332761Y-94472190D01*
X186380380Y-94615047D01*
X186380380Y-94853142D01*
X186285142Y-93281714D02*
X186332761Y-93329333D01*
X186380380Y-93472190D01*
X186380380Y-93567428D01*
X186332761Y-93710285D01*
X186237523Y-93805523D01*
X186142285Y-93853142D01*
X185951809Y-93900761D01*
X185808952Y-93900761D01*
X185618476Y-93853142D01*
X185523238Y-93805523D01*
X185428000Y-93710285D01*
X185380380Y-93567428D01*
X185380380Y-93472190D01*
X185428000Y-93329333D01*
X185475619Y-93281714D01*
X185428000Y-90677904D02*
X185380380Y-90773142D01*
X185380380Y-90916000D01*
X185428000Y-91058857D01*
X185523238Y-91154095D01*
X185618476Y-91201714D01*
X185808952Y-91249333D01*
X185951809Y-91249333D01*
X186142285Y-91201714D01*
X186237523Y-91154095D01*
X186332761Y-91058857D01*
X186380380Y-90916000D01*
X186380380Y-90820761D01*
X186332761Y-90677904D01*
X186285142Y-90630285D01*
X185951809Y-90630285D01*
X185951809Y-90820761D01*
X186380380Y-90201714D02*
X185380380Y-90201714D01*
X186380380Y-89630285D01*
X185380380Y-89630285D01*
X186380380Y-89154095D02*
X185380380Y-89154095D01*
X185380380Y-88916000D01*
X185428000Y-88773142D01*
X185523238Y-88677904D01*
X185618476Y-88630285D01*
X185808952Y-88582666D01*
X185951809Y-88582666D01*
X186142285Y-88630285D01*
X186237523Y-88677904D01*
X186332761Y-88773142D01*
X186380380Y-88916000D01*
X186380380Y-89154095D01*
D10*
X89916000Y-126492000D02*
X69088000Y-126492000D01*
X89916000Y-66548000D02*
X89916000Y-126492000D01*
X69088000Y-66548000D02*
X89916000Y-66548000D01*
D14*
X193188000Y-104648000D02*
G75*
G03*
X193188000Y-104648000I-2180000J0D01*
G01*
X193188000Y-99648000D02*
G75*
G03*
X193188000Y-99648000I-2180000J0D01*
G01*
X193188000Y-94648000D02*
G75*
G03*
X193188000Y-94648000I-2180000J0D01*
G01*
X193188000Y-89648000D02*
G75*
G03*
X193188000Y-89648000I-2180000J0D01*
G01*
X195608000Y-107208000D02*
X195608000Y-87087000D01*
X194508000Y-107208000D02*
X194508000Y-87087000D01*
X186948000Y-107208000D02*
X186948000Y-87087000D01*
X196068000Y-107208000D02*
X196068000Y-87087000D01*
X186948000Y-107208000D02*
X196068000Y-107208000D01*
X186948000Y-87087000D02*
X196068000Y-87087000D01*
X189620000Y-102994000D02*
X189727000Y-103101000D01*
X192555000Y-105930000D02*
X192662000Y-106036000D01*
X189354000Y-103260000D02*
X189461000Y-103367000D01*
X192289000Y-106196000D02*
X192396000Y-106302000D01*
X189620000Y-97994000D02*
X190016000Y-98389000D01*
X192282000Y-100655000D02*
X192662000Y-101035000D01*
X189354000Y-98260000D02*
X189734000Y-98640000D01*
X192000000Y-100906000D02*
X192396000Y-101301000D01*
X189620000Y-92994000D02*
X190016000Y-93389000D01*
X192282000Y-95655000D02*
X192662000Y-96035000D01*
X189354000Y-93260000D02*
X189734000Y-93640000D01*
X192000000Y-95906000D02*
X192396000Y-96301000D01*
X189620000Y-87994000D02*
X190016000Y-88389000D01*
X192282000Y-90655000D02*
X192662000Y-91035000D01*
X189354000Y-88260000D02*
X189734000Y-88640000D01*
X192000000Y-90906000D02*
X192396000Y-91301000D01*
X195668000Y-107448000D02*
X196308000Y-107448000D01*
X196308000Y-107448000D02*
X196308000Y-107048000D01*
X77872000Y-102108000D02*
G75*
G03*
X77872000Y-102108000I-2180000J0D01*
G01*
X77872000Y-107108000D02*
G75*
G03*
X77872000Y-107108000I-2180000J0D01*
G01*
X77872000Y-112108000D02*
G75*
G03*
X77872000Y-112108000I-2180000J0D01*
G01*
X71092000Y-99548000D02*
X71092000Y-114668000D01*
X72192000Y-99548000D02*
X72192000Y-114668000D01*
X79752000Y-99548000D02*
X79752000Y-114668000D01*
X70632000Y-99548000D02*
X70632000Y-114668000D01*
X79752000Y-99548000D02*
X70632000Y-99548000D01*
X79752000Y-114668000D02*
X70632000Y-114668000D01*
X77080000Y-103762000D02*
X76973000Y-103655000D01*
X74145000Y-100826000D02*
X74038000Y-100720000D01*
X77346000Y-103496000D02*
X77239000Y-103389000D01*
X74411000Y-100560000D02*
X74304000Y-100454000D01*
X77080000Y-108762000D02*
X76684000Y-108367000D01*
X74418000Y-106101000D02*
X74038000Y-105721000D01*
X77346000Y-108496000D02*
X76966000Y-108116000D01*
X74700000Y-105850000D02*
X74304000Y-105455000D01*
X77080000Y-113762000D02*
X76684000Y-113367000D01*
X74418000Y-111101000D02*
X74038000Y-110721000D01*
X77346000Y-113496000D02*
X76966000Y-113116000D01*
X74700000Y-110850000D02*
X74304000Y-110455000D01*
X71032000Y-99308000D02*
X70392000Y-99308000D01*
X70392000Y-99308000D02*
X70392000Y-99708000D01*
X178184000Y-96439000D02*
X178184000Y-89489000D01*
X182924000Y-96439000D02*
X182924000Y-89489000D01*
X178184000Y-96439000D02*
X178829000Y-96439000D01*
X179819000Y-96439000D02*
X182924000Y-96439000D01*
X178184000Y-89489000D02*
X178829000Y-89489000D01*
X179819000Y-89489000D02*
X182924000Y-89489000D01*
X144752000Y-90325000D02*
X144752000Y-66125000D01*
X144752000Y-90325000D02*
X153952000Y-90325000D01*
X144752000Y-66125000D02*
X153952000Y-66125000D01*
X153952000Y-90325000D02*
X153952000Y-66125000D01*
X144625000Y-127028000D02*
X144625000Y-102828000D01*
X144625000Y-127028000D02*
X153825000Y-127028000D01*
X144625000Y-102828000D02*
X153825000Y-102828000D01*
X153825000Y-127028000D02*
X153825000Y-102828000D01*
X184912000Y-110744000D02*
X168656000Y-110744000D01*
X184912000Y-127000000D02*
X184912000Y-110744000D01*
X184404000Y-127000000D02*
X184912000Y-127000000D01*
X183388000Y-112776000D02*
X184404000Y-127000000D01*
X180340000Y-112776000D02*
X183388000Y-112776000D01*
X179324000Y-127000000D02*
X180340000Y-112776000D01*
X178816000Y-127000000D02*
X179324000Y-127000000D01*
X178816000Y-112776000D02*
X178816000Y-127000000D01*
X174752000Y-112776000D02*
X178816000Y-112776000D01*
X174752000Y-127000000D02*
X174752000Y-112776000D01*
X174244000Y-127000000D02*
X174752000Y-127000000D01*
X173228000Y-112776000D02*
X174244000Y-127000000D01*
X170180000Y-112776000D02*
X173228000Y-112776000D01*
X169164000Y-127000000D02*
X170180000Y-112776000D01*
X168656000Y-127000000D02*
X169164000Y-127000000D01*
X168656000Y-110744000D02*
X168656000Y-127000000D01*
X176784000Y-112776000D02*
X176784000Y-110744000D01*
D15*
G36*
X175768000Y-110744000D02*
G01*
X177800000Y-110744000D01*
X177800000Y-112776000D01*
X175768000Y-112776000D01*
X175768000Y-110744000D01*
G37*
X175768000Y-110744000D02*
X177800000Y-110744000D01*
X177800000Y-112776000D01*
X175768000Y-112776000D01*
X175768000Y-110744000D01*
D14*
X151760812Y-97792792D02*
X151760812Y-96732132D01*
X151760812Y-96307868D02*
X151760812Y-95247208D01*
X151760812Y-95247208D02*
X161377464Y-85630556D01*
X161377464Y-85630556D02*
X172266908Y-96520000D01*
X172266908Y-96520000D02*
X161377464Y-107409444D01*
X161377464Y-107409444D02*
X151760812Y-97792792D01*
X156184000Y-111022000D02*
X156184000Y-112522000D01*
X156184000Y-121642000D02*
X156184000Y-120142000D01*
X156184000Y-111022000D02*
X157684000Y-111022000D01*
X156184000Y-121642000D02*
X157684000Y-121642000D01*
X166904000Y-121642000D02*
X165404000Y-121642000D01*
X166904000Y-121642000D02*
X166904000Y-120142000D01*
X166904000Y-111022000D02*
X166904000Y-112522000D01*
X166904000Y-111022000D02*
X165404000Y-111022000D01*
X185700302Y-110569000D02*
X185700302Y-111369000D01*
X185300302Y-110969000D02*
X186100302Y-110969000D01*
X193791000Y-112751000D02*
X193791000Y-113817000D01*
X193751000Y-112516000D02*
X193751000Y-114052000D01*
X193711000Y-112336000D02*
X193711000Y-114232000D01*
X193671000Y-112186000D02*
X193671000Y-114382000D01*
X193631000Y-112055000D02*
X193631000Y-114513000D01*
X193591000Y-111938000D02*
X193591000Y-114630000D01*
X193551000Y-111831000D02*
X193551000Y-114737000D01*
X193511000Y-111732000D02*
X193511000Y-114836000D01*
X193471000Y-111639000D02*
X193471000Y-114929000D01*
X193431000Y-111553000D02*
X193431000Y-115015000D01*
X193391000Y-111471000D02*
X193391000Y-115097000D01*
X193351000Y-111394000D02*
X193351000Y-115174000D01*
X193311000Y-111320000D02*
X193311000Y-115248000D01*
X193271000Y-111250000D02*
X193271000Y-115318000D01*
X193231000Y-111182000D02*
X193231000Y-115386000D01*
X193191000Y-111118000D02*
X193191000Y-115450000D01*
X193151000Y-111056000D02*
X193151000Y-115512000D01*
X193111000Y-110997000D02*
X193111000Y-115571000D01*
X193071000Y-110939000D02*
X193071000Y-115629000D01*
X193031000Y-110884000D02*
X193031000Y-115684000D01*
X192991000Y-110830000D02*
X192991000Y-115738000D01*
X192951000Y-110779000D02*
X192951000Y-115789000D01*
X192911000Y-110728000D02*
X192911000Y-115840000D01*
X192871000Y-110680000D02*
X192871000Y-115888000D01*
X192831000Y-110633000D02*
X192831000Y-115935000D01*
X192791000Y-110587000D02*
X192791000Y-115981000D01*
X192751000Y-110543000D02*
X192751000Y-116025000D01*
X192711000Y-110500000D02*
X192711000Y-116068000D01*
X192671000Y-110458000D02*
X192671000Y-116110000D01*
X192631000Y-110417000D02*
X192631000Y-116151000D01*
X192591000Y-110377000D02*
X192591000Y-116191000D01*
X192551000Y-110339000D02*
X192551000Y-116229000D01*
X192511000Y-110301000D02*
X192511000Y-116267000D01*
X192471000Y-114324000D02*
X192471000Y-116303000D01*
X192471000Y-110265000D02*
X192471000Y-112244000D01*
X192431000Y-114324000D02*
X192431000Y-116339000D01*
X192431000Y-110229000D02*
X192431000Y-112244000D01*
X192391000Y-114324000D02*
X192391000Y-116374000D01*
X192391000Y-110194000D02*
X192391000Y-112244000D01*
X192351000Y-114324000D02*
X192351000Y-116408000D01*
X192351000Y-110160000D02*
X192351000Y-112244000D01*
X192311000Y-114324000D02*
X192311000Y-116440000D01*
X192311000Y-110128000D02*
X192311000Y-112244000D01*
X192271000Y-114324000D02*
X192271000Y-116473000D01*
X192271000Y-110095000D02*
X192271000Y-112244000D01*
X192231000Y-114324000D02*
X192231000Y-116504000D01*
X192231000Y-110064000D02*
X192231000Y-112244000D01*
X192191000Y-114324000D02*
X192191000Y-116534000D01*
X192191000Y-110034000D02*
X192191000Y-112244000D01*
X192151000Y-114324000D02*
X192151000Y-116564000D01*
X192151000Y-110004000D02*
X192151000Y-112244000D01*
X192111000Y-114324000D02*
X192111000Y-116593000D01*
X192111000Y-109975000D02*
X192111000Y-112244000D01*
X192071000Y-114324000D02*
X192071000Y-116622000D01*
X192071000Y-109946000D02*
X192071000Y-112244000D01*
X192031000Y-114324000D02*
X192031000Y-116649000D01*
X192031000Y-109919000D02*
X192031000Y-112244000D01*
X191991000Y-114324000D02*
X191991000Y-116676000D01*
X191991000Y-109892000D02*
X191991000Y-112244000D01*
X191951000Y-114324000D02*
X191951000Y-116702000D01*
X191951000Y-109866000D02*
X191951000Y-112244000D01*
X191911000Y-114324000D02*
X191911000Y-116728000D01*
X191911000Y-109840000D02*
X191911000Y-112244000D01*
X191871000Y-114324000D02*
X191871000Y-116753000D01*
X191871000Y-109815000D02*
X191871000Y-112244000D01*
X191831000Y-114324000D02*
X191831000Y-116777000D01*
X191831000Y-109791000D02*
X191831000Y-112244000D01*
X191791000Y-114324000D02*
X191791000Y-116801000D01*
X191791000Y-109767000D02*
X191791000Y-112244000D01*
X191751000Y-114324000D02*
X191751000Y-116824000D01*
X191751000Y-109744000D02*
X191751000Y-112244000D01*
X191711000Y-114324000D02*
X191711000Y-116846000D01*
X191711000Y-109722000D02*
X191711000Y-112244000D01*
X191671000Y-114324000D02*
X191671000Y-116868000D01*
X191671000Y-109700000D02*
X191671000Y-112244000D01*
X191631000Y-114324000D02*
X191631000Y-116890000D01*
X191631000Y-109678000D02*
X191631000Y-112244000D01*
X191591000Y-114324000D02*
X191591000Y-116911000D01*
X191591000Y-109657000D02*
X191591000Y-112244000D01*
X191551000Y-114324000D02*
X191551000Y-116931000D01*
X191551000Y-109637000D02*
X191551000Y-112244000D01*
X191511000Y-114324000D02*
X191511000Y-116950000D01*
X191511000Y-109618000D02*
X191511000Y-112244000D01*
X191471000Y-114324000D02*
X191471000Y-116970000D01*
X191471000Y-109598000D02*
X191471000Y-112244000D01*
X191431000Y-114324000D02*
X191431000Y-116988000D01*
X191431000Y-109580000D02*
X191431000Y-112244000D01*
X191391000Y-114324000D02*
X191391000Y-117006000D01*
X191391000Y-109562000D02*
X191391000Y-112244000D01*
X191351000Y-114324000D02*
X191351000Y-117024000D01*
X191351000Y-109544000D02*
X191351000Y-112244000D01*
X191311000Y-114324000D02*
X191311000Y-117041000D01*
X191311000Y-109527000D02*
X191311000Y-112244000D01*
X191271000Y-114324000D02*
X191271000Y-117058000D01*
X191271000Y-109510000D02*
X191271000Y-112244000D01*
X191231000Y-114324000D02*
X191231000Y-117074000D01*
X191231000Y-109494000D02*
X191231000Y-112244000D01*
X191191000Y-114324000D02*
X191191000Y-117089000D01*
X191191000Y-109479000D02*
X191191000Y-112244000D01*
X191151000Y-114324000D02*
X191151000Y-117105000D01*
X191151000Y-109463000D02*
X191151000Y-112244000D01*
X191111000Y-114324000D02*
X191111000Y-117119000D01*
X191111000Y-109449000D02*
X191111000Y-112244000D01*
X191071000Y-114324000D02*
X191071000Y-117134000D01*
X191071000Y-109434000D02*
X191071000Y-112244000D01*
X191031000Y-114324000D02*
X191031000Y-117147000D01*
X191031000Y-109421000D02*
X191031000Y-112244000D01*
X190991000Y-114324000D02*
X190991000Y-117161000D01*
X190991000Y-109407000D02*
X190991000Y-112244000D01*
X190951000Y-114324000D02*
X190951000Y-117173000D01*
X190951000Y-109395000D02*
X190951000Y-112244000D01*
X190911000Y-114324000D02*
X190911000Y-117186000D01*
X190911000Y-109382000D02*
X190911000Y-112244000D01*
X190871000Y-114324000D02*
X190871000Y-117198000D01*
X190871000Y-109370000D02*
X190871000Y-112244000D01*
X190831000Y-114324000D02*
X190831000Y-117209000D01*
X190831000Y-109359000D02*
X190831000Y-112244000D01*
X190791000Y-114324000D02*
X190791000Y-117220000D01*
X190791000Y-109348000D02*
X190791000Y-112244000D01*
X190751000Y-114324000D02*
X190751000Y-117231000D01*
X190751000Y-109337000D02*
X190751000Y-112244000D01*
X190711000Y-114324000D02*
X190711000Y-117241000D01*
X190711000Y-109327000D02*
X190711000Y-112244000D01*
X190671000Y-114324000D02*
X190671000Y-117251000D01*
X190671000Y-109317000D02*
X190671000Y-112244000D01*
X190631000Y-114324000D02*
X190631000Y-117260000D01*
X190631000Y-109308000D02*
X190631000Y-112244000D01*
X190591000Y-114324000D02*
X190591000Y-117269000D01*
X190591000Y-109299000D02*
X190591000Y-112244000D01*
X190551000Y-114324000D02*
X190551000Y-117278000D01*
X190551000Y-109290000D02*
X190551000Y-112244000D01*
X190511000Y-114324000D02*
X190511000Y-117286000D01*
X190511000Y-109282000D02*
X190511000Y-112244000D01*
X190471000Y-114324000D02*
X190471000Y-117294000D01*
X190471000Y-109274000D02*
X190471000Y-112244000D01*
X190431000Y-114324000D02*
X190431000Y-117301000D01*
X190431000Y-109267000D02*
X190431000Y-112244000D01*
X190390000Y-109260000D02*
X190390000Y-117308000D01*
X190350000Y-109254000D02*
X190350000Y-117314000D01*
X190310000Y-109247000D02*
X190310000Y-117321000D01*
X190270000Y-109242000D02*
X190270000Y-117326000D01*
X190230000Y-109236000D02*
X190230000Y-117332000D01*
X190190000Y-109232000D02*
X190190000Y-117336000D01*
X190150000Y-109227000D02*
X190150000Y-117341000D01*
X190110000Y-109223000D02*
X190110000Y-117345000D01*
X190070000Y-109219000D02*
X190070000Y-117349000D01*
X190030000Y-109216000D02*
X190030000Y-117352000D01*
X189990000Y-109213000D02*
X189990000Y-117355000D01*
X189950000Y-109210000D02*
X189950000Y-117358000D01*
X189910000Y-109208000D02*
X189910000Y-117360000D01*
X189870000Y-109207000D02*
X189870000Y-117361000D01*
X189830000Y-109205000D02*
X189830000Y-117363000D01*
X189790000Y-109204000D02*
X189790000Y-117364000D01*
X189750000Y-109204000D02*
X189750000Y-117364000D01*
X189710000Y-109204000D02*
X189710000Y-117364000D01*
X193830000Y-113284000D02*
G75*
G03*
X193830000Y-113284000I-4120000J0D01*
G01*
X168656000Y-106807000D02*
X168656000Y-107188000D01*
X168656000Y-105664000D02*
X168656000Y-105156000D01*
X167894000Y-106807000D02*
X169418000Y-106807000D01*
X169418000Y-105664000D02*
X168656000Y-106807000D01*
X167894000Y-105664000D02*
X169418000Y-105664000D01*
X168656000Y-106807000D02*
X167894000Y-105664000D01*
X170180000Y-109220000D02*
X170180000Y-104140000D01*
X167132000Y-109220000D02*
X170180000Y-109220000D01*
X167132000Y-104140000D02*
X167132000Y-109220000D01*
X173540000Y-105787000D02*
X173540000Y-103173000D01*
X176940000Y-105787000D02*
X176940000Y-103173000D01*
X180340000Y-105787000D02*
X180340000Y-103157000D01*
X175090000Y-110428000D02*
X175090000Y-108919000D01*
X178790000Y-110428000D02*
X178790000Y-108919000D01*
X182061000Y-108919000D02*
X171820000Y-108919000D01*
X171820000Y-110428000D02*
X171820000Y-105787000D01*
X182061000Y-110428000D02*
X182061000Y-105787000D01*
X174175000Y-105787000D02*
X171820000Y-105787000D01*
X177575000Y-105787000D02*
X176305000Y-105787000D01*
X182061000Y-105787000D02*
X179705000Y-105787000D01*
X182061000Y-110428000D02*
X171820000Y-110428000D01*
X176503698Y-91615000D02*
X176503698Y-90815000D01*
X176903698Y-91215000D02*
X176103698Y-91215000D01*
X168413000Y-89433000D02*
X168413000Y-88367000D01*
X168453000Y-89668000D02*
X168453000Y-88132000D01*
X168493000Y-89848000D02*
X168493000Y-87952000D01*
X168533000Y-89998000D02*
X168533000Y-87802000D01*
X168573000Y-90129000D02*
X168573000Y-87671000D01*
X168613000Y-90246000D02*
X168613000Y-87554000D01*
X168653000Y-90353000D02*
X168653000Y-87447000D01*
X168693000Y-90452000D02*
X168693000Y-87348000D01*
X168733000Y-90545000D02*
X168733000Y-87255000D01*
X168773000Y-90631000D02*
X168773000Y-87169000D01*
X168813000Y-90713000D02*
X168813000Y-87087000D01*
X168853000Y-90790000D02*
X168853000Y-87010000D01*
X168893000Y-90864000D02*
X168893000Y-86936000D01*
X168933000Y-90934000D02*
X168933000Y-86866000D01*
X168973000Y-91002000D02*
X168973000Y-86798000D01*
X169013000Y-91066000D02*
X169013000Y-86734000D01*
X169053000Y-91128000D02*
X169053000Y-86672000D01*
X169093000Y-91187000D02*
X169093000Y-86613000D01*
X169133000Y-91245000D02*
X169133000Y-86555000D01*
X169173000Y-91300000D02*
X169173000Y-86500000D01*
X169213000Y-91354000D02*
X169213000Y-86446000D01*
X169253000Y-91405000D02*
X169253000Y-86395000D01*
X169293000Y-91456000D02*
X169293000Y-86344000D01*
X169333000Y-91504000D02*
X169333000Y-86296000D01*
X169373000Y-91551000D02*
X169373000Y-86249000D01*
X169413000Y-91597000D02*
X169413000Y-86203000D01*
X169453000Y-91641000D02*
X169453000Y-86159000D01*
X169493000Y-91684000D02*
X169493000Y-86116000D01*
X169533000Y-91726000D02*
X169533000Y-86074000D01*
X169573000Y-91767000D02*
X169573000Y-86033000D01*
X169613000Y-91807000D02*
X169613000Y-85993000D01*
X169653000Y-91845000D02*
X169653000Y-85955000D01*
X169693000Y-91883000D02*
X169693000Y-85917000D01*
X169733000Y-87860000D02*
X169733000Y-85881000D01*
X169733000Y-91919000D02*
X169733000Y-89940000D01*
X169773000Y-87860000D02*
X169773000Y-85845000D01*
X169773000Y-91955000D02*
X169773000Y-89940000D01*
X169813000Y-87860000D02*
X169813000Y-85810000D01*
X169813000Y-91990000D02*
X169813000Y-89940000D01*
X169853000Y-87860000D02*
X169853000Y-85776000D01*
X169853000Y-92024000D02*
X169853000Y-89940000D01*
X169893000Y-87860000D02*
X169893000Y-85744000D01*
X169893000Y-92056000D02*
X169893000Y-89940000D01*
X169933000Y-87860000D02*
X169933000Y-85711000D01*
X169933000Y-92089000D02*
X169933000Y-89940000D01*
X169973000Y-87860000D02*
X169973000Y-85680000D01*
X169973000Y-92120000D02*
X169973000Y-89940000D01*
X170013000Y-87860000D02*
X170013000Y-85650000D01*
X170013000Y-92150000D02*
X170013000Y-89940000D01*
X170053000Y-87860000D02*
X170053000Y-85620000D01*
X170053000Y-92180000D02*
X170053000Y-89940000D01*
X170093000Y-87860000D02*
X170093000Y-85591000D01*
X170093000Y-92209000D02*
X170093000Y-89940000D01*
X170133000Y-87860000D02*
X170133000Y-85562000D01*
X170133000Y-92238000D02*
X170133000Y-89940000D01*
X170173000Y-87860000D02*
X170173000Y-85535000D01*
X170173000Y-92265000D02*
X170173000Y-89940000D01*
X170213000Y-87860000D02*
X170213000Y-85508000D01*
X170213000Y-92292000D02*
X170213000Y-89940000D01*
X170253000Y-87860000D02*
X170253000Y-85482000D01*
X170253000Y-92318000D02*
X170253000Y-89940000D01*
X170293000Y-87860000D02*
X170293000Y-85456000D01*
X170293000Y-92344000D02*
X170293000Y-89940000D01*
X170333000Y-87860000D02*
X170333000Y-85431000D01*
X170333000Y-92369000D02*
X170333000Y-89940000D01*
X170373000Y-87860000D02*
X170373000Y-85407000D01*
X170373000Y-92393000D02*
X170373000Y-89940000D01*
X170413000Y-87860000D02*
X170413000Y-85383000D01*
X170413000Y-92417000D02*
X170413000Y-89940000D01*
X170453000Y-87860000D02*
X170453000Y-85360000D01*
X170453000Y-92440000D02*
X170453000Y-89940000D01*
X170493000Y-87860000D02*
X170493000Y-85338000D01*
X170493000Y-92462000D02*
X170493000Y-89940000D01*
X170533000Y-87860000D02*
X170533000Y-85316000D01*
X170533000Y-92484000D02*
X170533000Y-89940000D01*
X170573000Y-87860000D02*
X170573000Y-85294000D01*
X170573000Y-92506000D02*
X170573000Y-89940000D01*
X170613000Y-87860000D02*
X170613000Y-85273000D01*
X170613000Y-92527000D02*
X170613000Y-89940000D01*
X170653000Y-87860000D02*
X170653000Y-85253000D01*
X170653000Y-92547000D02*
X170653000Y-89940000D01*
X170693000Y-87860000D02*
X170693000Y-85234000D01*
X170693000Y-92566000D02*
X170693000Y-89940000D01*
X170733000Y-87860000D02*
X170733000Y-85214000D01*
X170733000Y-92586000D02*
X170733000Y-89940000D01*
X170773000Y-87860000D02*
X170773000Y-85196000D01*
X170773000Y-92604000D02*
X170773000Y-89940000D01*
X170813000Y-87860000D02*
X170813000Y-85178000D01*
X170813000Y-92622000D02*
X170813000Y-89940000D01*
X170853000Y-87860000D02*
X170853000Y-85160000D01*
X170853000Y-92640000D02*
X170853000Y-89940000D01*
X170893000Y-87860000D02*
X170893000Y-85143000D01*
X170893000Y-92657000D02*
X170893000Y-89940000D01*
X170933000Y-87860000D02*
X170933000Y-85126000D01*
X170933000Y-92674000D02*
X170933000Y-89940000D01*
X170973000Y-87860000D02*
X170973000Y-85110000D01*
X170973000Y-92690000D02*
X170973000Y-89940000D01*
X171013000Y-87860000D02*
X171013000Y-85095000D01*
X171013000Y-92705000D02*
X171013000Y-89940000D01*
X171053000Y-87860000D02*
X171053000Y-85079000D01*
X171053000Y-92721000D02*
X171053000Y-89940000D01*
X171093000Y-87860000D02*
X171093000Y-85065000D01*
X171093000Y-92735000D02*
X171093000Y-89940000D01*
X171133000Y-87860000D02*
X171133000Y-85050000D01*
X171133000Y-92750000D02*
X171133000Y-89940000D01*
X171173000Y-87860000D02*
X171173000Y-85037000D01*
X171173000Y-92763000D02*
X171173000Y-89940000D01*
X171213000Y-87860000D02*
X171213000Y-85023000D01*
X171213000Y-92777000D02*
X171213000Y-89940000D01*
X171253000Y-87860000D02*
X171253000Y-85011000D01*
X171253000Y-92789000D02*
X171253000Y-89940000D01*
X171293000Y-87860000D02*
X171293000Y-84998000D01*
X171293000Y-92802000D02*
X171293000Y-89940000D01*
X171333000Y-87860000D02*
X171333000Y-84986000D01*
X171333000Y-92814000D02*
X171333000Y-89940000D01*
X171373000Y-87860000D02*
X171373000Y-84975000D01*
X171373000Y-92825000D02*
X171373000Y-89940000D01*
X171413000Y-87860000D02*
X171413000Y-84964000D01*
X171413000Y-92836000D02*
X171413000Y-89940000D01*
X171453000Y-87860000D02*
X171453000Y-84953000D01*
X171453000Y-92847000D02*
X171453000Y-89940000D01*
X171493000Y-87860000D02*
X171493000Y-84943000D01*
X171493000Y-92857000D02*
X171493000Y-89940000D01*
X171533000Y-87860000D02*
X171533000Y-84933000D01*
X171533000Y-92867000D02*
X171533000Y-89940000D01*
X171573000Y-87860000D02*
X171573000Y-84924000D01*
X171573000Y-92876000D02*
X171573000Y-89940000D01*
X171613000Y-87860000D02*
X171613000Y-84915000D01*
X171613000Y-92885000D02*
X171613000Y-89940000D01*
X171653000Y-87860000D02*
X171653000Y-84906000D01*
X171653000Y-92894000D02*
X171653000Y-89940000D01*
X171693000Y-87860000D02*
X171693000Y-84898000D01*
X171693000Y-92902000D02*
X171693000Y-89940000D01*
X171733000Y-87860000D02*
X171733000Y-84890000D01*
X171733000Y-92910000D02*
X171733000Y-89940000D01*
X171773000Y-87860000D02*
X171773000Y-84883000D01*
X171773000Y-92917000D02*
X171773000Y-89940000D01*
X171814000Y-92924000D02*
X171814000Y-84876000D01*
X171854000Y-92930000D02*
X171854000Y-84870000D01*
X171894000Y-92937000D02*
X171894000Y-84863000D01*
X171934000Y-92942000D02*
X171934000Y-84858000D01*
X171974000Y-92948000D02*
X171974000Y-84852000D01*
X172014000Y-92952000D02*
X172014000Y-84848000D01*
X172054000Y-92957000D02*
X172054000Y-84843000D01*
X172094000Y-92961000D02*
X172094000Y-84839000D01*
X172134000Y-92965000D02*
X172134000Y-84835000D01*
X172174000Y-92968000D02*
X172174000Y-84832000D01*
X172214000Y-92971000D02*
X172214000Y-84829000D01*
X172254000Y-92974000D02*
X172254000Y-84826000D01*
X172294000Y-92976000D02*
X172294000Y-84824000D01*
X172334000Y-92977000D02*
X172334000Y-84823000D01*
X172374000Y-92979000D02*
X172374000Y-84821000D01*
X172414000Y-92980000D02*
X172414000Y-84820000D01*
X172454000Y-92980000D02*
X172454000Y-84820000D01*
X172494000Y-92980000D02*
X172494000Y-84820000D01*
X176614000Y-88900000D02*
G75*
G03*
X176614000Y-88900000I-4120000J0D01*
G01*
X176509000Y-87451491D02*
X178109000Y-87451491D01*
X177309000Y-88251491D02*
X177309000Y-86651491D01*
X181099000Y-71481000D02*
X182629000Y-71481000D01*
X180766000Y-71521000D02*
X182962000Y-71521000D01*
X180513000Y-71561000D02*
X183215000Y-71561000D01*
X180300000Y-71601000D02*
X183428000Y-71601000D01*
X180112000Y-71641000D02*
X183616000Y-71641000D01*
X179944000Y-71681000D02*
X183784000Y-71681000D01*
X179790000Y-71721000D02*
X183938000Y-71721000D01*
X179646000Y-71761000D02*
X184082000Y-71761000D01*
X179513000Y-71801000D02*
X184215000Y-71801000D01*
X179386000Y-71841000D02*
X184342000Y-71841000D01*
X179267000Y-71881000D02*
X184461000Y-71881000D01*
X179153000Y-71921000D02*
X184575000Y-71921000D01*
X179044000Y-71961000D02*
X184684000Y-71961000D01*
X178940000Y-72001000D02*
X184788000Y-72001000D01*
X178840000Y-72041000D02*
X184888000Y-72041000D01*
X178744000Y-72081000D02*
X184984000Y-72081000D01*
X178651000Y-72121000D02*
X185077000Y-72121000D01*
X178561000Y-72161000D02*
X185167000Y-72161000D01*
X178474000Y-72201000D02*
X185254000Y-72201000D01*
X178389000Y-72241000D02*
X185339000Y-72241000D01*
X178307000Y-72281000D02*
X185421000Y-72281000D01*
X178227000Y-72321000D02*
X185501000Y-72321000D01*
X178149000Y-72361000D02*
X185579000Y-72361000D01*
X178074000Y-72401000D02*
X185654000Y-72401000D01*
X178000000Y-72441000D02*
X185728000Y-72441000D01*
X177928000Y-72481000D02*
X185800000Y-72481000D01*
X177857000Y-72521000D02*
X185871000Y-72521000D01*
X177788000Y-72561000D02*
X185940000Y-72561000D01*
X177721000Y-72601000D02*
X186007000Y-72601000D01*
X177655000Y-72641000D02*
X186073000Y-72641000D01*
X177591000Y-72681000D02*
X186137000Y-72681000D01*
X177528000Y-72721000D02*
X186200000Y-72721000D01*
X177466000Y-72761000D02*
X186262000Y-72761000D01*
X177405000Y-72801000D02*
X186323000Y-72801000D01*
X177345000Y-72841000D02*
X186383000Y-72841000D01*
X177287000Y-72881000D02*
X186441000Y-72881000D01*
X177230000Y-72921000D02*
X186498000Y-72921000D01*
X177173000Y-72961000D02*
X186555000Y-72961000D01*
X177118000Y-73001000D02*
X186610000Y-73001000D01*
X177064000Y-73041000D02*
X186664000Y-73041000D01*
X177010000Y-73081000D02*
X186718000Y-73081000D01*
X176958000Y-73121000D02*
X186770000Y-73121000D01*
X176906000Y-73161000D02*
X186822000Y-73161000D01*
X176855000Y-73201000D02*
X186873000Y-73201000D01*
X176805000Y-73241000D02*
X186923000Y-73241000D01*
X176756000Y-73281000D02*
X186972000Y-73281000D01*
X176708000Y-73321000D02*
X187020000Y-73321000D01*
X176660000Y-73361000D02*
X187068000Y-73361000D01*
X176613000Y-73401000D02*
X187115000Y-73401000D01*
X176567000Y-73441000D02*
X187161000Y-73441000D01*
X176521000Y-73481000D02*
X187207000Y-73481000D01*
X176476000Y-73521000D02*
X187252000Y-73521000D01*
X176432000Y-73561000D02*
X187296000Y-73561000D01*
X176389000Y-73601000D02*
X187339000Y-73601000D01*
X176346000Y-73641000D02*
X187382000Y-73641000D01*
X176304000Y-73681000D02*
X187424000Y-73681000D01*
X176262000Y-73721000D02*
X187466000Y-73721000D01*
X176221000Y-73761000D02*
X187507000Y-73761000D01*
X176180000Y-73801000D02*
X187548000Y-73801000D01*
X176140000Y-73841000D02*
X187588000Y-73841000D01*
X176101000Y-73881000D02*
X187627000Y-73881000D01*
X176062000Y-73921000D02*
X187666000Y-73921000D01*
X176024000Y-73961000D02*
X187704000Y-73961000D01*
X175986000Y-74001000D02*
X187742000Y-74001000D01*
X175948000Y-74041000D02*
X187780000Y-74041000D01*
X175912000Y-74081000D02*
X187816000Y-74081000D01*
X175875000Y-74121000D02*
X187853000Y-74121000D01*
X175839000Y-74161000D02*
X187889000Y-74161000D01*
X175804000Y-74201000D02*
X187924000Y-74201000D01*
X175769000Y-74241000D02*
X187959000Y-74241000D01*
X175735000Y-74281000D02*
X187993000Y-74281000D01*
X175701000Y-74321000D02*
X188027000Y-74321000D01*
X175667000Y-74361000D02*
X188061000Y-74361000D01*
X183304000Y-74401000D02*
X188094000Y-74401000D01*
X175634000Y-74401000D02*
X180424000Y-74401000D01*
X183304000Y-74441000D02*
X188127000Y-74441000D01*
X175601000Y-74441000D02*
X180424000Y-74441000D01*
X183304000Y-74481000D02*
X188159000Y-74481000D01*
X175569000Y-74481000D02*
X180424000Y-74481000D01*
X183304000Y-74521000D02*
X188191000Y-74521000D01*
X175537000Y-74521000D02*
X180424000Y-74521000D01*
X183304000Y-74561000D02*
X188222000Y-74561000D01*
X175506000Y-74561000D02*
X180424000Y-74561000D01*
X183304000Y-74601000D02*
X188254000Y-74601000D01*
X175474000Y-74601000D02*
X180424000Y-74601000D01*
X183304000Y-74641000D02*
X188284000Y-74641000D01*
X175444000Y-74641000D02*
X180424000Y-74641000D01*
X183304000Y-74681000D02*
X188314000Y-74681000D01*
X175414000Y-74681000D02*
X180424000Y-74681000D01*
X183304000Y-74721000D02*
X188344000Y-74721000D01*
X175384000Y-74721000D02*
X180424000Y-74721000D01*
X183304000Y-74761000D02*
X188374000Y-74761000D01*
X175354000Y-74761000D02*
X180424000Y-74761000D01*
X183304000Y-74801000D02*
X188403000Y-74801000D01*
X175325000Y-74801000D02*
X180424000Y-74801000D01*
X183304000Y-74841000D02*
X188432000Y-74841000D01*
X175296000Y-74841000D02*
X180424000Y-74841000D01*
X183304000Y-74881000D02*
X188460000Y-74881000D01*
X175268000Y-74881000D02*
X180424000Y-74881000D01*
X183304000Y-74921000D02*
X188488000Y-74921000D01*
X175240000Y-74921000D02*
X180424000Y-74921000D01*
X183304000Y-74961000D02*
X188516000Y-74961000D01*
X175212000Y-74961000D02*
X180424000Y-74961000D01*
X183304000Y-75001000D02*
X188543000Y-75001000D01*
X175185000Y-75001000D02*
X180424000Y-75001000D01*
X183304000Y-75041000D02*
X188570000Y-75041000D01*
X175158000Y-75041000D02*
X180424000Y-75041000D01*
X183304000Y-75081000D02*
X188597000Y-75081000D01*
X175131000Y-75081000D02*
X180424000Y-75081000D01*
X183304000Y-75121000D02*
X188623000Y-75121000D01*
X175105000Y-75121000D02*
X180424000Y-75121000D01*
X183304000Y-75161000D02*
X188649000Y-75161000D01*
X175079000Y-75161000D02*
X180424000Y-75161000D01*
X183304000Y-75201000D02*
X188675000Y-75201000D01*
X175053000Y-75201000D02*
X180424000Y-75201000D01*
X183304000Y-75241000D02*
X188700000Y-75241000D01*
X175028000Y-75241000D02*
X180424000Y-75241000D01*
X183304000Y-75281000D02*
X188725000Y-75281000D01*
X175003000Y-75281000D02*
X180424000Y-75281000D01*
X183304000Y-75321000D02*
X188750000Y-75321000D01*
X174978000Y-75321000D02*
X180424000Y-75321000D01*
X183304000Y-75361000D02*
X188774000Y-75361000D01*
X174954000Y-75361000D02*
X180424000Y-75361000D01*
X183304000Y-75401000D02*
X188798000Y-75401000D01*
X174930000Y-75401000D02*
X180424000Y-75401000D01*
X183304000Y-75441000D02*
X188822000Y-75441000D01*
X174906000Y-75441000D02*
X180424000Y-75441000D01*
X183304000Y-75481000D02*
X188845000Y-75481000D01*
X174883000Y-75481000D02*
X180424000Y-75481000D01*
X183304000Y-75521000D02*
X188868000Y-75521000D01*
X174860000Y-75521000D02*
X180424000Y-75521000D01*
X183304000Y-75561000D02*
X188891000Y-75561000D01*
X174837000Y-75561000D02*
X180424000Y-75561000D01*
X183304000Y-75601000D02*
X188913000Y-75601000D01*
X174815000Y-75601000D02*
X180424000Y-75601000D01*
X183304000Y-75641000D02*
X188936000Y-75641000D01*
X174792000Y-75641000D02*
X180424000Y-75641000D01*
X183304000Y-75681000D02*
X188958000Y-75681000D01*
X174770000Y-75681000D02*
X180424000Y-75681000D01*
X183304000Y-75721000D02*
X188979000Y-75721000D01*
X174749000Y-75721000D02*
X180424000Y-75721000D01*
X183304000Y-75761000D02*
X189000000Y-75761000D01*
X174728000Y-75761000D02*
X180424000Y-75761000D01*
X183304000Y-75801000D02*
X189021000Y-75801000D01*
X174707000Y-75801000D02*
X180424000Y-75801000D01*
X183304000Y-75841000D02*
X189042000Y-75841000D01*
X174686000Y-75841000D02*
X180424000Y-75841000D01*
X183304000Y-75881000D02*
X189063000Y-75881000D01*
X174665000Y-75881000D02*
X180424000Y-75881000D01*
X183304000Y-75921000D02*
X189083000Y-75921000D01*
X174645000Y-75921000D02*
X180424000Y-75921000D01*
X183304000Y-75961000D02*
X189103000Y-75961000D01*
X174625000Y-75961000D02*
X180424000Y-75961000D01*
X183304000Y-76001000D02*
X189122000Y-76001000D01*
X174606000Y-76001000D02*
X180424000Y-76001000D01*
X183304000Y-76041000D02*
X189142000Y-76041000D01*
X174586000Y-76041000D02*
X180424000Y-76041000D01*
X183304000Y-76081000D02*
X189161000Y-76081000D01*
X174567000Y-76081000D02*
X180424000Y-76081000D01*
X183304000Y-76121000D02*
X189180000Y-76121000D01*
X174548000Y-76121000D02*
X180424000Y-76121000D01*
X183304000Y-76161000D02*
X189198000Y-76161000D01*
X174530000Y-76161000D02*
X180424000Y-76161000D01*
X183304000Y-76201000D02*
X189217000Y-76201000D01*
X174511000Y-76201000D02*
X180424000Y-76201000D01*
X183304000Y-76241000D02*
X189235000Y-76241000D01*
X174493000Y-76241000D02*
X180424000Y-76241000D01*
X183304000Y-76281000D02*
X189253000Y-76281000D01*
X174475000Y-76281000D02*
X180424000Y-76281000D01*
X183304000Y-76321000D02*
X189270000Y-76321000D01*
X174458000Y-76321000D02*
X180424000Y-76321000D01*
X183304000Y-76361000D02*
X189287000Y-76361000D01*
X174441000Y-76361000D02*
X180424000Y-76361000D01*
X183304000Y-76401000D02*
X189304000Y-76401000D01*
X174424000Y-76401000D02*
X180424000Y-76401000D01*
X183304000Y-76441000D02*
X189321000Y-76441000D01*
X174407000Y-76441000D02*
X180424000Y-76441000D01*
X183304000Y-76481000D02*
X189338000Y-76481000D01*
X174390000Y-76481000D02*
X180424000Y-76481000D01*
X183304000Y-76521000D02*
X189354000Y-76521000D01*
X174374000Y-76521000D02*
X180424000Y-76521000D01*
X183304000Y-76561000D02*
X189370000Y-76561000D01*
X174358000Y-76561000D02*
X180424000Y-76561000D01*
X183304000Y-76601000D02*
X189386000Y-76601000D01*
X174342000Y-76601000D02*
X180424000Y-76601000D01*
X183304000Y-76641000D02*
X189401000Y-76641000D01*
X174327000Y-76641000D02*
X180424000Y-76641000D01*
X183304000Y-76681000D02*
X189417000Y-76681000D01*
X174311000Y-76681000D02*
X180424000Y-76681000D01*
X183304000Y-76721000D02*
X189432000Y-76721000D01*
X174296000Y-76721000D02*
X180424000Y-76721000D01*
X183304000Y-76761000D02*
X189446000Y-76761000D01*
X174282000Y-76761000D02*
X180424000Y-76761000D01*
X183304000Y-76801000D02*
X189461000Y-76801000D01*
X174267000Y-76801000D02*
X180424000Y-76801000D01*
X183304000Y-76841000D02*
X189475000Y-76841000D01*
X174253000Y-76841000D02*
X180424000Y-76841000D01*
X183304000Y-76881000D02*
X189489000Y-76881000D01*
X174239000Y-76881000D02*
X180424000Y-76881000D01*
X183304000Y-76921000D02*
X189503000Y-76921000D01*
X174225000Y-76921000D02*
X180424000Y-76921000D01*
X183304000Y-76961000D02*
X189517000Y-76961000D01*
X174211000Y-76961000D02*
X180424000Y-76961000D01*
X183304000Y-77001000D02*
X189530000Y-77001000D01*
X174198000Y-77001000D02*
X180424000Y-77001000D01*
X183304000Y-77041000D02*
X189544000Y-77041000D01*
X174184000Y-77041000D02*
X180424000Y-77041000D01*
X183304000Y-77081000D02*
X189557000Y-77081000D01*
X174171000Y-77081000D02*
X180424000Y-77081000D01*
X183304000Y-77121000D02*
X189569000Y-77121000D01*
X174159000Y-77121000D02*
X180424000Y-77121000D01*
X183304000Y-77161000D02*
X189582000Y-77161000D01*
X174146000Y-77161000D02*
X180424000Y-77161000D01*
X183304000Y-77201000D02*
X189594000Y-77201000D01*
X174134000Y-77201000D02*
X180424000Y-77201000D01*
X183304000Y-77241000D02*
X189606000Y-77241000D01*
X174122000Y-77241000D02*
X180424000Y-77241000D01*
X174110000Y-77281000D02*
X189618000Y-77281000D01*
X174099000Y-77321000D02*
X189629000Y-77321000D01*
X174087000Y-77361000D02*
X189641000Y-77361000D01*
X174076000Y-77401000D02*
X189652000Y-77401000D01*
X174065000Y-77441000D02*
X189663000Y-77441000D01*
X174054000Y-77481000D02*
X189674000Y-77481000D01*
X174044000Y-77521000D02*
X189684000Y-77521000D01*
X174034000Y-77561000D02*
X189694000Y-77561000D01*
X174024000Y-77601000D02*
X189704000Y-77601000D01*
X174014000Y-77641000D02*
X189714000Y-77641000D01*
X174004000Y-77681000D02*
X189724000Y-77681000D01*
X173995000Y-77721000D02*
X189733000Y-77721000D01*
X173986000Y-77761000D02*
X189742000Y-77761000D01*
X173977000Y-77801000D02*
X189751000Y-77801000D01*
X173968000Y-77841000D02*
X189760000Y-77841000D01*
X173959000Y-77881000D02*
X189769000Y-77881000D01*
X173951000Y-77921000D02*
X189777000Y-77921000D01*
X173943000Y-77961000D02*
X189785000Y-77961000D01*
X173935000Y-78001000D02*
X189793000Y-78001000D01*
X173927000Y-78041000D02*
X189801000Y-78041000D01*
X173920000Y-78081000D02*
X189808000Y-78081000D01*
X173912000Y-78121000D02*
X189816000Y-78121000D01*
X173905000Y-78161000D02*
X189823000Y-78161000D01*
X173898000Y-78201000D02*
X189830000Y-78201000D01*
X173892000Y-78241000D02*
X189836000Y-78241000D01*
X173885000Y-78281000D02*
X189843000Y-78281000D01*
X173879000Y-78321000D02*
X189849000Y-78321000D01*
X173873000Y-78361000D02*
X189855000Y-78361000D01*
X173867000Y-78401000D02*
X189861000Y-78401000D01*
X173861000Y-78441000D02*
X189867000Y-78441000D01*
X173856000Y-78481000D02*
X189872000Y-78481000D01*
X173850000Y-78521000D02*
X189878000Y-78521000D01*
X173845000Y-78561000D02*
X189883000Y-78561000D01*
X173840000Y-78601000D02*
X189888000Y-78601000D01*
X173836000Y-78641000D02*
X189892000Y-78641000D01*
X173831000Y-78681000D02*
X189897000Y-78681000D01*
X173827000Y-78721000D02*
X189901000Y-78721000D01*
X173823000Y-78761000D02*
X189905000Y-78761000D01*
X173819000Y-78801000D02*
X189909000Y-78801000D01*
X173815000Y-78841000D02*
X189913000Y-78841000D01*
X173812000Y-78882000D02*
X189916000Y-78882000D01*
X173809000Y-78922000D02*
X189919000Y-78922000D01*
X173806000Y-78962000D02*
X189922000Y-78962000D01*
X173803000Y-79002000D02*
X189925000Y-79002000D01*
X173800000Y-79042000D02*
X189928000Y-79042000D01*
X173798000Y-79082000D02*
X189930000Y-79082000D01*
X173795000Y-79122000D02*
X189933000Y-79122000D01*
X173793000Y-79162000D02*
X189935000Y-79162000D01*
X173791000Y-79202000D02*
X189937000Y-79202000D01*
X173790000Y-79242000D02*
X189938000Y-79242000D01*
X173788000Y-79282000D02*
X189940000Y-79282000D01*
X173787000Y-79322000D02*
X189941000Y-79322000D01*
X173786000Y-79362000D02*
X189942000Y-79362000D01*
X173785000Y-79402000D02*
X189943000Y-79402000D01*
X173784000Y-79442000D02*
X189944000Y-79442000D01*
X173784000Y-79482000D02*
X189944000Y-79482000D01*
X173784000Y-79522000D02*
X189944000Y-79522000D01*
X173783000Y-79562000D02*
X189945000Y-79562000D01*
X189984000Y-79562000D02*
G75*
G03*
X189984000Y-79562000I-8120000J0D01*
G01*
X158069000Y-84865440D02*
X159869000Y-84865440D01*
X158969000Y-85765440D02*
X158969000Y-83965440D01*
X164044000Y-66886000D02*
X164124000Y-66886000D01*
X163270000Y-66926000D02*
X164898000Y-66926000D01*
X162918000Y-66966000D02*
X165250000Y-66966000D01*
X162649000Y-67006000D02*
X165519000Y-67006000D01*
X162423000Y-67046000D02*
X165745000Y-67046000D01*
X162224000Y-67086000D02*
X165944000Y-67086000D01*
X162045000Y-67126000D02*
X166123000Y-67126000D01*
X161881000Y-67166000D02*
X166287000Y-67166000D01*
X161729000Y-67206000D02*
X166439000Y-67206000D01*
X161586000Y-67246000D02*
X166582000Y-67246000D01*
X161452000Y-67286000D02*
X166716000Y-67286000D01*
X161325000Y-67326000D02*
X166843000Y-67326000D01*
X161204000Y-67366000D02*
X166964000Y-67366000D01*
X161088000Y-67406000D02*
X167080000Y-67406000D01*
X160977000Y-67446000D02*
X167191000Y-67446000D01*
X160870000Y-67486000D02*
X167298000Y-67486000D01*
X160767000Y-67526000D02*
X167401000Y-67526000D01*
X160668000Y-67566000D02*
X167500000Y-67566000D01*
X160572000Y-67606000D02*
X167596000Y-67606000D01*
X160479000Y-67646000D02*
X167689000Y-67646000D01*
X160388000Y-67686000D02*
X167780000Y-67686000D01*
X160300000Y-67726000D02*
X167868000Y-67726000D01*
X160215000Y-67766000D02*
X167953000Y-67766000D01*
X160132000Y-67806000D02*
X168036000Y-67806000D01*
X160051000Y-67845000D02*
X168117000Y-67845000D01*
X159971000Y-67885000D02*
X168197000Y-67885000D01*
X159894000Y-67925000D02*
X168274000Y-67925000D01*
X159819000Y-67965000D02*
X168349000Y-67965000D01*
X159745000Y-68005000D02*
X168423000Y-68005000D01*
X159672000Y-68045000D02*
X168496000Y-68045000D01*
X159602000Y-68085000D02*
X168566000Y-68085000D01*
X159532000Y-68125000D02*
X168636000Y-68125000D01*
X159464000Y-68165000D02*
X168704000Y-68165000D01*
X159398000Y-68205000D02*
X168770000Y-68205000D01*
X159332000Y-68245000D02*
X168836000Y-68245000D01*
X159268000Y-68285000D02*
X168900000Y-68285000D01*
X159205000Y-68325000D02*
X168963000Y-68325000D01*
X159143000Y-68365000D02*
X169025000Y-68365000D01*
X159082000Y-68405000D02*
X169086000Y-68405000D01*
X159022000Y-68445000D02*
X169146000Y-68445000D01*
X158964000Y-68485000D02*
X169204000Y-68485000D01*
X158906000Y-68525000D02*
X169262000Y-68525000D01*
X158849000Y-68565000D02*
X169319000Y-68565000D01*
X158793000Y-68605000D02*
X169375000Y-68605000D01*
X158738000Y-68645000D02*
X169430000Y-68645000D01*
X158684000Y-68685000D02*
X169484000Y-68685000D01*
X158630000Y-68725000D02*
X169538000Y-68725000D01*
X158578000Y-68765000D02*
X169590000Y-68765000D01*
X158526000Y-68805000D02*
X169642000Y-68805000D01*
X158475000Y-68845000D02*
X169693000Y-68845000D01*
X158424000Y-68885000D02*
X169744000Y-68885000D01*
X158375000Y-68925000D02*
X169793000Y-68925000D01*
X158326000Y-68965000D02*
X169842000Y-68965000D01*
X158278000Y-69005000D02*
X169890000Y-69005000D01*
X158230000Y-69045000D02*
X169938000Y-69045000D01*
X158183000Y-69085000D02*
X169985000Y-69085000D01*
X158137000Y-69125000D02*
X170031000Y-69125000D01*
X158091000Y-69165000D02*
X170077000Y-69165000D01*
X158046000Y-69205000D02*
X170122000Y-69205000D01*
X158002000Y-69245000D02*
X170166000Y-69245000D01*
X157958000Y-69285000D02*
X170210000Y-69285000D01*
X157914000Y-69325000D02*
X170254000Y-69325000D01*
X157872000Y-69365000D02*
X170296000Y-69365000D01*
X157830000Y-69405000D02*
X170338000Y-69405000D01*
X157788000Y-69445000D02*
X170380000Y-69445000D01*
X157747000Y-69485000D02*
X170421000Y-69485000D01*
X157706000Y-69525000D02*
X170462000Y-69525000D01*
X157666000Y-69565000D02*
X170502000Y-69565000D01*
X157626000Y-69605000D02*
X170542000Y-69605000D01*
X157587000Y-69645000D02*
X170581000Y-69645000D01*
X157548000Y-69685000D02*
X170620000Y-69685000D01*
X157510000Y-69725000D02*
X170658000Y-69725000D01*
X157472000Y-69765000D02*
X170696000Y-69765000D01*
X157435000Y-69805000D02*
X170733000Y-69805000D01*
X157398000Y-69845000D02*
X170770000Y-69845000D01*
X157362000Y-69885000D02*
X170806000Y-69885000D01*
X157326000Y-69925000D02*
X170842000Y-69925000D01*
X157290000Y-69965000D02*
X170878000Y-69965000D01*
X157255000Y-70005000D02*
X170913000Y-70005000D01*
X157220000Y-70045000D02*
X170948000Y-70045000D01*
X157186000Y-70085000D02*
X170982000Y-70085000D01*
X157152000Y-70125000D02*
X171016000Y-70125000D01*
X157119000Y-70165000D02*
X171049000Y-70165000D01*
X157085000Y-70205000D02*
X171083000Y-70205000D01*
X157053000Y-70245000D02*
X171115000Y-70245000D01*
X157020000Y-70285000D02*
X171148000Y-70285000D01*
X156988000Y-70325000D02*
X171180000Y-70325000D01*
X156957000Y-70365000D02*
X171211000Y-70365000D01*
X156925000Y-70405000D02*
X171243000Y-70405000D01*
X156894000Y-70445000D02*
X171274000Y-70445000D01*
X156864000Y-70485000D02*
X171304000Y-70485000D01*
X156834000Y-70525000D02*
X171334000Y-70525000D01*
X156804000Y-70565000D02*
X171364000Y-70565000D01*
X156774000Y-70605000D02*
X171394000Y-70605000D01*
X156745000Y-70645000D02*
X171423000Y-70645000D01*
X156716000Y-70685000D02*
X171452000Y-70685000D01*
X156687000Y-70725000D02*
X171481000Y-70725000D01*
X156659000Y-70765000D02*
X171509000Y-70765000D01*
X156631000Y-70805000D02*
X171537000Y-70805000D01*
X165524000Y-70845000D02*
X171564000Y-70845000D01*
X156604000Y-70845000D02*
X162644000Y-70845000D01*
X165524000Y-70885000D02*
X171592000Y-70885000D01*
X156576000Y-70885000D02*
X162644000Y-70885000D01*
X165524000Y-70925000D02*
X171619000Y-70925000D01*
X156549000Y-70925000D02*
X162644000Y-70925000D01*
X165524000Y-70965000D02*
X171645000Y-70965000D01*
X156523000Y-70965000D02*
X162644000Y-70965000D01*
X165524000Y-71005000D02*
X171672000Y-71005000D01*
X156496000Y-71005000D02*
X162644000Y-71005000D01*
X165524000Y-71045000D02*
X171698000Y-71045000D01*
X156470000Y-71045000D02*
X162644000Y-71045000D01*
X165524000Y-71085000D02*
X171724000Y-71085000D01*
X156444000Y-71085000D02*
X162644000Y-71085000D01*
X165524000Y-71125000D02*
X171749000Y-71125000D01*
X156419000Y-71125000D02*
X162644000Y-71125000D01*
X165524000Y-71165000D02*
X171774000Y-71165000D01*
X156394000Y-71165000D02*
X162644000Y-71165000D01*
X165524000Y-71205000D02*
X171799000Y-71205000D01*
X156369000Y-71205000D02*
X162644000Y-71205000D01*
X165524000Y-71245000D02*
X171824000Y-71245000D01*
X156344000Y-71245000D02*
X162644000Y-71245000D01*
X165524000Y-71285000D02*
X171848000Y-71285000D01*
X156320000Y-71285000D02*
X162644000Y-71285000D01*
X165524000Y-71325000D02*
X171872000Y-71325000D01*
X156296000Y-71325000D02*
X162644000Y-71325000D01*
X165524000Y-71365000D02*
X171896000Y-71365000D01*
X156272000Y-71365000D02*
X162644000Y-71365000D01*
X165524000Y-71405000D02*
X171919000Y-71405000D01*
X156249000Y-71405000D02*
X162644000Y-71405000D01*
X165524000Y-71445000D02*
X171943000Y-71445000D01*
X156225000Y-71445000D02*
X162644000Y-71445000D01*
X165524000Y-71485000D02*
X171966000Y-71485000D01*
X156202000Y-71485000D02*
X162644000Y-71485000D01*
X165524000Y-71525000D02*
X171988000Y-71525000D01*
X156180000Y-71525000D02*
X162644000Y-71525000D01*
X165524000Y-71565000D02*
X172011000Y-71565000D01*
X156157000Y-71565000D02*
X162644000Y-71565000D01*
X165524000Y-71605000D02*
X172033000Y-71605000D01*
X156135000Y-71605000D02*
X162644000Y-71605000D01*
X165524000Y-71645000D02*
X172055000Y-71645000D01*
X156113000Y-71645000D02*
X162644000Y-71645000D01*
X165524000Y-71685000D02*
X172076000Y-71685000D01*
X156092000Y-71685000D02*
X162644000Y-71685000D01*
X165524000Y-71725000D02*
X172098000Y-71725000D01*
X156070000Y-71725000D02*
X162644000Y-71725000D01*
X165524000Y-71765000D02*
X172119000Y-71765000D01*
X156049000Y-71765000D02*
X162644000Y-71765000D01*
X165524000Y-71805000D02*
X172140000Y-71805000D01*
X156028000Y-71805000D02*
X162644000Y-71805000D01*
X165524000Y-71845000D02*
X172160000Y-71845000D01*
X156008000Y-71845000D02*
X162644000Y-71845000D01*
X165524000Y-71885000D02*
X172181000Y-71885000D01*
X155987000Y-71885000D02*
X162644000Y-71885000D01*
X165524000Y-71925000D02*
X172201000Y-71925000D01*
X155967000Y-71925000D02*
X162644000Y-71925000D01*
X165524000Y-71965000D02*
X172221000Y-71965000D01*
X155947000Y-71965000D02*
X162644000Y-71965000D01*
X165524000Y-72005000D02*
X172240000Y-72005000D01*
X155928000Y-72005000D02*
X162644000Y-72005000D01*
X165524000Y-72045000D02*
X172260000Y-72045000D01*
X155908000Y-72045000D02*
X162644000Y-72045000D01*
X165524000Y-72085000D02*
X172279000Y-72085000D01*
X155889000Y-72085000D02*
X162644000Y-72085000D01*
X165524000Y-72125000D02*
X172298000Y-72125000D01*
X155870000Y-72125000D02*
X162644000Y-72125000D01*
X165524000Y-72165000D02*
X172317000Y-72165000D01*
X155851000Y-72165000D02*
X162644000Y-72165000D01*
X165524000Y-72205000D02*
X172335000Y-72205000D01*
X155833000Y-72205000D02*
X162644000Y-72205000D01*
X165524000Y-72245000D02*
X172353000Y-72245000D01*
X155815000Y-72245000D02*
X162644000Y-72245000D01*
X165524000Y-72285000D02*
X172371000Y-72285000D01*
X155797000Y-72285000D02*
X162644000Y-72285000D01*
X165524000Y-72325000D02*
X172389000Y-72325000D01*
X155779000Y-72325000D02*
X162644000Y-72325000D01*
X165524000Y-72365000D02*
X172407000Y-72365000D01*
X155761000Y-72365000D02*
X162644000Y-72365000D01*
X165524000Y-72405000D02*
X172424000Y-72405000D01*
X155744000Y-72405000D02*
X162644000Y-72405000D01*
X165524000Y-72445000D02*
X172441000Y-72445000D01*
X155727000Y-72445000D02*
X162644000Y-72445000D01*
X165524000Y-72485000D02*
X172458000Y-72485000D01*
X155710000Y-72485000D02*
X162644000Y-72485000D01*
X165524000Y-72525000D02*
X172474000Y-72525000D01*
X155694000Y-72525000D02*
X162644000Y-72525000D01*
X165524000Y-72565000D02*
X172491000Y-72565000D01*
X155677000Y-72565000D02*
X162644000Y-72565000D01*
X165524000Y-72605000D02*
X172507000Y-72605000D01*
X155661000Y-72605000D02*
X162644000Y-72605000D01*
X165524000Y-72645000D02*
X172523000Y-72645000D01*
X155645000Y-72645000D02*
X162644000Y-72645000D01*
X165524000Y-72685000D02*
X172539000Y-72685000D01*
X155629000Y-72685000D02*
X162644000Y-72685000D01*
X165524000Y-72725000D02*
X172554000Y-72725000D01*
X155614000Y-72725000D02*
X162644000Y-72725000D01*
X165524000Y-72765000D02*
X172570000Y-72765000D01*
X155598000Y-72765000D02*
X162644000Y-72765000D01*
X165524000Y-72805000D02*
X172585000Y-72805000D01*
X155583000Y-72805000D02*
X162644000Y-72805000D01*
X165524000Y-72845000D02*
X172600000Y-72845000D01*
X155568000Y-72845000D02*
X162644000Y-72845000D01*
X165524000Y-72885000D02*
X172614000Y-72885000D01*
X155554000Y-72885000D02*
X162644000Y-72885000D01*
X165524000Y-72925000D02*
X172629000Y-72925000D01*
X155539000Y-72925000D02*
X162644000Y-72925000D01*
X165524000Y-72965000D02*
X172643000Y-72965000D01*
X155525000Y-72965000D02*
X162644000Y-72965000D01*
X165524000Y-73005000D02*
X172657000Y-73005000D01*
X155511000Y-73005000D02*
X162644000Y-73005000D01*
X165524000Y-73045000D02*
X172671000Y-73045000D01*
X155497000Y-73045000D02*
X162644000Y-73045000D01*
X165524000Y-73085000D02*
X172684000Y-73085000D01*
X155484000Y-73085000D02*
X162644000Y-73085000D01*
X165524000Y-73125000D02*
X172698000Y-73125000D01*
X155470000Y-73125000D02*
X162644000Y-73125000D01*
X165524000Y-73165000D02*
X172711000Y-73165000D01*
X155457000Y-73165000D02*
X162644000Y-73165000D01*
X165524000Y-73205000D02*
X172724000Y-73205000D01*
X155444000Y-73205000D02*
X162644000Y-73205000D01*
X165524000Y-73245000D02*
X172737000Y-73245000D01*
X155431000Y-73245000D02*
X162644000Y-73245000D01*
X165524000Y-73285000D02*
X172749000Y-73285000D01*
X155419000Y-73285000D02*
X162644000Y-73285000D01*
X165524000Y-73325000D02*
X172762000Y-73325000D01*
X155406000Y-73325000D02*
X162644000Y-73325000D01*
X165524000Y-73365000D02*
X172774000Y-73365000D01*
X155394000Y-73365000D02*
X162644000Y-73365000D01*
X165524000Y-73405000D02*
X172786000Y-73405000D01*
X155382000Y-73405000D02*
X162644000Y-73405000D01*
X165524000Y-73445000D02*
X172798000Y-73445000D01*
X155370000Y-73445000D02*
X162644000Y-73445000D01*
X165524000Y-73485000D02*
X172809000Y-73485000D01*
X155359000Y-73485000D02*
X162644000Y-73485000D01*
X165524000Y-73525000D02*
X172821000Y-73525000D01*
X155347000Y-73525000D02*
X162644000Y-73525000D01*
X165524000Y-73565000D02*
X172832000Y-73565000D01*
X155336000Y-73565000D02*
X162644000Y-73565000D01*
X165524000Y-73605000D02*
X172843000Y-73605000D01*
X155325000Y-73605000D02*
X162644000Y-73605000D01*
X165524000Y-73645000D02*
X172854000Y-73645000D01*
X155314000Y-73645000D02*
X162644000Y-73645000D01*
X165524000Y-73685000D02*
X172864000Y-73685000D01*
X155304000Y-73685000D02*
X162644000Y-73685000D01*
X155293000Y-73725000D02*
X172875000Y-73725000D01*
X155283000Y-73765000D02*
X172885000Y-73765000D01*
X155273000Y-73805000D02*
X172895000Y-73805000D01*
X155263000Y-73845000D02*
X172905000Y-73845000D01*
X155253000Y-73885000D02*
X172915000Y-73885000D01*
X155244000Y-73925000D02*
X172924000Y-73925000D01*
X155235000Y-73965000D02*
X172933000Y-73965000D01*
X155226000Y-74005000D02*
X172942000Y-74005000D01*
X155217000Y-74045000D02*
X172951000Y-74045000D01*
X155208000Y-74085000D02*
X172960000Y-74085000D01*
X155199000Y-74125000D02*
X172969000Y-74125000D01*
X155191000Y-74165000D02*
X172977000Y-74165000D01*
X155183000Y-74205000D02*
X172985000Y-74205000D01*
X155175000Y-74245000D02*
X172993000Y-74245000D01*
X155167000Y-74285000D02*
X173001000Y-74285000D01*
X155160000Y-74325000D02*
X173008000Y-74325000D01*
X155152000Y-74365000D02*
X173016000Y-74365000D01*
X155145000Y-74405000D02*
X173023000Y-74405000D01*
X155138000Y-74445000D02*
X173030000Y-74445000D01*
X155131000Y-74485000D02*
X173037000Y-74485000D01*
X155124000Y-74525000D02*
X173044000Y-74525000D01*
X155118000Y-74565000D02*
X173050000Y-74565000D01*
X155112000Y-74605000D02*
X173056000Y-74605000D01*
X155105000Y-74645000D02*
X173063000Y-74645000D01*
X155100000Y-74685000D02*
X173068000Y-74685000D01*
X155094000Y-74725000D02*
X173074000Y-74725000D01*
X155088000Y-74765000D02*
X173080000Y-74765000D01*
X155083000Y-74805000D02*
X173085000Y-74805000D01*
X155078000Y-74845000D02*
X173090000Y-74845000D01*
X155073000Y-74885000D02*
X173095000Y-74885000D01*
X155068000Y-74925000D02*
X173100000Y-74925000D01*
X155063000Y-74965000D02*
X173105000Y-74965000D01*
X155058000Y-75005000D02*
X173110000Y-75005000D01*
X155054000Y-75045000D02*
X173114000Y-75045000D01*
X155050000Y-75085000D02*
X173118000Y-75085000D01*
X155046000Y-75125000D02*
X173122000Y-75125000D01*
X155042000Y-75165000D02*
X173126000Y-75165000D01*
X155039000Y-75205000D02*
X173129000Y-75205000D01*
X155035000Y-75245000D02*
X173133000Y-75245000D01*
X155032000Y-75285000D02*
X173136000Y-75285000D01*
X155029000Y-75326000D02*
X173139000Y-75326000D01*
X155026000Y-75366000D02*
X173142000Y-75366000D01*
X155023000Y-75406000D02*
X173145000Y-75406000D01*
X155021000Y-75446000D02*
X173147000Y-75446000D01*
X155018000Y-75486000D02*
X173150000Y-75486000D01*
X155016000Y-75526000D02*
X173152000Y-75526000D01*
X155014000Y-75566000D02*
X173154000Y-75566000D01*
X155012000Y-75606000D02*
X173156000Y-75606000D01*
X155011000Y-75646000D02*
X173157000Y-75646000D01*
X155009000Y-75686000D02*
X173159000Y-75686000D01*
X155008000Y-75726000D02*
X173160000Y-75726000D01*
X155007000Y-75766000D02*
X173161000Y-75766000D01*
X155006000Y-75806000D02*
X173162000Y-75806000D01*
X155005000Y-75846000D02*
X173163000Y-75846000D01*
X155004000Y-75886000D02*
X173164000Y-75886000D01*
X155004000Y-75926000D02*
X173164000Y-75926000D01*
X155004000Y-75966000D02*
X173164000Y-75966000D01*
X155003000Y-76006000D02*
X173165000Y-76006000D01*
X173204000Y-76006000D02*
G75*
G03*
X173204000Y-76006000I-9120000J0D01*
G01*
X72056000Y-78630000D02*
X77296000Y-78630000D01*
X72056000Y-96870000D02*
X77296000Y-96870000D01*
X77296000Y-96870000D02*
X77296000Y-78630000D01*
X72056000Y-96870000D02*
X72056000Y-78630000D01*
X141760000Y-96520000D02*
G75*
G03*
X141760000Y-96520000I-30000000J0D01*
G01*
X141760000Y-126520000D02*
X141760000Y-66520000D01*
X81760000Y-126520000D02*
X141760000Y-126520000D01*
X81760000Y-126520000D02*
X81760000Y-66520000D01*
X81760000Y-66520000D02*
X141760000Y-66520000D01*
D11*
X176188761Y-93924380D02*
X175855428Y-93448190D01*
X175617333Y-93924380D02*
X175617333Y-92924380D01*
X175998285Y-92924380D01*
X176093523Y-92972000D01*
X176141142Y-93019619D01*
X176188761Y-93114857D01*
X176188761Y-93257714D01*
X176141142Y-93352952D01*
X176093523Y-93400571D01*
X175998285Y-93448190D01*
X175617333Y-93448190D01*
X176474476Y-92924380D02*
X176807809Y-93924380D01*
X177141142Y-92924380D01*
X177998285Y-93924380D02*
X177426857Y-93924380D01*
X177712571Y-93924380D02*
X177712571Y-92924380D01*
X177617333Y-93067238D01*
X177522095Y-93162476D01*
X177426857Y-93210095D01*
X144954666Y-91368571D02*
X144621333Y-91368571D01*
X144621333Y-91892380D02*
X144621333Y-90892380D01*
X145097523Y-90892380D01*
X145430857Y-90987619D02*
X145478476Y-90940000D01*
X145573714Y-90892380D01*
X145811809Y-90892380D01*
X145907047Y-90940000D01*
X145954666Y-90987619D01*
X146002285Y-91082857D01*
X146002285Y-91178095D01*
X145954666Y-91320952D01*
X145383238Y-91892380D01*
X146002285Y-91892380D01*
X144954666Y-101528571D02*
X144621333Y-101528571D01*
X144621333Y-102052380D02*
X144621333Y-101052380D01*
X145097523Y-101052380D01*
X146002285Y-102052380D02*
X145430857Y-102052380D01*
X145716571Y-102052380D02*
X145716571Y-101052380D01*
X145621333Y-101195238D01*
X145526095Y-101290476D01*
X145430857Y-101338095D01*
X175545904Y-125928380D02*
X175545904Y-124928380D01*
X175545904Y-125404571D02*
X176117333Y-125404571D01*
X176117333Y-125928380D02*
X176117333Y-124928380D01*
X176545904Y-125880761D02*
X176688761Y-125928380D01*
X176926857Y-125928380D01*
X177022095Y-125880761D01*
X177069714Y-125833142D01*
X177117333Y-125737904D01*
X177117333Y-125642666D01*
X177069714Y-125547428D01*
X177022095Y-125499809D01*
X176926857Y-125452190D01*
X176736380Y-125404571D01*
X176641142Y-125356952D01*
X176593523Y-125309333D01*
X176545904Y-125214095D01*
X176545904Y-125118857D01*
X176593523Y-125023619D01*
X176641142Y-124976000D01*
X176736380Y-124928380D01*
X176974476Y-124928380D01*
X177117333Y-124976000D01*
X178069714Y-125928380D02*
X177498285Y-125928380D01*
X177784000Y-125928380D02*
X177784000Y-124928380D01*
X177688761Y-125071238D01*
X177593523Y-125166476D01*
X177498285Y-125214095D01*
X160805904Y-109164380D02*
X160805904Y-108164380D01*
X161044000Y-108164380D01*
X161186857Y-108212000D01*
X161282095Y-108307238D01*
X161329714Y-108402476D01*
X161377333Y-108592952D01*
X161377333Y-108735809D01*
X161329714Y-108926285D01*
X161282095Y-109021523D01*
X161186857Y-109116761D01*
X161044000Y-109164380D01*
X160805904Y-109164380D01*
X162329714Y-109164380D02*
X161758285Y-109164380D01*
X162044000Y-109164380D02*
X162044000Y-108164380D01*
X161948761Y-108307238D01*
X161853523Y-108402476D01*
X161758285Y-108450095D01*
X161504333Y-123642380D02*
X161028142Y-123642380D01*
X161028142Y-122642380D01*
X162361476Y-123642380D02*
X161790047Y-123642380D01*
X162075761Y-123642380D02*
X162075761Y-122642380D01*
X161980523Y-122785238D01*
X161885285Y-122880476D01*
X161790047Y-122928095D01*
X186269333Y-118213142D02*
X186221714Y-118260761D01*
X186078857Y-118308380D01*
X185983619Y-118308380D01*
X185840761Y-118260761D01*
X185745523Y-118165523D01*
X185697904Y-118070285D01*
X185650285Y-117879809D01*
X185650285Y-117736952D01*
X185697904Y-117546476D01*
X185745523Y-117451238D01*
X185840761Y-117356000D01*
X185983619Y-117308380D01*
X186078857Y-117308380D01*
X186221714Y-117356000D01*
X186269333Y-117403619D01*
X187174095Y-117308380D02*
X186697904Y-117308380D01*
X186650285Y-117784571D01*
X186697904Y-117736952D01*
X186793142Y-117689333D01*
X187031238Y-117689333D01*
X187126476Y-117736952D01*
X187174095Y-117784571D01*
X187221714Y-117879809D01*
X187221714Y-118117904D01*
X187174095Y-118213142D01*
X187126476Y-118260761D01*
X187031238Y-118308380D01*
X186793142Y-118308380D01*
X186697904Y-118260761D01*
X186650285Y-118213142D01*
X167790904Y-102687380D02*
X167790904Y-101687380D01*
X168029000Y-101687380D01*
X168171857Y-101735000D01*
X168267095Y-101830238D01*
X168314714Y-101925476D01*
X168362333Y-102115952D01*
X168362333Y-102258809D01*
X168314714Y-102449285D01*
X168267095Y-102544523D01*
X168171857Y-102639761D01*
X168029000Y-102687380D01*
X167790904Y-102687380D01*
X168743285Y-101782619D02*
X168790904Y-101735000D01*
X168886142Y-101687380D01*
X169124238Y-101687380D01*
X169219476Y-101735000D01*
X169267095Y-101782619D01*
X169314714Y-101877857D01*
X169314714Y-101973095D01*
X169267095Y-102115952D01*
X168695666Y-102687380D01*
X169314714Y-102687380D01*
X176178095Y-110880380D02*
X176178095Y-111689904D01*
X176225714Y-111785142D01*
X176273333Y-111832761D01*
X176368571Y-111880380D01*
X176559047Y-111880380D01*
X176654285Y-111832761D01*
X176701904Y-111785142D01*
X176749523Y-111689904D01*
X176749523Y-110880380D01*
X177749523Y-111880380D02*
X177178095Y-111880380D01*
X177463809Y-111880380D02*
X177463809Y-110880380D01*
X177368571Y-111023238D01*
X177273333Y-111118476D01*
X177178095Y-111166095D01*
X166457333Y-89257142D02*
X166409714Y-89304761D01*
X166266857Y-89352380D01*
X166171619Y-89352380D01*
X166028761Y-89304761D01*
X165933523Y-89209523D01*
X165885904Y-89114285D01*
X165838285Y-88923809D01*
X165838285Y-88780952D01*
X165885904Y-88590476D01*
X165933523Y-88495238D01*
X166028761Y-88400000D01*
X166171619Y-88352380D01*
X166266857Y-88352380D01*
X166409714Y-88400000D01*
X166457333Y-88447619D01*
X167314476Y-88685714D02*
X167314476Y-89352380D01*
X167076380Y-88304761D02*
X166838285Y-89019047D01*
X167457333Y-89019047D01*
X181697333Y-70461142D02*
X181649714Y-70508761D01*
X181506857Y-70556380D01*
X181411619Y-70556380D01*
X181268761Y-70508761D01*
X181173523Y-70413523D01*
X181125904Y-70318285D01*
X181078285Y-70127809D01*
X181078285Y-69984952D01*
X181125904Y-69794476D01*
X181173523Y-69699238D01*
X181268761Y-69604000D01*
X181411619Y-69556380D01*
X181506857Y-69556380D01*
X181649714Y-69604000D01*
X181697333Y-69651619D01*
X182030666Y-69556380D02*
X182649714Y-69556380D01*
X182316380Y-69937333D01*
X182459238Y-69937333D01*
X182554476Y-69984952D01*
X182602095Y-70032571D01*
X182649714Y-70127809D01*
X182649714Y-70365904D01*
X182602095Y-70461142D01*
X182554476Y-70508761D01*
X182459238Y-70556380D01*
X182173523Y-70556380D01*
X182078285Y-70508761D01*
X182030666Y-70461142D01*
X155789333Y-68937142D02*
X155741714Y-68984761D01*
X155598857Y-69032380D01*
X155503619Y-69032380D01*
X155360761Y-68984761D01*
X155265523Y-68889523D01*
X155217904Y-68794285D01*
X155170285Y-68603809D01*
X155170285Y-68460952D01*
X155217904Y-68270476D01*
X155265523Y-68175238D01*
X155360761Y-68080000D01*
X155503619Y-68032380D01*
X155598857Y-68032380D01*
X155741714Y-68080000D01*
X155789333Y-68127619D01*
X156170285Y-68127619D02*
X156217904Y-68080000D01*
X156313142Y-68032380D01*
X156551238Y-68032380D01*
X156646476Y-68080000D01*
X156694095Y-68127619D01*
X156741714Y-68222857D01*
X156741714Y-68318095D01*
X156694095Y-68460952D01*
X156122666Y-69032380D01*
X156741714Y-69032380D01*
X74509333Y-77827142D02*
X74461714Y-77874761D01*
X74318857Y-77922380D01*
X74223619Y-77922380D01*
X74080761Y-77874761D01*
X73985523Y-77779523D01*
X73937904Y-77684285D01*
X73890285Y-77493809D01*
X73890285Y-77350952D01*
X73937904Y-77160476D01*
X73985523Y-77065238D01*
X74080761Y-76970000D01*
X74223619Y-76922380D01*
X74318857Y-76922380D01*
X74461714Y-76970000D01*
X74509333Y-77017619D01*
X75461714Y-77922380D02*
X74890285Y-77922380D01*
X75176000Y-77922380D02*
X75176000Y-76922380D01*
X75080761Y-77065238D01*
X74985523Y-77160476D01*
X74890285Y-77208095D01*
X137064761Y-124340952D02*
X136969523Y-124293333D01*
X136921904Y-124245714D01*
X136874285Y-124150476D01*
X136874285Y-124102857D01*
X136921904Y-124007619D01*
X136969523Y-123960000D01*
X137064761Y-123912380D01*
X137255238Y-123912380D01*
X137350476Y-123960000D01*
X137398095Y-124007619D01*
X137445714Y-124102857D01*
X137445714Y-124150476D01*
X137398095Y-124245714D01*
X137350476Y-124293333D01*
X137255238Y-124340952D01*
X137064761Y-124340952D01*
X136969523Y-124388571D01*
X136921904Y-124436190D01*
X136874285Y-124531428D01*
X136874285Y-124721904D01*
X136921904Y-124817142D01*
X136969523Y-124864761D01*
X137064761Y-124912380D01*
X137255238Y-124912380D01*
X137350476Y-124864761D01*
X137398095Y-124817142D01*
X137445714Y-124721904D01*
X137445714Y-124531428D01*
X137398095Y-124436190D01*
X137350476Y-124388571D01*
X137255238Y-124340952D01*
X136826666Y-118832380D02*
X137493333Y-118832380D01*
X137064761Y-119832380D01*
X137350476Y-73112380D02*
X137160000Y-73112380D01*
X137064761Y-73160000D01*
X137017142Y-73207619D01*
X136921904Y-73350476D01*
X136874285Y-73540952D01*
X136874285Y-73921904D01*
X136921904Y-74017142D01*
X136969523Y-74064761D01*
X137064761Y-74112380D01*
X137255238Y-74112380D01*
X137350476Y-74064761D01*
X137398095Y-74017142D01*
X137445714Y-73921904D01*
X137445714Y-73683809D01*
X137398095Y-73588571D01*
X137350476Y-73540952D01*
X137255238Y-73493333D01*
X137064761Y-73493333D01*
X136969523Y-73540952D01*
X136921904Y-73588571D01*
X136874285Y-73683809D01*
X137398095Y-68032380D02*
X136921904Y-68032380D01*
X136874285Y-68508571D01*
X136921904Y-68460952D01*
X137017142Y-68413333D01*
X137255238Y-68413333D01*
X137350476Y-68460952D01*
X137398095Y-68508571D01*
X137445714Y-68603809D01*
X137445714Y-68841904D01*
X137398095Y-68937142D01*
X137350476Y-68984761D01*
X137255238Y-69032380D01*
X137017142Y-69032380D01*
X136921904Y-68984761D01*
X136874285Y-68937142D01*
X86550476Y-70905714D02*
X86550476Y-71572380D01*
X86312380Y-70524761D02*
X86074285Y-71239047D01*
X86693333Y-71239047D01*
X86026666Y-75652380D02*
X86645714Y-75652380D01*
X86312380Y-76033333D01*
X86455238Y-76033333D01*
X86550476Y-76080952D01*
X86598095Y-76128571D01*
X86645714Y-76223809D01*
X86645714Y-76461904D01*
X86598095Y-76557142D01*
X86550476Y-76604761D01*
X86455238Y-76652380D01*
X86169523Y-76652380D01*
X86074285Y-76604761D01*
X86026666Y-76557142D01*
X86074285Y-116387619D02*
X86121904Y-116340000D01*
X86217142Y-116292380D01*
X86455238Y-116292380D01*
X86550476Y-116340000D01*
X86598095Y-116387619D01*
X86645714Y-116482857D01*
X86645714Y-116578095D01*
X86598095Y-116720952D01*
X86026666Y-117292380D01*
X86645714Y-117292380D01*
X86645714Y-122372380D02*
X86074285Y-122372380D01*
X86360000Y-122372380D02*
X86360000Y-121372380D01*
X86264761Y-121515238D01*
X86169523Y-121610476D01*
X86074285Y-121658095D01*
%LPC*%
D16*
X191008000Y-89648000D03*
X191008000Y-94648000D03*
X191008000Y-99648000D03*
D17*
X191008000Y-104648000D03*
D16*
X75692000Y-112108000D03*
X75692000Y-107108000D03*
D17*
X75692000Y-102108000D03*
D18*
X179324000Y-95504000D03*
X181864000Y-92964000D03*
X179324000Y-90424000D03*
D19*
X149352000Y-70725000D03*
X149352000Y-85725000D03*
X149225000Y-107428000D03*
X149225000Y-122428000D03*
D20*
X171640500Y-114198400D03*
X181927500Y-114198400D03*
D21*
X73660000Y-121920000D03*
X190500000Y-121920000D03*
X190500000Y-71120000D03*
X73660000Y-71120000D03*
D22*
X161448175Y-104156753D03*
D15*
G36*
X153670000Y-94822944D02*
G01*
X155367056Y-96520000D01*
X153670000Y-98217056D01*
X151972944Y-96520000D01*
X153670000Y-94822944D01*
G37*
D22*
X161377464Y-88812536D03*
X169084928Y-96520000D03*
D23*
X161544000Y-119632000D03*
X161544000Y-113032000D03*
D24*
X191460000Y-113284000D03*
D25*
X187960000Y-113284000D03*
D26*
X168656000Y-104140000D03*
X168656000Y-108204000D03*
D27*
X173540000Y-102108000D03*
X175240000Y-105808000D03*
X176940000Y-102108000D03*
X178640000Y-105808000D03*
D28*
X180340000Y-102108000D03*
D24*
X170744000Y-88900000D03*
D25*
X174244000Y-88900000D03*
D22*
X181864000Y-75812000D03*
D29*
X181864000Y-83312000D03*
D22*
X164084000Y-72256000D03*
D29*
X164084000Y-79756000D03*
D22*
X74676000Y-80250000D03*
X74676000Y-95250000D03*
D30*
X111760000Y-96520000D03*
D31*
X83820000Y-121920000D03*
D32*
X83790000Y-116840000D03*
X83790000Y-71120000D03*
X139700000Y-68580000D03*
X139700000Y-73660000D03*
X139700000Y-119380000D03*
X139730000Y-124460000D03*
X83820000Y-76200000D03*
M02*
