M48
; DRILL file {KiCad (5.1.9)-1} date 06/27/21 18:38:12
; FORMAT={-:-/ absolute / inch / decimal}
; #@! TF.CreationDate,2021-06-27T18:38:12-04:00
; #@! TF.GenerationSoftware,Kicad,Pcbnew,(5.1.9)-1
; #@! TF.FileFunction,Plated,1,2,PTH
FMAT,2
INCH
T1C0.0315
T2C0.0433
T3C0.0472
T4C0.0598
T5C0.0669
T6C0.1260
%
G90
G05
T1
X6.9622Y-3.74
X7.1Y-3.74
X7.4Y-4.46
X7.5378Y-4.46
T2
X6.8323Y-4.02
X6.8992Y-4.1657
X6.9661Y-4.02
X7.0331Y-4.1657
X7.1Y-4.02
T3
X2.94Y-3.1594
X2.94Y-3.75
X6.05Y-3.8
X6.3534Y-3.4966
X6.3562Y-4.1007
X6.48Y-2.8447
X6.48Y-3.14
X6.6569Y-3.8
X7.18Y-3.0047
X7.18Y-3.3
T4
X2.94Y-4.02
X2.94Y-4.22
X2.94Y-4.42
X7.52Y-3.54
X7.52Y-3.74
X7.52Y-3.94
X7.52Y-4.14
T5
X5.875Y-4.2294
X5.875Y-4.82
X5.88Y-2.7844
X5.88Y-3.375
T6
X2.9Y-2.8
X2.9Y-4.8
X7.5Y-2.8
X7.5Y-4.8
T1
G00X3.2988Y-2.8098
M15
G01X3.2988Y-2.7902
M16
G05
G00X3.2988Y-4.6098
M15
G01X3.2988Y-4.5902
M16
G05
G00X3.3Y-3.0098
M15
G01X3.3Y-2.9902
M16
G05
G00X3.3Y-4.8098
M15
G01X3.3Y-4.7902
M16
G05
G00X5.5Y-2.7098
M15
G01X5.5Y-2.6902
M16
G05
G00X5.5Y-2.9098
M15
G01X5.5Y-2.8902
M16
G05
G00X5.5Y-4.7098
M15
G01X5.5Y-4.6902
M16
G05
G00X5.5012Y-4.9098
M15
G01X5.5012Y-4.8902
M16
G05
T0
M30
