G04 #@! TF.GenerationSoftware,KiCad,Pcbnew,(6.0.7)*
G04 #@! TF.CreationDate,2022-09-18T10:38:10-04:00*
G04 #@! TF.ProjectId,C64PowerSupply,43363450-6f77-4657-9253-7570706c792e,B*
G04 #@! TF.SameCoordinates,Original*
G04 #@! TF.FileFunction,Legend,Bot*
G04 #@! TF.FilePolarity,Positive*
%FSLAX46Y46*%
G04 Gerber Fmt 4.6, Leading zero omitted, Abs format (unit mm)*
G04 Created by KiCad (PCBNEW (6.0.7)) date 2022-09-18 10:38:10*
%MOMM*%
%LPD*%
G01*
G04 APERTURE LIST*
%ADD10C,0.120000*%
%ADD11C,1.000000*%
%ADD12C,0.150000*%
%ADD13C,0.203200*%
%ADD14C,5.080000*%
%ADD15R,3.048000X3.048000*%
%ADD16C,3.400000*%
%ADD17R,2.600000X2.600000*%
%ADD18C,2.600000*%
%ADD19C,2.500000*%
%ADD20R,2.400000X2.400000*%
%ADD21C,2.400000*%
%ADD22C,5.700000*%
%ADD23C,1.440000*%
%ADD24C,0.770000*%
%ADD25C,1.800000*%
%ADD26R,2.000000X2.000000*%
%ADD27C,2.000000*%
G04 APERTURE END LIST*
D10*
X191770000Y-102510000D02*
X190754000Y-102510000D01*
D11*
X83820000Y-99060000D02*
X99060000Y-99060000D01*
X99060000Y-106680000D01*
X147320000Y-106680000D01*
X147320000Y-125730000D01*
X69850000Y-125730000D01*
X69850000Y-62230000D01*
X83820000Y-62230000D01*
X83820000Y-99060000D01*
D10*
X191770000Y-102510000D02*
X191770000Y-103018000D01*
X190754000Y-107590000D02*
X191770000Y-107590000D01*
X191770000Y-85852000D02*
X191770000Y-86360000D01*
D11*
X99060000Y-106680000D02*
X147320000Y-106680000D01*
X147320000Y-106680000D02*
X147320000Y-99060000D01*
X147320000Y-99060000D02*
X99060000Y-99060000D01*
X99060000Y-99060000D02*
X99060000Y-106680000D01*
D10*
X191770000Y-81280000D02*
X191770000Y-81788000D01*
X190754000Y-86360000D02*
X191770000Y-86360000D01*
X191770000Y-107082000D02*
X191770000Y-107590000D01*
X191770000Y-81280000D02*
X190754000Y-81280000D01*
D12*
X74795000Y-113156904D02*
X74842619Y-113252142D01*
X74842619Y-113395000D01*
X74795000Y-113537857D01*
X74699761Y-113633095D01*
X74604523Y-113680714D01*
X74414047Y-113728333D01*
X74271190Y-113728333D01*
X74080714Y-113680714D01*
X73985476Y-113633095D01*
X73890238Y-113537857D01*
X73842619Y-113395000D01*
X73842619Y-113299761D01*
X73890238Y-113156904D01*
X73937857Y-113109285D01*
X74271190Y-113109285D01*
X74271190Y-113299761D01*
X73842619Y-112680714D02*
X74842619Y-112680714D01*
X73842619Y-112109285D01*
X74842619Y-112109285D01*
X73842619Y-111633095D02*
X74842619Y-111633095D01*
X74842619Y-111395000D01*
X74795000Y-111252142D01*
X74699761Y-111156904D01*
X74604523Y-111109285D01*
X74414047Y-111061666D01*
X74271190Y-111061666D01*
X74080714Y-111109285D01*
X73985476Y-111156904D01*
X73890238Y-111252142D01*
X73842619Y-111395000D01*
X73842619Y-111633095D01*
X73842619Y-110164190D02*
X74842619Y-110164190D01*
X73842619Y-109592761D01*
X74842619Y-109592761D01*
X74366428Y-109116571D02*
X74366428Y-108783238D01*
X73842619Y-108640380D02*
X73842619Y-109116571D01*
X74842619Y-109116571D01*
X74842619Y-108640380D01*
X74842619Y-108211809D02*
X74033095Y-108211809D01*
X73937857Y-108164190D01*
X73890238Y-108116571D01*
X73842619Y-108021333D01*
X73842619Y-107830857D01*
X73890238Y-107735619D01*
X73937857Y-107688000D01*
X74033095Y-107640380D01*
X74842619Y-107640380D01*
X74842619Y-107307047D02*
X74842619Y-106735619D01*
X73842619Y-107021333D02*
X74842619Y-107021333D01*
X73842619Y-105830857D02*
X74318809Y-106164190D01*
X73842619Y-106402285D02*
X74842619Y-106402285D01*
X74842619Y-106021333D01*
X74795000Y-105926095D01*
X74747380Y-105878476D01*
X74652142Y-105830857D01*
X74509285Y-105830857D01*
X74414047Y-105878476D01*
X74366428Y-105926095D01*
X74318809Y-106021333D01*
X74318809Y-106402285D01*
X74128333Y-105449904D02*
X74128333Y-104973714D01*
X73842619Y-105545142D02*
X74842619Y-105211809D01*
X73842619Y-104878476D01*
X73842619Y-104068952D02*
X73842619Y-104545142D01*
X74842619Y-104545142D01*
X73842619Y-102790476D02*
X74842619Y-102790476D01*
X74366428Y-102790476D02*
X74366428Y-102219047D01*
X73842619Y-102219047D02*
X74842619Y-102219047D01*
X74842619Y-101552380D02*
X74842619Y-101361904D01*
X74795000Y-101266666D01*
X74699761Y-101171428D01*
X74509285Y-101123809D01*
X74175952Y-101123809D01*
X73985476Y-101171428D01*
X73890238Y-101266666D01*
X73842619Y-101361904D01*
X73842619Y-101552380D01*
X73890238Y-101647619D01*
X73985476Y-101742857D01*
X74175952Y-101790476D01*
X74509285Y-101790476D01*
X74699761Y-101742857D01*
X74795000Y-101647619D01*
X74842619Y-101552380D01*
X74842619Y-100838095D02*
X74842619Y-100266666D01*
X73842619Y-100552380D02*
X74842619Y-100552380D01*
X191222380Y-75009523D02*
X191222380Y-74533333D01*
X191698571Y-74485714D01*
X191650952Y-74533333D01*
X191603333Y-74628571D01*
X191603333Y-74866666D01*
X191650952Y-74961904D01*
X191698571Y-75009523D01*
X191793809Y-75057142D01*
X192031904Y-75057142D01*
X192127142Y-75009523D01*
X192174761Y-74961904D01*
X192222380Y-74866666D01*
X192222380Y-74628571D01*
X192174761Y-74533333D01*
X192127142Y-74485714D01*
X191222380Y-75342857D02*
X192222380Y-75676190D01*
X191222380Y-76009523D01*
X192222380Y-76342857D02*
X191222380Y-76342857D01*
X191222380Y-76580952D01*
X191270000Y-76723809D01*
X191365238Y-76819047D01*
X191460476Y-76866666D01*
X191650952Y-76914285D01*
X191793809Y-76914285D01*
X191984285Y-76866666D01*
X192079523Y-76819047D01*
X192174761Y-76723809D01*
X192222380Y-76580952D01*
X192222380Y-76342857D01*
X192127142Y-77914285D02*
X192174761Y-77866666D01*
X192222380Y-77723809D01*
X192222380Y-77628571D01*
X192174761Y-77485714D01*
X192079523Y-77390476D01*
X191984285Y-77342857D01*
X191793809Y-77295238D01*
X191650952Y-77295238D01*
X191460476Y-77342857D01*
X191365238Y-77390476D01*
X191270000Y-77485714D01*
X191222380Y-77628571D01*
X191222380Y-77723809D01*
X191270000Y-77866666D01*
X191317619Y-77914285D01*
X192222380Y-103502380D02*
X192222380Y-103692857D01*
X192174761Y-103788095D01*
X192127142Y-103835714D01*
X191984285Y-103930952D01*
X191793809Y-103978571D01*
X191412857Y-103978571D01*
X191317619Y-103930952D01*
X191270000Y-103883333D01*
X191222380Y-103788095D01*
X191222380Y-103597619D01*
X191270000Y-103502380D01*
X191317619Y-103454761D01*
X191412857Y-103407142D01*
X191650952Y-103407142D01*
X191746190Y-103454761D01*
X191793809Y-103502380D01*
X191841428Y-103597619D01*
X191841428Y-103788095D01*
X191793809Y-103883333D01*
X191746190Y-103930952D01*
X191650952Y-103978571D01*
X191222380Y-104264285D02*
X192222380Y-104597619D01*
X191222380Y-104930952D01*
X191936666Y-105216666D02*
X191936666Y-105692857D01*
X192222380Y-105121428D02*
X191222380Y-105454761D01*
X192222380Y-105788095D01*
X192127142Y-106692857D02*
X192174761Y-106645238D01*
X192222380Y-106502380D01*
X192222380Y-106407142D01*
X192174761Y-106264285D01*
X192079523Y-106169047D01*
X191984285Y-106121428D01*
X191793809Y-106073809D01*
X191650952Y-106073809D01*
X191460476Y-106121428D01*
X191365238Y-106169047D01*
X191270000Y-106264285D01*
X191222380Y-106407142D01*
X191222380Y-106502380D01*
X191270000Y-106645238D01*
X191317619Y-106692857D01*
D13*
X138556190Y-112664761D02*
X138556190Y-110664761D01*
X138556190Y-111617142D02*
X137413333Y-111617142D01*
X137413333Y-112664761D02*
X137413333Y-110664761D01*
X136080000Y-110664761D02*
X135699047Y-110664761D01*
X135508571Y-110760000D01*
X135318095Y-110950476D01*
X135222857Y-111331428D01*
X135222857Y-111998095D01*
X135318095Y-112379047D01*
X135508571Y-112569523D01*
X135699047Y-112664761D01*
X136080000Y-112664761D01*
X136270476Y-112569523D01*
X136460952Y-112379047D01*
X136556190Y-111998095D01*
X136556190Y-111331428D01*
X136460952Y-110950476D01*
X136270476Y-110760000D01*
X136080000Y-110664761D01*
X134651428Y-110664761D02*
X133508571Y-110664761D01*
X134080000Y-112664761D02*
X134080000Y-110664761D01*
X131413333Y-112569523D02*
X131127619Y-112664761D01*
X130651428Y-112664761D01*
X130460952Y-112569523D01*
X130365714Y-112474285D01*
X130270476Y-112283809D01*
X130270476Y-112093333D01*
X130365714Y-111902857D01*
X130460952Y-111807619D01*
X130651428Y-111712380D01*
X131032380Y-111617142D01*
X131222857Y-111521904D01*
X131318095Y-111426666D01*
X131413333Y-111236190D01*
X131413333Y-111045714D01*
X131318095Y-110855238D01*
X131222857Y-110760000D01*
X131032380Y-110664761D01*
X130556190Y-110664761D01*
X130270476Y-110760000D01*
X129413333Y-112664761D02*
X129413333Y-110664761D01*
X128460952Y-112664761D02*
X128460952Y-110664761D01*
X127984761Y-110664761D01*
X127699047Y-110760000D01*
X127508571Y-110950476D01*
X127413333Y-111140952D01*
X127318095Y-111521904D01*
X127318095Y-111807619D01*
X127413333Y-112188571D01*
X127508571Y-112379047D01*
X127699047Y-112569523D01*
X127984761Y-112664761D01*
X128460952Y-112664761D01*
X126460952Y-111617142D02*
X125794285Y-111617142D01*
X125508571Y-112664761D02*
X126460952Y-112664761D01*
X126460952Y-110664761D01*
X125508571Y-110664761D01*
D12*
X191222380Y-96239523D02*
X191222380Y-95763333D01*
X191698571Y-95715714D01*
X191650952Y-95763333D01*
X191603333Y-95858571D01*
X191603333Y-96096666D01*
X191650952Y-96191904D01*
X191698571Y-96239523D01*
X191793809Y-96287142D01*
X192031904Y-96287142D01*
X192127142Y-96239523D01*
X192174761Y-96191904D01*
X192222380Y-96096666D01*
X192222380Y-95858571D01*
X192174761Y-95763333D01*
X192127142Y-95715714D01*
X191222380Y-96572857D02*
X192222380Y-96906190D01*
X191222380Y-97239523D01*
X192222380Y-97572857D02*
X191222380Y-97572857D01*
X191222380Y-97810952D01*
X191270000Y-97953809D01*
X191365238Y-98049047D01*
X191460476Y-98096666D01*
X191650952Y-98144285D01*
X191793809Y-98144285D01*
X191984285Y-98096666D01*
X192079523Y-98049047D01*
X192174761Y-97953809D01*
X192222380Y-97810952D01*
X192222380Y-97572857D01*
X192127142Y-99144285D02*
X192174761Y-99096666D01*
X192222380Y-98953809D01*
X192222380Y-98858571D01*
X192174761Y-98715714D01*
X192079523Y-98620476D01*
X191984285Y-98572857D01*
X191793809Y-98525238D01*
X191650952Y-98525238D01*
X191460476Y-98572857D01*
X191365238Y-98620476D01*
X191270000Y-98715714D01*
X191222380Y-98858571D01*
X191222380Y-98953809D01*
X191270000Y-99096666D01*
X191317619Y-99144285D01*
X191270000Y-70358095D02*
X191222380Y-70262857D01*
X191222380Y-70120000D01*
X191270000Y-69977142D01*
X191365238Y-69881904D01*
X191460476Y-69834285D01*
X191650952Y-69786666D01*
X191793809Y-69786666D01*
X191984285Y-69834285D01*
X192079523Y-69881904D01*
X192174761Y-69977142D01*
X192222380Y-70120000D01*
X192222380Y-70215238D01*
X192174761Y-70358095D01*
X192127142Y-70405714D01*
X191793809Y-70405714D01*
X191793809Y-70215238D01*
X192222380Y-70834285D02*
X191222380Y-70834285D01*
X192222380Y-71405714D01*
X191222380Y-71405714D01*
X192222380Y-71881904D02*
X191222380Y-71881904D01*
X191222380Y-72120000D01*
X191270000Y-72262857D01*
X191365238Y-72358095D01*
X191460476Y-72405714D01*
X191650952Y-72453333D01*
X191793809Y-72453333D01*
X191984285Y-72405714D01*
X192079523Y-72358095D01*
X192174761Y-72262857D01*
X192222380Y-72120000D01*
X192222380Y-71881904D01*
X192222380Y-82272380D02*
X192222380Y-82462857D01*
X192174761Y-82558095D01*
X192127142Y-82605714D01*
X191984285Y-82700952D01*
X191793809Y-82748571D01*
X191412857Y-82748571D01*
X191317619Y-82700952D01*
X191270000Y-82653333D01*
X191222380Y-82558095D01*
X191222380Y-82367619D01*
X191270000Y-82272380D01*
X191317619Y-82224761D01*
X191412857Y-82177142D01*
X191650952Y-82177142D01*
X191746190Y-82224761D01*
X191793809Y-82272380D01*
X191841428Y-82367619D01*
X191841428Y-82558095D01*
X191793809Y-82653333D01*
X191746190Y-82700952D01*
X191650952Y-82748571D01*
X191222380Y-83034285D02*
X192222380Y-83367619D01*
X191222380Y-83700952D01*
X191936666Y-83986666D02*
X191936666Y-84462857D01*
X192222380Y-83891428D02*
X191222380Y-84224761D01*
X192222380Y-84558095D01*
X192127142Y-85462857D02*
X192174761Y-85415238D01*
X192222380Y-85272380D01*
X192222380Y-85177142D01*
X192174761Y-85034285D01*
X192079523Y-84939047D01*
X191984285Y-84891428D01*
X191793809Y-84843809D01*
X191650952Y-84843809D01*
X191460476Y-84891428D01*
X191365238Y-84939047D01*
X191270000Y-85034285D01*
X191222380Y-85177142D01*
X191222380Y-85272380D01*
X191270000Y-85415238D01*
X191317619Y-85462857D01*
X191270000Y-91588095D02*
X191222380Y-91492857D01*
X191222380Y-91350000D01*
X191270000Y-91207142D01*
X191365238Y-91111904D01*
X191460476Y-91064285D01*
X191650952Y-91016666D01*
X191793809Y-91016666D01*
X191984285Y-91064285D01*
X192079523Y-91111904D01*
X192174761Y-91207142D01*
X192222380Y-91350000D01*
X192222380Y-91445238D01*
X192174761Y-91588095D01*
X192127142Y-91635714D01*
X191793809Y-91635714D01*
X191793809Y-91445238D01*
X192222380Y-92064285D02*
X191222380Y-92064285D01*
X192222380Y-92635714D01*
X191222380Y-92635714D01*
X192222380Y-93111904D02*
X191222380Y-93111904D01*
X191222380Y-93350000D01*
X191270000Y-93492857D01*
X191365238Y-93588095D01*
X191460476Y-93635714D01*
X191650952Y-93683333D01*
X191793809Y-93683333D01*
X191984285Y-93635714D01*
X192079523Y-93588095D01*
X192174761Y-93492857D01*
X192222380Y-93350000D01*
X192222380Y-93111904D01*
D13*
X136205443Y-101597097D02*
X136253824Y-101645478D01*
X136398967Y-101693859D01*
X136495729Y-101693859D01*
X136640872Y-101645478D01*
X136737634Y-101548716D01*
X136786015Y-101451954D01*
X136834396Y-101258430D01*
X136834396Y-101113287D01*
X136786015Y-100919763D01*
X136737634Y-100823001D01*
X136640872Y-100726240D01*
X136495729Y-100677859D01*
X136398967Y-100677859D01*
X136253824Y-100726240D01*
X136205443Y-100774620D01*
X135334586Y-100677859D02*
X135528110Y-100677859D01*
X135624872Y-100726240D01*
X135673253Y-100774620D01*
X135770015Y-100919763D01*
X135818396Y-101113287D01*
X135818396Y-101500335D01*
X135770015Y-101597097D01*
X135721634Y-101645478D01*
X135624872Y-101693859D01*
X135431348Y-101693859D01*
X135334586Y-101645478D01*
X135286205Y-101597097D01*
X135237824Y-101500335D01*
X135237824Y-101258430D01*
X135286205Y-101161668D01*
X135334586Y-101113287D01*
X135431348Y-101064906D01*
X135624872Y-101064906D01*
X135721634Y-101113287D01*
X135770015Y-101161668D01*
X135818396Y-101258430D01*
X134366967Y-101016525D02*
X134366967Y-101693859D01*
X134608872Y-100629478D02*
X134850777Y-101355192D01*
X134221824Y-101355192D01*
X133109062Y-100629478D02*
X133979920Y-101935763D01*
X132189824Y-101597097D02*
X132238205Y-101645478D01*
X132383348Y-101693859D01*
X132480110Y-101693859D01*
X132625253Y-101645478D01*
X132722015Y-101548716D01*
X132770396Y-101451954D01*
X132818777Y-101258430D01*
X132818777Y-101113287D01*
X132770396Y-100919763D01*
X132722015Y-100823001D01*
X132625253Y-100726240D01*
X132480110Y-100677859D01*
X132383348Y-100677859D01*
X132238205Y-100726240D01*
X132189824Y-100774620D01*
X131222205Y-101693859D02*
X131802777Y-101693859D01*
X131512491Y-101693859D02*
X131512491Y-100677859D01*
X131609253Y-100823001D01*
X131706015Y-100919763D01*
X131802777Y-100968144D01*
X130835158Y-100774620D02*
X130786777Y-100726240D01*
X130690015Y-100677859D01*
X130448110Y-100677859D01*
X130351348Y-100726240D01*
X130302967Y-100774620D01*
X130254586Y-100871382D01*
X130254586Y-100968144D01*
X130302967Y-101113287D01*
X130883539Y-101693859D01*
X130254586Y-101693859D01*
X129674015Y-101113287D02*
X129770777Y-101064906D01*
X129819158Y-101016525D01*
X129867539Y-100919763D01*
X129867539Y-100871382D01*
X129819158Y-100774620D01*
X129770777Y-100726240D01*
X129674015Y-100677859D01*
X129480491Y-100677859D01*
X129383729Y-100726240D01*
X129335348Y-100774620D01*
X129286967Y-100871382D01*
X129286967Y-100919763D01*
X129335348Y-101016525D01*
X129383729Y-101064906D01*
X129480491Y-101113287D01*
X129674015Y-101113287D01*
X129770777Y-101161668D01*
X129819158Y-101210049D01*
X129867539Y-101306811D01*
X129867539Y-101500335D01*
X129819158Y-101597097D01*
X129770777Y-101645478D01*
X129674015Y-101693859D01*
X129480491Y-101693859D01*
X129383729Y-101645478D01*
X129335348Y-101597097D01*
X129286967Y-101500335D01*
X129286967Y-101306811D01*
X129335348Y-101210049D01*
X129383729Y-101161668D01*
X129480491Y-101113287D01*
X128077443Y-101693859D02*
X128077443Y-100677859D01*
X127690396Y-100677859D01*
X127593634Y-100726240D01*
X127545253Y-100774620D01*
X127496872Y-100871382D01*
X127496872Y-101016525D01*
X127545253Y-101113287D01*
X127593634Y-101161668D01*
X127690396Y-101210049D01*
X128077443Y-101210049D01*
X126916300Y-101693859D02*
X127013062Y-101645478D01*
X127061443Y-101597097D01*
X127109824Y-101500335D01*
X127109824Y-101210049D01*
X127061443Y-101113287D01*
X127013062Y-101064906D01*
X126916300Y-101016525D01*
X126771158Y-101016525D01*
X126674396Y-101064906D01*
X126626015Y-101113287D01*
X126577634Y-101210049D01*
X126577634Y-101500335D01*
X126626015Y-101597097D01*
X126674396Y-101645478D01*
X126771158Y-101693859D01*
X126916300Y-101693859D01*
X126238967Y-101016525D02*
X126045443Y-101693859D01*
X125851920Y-101210049D01*
X125658396Y-101693859D01*
X125464872Y-101016525D01*
X124690777Y-101645478D02*
X124787539Y-101693859D01*
X124981062Y-101693859D01*
X125077824Y-101645478D01*
X125126205Y-101548716D01*
X125126205Y-101161668D01*
X125077824Y-101064906D01*
X124981062Y-101016525D01*
X124787539Y-101016525D01*
X124690777Y-101064906D01*
X124642396Y-101161668D01*
X124642396Y-101258430D01*
X125126205Y-101355192D01*
X124206967Y-101693859D02*
X124206967Y-101016525D01*
X124206967Y-101210049D02*
X124158586Y-101113287D01*
X124110205Y-101064906D01*
X124013443Y-101016525D01*
X123916681Y-101016525D01*
X122852300Y-101645478D02*
X122707158Y-101693859D01*
X122465253Y-101693859D01*
X122368491Y-101645478D01*
X122320110Y-101597097D01*
X122271729Y-101500335D01*
X122271729Y-101403573D01*
X122320110Y-101306811D01*
X122368491Y-101258430D01*
X122465253Y-101210049D01*
X122658777Y-101161668D01*
X122755539Y-101113287D01*
X122803920Y-101064906D01*
X122852300Y-100968144D01*
X122852300Y-100871382D01*
X122803920Y-100774620D01*
X122755539Y-100726240D01*
X122658777Y-100677859D01*
X122416872Y-100677859D01*
X122271729Y-100726240D01*
X121400872Y-101016525D02*
X121400872Y-101693859D01*
X121836300Y-101016525D02*
X121836300Y-101548716D01*
X121787920Y-101645478D01*
X121691158Y-101693859D01*
X121546015Y-101693859D01*
X121449253Y-101645478D01*
X121400872Y-101597097D01*
X120917062Y-101016525D02*
X120917062Y-102032525D01*
X120917062Y-101064906D02*
X120820300Y-101016525D01*
X120626777Y-101016525D01*
X120530015Y-101064906D01*
X120481634Y-101113287D01*
X120433253Y-101210049D01*
X120433253Y-101500335D01*
X120481634Y-101597097D01*
X120530015Y-101645478D01*
X120626777Y-101693859D01*
X120820300Y-101693859D01*
X120917062Y-101645478D01*
X119997824Y-101016525D02*
X119997824Y-102032525D01*
X119997824Y-101064906D02*
X119901062Y-101016525D01*
X119707539Y-101016525D01*
X119610777Y-101064906D01*
X119562396Y-101113287D01*
X119514015Y-101210049D01*
X119514015Y-101500335D01*
X119562396Y-101597097D01*
X119610777Y-101645478D01*
X119707539Y-101693859D01*
X119901062Y-101693859D01*
X119997824Y-101645478D01*
X118933443Y-101693859D02*
X119030205Y-101645478D01*
X119078586Y-101548716D01*
X119078586Y-100677859D01*
X118643158Y-101016525D02*
X118401253Y-101693859D01*
X118159348Y-101016525D02*
X118401253Y-101693859D01*
X118498015Y-101935763D01*
X118546396Y-101984144D01*
X118643158Y-102032525D01*
X116417634Y-101693859D02*
X116756300Y-101210049D01*
X116998205Y-101693859D02*
X116998205Y-100677859D01*
X116611158Y-100677859D01*
X116514396Y-100726240D01*
X116466015Y-100774620D01*
X116417634Y-100871382D01*
X116417634Y-101016525D01*
X116466015Y-101113287D01*
X116514396Y-101161668D01*
X116611158Y-101210049D01*
X116998205Y-101210049D01*
X115595158Y-101645478D02*
X115691920Y-101693859D01*
X115885443Y-101693859D01*
X115982205Y-101645478D01*
X116030586Y-101548716D01*
X116030586Y-101161668D01*
X115982205Y-101064906D01*
X115885443Y-101016525D01*
X115691920Y-101016525D01*
X115595158Y-101064906D01*
X115546777Y-101161668D01*
X115546777Y-101258430D01*
X116030586Y-101355192D01*
X115208110Y-101016525D02*
X114966205Y-101693859D01*
X114724300Y-101016525D01*
X113998586Y-101161668D02*
X113853443Y-101210049D01*
X113805062Y-101258430D01*
X113756681Y-101355192D01*
X113756681Y-101500335D01*
X113805062Y-101597097D01*
X113853443Y-101645478D01*
X113950205Y-101693859D01*
X114337253Y-101693859D01*
X114337253Y-100677859D01*
X113998586Y-100677859D01*
X113901824Y-100726240D01*
X113853443Y-100774620D01*
X113805062Y-100871382D01*
X113805062Y-100968144D01*
X113853443Y-101064906D01*
X113901824Y-101113287D01*
X113998586Y-101161668D01*
X114337253Y-101161668D01*
X136834396Y-102410380D02*
X136786015Y-102362000D01*
X136689253Y-102313619D01*
X136447348Y-102313619D01*
X136350586Y-102362000D01*
X136302205Y-102410380D01*
X136253824Y-102507142D01*
X136253824Y-102603904D01*
X136302205Y-102749047D01*
X136882777Y-103329619D01*
X136253824Y-103329619D01*
X135624872Y-102313619D02*
X135528110Y-102313619D01*
X135431348Y-102362000D01*
X135382967Y-102410380D01*
X135334586Y-102507142D01*
X135286205Y-102700666D01*
X135286205Y-102942571D01*
X135334586Y-103136095D01*
X135382967Y-103232857D01*
X135431348Y-103281238D01*
X135528110Y-103329619D01*
X135624872Y-103329619D01*
X135721634Y-103281238D01*
X135770015Y-103232857D01*
X135818396Y-103136095D01*
X135866777Y-102942571D01*
X135866777Y-102700666D01*
X135818396Y-102507142D01*
X135770015Y-102410380D01*
X135721634Y-102362000D01*
X135624872Y-102313619D01*
X134899158Y-102410380D02*
X134850777Y-102362000D01*
X134754015Y-102313619D01*
X134512110Y-102313619D01*
X134415348Y-102362000D01*
X134366967Y-102410380D01*
X134318586Y-102507142D01*
X134318586Y-102603904D01*
X134366967Y-102749047D01*
X134947539Y-103329619D01*
X134318586Y-103329619D01*
X133931539Y-102410380D02*
X133883158Y-102362000D01*
X133786396Y-102313619D01*
X133544491Y-102313619D01*
X133447729Y-102362000D01*
X133399348Y-102410380D01*
X133350967Y-102507142D01*
X133350967Y-102603904D01*
X133399348Y-102749047D01*
X133979920Y-103329619D01*
X133350967Y-103329619D01*
X132141443Y-103329619D02*
X132141443Y-102313619D01*
X131899539Y-102313619D01*
X131754396Y-102362000D01*
X131657634Y-102458761D01*
X131609253Y-102555523D01*
X131560872Y-102749047D01*
X131560872Y-102894190D01*
X131609253Y-103087714D01*
X131657634Y-103184476D01*
X131754396Y-103281238D01*
X131899539Y-103329619D01*
X132141443Y-103329619D01*
X130980300Y-103329619D02*
X131077062Y-103281238D01*
X131125443Y-103232857D01*
X131173824Y-103136095D01*
X131173824Y-102845809D01*
X131125443Y-102749047D01*
X131077062Y-102700666D01*
X130980300Y-102652285D01*
X130835158Y-102652285D01*
X130738396Y-102700666D01*
X130690015Y-102749047D01*
X130641634Y-102845809D01*
X130641634Y-103136095D01*
X130690015Y-103232857D01*
X130738396Y-103281238D01*
X130835158Y-103329619D01*
X130980300Y-103329619D01*
X130206205Y-103329619D02*
X130206205Y-102652285D01*
X130206205Y-102749047D02*
X130157824Y-102700666D01*
X130061062Y-102652285D01*
X129915920Y-102652285D01*
X129819158Y-102700666D01*
X129770777Y-102797428D01*
X129770777Y-103329619D01*
X129770777Y-102797428D02*
X129722396Y-102700666D01*
X129625634Y-102652285D01*
X129480491Y-102652285D01*
X129383729Y-102700666D01*
X129335348Y-102797428D01*
X129335348Y-103329619D01*
X128851539Y-103329619D02*
X128851539Y-102652285D01*
X128851539Y-102313619D02*
X128899920Y-102362000D01*
X128851539Y-102410380D01*
X128803158Y-102362000D01*
X128851539Y-102313619D01*
X128851539Y-102410380D01*
X128367729Y-102652285D02*
X128367729Y-103329619D01*
X128367729Y-102749047D02*
X128319348Y-102700666D01*
X128222586Y-102652285D01*
X128077443Y-102652285D01*
X127980681Y-102700666D01*
X127932300Y-102797428D01*
X127932300Y-103329619D01*
X127448491Y-103329619D02*
X127448491Y-102652285D01*
X127448491Y-102313619D02*
X127496872Y-102362000D01*
X127448491Y-102410380D01*
X127400110Y-102362000D01*
X127448491Y-102313619D01*
X127448491Y-102410380D01*
X126529253Y-103281238D02*
X126626015Y-103329619D01*
X126819539Y-103329619D01*
X126916300Y-103281238D01*
X126964681Y-103232857D01*
X127013062Y-103136095D01*
X127013062Y-102845809D01*
X126964681Y-102749047D01*
X126916300Y-102700666D01*
X126819539Y-102652285D01*
X126626015Y-102652285D01*
X126529253Y-102700666D01*
X125464872Y-102313619D02*
X124884300Y-102313619D01*
X125174586Y-103329619D02*
X125174586Y-102313619D01*
X124545634Y-103329619D02*
X124545634Y-102313619D01*
X124110205Y-103329619D02*
X124110205Y-102797428D01*
X124158586Y-102700666D01*
X124255348Y-102652285D01*
X124400491Y-102652285D01*
X124497253Y-102700666D01*
X124545634Y-102749047D01*
X123626396Y-103329619D02*
X123626396Y-102652285D01*
X123626396Y-102313619D02*
X123674777Y-102362000D01*
X123626396Y-102410380D01*
X123578015Y-102362000D01*
X123626396Y-102313619D01*
X123626396Y-102410380D01*
X123142586Y-103329619D02*
X123142586Y-102313619D01*
X123142586Y-102700666D02*
X123045824Y-102652285D01*
X122852300Y-102652285D01*
X122755539Y-102700666D01*
X122707158Y-102749047D01*
X122658777Y-102845809D01*
X122658777Y-103136095D01*
X122707158Y-103232857D01*
X122755539Y-103281238D01*
X122852300Y-103329619D01*
X123045824Y-103329619D01*
X123142586Y-103281238D01*
X122078205Y-103329619D02*
X122174967Y-103281238D01*
X122223348Y-103232857D01*
X122271729Y-103136095D01*
X122271729Y-102845809D01*
X122223348Y-102749047D01*
X122174967Y-102700666D01*
X122078205Y-102652285D01*
X121933062Y-102652285D01*
X121836300Y-102700666D01*
X121787920Y-102749047D01*
X121739539Y-102845809D01*
X121739539Y-103136095D01*
X121787920Y-103232857D01*
X121836300Y-103281238D01*
X121933062Y-103329619D01*
X122078205Y-103329619D01*
X120868681Y-103329619D02*
X120868681Y-102313619D01*
X120868681Y-103281238D02*
X120965443Y-103329619D01*
X121158967Y-103329619D01*
X121255729Y-103281238D01*
X121304110Y-103232857D01*
X121352491Y-103136095D01*
X121352491Y-102845809D01*
X121304110Y-102749047D01*
X121255729Y-102700666D01*
X121158967Y-102652285D01*
X120965443Y-102652285D01*
X120868681Y-102700666D01*
X119997824Y-103281238D02*
X120094586Y-103329619D01*
X120288110Y-103329619D01*
X120384872Y-103281238D01*
X120433253Y-103184476D01*
X120433253Y-102797428D01*
X120384872Y-102700666D01*
X120288110Y-102652285D01*
X120094586Y-102652285D01*
X119997824Y-102700666D01*
X119949443Y-102797428D01*
X119949443Y-102894190D01*
X120433253Y-102990952D01*
X119078586Y-103329619D02*
X119078586Y-102797428D01*
X119126967Y-102700666D01*
X119223729Y-102652285D01*
X119417253Y-102652285D01*
X119514015Y-102700666D01*
X119078586Y-103281238D02*
X119175348Y-103329619D01*
X119417253Y-103329619D01*
X119514015Y-103281238D01*
X119562396Y-103184476D01*
X119562396Y-103087714D01*
X119514015Y-102990952D01*
X119417253Y-102942571D01*
X119175348Y-102942571D01*
X119078586Y-102894190D01*
X118159348Y-102652285D02*
X118159348Y-103329619D01*
X118594777Y-102652285D02*
X118594777Y-103184476D01*
X118546396Y-103281238D01*
X118449634Y-103329619D01*
X118304491Y-103329619D01*
X118207729Y-103281238D01*
X118159348Y-103232857D01*
X116175729Y-102265238D02*
X117046586Y-103571523D01*
X114627539Y-103329619D02*
X114627539Y-102313619D01*
X114627539Y-103281238D02*
X114724300Y-103329619D01*
X114917824Y-103329619D01*
X115014586Y-103281238D01*
X115062967Y-103232857D01*
X115111348Y-103136095D01*
X115111348Y-102845809D01*
X115062967Y-102749047D01*
X115014586Y-102700666D01*
X114917824Y-102652285D01*
X114724300Y-102652285D01*
X114627539Y-102700666D01*
X113756681Y-103281238D02*
X113853443Y-103329619D01*
X114046967Y-103329619D01*
X114143729Y-103281238D01*
X114192110Y-103184476D01*
X114192110Y-102797428D01*
X114143729Y-102700666D01*
X114046967Y-102652285D01*
X113853443Y-102652285D01*
X113756681Y-102700666D01*
X113708300Y-102797428D01*
X113708300Y-102894190D01*
X114192110Y-102990952D01*
X113369634Y-102652285D02*
X113127729Y-103329619D01*
X112885824Y-102652285D01*
X111869824Y-102845809D02*
X111918205Y-102797428D01*
X112014967Y-102749047D01*
X112111729Y-102749047D01*
X112208491Y-102797428D01*
X112256872Y-102845809D01*
X112305253Y-102942571D01*
X112305253Y-103039333D01*
X112256872Y-103136095D01*
X112208491Y-103184476D01*
X112111729Y-103232857D01*
X112014967Y-103232857D01*
X111918205Y-103184476D01*
X111869824Y-103136095D01*
X111869824Y-102749047D02*
X111869824Y-103136095D01*
X111821443Y-103184476D01*
X111773062Y-103184476D01*
X111676300Y-103136095D01*
X111627920Y-103039333D01*
X111627920Y-102797428D01*
X111724681Y-102652285D01*
X111869824Y-102555523D01*
X112063348Y-102507142D01*
X112256872Y-102555523D01*
X112402015Y-102652285D01*
X112498777Y-102797428D01*
X112547158Y-102990952D01*
X112498777Y-103184476D01*
X112402015Y-103329619D01*
X112256872Y-103426380D01*
X112063348Y-103474761D01*
X111869824Y-103426380D01*
X111724681Y-103329619D01*
X111192491Y-103329619D02*
X111192491Y-102313619D01*
X110757062Y-103329619D02*
X110757062Y-102797428D01*
X110805443Y-102700666D01*
X110902205Y-102652285D01*
X111047348Y-102652285D01*
X111144110Y-102700666D01*
X111192491Y-102749047D01*
X110128110Y-103329619D02*
X110224872Y-103281238D01*
X110273253Y-103232857D01*
X110321634Y-103136095D01*
X110321634Y-102845809D01*
X110273253Y-102749047D01*
X110224872Y-102700666D01*
X110128110Y-102652285D01*
X109982967Y-102652285D01*
X109886205Y-102700666D01*
X109837824Y-102749047D01*
X109789443Y-102845809D01*
X109789443Y-103136095D01*
X109837824Y-103232857D01*
X109886205Y-103281238D01*
X109982967Y-103329619D01*
X110128110Y-103329619D01*
X109499158Y-102652285D02*
X109112110Y-102652285D01*
X109354015Y-102313619D02*
X109354015Y-103184476D01*
X109305634Y-103281238D01*
X109208872Y-103329619D01*
X109112110Y-103329619D01*
X108773443Y-103329619D02*
X108773443Y-102313619D01*
X108676681Y-102942571D02*
X108386396Y-103329619D01*
X108386396Y-102652285D02*
X108773443Y-103039333D01*
X107563920Y-103281238D02*
X107660681Y-103329619D01*
X107854205Y-103329619D01*
X107950967Y-103281238D01*
X107999348Y-103184476D01*
X107999348Y-102797428D01*
X107950967Y-102700666D01*
X107854205Y-102652285D01*
X107660681Y-102652285D01*
X107563920Y-102700666D01*
X107515539Y-102797428D01*
X107515539Y-102894190D01*
X107999348Y-102990952D01*
X107176872Y-102652285D02*
X106934967Y-103329619D01*
X106693062Y-102652285D02*
X106934967Y-103329619D01*
X107031729Y-103571523D01*
X107080110Y-103619904D01*
X107176872Y-103668285D01*
X106354396Y-103281238D02*
X106257634Y-103329619D01*
X106064110Y-103329619D01*
X105967348Y-103281238D01*
X105918967Y-103184476D01*
X105918967Y-103136095D01*
X105967348Y-103039333D01*
X106064110Y-102990952D01*
X106209253Y-102990952D01*
X106306015Y-102942571D01*
X106354396Y-102845809D01*
X106354396Y-102797428D01*
X106306015Y-102700666D01*
X106209253Y-102652285D01*
X106064110Y-102652285D01*
X105967348Y-102700666D01*
X105338396Y-103329619D02*
X105435158Y-103281238D01*
X105483539Y-103232857D01*
X105531920Y-103136095D01*
X105531920Y-102845809D01*
X105483539Y-102749047D01*
X105435158Y-102700666D01*
X105338396Y-102652285D01*
X105193253Y-102652285D01*
X105096491Y-102700666D01*
X105048110Y-102749047D01*
X104999729Y-102845809D01*
X104999729Y-103136095D01*
X105048110Y-103232857D01*
X105096491Y-103281238D01*
X105193253Y-103329619D01*
X105338396Y-103329619D01*
X104709443Y-102652285D02*
X104322396Y-102652285D01*
X104564300Y-103329619D02*
X104564300Y-102458761D01*
X104515920Y-102362000D01*
X104419158Y-102313619D01*
X104322396Y-102313619D01*
X104128872Y-102652285D02*
X103741824Y-102652285D01*
X103983729Y-102313619D02*
X103983729Y-103184476D01*
X103935348Y-103281238D01*
X103838586Y-103329619D01*
X103741824Y-103329619D01*
X103403158Y-103232857D02*
X103354777Y-103281238D01*
X103403158Y-103329619D01*
X103451539Y-103281238D01*
X103403158Y-103232857D01*
X103403158Y-103329619D01*
X102919348Y-102652285D02*
X102919348Y-103329619D01*
X102919348Y-102749047D02*
X102870967Y-102700666D01*
X102774205Y-102652285D01*
X102629062Y-102652285D01*
X102532300Y-102700666D01*
X102483920Y-102797428D01*
X102483920Y-103329619D01*
X101613062Y-103281238D02*
X101709824Y-103329619D01*
X101903348Y-103329619D01*
X102000110Y-103281238D01*
X102048491Y-103184476D01*
X102048491Y-102797428D01*
X102000110Y-102700666D01*
X101903348Y-102652285D01*
X101709824Y-102652285D01*
X101613062Y-102700666D01*
X101564681Y-102797428D01*
X101564681Y-102894190D01*
X102048491Y-102990952D01*
X101274396Y-102652285D02*
X100887348Y-102652285D01*
X101129253Y-102313619D02*
X101129253Y-103184476D01*
X101080872Y-103281238D01*
X100984110Y-103329619D01*
X100887348Y-103329619D01*
X136350586Y-104288045D02*
X136350586Y-105110521D01*
X136398967Y-105207283D01*
X136447348Y-105255664D01*
X136544110Y-105304045D01*
X136689253Y-105304045D01*
X136786015Y-105255664D01*
X136350586Y-104916998D02*
X136447348Y-104965379D01*
X136640872Y-104965379D01*
X136737634Y-104916998D01*
X136786015Y-104868617D01*
X136834396Y-104771855D01*
X136834396Y-104481569D01*
X136786015Y-104384807D01*
X136737634Y-104336426D01*
X136640872Y-104288045D01*
X136447348Y-104288045D01*
X136350586Y-104336426D01*
X135866777Y-104965379D02*
X135866777Y-104288045D01*
X135866777Y-103949379D02*
X135915158Y-103997760D01*
X135866777Y-104046140D01*
X135818396Y-103997760D01*
X135866777Y-103949379D01*
X135866777Y-104046140D01*
X135528110Y-104288045D02*
X135141062Y-104288045D01*
X135382967Y-103949379D02*
X135382967Y-104820236D01*
X135334586Y-104916998D01*
X135237824Y-104965379D01*
X135141062Y-104965379D01*
X134802396Y-104965379D02*
X134802396Y-103949379D01*
X134366967Y-104965379D02*
X134366967Y-104433188D01*
X134415348Y-104336426D01*
X134512110Y-104288045D01*
X134657253Y-104288045D01*
X134754015Y-104336426D01*
X134802396Y-104384807D01*
X133447729Y-104288045D02*
X133447729Y-104965379D01*
X133883158Y-104288045D02*
X133883158Y-104820236D01*
X133834777Y-104916998D01*
X133738015Y-104965379D01*
X133592872Y-104965379D01*
X133496110Y-104916998D01*
X133447729Y-104868617D01*
X132963920Y-104965379D02*
X132963920Y-103949379D01*
X132963920Y-104336426D02*
X132867158Y-104288045D01*
X132673634Y-104288045D01*
X132576872Y-104336426D01*
X132528491Y-104384807D01*
X132480110Y-104481569D01*
X132480110Y-104771855D01*
X132528491Y-104868617D01*
X132576872Y-104916998D01*
X132673634Y-104965379D01*
X132867158Y-104965379D01*
X132963920Y-104916998D01*
X132044681Y-104868617D02*
X131996300Y-104916998D01*
X132044681Y-104965379D01*
X132093062Y-104916998D01*
X132044681Y-104868617D01*
X132044681Y-104965379D01*
X131125443Y-104916998D02*
X131222205Y-104965379D01*
X131415729Y-104965379D01*
X131512491Y-104916998D01*
X131560872Y-104868617D01*
X131609253Y-104771855D01*
X131609253Y-104481569D01*
X131560872Y-104384807D01*
X131512491Y-104336426D01*
X131415729Y-104288045D01*
X131222205Y-104288045D01*
X131125443Y-104336426D01*
X130544872Y-104965379D02*
X130641634Y-104916998D01*
X130690015Y-104868617D01*
X130738396Y-104771855D01*
X130738396Y-104481569D01*
X130690015Y-104384807D01*
X130641634Y-104336426D01*
X130544872Y-104288045D01*
X130399729Y-104288045D01*
X130302967Y-104336426D01*
X130254586Y-104384807D01*
X130206205Y-104481569D01*
X130206205Y-104771855D01*
X130254586Y-104868617D01*
X130302967Y-104916998D01*
X130399729Y-104965379D01*
X130544872Y-104965379D01*
X129770777Y-104965379D02*
X129770777Y-104288045D01*
X129770777Y-104384807D02*
X129722396Y-104336426D01*
X129625634Y-104288045D01*
X129480491Y-104288045D01*
X129383729Y-104336426D01*
X129335348Y-104433188D01*
X129335348Y-104965379D01*
X129335348Y-104433188D02*
X129286967Y-104336426D01*
X129190205Y-104288045D01*
X129045062Y-104288045D01*
X128948300Y-104336426D01*
X128899920Y-104433188D01*
X128899920Y-104965379D01*
X127690396Y-103900998D02*
X128561253Y-105207283D01*
X127351729Y-104965379D02*
X127351729Y-103949379D01*
X126916300Y-104965379D02*
X126916300Y-104433188D01*
X126964681Y-104336426D01*
X127061443Y-104288045D01*
X127206586Y-104288045D01*
X127303348Y-104336426D01*
X127351729Y-104384807D01*
X126287348Y-104965379D02*
X126384110Y-104916998D01*
X126432491Y-104868617D01*
X126480872Y-104771855D01*
X126480872Y-104481569D01*
X126432491Y-104384807D01*
X126384110Y-104336426D01*
X126287348Y-104288045D01*
X126142205Y-104288045D01*
X126045443Y-104336426D01*
X125997062Y-104384807D01*
X125948681Y-104481569D01*
X125948681Y-104771855D01*
X125997062Y-104868617D01*
X126045443Y-104916998D01*
X126142205Y-104965379D01*
X126287348Y-104965379D01*
X125658396Y-104288045D02*
X125271348Y-104288045D01*
X125513253Y-103949379D02*
X125513253Y-104820236D01*
X125464872Y-104916998D01*
X125368110Y-104965379D01*
X125271348Y-104965379D01*
X124932681Y-104965379D02*
X124932681Y-103949379D01*
X124835920Y-104578331D02*
X124545634Y-104965379D01*
X124545634Y-104288045D02*
X124932681Y-104675093D01*
X123723158Y-104916998D02*
X123819920Y-104965379D01*
X124013443Y-104965379D01*
X124110205Y-104916998D01*
X124158586Y-104820236D01*
X124158586Y-104433188D01*
X124110205Y-104336426D01*
X124013443Y-104288045D01*
X123819920Y-104288045D01*
X123723158Y-104336426D01*
X123674777Y-104433188D01*
X123674777Y-104529950D01*
X124158586Y-104626712D01*
X123336110Y-104288045D02*
X123094205Y-104965379D01*
X122852300Y-104288045D02*
X123094205Y-104965379D01*
X123190967Y-105207283D01*
X123239348Y-105255664D01*
X123336110Y-105304045D01*
X122513634Y-104916998D02*
X122416872Y-104965379D01*
X122223348Y-104965379D01*
X122126586Y-104916998D01*
X122078205Y-104820236D01*
X122078205Y-104771855D01*
X122126586Y-104675093D01*
X122223348Y-104626712D01*
X122368491Y-104626712D01*
X122465253Y-104578331D01*
X122513634Y-104481569D01*
X122513634Y-104433188D01*
X122465253Y-104336426D01*
X122368491Y-104288045D01*
X122223348Y-104288045D01*
X122126586Y-104336426D01*
X121497634Y-104965379D02*
X121594396Y-104916998D01*
X121642777Y-104868617D01*
X121691158Y-104771855D01*
X121691158Y-104481569D01*
X121642777Y-104384807D01*
X121594396Y-104336426D01*
X121497634Y-104288045D01*
X121352491Y-104288045D01*
X121255729Y-104336426D01*
X121207348Y-104384807D01*
X121158967Y-104481569D01*
X121158967Y-104771855D01*
X121207348Y-104868617D01*
X121255729Y-104916998D01*
X121352491Y-104965379D01*
X121497634Y-104965379D01*
X120868681Y-104288045D02*
X120481634Y-104288045D01*
X120723539Y-104965379D02*
X120723539Y-104094521D01*
X120675158Y-103997760D01*
X120578396Y-103949379D01*
X120481634Y-103949379D01*
X120288110Y-104288045D02*
X119901062Y-104288045D01*
X120142967Y-103949379D02*
X120142967Y-104820236D01*
X120094586Y-104916998D01*
X119997824Y-104965379D01*
X119901062Y-104965379D01*
X118836681Y-103900998D02*
X119707539Y-105207283D01*
X118062586Y-104916998D02*
X118159348Y-104965379D01*
X118352872Y-104965379D01*
X118449634Y-104916998D01*
X118498015Y-104868617D01*
X118546396Y-104771855D01*
X118546396Y-104481569D01*
X118498015Y-104384807D01*
X118449634Y-104336426D01*
X118352872Y-104288045D01*
X118159348Y-104288045D01*
X118062586Y-104336426D01*
X117191729Y-103949379D02*
X117385253Y-103949379D01*
X117482015Y-103997760D01*
X117530396Y-104046140D01*
X117627158Y-104191283D01*
X117675539Y-104384807D01*
X117675539Y-104771855D01*
X117627158Y-104868617D01*
X117578777Y-104916998D01*
X117482015Y-104965379D01*
X117288491Y-104965379D01*
X117191729Y-104916998D01*
X117143348Y-104868617D01*
X117094967Y-104771855D01*
X117094967Y-104529950D01*
X117143348Y-104433188D01*
X117191729Y-104384807D01*
X117288491Y-104336426D01*
X117482015Y-104336426D01*
X117578777Y-104384807D01*
X117627158Y-104433188D01*
X117675539Y-104529950D01*
X116224110Y-104288045D02*
X116224110Y-104965379D01*
X116466015Y-103900998D02*
X116707920Y-104626712D01*
X116078967Y-104626712D01*
X115691920Y-104965379D02*
X115691920Y-103949379D01*
X115304872Y-103949379D01*
X115208110Y-103997760D01*
X115159729Y-104046140D01*
X115111348Y-104142902D01*
X115111348Y-104288045D01*
X115159729Y-104384807D01*
X115208110Y-104433188D01*
X115304872Y-104481569D01*
X115691920Y-104481569D01*
X114530777Y-104965379D02*
X114627539Y-104916998D01*
X114675920Y-104868617D01*
X114724300Y-104771855D01*
X114724300Y-104481569D01*
X114675920Y-104384807D01*
X114627539Y-104336426D01*
X114530777Y-104288045D01*
X114385634Y-104288045D01*
X114288872Y-104336426D01*
X114240491Y-104384807D01*
X114192110Y-104481569D01*
X114192110Y-104771855D01*
X114240491Y-104868617D01*
X114288872Y-104916998D01*
X114385634Y-104965379D01*
X114530777Y-104965379D01*
X113853443Y-104288045D02*
X113659920Y-104965379D01*
X113466396Y-104481569D01*
X113272872Y-104965379D01*
X113079348Y-104288045D01*
X112305253Y-104916998D02*
X112402015Y-104965379D01*
X112595539Y-104965379D01*
X112692300Y-104916998D01*
X112740681Y-104820236D01*
X112740681Y-104433188D01*
X112692300Y-104336426D01*
X112595539Y-104288045D01*
X112402015Y-104288045D01*
X112305253Y-104336426D01*
X112256872Y-104433188D01*
X112256872Y-104529950D01*
X112740681Y-104626712D01*
X111821443Y-104965379D02*
X111821443Y-104288045D01*
X111821443Y-104481569D02*
X111773062Y-104384807D01*
X111724681Y-104336426D01*
X111627920Y-104288045D01*
X111531158Y-104288045D01*
X111240872Y-104916998D02*
X111095729Y-104965379D01*
X110853824Y-104965379D01*
X110757062Y-104916998D01*
X110708681Y-104868617D01*
X110660300Y-104771855D01*
X110660300Y-104675093D01*
X110708681Y-104578331D01*
X110757062Y-104529950D01*
X110853824Y-104481569D01*
X111047348Y-104433188D01*
X111144110Y-104384807D01*
X111192491Y-104336426D01*
X111240872Y-104239664D01*
X111240872Y-104142902D01*
X111192491Y-104046140D01*
X111144110Y-103997760D01*
X111047348Y-103949379D01*
X110805443Y-103949379D01*
X110660300Y-103997760D01*
X109789443Y-104288045D02*
X109789443Y-104965379D01*
X110224872Y-104288045D02*
X110224872Y-104820236D01*
X110176491Y-104916998D01*
X110079729Y-104965379D01*
X109934586Y-104965379D01*
X109837824Y-104916998D01*
X109789443Y-104868617D01*
X109305634Y-104288045D02*
X109305634Y-105304045D01*
X109305634Y-104336426D02*
X109208872Y-104288045D01*
X109015348Y-104288045D01*
X108918586Y-104336426D01*
X108870205Y-104384807D01*
X108821824Y-104481569D01*
X108821824Y-104771855D01*
X108870205Y-104868617D01*
X108918586Y-104916998D01*
X109015348Y-104965379D01*
X109208872Y-104965379D01*
X109305634Y-104916998D01*
X108386396Y-104288045D02*
X108386396Y-105304045D01*
X108386396Y-104336426D02*
X108289634Y-104288045D01*
X108096110Y-104288045D01*
X107999348Y-104336426D01*
X107950967Y-104384807D01*
X107902586Y-104481569D01*
X107902586Y-104771855D01*
X107950967Y-104868617D01*
X107999348Y-104916998D01*
X108096110Y-104965379D01*
X108289634Y-104965379D01*
X108386396Y-104916998D01*
X107322015Y-104965379D02*
X107418777Y-104916998D01*
X107467158Y-104820236D01*
X107467158Y-103949379D01*
X107031729Y-104288045D02*
X106789824Y-104965379D01*
X106547920Y-104288045D02*
X106789824Y-104965379D01*
X106886586Y-105207283D01*
X106934967Y-105255664D01*
X107031729Y-105304045D01*
X106160872Y-104578331D02*
X105386777Y-104578331D01*
X104902967Y-104965379D02*
X104902967Y-103949379D01*
X104806205Y-104578331D02*
X104515920Y-104965379D01*
X104515920Y-104288045D02*
X104902967Y-104675093D01*
X104080491Y-104965379D02*
X104080491Y-104288045D01*
X104080491Y-103949379D02*
X104128872Y-103997760D01*
X104080491Y-104046140D01*
X104032110Y-103997760D01*
X104080491Y-103949379D01*
X104080491Y-104046140D01*
X103161253Y-104916998D02*
X103258015Y-104965379D01*
X103451539Y-104965379D01*
X103548300Y-104916998D01*
X103596681Y-104868617D01*
X103645062Y-104771855D01*
X103645062Y-104481569D01*
X103596681Y-104384807D01*
X103548300Y-104336426D01*
X103451539Y-104288045D01*
X103258015Y-104288045D01*
X103161253Y-104336426D01*
X102290396Y-104965379D02*
X102290396Y-104433188D01*
X102338777Y-104336426D01*
X102435539Y-104288045D01*
X102629062Y-104288045D01*
X102725824Y-104336426D01*
X102290396Y-104916998D02*
X102387158Y-104965379D01*
X102629062Y-104965379D01*
X102725824Y-104916998D01*
X102774205Y-104820236D01*
X102774205Y-104723474D01*
X102725824Y-104626712D01*
X102629062Y-104578331D01*
X102387158Y-104578331D01*
X102290396Y-104529950D01*
X101371158Y-104965379D02*
X101371158Y-103949379D01*
X101371158Y-104916998D02*
X101467920Y-104965379D01*
X101661443Y-104965379D01*
X101758205Y-104916998D01*
X101806586Y-104868617D01*
X101854967Y-104771855D01*
X101854967Y-104481569D01*
X101806586Y-104384807D01*
X101758205Y-104336426D01*
X101661443Y-104288045D01*
X101467920Y-104288045D01*
X101371158Y-104336426D01*
G36*
X146108509Y-102737513D02*
G01*
X146161346Y-103046909D01*
X146197415Y-103366029D01*
X146217867Y-103698431D01*
X146219036Y-103734234D01*
X146220612Y-103868214D01*
X146218724Y-104014776D01*
X146213729Y-104166618D01*
X146205985Y-104316436D01*
X146195848Y-104456928D01*
X146183676Y-104580793D01*
X146169826Y-104680726D01*
X146139634Y-104821976D01*
X146082537Y-105006450D01*
X146008145Y-105185211D01*
X145919219Y-105353190D01*
X145818514Y-105505316D01*
X145708789Y-105636517D01*
X145592800Y-105741725D01*
X145537305Y-105782050D01*
X145409500Y-105860205D01*
X145282127Y-105919201D01*
X145162954Y-105955181D01*
X145143837Y-105957269D01*
X145092478Y-105959896D01*
X145013200Y-105962364D01*
X144907907Y-105964671D01*
X144778502Y-105966816D01*
X144626892Y-105968800D01*
X144454979Y-105970620D01*
X144264668Y-105972277D01*
X144057863Y-105973769D01*
X143836470Y-105975095D01*
X143602391Y-105976255D01*
X143357532Y-105977247D01*
X143103796Y-105978071D01*
X142843089Y-105978726D01*
X142577314Y-105979211D01*
X142308376Y-105979526D01*
X142038178Y-105979668D01*
X141768626Y-105979639D01*
X141501624Y-105979436D01*
X141239076Y-105979058D01*
X140982886Y-105978506D01*
X140734959Y-105977778D01*
X140497199Y-105976873D01*
X140271510Y-105975790D01*
X140059796Y-105974529D01*
X139863963Y-105973088D01*
X139685914Y-105971467D01*
X139527553Y-105969666D01*
X139390786Y-105967682D01*
X139277515Y-105965515D01*
X139189646Y-105963165D01*
X139129083Y-105960631D01*
X139097731Y-105957911D01*
X139087353Y-105956043D01*
X138914274Y-105908417D01*
X138744869Y-105830958D01*
X138581575Y-105724997D01*
X138426831Y-105591862D01*
X138383571Y-105548053D01*
X138303895Y-105456586D01*
X138235551Y-105360225D01*
X138177039Y-105255205D01*
X138126861Y-105137760D01*
X138083516Y-105004126D01*
X138045507Y-104850537D01*
X138011333Y-104673228D01*
X137979495Y-104468434D01*
X137972471Y-104408527D01*
X137964495Y-104304538D01*
X137959060Y-104186147D01*
X137956232Y-104060941D01*
X137956078Y-103936508D01*
X137958663Y-103820436D01*
X137964053Y-103720312D01*
X137972315Y-103643724D01*
X137998795Y-103511317D01*
X138054592Y-103319338D01*
X138129650Y-103123021D01*
X138220436Y-102930426D01*
X138323413Y-102749615D01*
X138435047Y-102588647D01*
X138435156Y-102588506D01*
X138525451Y-102482811D01*
X138636655Y-102370037D01*
X138762243Y-102255595D01*
X138895693Y-102144898D01*
X139030480Y-102043358D01*
X139160080Y-101956386D01*
X139277970Y-101889395D01*
X139359607Y-101850154D01*
X139443539Y-101814226D01*
X139529386Y-101782784D01*
X139620080Y-101755330D01*
X139718558Y-101731369D01*
X139827753Y-101710405D01*
X139950599Y-101691940D01*
X140090031Y-101675479D01*
X140248984Y-101660525D01*
X140430391Y-101646583D01*
X140637188Y-101633155D01*
X140872308Y-101619746D01*
X141076606Y-101608096D01*
X141302024Y-101593476D01*
X141502701Y-101578131D01*
X141682232Y-101561655D01*
X141844211Y-101543640D01*
X141992232Y-101523679D01*
X142129890Y-101501365D01*
X142260779Y-101476291D01*
X142388493Y-101448050D01*
X142440161Y-101435441D01*
X142515861Y-101415835D01*
X142594336Y-101394512D01*
X142668973Y-101373358D01*
X142733156Y-101354257D01*
X142780272Y-101339094D01*
X142803705Y-101329753D01*
X142805441Y-101331471D01*
X142799927Y-101353490D01*
X142784642Y-101395173D01*
X142761594Y-101450752D01*
X142749364Y-101479360D01*
X142721472Y-101545877D01*
X142685843Y-101631879D01*
X142644910Y-101731465D01*
X142601103Y-101838734D01*
X142556852Y-101947785D01*
X142528514Y-102017461D01*
X142484753Y-102123601D01*
X142443123Y-102222937D01*
X142405985Y-102309909D01*
X142375695Y-102378958D01*
X142354613Y-102424524D01*
X142351499Y-102430903D01*
X142330269Y-102477859D01*
X142324150Y-102499315D01*
X142332061Y-102496335D01*
X142352920Y-102469979D01*
X142385643Y-102421310D01*
X142429148Y-102351390D01*
X142450054Y-102313989D01*
X142463512Y-102287903D01*
X143632426Y-102287903D01*
X143654907Y-102305098D01*
X143681552Y-102319905D01*
X143735685Y-102342519D01*
X143794960Y-102361265D01*
X143857904Y-102374209D01*
X143924464Y-102382356D01*
X143985951Y-102385257D01*
X144033859Y-102382513D01*
X144059683Y-102373724D01*
X144072206Y-102370603D01*
X144111912Y-102366993D01*
X144173302Y-102363989D01*
X144251026Y-102361838D01*
X144339734Y-102360788D01*
X144346888Y-102360750D01*
X144462415Y-102358572D01*
X144567254Y-102353759D01*
X144654557Y-102346725D01*
X144717477Y-102337886D01*
X144826893Y-102316196D01*
X144656110Y-102304261D01*
X144584454Y-102297766D01*
X144479712Y-102279355D01*
X144400056Y-102249427D01*
X144341992Y-102204859D01*
X144302032Y-102142525D01*
X144276681Y-102059303D01*
X144262451Y-101952070D01*
X144251938Y-101823493D01*
X144314838Y-101760593D01*
X144342853Y-101733659D01*
X144375913Y-101709809D01*
X144411230Y-101699755D01*
X144462420Y-101697693D01*
X144509877Y-101695555D01*
X144554766Y-101683554D01*
X144577995Y-101657965D01*
X144584616Y-101615385D01*
X144584484Y-101606427D01*
X144574323Y-101550393D01*
X144548266Y-101520701D01*
X144506736Y-101517879D01*
X144491237Y-101521108D01*
X144471654Y-101520785D01*
X144466505Y-101504443D01*
X144470745Y-101464611D01*
X144472413Y-101450883D01*
X144472083Y-101413889D01*
X144458135Y-101383997D01*
X144425324Y-101347705D01*
X144371448Y-101293830D01*
X144199008Y-101296528D01*
X144141824Y-101297804D01*
X144074061Y-101301947D01*
X144027817Y-101310663D01*
X143997151Y-101326178D01*
X143976124Y-101350715D01*
X143958796Y-101386500D01*
X143948505Y-101417857D01*
X143951949Y-101445956D01*
X143974121Y-101480995D01*
X143994057Y-101512189D01*
X143999049Y-101534774D01*
X143982217Y-101535858D01*
X143945162Y-101513636D01*
X143900062Y-101480292D01*
X143883879Y-101522562D01*
X143861635Y-101590454D01*
X143854339Y-101647101D01*
X143866213Y-101686745D01*
X143897564Y-101713699D01*
X143932662Y-101720862D01*
X143980800Y-101707364D01*
X144016685Y-101694764D01*
X144046237Y-101695870D01*
X144081908Y-101714074D01*
X144110048Y-101732771D01*
X144146647Y-101768082D01*
X144167812Y-101811892D01*
X144176390Y-101871533D01*
X144175229Y-101954336D01*
X144174478Y-101967201D01*
X144159706Y-102077755D01*
X144130329Y-102163407D01*
X144084778Y-102227410D01*
X144021485Y-102273016D01*
X144008189Y-102279688D01*
X143971265Y-102294759D01*
X143932607Y-102302763D01*
X143882416Y-102305105D01*
X143810893Y-102303188D01*
X143783741Y-102301857D01*
X143719551Y-102297161D01*
X143668223Y-102291290D01*
X143638954Y-102285206D01*
X143632802Y-102283234D01*
X143632426Y-102287903D01*
X142463512Y-102287903D01*
X142483946Y-102248293D01*
X142526411Y-102162552D01*
X142575302Y-102061337D01*
X142628469Y-101949218D01*
X142683766Y-101830768D01*
X142739043Y-101710557D01*
X142792152Y-101593158D01*
X142840945Y-101483141D01*
X142883274Y-101385077D01*
X142891472Y-101365889D01*
X142937519Y-101262322D01*
X142990872Y-101147897D01*
X143048686Y-101028252D01*
X143081247Y-100962932D01*
X143351017Y-100962932D01*
X143359538Y-101013861D01*
X143390970Y-101055697D01*
X143391006Y-101055725D01*
X143440722Y-101083478D01*
X143485337Y-101081556D01*
X143530249Y-101049726D01*
X143544670Y-101032546D01*
X143563661Y-100987671D01*
X144843543Y-100987671D01*
X144856587Y-101047675D01*
X144858240Y-101051604D01*
X144876704Y-101086173D01*
X144900471Y-101100739D01*
X144942440Y-101103724D01*
X144957471Y-101103373D01*
X145001027Y-101094137D01*
X145029206Y-101068984D01*
X145049145Y-101022312D01*
X145049180Y-100969655D01*
X145030948Y-100921165D01*
X144998544Y-100883602D01*
X144956063Y-100863723D01*
X144907602Y-100868290D01*
X144878770Y-100887012D01*
X144852881Y-100929336D01*
X144851790Y-100931120D01*
X144843543Y-100987671D01*
X143563661Y-100987671D01*
X143565951Y-100982259D01*
X143566490Y-100929336D01*
X143548616Y-100881712D01*
X143514658Y-100847320D01*
X143466945Y-100834093D01*
X143434118Y-100839570D01*
X143391186Y-100867388D01*
X143362526Y-100911308D01*
X143351017Y-100962932D01*
X143081247Y-100962932D01*
X143108118Y-100909026D01*
X143166321Y-100795856D01*
X143220452Y-100694380D01*
X143267666Y-100610235D01*
X143305118Y-100549060D01*
X143307690Y-100545186D01*
X143380218Y-100446086D01*
X143460623Y-100352699D01*
X143543361Y-100270547D01*
X143622888Y-100205153D01*
X143693662Y-100162037D01*
X143712005Y-100153745D01*
X143772661Y-100130640D01*
X143838036Y-100113314D01*
X143913423Y-100101063D01*
X144004115Y-100093183D01*
X144115402Y-100088971D01*
X144252577Y-100087724D01*
X144330070Y-100087863D01*
X144415518Y-100088816D01*
X144480345Y-100091200D01*
X144530742Y-100095617D01*
X144572905Y-100102669D01*
X144613024Y-100112959D01*
X144657294Y-100127089D01*
X144753380Y-100162532D01*
X144846627Y-100206666D01*
X144927937Y-100259080D01*
X145001982Y-100323937D01*
X145073437Y-100405401D01*
X145146976Y-100507634D01*
X145227273Y-100634800D01*
X145374929Y-100885990D01*
X145420538Y-100969655D01*
X145552538Y-101211796D01*
X145706474Y-101525968D01*
X145837888Y-101832067D01*
X145947931Y-102133651D01*
X146002473Y-102316196D01*
X146037755Y-102434280D01*
X146108509Y-102737513D01*
G37*
G36*
X145187890Y-99736321D02*
G01*
X145267037Y-99743507D01*
X145325184Y-99765261D01*
X145369925Y-99805892D01*
X145408853Y-99869705D01*
X145426586Y-99908798D01*
X145441737Y-99952912D01*
X145453847Y-100004197D01*
X145463400Y-100066668D01*
X145470878Y-100144340D01*
X145476765Y-100241228D01*
X145481543Y-100361347D01*
X145485696Y-100508713D01*
X145487822Y-100604804D01*
X145489426Y-100702271D01*
X145490180Y-100784606D01*
X145490069Y-100847778D01*
X145489078Y-100887761D01*
X145487190Y-100900524D01*
X145482079Y-100892989D01*
X145464484Y-100862313D01*
X145438316Y-100814237D01*
X145407085Y-100755135D01*
X145360383Y-100667352D01*
X145274839Y-100517648D01*
X145194448Y-100393870D01*
X145116771Y-100293336D01*
X145039371Y-100213364D01*
X144959811Y-100151273D01*
X144875653Y-100104379D01*
X144784460Y-100070001D01*
X144734134Y-100053656D01*
X144702448Y-100037773D01*
X144692713Y-100018839D01*
X144705306Y-99992448D01*
X144740600Y-99954197D01*
X144798972Y-99899680D01*
X144876258Y-99835699D01*
X144971144Y-99778701D01*
X145068088Y-99746483D01*
X145173531Y-99736234D01*
X145187890Y-99736321D01*
G37*
G36*
X143156628Y-99736850D02*
G01*
X143165491Y-99736918D01*
X143271973Y-99742644D01*
X143357553Y-99759965D01*
X143431040Y-99792716D01*
X143501240Y-99844729D01*
X143576960Y-99919840D01*
X143602319Y-99947626D01*
X143641246Y-99992110D01*
X143668051Y-100025232D01*
X143678031Y-100041340D01*
X143673734Y-100047676D01*
X143648589Y-100065651D01*
X143608434Y-100087365D01*
X143514260Y-100143425D01*
X143402767Y-100237601D01*
X143297977Y-100357384D01*
X143265672Y-100402141D01*
X143208345Y-100489404D01*
X143146140Y-100591534D01*
X143083888Y-100700262D01*
X143026416Y-100807318D01*
X142978555Y-100904431D01*
X142958088Y-100947480D01*
X142940906Y-100981337D01*
X142932772Y-100994308D01*
X142928188Y-100985719D01*
X142916563Y-100952793D01*
X142900275Y-100901329D01*
X142881247Y-100837892D01*
X142861398Y-100769048D01*
X142842651Y-100701362D01*
X142826925Y-100641398D01*
X142816142Y-100595724D01*
X142809056Y-100549535D01*
X142802288Y-100476809D01*
X142797564Y-100392358D01*
X142795620Y-100306554D01*
X142799309Y-100175911D01*
X142813483Y-100060502D01*
X142839660Y-99964840D01*
X142879303Y-99883686D01*
X142933876Y-99811805D01*
X143002549Y-99736031D01*
X143156628Y-99736850D01*
G37*
G36*
X144994714Y-113777448D02*
G01*
X144999531Y-113786137D01*
X145024897Y-113841071D01*
X145044530Y-113901892D01*
X145054282Y-113959967D01*
X145054279Y-114014663D01*
X145044650Y-114065348D01*
X145025525Y-114111391D01*
X144997030Y-114152158D01*
X144959295Y-114187018D01*
X144912447Y-114215338D01*
X144909503Y-114216753D01*
X144874565Y-114231926D01*
X144841520Y-114242496D01*
X144805925Y-114249632D01*
X144763331Y-114254500D01*
X144762225Y-114254568D01*
X144750552Y-114254850D01*
X144727850Y-114255124D01*
X144694498Y-114255388D01*
X144650872Y-114255643D01*
X144597350Y-114255887D01*
X144534310Y-114256121D01*
X144462130Y-114256344D01*
X144381188Y-114256555D01*
X144291861Y-114256754D01*
X144194527Y-114256940D01*
X144089563Y-114257113D01*
X143977348Y-114257272D01*
X143858260Y-114257417D01*
X143732675Y-114257547D01*
X143600971Y-114257662D01*
X143463527Y-114257761D01*
X143320721Y-114257844D01*
X143172928Y-114257910D01*
X143020529Y-114257959D01*
X142863899Y-114257990D01*
X142703418Y-114258003D01*
X142539462Y-114257997D01*
X142372410Y-114257972D01*
X142202639Y-114257927D01*
X142066725Y-114257882D01*
X141871490Y-114257816D01*
X141687215Y-114257749D01*
X141513578Y-114257680D01*
X141350256Y-114257607D01*
X141196929Y-114257529D01*
X141053274Y-114257444D01*
X140918969Y-114257351D01*
X140793692Y-114257250D01*
X140677121Y-114257137D01*
X140568934Y-114257012D01*
X140468810Y-114256874D01*
X140376425Y-114256720D01*
X140291459Y-114256550D01*
X140213589Y-114256363D01*
X140142494Y-114256156D01*
X140077851Y-114255928D01*
X140019338Y-114255678D01*
X139966633Y-114255405D01*
X139919415Y-114255106D01*
X139877361Y-114254782D01*
X139840150Y-114254429D01*
X139807459Y-114254047D01*
X139778967Y-114253635D01*
X139754351Y-114253190D01*
X139733290Y-114252712D01*
X139715461Y-114252200D01*
X139700543Y-114251650D01*
X139688214Y-114251063D01*
X139678151Y-114250437D01*
X139670033Y-114249771D01*
X139663538Y-114249062D01*
X139658343Y-114248310D01*
X139654127Y-114247513D01*
X139650568Y-114246670D01*
X139633460Y-114241894D01*
X139576805Y-114220547D01*
X139528481Y-114193069D01*
X139489205Y-114159929D01*
X139459694Y-114121597D01*
X139453219Y-114110028D01*
X139434392Y-114061911D01*
X139425450Y-114009224D01*
X139426399Y-113953012D01*
X139437246Y-113894318D01*
X139457995Y-113834184D01*
X139460345Y-113829640D01*
X139468333Y-113815149D01*
X139481663Y-113791382D01*
X139500110Y-113758729D01*
X139502016Y-113755368D01*
X139969969Y-113755368D01*
X139975897Y-113788949D01*
X139988349Y-113816749D01*
X139994580Y-113825084D01*
X140020245Y-113847418D01*
X140054755Y-113864272D01*
X140096825Y-113874957D01*
X140100395Y-113875218D01*
X140115332Y-113875650D01*
X140140983Y-113876063D01*
X140176856Y-113876456D01*
X140222455Y-113876831D01*
X140277289Y-113877187D01*
X140340863Y-113877523D01*
X140412685Y-113877841D01*
X140492260Y-113878139D01*
X140579096Y-113878419D01*
X140672699Y-113878679D01*
X140772576Y-113878920D01*
X140878233Y-113879142D01*
X140989176Y-113879344D01*
X141104913Y-113879528D01*
X141224950Y-113879692D01*
X141348794Y-113879837D01*
X141475951Y-113879962D01*
X141605927Y-113880069D01*
X141738230Y-113880156D01*
X141872366Y-113880223D01*
X142007841Y-113880271D01*
X142144162Y-113880300D01*
X142280837Y-113880310D01*
X142417370Y-113880300D01*
X142553269Y-113880271D01*
X142688041Y-113880222D01*
X142821192Y-113880153D01*
X142952228Y-113880066D01*
X143080657Y-113879958D01*
X143205984Y-113879831D01*
X143327717Y-113879685D01*
X143445362Y-113879519D01*
X143558426Y-113879333D01*
X143666415Y-113879128D01*
X143768835Y-113878903D01*
X143865194Y-113878659D01*
X143954998Y-113878394D01*
X144037753Y-113878111D01*
X144112967Y-113877807D01*
X144180145Y-113877484D01*
X144238795Y-113877141D01*
X144288422Y-113876778D01*
X144328534Y-113876395D01*
X144358638Y-113875992D01*
X144378238Y-113875570D01*
X144386843Y-113875128D01*
X144412480Y-113869861D01*
X144450038Y-113855322D01*
X144479076Y-113833651D01*
X144500178Y-113804485D01*
X144507396Y-113785451D01*
X144512142Y-113753664D01*
X144510673Y-113719554D01*
X144502889Y-113687455D01*
X144500746Y-113683313D01*
X144493067Y-113669451D01*
X144480078Y-113646383D01*
X144462024Y-113614535D01*
X144439150Y-113574331D01*
X144411698Y-113526196D01*
X144379914Y-113470554D01*
X144344042Y-113407829D01*
X144304326Y-113338447D01*
X144261010Y-113262831D01*
X144214338Y-113181406D01*
X144164556Y-113094598D01*
X144111906Y-113002829D01*
X144056634Y-112906526D01*
X143998983Y-112806112D01*
X143939198Y-112702012D01*
X143877523Y-112594650D01*
X143814202Y-112484451D01*
X143749480Y-112371840D01*
X143683601Y-112257241D01*
X143616808Y-112141078D01*
X143549347Y-112023776D01*
X143481462Y-111905761D01*
X143413396Y-111787455D01*
X143345395Y-111669284D01*
X143277702Y-111551672D01*
X143210561Y-111435044D01*
X143144218Y-111319824D01*
X143078915Y-111206438D01*
X143014898Y-111095308D01*
X142952410Y-110986860D01*
X142891696Y-110881519D01*
X142833001Y-110779709D01*
X142776567Y-110681854D01*
X142722641Y-110588380D01*
X142671465Y-110499710D01*
X142623284Y-110416269D01*
X142578343Y-110338481D01*
X142536886Y-110266772D01*
X142499156Y-110201566D01*
X142465398Y-110143287D01*
X142435857Y-110092359D01*
X142410777Y-110049208D01*
X142390401Y-110014257D01*
X142374975Y-109987932D01*
X142364742Y-109970657D01*
X142359946Y-109962857D01*
X142352500Y-109952567D01*
X142322772Y-109921328D01*
X142290108Y-109900244D01*
X142255748Y-109889387D01*
X142220932Y-109888825D01*
X142186899Y-109898630D01*
X142154891Y-109918872D01*
X142126145Y-109949620D01*
X142123271Y-109954120D01*
X142114616Y-109968531D01*
X142100684Y-109992151D01*
X142081719Y-110024555D01*
X142057965Y-110065316D01*
X142029668Y-110114009D01*
X141997073Y-110170207D01*
X141960425Y-110233485D01*
X141919968Y-110303417D01*
X141875948Y-110379577D01*
X141828609Y-110461538D01*
X141778195Y-110548875D01*
X141724953Y-110641162D01*
X141669127Y-110737973D01*
X141610962Y-110838882D01*
X141550703Y-110943463D01*
X141488594Y-111051289D01*
X141424880Y-111161936D01*
X141359807Y-111274977D01*
X141293619Y-111389986D01*
X141226562Y-111506536D01*
X141158879Y-111624204D01*
X141090816Y-111742561D01*
X141022619Y-111861182D01*
X140954530Y-111979642D01*
X140886797Y-112097514D01*
X140819663Y-112214372D01*
X140753373Y-112329791D01*
X140688173Y-112443344D01*
X140624307Y-112554605D01*
X140562019Y-112663149D01*
X140501556Y-112768549D01*
X140443162Y-112870380D01*
X140387081Y-112968216D01*
X140333559Y-113061630D01*
X140282840Y-113150196D01*
X140235170Y-113233489D01*
X140190793Y-113311083D01*
X140149954Y-113382552D01*
X140112899Y-113447469D01*
X140079871Y-113505410D01*
X140051116Y-113555946D01*
X140026878Y-113598654D01*
X140007404Y-113633107D01*
X139992937Y-113658879D01*
X139983722Y-113675543D01*
X139980004Y-113682675D01*
X139978649Y-113686228D01*
X139970807Y-113719847D01*
X139969969Y-113755368D01*
X139502016Y-113755368D01*
X139523450Y-113717582D01*
X139551458Y-113668334D01*
X139583908Y-113611375D01*
X139620576Y-113547098D01*
X139661236Y-113475894D01*
X139705664Y-113398154D01*
X139753635Y-113314271D01*
X139804923Y-113224637D01*
X139859304Y-113129642D01*
X139916553Y-113029678D01*
X139976445Y-112925138D01*
X140038754Y-112816412D01*
X140103256Y-112703893D01*
X140169726Y-112587973D01*
X140237939Y-112469042D01*
X140307670Y-112347493D01*
X140378694Y-112223717D01*
X140450785Y-112098106D01*
X140523720Y-111971051D01*
X140597273Y-111842945D01*
X140671218Y-111714179D01*
X140745332Y-111585144D01*
X140819389Y-111456233D01*
X140893164Y-111327837D01*
X140966432Y-111200347D01*
X141038968Y-111074156D01*
X141110547Y-110949655D01*
X141180945Y-110827235D01*
X141249935Y-110707289D01*
X141317294Y-110590209D01*
X141382796Y-110476384D01*
X141446217Y-110366209D01*
X141507331Y-110260073D01*
X141565913Y-110158369D01*
X141621739Y-110061489D01*
X141674583Y-109969824D01*
X141724220Y-109883765D01*
X141770426Y-109803706D01*
X141812975Y-109730036D01*
X141851643Y-109663148D01*
X141886205Y-109603434D01*
X141916435Y-109551285D01*
X141942108Y-109507093D01*
X141963000Y-109471250D01*
X141978886Y-109444147D01*
X141989540Y-109426175D01*
X141994738Y-109417728D01*
X141995685Y-109416336D01*
X142012158Y-109394406D01*
X142032605Y-109370099D01*
X142052826Y-109348425D01*
X142091483Y-109314754D01*
X142137991Y-109286142D01*
X142185723Y-109268803D01*
X142234149Y-109262735D01*
X142282739Y-109267934D01*
X142330964Y-109284395D01*
X142378292Y-109312116D01*
X142424195Y-109351091D01*
X142435836Y-109362984D01*
X142456881Y-109386068D01*
X142475524Y-109408360D01*
X142488751Y-109426350D01*
X142489643Y-109427787D01*
X142496044Y-109438581D01*
X142507872Y-109458813D01*
X142524900Y-109488087D01*
X142546901Y-109526008D01*
X142573647Y-109572183D01*
X142604911Y-109626215D01*
X142640465Y-109687709D01*
X142680081Y-109756272D01*
X142723532Y-109831506D01*
X142770591Y-109913019D01*
X142821030Y-110000413D01*
X142874622Y-110093295D01*
X142931138Y-110191270D01*
X142990353Y-110293942D01*
X143052037Y-110400916D01*
X143115964Y-110511798D01*
X143181906Y-110626192D01*
X143249636Y-110743703D01*
X143318926Y-110863936D01*
X143389549Y-110986497D01*
X143461276Y-111110990D01*
X143533882Y-111237020D01*
X143607137Y-111364192D01*
X143680816Y-111492111D01*
X143754689Y-111620383D01*
X143828530Y-111748611D01*
X143902111Y-111876402D01*
X143975205Y-112003359D01*
X144047584Y-112129088D01*
X144119021Y-112253195D01*
X144189288Y-112375283D01*
X144258158Y-112494958D01*
X144325403Y-112611825D01*
X144390795Y-112725489D01*
X144454108Y-112835555D01*
X144515114Y-112941627D01*
X144573585Y-113043311D01*
X144629293Y-113140212D01*
X144682012Y-113231935D01*
X144731513Y-113318084D01*
X144777570Y-113398265D01*
X144819955Y-113472082D01*
X144858440Y-113539142D01*
X144892797Y-113599047D01*
X144922800Y-113651404D01*
X144948221Y-113695818D01*
X144968832Y-113731893D01*
X144981232Y-113753664D01*
X144984405Y-113759235D01*
X144994714Y-113777448D01*
G37*
G36*
X142435442Y-110629161D02*
G01*
X142437260Y-110630084D01*
X142439296Y-110632218D01*
X142441689Y-110636032D01*
X142444582Y-110641995D01*
X142448117Y-110650574D01*
X142452434Y-110662238D01*
X142457676Y-110677454D01*
X142463984Y-110696692D01*
X142471499Y-110720419D01*
X142480364Y-110749104D01*
X142490719Y-110783215D01*
X142502706Y-110823219D01*
X142516467Y-110869586D01*
X142532144Y-110922783D01*
X142549877Y-110983279D01*
X142569809Y-111051543D01*
X142592081Y-111128041D01*
X142616834Y-111213242D01*
X142644211Y-111307616D01*
X142674353Y-111411629D01*
X142707400Y-111525750D01*
X142743496Y-111650447D01*
X142767648Y-111733915D01*
X142797421Y-111836855D01*
X142826189Y-111936376D01*
X142853794Y-112031933D01*
X142880082Y-112122982D01*
X142904893Y-112208978D01*
X142928073Y-112289377D01*
X142949464Y-112363635D01*
X142968910Y-112431206D01*
X142986253Y-112491547D01*
X143001337Y-112544113D01*
X143014005Y-112588360D01*
X143024101Y-112623742D01*
X143031468Y-112649717D01*
X143035948Y-112665739D01*
X143037386Y-112671263D01*
X143037053Y-112671150D01*
X143029585Y-112667499D01*
X143012890Y-112659018D01*
X142987747Y-112646111D01*
X142954932Y-112629179D01*
X142915222Y-112608626D01*
X142869394Y-112584853D01*
X142818226Y-112558265D01*
X142762495Y-112529262D01*
X142702977Y-112498249D01*
X142640450Y-112465626D01*
X142625533Y-112457842D01*
X142563600Y-112425598D01*
X142504815Y-112395112D01*
X142449960Y-112366780D01*
X142399816Y-112341003D01*
X142355165Y-112318177D01*
X142316787Y-112298701D01*
X142285463Y-112282974D01*
X142261976Y-112271394D01*
X142247105Y-112264359D01*
X142241632Y-112262268D01*
X142241588Y-112263467D01*
X142242683Y-112273899D01*
X142245325Y-112294109D01*
X142249345Y-112322990D01*
X142254573Y-112359432D01*
X142260841Y-112402327D01*
X142267979Y-112450565D01*
X142275818Y-112503039D01*
X142284188Y-112558640D01*
X142292920Y-112616258D01*
X142301844Y-112674786D01*
X142310792Y-112733113D01*
X142319593Y-112790133D01*
X142328079Y-112844735D01*
X142336080Y-112895811D01*
X142343427Y-112942253D01*
X142349951Y-112982951D01*
X142355481Y-113016797D01*
X142359849Y-113042683D01*
X142362886Y-113059498D01*
X142364421Y-113066136D01*
X142365888Y-113066715D01*
X142376728Y-113067934D01*
X142396632Y-113068981D01*
X142423913Y-113069799D01*
X142456885Y-113070332D01*
X142493862Y-113070523D01*
X142500110Y-113070525D01*
X142541597Y-113070698D01*
X142572850Y-113071195D01*
X142594981Y-113072080D01*
X142609103Y-113073418D01*
X142616328Y-113075272D01*
X142617770Y-113077708D01*
X142617616Y-113078080D01*
X142614103Y-113086180D01*
X142606419Y-113103725D01*
X142594968Y-113129798D01*
X142580153Y-113163485D01*
X142562377Y-113203868D01*
X142542042Y-113250033D01*
X142519553Y-113301064D01*
X142495312Y-113356044D01*
X142469722Y-113414057D01*
X142464660Y-113425528D01*
X142439401Y-113482687D01*
X142415607Y-113536404D01*
X142393672Y-113585793D01*
X142373994Y-113629969D01*
X142356966Y-113668048D01*
X142342985Y-113699144D01*
X142332447Y-113722373D01*
X142325746Y-113736849D01*
X142323279Y-113741688D01*
X142322285Y-113740372D01*
X142315300Y-113730686D01*
X142302743Y-113713019D01*
X142285254Y-113688288D01*
X142263475Y-113657407D01*
X142238047Y-113621290D01*
X142209612Y-113580852D01*
X142178811Y-113537010D01*
X142146286Y-113490677D01*
X142112676Y-113442768D01*
X142078625Y-113394199D01*
X142044774Y-113345884D01*
X142011762Y-113298739D01*
X141980233Y-113253677D01*
X141950827Y-113211615D01*
X141924185Y-113173467D01*
X141900949Y-113140148D01*
X141881760Y-113112573D01*
X141867260Y-113091656D01*
X141858090Y-113078314D01*
X141854890Y-113073460D01*
X141854898Y-113073430D01*
X141860801Y-113072659D01*
X141876663Y-113071964D01*
X141901003Y-113071376D01*
X141932340Y-113070921D01*
X141969194Y-113070627D01*
X142010084Y-113070523D01*
X142011552Y-113070522D01*
X142052367Y-113070331D01*
X142089074Y-113069815D01*
X142120197Y-113069023D01*
X142144257Y-113068003D01*
X142159776Y-113066802D01*
X142165277Y-113065469D01*
X142164148Y-113061206D01*
X142159896Y-113046551D01*
X142152677Y-113022127D01*
X142142693Y-112988607D01*
X142130145Y-112946663D01*
X142115237Y-112896970D01*
X142098171Y-112840200D01*
X142079149Y-112777026D01*
X142058373Y-112708121D01*
X142036046Y-112634158D01*
X142012371Y-112555811D01*
X141987549Y-112473751D01*
X141961782Y-112388653D01*
X141940181Y-112317298D01*
X141915243Y-112234806D01*
X141891444Y-112155956D01*
X141868985Y-112081419D01*
X141848065Y-112011862D01*
X141828885Y-111947953D01*
X141811645Y-111890363D01*
X141796545Y-111839760D01*
X141783784Y-111796812D01*
X141773565Y-111762189D01*
X141766085Y-111736558D01*
X141761546Y-111720590D01*
X141760149Y-111714953D01*
X141760756Y-111715160D01*
X141768884Y-111719561D01*
X141785875Y-111729300D01*
X141810984Y-111743936D01*
X141843463Y-111763027D01*
X141882567Y-111786132D01*
X141927548Y-111812808D01*
X141977661Y-111842615D01*
X142032158Y-111875109D01*
X142090292Y-111909850D01*
X142151318Y-111946396D01*
X142171334Y-111958392D01*
X142231504Y-111994406D01*
X142288539Y-112028476D01*
X142341693Y-112060161D01*
X142390218Y-112089018D01*
X142433369Y-112114605D01*
X142470399Y-112136481D01*
X142500562Y-112154202D01*
X142523111Y-112167327D01*
X142537301Y-112175414D01*
X142542383Y-112178021D01*
X142541576Y-112175177D01*
X142537295Y-112162337D01*
X142529533Y-112139718D01*
X142518507Y-112107938D01*
X142504434Y-112067613D01*
X142487530Y-112019358D01*
X142468012Y-111963791D01*
X142446098Y-111901528D01*
X142422003Y-111833184D01*
X142395944Y-111759375D01*
X142368139Y-111680719D01*
X142338803Y-111597832D01*
X142308154Y-111511328D01*
X142276409Y-111421826D01*
X142253821Y-111358131D01*
X142222850Y-111270656D01*
X142193149Y-111186598D01*
X142164932Y-111106576D01*
X142138416Y-111031208D01*
X142113815Y-110961110D01*
X142091347Y-110896901D01*
X142071226Y-110839198D01*
X142053667Y-110788619D01*
X142038888Y-110745781D01*
X142027103Y-110711302D01*
X142018527Y-110685800D01*
X142013378Y-110669892D01*
X142011869Y-110664196D01*
X142013095Y-110663800D01*
X142023533Y-110662268D01*
X142043248Y-110660069D01*
X142070678Y-110657334D01*
X142104262Y-110654192D01*
X142142435Y-110650774D01*
X142183635Y-110647209D01*
X142226300Y-110643628D01*
X142268866Y-110640160D01*
X142309771Y-110636936D01*
X142347453Y-110634085D01*
X142380347Y-110631738D01*
X142406892Y-110630025D01*
X142425525Y-110629075D01*
X142434682Y-110629019D01*
X142435442Y-110629161D01*
G37*
%LPC*%
D14*
X153670000Y-119380000D03*
X90170000Y-68580000D03*
X90170000Y-119380000D03*
X153670000Y-68580000D03*
D15*
X102870000Y-118110000D03*
D16*
X118110000Y-118110000D03*
X125730000Y-118110000D03*
X140970000Y-118110000D03*
X102870000Y-69850000D03*
X118110000Y-69850000D03*
X125730000Y-69850000D03*
X140970000Y-69850000D03*
D17*
X77970000Y-102108000D03*
D18*
X77970000Y-107108000D03*
X77970000Y-112108000D03*
D19*
X104020000Y-57150000D03*
X89020000Y-57150000D03*
D17*
X187960000Y-106680000D03*
D18*
X187960000Y-101680000D03*
X187960000Y-96680000D03*
X187960000Y-91680000D03*
D20*
X166667246Y-78740000D03*
D21*
X174167246Y-78740000D03*
D20*
X164705000Y-67310000D03*
D21*
X175605000Y-67210000D03*
X175605000Y-56410000D03*
X164705000Y-56410000D03*
D22*
X73660000Y-55880000D03*
X190500000Y-55880000D03*
X190500000Y-121920000D03*
X73660000Y-121920000D03*
D21*
X76200000Y-96400000D03*
X76200000Y-81400000D03*
D23*
X181610000Y-114290000D03*
X181610000Y-116830000D03*
X181610000Y-119370000D03*
D17*
X187960000Y-85090000D03*
D18*
X187960000Y-80090000D03*
X187960000Y-75090000D03*
X187960000Y-70090000D03*
D24*
X161910000Y-111790000D03*
X161910000Y-109190000D03*
X161910000Y-110490000D03*
X163210000Y-109190000D03*
X163210000Y-110490000D03*
X163210000Y-111790000D03*
D19*
X140970000Y-57150000D03*
X155970000Y-57150000D03*
D25*
X75500000Y-74870000D03*
X76900000Y-67370000D03*
D26*
X92710000Y-102870000D03*
D27*
X92710000Y-107950000D03*
X92710000Y-113030000D03*
X87630000Y-102870000D03*
X87630000Y-107950000D03*
X87630000Y-113030000D03*
M02*
