%FSLAX45Y45*%
G04 Gerber Fmt 4.5, Leading zero omitted, Abs format (unit mm)*
G04 Created by KiCad (PCBNEW (5.1.9)-1) date 2021-06-30 23:10:08*
%MOMM*%
%LPD*%
G01*
G04 APERTURE LIST*
%TA.AperFunction,Profile*%
%ADD10C,0.050000*%
%TD*%
%ADD11C,0.200000*%
%ADD12C,0.300000*%
G04 APERTURE END LIST*
D10*
X6858000Y-12700000D02*
X6858000Y-6604000D01*
X19558000Y-12700000D02*
X6858000Y-12700000D01*
X19558000Y-6604000D02*
X19558000Y-12700000D01*
X6858000Y-6604000D02*
X19558000Y-6604000D01*
D11*
X8339000Y-7072000D02*
X8419000Y-7152000D01*
X8419000Y-7072000D02*
X8339000Y-7152000D01*
X8409000Y-7137000D02*
X8409000Y-7087000D01*
X8349000Y-7137000D02*
X8349000Y-7087000D01*
X8409000Y-7087000D02*
G75*
G03*
X8349000Y-7087000I-30000J0D01*
G01*
X8349000Y-7137000D02*
G75*
G03*
X8409000Y-7137000I30000J0D01*
G01*
X8339000Y-11644000D02*
X8419000Y-11724000D01*
X8419000Y-11644000D02*
X8339000Y-11724000D01*
X8409000Y-11709000D02*
X8409000Y-11659000D01*
X8349000Y-11709000D02*
X8349000Y-11659000D01*
X8409000Y-11659000D02*
G75*
G03*
X8349000Y-11659000I-30000J0D01*
G01*
X8349000Y-11709000D02*
G75*
G03*
X8409000Y-11709000I30000J0D01*
G01*
X8342000Y-7580000D02*
X8422000Y-7660000D01*
X8422000Y-7580000D02*
X8342000Y-7660000D01*
X8412000Y-7645000D02*
X8412000Y-7595000D01*
X8352000Y-7645000D02*
X8352000Y-7595000D01*
X8412000Y-7595000D02*
G75*
G03*
X8352000Y-7595000I-30000J0D01*
G01*
X8352000Y-7645000D02*
G75*
G03*
X8412000Y-7645000I30000J0D01*
G01*
X8342000Y-12152000D02*
X8422000Y-12232000D01*
X8422000Y-12152000D02*
X8342000Y-12232000D01*
X8412000Y-12217000D02*
X8412000Y-12167000D01*
X8352000Y-12217000D02*
X8352000Y-12167000D01*
X8412000Y-12167000D02*
G75*
G03*
X8352000Y-12167000I-30000J0D01*
G01*
X8352000Y-12217000D02*
G75*
G03*
X8412000Y-12217000I30000J0D01*
G01*
X13930000Y-6818000D02*
X14010000Y-6898000D01*
X14010000Y-6818000D02*
X13930000Y-6898000D01*
X14000000Y-6883000D02*
X14000000Y-6833000D01*
X13940000Y-6883000D02*
X13940000Y-6833000D01*
X14000000Y-6833000D02*
G75*
G03*
X13940000Y-6833000I-30000J0D01*
G01*
X13940000Y-6883000D02*
G75*
G03*
X14000000Y-6883000I30000J0D01*
G01*
X13930000Y-7326000D02*
X14010000Y-7406000D01*
X14010000Y-7326000D02*
X13930000Y-7406000D01*
X14000000Y-7391000D02*
X14000000Y-7341000D01*
X13940000Y-7391000D02*
X13940000Y-7341000D01*
X14000000Y-7341000D02*
G75*
G03*
X13940000Y-7341000I-30000J0D01*
G01*
X13940000Y-7391000D02*
G75*
G03*
X14000000Y-7391000I30000J0D01*
G01*
X13930000Y-11898000D02*
X14010000Y-11978000D01*
X14010000Y-11898000D02*
X13930000Y-11978000D01*
X14000000Y-11963000D02*
X14000000Y-11913000D01*
X13940000Y-11963000D02*
X13940000Y-11913000D01*
X14000000Y-11913000D02*
G75*
G03*
X13940000Y-11913000I-30000J0D01*
G01*
X13940000Y-11963000D02*
G75*
G03*
X14000000Y-11963000I30000J0D01*
G01*
X13933000Y-12406000D02*
X14013000Y-12486000D01*
X14013000Y-12406000D02*
X13933000Y-12486000D01*
X14003000Y-12471000D02*
X14003000Y-12421000D01*
X13943000Y-12471000D02*
X13943000Y-12421000D01*
X14003000Y-12421000D02*
G75*
G03*
X13943000Y-12421000I-30000J0D01*
G01*
X13943000Y-12471000D02*
G75*
G03*
X14003000Y-12471000I30000J0D01*
G01*
X17034400Y-8850000D02*
X17114400Y-8930000D01*
X17114400Y-8850000D02*
X17034400Y-8930000D01*
X17384400Y-8850000D02*
X17464400Y-8930000D01*
X17464400Y-8850000D02*
X17384400Y-8930000D01*
X17892400Y-9002400D02*
X17972400Y-9082400D01*
X17972400Y-9002400D02*
X17892400Y-9082400D01*
X17892400Y-9510400D02*
X17972400Y-9590400D01*
X17972400Y-9510400D02*
X17892400Y-9590400D01*
X18146400Y-9256400D02*
X18226400Y-9336400D01*
X18226400Y-9256400D02*
X18146400Y-9336400D01*
X18756000Y-11288400D02*
X18836000Y-11368400D01*
X18836000Y-11288400D02*
X18756000Y-11368400D01*
X19106000Y-11288400D02*
X19186000Y-11368400D01*
X19186000Y-11288400D02*
X19106000Y-11368400D01*
X17409000Y-10210800D02*
G75*
G03*
X17409000Y-10210800I-55000J0D01*
G01*
X17579000Y-10580800D02*
G75*
G03*
X17579000Y-10580800I-55000J0D01*
G01*
X17749000Y-10210800D02*
G75*
G03*
X17749000Y-10210800I-55000J0D01*
G01*
X17919000Y-10580800D02*
G75*
G03*
X17919000Y-10580800I-55000J0D01*
G01*
X18089000Y-10210800D02*
G75*
G03*
X18089000Y-10210800I-55000J0D01*
G01*
X7467600Y-7965000D02*
X7467600Y-8085000D01*
X7407600Y-8025000D02*
X7527600Y-8025000D01*
X7467600Y-9465000D02*
X7467600Y-9585000D01*
X7407600Y-9525000D02*
X7527600Y-9525000D01*
X15367000Y-9592000D02*
X15367000Y-9712000D01*
X15307000Y-9652000D02*
X15427000Y-9652000D01*
X16137746Y-8821254D02*
X16137746Y-8941254D01*
X16077746Y-8881254D02*
X16197746Y-8881254D01*
X16144817Y-10355675D02*
X16144817Y-10475675D01*
X16084817Y-10415675D02*
X16204817Y-10415675D01*
X16408400Y-7165600D02*
X16408400Y-7285600D01*
X16348400Y-7225600D02*
X16468400Y-7225600D01*
X16408400Y-7915600D02*
X16408400Y-8035600D01*
X16348400Y-7975600D02*
X16468400Y-7975600D01*
X16908493Y-9592000D02*
X16908493Y-9712000D01*
X16848493Y-9652000D02*
X16968493Y-9652000D01*
X18186400Y-7521200D02*
X18186400Y-7641200D01*
X18126400Y-7581200D02*
X18246400Y-7581200D01*
X18186400Y-8271200D02*
X18186400Y-8391200D01*
X18126400Y-8331200D02*
X18246400Y-8331200D01*
X7615162Y-10256762D02*
X7615162Y-10164838D01*
X7523238Y-10164838D01*
X7523238Y-10256762D01*
X7615162Y-10256762D01*
X7615162Y-10756762D02*
X7615162Y-10664838D01*
X7523238Y-10664838D01*
X7523238Y-10756762D01*
X7615162Y-10756762D01*
X7615162Y-11256762D02*
X7615162Y-11164838D01*
X7523238Y-11164838D01*
X7523238Y-11256762D01*
X7615162Y-11256762D01*
X19146762Y-9010762D02*
X19146762Y-8918838D01*
X19054838Y-8918838D01*
X19054838Y-9010762D01*
X19146762Y-9010762D01*
X19146762Y-9510762D02*
X19146762Y-9418838D01*
X19054838Y-9418838D01*
X19054838Y-9510762D01*
X19146762Y-9510762D01*
X19146762Y-10010762D02*
X19146762Y-9918838D01*
X19054838Y-9918838D01*
X19054838Y-10010762D01*
X19146762Y-10010762D01*
X19146762Y-10510762D02*
X19146762Y-10418838D01*
X19054838Y-10418838D01*
X19054838Y-10510762D01*
X19146762Y-10510762D01*
X14922500Y-10827800D02*
X15007500Y-10742800D01*
X14922500Y-10657800D01*
X14837500Y-10742800D01*
X14922500Y-10827800D01*
X14922500Y-12327800D02*
X15007500Y-12242800D01*
X14922500Y-12157800D01*
X14837500Y-12242800D01*
X14922500Y-12327800D01*
X14935200Y-7157500D02*
X15020200Y-7072500D01*
X14935200Y-6987500D01*
X14850200Y-7072500D01*
X14935200Y-7157500D01*
X14935200Y-8657500D02*
X15020200Y-8572500D01*
X14935200Y-8487500D01*
X14850200Y-8572500D01*
X14935200Y-8657500D01*
X7206000Y-6952000D02*
X7526000Y-7272000D01*
X7526000Y-6952000D02*
X7206000Y-7272000D01*
X7526000Y-7112000D02*
G75*
G03*
X7526000Y-7112000I-160000J0D01*
G01*
X7206000Y-12032000D02*
X7526000Y-12352000D01*
X7526000Y-12032000D02*
X7206000Y-12352000D01*
X7526000Y-12192000D02*
G75*
G03*
X7526000Y-12192000I-160000J0D01*
G01*
X18890000Y-6952000D02*
X19210000Y-7272000D01*
X19210000Y-6952000D02*
X18890000Y-7272000D01*
X19210000Y-7112000D02*
G75*
G03*
X19210000Y-7112000I-160000J0D01*
G01*
X18890000Y-12032000D02*
X19210000Y-12352000D01*
X19210000Y-12032000D02*
X18890000Y-12352000D01*
X19210000Y-12192000D02*
G75*
G03*
X19210000Y-12192000I-160000J0D01*
G01*
D12*
X7141928Y-13168214D02*
X7141928Y-12868214D01*
X7213357Y-12868214D01*
X7256214Y-12882500D01*
X7284786Y-12911071D01*
X7299071Y-12939643D01*
X7313357Y-12996786D01*
X7313357Y-13039643D01*
X7299071Y-13096786D01*
X7284786Y-13125357D01*
X7256214Y-13153929D01*
X7213357Y-13168214D01*
X7141928Y-13168214D01*
X7441928Y-13168214D02*
X7441928Y-12968214D01*
X7441928Y-13025357D02*
X7456214Y-12996786D01*
X7470500Y-12982500D01*
X7499071Y-12968214D01*
X7527643Y-12968214D01*
X7627643Y-13168214D02*
X7627643Y-12968214D01*
X7627643Y-12868214D02*
X7613357Y-12882500D01*
X7627643Y-12896786D01*
X7641928Y-12882500D01*
X7627643Y-12868214D01*
X7627643Y-12896786D01*
X7813357Y-13168214D02*
X7784786Y-13153929D01*
X7770500Y-13125357D01*
X7770500Y-12868214D01*
X7970500Y-13168214D02*
X7941928Y-13153929D01*
X7927643Y-13125357D01*
X7927643Y-12868214D01*
X8313357Y-13168214D02*
X8313357Y-12868214D01*
X8413357Y-13082500D01*
X8513357Y-12868214D01*
X8513357Y-13168214D01*
X8784786Y-13168214D02*
X8784786Y-13011071D01*
X8770500Y-12982500D01*
X8741928Y-12968214D01*
X8684786Y-12968214D01*
X8656214Y-12982500D01*
X8784786Y-13153929D02*
X8756214Y-13168214D01*
X8684786Y-13168214D01*
X8656214Y-13153929D01*
X8641928Y-13125357D01*
X8641928Y-13096786D01*
X8656214Y-13068214D01*
X8684786Y-13053929D01*
X8756214Y-13053929D01*
X8784786Y-13039643D01*
X8927643Y-12968214D02*
X8927643Y-13268214D01*
X8927643Y-12982500D02*
X8956214Y-12968214D01*
X9013357Y-12968214D01*
X9041928Y-12982500D01*
X9056214Y-12996786D01*
X9070500Y-13025357D01*
X9070500Y-13111071D01*
X9056214Y-13139643D01*
X9041928Y-13153929D01*
X9013357Y-13168214D01*
X8956214Y-13168214D01*
X8927643Y-13153929D01*
X9199071Y-13139643D02*
X9213357Y-13153929D01*
X9199071Y-13168214D01*
X9184786Y-13153929D01*
X9199071Y-13139643D01*
X9199071Y-13168214D01*
X9199071Y-12982500D02*
X9213357Y-12996786D01*
X9199071Y-13011071D01*
X9184786Y-12996786D01*
X9199071Y-12982500D01*
X9199071Y-13011071D01*
X6775500Y-13622500D02*
X6855500Y-13702500D01*
X6855500Y-13622500D02*
X6775500Y-13702500D01*
X7199071Y-13498214D02*
X7227643Y-13498214D01*
X7256214Y-13512500D01*
X7270500Y-13526786D01*
X7284786Y-13555357D01*
X7299071Y-13612500D01*
X7299071Y-13683929D01*
X7284786Y-13741071D01*
X7270500Y-13769643D01*
X7256214Y-13783929D01*
X7227643Y-13798214D01*
X7199071Y-13798214D01*
X7170500Y-13783929D01*
X7156214Y-13769643D01*
X7141928Y-13741071D01*
X7127643Y-13683929D01*
X7127643Y-13612500D01*
X7141928Y-13555357D01*
X7156214Y-13526786D01*
X7170500Y-13512500D01*
X7199071Y-13498214D01*
X7427643Y-13769643D02*
X7441928Y-13783929D01*
X7427643Y-13798214D01*
X7413357Y-13783929D01*
X7427643Y-13769643D01*
X7427643Y-13798214D01*
X7613357Y-13626786D02*
X7584786Y-13612500D01*
X7570500Y-13598214D01*
X7556214Y-13569643D01*
X7556214Y-13555357D01*
X7570500Y-13526786D01*
X7584786Y-13512500D01*
X7613357Y-13498214D01*
X7670500Y-13498214D01*
X7699071Y-13512500D01*
X7713357Y-13526786D01*
X7727643Y-13555357D01*
X7727643Y-13569643D01*
X7713357Y-13598214D01*
X7699071Y-13612500D01*
X7670500Y-13626786D01*
X7613357Y-13626786D01*
X7584786Y-13641071D01*
X7570500Y-13655357D01*
X7556214Y-13683929D01*
X7556214Y-13741071D01*
X7570500Y-13769643D01*
X7584786Y-13783929D01*
X7613357Y-13798214D01*
X7670500Y-13798214D01*
X7699071Y-13783929D01*
X7713357Y-13769643D01*
X7727643Y-13741071D01*
X7727643Y-13683929D01*
X7713357Y-13655357D01*
X7699071Y-13641071D01*
X7670500Y-13626786D01*
X7913357Y-13498214D02*
X7941928Y-13498214D01*
X7970500Y-13512500D01*
X7984786Y-13526786D01*
X7999071Y-13555357D01*
X8013357Y-13612500D01*
X8013357Y-13683929D01*
X7999071Y-13741071D01*
X7984786Y-13769643D01*
X7970500Y-13783929D01*
X7941928Y-13798214D01*
X7913357Y-13798214D01*
X7884786Y-13783929D01*
X7870500Y-13769643D01*
X7856214Y-13741071D01*
X7841928Y-13683929D01*
X7841928Y-13612500D01*
X7856214Y-13555357D01*
X7870500Y-13526786D01*
X7884786Y-13512500D01*
X7913357Y-13498214D01*
X8141928Y-13798214D02*
X8141928Y-13598214D01*
X8141928Y-13626786D02*
X8156214Y-13612500D01*
X8184786Y-13598214D01*
X8227643Y-13598214D01*
X8256214Y-13612500D01*
X8270500Y-13641071D01*
X8270500Y-13798214D01*
X8270500Y-13641071D02*
X8284786Y-13612500D01*
X8313357Y-13598214D01*
X8356214Y-13598214D01*
X8384786Y-13612500D01*
X8399071Y-13641071D01*
X8399071Y-13798214D01*
X8541928Y-13798214D02*
X8541928Y-13598214D01*
X8541928Y-13626786D02*
X8556214Y-13612500D01*
X8584786Y-13598214D01*
X8627643Y-13598214D01*
X8656214Y-13612500D01*
X8670500Y-13641071D01*
X8670500Y-13798214D01*
X8670500Y-13641071D02*
X8684786Y-13612500D01*
X8713357Y-13598214D01*
X8756214Y-13598214D01*
X8784786Y-13612500D01*
X8799071Y-13641071D01*
X8799071Y-13798214D01*
X9384786Y-13483929D02*
X9127643Y-13869643D01*
X9770500Y-13498214D02*
X9799071Y-13498214D01*
X9827643Y-13512500D01*
X9841928Y-13526786D01*
X9856214Y-13555357D01*
X9870500Y-13612500D01*
X9870500Y-13683929D01*
X9856214Y-13741071D01*
X9841928Y-13769643D01*
X9827643Y-13783929D01*
X9799071Y-13798214D01*
X9770500Y-13798214D01*
X9741928Y-13783929D01*
X9727643Y-13769643D01*
X9713357Y-13741071D01*
X9699071Y-13683929D01*
X9699071Y-13612500D01*
X9713357Y-13555357D01*
X9727643Y-13526786D01*
X9741928Y-13512500D01*
X9770500Y-13498214D01*
X9999071Y-13769643D02*
X10013357Y-13783929D01*
X9999071Y-13798214D01*
X9984786Y-13783929D01*
X9999071Y-13769643D01*
X9999071Y-13798214D01*
X10199071Y-13498214D02*
X10227643Y-13498214D01*
X10256214Y-13512500D01*
X10270500Y-13526786D01*
X10284786Y-13555357D01*
X10299071Y-13612500D01*
X10299071Y-13683929D01*
X10284786Y-13741071D01*
X10270500Y-13769643D01*
X10256214Y-13783929D01*
X10227643Y-13798214D01*
X10199071Y-13798214D01*
X10170500Y-13783929D01*
X10156214Y-13769643D01*
X10141928Y-13741071D01*
X10127643Y-13683929D01*
X10127643Y-13612500D01*
X10141928Y-13555357D01*
X10156214Y-13526786D01*
X10170500Y-13512500D01*
X10199071Y-13498214D01*
X10399071Y-13498214D02*
X10584786Y-13498214D01*
X10484786Y-13612500D01*
X10527643Y-13612500D01*
X10556214Y-13626786D01*
X10570500Y-13641071D01*
X10584786Y-13669643D01*
X10584786Y-13741071D01*
X10570500Y-13769643D01*
X10556214Y-13783929D01*
X10527643Y-13798214D01*
X10441928Y-13798214D01*
X10413357Y-13783929D01*
X10399071Y-13769643D01*
X10870500Y-13798214D02*
X10699071Y-13798214D01*
X10784786Y-13798214D02*
X10784786Y-13498214D01*
X10756214Y-13541071D01*
X10727643Y-13569643D01*
X10699071Y-13583929D01*
X10984786Y-13498214D02*
X10984786Y-13555357D01*
X11099071Y-13498214D02*
X11099071Y-13555357D01*
X11541928Y-13912500D02*
X11527643Y-13898214D01*
X11499071Y-13855357D01*
X11484786Y-13826786D01*
X11470500Y-13783929D01*
X11456214Y-13712500D01*
X11456214Y-13655357D01*
X11470500Y-13583929D01*
X11484786Y-13541071D01*
X11499071Y-13512500D01*
X11527643Y-13469643D01*
X11541928Y-13455357D01*
X11627643Y-13498214D02*
X11827643Y-13498214D01*
X11699071Y-13798214D01*
X12170500Y-13798214D02*
X12170500Y-13498214D01*
X12299071Y-13798214D02*
X12299071Y-13641071D01*
X12284786Y-13612500D01*
X12256214Y-13598214D01*
X12213357Y-13598214D01*
X12184786Y-13612500D01*
X12170500Y-13626786D01*
X12484786Y-13798214D02*
X12456214Y-13783929D01*
X12441928Y-13769643D01*
X12427643Y-13741071D01*
X12427643Y-13655357D01*
X12441928Y-13626786D01*
X12456214Y-13612500D01*
X12484786Y-13598214D01*
X12527643Y-13598214D01*
X12556214Y-13612500D01*
X12570500Y-13626786D01*
X12584786Y-13655357D01*
X12584786Y-13741071D01*
X12570500Y-13769643D01*
X12556214Y-13783929D01*
X12527643Y-13798214D01*
X12484786Y-13798214D01*
X12756214Y-13798214D02*
X12727643Y-13783929D01*
X12713357Y-13755357D01*
X12713357Y-13498214D01*
X12984786Y-13783929D02*
X12956214Y-13798214D01*
X12899071Y-13798214D01*
X12870500Y-13783929D01*
X12856214Y-13755357D01*
X12856214Y-13641071D01*
X12870500Y-13612500D01*
X12899071Y-13598214D01*
X12956214Y-13598214D01*
X12984786Y-13612500D01*
X12999071Y-13641071D01*
X12999071Y-13669643D01*
X12856214Y-13698214D01*
X13113357Y-13783929D02*
X13141928Y-13798214D01*
X13199071Y-13798214D01*
X13227643Y-13783929D01*
X13241928Y-13755357D01*
X13241928Y-13741071D01*
X13227643Y-13712500D01*
X13199071Y-13698214D01*
X13156214Y-13698214D01*
X13127643Y-13683929D01*
X13113357Y-13655357D01*
X13113357Y-13641071D01*
X13127643Y-13612500D01*
X13156214Y-13598214D01*
X13199071Y-13598214D01*
X13227643Y-13612500D01*
X13599071Y-13683929D02*
X13827643Y-13683929D01*
X13713357Y-13798214D02*
X13713357Y-13569643D01*
X14241928Y-13626786D02*
X14213357Y-13612500D01*
X14199071Y-13598214D01*
X14184786Y-13569643D01*
X14184786Y-13555357D01*
X14199071Y-13526786D01*
X14213357Y-13512500D01*
X14241928Y-13498214D01*
X14299071Y-13498214D01*
X14327643Y-13512500D01*
X14341928Y-13526786D01*
X14356214Y-13555357D01*
X14356214Y-13569643D01*
X14341928Y-13598214D01*
X14327643Y-13612500D01*
X14299071Y-13626786D01*
X14241928Y-13626786D01*
X14213357Y-13641071D01*
X14199071Y-13655357D01*
X14184786Y-13683929D01*
X14184786Y-13741071D01*
X14199071Y-13769643D01*
X14213357Y-13783929D01*
X14241928Y-13798214D01*
X14299071Y-13798214D01*
X14327643Y-13783929D01*
X14341928Y-13769643D01*
X14356214Y-13741071D01*
X14356214Y-13683929D01*
X14341928Y-13655357D01*
X14327643Y-13641071D01*
X14299071Y-13626786D01*
X14699071Y-13783929D02*
X14727643Y-13798214D01*
X14784786Y-13798214D01*
X14813357Y-13783929D01*
X14827643Y-13755357D01*
X14827643Y-13741071D01*
X14813357Y-13712500D01*
X14784786Y-13698214D01*
X14741928Y-13698214D01*
X14713357Y-13683929D01*
X14699071Y-13655357D01*
X14699071Y-13641071D01*
X14713357Y-13612500D01*
X14741928Y-13598214D01*
X14784786Y-13598214D01*
X14813357Y-13612500D01*
X14999071Y-13798214D02*
X14970500Y-13783929D01*
X14956214Y-13755357D01*
X14956214Y-13498214D01*
X15156214Y-13798214D02*
X15127643Y-13783929D01*
X15113357Y-13769643D01*
X15099071Y-13741071D01*
X15099071Y-13655357D01*
X15113357Y-13626786D01*
X15127643Y-13612500D01*
X15156214Y-13598214D01*
X15199071Y-13598214D01*
X15227643Y-13612500D01*
X15241928Y-13626786D01*
X15256214Y-13655357D01*
X15256214Y-13741071D01*
X15241928Y-13769643D01*
X15227643Y-13783929D01*
X15199071Y-13798214D01*
X15156214Y-13798214D01*
X15341928Y-13598214D02*
X15456214Y-13598214D01*
X15384786Y-13498214D02*
X15384786Y-13755357D01*
X15399071Y-13783929D01*
X15427643Y-13798214D01*
X15456214Y-13798214D01*
X15541928Y-13783929D02*
X15570500Y-13798214D01*
X15627643Y-13798214D01*
X15656214Y-13783929D01*
X15670500Y-13755357D01*
X15670500Y-13741071D01*
X15656214Y-13712500D01*
X15627643Y-13698214D01*
X15584786Y-13698214D01*
X15556214Y-13683929D01*
X15541928Y-13655357D01*
X15541928Y-13641071D01*
X15556214Y-13612500D01*
X15584786Y-13598214D01*
X15627643Y-13598214D01*
X15656214Y-13612500D01*
X15770500Y-13912500D02*
X15784786Y-13898214D01*
X15813357Y-13855357D01*
X15827643Y-13826786D01*
X15841928Y-13783929D01*
X15856214Y-13712500D01*
X15856214Y-13655357D01*
X15841928Y-13583929D01*
X15827643Y-13541071D01*
X15813357Y-13512500D01*
X15784786Y-13469643D01*
X15770500Y-13455357D01*
X6855500Y-14058500D02*
G75*
G03*
X6855500Y-14058500I-55000J0D01*
G01*
X7299071Y-14194214D02*
X7127643Y-14194214D01*
X7213357Y-14194214D02*
X7213357Y-13894214D01*
X7184786Y-13937071D01*
X7156214Y-13965643D01*
X7127643Y-13979929D01*
X7427643Y-14165643D02*
X7441928Y-14179929D01*
X7427643Y-14194214D01*
X7413357Y-14179929D01*
X7427643Y-14165643D01*
X7427643Y-14194214D01*
X7727643Y-14194214D02*
X7556214Y-14194214D01*
X7641928Y-14194214D02*
X7641928Y-13894214D01*
X7613357Y-13937071D01*
X7584786Y-13965643D01*
X7556214Y-13979929D01*
X7913357Y-13894214D02*
X7941928Y-13894214D01*
X7970500Y-13908500D01*
X7984786Y-13922786D01*
X7999071Y-13951357D01*
X8013357Y-14008500D01*
X8013357Y-14079929D01*
X7999071Y-14137071D01*
X7984786Y-14165643D01*
X7970500Y-14179929D01*
X7941928Y-14194214D01*
X7913357Y-14194214D01*
X7884786Y-14179929D01*
X7870500Y-14165643D01*
X7856214Y-14137071D01*
X7841928Y-14079929D01*
X7841928Y-14008500D01*
X7856214Y-13951357D01*
X7870500Y-13922786D01*
X7884786Y-13908500D01*
X7913357Y-13894214D01*
X8141928Y-14194214D02*
X8141928Y-13994214D01*
X8141928Y-14022786D02*
X8156214Y-14008500D01*
X8184786Y-13994214D01*
X8227643Y-13994214D01*
X8256214Y-14008500D01*
X8270500Y-14037071D01*
X8270500Y-14194214D01*
X8270500Y-14037071D02*
X8284786Y-14008500D01*
X8313357Y-13994214D01*
X8356214Y-13994214D01*
X8384786Y-14008500D01*
X8399071Y-14037071D01*
X8399071Y-14194214D01*
X8541928Y-14194214D02*
X8541928Y-13994214D01*
X8541928Y-14022786D02*
X8556214Y-14008500D01*
X8584786Y-13994214D01*
X8627643Y-13994214D01*
X8656214Y-14008500D01*
X8670500Y-14037071D01*
X8670500Y-14194214D01*
X8670500Y-14037071D02*
X8684786Y-14008500D01*
X8713357Y-13994214D01*
X8756214Y-13994214D01*
X8784786Y-14008500D01*
X8799071Y-14037071D01*
X8799071Y-14194214D01*
X9384786Y-13879929D02*
X9127643Y-14265643D01*
X9770500Y-13894214D02*
X9799071Y-13894214D01*
X9827643Y-13908500D01*
X9841928Y-13922786D01*
X9856214Y-13951357D01*
X9870500Y-14008500D01*
X9870500Y-14079929D01*
X9856214Y-14137071D01*
X9841928Y-14165643D01*
X9827643Y-14179929D01*
X9799071Y-14194214D01*
X9770500Y-14194214D01*
X9741928Y-14179929D01*
X9727643Y-14165643D01*
X9713357Y-14137071D01*
X9699071Y-14079929D01*
X9699071Y-14008500D01*
X9713357Y-13951357D01*
X9727643Y-13922786D01*
X9741928Y-13908500D01*
X9770500Y-13894214D01*
X9999071Y-14165643D02*
X10013357Y-14179929D01*
X9999071Y-14194214D01*
X9984786Y-14179929D01*
X9999071Y-14165643D01*
X9999071Y-14194214D01*
X10199071Y-13894214D02*
X10227643Y-13894214D01*
X10256214Y-13908500D01*
X10270500Y-13922786D01*
X10284786Y-13951357D01*
X10299071Y-14008500D01*
X10299071Y-14079929D01*
X10284786Y-14137071D01*
X10270500Y-14165643D01*
X10256214Y-14179929D01*
X10227643Y-14194214D01*
X10199071Y-14194214D01*
X10170500Y-14179929D01*
X10156214Y-14165643D01*
X10141928Y-14137071D01*
X10127643Y-14079929D01*
X10127643Y-14008500D01*
X10141928Y-13951357D01*
X10156214Y-13922786D01*
X10170500Y-13908500D01*
X10199071Y-13894214D01*
X10556214Y-13994214D02*
X10556214Y-14194214D01*
X10484786Y-13879929D02*
X10413357Y-14094214D01*
X10599071Y-14094214D01*
X10684786Y-13894214D02*
X10870500Y-13894214D01*
X10770500Y-14008500D01*
X10813357Y-14008500D01*
X10841928Y-14022786D01*
X10856214Y-14037071D01*
X10870500Y-14065643D01*
X10870500Y-14137071D01*
X10856214Y-14165643D01*
X10841928Y-14179929D01*
X10813357Y-14194214D01*
X10727643Y-14194214D01*
X10699071Y-14179929D01*
X10684786Y-14165643D01*
X10984786Y-13894214D02*
X10984786Y-13951357D01*
X11099071Y-13894214D02*
X11099071Y-13951357D01*
X11541928Y-14308500D02*
X11527643Y-14294214D01*
X11499071Y-14251357D01*
X11484786Y-14222786D01*
X11470500Y-14179929D01*
X11456214Y-14108500D01*
X11456214Y-14051357D01*
X11470500Y-13979929D01*
X11484786Y-13937071D01*
X11499071Y-13908500D01*
X11527643Y-13865643D01*
X11541928Y-13851357D01*
X11799071Y-13894214D02*
X11656214Y-13894214D01*
X11641928Y-14037071D01*
X11656214Y-14022786D01*
X11684786Y-14008500D01*
X11756214Y-14008500D01*
X11784786Y-14022786D01*
X11799071Y-14037071D01*
X11813357Y-14065643D01*
X11813357Y-14137071D01*
X11799071Y-14165643D01*
X11784786Y-14179929D01*
X11756214Y-14194214D01*
X11684786Y-14194214D01*
X11656214Y-14179929D01*
X11641928Y-14165643D01*
X12170500Y-14194214D02*
X12170500Y-13894214D01*
X12299071Y-14194214D02*
X12299071Y-14037071D01*
X12284786Y-14008500D01*
X12256214Y-13994214D01*
X12213357Y-13994214D01*
X12184786Y-14008500D01*
X12170500Y-14022786D01*
X12484786Y-14194214D02*
X12456214Y-14179929D01*
X12441928Y-14165643D01*
X12427643Y-14137071D01*
X12427643Y-14051357D01*
X12441928Y-14022786D01*
X12456214Y-14008500D01*
X12484786Y-13994214D01*
X12527643Y-13994214D01*
X12556214Y-14008500D01*
X12570500Y-14022786D01*
X12584786Y-14051357D01*
X12584786Y-14137071D01*
X12570500Y-14165643D01*
X12556214Y-14179929D01*
X12527643Y-14194214D01*
X12484786Y-14194214D01*
X12756214Y-14194214D02*
X12727643Y-14179929D01*
X12713357Y-14151357D01*
X12713357Y-13894214D01*
X12984786Y-14179929D02*
X12956214Y-14194214D01*
X12899071Y-14194214D01*
X12870500Y-14179929D01*
X12856214Y-14151357D01*
X12856214Y-14037071D01*
X12870500Y-14008500D01*
X12899071Y-13994214D01*
X12956214Y-13994214D01*
X12984786Y-14008500D01*
X12999071Y-14037071D01*
X12999071Y-14065643D01*
X12856214Y-14094214D01*
X13113357Y-14179929D02*
X13141928Y-14194214D01*
X13199071Y-14194214D01*
X13227643Y-14179929D01*
X13241928Y-14151357D01*
X13241928Y-14137071D01*
X13227643Y-14108500D01*
X13199071Y-14094214D01*
X13156214Y-14094214D01*
X13127643Y-14079929D01*
X13113357Y-14051357D01*
X13113357Y-14037071D01*
X13127643Y-14008500D01*
X13156214Y-13994214D01*
X13199071Y-13994214D01*
X13227643Y-14008500D01*
X13341928Y-14308500D02*
X13356214Y-14294214D01*
X13384786Y-14251357D01*
X13399071Y-14222786D01*
X13413357Y-14179929D01*
X13427643Y-14108500D01*
X13427643Y-14051357D01*
X13413357Y-13979929D01*
X13399071Y-13937071D01*
X13384786Y-13908500D01*
X13356214Y-13865643D01*
X13341928Y-13851357D01*
X6795500Y-14394500D02*
X6795500Y-14514500D01*
X6735500Y-14454500D02*
X6855500Y-14454500D01*
X7299071Y-14590214D02*
X7127643Y-14590214D01*
X7213357Y-14590214D02*
X7213357Y-14290214D01*
X7184786Y-14333071D01*
X7156214Y-14361643D01*
X7127643Y-14375929D01*
X7427643Y-14561643D02*
X7441928Y-14575929D01*
X7427643Y-14590214D01*
X7413357Y-14575929D01*
X7427643Y-14561643D01*
X7427643Y-14590214D01*
X7556214Y-14318786D02*
X7570500Y-14304500D01*
X7599071Y-14290214D01*
X7670500Y-14290214D01*
X7699071Y-14304500D01*
X7713357Y-14318786D01*
X7727643Y-14347357D01*
X7727643Y-14375929D01*
X7713357Y-14418786D01*
X7541928Y-14590214D01*
X7727643Y-14590214D01*
X7913357Y-14290214D02*
X7941928Y-14290214D01*
X7970500Y-14304500D01*
X7984786Y-14318786D01*
X7999071Y-14347357D01*
X8013357Y-14404500D01*
X8013357Y-14475929D01*
X7999071Y-14533071D01*
X7984786Y-14561643D01*
X7970500Y-14575929D01*
X7941928Y-14590214D01*
X7913357Y-14590214D01*
X7884786Y-14575929D01*
X7870500Y-14561643D01*
X7856214Y-14533071D01*
X7841928Y-14475929D01*
X7841928Y-14404500D01*
X7856214Y-14347357D01*
X7870500Y-14318786D01*
X7884786Y-14304500D01*
X7913357Y-14290214D01*
X8141928Y-14590214D02*
X8141928Y-14390214D01*
X8141928Y-14418786D02*
X8156214Y-14404500D01*
X8184786Y-14390214D01*
X8227643Y-14390214D01*
X8256214Y-14404500D01*
X8270500Y-14433071D01*
X8270500Y-14590214D01*
X8270500Y-14433071D02*
X8284786Y-14404500D01*
X8313357Y-14390214D01*
X8356214Y-14390214D01*
X8384786Y-14404500D01*
X8399071Y-14433071D01*
X8399071Y-14590214D01*
X8541928Y-14590214D02*
X8541928Y-14390214D01*
X8541928Y-14418786D02*
X8556214Y-14404500D01*
X8584786Y-14390214D01*
X8627643Y-14390214D01*
X8656214Y-14404500D01*
X8670500Y-14433071D01*
X8670500Y-14590214D01*
X8670500Y-14433071D02*
X8684786Y-14404500D01*
X8713357Y-14390214D01*
X8756214Y-14390214D01*
X8784786Y-14404500D01*
X8799071Y-14433071D01*
X8799071Y-14590214D01*
X9384786Y-14275929D02*
X9127643Y-14661643D01*
X9770500Y-14290214D02*
X9799071Y-14290214D01*
X9827643Y-14304500D01*
X9841928Y-14318786D01*
X9856214Y-14347357D01*
X9870500Y-14404500D01*
X9870500Y-14475929D01*
X9856214Y-14533071D01*
X9841928Y-14561643D01*
X9827643Y-14575929D01*
X9799071Y-14590214D01*
X9770500Y-14590214D01*
X9741928Y-14575929D01*
X9727643Y-14561643D01*
X9713357Y-14533071D01*
X9699071Y-14475929D01*
X9699071Y-14404500D01*
X9713357Y-14347357D01*
X9727643Y-14318786D01*
X9741928Y-14304500D01*
X9770500Y-14290214D01*
X9999071Y-14561643D02*
X10013357Y-14575929D01*
X9999071Y-14590214D01*
X9984786Y-14575929D01*
X9999071Y-14561643D01*
X9999071Y-14590214D01*
X10199071Y-14290214D02*
X10227643Y-14290214D01*
X10256214Y-14304500D01*
X10270500Y-14318786D01*
X10284786Y-14347357D01*
X10299071Y-14404500D01*
X10299071Y-14475929D01*
X10284786Y-14533071D01*
X10270500Y-14561643D01*
X10256214Y-14575929D01*
X10227643Y-14590214D01*
X10199071Y-14590214D01*
X10170500Y-14575929D01*
X10156214Y-14561643D01*
X10141928Y-14533071D01*
X10127643Y-14475929D01*
X10127643Y-14404500D01*
X10141928Y-14347357D01*
X10156214Y-14318786D01*
X10170500Y-14304500D01*
X10199071Y-14290214D01*
X10556214Y-14390214D02*
X10556214Y-14590214D01*
X10484786Y-14275929D02*
X10413357Y-14490214D01*
X10599071Y-14490214D01*
X10684786Y-14290214D02*
X10884786Y-14290214D01*
X10756214Y-14590214D01*
X10984786Y-14290214D02*
X10984786Y-14347357D01*
X11099071Y-14290214D02*
X11099071Y-14347357D01*
X11541928Y-14704500D02*
X11527643Y-14690214D01*
X11499071Y-14647357D01*
X11484786Y-14618786D01*
X11470500Y-14575929D01*
X11456214Y-14504500D01*
X11456214Y-14447357D01*
X11470500Y-14375929D01*
X11484786Y-14333071D01*
X11499071Y-14304500D01*
X11527643Y-14261643D01*
X11541928Y-14247357D01*
X11813357Y-14590214D02*
X11641928Y-14590214D01*
X11727643Y-14590214D02*
X11727643Y-14290214D01*
X11699071Y-14333071D01*
X11670500Y-14361643D01*
X11641928Y-14375929D01*
X11999071Y-14290214D02*
X12027643Y-14290214D01*
X12056214Y-14304500D01*
X12070500Y-14318786D01*
X12084786Y-14347357D01*
X12099071Y-14404500D01*
X12099071Y-14475929D01*
X12084786Y-14533071D01*
X12070500Y-14561643D01*
X12056214Y-14575929D01*
X12027643Y-14590214D01*
X11999071Y-14590214D01*
X11970500Y-14575929D01*
X11956214Y-14561643D01*
X11941928Y-14533071D01*
X11927643Y-14475929D01*
X11927643Y-14404500D01*
X11941928Y-14347357D01*
X11956214Y-14318786D01*
X11970500Y-14304500D01*
X11999071Y-14290214D01*
X12456214Y-14590214D02*
X12456214Y-14290214D01*
X12584786Y-14590214D02*
X12584786Y-14433071D01*
X12570500Y-14404500D01*
X12541928Y-14390214D01*
X12499071Y-14390214D01*
X12470500Y-14404500D01*
X12456214Y-14418786D01*
X12770500Y-14590214D02*
X12741928Y-14575929D01*
X12727643Y-14561643D01*
X12713357Y-14533071D01*
X12713357Y-14447357D01*
X12727643Y-14418786D01*
X12741928Y-14404500D01*
X12770500Y-14390214D01*
X12813357Y-14390214D01*
X12841928Y-14404500D01*
X12856214Y-14418786D01*
X12870500Y-14447357D01*
X12870500Y-14533071D01*
X12856214Y-14561643D01*
X12841928Y-14575929D01*
X12813357Y-14590214D01*
X12770500Y-14590214D01*
X13041928Y-14590214D02*
X13013357Y-14575929D01*
X12999071Y-14547357D01*
X12999071Y-14290214D01*
X13270500Y-14575929D02*
X13241928Y-14590214D01*
X13184786Y-14590214D01*
X13156214Y-14575929D01*
X13141928Y-14547357D01*
X13141928Y-14433071D01*
X13156214Y-14404500D01*
X13184786Y-14390214D01*
X13241928Y-14390214D01*
X13270500Y-14404500D01*
X13284786Y-14433071D01*
X13284786Y-14461643D01*
X13141928Y-14490214D01*
X13399071Y-14575929D02*
X13427643Y-14590214D01*
X13484786Y-14590214D01*
X13513357Y-14575929D01*
X13527643Y-14547357D01*
X13527643Y-14533071D01*
X13513357Y-14504500D01*
X13484786Y-14490214D01*
X13441928Y-14490214D01*
X13413357Y-14475929D01*
X13399071Y-14447357D01*
X13399071Y-14433071D01*
X13413357Y-14404500D01*
X13441928Y-14390214D01*
X13484786Y-14390214D01*
X13513357Y-14404500D01*
X13627643Y-14704500D02*
X13641928Y-14690214D01*
X13670500Y-14647357D01*
X13684786Y-14618786D01*
X13699071Y-14575929D01*
X13713357Y-14504500D01*
X13713357Y-14447357D01*
X13699071Y-14375929D01*
X13684786Y-14333071D01*
X13670500Y-14304500D01*
X13641928Y-14261643D01*
X13627643Y-14247357D01*
X6836462Y-14896462D02*
X6836462Y-14804538D01*
X6744537Y-14804538D01*
X6744537Y-14896462D01*
X6836462Y-14896462D01*
X7299071Y-14986214D02*
X7127643Y-14986214D01*
X7213357Y-14986214D02*
X7213357Y-14686214D01*
X7184786Y-14729071D01*
X7156214Y-14757643D01*
X7127643Y-14771929D01*
X7427643Y-14957643D02*
X7441928Y-14971929D01*
X7427643Y-14986214D01*
X7413357Y-14971929D01*
X7427643Y-14957643D01*
X7427643Y-14986214D01*
X7541928Y-14686214D02*
X7727643Y-14686214D01*
X7627643Y-14800500D01*
X7670500Y-14800500D01*
X7699071Y-14814786D01*
X7713357Y-14829071D01*
X7727643Y-14857643D01*
X7727643Y-14929071D01*
X7713357Y-14957643D01*
X7699071Y-14971929D01*
X7670500Y-14986214D01*
X7584786Y-14986214D01*
X7556214Y-14971929D01*
X7541928Y-14957643D01*
X7913357Y-14686214D02*
X7941928Y-14686214D01*
X7970500Y-14700500D01*
X7984786Y-14714786D01*
X7999071Y-14743357D01*
X8013357Y-14800500D01*
X8013357Y-14871929D01*
X7999071Y-14929071D01*
X7984786Y-14957643D01*
X7970500Y-14971929D01*
X7941928Y-14986214D01*
X7913357Y-14986214D01*
X7884786Y-14971929D01*
X7870500Y-14957643D01*
X7856214Y-14929071D01*
X7841928Y-14871929D01*
X7841928Y-14800500D01*
X7856214Y-14743357D01*
X7870500Y-14714786D01*
X7884786Y-14700500D01*
X7913357Y-14686214D01*
X8141928Y-14986214D02*
X8141928Y-14786214D01*
X8141928Y-14814786D02*
X8156214Y-14800500D01*
X8184786Y-14786214D01*
X8227643Y-14786214D01*
X8256214Y-14800500D01*
X8270500Y-14829071D01*
X8270500Y-14986214D01*
X8270500Y-14829071D02*
X8284786Y-14800500D01*
X8313357Y-14786214D01*
X8356214Y-14786214D01*
X8384786Y-14800500D01*
X8399071Y-14829071D01*
X8399071Y-14986214D01*
X8541928Y-14986214D02*
X8541928Y-14786214D01*
X8541928Y-14814786D02*
X8556214Y-14800500D01*
X8584786Y-14786214D01*
X8627643Y-14786214D01*
X8656214Y-14800500D01*
X8670500Y-14829071D01*
X8670500Y-14986214D01*
X8670500Y-14829071D02*
X8684786Y-14800500D01*
X8713357Y-14786214D01*
X8756214Y-14786214D01*
X8784786Y-14800500D01*
X8799071Y-14829071D01*
X8799071Y-14986214D01*
X9384786Y-14671929D02*
X9127643Y-15057643D01*
X9770500Y-14686214D02*
X9799071Y-14686214D01*
X9827643Y-14700500D01*
X9841928Y-14714786D01*
X9856214Y-14743357D01*
X9870500Y-14800500D01*
X9870500Y-14871929D01*
X9856214Y-14929071D01*
X9841928Y-14957643D01*
X9827643Y-14971929D01*
X9799071Y-14986214D01*
X9770500Y-14986214D01*
X9741928Y-14971929D01*
X9727643Y-14957643D01*
X9713357Y-14929071D01*
X9699071Y-14871929D01*
X9699071Y-14800500D01*
X9713357Y-14743357D01*
X9727643Y-14714786D01*
X9741928Y-14700500D01*
X9770500Y-14686214D01*
X9999071Y-14957643D02*
X10013357Y-14971929D01*
X9999071Y-14986214D01*
X9984786Y-14971929D01*
X9999071Y-14957643D01*
X9999071Y-14986214D01*
X10199071Y-14686214D02*
X10227643Y-14686214D01*
X10256214Y-14700500D01*
X10270500Y-14714786D01*
X10284786Y-14743357D01*
X10299071Y-14800500D01*
X10299071Y-14871929D01*
X10284786Y-14929071D01*
X10270500Y-14957643D01*
X10256214Y-14971929D01*
X10227643Y-14986214D01*
X10199071Y-14986214D01*
X10170500Y-14971929D01*
X10156214Y-14957643D01*
X10141928Y-14929071D01*
X10127643Y-14871929D01*
X10127643Y-14800500D01*
X10141928Y-14743357D01*
X10156214Y-14714786D01*
X10170500Y-14700500D01*
X10199071Y-14686214D01*
X10570500Y-14686214D02*
X10427643Y-14686214D01*
X10413357Y-14829071D01*
X10427643Y-14814786D01*
X10456214Y-14800500D01*
X10527643Y-14800500D01*
X10556214Y-14814786D01*
X10570500Y-14829071D01*
X10584786Y-14857643D01*
X10584786Y-14929071D01*
X10570500Y-14957643D01*
X10556214Y-14971929D01*
X10527643Y-14986214D01*
X10456214Y-14986214D01*
X10427643Y-14971929D01*
X10413357Y-14957643D01*
X10870500Y-14986214D02*
X10699071Y-14986214D01*
X10784786Y-14986214D02*
X10784786Y-14686214D01*
X10756214Y-14729071D01*
X10727643Y-14757643D01*
X10699071Y-14771929D01*
X10984786Y-14686214D02*
X10984786Y-14743357D01*
X11099071Y-14686214D02*
X11099071Y-14743357D01*
X11541928Y-15100500D02*
X11527643Y-15086214D01*
X11499071Y-15043357D01*
X11484786Y-15014786D01*
X11470500Y-14971929D01*
X11456214Y-14900500D01*
X11456214Y-14843357D01*
X11470500Y-14771929D01*
X11484786Y-14729071D01*
X11499071Y-14700500D01*
X11527643Y-14657643D01*
X11541928Y-14643357D01*
X11627643Y-14686214D02*
X11827643Y-14686214D01*
X11699071Y-14986214D01*
X12170500Y-14986214D02*
X12170500Y-14686214D01*
X12299071Y-14986214D02*
X12299071Y-14829071D01*
X12284786Y-14800500D01*
X12256214Y-14786214D01*
X12213357Y-14786214D01*
X12184786Y-14800500D01*
X12170500Y-14814786D01*
X12484786Y-14986214D02*
X12456214Y-14971929D01*
X12441928Y-14957643D01*
X12427643Y-14929071D01*
X12427643Y-14843357D01*
X12441928Y-14814786D01*
X12456214Y-14800500D01*
X12484786Y-14786214D01*
X12527643Y-14786214D01*
X12556214Y-14800500D01*
X12570500Y-14814786D01*
X12584786Y-14843357D01*
X12584786Y-14929071D01*
X12570500Y-14957643D01*
X12556214Y-14971929D01*
X12527643Y-14986214D01*
X12484786Y-14986214D01*
X12756214Y-14986214D02*
X12727643Y-14971929D01*
X12713357Y-14943357D01*
X12713357Y-14686214D01*
X12984786Y-14971929D02*
X12956214Y-14986214D01*
X12899071Y-14986214D01*
X12870500Y-14971929D01*
X12856214Y-14943357D01*
X12856214Y-14829071D01*
X12870500Y-14800500D01*
X12899071Y-14786214D01*
X12956214Y-14786214D01*
X12984786Y-14800500D01*
X12999071Y-14829071D01*
X12999071Y-14857643D01*
X12856214Y-14886214D01*
X13113357Y-14971929D02*
X13141928Y-14986214D01*
X13199071Y-14986214D01*
X13227643Y-14971929D01*
X13241928Y-14943357D01*
X13241928Y-14929071D01*
X13227643Y-14900500D01*
X13199071Y-14886214D01*
X13156214Y-14886214D01*
X13127643Y-14871929D01*
X13113357Y-14843357D01*
X13113357Y-14829071D01*
X13127643Y-14800500D01*
X13156214Y-14786214D01*
X13199071Y-14786214D01*
X13227643Y-14800500D01*
X13341928Y-15100500D02*
X13356214Y-15086214D01*
X13384786Y-15043357D01*
X13399071Y-15014786D01*
X13413357Y-14971929D01*
X13427643Y-14900500D01*
X13427643Y-14843357D01*
X13413357Y-14771929D01*
X13399071Y-14729071D01*
X13384786Y-14700500D01*
X13356214Y-14657643D01*
X13341928Y-14643357D01*
X6770500Y-15331500D02*
X6855500Y-15246500D01*
X6770500Y-15161500D01*
X6685500Y-15246500D01*
X6770500Y-15331500D01*
X7299071Y-15382214D02*
X7127643Y-15382214D01*
X7213357Y-15382214D02*
X7213357Y-15082214D01*
X7184786Y-15125071D01*
X7156214Y-15153643D01*
X7127643Y-15167929D01*
X7427643Y-15353643D02*
X7441928Y-15367929D01*
X7427643Y-15382214D01*
X7413357Y-15367929D01*
X7427643Y-15353643D01*
X7427643Y-15382214D01*
X7541928Y-15082214D02*
X7741928Y-15082214D01*
X7613357Y-15382214D01*
X7913357Y-15082214D02*
X7941928Y-15082214D01*
X7970500Y-15096500D01*
X7984786Y-15110786D01*
X7999071Y-15139357D01*
X8013357Y-15196500D01*
X8013357Y-15267929D01*
X7999071Y-15325071D01*
X7984786Y-15353643D01*
X7970500Y-15367929D01*
X7941928Y-15382214D01*
X7913357Y-15382214D01*
X7884786Y-15367929D01*
X7870500Y-15353643D01*
X7856214Y-15325071D01*
X7841928Y-15267929D01*
X7841928Y-15196500D01*
X7856214Y-15139357D01*
X7870500Y-15110786D01*
X7884786Y-15096500D01*
X7913357Y-15082214D01*
X8141928Y-15382214D02*
X8141928Y-15182214D01*
X8141928Y-15210786D02*
X8156214Y-15196500D01*
X8184786Y-15182214D01*
X8227643Y-15182214D01*
X8256214Y-15196500D01*
X8270500Y-15225071D01*
X8270500Y-15382214D01*
X8270500Y-15225071D02*
X8284786Y-15196500D01*
X8313357Y-15182214D01*
X8356214Y-15182214D01*
X8384786Y-15196500D01*
X8399071Y-15225071D01*
X8399071Y-15382214D01*
X8541928Y-15382214D02*
X8541928Y-15182214D01*
X8541928Y-15210786D02*
X8556214Y-15196500D01*
X8584786Y-15182214D01*
X8627643Y-15182214D01*
X8656214Y-15196500D01*
X8670500Y-15225071D01*
X8670500Y-15382214D01*
X8670500Y-15225071D02*
X8684786Y-15196500D01*
X8713357Y-15182214D01*
X8756214Y-15182214D01*
X8784786Y-15196500D01*
X8799071Y-15225071D01*
X8799071Y-15382214D01*
X9384786Y-15067929D02*
X9127643Y-15453643D01*
X9770500Y-15082214D02*
X9799071Y-15082214D01*
X9827643Y-15096500D01*
X9841928Y-15110786D01*
X9856214Y-15139357D01*
X9870500Y-15196500D01*
X9870500Y-15267929D01*
X9856214Y-15325071D01*
X9841928Y-15353643D01*
X9827643Y-15367929D01*
X9799071Y-15382214D01*
X9770500Y-15382214D01*
X9741928Y-15367929D01*
X9727643Y-15353643D01*
X9713357Y-15325071D01*
X9699071Y-15267929D01*
X9699071Y-15196500D01*
X9713357Y-15139357D01*
X9727643Y-15110786D01*
X9741928Y-15096500D01*
X9770500Y-15082214D01*
X9999071Y-15353643D02*
X10013357Y-15367929D01*
X9999071Y-15382214D01*
X9984786Y-15367929D01*
X9999071Y-15353643D01*
X9999071Y-15382214D01*
X10199071Y-15082214D02*
X10227643Y-15082214D01*
X10256214Y-15096500D01*
X10270500Y-15110786D01*
X10284786Y-15139357D01*
X10299071Y-15196500D01*
X10299071Y-15267929D01*
X10284786Y-15325071D01*
X10270500Y-15353643D01*
X10256214Y-15367929D01*
X10227643Y-15382214D01*
X10199071Y-15382214D01*
X10170500Y-15367929D01*
X10156214Y-15353643D01*
X10141928Y-15325071D01*
X10127643Y-15267929D01*
X10127643Y-15196500D01*
X10141928Y-15139357D01*
X10156214Y-15110786D01*
X10170500Y-15096500D01*
X10199071Y-15082214D01*
X10556214Y-15082214D02*
X10499071Y-15082214D01*
X10470500Y-15096500D01*
X10456214Y-15110786D01*
X10427643Y-15153643D01*
X10413357Y-15210786D01*
X10413357Y-15325071D01*
X10427643Y-15353643D01*
X10441928Y-15367929D01*
X10470500Y-15382214D01*
X10527643Y-15382214D01*
X10556214Y-15367929D01*
X10570500Y-15353643D01*
X10584786Y-15325071D01*
X10584786Y-15253643D01*
X10570500Y-15225071D01*
X10556214Y-15210786D01*
X10527643Y-15196500D01*
X10470500Y-15196500D01*
X10441928Y-15210786D01*
X10427643Y-15225071D01*
X10413357Y-15253643D01*
X10684786Y-15082214D02*
X10884786Y-15082214D01*
X10756214Y-15382214D01*
X10984786Y-15082214D02*
X10984786Y-15139357D01*
X11099071Y-15082214D02*
X11099071Y-15139357D01*
X11541928Y-15496500D02*
X11527643Y-15482214D01*
X11499071Y-15439357D01*
X11484786Y-15410786D01*
X11470500Y-15367929D01*
X11456214Y-15296500D01*
X11456214Y-15239357D01*
X11470500Y-15167929D01*
X11484786Y-15125071D01*
X11499071Y-15096500D01*
X11527643Y-15053643D01*
X11541928Y-15039357D01*
X11784786Y-15182214D02*
X11784786Y-15382214D01*
X11713357Y-15067929D02*
X11641928Y-15282214D01*
X11827643Y-15282214D01*
X12170500Y-15382214D02*
X12170500Y-15082214D01*
X12299071Y-15382214D02*
X12299071Y-15225071D01*
X12284786Y-15196500D01*
X12256214Y-15182214D01*
X12213357Y-15182214D01*
X12184786Y-15196500D01*
X12170500Y-15210786D01*
X12484786Y-15382214D02*
X12456214Y-15367929D01*
X12441928Y-15353643D01*
X12427643Y-15325071D01*
X12427643Y-15239357D01*
X12441928Y-15210786D01*
X12456214Y-15196500D01*
X12484786Y-15182214D01*
X12527643Y-15182214D01*
X12556214Y-15196500D01*
X12570500Y-15210786D01*
X12584786Y-15239357D01*
X12584786Y-15325071D01*
X12570500Y-15353643D01*
X12556214Y-15367929D01*
X12527643Y-15382214D01*
X12484786Y-15382214D01*
X12756214Y-15382214D02*
X12727643Y-15367929D01*
X12713357Y-15339357D01*
X12713357Y-15082214D01*
X12984786Y-15367929D02*
X12956214Y-15382214D01*
X12899071Y-15382214D01*
X12870500Y-15367929D01*
X12856214Y-15339357D01*
X12856214Y-15225071D01*
X12870500Y-15196500D01*
X12899071Y-15182214D01*
X12956214Y-15182214D01*
X12984786Y-15196500D01*
X12999071Y-15225071D01*
X12999071Y-15253643D01*
X12856214Y-15282214D01*
X13113357Y-15367929D02*
X13141928Y-15382214D01*
X13199071Y-15382214D01*
X13227643Y-15367929D01*
X13241928Y-15339357D01*
X13241928Y-15325071D01*
X13227643Y-15296500D01*
X13199071Y-15282214D01*
X13156214Y-15282214D01*
X13127643Y-15267929D01*
X13113357Y-15239357D01*
X13113357Y-15225071D01*
X13127643Y-15196500D01*
X13156214Y-15182214D01*
X13199071Y-15182214D01*
X13227643Y-15196500D01*
X13341928Y-15496500D02*
X13356214Y-15482214D01*
X13384786Y-15439357D01*
X13399071Y-15410786D01*
X13413357Y-15367929D01*
X13427643Y-15296500D01*
X13427643Y-15239357D01*
X13413357Y-15167929D01*
X13399071Y-15125071D01*
X13384786Y-15096500D01*
X13356214Y-15053643D01*
X13341928Y-15039357D01*
X6535500Y-15482500D02*
X6855500Y-15802500D01*
X6855500Y-15482500D02*
X6535500Y-15802500D01*
X6855500Y-15642500D02*
G75*
G03*
X6855500Y-15642500I-160000J0D01*
G01*
X7113357Y-15478214D02*
X7299071Y-15478214D01*
X7199071Y-15592500D01*
X7241928Y-15592500D01*
X7270500Y-15606786D01*
X7284786Y-15621071D01*
X7299071Y-15649643D01*
X7299071Y-15721071D01*
X7284786Y-15749643D01*
X7270500Y-15763929D01*
X7241928Y-15778214D01*
X7156214Y-15778214D01*
X7127643Y-15763929D01*
X7113357Y-15749643D01*
X7427643Y-15749643D02*
X7441928Y-15763929D01*
X7427643Y-15778214D01*
X7413357Y-15763929D01*
X7427643Y-15749643D01*
X7427643Y-15778214D01*
X7556214Y-15506786D02*
X7570500Y-15492500D01*
X7599071Y-15478214D01*
X7670500Y-15478214D01*
X7699071Y-15492500D01*
X7713357Y-15506786D01*
X7727643Y-15535357D01*
X7727643Y-15563929D01*
X7713357Y-15606786D01*
X7541928Y-15778214D01*
X7727643Y-15778214D01*
X7913357Y-15478214D02*
X7941928Y-15478214D01*
X7970500Y-15492500D01*
X7984786Y-15506786D01*
X7999071Y-15535357D01*
X8013357Y-15592500D01*
X8013357Y-15663929D01*
X7999071Y-15721071D01*
X7984786Y-15749643D01*
X7970500Y-15763929D01*
X7941928Y-15778214D01*
X7913357Y-15778214D01*
X7884786Y-15763929D01*
X7870500Y-15749643D01*
X7856214Y-15721071D01*
X7841928Y-15663929D01*
X7841928Y-15592500D01*
X7856214Y-15535357D01*
X7870500Y-15506786D01*
X7884786Y-15492500D01*
X7913357Y-15478214D01*
X8141928Y-15778214D02*
X8141928Y-15578214D01*
X8141928Y-15606786D02*
X8156214Y-15592500D01*
X8184786Y-15578214D01*
X8227643Y-15578214D01*
X8256214Y-15592500D01*
X8270500Y-15621071D01*
X8270500Y-15778214D01*
X8270500Y-15621071D02*
X8284786Y-15592500D01*
X8313357Y-15578214D01*
X8356214Y-15578214D01*
X8384786Y-15592500D01*
X8399071Y-15621071D01*
X8399071Y-15778214D01*
X8541928Y-15778214D02*
X8541928Y-15578214D01*
X8541928Y-15606786D02*
X8556214Y-15592500D01*
X8584786Y-15578214D01*
X8627643Y-15578214D01*
X8656214Y-15592500D01*
X8670500Y-15621071D01*
X8670500Y-15778214D01*
X8670500Y-15621071D02*
X8684786Y-15592500D01*
X8713357Y-15578214D01*
X8756214Y-15578214D01*
X8784786Y-15592500D01*
X8799071Y-15621071D01*
X8799071Y-15778214D01*
X9384786Y-15463929D02*
X9127643Y-15849643D01*
X9770500Y-15478214D02*
X9799071Y-15478214D01*
X9827643Y-15492500D01*
X9841928Y-15506786D01*
X9856214Y-15535357D01*
X9870500Y-15592500D01*
X9870500Y-15663929D01*
X9856214Y-15721071D01*
X9841928Y-15749643D01*
X9827643Y-15763929D01*
X9799071Y-15778214D01*
X9770500Y-15778214D01*
X9741928Y-15763929D01*
X9727643Y-15749643D01*
X9713357Y-15721071D01*
X9699071Y-15663929D01*
X9699071Y-15592500D01*
X9713357Y-15535357D01*
X9727643Y-15506786D01*
X9741928Y-15492500D01*
X9770500Y-15478214D01*
X9999071Y-15749643D02*
X10013357Y-15763929D01*
X9999071Y-15778214D01*
X9984786Y-15763929D01*
X9999071Y-15749643D01*
X9999071Y-15778214D01*
X10299071Y-15778214D02*
X10127643Y-15778214D01*
X10213357Y-15778214D02*
X10213357Y-15478214D01*
X10184786Y-15521071D01*
X10156214Y-15549643D01*
X10127643Y-15563929D01*
X10413357Y-15506786D02*
X10427643Y-15492500D01*
X10456214Y-15478214D01*
X10527643Y-15478214D01*
X10556214Y-15492500D01*
X10570500Y-15506786D01*
X10584786Y-15535357D01*
X10584786Y-15563929D01*
X10570500Y-15606786D01*
X10399071Y-15778214D01*
X10584786Y-15778214D01*
X10841928Y-15478214D02*
X10784786Y-15478214D01*
X10756214Y-15492500D01*
X10741928Y-15506786D01*
X10713357Y-15549643D01*
X10699071Y-15606786D01*
X10699071Y-15721071D01*
X10713357Y-15749643D01*
X10727643Y-15763929D01*
X10756214Y-15778214D01*
X10813357Y-15778214D01*
X10841928Y-15763929D01*
X10856214Y-15749643D01*
X10870500Y-15721071D01*
X10870500Y-15649643D01*
X10856214Y-15621071D01*
X10841928Y-15606786D01*
X10813357Y-15592500D01*
X10756214Y-15592500D01*
X10727643Y-15606786D01*
X10713357Y-15621071D01*
X10699071Y-15649643D01*
X10984786Y-15478214D02*
X10984786Y-15535357D01*
X11099071Y-15478214D02*
X11099071Y-15535357D01*
X11541928Y-15892500D02*
X11527643Y-15878214D01*
X11499071Y-15835357D01*
X11484786Y-15806786D01*
X11470500Y-15763929D01*
X11456214Y-15692500D01*
X11456214Y-15635357D01*
X11470500Y-15563929D01*
X11484786Y-15521071D01*
X11499071Y-15492500D01*
X11527643Y-15449643D01*
X11541928Y-15435357D01*
X11784786Y-15578214D02*
X11784786Y-15778214D01*
X11713357Y-15463929D02*
X11641928Y-15678214D01*
X11827643Y-15678214D01*
X12170500Y-15778214D02*
X12170500Y-15478214D01*
X12299071Y-15778214D02*
X12299071Y-15621071D01*
X12284786Y-15592500D01*
X12256214Y-15578214D01*
X12213357Y-15578214D01*
X12184786Y-15592500D01*
X12170500Y-15606786D01*
X12484786Y-15778214D02*
X12456214Y-15763929D01*
X12441928Y-15749643D01*
X12427643Y-15721071D01*
X12427643Y-15635357D01*
X12441928Y-15606786D01*
X12456214Y-15592500D01*
X12484786Y-15578214D01*
X12527643Y-15578214D01*
X12556214Y-15592500D01*
X12570500Y-15606786D01*
X12584786Y-15635357D01*
X12584786Y-15721071D01*
X12570500Y-15749643D01*
X12556214Y-15763929D01*
X12527643Y-15778214D01*
X12484786Y-15778214D01*
X12756214Y-15778214D02*
X12727643Y-15763929D01*
X12713357Y-15735357D01*
X12713357Y-15478214D01*
X12984786Y-15763929D02*
X12956214Y-15778214D01*
X12899071Y-15778214D01*
X12870500Y-15763929D01*
X12856214Y-15735357D01*
X12856214Y-15621071D01*
X12870500Y-15592500D01*
X12899071Y-15578214D01*
X12956214Y-15578214D01*
X12984786Y-15592500D01*
X12999071Y-15621071D01*
X12999071Y-15649643D01*
X12856214Y-15678214D01*
X13113357Y-15763929D02*
X13141928Y-15778214D01*
X13199071Y-15778214D01*
X13227643Y-15763929D01*
X13241928Y-15735357D01*
X13241928Y-15721071D01*
X13227643Y-15692500D01*
X13199071Y-15678214D01*
X13156214Y-15678214D01*
X13127643Y-15663929D01*
X13113357Y-15635357D01*
X13113357Y-15621071D01*
X13127643Y-15592500D01*
X13156214Y-15578214D01*
X13199071Y-15578214D01*
X13227643Y-15592500D01*
X13341928Y-15892500D02*
X13356214Y-15878214D01*
X13384786Y-15835357D01*
X13399071Y-15806786D01*
X13413357Y-15763929D01*
X13427643Y-15692500D01*
X13427643Y-15635357D01*
X13413357Y-15563929D01*
X13399071Y-15521071D01*
X13384786Y-15492500D01*
X13356214Y-15449643D01*
X13341928Y-15435357D01*
M02*
