%TF.GenerationSoftware,KiCad,Pcbnew,(5.1.9)-1*%
%TF.CreationDate,2021-06-27T18:44:15-04:00*%
%TF.ProjectId,C64PowerSupply,43363450-6f77-4657-9253-7570706c792e,A*%
%TF.SameCoordinates,Original*%
%TF.FileFunction,Copper,L1,Top*%
%TF.FilePolarity,Positive*%
%FSLAX46Y46*%
G04 Gerber Fmt 4.6, Leading zero omitted, Abs format (unit mm)*
G04 Created by KiCad (PCBNEW (5.1.9)-1) date 2021-06-27 18:44:15*
%MOMM*%
%LPD*%
G01*
G04 APERTURE LIST*
%TA.AperFunction,ComponentPad*%
%ADD10C,3.000000*%
%TD*%
%TA.AperFunction,ComponentPad*%
%ADD11R,3.000000X3.000000*%
%TD*%
%TA.AperFunction,ComponentPad*%
%ADD12C,2.500000*%
%TD*%
%TA.AperFunction,ComponentPad*%
%ADD13C,5.700000*%
%TD*%
%TA.AperFunction,ComponentPad*%
%ADD14C,2.400000*%
%TD*%
%TA.AperFunction,ComponentPad*%
%ADD15C,0.100000*%
%TD*%
%TA.AperFunction,SMDPad,CuDef*%
%ADD16R,10.200000X3.500000*%
%TD*%
%TA.AperFunction,ComponentPad*%
%ADD17C,1.600000*%
%TD*%
%TA.AperFunction,ComponentPad*%
%ADD18R,1.600000X1.600000*%
%TD*%
%TA.AperFunction,SMDPad,CuDef*%
%ADD19R,2.159000X1.778000*%
%TD*%
%TA.AperFunction,ComponentPad*%
%ADD20O,1.800000X1.800000*%
%TD*%
%TA.AperFunction,ComponentPad*%
%ADD21R,1.800000X1.800000*%
%TD*%
%TA.AperFunction,ComponentPad*%
%ADD22R,2.400000X2.400000*%
%TD*%
%TA.AperFunction,ComponentPad*%
%ADD23R,1.700000X2.500000*%
%TD*%
%TA.AperFunction,ComponentPad*%
%ADD24O,1.700000X2.500000*%
%TD*%
%TA.AperFunction,Conductor*%
%ADD25C,1.000000*%
%TD*%
%TA.AperFunction,Conductor*%
%ADD26C,0.254000*%
%TD*%
%TA.AperFunction,Conductor*%
%ADD27C,0.100000*%
%TD*%
G04 APERTURE END LIST*
D10*
%TO.P,J2,4*%
%TO.N,/9VAC+*%
X191008000Y-105156000D03*
D11*
%TO.P,J2,1*%
%TO.N,GND*%
X191008000Y-89916000D03*
D10*
%TO.P,J2,3*%
%TO.N,/9VAC-*%
X191008000Y-100076000D03*
%TO.P,J2,2*%
%TO.N,VCC*%
X191008000Y-94996000D03*
%TD*%
%TO.P,J1,3*%
%TO.N,/HOT*%
X74676000Y-102108000D03*
%TO.P,J1,2*%
%TO.N,/NEUTRAL*%
X74676000Y-107188000D03*
D11*
%TO.P,J1,1*%
%TO.N,GND*%
X74676000Y-112268000D03*
%TD*%
D12*
%TO.P,F2,2*%
%TO.N,Net-(F2-Pad2)*%
X149352000Y-70725000D03*
%TO.P,F2,1*%
%TO.N,Net-(D1-Pad4)*%
X149352000Y-85725000D03*
%TD*%
%TO.P,F1,2*%
%TO.N,Net-(F1-Pad2)*%
X149225000Y-107428000D03*
%TO.P,F1,1*%
%TO.N,/9VAC+*%
X149225000Y-122428000D03*
%TD*%
D13*
%TO.P,H4,1*%
%TO.N,GND*%
X73660000Y-121920000D03*
%TD*%
%TO.P,H3,1*%
%TO.N,GND*%
X190500000Y-121920000D03*
%TD*%
%TO.P,H2,1*%
%TO.N,GND*%
X190500000Y-71120000D03*
%TD*%
%TO.P,H1,1*%
%TO.N,GND*%
X73660000Y-71120000D03*
%TD*%
D14*
%TO.P,D1,2*%
%TO.N,Net-(D1-Pad2)*%
X161448175Y-104156753D03*
%TA.AperFunction,ComponentPad*%
D15*
%TO.P,D1,1*%
%TO.N,/VUNREG*%
G36*
X153670000Y-94822944D02*
G01*
X155367056Y-96520000D01*
X153670000Y-98217056D01*
X151972944Y-96520000D01*
X153670000Y-94822944D01*
G37*
%TD.AperFunction*%
D14*
%TO.P,D1,4*%
%TO.N,Net-(D1-Pad4)*%
X161377464Y-88812536D03*
%TO.P,D1,3*%
%TO.N,GND*%
X169084928Y-96520000D03*
%TD*%
D16*
%TO.P,L1,2*%
%TO.N,VCC*%
X161544000Y-119632000D03*
%TO.P,L1,1*%
%TO.N,/REG-OUT*%
X161544000Y-113032000D03*
%TD*%
D17*
%TO.P,C5,2*%
%TO.N,GND*%
X191460000Y-113284000D03*
D18*
%TO.P,C5,1*%
%TO.N,VCC*%
X187960000Y-113284000D03*
%TD*%
D19*
%TO.P,D2,2*%
%TO.N,GND*%
X168656000Y-104140000D03*
%TO.P,D2,1*%
%TO.N,/REG-OUT*%
X168656000Y-108204000D03*
%TD*%
D20*
%TO.P,U1,5*%
%TO.N,GND*%
X173540000Y-102108000D03*
%TO.P,U1,4*%
%TO.N,/VADJ*%
X175240000Y-105808000D03*
%TO.P,U1,3*%
%TO.N,GND*%
X176940000Y-102108000D03*
%TO.P,U1,2*%
%TO.N,/REG-OUT*%
X178640000Y-105808000D03*
D21*
%TO.P,U1,1*%
%TO.N,/VUNREG*%
X180340000Y-102108000D03*
%TD*%
D17*
%TO.P,C4,2*%
%TO.N,GND*%
X176840000Y-94996000D03*
D18*
%TO.P,C4,1*%
%TO.N,/VUNREG*%
X180340000Y-94996000D03*
%TD*%
D14*
%TO.P,C3,2*%
%TO.N,GND*%
X182372000Y-76320000D03*
D22*
%TO.P,C3,1*%
%TO.N,/VUNREG*%
X182372000Y-83820000D03*
%TD*%
D14*
%TO.P,C2,2*%
%TO.N,GND*%
X164592000Y-72256000D03*
D22*
%TO.P,C2,1*%
%TO.N,/VUNREG*%
X164592000Y-79756000D03*
%TD*%
D14*
%TO.P,C1,2*%
%TO.N,/NEUTRAL*%
X74676000Y-80250000D03*
%TO.P,C1,1*%
%TO.N,/HOT*%
X74676000Y-95250000D03*
%TD*%
D23*
%TO.P,TR1,1*%
%TO.N,/HOT*%
X83820000Y-121920000D03*
D24*
%TO.P,TR1,2*%
%TO.N,/NEUTRAL*%
X83790000Y-116840000D03*
%TO.P,TR1,4*%
X83790000Y-71120000D03*
%TO.P,TR1,5*%
%TO.N,Net-(D1-Pad2)*%
X139700000Y-68580000D03*
%TO.P,TR1,6*%
%TO.N,Net-(F2-Pad2)*%
X139700000Y-73660000D03*
%TO.P,TR1,7*%
%TO.N,/9VAC-*%
X139700000Y-119380000D03*
%TO.P,TR1,8*%
%TO.N,Net-(F1-Pad2)*%
X139730000Y-124460000D03*
%TO.P,TR1,3*%
%TO.N,/HOT*%
X83820000Y-76200000D03*
%TD*%
D25*
%TO.N,/NEUTRAL*%
X83790000Y-114180680D02*
X83790000Y-116840000D01*
X76797320Y-107188000D02*
X83790000Y-114180680D01*
X74676000Y-107188000D02*
X76797320Y-107188000D01*
X83790000Y-71136000D02*
X83790000Y-71120000D01*
X74676000Y-80250000D02*
X83790000Y-71136000D01*
X71675999Y-83250001D02*
X74676000Y-80250000D01*
X71675999Y-104187999D02*
X71675999Y-83250001D01*
X74676000Y-107188000D02*
X71675999Y-104187999D01*
%TO.N,/HOT*%
X74676000Y-102108000D02*
X74676000Y-95250000D01*
X83820000Y-86106000D02*
X74676000Y-95250000D01*
X83820000Y-76200000D02*
X83820000Y-86106000D01*
X74676000Y-102108000D02*
X86868000Y-114300000D01*
X86868000Y-118872000D02*
X83820000Y-121920000D01*
X86868000Y-114300000D02*
X86868000Y-118872000D01*
%TO.N,GND*%
X168656000Y-96948928D02*
X169084928Y-96520000D01*
X168656000Y-104140000D02*
X168656000Y-96948928D01*
%TO.N,Net-(F2-Pad2)*%
X146417000Y-73660000D02*
X149352000Y-70725000D01*
X139700000Y-73660000D02*
X146417000Y-73660000D01*
%TO.N,Net-(D1-Pad4)*%
X158289928Y-85725000D02*
X161377464Y-88812536D01*
X149352000Y-85725000D02*
X158289928Y-85725000D01*
%TO.N,/VUNREG*%
X164592000Y-89594002D02*
X164592000Y-79756000D01*
X157666002Y-96520000D02*
X164592000Y-89594002D01*
X153670000Y-96520000D02*
X157666002Y-96520000D01*
X180340000Y-102108000D02*
X180340000Y-94996000D01*
X180340000Y-85852000D02*
X182372000Y-83820000D01*
X180340000Y-94996000D02*
X180340000Y-85852000D01*
X168656000Y-83820000D02*
X164592000Y-79756000D01*
X182372000Y-83820000D02*
X168656000Y-83820000D01*
%TO.N,VCC*%
X188007999Y-113236001D02*
X187960000Y-113284000D01*
X188007999Y-97996001D02*
X188007999Y-113236001D01*
X191008000Y-94996000D02*
X188007999Y-97996001D01*
X181356000Y-120904000D02*
X187960000Y-114300000D01*
X162816000Y-120904000D02*
X181356000Y-120904000D01*
X187960000Y-114300000D02*
X187960000Y-113284000D01*
X161544000Y-119632000D02*
X162816000Y-120904000D01*
%TO.N,/REG-OUT*%
X163828000Y-113032000D02*
X168656000Y-108204000D01*
X161544000Y-113032000D02*
X163828000Y-113032000D01*
X176239999Y-108208001D02*
X178640000Y-105808000D01*
X174087999Y-108208001D02*
X176239999Y-108208001D01*
X174083998Y-108204000D02*
X174087999Y-108208001D01*
X168656000Y-108204000D02*
X174083998Y-108204000D01*
%TO.N,Net-(D1-Pad2)*%
X157488361Y-104156753D02*
X161448175Y-104156753D01*
X137349990Y-84018382D02*
X157488361Y-104156753D01*
X137349990Y-72286594D02*
X137349990Y-84018382D01*
X139700000Y-69936584D02*
X137349990Y-72286594D01*
X139700000Y-68580000D02*
X139700000Y-69936584D01*
%TO.N,/9VAC+*%
X161534990Y-125974990D02*
X161544000Y-125974990D01*
X192287010Y-125974990D02*
X161534990Y-125974990D01*
X194554990Y-123707010D02*
X192287010Y-125974990D01*
X194554990Y-108702990D02*
X194554990Y-123707010D01*
X191008000Y-105156000D02*
X194554990Y-108702990D01*
X152898990Y-125974990D02*
X161534990Y-125974990D01*
X149352000Y-122428000D02*
X152898990Y-125974990D01*
X149225000Y-122428000D02*
X149352000Y-122428000D01*
%TD*%
D26*
%TO.N,GND*%
X139408889Y-66716487D02*
X139128966Y-66801401D01*
X138870986Y-66939294D01*
X138644866Y-67124866D01*
X138459294Y-67350987D01*
X138321401Y-67608967D01*
X138236487Y-67888890D01*
X138215000Y-68107051D01*
X138215000Y-69052950D01*
X138236487Y-69271111D01*
X138321401Y-69551034D01*
X138376791Y-69654661D01*
X136586855Y-71444598D01*
X136543541Y-71480145D01*
X136401706Y-71652971D01*
X136296315Y-71850147D01*
X136296314Y-71850148D01*
X136231413Y-72064096D01*
X136209499Y-72286594D01*
X136214990Y-72342346D01*
X136214991Y-83962621D01*
X136209499Y-84018382D01*
X136231413Y-84240880D01*
X136296314Y-84454828D01*
X136296315Y-84454829D01*
X136401707Y-84652005D01*
X136543542Y-84824831D01*
X136586850Y-84860373D01*
X156646370Y-104919894D01*
X156681912Y-104963202D01*
X156854738Y-105105037D01*
X157051914Y-105210429D01*
X157265862Y-105275330D01*
X157432609Y-105291753D01*
X157432618Y-105291753D01*
X157488360Y-105297243D01*
X157544102Y-105291753D01*
X159999622Y-105291753D01*
X160022837Y-105326497D01*
X160278431Y-105582091D01*
X160578976Y-105782909D01*
X160912925Y-105921235D01*
X161267443Y-105991753D01*
X161628907Y-105991753D01*
X161983425Y-105921235D01*
X162317374Y-105782909D01*
X162617919Y-105582091D01*
X162873513Y-105326497D01*
X163072294Y-105029000D01*
X166938428Y-105029000D01*
X166950688Y-105153482D01*
X166986998Y-105273180D01*
X167045963Y-105383494D01*
X167125315Y-105480185D01*
X167222006Y-105559537D01*
X167332320Y-105618502D01*
X167452018Y-105654812D01*
X167576500Y-105667072D01*
X168370250Y-105664000D01*
X168529000Y-105505250D01*
X168529000Y-104267000D01*
X168783000Y-104267000D01*
X168783000Y-105505250D01*
X168941750Y-105664000D01*
X169735500Y-105667072D01*
X169859982Y-105654812D01*
X169979680Y-105618502D01*
X170089994Y-105559537D01*
X170186685Y-105480185D01*
X170266037Y-105383494D01*
X170325002Y-105273180D01*
X170361312Y-105153482D01*
X170373572Y-105029000D01*
X170370500Y-104425750D01*
X170211750Y-104267000D01*
X168783000Y-104267000D01*
X168529000Y-104267000D01*
X167100250Y-104267000D01*
X166941500Y-104425750D01*
X166938428Y-105029000D01*
X163072294Y-105029000D01*
X163074331Y-105025952D01*
X163212657Y-104692003D01*
X163283175Y-104337485D01*
X163283175Y-103976021D01*
X163212657Y-103621503D01*
X163074331Y-103287554D01*
X163049907Y-103251000D01*
X166938428Y-103251000D01*
X166941500Y-103854250D01*
X167100250Y-104013000D01*
X168529000Y-104013000D01*
X168529000Y-102774750D01*
X168783000Y-102774750D01*
X168783000Y-104013000D01*
X170211750Y-104013000D01*
X170370500Y-103854250D01*
X170373572Y-103251000D01*
X170361312Y-103126518D01*
X170325002Y-103006820D01*
X170266037Y-102896506D01*
X170186685Y-102799815D01*
X170089994Y-102720463D01*
X169979680Y-102661498D01*
X169859982Y-102625188D01*
X169735500Y-102612928D01*
X168941750Y-102616000D01*
X168783000Y-102774750D01*
X168529000Y-102774750D01*
X168370250Y-102616000D01*
X167576500Y-102612928D01*
X167452018Y-102625188D01*
X167332320Y-102661498D01*
X167222006Y-102720463D01*
X167125315Y-102799815D01*
X167045963Y-102896506D01*
X166986998Y-103006820D01*
X166950688Y-103126518D01*
X166938428Y-103251000D01*
X163049907Y-103251000D01*
X162873513Y-102987009D01*
X162617919Y-102731415D01*
X162317374Y-102530597D01*
X162177695Y-102472740D01*
X172048964Y-102472740D01*
X172097606Y-102633107D01*
X172227764Y-102904414D01*
X172408351Y-103145116D01*
X172632427Y-103345962D01*
X172891380Y-103499234D01*
X173175259Y-103599041D01*
X173413000Y-103478992D01*
X173413000Y-102235000D01*
X173667000Y-102235000D01*
X173667000Y-103478992D01*
X173904741Y-103599041D01*
X174188620Y-103499234D01*
X174447573Y-103345962D01*
X174671649Y-103145116D01*
X174852236Y-102904414D01*
X174982394Y-102633107D01*
X175031036Y-102472740D01*
X175448964Y-102472740D01*
X175497606Y-102633107D01*
X175627764Y-102904414D01*
X175808351Y-103145116D01*
X176032427Y-103345962D01*
X176291380Y-103499234D01*
X176575259Y-103599041D01*
X176813000Y-103478992D01*
X176813000Y-102235000D01*
X177067000Y-102235000D01*
X177067000Y-103478992D01*
X177304741Y-103599041D01*
X177588620Y-103499234D01*
X177847573Y-103345962D01*
X178071649Y-103145116D01*
X178252236Y-102904414D01*
X178382394Y-102633107D01*
X178431036Y-102472740D01*
X178310378Y-102235000D01*
X177067000Y-102235000D01*
X176813000Y-102235000D01*
X175569622Y-102235000D01*
X175448964Y-102472740D01*
X175031036Y-102472740D01*
X174910378Y-102235000D01*
X173667000Y-102235000D01*
X173413000Y-102235000D01*
X172169622Y-102235000D01*
X172048964Y-102472740D01*
X162177695Y-102472740D01*
X161983425Y-102392271D01*
X161628907Y-102321753D01*
X161267443Y-102321753D01*
X160912925Y-102392271D01*
X160578976Y-102530597D01*
X160278431Y-102731415D01*
X160022837Y-102987009D01*
X159999622Y-103021753D01*
X157958493Y-103021753D01*
X156680000Y-101743260D01*
X172048964Y-101743260D01*
X172169622Y-101981000D01*
X173413000Y-101981000D01*
X173413000Y-100737008D01*
X173667000Y-100737008D01*
X173667000Y-101981000D01*
X174910378Y-101981000D01*
X175031036Y-101743260D01*
X175448964Y-101743260D01*
X175569622Y-101981000D01*
X176813000Y-101981000D01*
X176813000Y-100737008D01*
X177067000Y-100737008D01*
X177067000Y-101981000D01*
X178310378Y-101981000D01*
X178431036Y-101743260D01*
X178382394Y-101582893D01*
X178252236Y-101311586D01*
X178071649Y-101070884D01*
X177847573Y-100870038D01*
X177588620Y-100716766D01*
X177304741Y-100616959D01*
X177067000Y-100737008D01*
X176813000Y-100737008D01*
X176575259Y-100616959D01*
X176291380Y-100716766D01*
X176032427Y-100870038D01*
X175808351Y-101070884D01*
X175627764Y-101311586D01*
X175497606Y-101582893D01*
X175448964Y-101743260D01*
X175031036Y-101743260D01*
X174982394Y-101582893D01*
X174852236Y-101311586D01*
X174671649Y-101070884D01*
X174447573Y-100870038D01*
X174188620Y-100716766D01*
X173904741Y-100616959D01*
X173667000Y-100737008D01*
X173413000Y-100737008D01*
X173175259Y-100616959D01*
X172891380Y-100716766D01*
X172632427Y-100870038D01*
X172408351Y-101070884D01*
X172227764Y-101311586D01*
X172097606Y-101582893D01*
X172048964Y-101743260D01*
X156680000Y-101743260D01*
X153780941Y-98844202D01*
X153794482Y-98842868D01*
X153914180Y-98806558D01*
X154024494Y-98747593D01*
X154121185Y-98668241D01*
X155134426Y-97655000D01*
X157610251Y-97655000D01*
X157666002Y-97660491D01*
X157721753Y-97655000D01*
X157721754Y-97655000D01*
X157888501Y-97638577D01*
X158102449Y-97573676D01*
X158299625Y-97468284D01*
X158472451Y-97326449D01*
X158507998Y-97283135D01*
X158857935Y-96933198D01*
X167287942Y-96933198D01*
X167403082Y-97275833D01*
X167582854Y-97589422D01*
X167820350Y-97861913D01*
X168106443Y-98082835D01*
X168430138Y-98243699D01*
X168671730Y-98316986D01*
X168957928Y-98200336D01*
X168957928Y-96647000D01*
X169211928Y-96647000D01*
X169211928Y-98200336D01*
X169498126Y-98316986D01*
X169840761Y-98201846D01*
X170154350Y-98022074D01*
X170426841Y-97784578D01*
X170647763Y-97498485D01*
X170808627Y-97174790D01*
X170881914Y-96933198D01*
X170765264Y-96647000D01*
X169211928Y-96647000D01*
X168957928Y-96647000D01*
X167404592Y-96647000D01*
X167287942Y-96933198D01*
X158857935Y-96933198D01*
X159684331Y-96106802D01*
X167287942Y-96106802D01*
X167404592Y-96393000D01*
X168957928Y-96393000D01*
X168957928Y-94839664D01*
X169211928Y-94839664D01*
X169211928Y-96393000D01*
X170765264Y-96393000D01*
X170881914Y-96106802D01*
X170842228Y-95988702D01*
X176026903Y-95988702D01*
X176098486Y-96232671D01*
X176353996Y-96353571D01*
X176628184Y-96422300D01*
X176910512Y-96436217D01*
X177190130Y-96394787D01*
X177456292Y-96299603D01*
X177581514Y-96232671D01*
X177653097Y-95988702D01*
X176840000Y-95175605D01*
X176026903Y-95988702D01*
X170842228Y-95988702D01*
X170766774Y-95764167D01*
X170587002Y-95450578D01*
X170349506Y-95178087D01*
X170205017Y-95066512D01*
X175399783Y-95066512D01*
X175441213Y-95346130D01*
X175536397Y-95612292D01*
X175603329Y-95737514D01*
X175847298Y-95809097D01*
X176660395Y-94996000D01*
X177019605Y-94996000D01*
X177832702Y-95809097D01*
X178076671Y-95737514D01*
X178197571Y-95482004D01*
X178266300Y-95207816D01*
X178280217Y-94925488D01*
X178238787Y-94645870D01*
X178143603Y-94379708D01*
X178076671Y-94254486D01*
X177832702Y-94182903D01*
X177019605Y-94996000D01*
X176660395Y-94996000D01*
X175847298Y-94182903D01*
X175603329Y-94254486D01*
X175482429Y-94509996D01*
X175413700Y-94784184D01*
X175399783Y-95066512D01*
X170205017Y-95066512D01*
X170063413Y-94957165D01*
X169739718Y-94796301D01*
X169498126Y-94723014D01*
X169211928Y-94839664D01*
X168957928Y-94839664D01*
X168671730Y-94723014D01*
X168329095Y-94838154D01*
X168015506Y-95017926D01*
X167743015Y-95255422D01*
X167522093Y-95541515D01*
X167361229Y-95865210D01*
X167287942Y-96106802D01*
X159684331Y-96106802D01*
X161787835Y-94003298D01*
X176026903Y-94003298D01*
X176840000Y-94816395D01*
X177653097Y-94003298D01*
X177581514Y-93759329D01*
X177326004Y-93638429D01*
X177051816Y-93569700D01*
X176769488Y-93555783D01*
X176489870Y-93597213D01*
X176223708Y-93692397D01*
X176098486Y-93759329D01*
X176026903Y-94003298D01*
X161787835Y-94003298D01*
X165355141Y-90435993D01*
X165398449Y-90400451D01*
X165540284Y-90227625D01*
X165645676Y-90030449D01*
X165710577Y-89816501D01*
X165727000Y-89649754D01*
X165727000Y-89649745D01*
X165732490Y-89594003D01*
X165727000Y-89538261D01*
X165727000Y-82496131D01*
X167814009Y-84583141D01*
X167849551Y-84626449D01*
X168022377Y-84768284D01*
X168219553Y-84873676D01*
X168433501Y-84938577D01*
X168656000Y-84960491D01*
X168711751Y-84955000D01*
X179631869Y-84955000D01*
X179576860Y-85010009D01*
X179533552Y-85045551D01*
X179391717Y-85218377D01*
X179354207Y-85288554D01*
X179286324Y-85415554D01*
X179221423Y-85629502D01*
X179199509Y-85852000D01*
X179205001Y-85907761D01*
X179205000Y-93655043D01*
X179185506Y-93665463D01*
X179088815Y-93744815D01*
X179009463Y-93841506D01*
X178950498Y-93951820D01*
X178914188Y-94071518D01*
X178901928Y-94196000D01*
X178901928Y-95796000D01*
X178914188Y-95920482D01*
X178950498Y-96040180D01*
X179009463Y-96150494D01*
X179088815Y-96247185D01*
X179185506Y-96326537D01*
X179205001Y-96336957D01*
X179205000Y-100615713D01*
X179195820Y-100618498D01*
X179085506Y-100677463D01*
X178988815Y-100756815D01*
X178909463Y-100853506D01*
X178850498Y-100963820D01*
X178814188Y-101083518D01*
X178801928Y-101208000D01*
X178801928Y-103008000D01*
X178814188Y-103132482D01*
X178850498Y-103252180D01*
X178909463Y-103362494D01*
X178988815Y-103459185D01*
X179085506Y-103538537D01*
X179195820Y-103597502D01*
X179315518Y-103633812D01*
X179440000Y-103646072D01*
X181240000Y-103646072D01*
X181364482Y-103633812D01*
X181484180Y-103597502D01*
X181594494Y-103538537D01*
X181691185Y-103459185D01*
X181770537Y-103362494D01*
X181829502Y-103252180D01*
X181865812Y-103132482D01*
X181878072Y-103008000D01*
X181878072Y-101208000D01*
X181865812Y-101083518D01*
X181829502Y-100963820D01*
X181770537Y-100853506D01*
X181691185Y-100756815D01*
X181594494Y-100677463D01*
X181484180Y-100618498D01*
X181475000Y-100615713D01*
X181475000Y-96336957D01*
X181494494Y-96326537D01*
X181591185Y-96247185D01*
X181670537Y-96150494D01*
X181729502Y-96040180D01*
X181765812Y-95920482D01*
X181778072Y-95796000D01*
X181778072Y-94196000D01*
X181765812Y-94071518D01*
X181729502Y-93951820D01*
X181670537Y-93841506D01*
X181591185Y-93744815D01*
X181494494Y-93665463D01*
X181475000Y-93655043D01*
X181475000Y-91416000D01*
X188869928Y-91416000D01*
X188882188Y-91540482D01*
X188918498Y-91660180D01*
X188977463Y-91770494D01*
X189056815Y-91867185D01*
X189153506Y-91946537D01*
X189263820Y-92005502D01*
X189383518Y-92041812D01*
X189508000Y-92054072D01*
X190722250Y-92051000D01*
X190881000Y-91892250D01*
X190881000Y-90043000D01*
X191135000Y-90043000D01*
X191135000Y-91892250D01*
X191293750Y-92051000D01*
X192508000Y-92054072D01*
X192632482Y-92041812D01*
X192752180Y-92005502D01*
X192862494Y-91946537D01*
X192959185Y-91867185D01*
X193038537Y-91770494D01*
X193097502Y-91660180D01*
X193133812Y-91540482D01*
X193146072Y-91416000D01*
X193143000Y-90201750D01*
X192984250Y-90043000D01*
X191135000Y-90043000D01*
X190881000Y-90043000D01*
X189031750Y-90043000D01*
X188873000Y-90201750D01*
X188869928Y-91416000D01*
X181475000Y-91416000D01*
X181475000Y-88416000D01*
X188869928Y-88416000D01*
X188873000Y-89630250D01*
X189031750Y-89789000D01*
X190881000Y-89789000D01*
X190881000Y-87939750D01*
X191135000Y-87939750D01*
X191135000Y-89789000D01*
X192984250Y-89789000D01*
X193143000Y-89630250D01*
X193146072Y-88416000D01*
X193133812Y-88291518D01*
X193097502Y-88171820D01*
X193038537Y-88061506D01*
X192959185Y-87964815D01*
X192862494Y-87885463D01*
X192752180Y-87826498D01*
X192632482Y-87790188D01*
X192508000Y-87777928D01*
X191293750Y-87781000D01*
X191135000Y-87939750D01*
X190881000Y-87939750D01*
X190722250Y-87781000D01*
X189508000Y-87777928D01*
X189383518Y-87790188D01*
X189263820Y-87826498D01*
X189153506Y-87885463D01*
X189056815Y-87964815D01*
X188977463Y-88061506D01*
X188918498Y-88171820D01*
X188882188Y-88291518D01*
X188869928Y-88416000D01*
X181475000Y-88416000D01*
X181475000Y-86322131D01*
X182139059Y-85658072D01*
X183572000Y-85658072D01*
X183696482Y-85645812D01*
X183816180Y-85609502D01*
X183926494Y-85550537D01*
X184023185Y-85471185D01*
X184102537Y-85374494D01*
X184161502Y-85264180D01*
X184197812Y-85144482D01*
X184210072Y-85020000D01*
X184210072Y-82620000D01*
X184197812Y-82495518D01*
X184161502Y-82375820D01*
X184102537Y-82265506D01*
X184023185Y-82168815D01*
X183926494Y-82089463D01*
X183816180Y-82030498D01*
X183696482Y-81994188D01*
X183572000Y-81981928D01*
X181172000Y-81981928D01*
X181047518Y-81994188D01*
X180927820Y-82030498D01*
X180817506Y-82089463D01*
X180720815Y-82168815D01*
X180641463Y-82265506D01*
X180582498Y-82375820D01*
X180546188Y-82495518D01*
X180533928Y-82620000D01*
X180533928Y-82685000D01*
X169126132Y-82685000D01*
X166430072Y-79988941D01*
X166430072Y-78556000D01*
X166417812Y-78431518D01*
X166381502Y-78311820D01*
X166322537Y-78201506D01*
X166243185Y-78104815D01*
X166146494Y-78025463D01*
X166036180Y-77966498D01*
X165916482Y-77930188D01*
X165792000Y-77917928D01*
X163392000Y-77917928D01*
X163267518Y-77930188D01*
X163147820Y-77966498D01*
X163037506Y-78025463D01*
X162940815Y-78104815D01*
X162861463Y-78201506D01*
X162802498Y-78311820D01*
X162766188Y-78431518D01*
X162753928Y-78556000D01*
X162753928Y-80956000D01*
X162766188Y-81080482D01*
X162802498Y-81200180D01*
X162861463Y-81310494D01*
X162940815Y-81407185D01*
X163037506Y-81486537D01*
X163147820Y-81545502D01*
X163267518Y-81581812D01*
X163392000Y-81594072D01*
X163457001Y-81594072D01*
X163457000Y-89123870D01*
X163077502Y-89503368D01*
X163141946Y-89347786D01*
X163212464Y-88993268D01*
X163212464Y-88631804D01*
X163141946Y-88277286D01*
X163003620Y-87943337D01*
X162802802Y-87642792D01*
X162547208Y-87387198D01*
X162246663Y-87186380D01*
X161912714Y-87048054D01*
X161558196Y-86977536D01*
X161196732Y-86977536D01*
X161155748Y-86985688D01*
X159131924Y-84961865D01*
X159096377Y-84918551D01*
X158923551Y-84776716D01*
X158726375Y-84671324D01*
X158512427Y-84606423D01*
X158345680Y-84590000D01*
X158345679Y-84590000D01*
X158289928Y-84584509D01*
X158234177Y-84590000D01*
X150860688Y-84590000D01*
X150816175Y-84523382D01*
X150553618Y-84260825D01*
X150244882Y-84054534D01*
X149901834Y-83912439D01*
X149537656Y-83840000D01*
X149166344Y-83840000D01*
X148802166Y-83912439D01*
X148459118Y-84054534D01*
X148150382Y-84260825D01*
X147887825Y-84523382D01*
X147681534Y-84832118D01*
X147539439Y-85175166D01*
X147467000Y-85539344D01*
X147467000Y-85910656D01*
X147539439Y-86274834D01*
X147681534Y-86617882D01*
X147887825Y-86926618D01*
X148150382Y-87189175D01*
X148459118Y-87395466D01*
X148802166Y-87537561D01*
X149166344Y-87610000D01*
X149537656Y-87610000D01*
X149901834Y-87537561D01*
X150244882Y-87395466D01*
X150553618Y-87189175D01*
X150816175Y-86926618D01*
X150860688Y-86860000D01*
X157819797Y-86860000D01*
X159550616Y-88590820D01*
X159542464Y-88631804D01*
X159542464Y-88993268D01*
X159612982Y-89347786D01*
X159751308Y-89681735D01*
X159952126Y-89982280D01*
X160207720Y-90237874D01*
X160508265Y-90438692D01*
X160842214Y-90577018D01*
X161196732Y-90647536D01*
X161558196Y-90647536D01*
X161912714Y-90577018D01*
X162068297Y-90512574D01*
X157195871Y-95385000D01*
X155134426Y-95385000D01*
X154121185Y-94371759D01*
X154024494Y-94292407D01*
X153914180Y-94233442D01*
X153794482Y-94197132D01*
X153670000Y-94184872D01*
X153545518Y-94197132D01*
X153425820Y-94233442D01*
X153315506Y-94292407D01*
X153218815Y-94371759D01*
X151521759Y-96068815D01*
X151442407Y-96165506D01*
X151383442Y-96275820D01*
X151347132Y-96395518D01*
X151345798Y-96409059D01*
X138484990Y-83548251D01*
X138484990Y-77597980D01*
X181273626Y-77597980D01*
X181393514Y-77882836D01*
X181717210Y-78043699D01*
X182066069Y-78138322D01*
X182426684Y-78163067D01*
X182785198Y-78116985D01*
X183127833Y-78001846D01*
X183350486Y-77882836D01*
X183470374Y-77597980D01*
X182372000Y-76499605D01*
X181273626Y-77597980D01*
X138484990Y-77597980D01*
X138484990Y-76374684D01*
X180528933Y-76374684D01*
X180575015Y-76733198D01*
X180690154Y-77075833D01*
X180809164Y-77298486D01*
X181094020Y-77418374D01*
X182192395Y-76320000D01*
X182551605Y-76320000D01*
X183649980Y-77418374D01*
X183934836Y-77298486D01*
X184095699Y-76974790D01*
X184190322Y-76625931D01*
X184215067Y-76265316D01*
X184168985Y-75906802D01*
X184053846Y-75564167D01*
X183934836Y-75341514D01*
X183649980Y-75221626D01*
X182551605Y-76320000D01*
X182192395Y-76320000D01*
X181094020Y-75221626D01*
X180809164Y-75341514D01*
X180648301Y-75665210D01*
X180553678Y-76014069D01*
X180528933Y-76374684D01*
X138484990Y-76374684D01*
X138484990Y-74920325D01*
X138644866Y-75115134D01*
X138870987Y-75300706D01*
X139128967Y-75438599D01*
X139408890Y-75523513D01*
X139700000Y-75552185D01*
X139991111Y-75523513D01*
X140271034Y-75438599D01*
X140529014Y-75300706D01*
X140755134Y-75115134D01*
X140815137Y-75042020D01*
X181273626Y-75042020D01*
X182372000Y-76140395D01*
X183470374Y-75042020D01*
X183350486Y-74757164D01*
X183026790Y-74596301D01*
X182677931Y-74501678D01*
X182317316Y-74476933D01*
X181958802Y-74523015D01*
X181616167Y-74638154D01*
X181393514Y-74757164D01*
X181273626Y-75042020D01*
X140815137Y-75042020D01*
X140940706Y-74889014D01*
X140990957Y-74795000D01*
X146361249Y-74795000D01*
X146417000Y-74800491D01*
X146472751Y-74795000D01*
X146472752Y-74795000D01*
X146639499Y-74778577D01*
X146853447Y-74713676D01*
X147050623Y-74608284D01*
X147223449Y-74466449D01*
X147258996Y-74423135D01*
X148148151Y-73533980D01*
X163493626Y-73533980D01*
X163613514Y-73818836D01*
X163937210Y-73979699D01*
X164286069Y-74074322D01*
X164646684Y-74099067D01*
X165005198Y-74052985D01*
X165347833Y-73937846D01*
X165570486Y-73818836D01*
X165674358Y-73572033D01*
X188227572Y-73572033D01*
X188545757Y-74025850D01*
X189150210Y-74351269D01*
X189806535Y-74552512D01*
X190489510Y-74621845D01*
X191172888Y-74556605D01*
X191830407Y-74359298D01*
X192436799Y-74037506D01*
X192454243Y-74025850D01*
X192772428Y-73572033D01*
X190500000Y-71299605D01*
X188227572Y-73572033D01*
X165674358Y-73572033D01*
X165690374Y-73533980D01*
X164592000Y-72435605D01*
X163493626Y-73533980D01*
X148148151Y-73533980D01*
X149087762Y-72594369D01*
X149166344Y-72610000D01*
X149537656Y-72610000D01*
X149901834Y-72537561D01*
X150244882Y-72395466D01*
X150371767Y-72310684D01*
X162748933Y-72310684D01*
X162795015Y-72669198D01*
X162910154Y-73011833D01*
X163029164Y-73234486D01*
X163314020Y-73354374D01*
X164412395Y-72256000D01*
X164771605Y-72256000D01*
X165869980Y-73354374D01*
X166154836Y-73234486D01*
X166315699Y-72910790D01*
X166410322Y-72561931D01*
X166435067Y-72201316D01*
X166388985Y-71842802D01*
X166273846Y-71500167D01*
X166154836Y-71277514D01*
X165869980Y-71157626D01*
X164771605Y-72256000D01*
X164412395Y-72256000D01*
X163314020Y-71157626D01*
X163029164Y-71277514D01*
X162868301Y-71601210D01*
X162773678Y-71950069D01*
X162748933Y-72310684D01*
X150371767Y-72310684D01*
X150553618Y-72189175D01*
X150816175Y-71926618D01*
X151022466Y-71617882D01*
X151164561Y-71274834D01*
X151223600Y-70978020D01*
X163493626Y-70978020D01*
X164592000Y-72076395D01*
X165558884Y-71109510D01*
X186998155Y-71109510D01*
X187063395Y-71792888D01*
X187260702Y-72450407D01*
X187582494Y-73056799D01*
X187594150Y-73074243D01*
X188047967Y-73392428D01*
X190320395Y-71120000D01*
X190679605Y-71120000D01*
X192952033Y-73392428D01*
X193405850Y-73074243D01*
X193731269Y-72469790D01*
X193932512Y-71813465D01*
X194001845Y-71130490D01*
X193936605Y-70447112D01*
X193739298Y-69789593D01*
X193417506Y-69183201D01*
X193405850Y-69165757D01*
X192952033Y-68847572D01*
X190679605Y-71120000D01*
X190320395Y-71120000D01*
X188047967Y-68847572D01*
X187594150Y-69165757D01*
X187268731Y-69770210D01*
X187067488Y-70426535D01*
X186998155Y-71109510D01*
X165558884Y-71109510D01*
X165690374Y-70978020D01*
X165570486Y-70693164D01*
X165246790Y-70532301D01*
X164897931Y-70437678D01*
X164537316Y-70412933D01*
X164178802Y-70459015D01*
X163836167Y-70574154D01*
X163613514Y-70693164D01*
X163493626Y-70978020D01*
X151223600Y-70978020D01*
X151237000Y-70910656D01*
X151237000Y-70539344D01*
X151164561Y-70175166D01*
X151022466Y-69832118D01*
X150816175Y-69523382D01*
X150553618Y-69260825D01*
X150244882Y-69054534D01*
X149901834Y-68912439D01*
X149537656Y-68840000D01*
X149166344Y-68840000D01*
X148802166Y-68912439D01*
X148459118Y-69054534D01*
X148150382Y-69260825D01*
X147887825Y-69523382D01*
X147681534Y-69832118D01*
X147539439Y-70175166D01*
X147467000Y-70539344D01*
X147467000Y-70910656D01*
X147482631Y-70989238D01*
X145946869Y-72525000D01*
X140990957Y-72525000D01*
X140940706Y-72430986D01*
X140755134Y-72204866D01*
X140529013Y-72019294D01*
X140271033Y-71881401D01*
X139991110Y-71796487D01*
X139700000Y-71767815D01*
X139449199Y-71792517D01*
X140463141Y-70778575D01*
X140506449Y-70743033D01*
X140648284Y-70570207D01*
X140753676Y-70373031D01*
X140818577Y-70159083D01*
X140835000Y-69992336D01*
X140840491Y-69936585D01*
X140840011Y-69931711D01*
X140940706Y-69809014D01*
X141078599Y-69551034D01*
X141163513Y-69271111D01*
X141185000Y-69052949D01*
X141185000Y-68667967D01*
X188227572Y-68667967D01*
X190500000Y-70940395D01*
X192772428Y-68667967D01*
X192454243Y-68214150D01*
X191849790Y-67888731D01*
X191193465Y-67687488D01*
X190510490Y-67618155D01*
X189827112Y-67683395D01*
X189169593Y-67880702D01*
X188563201Y-68202494D01*
X188545757Y-68214150D01*
X188227572Y-68667967D01*
X141185000Y-68667967D01*
X141185000Y-68107050D01*
X141163513Y-67888889D01*
X141078599Y-67608966D01*
X140940706Y-67350986D01*
X140755134Y-67124866D01*
X140529013Y-66939294D01*
X140271033Y-66801401D01*
X139991110Y-66716487D01*
X139823716Y-66700000D01*
X194920000Y-66700000D01*
X194920001Y-107462869D01*
X193089977Y-105632845D01*
X193143000Y-105366279D01*
X193143000Y-104945721D01*
X193060953Y-104533244D01*
X192900012Y-104144698D01*
X192666363Y-103795017D01*
X192368983Y-103497637D01*
X192019302Y-103263988D01*
X191630756Y-103103047D01*
X191218279Y-103021000D01*
X190797721Y-103021000D01*
X190385244Y-103103047D01*
X189996698Y-103263988D01*
X189647017Y-103497637D01*
X189349637Y-103795017D01*
X189142999Y-104104273D01*
X189142999Y-101127727D01*
X189349637Y-101436983D01*
X189647017Y-101734363D01*
X189996698Y-101968012D01*
X190385244Y-102128953D01*
X190797721Y-102211000D01*
X191218279Y-102211000D01*
X191630756Y-102128953D01*
X192019302Y-101968012D01*
X192368983Y-101734363D01*
X192666363Y-101436983D01*
X192900012Y-101087302D01*
X193060953Y-100698756D01*
X193143000Y-100286279D01*
X193143000Y-99865721D01*
X193060953Y-99453244D01*
X192900012Y-99064698D01*
X192666363Y-98715017D01*
X192368983Y-98417637D01*
X192019302Y-98183988D01*
X191630756Y-98023047D01*
X191218279Y-97941000D01*
X190797721Y-97941000D01*
X190385244Y-98023047D01*
X189996698Y-98183988D01*
X189647017Y-98417637D01*
X189349637Y-98715017D01*
X189142999Y-99024273D01*
X189142999Y-98466132D01*
X190531155Y-97077977D01*
X190797721Y-97131000D01*
X191218279Y-97131000D01*
X191630756Y-97048953D01*
X192019302Y-96888012D01*
X192368983Y-96654363D01*
X192666363Y-96356983D01*
X192900012Y-96007302D01*
X193060953Y-95618756D01*
X193143000Y-95206279D01*
X193143000Y-94785721D01*
X193060953Y-94373244D01*
X192900012Y-93984698D01*
X192666363Y-93635017D01*
X192368983Y-93337637D01*
X192019302Y-93103988D01*
X191630756Y-92943047D01*
X191218279Y-92861000D01*
X190797721Y-92861000D01*
X190385244Y-92943047D01*
X189996698Y-93103988D01*
X189647017Y-93337637D01*
X189349637Y-93635017D01*
X189115988Y-93984698D01*
X188955047Y-94373244D01*
X188873000Y-94785721D01*
X188873000Y-95206279D01*
X188926023Y-95472845D01*
X187244864Y-97154005D01*
X187201550Y-97189552D01*
X187059715Y-97362378D01*
X186954324Y-97559554D01*
X186954323Y-97559555D01*
X186889422Y-97773503D01*
X186867508Y-97996001D01*
X186872999Y-98051752D01*
X186873000Y-111917386D01*
X186805506Y-111953463D01*
X186708815Y-112032815D01*
X186629463Y-112129506D01*
X186570498Y-112239820D01*
X186534188Y-112359518D01*
X186521928Y-112484000D01*
X186521928Y-114084000D01*
X186526316Y-114128552D01*
X180885869Y-119769000D01*
X167282072Y-119769000D01*
X167282072Y-117882000D01*
X167269812Y-117757518D01*
X167259000Y-117721876D01*
X167259000Y-114942124D01*
X167269812Y-114906482D01*
X167282072Y-114782000D01*
X167282072Y-114004520D01*
X169672000Y-114004520D01*
X169672000Y-114392280D01*
X169747648Y-114772590D01*
X169896038Y-115130835D01*
X170111466Y-115453246D01*
X170385654Y-115727434D01*
X170708065Y-115942862D01*
X171066310Y-116091252D01*
X171446620Y-116166900D01*
X171834380Y-116166900D01*
X172214690Y-116091252D01*
X172572935Y-115942862D01*
X172895346Y-115727434D01*
X173169534Y-115453246D01*
X173384962Y-115130835D01*
X173533352Y-114772590D01*
X173609000Y-114392280D01*
X173609000Y-114004520D01*
X179959000Y-114004520D01*
X179959000Y-114392280D01*
X180034648Y-114772590D01*
X180183038Y-115130835D01*
X180398466Y-115453246D01*
X180672654Y-115727434D01*
X180995065Y-115942862D01*
X181353310Y-116091252D01*
X181733620Y-116166900D01*
X182121380Y-116166900D01*
X182501690Y-116091252D01*
X182859935Y-115942862D01*
X183182346Y-115727434D01*
X183456534Y-115453246D01*
X183671962Y-115130835D01*
X183820352Y-114772590D01*
X183896000Y-114392280D01*
X183896000Y-114004520D01*
X183820352Y-113624210D01*
X183671962Y-113265965D01*
X183456534Y-112943554D01*
X183182346Y-112669366D01*
X182859935Y-112453938D01*
X182501690Y-112305548D01*
X182121380Y-112229900D01*
X181733620Y-112229900D01*
X181353310Y-112305548D01*
X180995065Y-112453938D01*
X180672654Y-112669366D01*
X180398466Y-112943554D01*
X180183038Y-113265965D01*
X180034648Y-113624210D01*
X179959000Y-114004520D01*
X173609000Y-114004520D01*
X173533352Y-113624210D01*
X173384962Y-113265965D01*
X173169534Y-112943554D01*
X172895346Y-112669366D01*
X172572935Y-112453938D01*
X172214690Y-112305548D01*
X171834380Y-112229900D01*
X171446620Y-112229900D01*
X171066310Y-112305548D01*
X170708065Y-112453938D01*
X170385654Y-112669366D01*
X170111466Y-112943554D01*
X169896038Y-113265965D01*
X169747648Y-113624210D01*
X169672000Y-114004520D01*
X167282072Y-114004520D01*
X167282072Y-111282000D01*
X167273201Y-111191930D01*
X168734060Y-109731072D01*
X169735500Y-109731072D01*
X169859982Y-109718812D01*
X169979680Y-109682502D01*
X170089994Y-109623537D01*
X170186685Y-109544185D01*
X170266037Y-109447494D01*
X170324029Y-109339000D01*
X173991624Y-109339000D01*
X174032247Y-109343001D01*
X174032257Y-109343001D01*
X174087998Y-109348491D01*
X174143740Y-109343001D01*
X176184248Y-109343001D01*
X176239999Y-109348492D01*
X176295750Y-109343001D01*
X176295751Y-109343001D01*
X176462498Y-109326578D01*
X176676446Y-109261677D01*
X176873622Y-109156285D01*
X177046448Y-109014450D01*
X177081995Y-108971136D01*
X178710132Y-107343000D01*
X178791184Y-107343000D01*
X179087743Y-107284011D01*
X179367095Y-107168299D01*
X179618505Y-107000312D01*
X179832312Y-106786505D01*
X180000299Y-106535095D01*
X180116011Y-106255743D01*
X180175000Y-105959184D01*
X180175000Y-105656816D01*
X180116011Y-105360257D01*
X180000299Y-105080905D01*
X179832312Y-104829495D01*
X179618505Y-104615688D01*
X179367095Y-104447701D01*
X179087743Y-104331989D01*
X178791184Y-104273000D01*
X178488816Y-104273000D01*
X178192257Y-104331989D01*
X177912905Y-104447701D01*
X177661495Y-104615688D01*
X177447688Y-104829495D01*
X177279701Y-105080905D01*
X177163989Y-105360257D01*
X177105000Y-105656816D01*
X177105000Y-105737868D01*
X176748013Y-106094855D01*
X176775000Y-105959184D01*
X176775000Y-105656816D01*
X176716011Y-105360257D01*
X176600299Y-105080905D01*
X176432312Y-104829495D01*
X176218505Y-104615688D01*
X175967095Y-104447701D01*
X175687743Y-104331989D01*
X175391184Y-104273000D01*
X175088816Y-104273000D01*
X174792257Y-104331989D01*
X174512905Y-104447701D01*
X174261495Y-104615688D01*
X174047688Y-104829495D01*
X173879701Y-105080905D01*
X173763989Y-105360257D01*
X173705000Y-105656816D01*
X173705000Y-105959184D01*
X173763989Y-106255743D01*
X173879701Y-106535095D01*
X174047688Y-106786505D01*
X174261495Y-107000312D01*
X174370282Y-107073001D01*
X174180373Y-107073001D01*
X174139750Y-107069000D01*
X174139749Y-107069000D01*
X174083998Y-107063509D01*
X174028247Y-107069000D01*
X170324029Y-107069000D01*
X170266037Y-106960506D01*
X170186685Y-106863815D01*
X170089994Y-106784463D01*
X169979680Y-106725498D01*
X169859982Y-106689188D01*
X169735500Y-106676928D01*
X167576500Y-106676928D01*
X167452018Y-106689188D01*
X167332320Y-106725498D01*
X167222006Y-106784463D01*
X167125315Y-106863815D01*
X167045963Y-106960506D01*
X166986998Y-107070820D01*
X166950688Y-107190518D01*
X166938428Y-107315000D01*
X166938428Y-108316440D01*
X164637869Y-110617000D01*
X155956000Y-110617000D01*
X155931224Y-110619440D01*
X155907399Y-110626667D01*
X155885443Y-110638403D01*
X155866197Y-110654197D01*
X155850403Y-110673443D01*
X155838667Y-110695399D01*
X155831440Y-110719224D01*
X155829000Y-110744000D01*
X155829000Y-111121876D01*
X155818188Y-111157518D01*
X155805928Y-111282000D01*
X155805928Y-114782000D01*
X155818188Y-114906482D01*
X155829000Y-114942124D01*
X155829000Y-117721876D01*
X155818188Y-117757518D01*
X155805928Y-117882000D01*
X155805928Y-121382000D01*
X155818188Y-121506482D01*
X155829000Y-121542124D01*
X155829000Y-121920000D01*
X155831440Y-121944776D01*
X155838667Y-121968601D01*
X155850403Y-121990557D01*
X155866197Y-122009803D01*
X155885443Y-122025597D01*
X155907399Y-122037333D01*
X155931224Y-122044560D01*
X155956000Y-122047000D01*
X167132000Y-122047000D01*
X167156776Y-122044560D01*
X167175105Y-122039000D01*
X181300249Y-122039000D01*
X181356000Y-122044491D01*
X181411751Y-122039000D01*
X181411752Y-122039000D01*
X181578499Y-122022577D01*
X181792447Y-121957676D01*
X181882559Y-121909510D01*
X186998155Y-121909510D01*
X187063395Y-122592888D01*
X187260702Y-123250407D01*
X187582494Y-123856799D01*
X187594150Y-123874243D01*
X188047967Y-124192428D01*
X190320395Y-121920000D01*
X188047967Y-119647572D01*
X187594150Y-119965757D01*
X187268731Y-120570210D01*
X187067488Y-121226535D01*
X186998155Y-121909510D01*
X181882559Y-121909510D01*
X181989623Y-121852284D01*
X182162449Y-121710449D01*
X182197996Y-121667135D01*
X184397164Y-119467967D01*
X188227572Y-119467967D01*
X190500000Y-121740395D01*
X192772428Y-119467967D01*
X192454243Y-119014150D01*
X191849790Y-118688731D01*
X191193465Y-118487488D01*
X190510490Y-118418155D01*
X189827112Y-118483395D01*
X189169593Y-118680702D01*
X188563201Y-119002494D01*
X188545757Y-119014150D01*
X188227572Y-119467967D01*
X184397164Y-119467967D01*
X188723141Y-115141991D01*
X188766449Y-115106449D01*
X188908284Y-114933623D01*
X189013676Y-114736447D01*
X189038303Y-114655262D01*
X189114494Y-114614537D01*
X189211185Y-114535185D01*
X189290537Y-114438494D01*
X189349502Y-114328180D01*
X189365117Y-114276702D01*
X190646903Y-114276702D01*
X190718486Y-114520671D01*
X190973996Y-114641571D01*
X191248184Y-114710300D01*
X191530512Y-114724217D01*
X191810130Y-114682787D01*
X192076292Y-114587603D01*
X192201514Y-114520671D01*
X192273097Y-114276702D01*
X191460000Y-113463605D01*
X190646903Y-114276702D01*
X189365117Y-114276702D01*
X189385812Y-114208482D01*
X189398072Y-114084000D01*
X189398072Y-113354512D01*
X190019783Y-113354512D01*
X190061213Y-113634130D01*
X190156397Y-113900292D01*
X190223329Y-114025514D01*
X190467298Y-114097097D01*
X191280395Y-113284000D01*
X191639605Y-113284000D01*
X192452702Y-114097097D01*
X192696671Y-114025514D01*
X192817571Y-113770004D01*
X192886300Y-113495816D01*
X192900217Y-113213488D01*
X192858787Y-112933870D01*
X192763603Y-112667708D01*
X192696671Y-112542486D01*
X192452702Y-112470903D01*
X191639605Y-113284000D01*
X191280395Y-113284000D01*
X190467298Y-112470903D01*
X190223329Y-112542486D01*
X190102429Y-112797996D01*
X190033700Y-113072184D01*
X190019783Y-113354512D01*
X189398072Y-113354512D01*
X189398072Y-112484000D01*
X189385812Y-112359518D01*
X189365118Y-112291298D01*
X190646903Y-112291298D01*
X191460000Y-113104395D01*
X192273097Y-112291298D01*
X192201514Y-112047329D01*
X191946004Y-111926429D01*
X191671816Y-111857700D01*
X191389488Y-111843783D01*
X191109870Y-111885213D01*
X190843708Y-111980397D01*
X190718486Y-112047329D01*
X190646903Y-112291298D01*
X189365118Y-112291298D01*
X189349502Y-112239820D01*
X189290537Y-112129506D01*
X189211185Y-112032815D01*
X189142999Y-111976856D01*
X189142999Y-106207727D01*
X189349637Y-106516983D01*
X189647017Y-106814363D01*
X189996698Y-107048012D01*
X190385244Y-107208953D01*
X190797721Y-107291000D01*
X191218279Y-107291000D01*
X191484845Y-107237977D01*
X193419990Y-109173122D01*
X193419991Y-119987883D01*
X193417506Y-119983201D01*
X193405850Y-119965757D01*
X192952033Y-119647572D01*
X190679605Y-121920000D01*
X190693748Y-121934143D01*
X190514143Y-122113748D01*
X190500000Y-122099605D01*
X188227572Y-124372033D01*
X188545757Y-124825850D01*
X188572021Y-124839990D01*
X153369122Y-124839990D01*
X151110000Y-122580869D01*
X151110000Y-122242344D01*
X151037561Y-121878166D01*
X150895466Y-121535118D01*
X150689175Y-121226382D01*
X150426618Y-120963825D01*
X150117882Y-120757534D01*
X149774834Y-120615439D01*
X149410656Y-120543000D01*
X149039344Y-120543000D01*
X148675166Y-120615439D01*
X148332118Y-120757534D01*
X148023382Y-120963825D01*
X147760825Y-121226382D01*
X147554534Y-121535118D01*
X147412439Y-121878166D01*
X147340000Y-122242344D01*
X147340000Y-122613656D01*
X147412439Y-122977834D01*
X147554534Y-123320882D01*
X147760825Y-123629618D01*
X148023382Y-123892175D01*
X148332118Y-124098466D01*
X148675166Y-124240561D01*
X149039344Y-124313000D01*
X149410656Y-124313000D01*
X149595167Y-124276299D01*
X151658868Y-126340000D01*
X139853716Y-126340000D01*
X140021111Y-126323513D01*
X140301034Y-126238599D01*
X140559014Y-126100706D01*
X140785134Y-125915134D01*
X140970706Y-125689014D01*
X141108599Y-125431034D01*
X141193513Y-125151111D01*
X141215000Y-124932949D01*
X141215000Y-123987050D01*
X141193513Y-123768889D01*
X141108599Y-123488966D01*
X140970706Y-123230986D01*
X140785134Y-123004866D01*
X140559013Y-122819294D01*
X140301033Y-122681401D01*
X140021110Y-122596487D01*
X139730000Y-122567815D01*
X139438889Y-122596487D01*
X139158966Y-122681401D01*
X138900986Y-122819294D01*
X138674866Y-123004866D01*
X138489294Y-123230987D01*
X138351401Y-123488967D01*
X138266487Y-123768890D01*
X138245000Y-123987051D01*
X138245000Y-124932950D01*
X138266487Y-125151111D01*
X138351401Y-125431034D01*
X138489294Y-125689014D01*
X138674866Y-125915134D01*
X138900987Y-126100706D01*
X139158967Y-126238599D01*
X139438890Y-126323513D01*
X139606284Y-126340000D01*
X89535000Y-126340000D01*
X89535000Y-118907051D01*
X138215000Y-118907051D01*
X138215000Y-119852950D01*
X138236487Y-120071111D01*
X138321401Y-120351034D01*
X138459294Y-120609014D01*
X138644866Y-120835134D01*
X138870987Y-121020706D01*
X139128967Y-121158599D01*
X139408890Y-121243513D01*
X139700000Y-121272185D01*
X139991111Y-121243513D01*
X140271034Y-121158599D01*
X140529014Y-121020706D01*
X140755134Y-120835134D01*
X140940706Y-120609014D01*
X141078599Y-120351034D01*
X141163513Y-120071111D01*
X141185000Y-119852949D01*
X141185000Y-118907050D01*
X141163513Y-118688889D01*
X141078599Y-118408966D01*
X140940706Y-118150986D01*
X140755134Y-117924866D01*
X140529013Y-117739294D01*
X140271033Y-117601401D01*
X139991110Y-117516487D01*
X139700000Y-117487815D01*
X139408889Y-117516487D01*
X139128966Y-117601401D01*
X138870986Y-117739294D01*
X138644866Y-117924866D01*
X138459294Y-118150987D01*
X138321401Y-118408967D01*
X138236487Y-118688890D01*
X138215000Y-118907051D01*
X89535000Y-118907051D01*
X89535000Y-107242344D01*
X147340000Y-107242344D01*
X147340000Y-107613656D01*
X147412439Y-107977834D01*
X147554534Y-108320882D01*
X147760825Y-108629618D01*
X148023382Y-108892175D01*
X148332118Y-109098466D01*
X148675166Y-109240561D01*
X149039344Y-109313000D01*
X149410656Y-109313000D01*
X149774834Y-109240561D01*
X150117882Y-109098466D01*
X150426618Y-108892175D01*
X150689175Y-108629618D01*
X150895466Y-108320882D01*
X151037561Y-107977834D01*
X151110000Y-107613656D01*
X151110000Y-107242344D01*
X151037561Y-106878166D01*
X150895466Y-106535118D01*
X150689175Y-106226382D01*
X150426618Y-105963825D01*
X150117882Y-105757534D01*
X149774834Y-105615439D01*
X149410656Y-105543000D01*
X149039344Y-105543000D01*
X148675166Y-105615439D01*
X148332118Y-105757534D01*
X148023382Y-105963825D01*
X147760825Y-106226382D01*
X147554534Y-106535118D01*
X147412439Y-106878166D01*
X147340000Y-107242344D01*
X89535000Y-107242344D01*
X89535000Y-96245701D01*
X108975000Y-96245701D01*
X108975000Y-96794299D01*
X109082026Y-97332354D01*
X109291965Y-97839192D01*
X109596750Y-98295334D01*
X109984666Y-98683250D01*
X110440808Y-98988035D01*
X110947646Y-99197974D01*
X111485701Y-99305000D01*
X112034299Y-99305000D01*
X112572354Y-99197974D01*
X113079192Y-98988035D01*
X113535334Y-98683250D01*
X113923250Y-98295334D01*
X114228035Y-97839192D01*
X114437974Y-97332354D01*
X114545000Y-96794299D01*
X114545000Y-96245701D01*
X114437974Y-95707646D01*
X114228035Y-95200808D01*
X113923250Y-94744666D01*
X113535334Y-94356750D01*
X113079192Y-94051965D01*
X112572354Y-93842026D01*
X112034299Y-93735000D01*
X111485701Y-93735000D01*
X110947646Y-93842026D01*
X110440808Y-94051965D01*
X109984666Y-94356750D01*
X109596750Y-94744666D01*
X109291965Y-95200808D01*
X109082026Y-95707646D01*
X108975000Y-96245701D01*
X89535000Y-96245701D01*
X89535000Y-66700000D01*
X139576284Y-66700000D01*
X139408889Y-66716487D01*
%TA.AperFunction,Conductor*%
D27*
G36*
X139408889Y-66716487D02*
G01*
X139128966Y-66801401D01*
X138870986Y-66939294D01*
X138644866Y-67124866D01*
X138459294Y-67350987D01*
X138321401Y-67608967D01*
X138236487Y-67888890D01*
X138215000Y-68107051D01*
X138215000Y-69052950D01*
X138236487Y-69271111D01*
X138321401Y-69551034D01*
X138376791Y-69654661D01*
X136586855Y-71444598D01*
X136543541Y-71480145D01*
X136401706Y-71652971D01*
X136296315Y-71850147D01*
X136296314Y-71850148D01*
X136231413Y-72064096D01*
X136209499Y-72286594D01*
X136214990Y-72342346D01*
X136214991Y-83962621D01*
X136209499Y-84018382D01*
X136231413Y-84240880D01*
X136296314Y-84454828D01*
X136296315Y-84454829D01*
X136401707Y-84652005D01*
X136543542Y-84824831D01*
X136586850Y-84860373D01*
X156646370Y-104919894D01*
X156681912Y-104963202D01*
X156854738Y-105105037D01*
X157051914Y-105210429D01*
X157265862Y-105275330D01*
X157432609Y-105291753D01*
X157432618Y-105291753D01*
X157488360Y-105297243D01*
X157544102Y-105291753D01*
X159999622Y-105291753D01*
X160022837Y-105326497D01*
X160278431Y-105582091D01*
X160578976Y-105782909D01*
X160912925Y-105921235D01*
X161267443Y-105991753D01*
X161628907Y-105991753D01*
X161983425Y-105921235D01*
X162317374Y-105782909D01*
X162617919Y-105582091D01*
X162873513Y-105326497D01*
X163072294Y-105029000D01*
X166938428Y-105029000D01*
X166950688Y-105153482D01*
X166986998Y-105273180D01*
X167045963Y-105383494D01*
X167125315Y-105480185D01*
X167222006Y-105559537D01*
X167332320Y-105618502D01*
X167452018Y-105654812D01*
X167576500Y-105667072D01*
X168370250Y-105664000D01*
X168529000Y-105505250D01*
X168529000Y-104267000D01*
X168783000Y-104267000D01*
X168783000Y-105505250D01*
X168941750Y-105664000D01*
X169735500Y-105667072D01*
X169859982Y-105654812D01*
X169979680Y-105618502D01*
X170089994Y-105559537D01*
X170186685Y-105480185D01*
X170266037Y-105383494D01*
X170325002Y-105273180D01*
X170361312Y-105153482D01*
X170373572Y-105029000D01*
X170370500Y-104425750D01*
X170211750Y-104267000D01*
X168783000Y-104267000D01*
X168529000Y-104267000D01*
X167100250Y-104267000D01*
X166941500Y-104425750D01*
X166938428Y-105029000D01*
X163072294Y-105029000D01*
X163074331Y-105025952D01*
X163212657Y-104692003D01*
X163283175Y-104337485D01*
X163283175Y-103976021D01*
X163212657Y-103621503D01*
X163074331Y-103287554D01*
X163049907Y-103251000D01*
X166938428Y-103251000D01*
X166941500Y-103854250D01*
X167100250Y-104013000D01*
X168529000Y-104013000D01*
X168529000Y-102774750D01*
X168783000Y-102774750D01*
X168783000Y-104013000D01*
X170211750Y-104013000D01*
X170370500Y-103854250D01*
X170373572Y-103251000D01*
X170361312Y-103126518D01*
X170325002Y-103006820D01*
X170266037Y-102896506D01*
X170186685Y-102799815D01*
X170089994Y-102720463D01*
X169979680Y-102661498D01*
X169859982Y-102625188D01*
X169735500Y-102612928D01*
X168941750Y-102616000D01*
X168783000Y-102774750D01*
X168529000Y-102774750D01*
X168370250Y-102616000D01*
X167576500Y-102612928D01*
X167452018Y-102625188D01*
X167332320Y-102661498D01*
X167222006Y-102720463D01*
X167125315Y-102799815D01*
X167045963Y-102896506D01*
X166986998Y-103006820D01*
X166950688Y-103126518D01*
X166938428Y-103251000D01*
X163049907Y-103251000D01*
X162873513Y-102987009D01*
X162617919Y-102731415D01*
X162317374Y-102530597D01*
X162177695Y-102472740D01*
X172048964Y-102472740D01*
X172097606Y-102633107D01*
X172227764Y-102904414D01*
X172408351Y-103145116D01*
X172632427Y-103345962D01*
X172891380Y-103499234D01*
X173175259Y-103599041D01*
X173413000Y-103478992D01*
X173413000Y-102235000D01*
X173667000Y-102235000D01*
X173667000Y-103478992D01*
X173904741Y-103599041D01*
X174188620Y-103499234D01*
X174447573Y-103345962D01*
X174671649Y-103145116D01*
X174852236Y-102904414D01*
X174982394Y-102633107D01*
X175031036Y-102472740D01*
X175448964Y-102472740D01*
X175497606Y-102633107D01*
X175627764Y-102904414D01*
X175808351Y-103145116D01*
X176032427Y-103345962D01*
X176291380Y-103499234D01*
X176575259Y-103599041D01*
X176813000Y-103478992D01*
X176813000Y-102235000D01*
X177067000Y-102235000D01*
X177067000Y-103478992D01*
X177304741Y-103599041D01*
X177588620Y-103499234D01*
X177847573Y-103345962D01*
X178071649Y-103145116D01*
X178252236Y-102904414D01*
X178382394Y-102633107D01*
X178431036Y-102472740D01*
X178310378Y-102235000D01*
X177067000Y-102235000D01*
X176813000Y-102235000D01*
X175569622Y-102235000D01*
X175448964Y-102472740D01*
X175031036Y-102472740D01*
X174910378Y-102235000D01*
X173667000Y-102235000D01*
X173413000Y-102235000D01*
X172169622Y-102235000D01*
X172048964Y-102472740D01*
X162177695Y-102472740D01*
X161983425Y-102392271D01*
X161628907Y-102321753D01*
X161267443Y-102321753D01*
X160912925Y-102392271D01*
X160578976Y-102530597D01*
X160278431Y-102731415D01*
X160022837Y-102987009D01*
X159999622Y-103021753D01*
X157958493Y-103021753D01*
X156680000Y-101743260D01*
X172048964Y-101743260D01*
X172169622Y-101981000D01*
X173413000Y-101981000D01*
X173413000Y-100737008D01*
X173667000Y-100737008D01*
X173667000Y-101981000D01*
X174910378Y-101981000D01*
X175031036Y-101743260D01*
X175448964Y-101743260D01*
X175569622Y-101981000D01*
X176813000Y-101981000D01*
X176813000Y-100737008D01*
X177067000Y-100737008D01*
X177067000Y-101981000D01*
X178310378Y-101981000D01*
X178431036Y-101743260D01*
X178382394Y-101582893D01*
X178252236Y-101311586D01*
X178071649Y-101070884D01*
X177847573Y-100870038D01*
X177588620Y-100716766D01*
X177304741Y-100616959D01*
X177067000Y-100737008D01*
X176813000Y-100737008D01*
X176575259Y-100616959D01*
X176291380Y-100716766D01*
X176032427Y-100870038D01*
X175808351Y-101070884D01*
X175627764Y-101311586D01*
X175497606Y-101582893D01*
X175448964Y-101743260D01*
X175031036Y-101743260D01*
X174982394Y-101582893D01*
X174852236Y-101311586D01*
X174671649Y-101070884D01*
X174447573Y-100870038D01*
X174188620Y-100716766D01*
X173904741Y-100616959D01*
X173667000Y-100737008D01*
X173413000Y-100737008D01*
X173175259Y-100616959D01*
X172891380Y-100716766D01*
X172632427Y-100870038D01*
X172408351Y-101070884D01*
X172227764Y-101311586D01*
X172097606Y-101582893D01*
X172048964Y-101743260D01*
X156680000Y-101743260D01*
X153780941Y-98844202D01*
X153794482Y-98842868D01*
X153914180Y-98806558D01*
X154024494Y-98747593D01*
X154121185Y-98668241D01*
X155134426Y-97655000D01*
X157610251Y-97655000D01*
X157666002Y-97660491D01*
X157721753Y-97655000D01*
X157721754Y-97655000D01*
X157888501Y-97638577D01*
X158102449Y-97573676D01*
X158299625Y-97468284D01*
X158472451Y-97326449D01*
X158507998Y-97283135D01*
X158857935Y-96933198D01*
X167287942Y-96933198D01*
X167403082Y-97275833D01*
X167582854Y-97589422D01*
X167820350Y-97861913D01*
X168106443Y-98082835D01*
X168430138Y-98243699D01*
X168671730Y-98316986D01*
X168957928Y-98200336D01*
X168957928Y-96647000D01*
X169211928Y-96647000D01*
X169211928Y-98200336D01*
X169498126Y-98316986D01*
X169840761Y-98201846D01*
X170154350Y-98022074D01*
X170426841Y-97784578D01*
X170647763Y-97498485D01*
X170808627Y-97174790D01*
X170881914Y-96933198D01*
X170765264Y-96647000D01*
X169211928Y-96647000D01*
X168957928Y-96647000D01*
X167404592Y-96647000D01*
X167287942Y-96933198D01*
X158857935Y-96933198D01*
X159684331Y-96106802D01*
X167287942Y-96106802D01*
X167404592Y-96393000D01*
X168957928Y-96393000D01*
X168957928Y-94839664D01*
X169211928Y-94839664D01*
X169211928Y-96393000D01*
X170765264Y-96393000D01*
X170881914Y-96106802D01*
X170842228Y-95988702D01*
X176026903Y-95988702D01*
X176098486Y-96232671D01*
X176353996Y-96353571D01*
X176628184Y-96422300D01*
X176910512Y-96436217D01*
X177190130Y-96394787D01*
X177456292Y-96299603D01*
X177581514Y-96232671D01*
X177653097Y-95988702D01*
X176840000Y-95175605D01*
X176026903Y-95988702D01*
X170842228Y-95988702D01*
X170766774Y-95764167D01*
X170587002Y-95450578D01*
X170349506Y-95178087D01*
X170205017Y-95066512D01*
X175399783Y-95066512D01*
X175441213Y-95346130D01*
X175536397Y-95612292D01*
X175603329Y-95737514D01*
X175847298Y-95809097D01*
X176660395Y-94996000D01*
X177019605Y-94996000D01*
X177832702Y-95809097D01*
X178076671Y-95737514D01*
X178197571Y-95482004D01*
X178266300Y-95207816D01*
X178280217Y-94925488D01*
X178238787Y-94645870D01*
X178143603Y-94379708D01*
X178076671Y-94254486D01*
X177832702Y-94182903D01*
X177019605Y-94996000D01*
X176660395Y-94996000D01*
X175847298Y-94182903D01*
X175603329Y-94254486D01*
X175482429Y-94509996D01*
X175413700Y-94784184D01*
X175399783Y-95066512D01*
X170205017Y-95066512D01*
X170063413Y-94957165D01*
X169739718Y-94796301D01*
X169498126Y-94723014D01*
X169211928Y-94839664D01*
X168957928Y-94839664D01*
X168671730Y-94723014D01*
X168329095Y-94838154D01*
X168015506Y-95017926D01*
X167743015Y-95255422D01*
X167522093Y-95541515D01*
X167361229Y-95865210D01*
X167287942Y-96106802D01*
X159684331Y-96106802D01*
X161787835Y-94003298D01*
X176026903Y-94003298D01*
X176840000Y-94816395D01*
X177653097Y-94003298D01*
X177581514Y-93759329D01*
X177326004Y-93638429D01*
X177051816Y-93569700D01*
X176769488Y-93555783D01*
X176489870Y-93597213D01*
X176223708Y-93692397D01*
X176098486Y-93759329D01*
X176026903Y-94003298D01*
X161787835Y-94003298D01*
X165355141Y-90435993D01*
X165398449Y-90400451D01*
X165540284Y-90227625D01*
X165645676Y-90030449D01*
X165710577Y-89816501D01*
X165727000Y-89649754D01*
X165727000Y-89649745D01*
X165732490Y-89594003D01*
X165727000Y-89538261D01*
X165727000Y-82496131D01*
X167814009Y-84583141D01*
X167849551Y-84626449D01*
X168022377Y-84768284D01*
X168219553Y-84873676D01*
X168433501Y-84938577D01*
X168656000Y-84960491D01*
X168711751Y-84955000D01*
X179631869Y-84955000D01*
X179576860Y-85010009D01*
X179533552Y-85045551D01*
X179391717Y-85218377D01*
X179354207Y-85288554D01*
X179286324Y-85415554D01*
X179221423Y-85629502D01*
X179199509Y-85852000D01*
X179205001Y-85907761D01*
X179205000Y-93655043D01*
X179185506Y-93665463D01*
X179088815Y-93744815D01*
X179009463Y-93841506D01*
X178950498Y-93951820D01*
X178914188Y-94071518D01*
X178901928Y-94196000D01*
X178901928Y-95796000D01*
X178914188Y-95920482D01*
X178950498Y-96040180D01*
X179009463Y-96150494D01*
X179088815Y-96247185D01*
X179185506Y-96326537D01*
X179205001Y-96336957D01*
X179205000Y-100615713D01*
X179195820Y-100618498D01*
X179085506Y-100677463D01*
X178988815Y-100756815D01*
X178909463Y-100853506D01*
X178850498Y-100963820D01*
X178814188Y-101083518D01*
X178801928Y-101208000D01*
X178801928Y-103008000D01*
X178814188Y-103132482D01*
X178850498Y-103252180D01*
X178909463Y-103362494D01*
X178988815Y-103459185D01*
X179085506Y-103538537D01*
X179195820Y-103597502D01*
X179315518Y-103633812D01*
X179440000Y-103646072D01*
X181240000Y-103646072D01*
X181364482Y-103633812D01*
X181484180Y-103597502D01*
X181594494Y-103538537D01*
X181691185Y-103459185D01*
X181770537Y-103362494D01*
X181829502Y-103252180D01*
X181865812Y-103132482D01*
X181878072Y-103008000D01*
X181878072Y-101208000D01*
X181865812Y-101083518D01*
X181829502Y-100963820D01*
X181770537Y-100853506D01*
X181691185Y-100756815D01*
X181594494Y-100677463D01*
X181484180Y-100618498D01*
X181475000Y-100615713D01*
X181475000Y-96336957D01*
X181494494Y-96326537D01*
X181591185Y-96247185D01*
X181670537Y-96150494D01*
X181729502Y-96040180D01*
X181765812Y-95920482D01*
X181778072Y-95796000D01*
X181778072Y-94196000D01*
X181765812Y-94071518D01*
X181729502Y-93951820D01*
X181670537Y-93841506D01*
X181591185Y-93744815D01*
X181494494Y-93665463D01*
X181475000Y-93655043D01*
X181475000Y-91416000D01*
X188869928Y-91416000D01*
X188882188Y-91540482D01*
X188918498Y-91660180D01*
X188977463Y-91770494D01*
X189056815Y-91867185D01*
X189153506Y-91946537D01*
X189263820Y-92005502D01*
X189383518Y-92041812D01*
X189508000Y-92054072D01*
X190722250Y-92051000D01*
X190881000Y-91892250D01*
X190881000Y-90043000D01*
X191135000Y-90043000D01*
X191135000Y-91892250D01*
X191293750Y-92051000D01*
X192508000Y-92054072D01*
X192632482Y-92041812D01*
X192752180Y-92005502D01*
X192862494Y-91946537D01*
X192959185Y-91867185D01*
X193038537Y-91770494D01*
X193097502Y-91660180D01*
X193133812Y-91540482D01*
X193146072Y-91416000D01*
X193143000Y-90201750D01*
X192984250Y-90043000D01*
X191135000Y-90043000D01*
X190881000Y-90043000D01*
X189031750Y-90043000D01*
X188873000Y-90201750D01*
X188869928Y-91416000D01*
X181475000Y-91416000D01*
X181475000Y-88416000D01*
X188869928Y-88416000D01*
X188873000Y-89630250D01*
X189031750Y-89789000D01*
X190881000Y-89789000D01*
X190881000Y-87939750D01*
X191135000Y-87939750D01*
X191135000Y-89789000D01*
X192984250Y-89789000D01*
X193143000Y-89630250D01*
X193146072Y-88416000D01*
X193133812Y-88291518D01*
X193097502Y-88171820D01*
X193038537Y-88061506D01*
X192959185Y-87964815D01*
X192862494Y-87885463D01*
X192752180Y-87826498D01*
X192632482Y-87790188D01*
X192508000Y-87777928D01*
X191293750Y-87781000D01*
X191135000Y-87939750D01*
X190881000Y-87939750D01*
X190722250Y-87781000D01*
X189508000Y-87777928D01*
X189383518Y-87790188D01*
X189263820Y-87826498D01*
X189153506Y-87885463D01*
X189056815Y-87964815D01*
X188977463Y-88061506D01*
X188918498Y-88171820D01*
X188882188Y-88291518D01*
X188869928Y-88416000D01*
X181475000Y-88416000D01*
X181475000Y-86322131D01*
X182139059Y-85658072D01*
X183572000Y-85658072D01*
X183696482Y-85645812D01*
X183816180Y-85609502D01*
X183926494Y-85550537D01*
X184023185Y-85471185D01*
X184102537Y-85374494D01*
X184161502Y-85264180D01*
X184197812Y-85144482D01*
X184210072Y-85020000D01*
X184210072Y-82620000D01*
X184197812Y-82495518D01*
X184161502Y-82375820D01*
X184102537Y-82265506D01*
X184023185Y-82168815D01*
X183926494Y-82089463D01*
X183816180Y-82030498D01*
X183696482Y-81994188D01*
X183572000Y-81981928D01*
X181172000Y-81981928D01*
X181047518Y-81994188D01*
X180927820Y-82030498D01*
X180817506Y-82089463D01*
X180720815Y-82168815D01*
X180641463Y-82265506D01*
X180582498Y-82375820D01*
X180546188Y-82495518D01*
X180533928Y-82620000D01*
X180533928Y-82685000D01*
X169126132Y-82685000D01*
X166430072Y-79988941D01*
X166430072Y-78556000D01*
X166417812Y-78431518D01*
X166381502Y-78311820D01*
X166322537Y-78201506D01*
X166243185Y-78104815D01*
X166146494Y-78025463D01*
X166036180Y-77966498D01*
X165916482Y-77930188D01*
X165792000Y-77917928D01*
X163392000Y-77917928D01*
X163267518Y-77930188D01*
X163147820Y-77966498D01*
X163037506Y-78025463D01*
X162940815Y-78104815D01*
X162861463Y-78201506D01*
X162802498Y-78311820D01*
X162766188Y-78431518D01*
X162753928Y-78556000D01*
X162753928Y-80956000D01*
X162766188Y-81080482D01*
X162802498Y-81200180D01*
X162861463Y-81310494D01*
X162940815Y-81407185D01*
X163037506Y-81486537D01*
X163147820Y-81545502D01*
X163267518Y-81581812D01*
X163392000Y-81594072D01*
X163457001Y-81594072D01*
X163457000Y-89123870D01*
X163077502Y-89503368D01*
X163141946Y-89347786D01*
X163212464Y-88993268D01*
X163212464Y-88631804D01*
X163141946Y-88277286D01*
X163003620Y-87943337D01*
X162802802Y-87642792D01*
X162547208Y-87387198D01*
X162246663Y-87186380D01*
X161912714Y-87048054D01*
X161558196Y-86977536D01*
X161196732Y-86977536D01*
X161155748Y-86985688D01*
X159131924Y-84961865D01*
X159096377Y-84918551D01*
X158923551Y-84776716D01*
X158726375Y-84671324D01*
X158512427Y-84606423D01*
X158345680Y-84590000D01*
X158345679Y-84590000D01*
X158289928Y-84584509D01*
X158234177Y-84590000D01*
X150860688Y-84590000D01*
X150816175Y-84523382D01*
X150553618Y-84260825D01*
X150244882Y-84054534D01*
X149901834Y-83912439D01*
X149537656Y-83840000D01*
X149166344Y-83840000D01*
X148802166Y-83912439D01*
X148459118Y-84054534D01*
X148150382Y-84260825D01*
X147887825Y-84523382D01*
X147681534Y-84832118D01*
X147539439Y-85175166D01*
X147467000Y-85539344D01*
X147467000Y-85910656D01*
X147539439Y-86274834D01*
X147681534Y-86617882D01*
X147887825Y-86926618D01*
X148150382Y-87189175D01*
X148459118Y-87395466D01*
X148802166Y-87537561D01*
X149166344Y-87610000D01*
X149537656Y-87610000D01*
X149901834Y-87537561D01*
X150244882Y-87395466D01*
X150553618Y-87189175D01*
X150816175Y-86926618D01*
X150860688Y-86860000D01*
X157819797Y-86860000D01*
X159550616Y-88590820D01*
X159542464Y-88631804D01*
X159542464Y-88993268D01*
X159612982Y-89347786D01*
X159751308Y-89681735D01*
X159952126Y-89982280D01*
X160207720Y-90237874D01*
X160508265Y-90438692D01*
X160842214Y-90577018D01*
X161196732Y-90647536D01*
X161558196Y-90647536D01*
X161912714Y-90577018D01*
X162068297Y-90512574D01*
X157195871Y-95385000D01*
X155134426Y-95385000D01*
X154121185Y-94371759D01*
X154024494Y-94292407D01*
X153914180Y-94233442D01*
X153794482Y-94197132D01*
X153670000Y-94184872D01*
X153545518Y-94197132D01*
X153425820Y-94233442D01*
X153315506Y-94292407D01*
X153218815Y-94371759D01*
X151521759Y-96068815D01*
X151442407Y-96165506D01*
X151383442Y-96275820D01*
X151347132Y-96395518D01*
X151345798Y-96409059D01*
X138484990Y-83548251D01*
X138484990Y-77597980D01*
X181273626Y-77597980D01*
X181393514Y-77882836D01*
X181717210Y-78043699D01*
X182066069Y-78138322D01*
X182426684Y-78163067D01*
X182785198Y-78116985D01*
X183127833Y-78001846D01*
X183350486Y-77882836D01*
X183470374Y-77597980D01*
X182372000Y-76499605D01*
X181273626Y-77597980D01*
X138484990Y-77597980D01*
X138484990Y-76374684D01*
X180528933Y-76374684D01*
X180575015Y-76733198D01*
X180690154Y-77075833D01*
X180809164Y-77298486D01*
X181094020Y-77418374D01*
X182192395Y-76320000D01*
X182551605Y-76320000D01*
X183649980Y-77418374D01*
X183934836Y-77298486D01*
X184095699Y-76974790D01*
X184190322Y-76625931D01*
X184215067Y-76265316D01*
X184168985Y-75906802D01*
X184053846Y-75564167D01*
X183934836Y-75341514D01*
X183649980Y-75221626D01*
X182551605Y-76320000D01*
X182192395Y-76320000D01*
X181094020Y-75221626D01*
X180809164Y-75341514D01*
X180648301Y-75665210D01*
X180553678Y-76014069D01*
X180528933Y-76374684D01*
X138484990Y-76374684D01*
X138484990Y-74920325D01*
X138644866Y-75115134D01*
X138870987Y-75300706D01*
X139128967Y-75438599D01*
X139408890Y-75523513D01*
X139700000Y-75552185D01*
X139991111Y-75523513D01*
X140271034Y-75438599D01*
X140529014Y-75300706D01*
X140755134Y-75115134D01*
X140815137Y-75042020D01*
X181273626Y-75042020D01*
X182372000Y-76140395D01*
X183470374Y-75042020D01*
X183350486Y-74757164D01*
X183026790Y-74596301D01*
X182677931Y-74501678D01*
X182317316Y-74476933D01*
X181958802Y-74523015D01*
X181616167Y-74638154D01*
X181393514Y-74757164D01*
X181273626Y-75042020D01*
X140815137Y-75042020D01*
X140940706Y-74889014D01*
X140990957Y-74795000D01*
X146361249Y-74795000D01*
X146417000Y-74800491D01*
X146472751Y-74795000D01*
X146472752Y-74795000D01*
X146639499Y-74778577D01*
X146853447Y-74713676D01*
X147050623Y-74608284D01*
X147223449Y-74466449D01*
X147258996Y-74423135D01*
X148148151Y-73533980D01*
X163493626Y-73533980D01*
X163613514Y-73818836D01*
X163937210Y-73979699D01*
X164286069Y-74074322D01*
X164646684Y-74099067D01*
X165005198Y-74052985D01*
X165347833Y-73937846D01*
X165570486Y-73818836D01*
X165674358Y-73572033D01*
X188227572Y-73572033D01*
X188545757Y-74025850D01*
X189150210Y-74351269D01*
X189806535Y-74552512D01*
X190489510Y-74621845D01*
X191172888Y-74556605D01*
X191830407Y-74359298D01*
X192436799Y-74037506D01*
X192454243Y-74025850D01*
X192772428Y-73572033D01*
X190500000Y-71299605D01*
X188227572Y-73572033D01*
X165674358Y-73572033D01*
X165690374Y-73533980D01*
X164592000Y-72435605D01*
X163493626Y-73533980D01*
X148148151Y-73533980D01*
X149087762Y-72594369D01*
X149166344Y-72610000D01*
X149537656Y-72610000D01*
X149901834Y-72537561D01*
X150244882Y-72395466D01*
X150371767Y-72310684D01*
X162748933Y-72310684D01*
X162795015Y-72669198D01*
X162910154Y-73011833D01*
X163029164Y-73234486D01*
X163314020Y-73354374D01*
X164412395Y-72256000D01*
X164771605Y-72256000D01*
X165869980Y-73354374D01*
X166154836Y-73234486D01*
X166315699Y-72910790D01*
X166410322Y-72561931D01*
X166435067Y-72201316D01*
X166388985Y-71842802D01*
X166273846Y-71500167D01*
X166154836Y-71277514D01*
X165869980Y-71157626D01*
X164771605Y-72256000D01*
X164412395Y-72256000D01*
X163314020Y-71157626D01*
X163029164Y-71277514D01*
X162868301Y-71601210D01*
X162773678Y-71950069D01*
X162748933Y-72310684D01*
X150371767Y-72310684D01*
X150553618Y-72189175D01*
X150816175Y-71926618D01*
X151022466Y-71617882D01*
X151164561Y-71274834D01*
X151223600Y-70978020D01*
X163493626Y-70978020D01*
X164592000Y-72076395D01*
X165558884Y-71109510D01*
X186998155Y-71109510D01*
X187063395Y-71792888D01*
X187260702Y-72450407D01*
X187582494Y-73056799D01*
X187594150Y-73074243D01*
X188047967Y-73392428D01*
X190320395Y-71120000D01*
X190679605Y-71120000D01*
X192952033Y-73392428D01*
X193405850Y-73074243D01*
X193731269Y-72469790D01*
X193932512Y-71813465D01*
X194001845Y-71130490D01*
X193936605Y-70447112D01*
X193739298Y-69789593D01*
X193417506Y-69183201D01*
X193405850Y-69165757D01*
X192952033Y-68847572D01*
X190679605Y-71120000D01*
X190320395Y-71120000D01*
X188047967Y-68847572D01*
X187594150Y-69165757D01*
X187268731Y-69770210D01*
X187067488Y-70426535D01*
X186998155Y-71109510D01*
X165558884Y-71109510D01*
X165690374Y-70978020D01*
X165570486Y-70693164D01*
X165246790Y-70532301D01*
X164897931Y-70437678D01*
X164537316Y-70412933D01*
X164178802Y-70459015D01*
X163836167Y-70574154D01*
X163613514Y-70693164D01*
X163493626Y-70978020D01*
X151223600Y-70978020D01*
X151237000Y-70910656D01*
X151237000Y-70539344D01*
X151164561Y-70175166D01*
X151022466Y-69832118D01*
X150816175Y-69523382D01*
X150553618Y-69260825D01*
X150244882Y-69054534D01*
X149901834Y-68912439D01*
X149537656Y-68840000D01*
X149166344Y-68840000D01*
X148802166Y-68912439D01*
X148459118Y-69054534D01*
X148150382Y-69260825D01*
X147887825Y-69523382D01*
X147681534Y-69832118D01*
X147539439Y-70175166D01*
X147467000Y-70539344D01*
X147467000Y-70910656D01*
X147482631Y-70989238D01*
X145946869Y-72525000D01*
X140990957Y-72525000D01*
X140940706Y-72430986D01*
X140755134Y-72204866D01*
X140529013Y-72019294D01*
X140271033Y-71881401D01*
X139991110Y-71796487D01*
X139700000Y-71767815D01*
X139449199Y-71792517D01*
X140463141Y-70778575D01*
X140506449Y-70743033D01*
X140648284Y-70570207D01*
X140753676Y-70373031D01*
X140818577Y-70159083D01*
X140835000Y-69992336D01*
X140840491Y-69936585D01*
X140840011Y-69931711D01*
X140940706Y-69809014D01*
X141078599Y-69551034D01*
X141163513Y-69271111D01*
X141185000Y-69052949D01*
X141185000Y-68667967D01*
X188227572Y-68667967D01*
X190500000Y-70940395D01*
X192772428Y-68667967D01*
X192454243Y-68214150D01*
X191849790Y-67888731D01*
X191193465Y-67687488D01*
X190510490Y-67618155D01*
X189827112Y-67683395D01*
X189169593Y-67880702D01*
X188563201Y-68202494D01*
X188545757Y-68214150D01*
X188227572Y-68667967D01*
X141185000Y-68667967D01*
X141185000Y-68107050D01*
X141163513Y-67888889D01*
X141078599Y-67608966D01*
X140940706Y-67350986D01*
X140755134Y-67124866D01*
X140529013Y-66939294D01*
X140271033Y-66801401D01*
X139991110Y-66716487D01*
X139823716Y-66700000D01*
X194920000Y-66700000D01*
X194920001Y-107462869D01*
X193089977Y-105632845D01*
X193143000Y-105366279D01*
X193143000Y-104945721D01*
X193060953Y-104533244D01*
X192900012Y-104144698D01*
X192666363Y-103795017D01*
X192368983Y-103497637D01*
X192019302Y-103263988D01*
X191630756Y-103103047D01*
X191218279Y-103021000D01*
X190797721Y-103021000D01*
X190385244Y-103103047D01*
X189996698Y-103263988D01*
X189647017Y-103497637D01*
X189349637Y-103795017D01*
X189142999Y-104104273D01*
X189142999Y-101127727D01*
X189349637Y-101436983D01*
X189647017Y-101734363D01*
X189996698Y-101968012D01*
X190385244Y-102128953D01*
X190797721Y-102211000D01*
X191218279Y-102211000D01*
X191630756Y-102128953D01*
X192019302Y-101968012D01*
X192368983Y-101734363D01*
X192666363Y-101436983D01*
X192900012Y-101087302D01*
X193060953Y-100698756D01*
X193143000Y-100286279D01*
X193143000Y-99865721D01*
X193060953Y-99453244D01*
X192900012Y-99064698D01*
X192666363Y-98715017D01*
X192368983Y-98417637D01*
X192019302Y-98183988D01*
X191630756Y-98023047D01*
X191218279Y-97941000D01*
X190797721Y-97941000D01*
X190385244Y-98023047D01*
X189996698Y-98183988D01*
X189647017Y-98417637D01*
X189349637Y-98715017D01*
X189142999Y-99024273D01*
X189142999Y-98466132D01*
X190531155Y-97077977D01*
X190797721Y-97131000D01*
X191218279Y-97131000D01*
X191630756Y-97048953D01*
X192019302Y-96888012D01*
X192368983Y-96654363D01*
X192666363Y-96356983D01*
X192900012Y-96007302D01*
X193060953Y-95618756D01*
X193143000Y-95206279D01*
X193143000Y-94785721D01*
X193060953Y-94373244D01*
X192900012Y-93984698D01*
X192666363Y-93635017D01*
X192368983Y-93337637D01*
X192019302Y-93103988D01*
X191630756Y-92943047D01*
X191218279Y-92861000D01*
X190797721Y-92861000D01*
X190385244Y-92943047D01*
X189996698Y-93103988D01*
X189647017Y-93337637D01*
X189349637Y-93635017D01*
X189115988Y-93984698D01*
X188955047Y-94373244D01*
X188873000Y-94785721D01*
X188873000Y-95206279D01*
X188926023Y-95472845D01*
X187244864Y-97154005D01*
X187201550Y-97189552D01*
X187059715Y-97362378D01*
X186954324Y-97559554D01*
X186954323Y-97559555D01*
X186889422Y-97773503D01*
X186867508Y-97996001D01*
X186872999Y-98051752D01*
X186873000Y-111917386D01*
X186805506Y-111953463D01*
X186708815Y-112032815D01*
X186629463Y-112129506D01*
X186570498Y-112239820D01*
X186534188Y-112359518D01*
X186521928Y-112484000D01*
X186521928Y-114084000D01*
X186526316Y-114128552D01*
X180885869Y-119769000D01*
X167282072Y-119769000D01*
X167282072Y-117882000D01*
X167269812Y-117757518D01*
X167259000Y-117721876D01*
X167259000Y-114942124D01*
X167269812Y-114906482D01*
X167282072Y-114782000D01*
X167282072Y-114004520D01*
X169672000Y-114004520D01*
X169672000Y-114392280D01*
X169747648Y-114772590D01*
X169896038Y-115130835D01*
X170111466Y-115453246D01*
X170385654Y-115727434D01*
X170708065Y-115942862D01*
X171066310Y-116091252D01*
X171446620Y-116166900D01*
X171834380Y-116166900D01*
X172214690Y-116091252D01*
X172572935Y-115942862D01*
X172895346Y-115727434D01*
X173169534Y-115453246D01*
X173384962Y-115130835D01*
X173533352Y-114772590D01*
X173609000Y-114392280D01*
X173609000Y-114004520D01*
X179959000Y-114004520D01*
X179959000Y-114392280D01*
X180034648Y-114772590D01*
X180183038Y-115130835D01*
X180398466Y-115453246D01*
X180672654Y-115727434D01*
X180995065Y-115942862D01*
X181353310Y-116091252D01*
X181733620Y-116166900D01*
X182121380Y-116166900D01*
X182501690Y-116091252D01*
X182859935Y-115942862D01*
X183182346Y-115727434D01*
X183456534Y-115453246D01*
X183671962Y-115130835D01*
X183820352Y-114772590D01*
X183896000Y-114392280D01*
X183896000Y-114004520D01*
X183820352Y-113624210D01*
X183671962Y-113265965D01*
X183456534Y-112943554D01*
X183182346Y-112669366D01*
X182859935Y-112453938D01*
X182501690Y-112305548D01*
X182121380Y-112229900D01*
X181733620Y-112229900D01*
X181353310Y-112305548D01*
X180995065Y-112453938D01*
X180672654Y-112669366D01*
X180398466Y-112943554D01*
X180183038Y-113265965D01*
X180034648Y-113624210D01*
X179959000Y-114004520D01*
X173609000Y-114004520D01*
X173533352Y-113624210D01*
X173384962Y-113265965D01*
X173169534Y-112943554D01*
X172895346Y-112669366D01*
X172572935Y-112453938D01*
X172214690Y-112305548D01*
X171834380Y-112229900D01*
X171446620Y-112229900D01*
X171066310Y-112305548D01*
X170708065Y-112453938D01*
X170385654Y-112669366D01*
X170111466Y-112943554D01*
X169896038Y-113265965D01*
X169747648Y-113624210D01*
X169672000Y-114004520D01*
X167282072Y-114004520D01*
X167282072Y-111282000D01*
X167273201Y-111191930D01*
X168734060Y-109731072D01*
X169735500Y-109731072D01*
X169859982Y-109718812D01*
X169979680Y-109682502D01*
X170089994Y-109623537D01*
X170186685Y-109544185D01*
X170266037Y-109447494D01*
X170324029Y-109339000D01*
X173991624Y-109339000D01*
X174032247Y-109343001D01*
X174032257Y-109343001D01*
X174087998Y-109348491D01*
X174143740Y-109343001D01*
X176184248Y-109343001D01*
X176239999Y-109348492D01*
X176295750Y-109343001D01*
X176295751Y-109343001D01*
X176462498Y-109326578D01*
X176676446Y-109261677D01*
X176873622Y-109156285D01*
X177046448Y-109014450D01*
X177081995Y-108971136D01*
X178710132Y-107343000D01*
X178791184Y-107343000D01*
X179087743Y-107284011D01*
X179367095Y-107168299D01*
X179618505Y-107000312D01*
X179832312Y-106786505D01*
X180000299Y-106535095D01*
X180116011Y-106255743D01*
X180175000Y-105959184D01*
X180175000Y-105656816D01*
X180116011Y-105360257D01*
X180000299Y-105080905D01*
X179832312Y-104829495D01*
X179618505Y-104615688D01*
X179367095Y-104447701D01*
X179087743Y-104331989D01*
X178791184Y-104273000D01*
X178488816Y-104273000D01*
X178192257Y-104331989D01*
X177912905Y-104447701D01*
X177661495Y-104615688D01*
X177447688Y-104829495D01*
X177279701Y-105080905D01*
X177163989Y-105360257D01*
X177105000Y-105656816D01*
X177105000Y-105737868D01*
X176748013Y-106094855D01*
X176775000Y-105959184D01*
X176775000Y-105656816D01*
X176716011Y-105360257D01*
X176600299Y-105080905D01*
X176432312Y-104829495D01*
X176218505Y-104615688D01*
X175967095Y-104447701D01*
X175687743Y-104331989D01*
X175391184Y-104273000D01*
X175088816Y-104273000D01*
X174792257Y-104331989D01*
X174512905Y-104447701D01*
X174261495Y-104615688D01*
X174047688Y-104829495D01*
X173879701Y-105080905D01*
X173763989Y-105360257D01*
X173705000Y-105656816D01*
X173705000Y-105959184D01*
X173763989Y-106255743D01*
X173879701Y-106535095D01*
X174047688Y-106786505D01*
X174261495Y-107000312D01*
X174370282Y-107073001D01*
X174180373Y-107073001D01*
X174139750Y-107069000D01*
X174139749Y-107069000D01*
X174083998Y-107063509D01*
X174028247Y-107069000D01*
X170324029Y-107069000D01*
X170266037Y-106960506D01*
X170186685Y-106863815D01*
X170089994Y-106784463D01*
X169979680Y-106725498D01*
X169859982Y-106689188D01*
X169735500Y-106676928D01*
X167576500Y-106676928D01*
X167452018Y-106689188D01*
X167332320Y-106725498D01*
X167222006Y-106784463D01*
X167125315Y-106863815D01*
X167045963Y-106960506D01*
X166986998Y-107070820D01*
X166950688Y-107190518D01*
X166938428Y-107315000D01*
X166938428Y-108316440D01*
X164637869Y-110617000D01*
X155956000Y-110617000D01*
X155931224Y-110619440D01*
X155907399Y-110626667D01*
X155885443Y-110638403D01*
X155866197Y-110654197D01*
X155850403Y-110673443D01*
X155838667Y-110695399D01*
X155831440Y-110719224D01*
X155829000Y-110744000D01*
X155829000Y-111121876D01*
X155818188Y-111157518D01*
X155805928Y-111282000D01*
X155805928Y-114782000D01*
X155818188Y-114906482D01*
X155829000Y-114942124D01*
X155829000Y-117721876D01*
X155818188Y-117757518D01*
X155805928Y-117882000D01*
X155805928Y-121382000D01*
X155818188Y-121506482D01*
X155829000Y-121542124D01*
X155829000Y-121920000D01*
X155831440Y-121944776D01*
X155838667Y-121968601D01*
X155850403Y-121990557D01*
X155866197Y-122009803D01*
X155885443Y-122025597D01*
X155907399Y-122037333D01*
X155931224Y-122044560D01*
X155956000Y-122047000D01*
X167132000Y-122047000D01*
X167156776Y-122044560D01*
X167175105Y-122039000D01*
X181300249Y-122039000D01*
X181356000Y-122044491D01*
X181411751Y-122039000D01*
X181411752Y-122039000D01*
X181578499Y-122022577D01*
X181792447Y-121957676D01*
X181882559Y-121909510D01*
X186998155Y-121909510D01*
X187063395Y-122592888D01*
X187260702Y-123250407D01*
X187582494Y-123856799D01*
X187594150Y-123874243D01*
X188047967Y-124192428D01*
X190320395Y-121920000D01*
X188047967Y-119647572D01*
X187594150Y-119965757D01*
X187268731Y-120570210D01*
X187067488Y-121226535D01*
X186998155Y-121909510D01*
X181882559Y-121909510D01*
X181989623Y-121852284D01*
X182162449Y-121710449D01*
X182197996Y-121667135D01*
X184397164Y-119467967D01*
X188227572Y-119467967D01*
X190500000Y-121740395D01*
X192772428Y-119467967D01*
X192454243Y-119014150D01*
X191849790Y-118688731D01*
X191193465Y-118487488D01*
X190510490Y-118418155D01*
X189827112Y-118483395D01*
X189169593Y-118680702D01*
X188563201Y-119002494D01*
X188545757Y-119014150D01*
X188227572Y-119467967D01*
X184397164Y-119467967D01*
X188723141Y-115141991D01*
X188766449Y-115106449D01*
X188908284Y-114933623D01*
X189013676Y-114736447D01*
X189038303Y-114655262D01*
X189114494Y-114614537D01*
X189211185Y-114535185D01*
X189290537Y-114438494D01*
X189349502Y-114328180D01*
X189365117Y-114276702D01*
X190646903Y-114276702D01*
X190718486Y-114520671D01*
X190973996Y-114641571D01*
X191248184Y-114710300D01*
X191530512Y-114724217D01*
X191810130Y-114682787D01*
X192076292Y-114587603D01*
X192201514Y-114520671D01*
X192273097Y-114276702D01*
X191460000Y-113463605D01*
X190646903Y-114276702D01*
X189365117Y-114276702D01*
X189385812Y-114208482D01*
X189398072Y-114084000D01*
X189398072Y-113354512D01*
X190019783Y-113354512D01*
X190061213Y-113634130D01*
X190156397Y-113900292D01*
X190223329Y-114025514D01*
X190467298Y-114097097D01*
X191280395Y-113284000D01*
X191639605Y-113284000D01*
X192452702Y-114097097D01*
X192696671Y-114025514D01*
X192817571Y-113770004D01*
X192886300Y-113495816D01*
X192900217Y-113213488D01*
X192858787Y-112933870D01*
X192763603Y-112667708D01*
X192696671Y-112542486D01*
X192452702Y-112470903D01*
X191639605Y-113284000D01*
X191280395Y-113284000D01*
X190467298Y-112470903D01*
X190223329Y-112542486D01*
X190102429Y-112797996D01*
X190033700Y-113072184D01*
X190019783Y-113354512D01*
X189398072Y-113354512D01*
X189398072Y-112484000D01*
X189385812Y-112359518D01*
X189365118Y-112291298D01*
X190646903Y-112291298D01*
X191460000Y-113104395D01*
X192273097Y-112291298D01*
X192201514Y-112047329D01*
X191946004Y-111926429D01*
X191671816Y-111857700D01*
X191389488Y-111843783D01*
X191109870Y-111885213D01*
X190843708Y-111980397D01*
X190718486Y-112047329D01*
X190646903Y-112291298D01*
X189365118Y-112291298D01*
X189349502Y-112239820D01*
X189290537Y-112129506D01*
X189211185Y-112032815D01*
X189142999Y-111976856D01*
X189142999Y-106207727D01*
X189349637Y-106516983D01*
X189647017Y-106814363D01*
X189996698Y-107048012D01*
X190385244Y-107208953D01*
X190797721Y-107291000D01*
X191218279Y-107291000D01*
X191484845Y-107237977D01*
X193419990Y-109173122D01*
X193419991Y-119987883D01*
X193417506Y-119983201D01*
X193405850Y-119965757D01*
X192952033Y-119647572D01*
X190679605Y-121920000D01*
X190693748Y-121934143D01*
X190514143Y-122113748D01*
X190500000Y-122099605D01*
X188227572Y-124372033D01*
X188545757Y-124825850D01*
X188572021Y-124839990D01*
X153369122Y-124839990D01*
X151110000Y-122580869D01*
X151110000Y-122242344D01*
X151037561Y-121878166D01*
X150895466Y-121535118D01*
X150689175Y-121226382D01*
X150426618Y-120963825D01*
X150117882Y-120757534D01*
X149774834Y-120615439D01*
X149410656Y-120543000D01*
X149039344Y-120543000D01*
X148675166Y-120615439D01*
X148332118Y-120757534D01*
X148023382Y-120963825D01*
X147760825Y-121226382D01*
X147554534Y-121535118D01*
X147412439Y-121878166D01*
X147340000Y-122242344D01*
X147340000Y-122613656D01*
X147412439Y-122977834D01*
X147554534Y-123320882D01*
X147760825Y-123629618D01*
X148023382Y-123892175D01*
X148332118Y-124098466D01*
X148675166Y-124240561D01*
X149039344Y-124313000D01*
X149410656Y-124313000D01*
X149595167Y-124276299D01*
X151658868Y-126340000D01*
X139853716Y-126340000D01*
X140021111Y-126323513D01*
X140301034Y-126238599D01*
X140559014Y-126100706D01*
X140785134Y-125915134D01*
X140970706Y-125689014D01*
X141108599Y-125431034D01*
X141193513Y-125151111D01*
X141215000Y-124932949D01*
X141215000Y-123987050D01*
X141193513Y-123768889D01*
X141108599Y-123488966D01*
X140970706Y-123230986D01*
X140785134Y-123004866D01*
X140559013Y-122819294D01*
X140301033Y-122681401D01*
X140021110Y-122596487D01*
X139730000Y-122567815D01*
X139438889Y-122596487D01*
X139158966Y-122681401D01*
X138900986Y-122819294D01*
X138674866Y-123004866D01*
X138489294Y-123230987D01*
X138351401Y-123488967D01*
X138266487Y-123768890D01*
X138245000Y-123987051D01*
X138245000Y-124932950D01*
X138266487Y-125151111D01*
X138351401Y-125431034D01*
X138489294Y-125689014D01*
X138674866Y-125915134D01*
X138900987Y-126100706D01*
X139158967Y-126238599D01*
X139438890Y-126323513D01*
X139606284Y-126340000D01*
X89535000Y-126340000D01*
X89535000Y-118907051D01*
X138215000Y-118907051D01*
X138215000Y-119852950D01*
X138236487Y-120071111D01*
X138321401Y-120351034D01*
X138459294Y-120609014D01*
X138644866Y-120835134D01*
X138870987Y-121020706D01*
X139128967Y-121158599D01*
X139408890Y-121243513D01*
X139700000Y-121272185D01*
X139991111Y-121243513D01*
X140271034Y-121158599D01*
X140529014Y-121020706D01*
X140755134Y-120835134D01*
X140940706Y-120609014D01*
X141078599Y-120351034D01*
X141163513Y-120071111D01*
X141185000Y-119852949D01*
X141185000Y-118907050D01*
X141163513Y-118688889D01*
X141078599Y-118408966D01*
X140940706Y-118150986D01*
X140755134Y-117924866D01*
X140529013Y-117739294D01*
X140271033Y-117601401D01*
X139991110Y-117516487D01*
X139700000Y-117487815D01*
X139408889Y-117516487D01*
X139128966Y-117601401D01*
X138870986Y-117739294D01*
X138644866Y-117924866D01*
X138459294Y-118150987D01*
X138321401Y-118408967D01*
X138236487Y-118688890D01*
X138215000Y-118907051D01*
X89535000Y-118907051D01*
X89535000Y-107242344D01*
X147340000Y-107242344D01*
X147340000Y-107613656D01*
X147412439Y-107977834D01*
X147554534Y-108320882D01*
X147760825Y-108629618D01*
X148023382Y-108892175D01*
X148332118Y-109098466D01*
X148675166Y-109240561D01*
X149039344Y-109313000D01*
X149410656Y-109313000D01*
X149774834Y-109240561D01*
X150117882Y-109098466D01*
X150426618Y-108892175D01*
X150689175Y-108629618D01*
X150895466Y-108320882D01*
X151037561Y-107977834D01*
X151110000Y-107613656D01*
X151110000Y-107242344D01*
X151037561Y-106878166D01*
X150895466Y-106535118D01*
X150689175Y-106226382D01*
X150426618Y-105963825D01*
X150117882Y-105757534D01*
X149774834Y-105615439D01*
X149410656Y-105543000D01*
X149039344Y-105543000D01*
X148675166Y-105615439D01*
X148332118Y-105757534D01*
X148023382Y-105963825D01*
X147760825Y-106226382D01*
X147554534Y-106535118D01*
X147412439Y-106878166D01*
X147340000Y-107242344D01*
X89535000Y-107242344D01*
X89535000Y-96245701D01*
X108975000Y-96245701D01*
X108975000Y-96794299D01*
X109082026Y-97332354D01*
X109291965Y-97839192D01*
X109596750Y-98295334D01*
X109984666Y-98683250D01*
X110440808Y-98988035D01*
X110947646Y-99197974D01*
X111485701Y-99305000D01*
X112034299Y-99305000D01*
X112572354Y-99197974D01*
X113079192Y-98988035D01*
X113535334Y-98683250D01*
X113923250Y-98295334D01*
X114228035Y-97839192D01*
X114437974Y-97332354D01*
X114545000Y-96794299D01*
X114545000Y-96245701D01*
X114437974Y-95707646D01*
X114228035Y-95200808D01*
X113923250Y-94744666D01*
X113535334Y-94356750D01*
X113079192Y-94051965D01*
X112572354Y-93842026D01*
X112034299Y-93735000D01*
X111485701Y-93735000D01*
X110947646Y-93842026D01*
X110440808Y-94051965D01*
X109984666Y-94356750D01*
X109596750Y-94744666D01*
X109291965Y-95200808D01*
X109082026Y-95707646D01*
X108975000Y-96245701D01*
X89535000Y-96245701D01*
X89535000Y-66700000D01*
X139576284Y-66700000D01*
X139408889Y-66716487D01*
G37*
%TD.AperFunction*%
%TD*%
M02*
