%TF.GenerationSoftware,KiCad,Pcbnew,(5.1.9)-1*%
%TF.CreationDate,2021-06-27T18:44:15-04:00*%
%TF.ProjectId,C64PowerSupply,43363450-6f77-4657-9253-7570706c792e,A*%
%TF.SameCoordinates,Original*%
%TF.FileFunction,Soldermask,Top*%
%TF.FilePolarity,Negative*%
%FSLAX46Y46*%
G04 Gerber Fmt 4.6, Leading zero omitted, Abs format (unit mm)*
G04 Created by KiCad (PCBNEW (5.1.9)-1) date 2021-06-27 18:44:15*
%MOMM*%
%LPD*%
G01*
G04 APERTURE LIST*
%ADD10C,3.000000*%
%ADD11R,3.000000X3.000000*%
%ADD12C,2.500000*%
%ADD13C,2.667000*%
%ADD14C,5.700000*%
%ADD15C,2.400000*%
%ADD16C,0.100000*%
%ADD17R,10.200000X3.500000*%
%ADD18C,1.600000*%
%ADD19R,1.600000X1.600000*%
%ADD20R,2.159000X1.778000*%
%ADD21O,1.800000X1.800000*%
%ADD22R,1.800000X1.800000*%
%ADD23R,2.400000X2.400000*%
%ADD24C,4.300000*%
%ADD25R,1.700000X2.500000*%
%ADD26O,1.700000X2.500000*%
G04 APERTURE END LIST*
D10*
%TO.C,J2*%
X191008000Y-105156000D03*
D11*
X191008000Y-89916000D03*
D10*
X191008000Y-100076000D03*
X191008000Y-94996000D03*
%TD*%
%TO.C,J1*%
X74676000Y-102108000D03*
X74676000Y-107188000D03*
D11*
X74676000Y-112268000D03*
%TD*%
D12*
%TO.C,F2*%
X149352000Y-70725000D03*
X149352000Y-85725000D03*
%TD*%
%TO.C,F1*%
X149225000Y-107428000D03*
X149225000Y-122428000D03*
%TD*%
D13*
%TO.C,HS1*%
X171640500Y-114198400D03*
X181927500Y-114198400D03*
%TD*%
D14*
%TO.C,H4*%
X73660000Y-121920000D03*
%TD*%
%TO.C,H3*%
X190500000Y-121920000D03*
%TD*%
%TO.C,H2*%
X190500000Y-71120000D03*
%TD*%
%TO.C,H1*%
X73660000Y-71120000D03*
%TD*%
D15*
%TO.C,D1*%
X161448175Y-104156753D03*
D16*
G36*
X153670000Y-94822944D02*
G01*
X155367056Y-96520000D01*
X153670000Y-98217056D01*
X151972944Y-96520000D01*
X153670000Y-94822944D01*
G37*
D15*
X161377464Y-88812536D03*
X169084928Y-96520000D03*
%TD*%
D17*
%TO.C,L1*%
X161544000Y-119632000D03*
X161544000Y-113032000D03*
%TD*%
D18*
%TO.C,C5*%
X191460000Y-113284000D03*
D19*
X187960000Y-113284000D03*
%TD*%
D20*
%TO.C,D2*%
X168656000Y-104140000D03*
X168656000Y-108204000D03*
%TD*%
D21*
%TO.C,U1*%
X173540000Y-102108000D03*
X175240000Y-105808000D03*
X176940000Y-102108000D03*
X178640000Y-105808000D03*
D22*
X180340000Y-102108000D03*
%TD*%
D18*
%TO.C,C4*%
X176840000Y-94996000D03*
D19*
X180340000Y-94996000D03*
%TD*%
D15*
%TO.C,C3*%
X182372000Y-76320000D03*
D23*
X182372000Y-83820000D03*
%TD*%
D15*
%TO.C,C2*%
X164592000Y-72256000D03*
D23*
X164592000Y-79756000D03*
%TD*%
D15*
%TO.C,C1*%
X74676000Y-80250000D03*
X74676000Y-95250000D03*
%TD*%
D24*
%TO.C,TR1*%
X111760000Y-96520000D03*
D25*
X83820000Y-121920000D03*
D26*
X83790000Y-116840000D03*
X83790000Y-71120000D03*
X139700000Y-68580000D03*
X139700000Y-73660000D03*
X139700000Y-119380000D03*
X139730000Y-124460000D03*
X83820000Y-76200000D03*
%TD*%
M02*
