G04 #@! TF.GenerationSoftware,KiCad,Pcbnew,(6.0.7)*
G04 #@! TF.CreationDate,2022-09-18T10:38:10-04:00*
G04 #@! TF.ProjectId,C64PowerSupply,43363450-6f77-4657-9253-7570706c792e,B*
G04 #@! TF.SameCoordinates,Original*
G04 #@! TF.FileFunction,Legend,Top*
G04 #@! TF.FilePolarity,Positive*
%FSLAX46Y46*%
G04 Gerber Fmt 4.6, Leading zero omitted, Abs format (unit mm)*
G04 Created by KiCad (PCBNEW (6.0.7)) date 2022-09-18 10:38:10*
%MOMM*%
%LPD*%
G01*
G04 APERTURE LIST*
G04 Aperture macros list*
%AMRoundRect*
0 Rectangle with rounded corners*
0 $1 Rounding radius*
0 $2 $3 $4 $5 $6 $7 $8 $9 X,Y pos of 4 corners*
0 Add a 4 corners polygon primitive as box body*
4,1,4,$2,$3,$4,$5,$6,$7,$8,$9,$2,$3,0*
0 Add four circle primitives for the rounded corners*
1,1,$1+$1,$2,$3*
1,1,$1+$1,$4,$5*
1,1,$1+$1,$6,$7*
1,1,$1+$1,$8,$9*
0 Add four rect primitives between the rounded corners*
20,1,$1+$1,$2,$3,$4,$5,0*
20,1,$1+$1,$4,$5,$6,$7,0*
20,1,$1+$1,$6,$7,$8,$9,0*
20,1,$1+$1,$8,$9,$2,$3,0*%
G04 Aperture macros list end*
%ADD10C,0.958026*%
%ADD11C,1.000000*%
%ADD12C,0.120000*%
%ADD13C,0.203200*%
%ADD14C,0.150000*%
%ADD15C,0.254000*%
%ADD16C,0.314000*%
%ADD17C,0.200000*%
%ADD18C,5.080000*%
%ADD19R,3.048000X3.048000*%
%ADD20C,3.400000*%
%ADD21R,2.600000X2.600000*%
%ADD22C,2.600000*%
%ADD23C,2.500000*%
%ADD24R,2.400000X2.400000*%
%ADD25C,2.400000*%
%ADD26RoundRect,0.250000X0.412500X1.100000X-0.412500X1.100000X-0.412500X-1.100000X0.412500X-1.100000X0*%
%ADD27R,3.500000X2.350000*%
%ADD28C,5.700000*%
%ADD29RoundRect,0.250000X-0.450000X0.350000X-0.450000X-0.350000X0.450000X-0.350000X0.450000X0.350000X0*%
%ADD30C,1.440000*%
%ADD31RoundRect,0.250000X0.412500X0.650000X-0.412500X0.650000X-0.412500X-0.650000X0.412500X-0.650000X0*%
%ADD32R,2.500000X2.300000*%
%ADD33RoundRect,0.250000X0.475000X-0.337500X0.475000X0.337500X-0.475000X0.337500X-0.475000X-0.337500X0*%
%ADD34R,2.400000X3.100000*%
%ADD35RoundRect,0.070000X-1.100000X-0.250000X1.100000X-0.250000X1.100000X0.250000X-1.100000X0.250000X0*%
%ADD36C,0.770000*%
%ADD37RoundRect,0.250000X-0.337500X-0.475000X0.337500X-0.475000X0.337500X0.475000X-0.337500X0.475000X0*%
%ADD38C,1.800000*%
%ADD39R,2.000000X2.000000*%
%ADD40C,2.000000*%
%ADD41RoundRect,0.250000X0.337500X0.475000X-0.337500X0.475000X-0.337500X-0.475000X0.337500X-0.475000X0*%
%ADD42R,1.000000X1.500000*%
G04 APERTURE END LIST*
D10*
X91284013Y-83820000D02*
G75*
G03*
X91284013Y-83820000I-479013J0D01*
G01*
D11*
X90805000Y-92710000D02*
X90805000Y-95250000D01*
D12*
X86360000Y-88900000D02*
X95250000Y-88900000D01*
X95250000Y-88900000D02*
X95250000Y-96520000D01*
X95250000Y-96520000D02*
X86360000Y-96520000D01*
X86360000Y-96520000D02*
X86360000Y-88900000D01*
D10*
X88744013Y-81280000D02*
G75*
G03*
X88744013Y-81280000I-479013J0D01*
G01*
D12*
X194310000Y-102362000D02*
X193294000Y-102362000D01*
D10*
X91284013Y-90170000D02*
G75*
G03*
X91284013Y-90170000I-479013J0D01*
G01*
X88744013Y-92710000D02*
G75*
G03*
X88744013Y-92710000I-479013J0D01*
G01*
X91284013Y-92710000D02*
G75*
G03*
X91284013Y-92710000I-479013J0D01*
G01*
D11*
X83820000Y-99060000D02*
X99060000Y-99060000D01*
X99060000Y-106680000D01*
X147320000Y-106680000D01*
X147320000Y-125730000D01*
X69850000Y-125730000D01*
X69850000Y-62230000D01*
X83820000Y-62230000D01*
X83820000Y-99060000D01*
D10*
X88744013Y-95250000D02*
G75*
G03*
X88744013Y-95250000I-479013J0D01*
G01*
D12*
X194310000Y-81640000D02*
X194310000Y-81132000D01*
X193294000Y-107442000D02*
X194310000Y-107442000D01*
X193294000Y-86212000D02*
X194310000Y-86212000D01*
D10*
X91284013Y-86360000D02*
G75*
G03*
X91284013Y-86360000I-479013J0D01*
G01*
D12*
X194310000Y-81132000D02*
X193294000Y-81132000D01*
D11*
X88265000Y-81280000D02*
X88265000Y-83820000D01*
X90805000Y-81280000D02*
X90805000Y-83820000D01*
D10*
X88744013Y-83820000D02*
G75*
G03*
X88744013Y-83820000I-479013J0D01*
G01*
D12*
X194310000Y-106934000D02*
X194310000Y-107442000D01*
D10*
X88744013Y-86360000D02*
G75*
G03*
X88744013Y-86360000I-479013J0D01*
G01*
X88744013Y-90170000D02*
G75*
G03*
X88744013Y-90170000I-479013J0D01*
G01*
D12*
X86360000Y-80010000D02*
X95250000Y-80010000D01*
X95250000Y-80010000D02*
X95250000Y-87630000D01*
X95250000Y-87630000D02*
X86360000Y-87630000D01*
X86360000Y-87630000D02*
X86360000Y-80010000D01*
D10*
X91284013Y-95250000D02*
G75*
G03*
X91284013Y-95250000I-479013J0D01*
G01*
D11*
X88265000Y-92710000D02*
X88265000Y-95250000D01*
D12*
X194310000Y-85704000D02*
X194310000Y-86212000D01*
X194310000Y-102870000D02*
X194310000Y-102362000D01*
D10*
X91284013Y-81280000D02*
G75*
G03*
X91284013Y-81280000I-479013J0D01*
G01*
D13*
X80590571Y-81425142D02*
X82114571Y-81425142D01*
X81388857Y-81425142D02*
X81388857Y-82296000D01*
X80590571Y-82296000D02*
X82114571Y-82296000D01*
X82114571Y-83312000D02*
X82114571Y-83602285D01*
X82042000Y-83747428D01*
X81896857Y-83892571D01*
X81606571Y-83965142D01*
X81098571Y-83965142D01*
X80808285Y-83892571D01*
X80663142Y-83747428D01*
X80590571Y-83602285D01*
X80590571Y-83312000D01*
X80663142Y-83166857D01*
X80808285Y-83021714D01*
X81098571Y-82949142D01*
X81606571Y-82949142D01*
X81896857Y-83021714D01*
X82042000Y-83166857D01*
X82114571Y-83312000D01*
X82114571Y-84400571D02*
X82114571Y-85271428D01*
X80590571Y-84836000D02*
X82114571Y-84836000D01*
X80663142Y-86868000D02*
X80590571Y-87085714D01*
X80590571Y-87448571D01*
X80663142Y-87593714D01*
X80735714Y-87666285D01*
X80880857Y-87738857D01*
X81026000Y-87738857D01*
X81171142Y-87666285D01*
X81243714Y-87593714D01*
X81316285Y-87448571D01*
X81388857Y-87158285D01*
X81461428Y-87013142D01*
X81534000Y-86940571D01*
X81679142Y-86868000D01*
X81824285Y-86868000D01*
X81969428Y-86940571D01*
X82042000Y-87013142D01*
X82114571Y-87158285D01*
X82114571Y-87521142D01*
X82042000Y-87738857D01*
X80590571Y-88392000D02*
X82114571Y-88392000D01*
X80590571Y-89117714D02*
X82114571Y-89117714D01*
X82114571Y-89480571D01*
X82042000Y-89698285D01*
X81896857Y-89843428D01*
X81751714Y-89916000D01*
X81461428Y-89988571D01*
X81243714Y-89988571D01*
X80953428Y-89916000D01*
X80808285Y-89843428D01*
X80663142Y-89698285D01*
X80590571Y-89480571D01*
X80590571Y-89117714D01*
X81388857Y-90641714D02*
X81388857Y-91149714D01*
X80590571Y-91367428D02*
X80590571Y-90641714D01*
X82114571Y-90641714D01*
X82114571Y-91367428D01*
D14*
X193762380Y-98472476D02*
X193762380Y-98948666D01*
X194238571Y-98996285D01*
X194190952Y-98948666D01*
X194143333Y-98853428D01*
X194143333Y-98615333D01*
X194190952Y-98520095D01*
X194238571Y-98472476D01*
X194333809Y-98424857D01*
X194571904Y-98424857D01*
X194667142Y-98472476D01*
X194714761Y-98520095D01*
X194762380Y-98615333D01*
X194762380Y-98853428D01*
X194714761Y-98948666D01*
X194667142Y-98996285D01*
X193762380Y-98139142D02*
X194762380Y-97805809D01*
X193762380Y-97472476D01*
X194762380Y-97139142D02*
X193762380Y-97139142D01*
X193762380Y-96901047D01*
X193810000Y-96758190D01*
X193905238Y-96662952D01*
X194000476Y-96615333D01*
X194190952Y-96567714D01*
X194333809Y-96567714D01*
X194524285Y-96615333D01*
X194619523Y-96662952D01*
X194714761Y-96758190D01*
X194762380Y-96901047D01*
X194762380Y-97139142D01*
X194667142Y-95567714D02*
X194714761Y-95615333D01*
X194762380Y-95758190D01*
X194762380Y-95853428D01*
X194714761Y-95996285D01*
X194619523Y-96091523D01*
X194524285Y-96139142D01*
X194333809Y-96186761D01*
X194190952Y-96186761D01*
X194000476Y-96139142D01*
X193905238Y-96091523D01*
X193810000Y-95996285D01*
X193762380Y-95853428D01*
X193762380Y-95758190D01*
X193810000Y-95615333D01*
X193857619Y-95567714D01*
X194762380Y-106449619D02*
X194762380Y-106259142D01*
X194714761Y-106163904D01*
X194667142Y-106116285D01*
X194524285Y-106021047D01*
X194333809Y-105973428D01*
X193952857Y-105973428D01*
X193857619Y-106021047D01*
X193810000Y-106068666D01*
X193762380Y-106163904D01*
X193762380Y-106354380D01*
X193810000Y-106449619D01*
X193857619Y-106497238D01*
X193952857Y-106544857D01*
X194190952Y-106544857D01*
X194286190Y-106497238D01*
X194333809Y-106449619D01*
X194381428Y-106354380D01*
X194381428Y-106163904D01*
X194333809Y-106068666D01*
X194286190Y-106021047D01*
X194190952Y-105973428D01*
X193762380Y-105687714D02*
X194762380Y-105354380D01*
X193762380Y-105021047D01*
X194476666Y-104735333D02*
X194476666Y-104259142D01*
X194762380Y-104830571D02*
X193762380Y-104497238D01*
X194762380Y-104163904D01*
X194667142Y-103259142D02*
X194714761Y-103306761D01*
X194762380Y-103449619D01*
X194762380Y-103544857D01*
X194714761Y-103687714D01*
X194619523Y-103782952D01*
X194524285Y-103830571D01*
X194333809Y-103878190D01*
X194190952Y-103878190D01*
X194000476Y-103830571D01*
X193905238Y-103782952D01*
X193810000Y-103687714D01*
X193762380Y-103544857D01*
X193762380Y-103449619D01*
X193810000Y-103306761D01*
X193857619Y-103259142D01*
X94432380Y-91043333D02*
X94480000Y-91090952D01*
X94527619Y-91186190D01*
X94527619Y-91424285D01*
X94480000Y-91519523D01*
X94432380Y-91567142D01*
X94337142Y-91614761D01*
X94241904Y-91614761D01*
X94099047Y-91567142D01*
X93527619Y-90995714D01*
X93527619Y-91614761D01*
X94194285Y-92471904D02*
X93527619Y-92471904D01*
X94575238Y-92233809D02*
X93860952Y-91995714D01*
X93860952Y-92614761D01*
X94527619Y-93186190D02*
X94527619Y-93281428D01*
X94480000Y-93376666D01*
X94432380Y-93424285D01*
X94337142Y-93471904D01*
X94146666Y-93519523D01*
X93908571Y-93519523D01*
X93718095Y-93471904D01*
X93622857Y-93424285D01*
X93575238Y-93376666D01*
X93527619Y-93281428D01*
X93527619Y-93186190D01*
X93575238Y-93090952D01*
X93622857Y-93043333D01*
X93718095Y-92995714D01*
X93908571Y-92948095D01*
X94146666Y-92948095D01*
X94337142Y-92995714D01*
X94432380Y-93043333D01*
X94480000Y-93090952D01*
X94527619Y-93186190D01*
X94527619Y-93805238D02*
X93527619Y-94138571D01*
X94527619Y-94471904D01*
X136882952Y-51268380D02*
X136406761Y-51268380D01*
X136359142Y-51744571D01*
X136406761Y-51696952D01*
X136502000Y-51649333D01*
X136740095Y-51649333D01*
X136835333Y-51696952D01*
X136882952Y-51744571D01*
X136930571Y-51839809D01*
X136930571Y-52077904D01*
X136882952Y-52173142D01*
X136835333Y-52220761D01*
X136740095Y-52268380D01*
X136502000Y-52268380D01*
X136406761Y-52220761D01*
X136359142Y-52173142D01*
X137216285Y-51268380D02*
X137549619Y-52268380D01*
X137882952Y-51268380D01*
X138216285Y-52268380D02*
X138216285Y-51268380D01*
X138454380Y-51268380D01*
X138597238Y-51316000D01*
X138692476Y-51411238D01*
X138740095Y-51506476D01*
X138787714Y-51696952D01*
X138787714Y-51839809D01*
X138740095Y-52030285D01*
X138692476Y-52125523D01*
X138597238Y-52220761D01*
X138454380Y-52268380D01*
X138216285Y-52268380D01*
X139787714Y-52173142D02*
X139740095Y-52220761D01*
X139597238Y-52268380D01*
X139502000Y-52268380D01*
X139359142Y-52220761D01*
X139263904Y-52125523D01*
X139216285Y-52030285D01*
X139168666Y-51839809D01*
X139168666Y-51696952D01*
X139216285Y-51506476D01*
X139263904Y-51411238D01*
X139359142Y-51316000D01*
X139502000Y-51268380D01*
X139597238Y-51268380D01*
X139740095Y-51316000D01*
X139787714Y-51363619D01*
X141311523Y-51744571D02*
X140978190Y-51744571D01*
X140978190Y-52268380D02*
X140978190Y-51268380D01*
X141454380Y-51268380D01*
X141835333Y-51268380D02*
X141835333Y-52077904D01*
X141882952Y-52173142D01*
X141930571Y-52220761D01*
X142025809Y-52268380D01*
X142216285Y-52268380D01*
X142311523Y-52220761D01*
X142359142Y-52173142D01*
X142406761Y-52077904D01*
X142406761Y-51268380D01*
X142835333Y-52220761D02*
X142978190Y-52268380D01*
X143216285Y-52268380D01*
X143311523Y-52220761D01*
X143359142Y-52173142D01*
X143406761Y-52077904D01*
X143406761Y-51982666D01*
X143359142Y-51887428D01*
X143311523Y-51839809D01*
X143216285Y-51792190D01*
X143025809Y-51744571D01*
X142930571Y-51696952D01*
X142882952Y-51649333D01*
X142835333Y-51554095D01*
X142835333Y-51458857D01*
X142882952Y-51363619D01*
X142930571Y-51316000D01*
X143025809Y-51268380D01*
X143263904Y-51268380D01*
X143406761Y-51316000D01*
X143835333Y-51744571D02*
X144168666Y-51744571D01*
X144311523Y-52268380D02*
X143835333Y-52268380D01*
X143835333Y-51268380D01*
X144311523Y-51268380D01*
X145787714Y-52649333D02*
X145740095Y-52601714D01*
X145644857Y-52458857D01*
X145597238Y-52363619D01*
X145549619Y-52220761D01*
X145502000Y-51982666D01*
X145502000Y-51792190D01*
X145549619Y-51554095D01*
X145597238Y-51411238D01*
X145644857Y-51316000D01*
X145740095Y-51173142D01*
X145787714Y-51125523D01*
X146121047Y-51363619D02*
X146168666Y-51316000D01*
X146263904Y-51268380D01*
X146502000Y-51268380D01*
X146597238Y-51316000D01*
X146644857Y-51363619D01*
X146692476Y-51458857D01*
X146692476Y-51554095D01*
X146644857Y-51696952D01*
X146073428Y-52268380D01*
X146692476Y-52268380D01*
X147121047Y-52173142D02*
X147168666Y-52220761D01*
X147121047Y-52268380D01*
X147073428Y-52220761D01*
X147121047Y-52173142D01*
X147121047Y-52268380D01*
X148073428Y-51268380D02*
X147597238Y-51268380D01*
X147549619Y-51744571D01*
X147597238Y-51696952D01*
X147692476Y-51649333D01*
X147930571Y-51649333D01*
X148025809Y-51696952D01*
X148073428Y-51744571D01*
X148121047Y-51839809D01*
X148121047Y-52077904D01*
X148073428Y-52173142D01*
X148025809Y-52220761D01*
X147930571Y-52268380D01*
X147692476Y-52268380D01*
X147597238Y-52220761D01*
X147549619Y-52173142D01*
X148502000Y-51982666D02*
X148978190Y-51982666D01*
X148406761Y-52268380D02*
X148740095Y-51268380D01*
X149073428Y-52268380D01*
X149311523Y-52649333D02*
X149359142Y-52601714D01*
X149454380Y-52458857D01*
X149502000Y-52363619D01*
X149549619Y-52220761D01*
X149597238Y-51982666D01*
X149597238Y-51792190D01*
X149549619Y-51554095D01*
X149502000Y-51411238D01*
X149454380Y-51316000D01*
X149359142Y-51173142D01*
X149311523Y-51125523D01*
X193810000Y-71733904D02*
X193762380Y-71829142D01*
X193762380Y-71972000D01*
X193810000Y-72114857D01*
X193905238Y-72210095D01*
X194000476Y-72257714D01*
X194190952Y-72305333D01*
X194333809Y-72305333D01*
X194524285Y-72257714D01*
X194619523Y-72210095D01*
X194714761Y-72114857D01*
X194762380Y-71972000D01*
X194762380Y-71876761D01*
X194714761Y-71733904D01*
X194667142Y-71686285D01*
X194333809Y-71686285D01*
X194333809Y-71876761D01*
X194762380Y-71257714D02*
X193762380Y-71257714D01*
X194762380Y-70686285D01*
X193762380Y-70686285D01*
X194762380Y-70210095D02*
X193762380Y-70210095D01*
X193762380Y-69972000D01*
X193810000Y-69829142D01*
X193905238Y-69733904D01*
X194000476Y-69686285D01*
X194190952Y-69638666D01*
X194333809Y-69638666D01*
X194524285Y-69686285D01*
X194619523Y-69733904D01*
X194714761Y-69829142D01*
X194762380Y-69972000D01*
X194762380Y-70210095D01*
X71302619Y-100663523D02*
X72302619Y-100663523D01*
X71826428Y-100663523D02*
X71826428Y-101234952D01*
X71302619Y-101234952D02*
X72302619Y-101234952D01*
X72302619Y-101901619D02*
X72302619Y-102092095D01*
X72255000Y-102187333D01*
X72159761Y-102282571D01*
X71969285Y-102330190D01*
X71635952Y-102330190D01*
X71445476Y-102282571D01*
X71350238Y-102187333D01*
X71302619Y-102092095D01*
X71302619Y-101901619D01*
X71350238Y-101806380D01*
X71445476Y-101711142D01*
X71635952Y-101663523D01*
X71969285Y-101663523D01*
X72159761Y-101711142D01*
X72255000Y-101806380D01*
X72302619Y-101901619D01*
X72302619Y-102615904D02*
X72302619Y-103187333D01*
X71302619Y-102901619D02*
X72302619Y-102901619D01*
X72255000Y-111506095D02*
X72302619Y-111410857D01*
X72302619Y-111268000D01*
X72255000Y-111125142D01*
X72159761Y-111029904D01*
X72064523Y-110982285D01*
X71874047Y-110934666D01*
X71731190Y-110934666D01*
X71540714Y-110982285D01*
X71445476Y-111029904D01*
X71350238Y-111125142D01*
X71302619Y-111268000D01*
X71302619Y-111363238D01*
X71350238Y-111506095D01*
X71397857Y-111553714D01*
X71731190Y-111553714D01*
X71731190Y-111363238D01*
X71302619Y-111982285D02*
X72302619Y-111982285D01*
X71302619Y-112553714D01*
X72302619Y-112553714D01*
X71302619Y-113029904D02*
X72302619Y-113029904D01*
X72302619Y-113268000D01*
X72255000Y-113410857D01*
X72159761Y-113506095D01*
X72064523Y-113553714D01*
X71874047Y-113601333D01*
X71731190Y-113601333D01*
X71540714Y-113553714D01*
X71445476Y-113506095D01*
X71350238Y-113410857D01*
X71302619Y-113268000D01*
X71302619Y-113029904D01*
X84455809Y-52268380D02*
X84646285Y-52268380D01*
X84741523Y-52220761D01*
X84789142Y-52173142D01*
X84884380Y-52030285D01*
X84932000Y-51839809D01*
X84932000Y-51458857D01*
X84884380Y-51363619D01*
X84836761Y-51316000D01*
X84741523Y-51268380D01*
X84551047Y-51268380D01*
X84455809Y-51316000D01*
X84408190Y-51363619D01*
X84360571Y-51458857D01*
X84360571Y-51696952D01*
X84408190Y-51792190D01*
X84455809Y-51839809D01*
X84551047Y-51887428D01*
X84741523Y-51887428D01*
X84836761Y-51839809D01*
X84884380Y-51792190D01*
X84932000Y-51696952D01*
X85217714Y-51268380D02*
X85551047Y-52268380D01*
X85884380Y-51268380D01*
X86170095Y-51982666D02*
X86646285Y-51982666D01*
X86074857Y-52268380D02*
X86408190Y-51268380D01*
X86741523Y-52268380D01*
X87646285Y-52173142D02*
X87598666Y-52220761D01*
X87455809Y-52268380D01*
X87360571Y-52268380D01*
X87217714Y-52220761D01*
X87122476Y-52125523D01*
X87074857Y-52030285D01*
X87027238Y-51839809D01*
X87027238Y-51696952D01*
X87074857Y-51506476D01*
X87122476Y-51411238D01*
X87217714Y-51316000D01*
X87360571Y-51268380D01*
X87455809Y-51268380D01*
X87598666Y-51316000D01*
X87646285Y-51363619D01*
X89170095Y-51744571D02*
X88836761Y-51744571D01*
X88836761Y-52268380D02*
X88836761Y-51268380D01*
X89312952Y-51268380D01*
X89693904Y-51268380D02*
X89693904Y-52077904D01*
X89741523Y-52173142D01*
X89789142Y-52220761D01*
X89884380Y-52268380D01*
X90074857Y-52268380D01*
X90170095Y-52220761D01*
X90217714Y-52173142D01*
X90265333Y-52077904D01*
X90265333Y-51268380D01*
X90693904Y-52220761D02*
X90836761Y-52268380D01*
X91074857Y-52268380D01*
X91170095Y-52220761D01*
X91217714Y-52173142D01*
X91265333Y-52077904D01*
X91265333Y-51982666D01*
X91217714Y-51887428D01*
X91170095Y-51839809D01*
X91074857Y-51792190D01*
X90884380Y-51744571D01*
X90789142Y-51696952D01*
X90741523Y-51649333D01*
X90693904Y-51554095D01*
X90693904Y-51458857D01*
X90741523Y-51363619D01*
X90789142Y-51316000D01*
X90884380Y-51268380D01*
X91122476Y-51268380D01*
X91265333Y-51316000D01*
X91693904Y-51744571D02*
X92027238Y-51744571D01*
X92170095Y-52268380D02*
X91693904Y-52268380D01*
X91693904Y-51268380D01*
X92170095Y-51268380D01*
X93646285Y-52649333D02*
X93598666Y-52601714D01*
X93503428Y-52458857D01*
X93455809Y-52363619D01*
X93408190Y-52220761D01*
X93360571Y-51982666D01*
X93360571Y-51792190D01*
X93408190Y-51554095D01*
X93455809Y-51411238D01*
X93503428Y-51316000D01*
X93598666Y-51173142D01*
X93646285Y-51125523D01*
X94551047Y-52268380D02*
X93979619Y-52268380D01*
X94265333Y-52268380D02*
X94265333Y-51268380D01*
X94170095Y-51411238D01*
X94074857Y-51506476D01*
X93979619Y-51554095D01*
X94979619Y-52173142D02*
X95027238Y-52220761D01*
X94979619Y-52268380D01*
X94932000Y-52220761D01*
X94979619Y-52173142D01*
X94979619Y-52268380D01*
X95932000Y-51268380D02*
X95455809Y-51268380D01*
X95408190Y-51744571D01*
X95455809Y-51696952D01*
X95551047Y-51649333D01*
X95789142Y-51649333D01*
X95884380Y-51696952D01*
X95932000Y-51744571D01*
X95979619Y-51839809D01*
X95979619Y-52077904D01*
X95932000Y-52173142D01*
X95884380Y-52220761D01*
X95789142Y-52268380D01*
X95551047Y-52268380D01*
X95455809Y-52220761D01*
X95408190Y-52173142D01*
X96360571Y-51982666D02*
X96836761Y-51982666D01*
X96265333Y-52268380D02*
X96598666Y-51268380D01*
X96932000Y-52268380D01*
X97170095Y-52649333D02*
X97217714Y-52601714D01*
X97312952Y-52458857D01*
X97360571Y-52363619D01*
X97408190Y-52220761D01*
X97455809Y-51982666D01*
X97455809Y-51792190D01*
X97408190Y-51554095D01*
X97360571Y-51411238D01*
X97312952Y-51316000D01*
X97217714Y-51173142D01*
X97170095Y-51125523D01*
X184872380Y-119863809D02*
X185872380Y-119530476D01*
X184872380Y-119197142D01*
X185586666Y-118911428D02*
X185586666Y-118435238D01*
X185872380Y-119006666D02*
X184872380Y-118673333D01*
X185872380Y-118340000D01*
X185872380Y-118006666D02*
X184872380Y-118006666D01*
X184872380Y-117768571D01*
X184920000Y-117625714D01*
X185015238Y-117530476D01*
X185110476Y-117482857D01*
X185300952Y-117435238D01*
X185443809Y-117435238D01*
X185634285Y-117482857D01*
X185729523Y-117530476D01*
X185824761Y-117625714D01*
X185872380Y-117768571D01*
X185872380Y-118006666D01*
X184872380Y-116720952D02*
X185586666Y-116720952D01*
X185729523Y-116768571D01*
X185824761Y-116863809D01*
X185872380Y-117006666D01*
X185872380Y-117101904D01*
X184872380Y-116244761D02*
X185681904Y-116244761D01*
X185777142Y-116197142D01*
X185824761Y-116149523D01*
X185872380Y-116054285D01*
X185872380Y-115863809D01*
X185824761Y-115768571D01*
X185777142Y-115720952D01*
X185681904Y-115673333D01*
X184872380Y-115673333D01*
X185824761Y-115244761D02*
X185872380Y-115101904D01*
X185872380Y-114863809D01*
X185824761Y-114768571D01*
X185777142Y-114720952D01*
X185681904Y-114673333D01*
X185586666Y-114673333D01*
X185491428Y-114720952D01*
X185443809Y-114768571D01*
X185396190Y-114863809D01*
X185348571Y-115054285D01*
X185300952Y-115149523D01*
X185253333Y-115197142D01*
X185158095Y-115244761D01*
X185062857Y-115244761D01*
X184967619Y-115197142D01*
X184920000Y-115149523D01*
X184872380Y-115054285D01*
X184872380Y-114816190D01*
X184920000Y-114673333D01*
X184872380Y-114387619D02*
X184872380Y-113816190D01*
X185872380Y-114101904D02*
X184872380Y-114101904D01*
X193762380Y-77242476D02*
X193762380Y-77718666D01*
X194238571Y-77766285D01*
X194190952Y-77718666D01*
X194143333Y-77623428D01*
X194143333Y-77385333D01*
X194190952Y-77290095D01*
X194238571Y-77242476D01*
X194333809Y-77194857D01*
X194571904Y-77194857D01*
X194667142Y-77242476D01*
X194714761Y-77290095D01*
X194762380Y-77385333D01*
X194762380Y-77623428D01*
X194714761Y-77718666D01*
X194667142Y-77766285D01*
X193762380Y-76909142D02*
X194762380Y-76575809D01*
X193762380Y-76242476D01*
X194762380Y-75909142D02*
X193762380Y-75909142D01*
X193762380Y-75671047D01*
X193810000Y-75528190D01*
X193905238Y-75432952D01*
X194000476Y-75385333D01*
X194190952Y-75337714D01*
X194333809Y-75337714D01*
X194524285Y-75385333D01*
X194619523Y-75432952D01*
X194714761Y-75528190D01*
X194762380Y-75671047D01*
X194762380Y-75909142D01*
X194667142Y-74337714D02*
X194714761Y-74385333D01*
X194762380Y-74528190D01*
X194762380Y-74623428D01*
X194714761Y-74766285D01*
X194619523Y-74861523D01*
X194524285Y-74909142D01*
X194333809Y-74956761D01*
X194190952Y-74956761D01*
X194000476Y-74909142D01*
X193905238Y-74861523D01*
X193810000Y-74766285D01*
X193762380Y-74623428D01*
X193762380Y-74528190D01*
X193810000Y-74385333D01*
X193857619Y-74337714D01*
X193810000Y-92963904D02*
X193762380Y-93059142D01*
X193762380Y-93202000D01*
X193810000Y-93344857D01*
X193905238Y-93440095D01*
X194000476Y-93487714D01*
X194190952Y-93535333D01*
X194333809Y-93535333D01*
X194524285Y-93487714D01*
X194619523Y-93440095D01*
X194714761Y-93344857D01*
X194762380Y-93202000D01*
X194762380Y-93106761D01*
X194714761Y-92963904D01*
X194667142Y-92916285D01*
X194333809Y-92916285D01*
X194333809Y-93106761D01*
X194762380Y-92487714D02*
X193762380Y-92487714D01*
X194762380Y-91916285D01*
X193762380Y-91916285D01*
X194762380Y-91440095D02*
X193762380Y-91440095D01*
X193762380Y-91202000D01*
X193810000Y-91059142D01*
X193905238Y-90963904D01*
X194000476Y-90916285D01*
X194190952Y-90868666D01*
X194333809Y-90868666D01*
X194524285Y-90916285D01*
X194619523Y-90963904D01*
X194714761Y-91059142D01*
X194762380Y-91202000D01*
X194762380Y-91440095D01*
X71302619Y-104211809D02*
X72302619Y-104211809D01*
X71302619Y-104783238D01*
X72302619Y-104783238D01*
X71826428Y-105259428D02*
X71826428Y-105592761D01*
X71302619Y-105735619D02*
X71302619Y-105259428D01*
X72302619Y-105259428D01*
X72302619Y-105735619D01*
X72302619Y-106164190D02*
X71493095Y-106164190D01*
X71397857Y-106211809D01*
X71350238Y-106259428D01*
X71302619Y-106354666D01*
X71302619Y-106545142D01*
X71350238Y-106640380D01*
X71397857Y-106688000D01*
X71493095Y-106735619D01*
X72302619Y-106735619D01*
X72302619Y-107068952D02*
X72302619Y-107640380D01*
X71302619Y-107354666D02*
X72302619Y-107354666D01*
X71302619Y-108545142D02*
X71778809Y-108211809D01*
X71302619Y-107973714D02*
X72302619Y-107973714D01*
X72302619Y-108354666D01*
X72255000Y-108449904D01*
X72207380Y-108497523D01*
X72112142Y-108545142D01*
X71969285Y-108545142D01*
X71874047Y-108497523D01*
X71826428Y-108449904D01*
X71778809Y-108354666D01*
X71778809Y-107973714D01*
X71588333Y-108926095D02*
X71588333Y-109402285D01*
X71302619Y-108830857D02*
X72302619Y-109164190D01*
X71302619Y-109497523D01*
X71302619Y-110307047D02*
X71302619Y-109830857D01*
X72302619Y-109830857D01*
X194762380Y-85219619D02*
X194762380Y-85029142D01*
X194714761Y-84933904D01*
X194667142Y-84886285D01*
X194524285Y-84791047D01*
X194333809Y-84743428D01*
X193952857Y-84743428D01*
X193857619Y-84791047D01*
X193810000Y-84838666D01*
X193762380Y-84933904D01*
X193762380Y-85124380D01*
X193810000Y-85219619D01*
X193857619Y-85267238D01*
X193952857Y-85314857D01*
X194190952Y-85314857D01*
X194286190Y-85267238D01*
X194333809Y-85219619D01*
X194381428Y-85124380D01*
X194381428Y-84933904D01*
X194333809Y-84838666D01*
X194286190Y-84791047D01*
X194190952Y-84743428D01*
X193762380Y-84457714D02*
X194762380Y-84124380D01*
X193762380Y-83791047D01*
X194476666Y-83505333D02*
X194476666Y-83029142D01*
X194762380Y-83600571D02*
X193762380Y-83267238D01*
X194762380Y-82933904D01*
X194667142Y-82029142D02*
X194714761Y-82076761D01*
X194762380Y-82219619D01*
X194762380Y-82314857D01*
X194714761Y-82457714D01*
X194619523Y-82552952D01*
X194524285Y-82600571D01*
X194333809Y-82648190D01*
X194190952Y-82648190D01*
X194000476Y-82600571D01*
X193905238Y-82552952D01*
X193810000Y-82457714D01*
X193762380Y-82314857D01*
X193762380Y-82219619D01*
X193810000Y-82076761D01*
X193857619Y-82029142D01*
X93527619Y-82724761D02*
X93527619Y-82153333D01*
X93527619Y-82439047D02*
X94527619Y-82439047D01*
X94384761Y-82343809D01*
X94289523Y-82248571D01*
X94241904Y-82153333D01*
X94432380Y-83105714D02*
X94480000Y-83153333D01*
X94527619Y-83248571D01*
X94527619Y-83486666D01*
X94480000Y-83581904D01*
X94432380Y-83629523D01*
X94337142Y-83677142D01*
X94241904Y-83677142D01*
X94099047Y-83629523D01*
X93527619Y-83058095D01*
X93527619Y-83677142D01*
X94527619Y-84296190D02*
X94527619Y-84391428D01*
X94480000Y-84486666D01*
X94432380Y-84534285D01*
X94337142Y-84581904D01*
X94146666Y-84629523D01*
X93908571Y-84629523D01*
X93718095Y-84581904D01*
X93622857Y-84534285D01*
X93575238Y-84486666D01*
X93527619Y-84391428D01*
X93527619Y-84296190D01*
X93575238Y-84200952D01*
X93622857Y-84153333D01*
X93718095Y-84105714D01*
X93908571Y-84058095D01*
X94146666Y-84058095D01*
X94337142Y-84105714D01*
X94432380Y-84153333D01*
X94480000Y-84200952D01*
X94527619Y-84296190D01*
X94527619Y-84915238D02*
X93527619Y-85248571D01*
X94527619Y-85581904D01*
D15*
X115969142Y-102519238D02*
X115969142Y-100487238D01*
X116743238Y-100487238D01*
X116936761Y-100584000D01*
X117033523Y-100680761D01*
X117130285Y-100874285D01*
X117130285Y-101164571D01*
X117033523Y-101358095D01*
X116936761Y-101454857D01*
X116743238Y-101551619D01*
X115969142Y-101551619D01*
X119162285Y-102519238D02*
X118484952Y-101551619D01*
X118001142Y-102519238D02*
X118001142Y-100487238D01*
X118775238Y-100487238D01*
X118968761Y-100584000D01*
X119065523Y-100680761D01*
X119162285Y-100874285D01*
X119162285Y-101164571D01*
X119065523Y-101358095D01*
X118968761Y-101454857D01*
X118775238Y-101551619D01*
X118001142Y-101551619D01*
X120033142Y-102519238D02*
X120033142Y-100487238D01*
X121000761Y-102519238D02*
X121000761Y-100487238D01*
X121678095Y-101938666D01*
X122355428Y-100487238D01*
X122355428Y-102519238D01*
X123226285Y-101938666D02*
X124193904Y-101938666D01*
X123032761Y-102519238D02*
X123710095Y-100487238D01*
X124387428Y-102519238D01*
X126225904Y-102519238D02*
X125548571Y-101551619D01*
X125064761Y-102519238D02*
X125064761Y-100487238D01*
X125838857Y-100487238D01*
X126032380Y-100584000D01*
X126129142Y-100680761D01*
X126225904Y-100874285D01*
X126225904Y-101164571D01*
X126129142Y-101358095D01*
X126032380Y-101454857D01*
X125838857Y-101551619D01*
X125064761Y-101551619D01*
X127483809Y-101551619D02*
X127483809Y-102519238D01*
X126806476Y-100487238D02*
X127483809Y-101551619D01*
X128161142Y-100487238D01*
X130338285Y-85537523D02*
X130048000Y-85440761D01*
X129564190Y-85440761D01*
X129370666Y-85537523D01*
X129273904Y-85634285D01*
X129177142Y-85827809D01*
X129177142Y-86021333D01*
X129273904Y-86214857D01*
X129370666Y-86311619D01*
X129564190Y-86408380D01*
X129951238Y-86505142D01*
X130144761Y-86601904D01*
X130241523Y-86698666D01*
X130338285Y-86892190D01*
X130338285Y-87085714D01*
X130241523Y-87279238D01*
X130144761Y-87376000D01*
X129951238Y-87472761D01*
X129467428Y-87472761D01*
X129177142Y-87376000D01*
X128306285Y-86505142D02*
X127628952Y-86505142D01*
X127338666Y-85440761D02*
X128306285Y-85440761D01*
X128306285Y-87472761D01*
X127338666Y-87472761D01*
X125306666Y-85634285D02*
X125403428Y-85537523D01*
X125693714Y-85440761D01*
X125887238Y-85440761D01*
X126177523Y-85537523D01*
X126371047Y-85731047D01*
X126467809Y-85924571D01*
X126564571Y-86311619D01*
X126564571Y-86601904D01*
X126467809Y-86988952D01*
X126371047Y-87182476D01*
X126177523Y-87376000D01*
X125887238Y-87472761D01*
X125693714Y-87472761D01*
X125403428Y-87376000D01*
X125306666Y-87279238D01*
X124048761Y-87472761D02*
X123661714Y-87472761D01*
X123468190Y-87376000D01*
X123274666Y-87182476D01*
X123177904Y-86795428D01*
X123177904Y-86118095D01*
X123274666Y-85731047D01*
X123468190Y-85537523D01*
X123661714Y-85440761D01*
X124048761Y-85440761D01*
X124242285Y-85537523D01*
X124435809Y-85731047D01*
X124532571Y-86118095D01*
X124532571Y-86795428D01*
X124435809Y-87182476D01*
X124242285Y-87376000D01*
X124048761Y-87472761D01*
X122307047Y-85440761D02*
X122307047Y-87472761D01*
X121145904Y-85440761D01*
X121145904Y-87472761D01*
X120178285Y-85440761D02*
X120178285Y-87472761D01*
X119694476Y-87472761D01*
X119404190Y-87376000D01*
X119210666Y-87182476D01*
X119113904Y-86988952D01*
X119017142Y-86601904D01*
X119017142Y-86311619D01*
X119113904Y-85924571D01*
X119210666Y-85731047D01*
X119404190Y-85537523D01*
X119694476Y-85440761D01*
X120178285Y-85440761D01*
X118243047Y-86021333D02*
X117275428Y-86021333D01*
X118436571Y-85440761D02*
X117759238Y-87472761D01*
X117081904Y-85440761D01*
X115243428Y-85440761D02*
X115920761Y-86408380D01*
X116404571Y-85440761D02*
X116404571Y-87472761D01*
X115630476Y-87472761D01*
X115436952Y-87376000D01*
X115340190Y-87279238D01*
X115243428Y-87085714D01*
X115243428Y-86795428D01*
X115340190Y-86601904D01*
X115436952Y-86505142D01*
X115630476Y-86408380D01*
X116404571Y-86408380D01*
X113985523Y-86408380D02*
X113985523Y-85440761D01*
X114662857Y-87472761D02*
X113985523Y-86408380D01*
X113308190Y-87472761D01*
D14*
X96186666Y-57078571D02*
X95853333Y-57078571D01*
X95853333Y-57602380D02*
X95853333Y-56602380D01*
X96329523Y-56602380D01*
X97234285Y-57602380D02*
X96662857Y-57602380D01*
X96948571Y-57602380D02*
X96948571Y-56602380D01*
X96853333Y-56745238D01*
X96758095Y-56840476D01*
X96662857Y-56888095D01*
X179708579Y-79097142D02*
X179660960Y-79144761D01*
X179518103Y-79192380D01*
X179422865Y-79192380D01*
X179280007Y-79144761D01*
X179184769Y-79049523D01*
X179137150Y-78954285D01*
X179089531Y-78763809D01*
X179089531Y-78620952D01*
X179137150Y-78430476D01*
X179184769Y-78335238D01*
X179280007Y-78240000D01*
X179422865Y-78192380D01*
X179518103Y-78192380D01*
X179660960Y-78240000D01*
X179708579Y-78287619D01*
X180089531Y-78287619D02*
X180137150Y-78240000D01*
X180232388Y-78192380D01*
X180470484Y-78192380D01*
X180565722Y-78240000D01*
X180613341Y-78287619D01*
X180660960Y-78382857D01*
X180660960Y-78478095D01*
X180613341Y-78620952D01*
X180041912Y-79192380D01*
X180660960Y-79192380D01*
X175093333Y-94337142D02*
X175045714Y-94384761D01*
X174902857Y-94432380D01*
X174807619Y-94432380D01*
X174664761Y-94384761D01*
X174569523Y-94289523D01*
X174521904Y-94194285D01*
X174474285Y-94003809D01*
X174474285Y-93860952D01*
X174521904Y-93670476D01*
X174569523Y-93575238D01*
X174664761Y-93480000D01*
X174807619Y-93432380D01*
X174902857Y-93432380D01*
X175045714Y-93480000D01*
X175093333Y-93527619D01*
X175426666Y-93432380D02*
X176093333Y-93432380D01*
X175664761Y-94432380D01*
X176363333Y-109037380D02*
X175887142Y-109037380D01*
X175887142Y-108037380D01*
X177220476Y-109037380D02*
X176649047Y-109037380D01*
X176934761Y-109037380D02*
X176934761Y-108037380D01*
X176839523Y-108180238D01*
X176744285Y-108275476D01*
X176649047Y-108323095D01*
X169441904Y-61412380D02*
X169441904Y-60412380D01*
X169680000Y-60412380D01*
X169822857Y-60460000D01*
X169918095Y-60555238D01*
X169965714Y-60650476D01*
X170013333Y-60840952D01*
X170013333Y-60983809D01*
X169965714Y-61174285D01*
X169918095Y-61269523D01*
X169822857Y-61364761D01*
X169680000Y-61412380D01*
X169441904Y-61412380D01*
X170965714Y-61412380D02*
X170394285Y-61412380D01*
X170680000Y-61412380D02*
X170680000Y-60412380D01*
X170584761Y-60555238D01*
X170489523Y-60650476D01*
X170394285Y-60698095D01*
X175093333Y-121102380D02*
X174760000Y-120626190D01*
X174521904Y-121102380D02*
X174521904Y-120102380D01*
X174902857Y-120102380D01*
X174998095Y-120150000D01*
X175045714Y-120197619D01*
X175093333Y-120292857D01*
X175093333Y-120435714D01*
X175045714Y-120530952D01*
X174998095Y-120578571D01*
X174902857Y-120626190D01*
X174521904Y-120626190D01*
X175426666Y-120102380D02*
X176045714Y-120102380D01*
X175712380Y-120483333D01*
X175855238Y-120483333D01*
X175950476Y-120530952D01*
X175998095Y-120578571D01*
X176045714Y-120673809D01*
X176045714Y-120911904D01*
X175998095Y-121007142D01*
X175950476Y-121054761D01*
X175855238Y-121102380D01*
X175569523Y-121102380D01*
X175474285Y-121054761D01*
X175426666Y-121007142D01*
X175093333Y-112212380D02*
X174760000Y-111736190D01*
X174521904Y-112212380D02*
X174521904Y-111212380D01*
X174902857Y-111212380D01*
X174998095Y-111260000D01*
X175045714Y-111307619D01*
X175093333Y-111402857D01*
X175093333Y-111545714D01*
X175045714Y-111640952D01*
X174998095Y-111688571D01*
X174902857Y-111736190D01*
X174521904Y-111736190D01*
X175474285Y-111307619D02*
X175521904Y-111260000D01*
X175617142Y-111212380D01*
X175855238Y-111212380D01*
X175950476Y-111260000D01*
X175998095Y-111307619D01*
X176045714Y-111402857D01*
X176045714Y-111498095D01*
X175998095Y-111640952D01*
X175426666Y-112212380D01*
X176045714Y-112212380D01*
X76033333Y-89257142D02*
X75985714Y-89304761D01*
X75842857Y-89352380D01*
X75747619Y-89352380D01*
X75604761Y-89304761D01*
X75509523Y-89209523D01*
X75461904Y-89114285D01*
X75414285Y-88923809D01*
X75414285Y-88780952D01*
X75461904Y-88590476D01*
X75509523Y-88495238D01*
X75604761Y-88400000D01*
X75747619Y-88352380D01*
X75842857Y-88352380D01*
X75985714Y-88400000D01*
X76033333Y-88447619D01*
X76985714Y-89352380D02*
X76414285Y-89352380D01*
X76700000Y-89352380D02*
X76700000Y-88352380D01*
X76604761Y-88495238D01*
X76509523Y-88590476D01*
X76414285Y-88638095D01*
X181014761Y-111577380D02*
X180681428Y-111101190D01*
X180443333Y-111577380D02*
X180443333Y-110577380D01*
X180824285Y-110577380D01*
X180919523Y-110625000D01*
X180967142Y-110672619D01*
X181014761Y-110767857D01*
X181014761Y-110910714D01*
X180967142Y-111005952D01*
X180919523Y-111053571D01*
X180824285Y-111101190D01*
X180443333Y-111101190D01*
X181300476Y-110577380D02*
X181633809Y-111577380D01*
X181967142Y-110577380D01*
X182729047Y-110910714D02*
X182729047Y-111577380D01*
X182490952Y-110529761D02*
X182252857Y-111244047D01*
X182871904Y-111244047D01*
X153503333Y-103862142D02*
X153455714Y-103909761D01*
X153312857Y-103957380D01*
X153217619Y-103957380D01*
X153074761Y-103909761D01*
X152979523Y-103814523D01*
X152931904Y-103719285D01*
X152884285Y-103528809D01*
X152884285Y-103385952D01*
X152931904Y-103195476D01*
X152979523Y-103100238D01*
X153074761Y-103005000D01*
X153217619Y-102957380D01*
X153312857Y-102957380D01*
X153455714Y-103005000D01*
X153503333Y-103052619D01*
X153836666Y-102957380D02*
X154455714Y-102957380D01*
X154122380Y-103338333D01*
X154265238Y-103338333D01*
X154360476Y-103385952D01*
X154408095Y-103433571D01*
X154455714Y-103528809D01*
X154455714Y-103766904D01*
X154408095Y-103862142D01*
X154360476Y-103909761D01*
X154265238Y-103957380D01*
X153979523Y-103957380D01*
X153884285Y-103909761D01*
X153836666Y-103862142D01*
X116244761Y-60777380D02*
X115911428Y-60301190D01*
X115673333Y-60777380D02*
X115673333Y-59777380D01*
X116054285Y-59777380D01*
X116149523Y-59825000D01*
X116197142Y-59872619D01*
X116244761Y-59967857D01*
X116244761Y-60110714D01*
X116197142Y-60205952D01*
X116149523Y-60253571D01*
X116054285Y-60301190D01*
X115673333Y-60301190D01*
X116530476Y-59777380D02*
X116863809Y-60777380D01*
X117197142Y-59777380D01*
X117482857Y-59872619D02*
X117530476Y-59825000D01*
X117625714Y-59777380D01*
X117863809Y-59777380D01*
X117959047Y-59825000D01*
X118006666Y-59872619D01*
X118054285Y-59967857D01*
X118054285Y-60063095D01*
X118006666Y-60205952D01*
X117435238Y-60777380D01*
X118054285Y-60777380D01*
X170013333Y-110847142D02*
X169965714Y-110894761D01*
X169822857Y-110942380D01*
X169727619Y-110942380D01*
X169584761Y-110894761D01*
X169489523Y-110799523D01*
X169441904Y-110704285D01*
X169394285Y-110513809D01*
X169394285Y-110370952D01*
X169441904Y-110180476D01*
X169489523Y-110085238D01*
X169584761Y-109990000D01*
X169727619Y-109942380D01*
X169822857Y-109942380D01*
X169965714Y-109990000D01*
X170013333Y-110037619D01*
X170918095Y-109942380D02*
X170441904Y-109942380D01*
X170394285Y-110418571D01*
X170441904Y-110370952D01*
X170537142Y-110323333D01*
X170775238Y-110323333D01*
X170870476Y-110370952D01*
X170918095Y-110418571D01*
X170965714Y-110513809D01*
X170965714Y-110751904D01*
X170918095Y-110847142D01*
X170870476Y-110894761D01*
X170775238Y-110942380D01*
X170537142Y-110942380D01*
X170441904Y-110894761D01*
X170394285Y-110847142D01*
X161798095Y-106442380D02*
X161798095Y-107251904D01*
X161845714Y-107347142D01*
X161893333Y-107394761D01*
X161988571Y-107442380D01*
X162179047Y-107442380D01*
X162274285Y-107394761D01*
X162321904Y-107347142D01*
X162369523Y-107251904D01*
X162369523Y-106442380D01*
X163369523Y-107442380D02*
X162798095Y-107442380D01*
X163083809Y-107442380D02*
X163083809Y-106442380D01*
X162988571Y-106585238D01*
X162893333Y-106680476D01*
X162798095Y-106728095D01*
X148136666Y-57078571D02*
X147803333Y-57078571D01*
X147803333Y-57602380D02*
X147803333Y-56602380D01*
X148279523Y-56602380D01*
X148612857Y-56697619D02*
X148660476Y-56650000D01*
X148755714Y-56602380D01*
X148993809Y-56602380D01*
X149089047Y-56650000D01*
X149136666Y-56697619D01*
X149184285Y-56792857D01*
X149184285Y-56888095D01*
X149136666Y-57030952D01*
X148565238Y-57602380D01*
X149184285Y-57602380D01*
X170648333Y-104497142D02*
X170600714Y-104544761D01*
X170457857Y-104592380D01*
X170362619Y-104592380D01*
X170219761Y-104544761D01*
X170124523Y-104449523D01*
X170076904Y-104354285D01*
X170029285Y-104163809D01*
X170029285Y-104020952D01*
X170076904Y-103830476D01*
X170124523Y-103735238D01*
X170219761Y-103640000D01*
X170362619Y-103592380D01*
X170457857Y-103592380D01*
X170600714Y-103640000D01*
X170648333Y-103687619D01*
X171505476Y-103592380D02*
X171315000Y-103592380D01*
X171219761Y-103640000D01*
X171172142Y-103687619D01*
X171076904Y-103830476D01*
X171029285Y-104020952D01*
X171029285Y-104401904D01*
X171076904Y-104497142D01*
X171124523Y-104544761D01*
X171219761Y-104592380D01*
X171410238Y-104592380D01*
X171505476Y-104544761D01*
X171553095Y-104497142D01*
X171600714Y-104401904D01*
X171600714Y-104163809D01*
X171553095Y-104068571D01*
X171505476Y-104020952D01*
X171410238Y-103973333D01*
X171219761Y-103973333D01*
X171124523Y-104020952D01*
X171076904Y-104068571D01*
X171029285Y-104163809D01*
X127674761Y-60777380D02*
X127341428Y-60301190D01*
X127103333Y-60777380D02*
X127103333Y-59777380D01*
X127484285Y-59777380D01*
X127579523Y-59825000D01*
X127627142Y-59872619D01*
X127674761Y-59967857D01*
X127674761Y-60110714D01*
X127627142Y-60205952D01*
X127579523Y-60253571D01*
X127484285Y-60301190D01*
X127103333Y-60301190D01*
X127960476Y-59777380D02*
X128293809Y-60777380D01*
X128627142Y-59777380D01*
X128865238Y-59777380D02*
X129484285Y-59777380D01*
X129150952Y-60158333D01*
X129293809Y-60158333D01*
X129389047Y-60205952D01*
X129436666Y-60253571D01*
X129484285Y-60348809D01*
X129484285Y-60586904D01*
X129436666Y-60682142D01*
X129389047Y-60729761D01*
X129293809Y-60777380D01*
X129008095Y-60777380D01*
X128912857Y-60729761D01*
X128865238Y-60682142D01*
X75604761Y-71572380D02*
X75271428Y-71096190D01*
X75033333Y-71572380D02*
X75033333Y-70572380D01*
X75414285Y-70572380D01*
X75509523Y-70620000D01*
X75557142Y-70667619D01*
X75604761Y-70762857D01*
X75604761Y-70905714D01*
X75557142Y-71000952D01*
X75509523Y-71048571D01*
X75414285Y-71096190D01*
X75033333Y-71096190D01*
X75890476Y-70572380D02*
X76223809Y-71572380D01*
X76557142Y-70572380D01*
X77414285Y-71572380D02*
X76842857Y-71572380D01*
X77128571Y-71572380D02*
X77128571Y-70572380D01*
X77033333Y-70715238D01*
X76938095Y-70810476D01*
X76842857Y-70858095D01*
X89717619Y-104314761D02*
X89717619Y-103743333D01*
X89717619Y-104029047D02*
X90717619Y-104029047D01*
X90574761Y-103933809D01*
X90479523Y-103838571D01*
X90431904Y-103743333D01*
X90622380Y-104695714D02*
X90670000Y-104743333D01*
X90717619Y-104838571D01*
X90717619Y-105076666D01*
X90670000Y-105171904D01*
X90622380Y-105219523D01*
X90527142Y-105267142D01*
X90431904Y-105267142D01*
X90289047Y-105219523D01*
X89717619Y-104648095D01*
X89717619Y-105267142D01*
X90717619Y-105886190D02*
X90717619Y-105981428D01*
X90670000Y-106076666D01*
X90622380Y-106124285D01*
X90527142Y-106171904D01*
X90336666Y-106219523D01*
X90098571Y-106219523D01*
X89908095Y-106171904D01*
X89812857Y-106124285D01*
X89765238Y-106076666D01*
X89717619Y-105981428D01*
X89717619Y-105886190D01*
X89765238Y-105790952D01*
X89812857Y-105743333D01*
X89908095Y-105695714D01*
X90098571Y-105648095D01*
X90336666Y-105648095D01*
X90527142Y-105695714D01*
X90622380Y-105743333D01*
X90670000Y-105790952D01*
X90717619Y-105886190D01*
X90717619Y-106505238D02*
X89717619Y-106838571D01*
X90717619Y-107171904D01*
X90622380Y-108823333D02*
X90670000Y-108870952D01*
X90717619Y-108966190D01*
X90717619Y-109204285D01*
X90670000Y-109299523D01*
X90622380Y-109347142D01*
X90527142Y-109394761D01*
X90431904Y-109394761D01*
X90289047Y-109347142D01*
X89717619Y-108775714D01*
X89717619Y-109394761D01*
X90384285Y-110251904D02*
X89717619Y-110251904D01*
X90765238Y-110013809D02*
X90050952Y-109775714D01*
X90050952Y-110394761D01*
X90717619Y-110966190D02*
X90717619Y-111061428D01*
X90670000Y-111156666D01*
X90622380Y-111204285D01*
X90527142Y-111251904D01*
X90336666Y-111299523D01*
X90098571Y-111299523D01*
X89908095Y-111251904D01*
X89812857Y-111204285D01*
X89765238Y-111156666D01*
X89717619Y-111061428D01*
X89717619Y-110966190D01*
X89765238Y-110870952D01*
X89812857Y-110823333D01*
X89908095Y-110775714D01*
X90098571Y-110728095D01*
X90336666Y-110728095D01*
X90527142Y-110775714D01*
X90622380Y-110823333D01*
X90670000Y-110870952D01*
X90717619Y-110966190D01*
X90717619Y-111585238D02*
X89717619Y-111918571D01*
X90717619Y-112251904D01*
X175093333Y-90527142D02*
X175045714Y-90574761D01*
X174902857Y-90622380D01*
X174807619Y-90622380D01*
X174664761Y-90574761D01*
X174569523Y-90479523D01*
X174521904Y-90384285D01*
X174474285Y-90193809D01*
X174474285Y-90050952D01*
X174521904Y-89860476D01*
X174569523Y-89765238D01*
X174664761Y-89670000D01*
X174807619Y-89622380D01*
X174902857Y-89622380D01*
X175045714Y-89670000D01*
X175093333Y-89717619D01*
X175664761Y-90050952D02*
X175569523Y-90003333D01*
X175521904Y-89955714D01*
X175474285Y-89860476D01*
X175474285Y-89812857D01*
X175521904Y-89717619D01*
X175569523Y-89670000D01*
X175664761Y-89622380D01*
X175855238Y-89622380D01*
X175950476Y-89670000D01*
X175998095Y-89717619D01*
X176045714Y-89812857D01*
X176045714Y-89860476D01*
X175998095Y-89955714D01*
X175950476Y-90003333D01*
X175855238Y-90050952D01*
X175664761Y-90050952D01*
X175569523Y-90098571D01*
X175521904Y-90146190D01*
X175474285Y-90241428D01*
X175474285Y-90431904D01*
X175521904Y-90527142D01*
X175569523Y-90574761D01*
X175664761Y-90622380D01*
X175855238Y-90622380D01*
X175950476Y-90574761D01*
X175998095Y-90527142D01*
X176045714Y-90431904D01*
X176045714Y-90241428D01*
X175998095Y-90146190D01*
X175950476Y-90098571D01*
X175855238Y-90050952D01*
X153503333Y-111482142D02*
X153455714Y-111529761D01*
X153312857Y-111577380D01*
X153217619Y-111577380D01*
X153074761Y-111529761D01*
X152979523Y-111434523D01*
X152931904Y-111339285D01*
X152884285Y-111148809D01*
X152884285Y-111005952D01*
X152931904Y-110815476D01*
X152979523Y-110720238D01*
X153074761Y-110625000D01*
X153217619Y-110577380D01*
X153312857Y-110577380D01*
X153455714Y-110625000D01*
X153503333Y-110672619D01*
X154360476Y-110910714D02*
X154360476Y-111577380D01*
X154122380Y-110529761D02*
X153884285Y-111244047D01*
X154503333Y-111244047D01*
X170013333Y-121102380D02*
X169680000Y-120626190D01*
X169441904Y-121102380D02*
X169441904Y-120102380D01*
X169822857Y-120102380D01*
X169918095Y-120150000D01*
X169965714Y-120197619D01*
X170013333Y-120292857D01*
X170013333Y-120435714D01*
X169965714Y-120530952D01*
X169918095Y-120578571D01*
X169822857Y-120626190D01*
X169441904Y-120626190D01*
X170965714Y-121102380D02*
X170394285Y-121102380D01*
X170680000Y-121102380D02*
X170680000Y-120102380D01*
X170584761Y-120245238D01*
X170489523Y-120340476D01*
X170394285Y-120388095D01*
D15*
X101600000Y-95250000D02*
X142240000Y-95250000D01*
D12*
X140970000Y-77470000D02*
X140970000Y-73660000D01*
X160020000Y-125730000D02*
X153670000Y-125730000D01*
X125730000Y-77470000D02*
X125730000Y-73660000D01*
X102870000Y-77470000D02*
X102870000Y-73660000D01*
X83820000Y-68580000D02*
X83820000Y-62230000D01*
X118110000Y-111760000D02*
X118110000Y-115570000D01*
X118110000Y-77470000D02*
X118110000Y-73660000D01*
X102870000Y-111760000D02*
X102870000Y-115570000D01*
D15*
X101600000Y-92710000D02*
X142240000Y-92710000D01*
D12*
X90170000Y-62230000D02*
X83820000Y-62230000D01*
X140970000Y-111125000D02*
X140970000Y-114935000D01*
X160020000Y-62230000D02*
X153670000Y-62230000D01*
X125730000Y-111125000D02*
X125730000Y-114935000D01*
X160020000Y-125730000D02*
X160020000Y-119380000D01*
X160020000Y-68580000D02*
X160020000Y-62230000D01*
X90170000Y-125730000D02*
X83820000Y-125730000D01*
X83820000Y-125730000D02*
X83820000Y-119380000D01*
X96266000Y-123444000D02*
X147574000Y-123444000D01*
X147574000Y-123444000D02*
X147574000Y-64516000D01*
X147574000Y-64516000D02*
X96266000Y-64516000D01*
X96266000Y-64516000D02*
X96266000Y-123444000D01*
X114300000Y-77470000D02*
G75*
G03*
X118110000Y-77470000I1905000J0D01*
G01*
X137160000Y-111125000D02*
G75*
G03*
X133350000Y-111125000I-1905000J0D01*
G01*
X110490000Y-77470000D02*
G75*
G03*
X114300000Y-77470000I1905000J0D01*
G01*
X102870000Y-77470000D02*
G75*
G03*
X106680000Y-77470000I1905000J0D01*
G01*
X125730000Y-77470000D02*
G75*
G03*
X129540000Y-77470000I1905000J0D01*
G01*
X137160000Y-77470000D02*
G75*
G03*
X140970000Y-77470000I1905000J0D01*
G01*
X114300000Y-111760000D02*
G75*
G03*
X110490000Y-111760000I-1905000J0D01*
G01*
X140970000Y-111125000D02*
G75*
G03*
X137160000Y-111125000I-1905000J0D01*
G01*
X133350000Y-77470000D02*
G75*
G03*
X137160000Y-77470000I1905000J0D01*
G01*
X106680000Y-77470000D02*
G75*
G03*
X110490000Y-77470000I1905000J0D01*
G01*
X129540000Y-111125000D02*
G75*
G03*
X125730000Y-111125000I-1905000J0D01*
G01*
X110490000Y-111760000D02*
G75*
G03*
X106680000Y-111760000I-1905000J0D01*
G01*
X118110000Y-111760000D02*
G75*
G03*
X114300000Y-111760000I-1905000J0D01*
G01*
X106680000Y-111760000D02*
G75*
G03*
X102870000Y-111760000I-1905000J0D01*
G01*
X129540000Y-77470000D02*
G75*
G03*
X133350000Y-77470000I1905000J0D01*
G01*
X133350000Y-111125000D02*
G75*
G03*
X129540000Y-111125000I-1905000J0D01*
G01*
D16*
X101757000Y-77470000D02*
G75*
G03*
X101757000Y-77470000I-157000J0D01*
G01*
X124617000Y-77470000D02*
G75*
G03*
X124617000Y-77470000I-157000J0D01*
G01*
X124617000Y-111379000D02*
G75*
G03*
X124617000Y-111379000I-157000J0D01*
G01*
X101757000Y-111760000D02*
G75*
G03*
X101757000Y-111760000I-157000J0D01*
G01*
D12*
X73370000Y-99548000D02*
X73370000Y-114668000D01*
X76696000Y-111101000D02*
X76316000Y-110721000D01*
X76978000Y-110850000D02*
X76582000Y-110455000D01*
X79624000Y-113496000D02*
X79244000Y-113116000D01*
X72670000Y-99308000D02*
X72670000Y-99708000D01*
X82030000Y-99548000D02*
X72910000Y-99548000D01*
X76978000Y-105850000D02*
X76582000Y-105455000D01*
X79624000Y-108496000D02*
X79244000Y-108116000D01*
X79358000Y-113762000D02*
X78962000Y-113367000D01*
X72910000Y-99548000D02*
X72910000Y-114668000D01*
X76423000Y-100826000D02*
X76316000Y-100720000D01*
X79358000Y-108762000D02*
X78962000Y-108367000D01*
X73310000Y-99308000D02*
X72670000Y-99308000D01*
X82030000Y-114668000D02*
X72910000Y-114668000D01*
X76689000Y-100560000D02*
X76582000Y-100454000D01*
X76696000Y-106101000D02*
X76316000Y-105721000D01*
X79358000Y-103762000D02*
X79251000Y-103655000D01*
X74470000Y-99548000D02*
X74470000Y-114668000D01*
X79624000Y-103496000D02*
X79517000Y-103389000D01*
X82030000Y-99548000D02*
X82030000Y-114668000D01*
X80150000Y-107108000D02*
G75*
G03*
X80150000Y-107108000I-2180000J0D01*
G01*
X80150000Y-102108000D02*
G75*
G03*
X80150000Y-102108000I-2180000J0D01*
G01*
X80150000Y-112108000D02*
G75*
G03*
X80150000Y-112108000I-2180000J0D01*
G01*
X108620000Y-52550000D02*
X84420000Y-52550000D01*
X108620000Y-61750000D02*
X108620000Y-52550000D01*
X84420000Y-61750000D02*
X84420000Y-52550000D01*
X108620000Y-61750000D02*
X84420000Y-61750000D01*
X189234000Y-97687000D02*
X189614000Y-98067000D01*
X188952000Y-92938000D02*
X189348000Y-93333000D01*
X191460000Y-109240000D02*
X191460000Y-89119000D01*
X188952000Y-102938000D02*
X189348000Y-103333000D01*
X186306000Y-105292000D02*
X186413000Y-105399000D01*
X186306000Y-95292000D02*
X186686000Y-95672000D01*
X189234000Y-102687000D02*
X189614000Y-103067000D01*
X189234000Y-92687000D02*
X189614000Y-93067000D01*
X183900000Y-89119000D02*
X193020000Y-89119000D01*
X186572000Y-90026000D02*
X186968000Y-90421000D01*
X192620000Y-109480000D02*
X193260000Y-109480000D01*
X186306000Y-100292000D02*
X186686000Y-100672000D01*
X186572000Y-95026000D02*
X186968000Y-95421000D01*
X186306000Y-90292000D02*
X186686000Y-90672000D01*
X189241000Y-108228000D02*
X189348000Y-108334000D01*
X192560000Y-109240000D02*
X192560000Y-89119000D01*
X183900000Y-109240000D02*
X183900000Y-89119000D01*
X186572000Y-105026000D02*
X186679000Y-105133000D01*
X186572000Y-100026000D02*
X186968000Y-100421000D01*
X183900000Y-109240000D02*
X193020000Y-109240000D01*
X193020000Y-109240000D02*
X193020000Y-89119000D01*
X188952000Y-97938000D02*
X189348000Y-98333000D01*
X189507000Y-107962000D02*
X189614000Y-108068000D01*
X193260000Y-109480000D02*
X193260000Y-109080000D01*
X190140000Y-91680000D02*
G75*
G03*
X190140000Y-91680000I-2180000J0D01*
G01*
X190140000Y-96680000D02*
G75*
G03*
X190140000Y-96680000I-2180000J0D01*
G01*
X190140000Y-106680000D02*
G75*
G03*
X190140000Y-106680000I-2180000J0D01*
G01*
X190140000Y-101680000D02*
G75*
G03*
X190140000Y-101680000I-2180000J0D01*
G01*
X171298246Y-70707000D02*
X171298246Y-86773000D01*
X178098246Y-76143000D02*
X178098246Y-81337000D01*
X171778246Y-70774000D02*
X171778246Y-86706000D01*
X174018246Y-71501000D02*
X174018246Y-77300000D01*
X174618246Y-80180000D02*
X174618246Y-85650000D01*
X176018246Y-72900000D02*
X176018246Y-84580000D01*
X176818246Y-73782000D02*
X176818246Y-83698000D01*
X175338246Y-72320000D02*
X175338246Y-77300000D01*
X173098246Y-80180000D02*
X173098246Y-86365000D01*
X176178246Y-73056000D02*
X176178246Y-84424000D01*
X175338246Y-80180000D02*
X175338246Y-85160000D01*
X172938246Y-71060000D02*
X172938246Y-77300000D01*
X170937246Y-70676000D02*
X170937246Y-86804000D01*
X172178246Y-70853000D02*
X172178246Y-86627000D01*
X172778246Y-80180000D02*
X172778246Y-86470000D01*
X174978246Y-72061000D02*
X174978246Y-77300000D01*
X174098246Y-80180000D02*
X174098246Y-85939000D01*
X172098246Y-70835000D02*
X172098246Y-86645000D01*
X174658246Y-71854000D02*
X174658246Y-77300000D01*
X172378246Y-70900000D02*
X172378246Y-86580000D01*
X173658246Y-80180000D02*
X173658246Y-86146000D01*
X172938246Y-80180000D02*
X172938246Y-86420000D01*
X173258246Y-71172000D02*
X173258246Y-77300000D01*
X174498246Y-80180000D02*
X174498246Y-85721000D01*
X173058246Y-80180000D02*
X173058246Y-86379000D01*
X171858246Y-70788000D02*
X171858246Y-86692000D01*
X178018246Y-75920000D02*
X178018246Y-81560000D01*
X174698246Y-71879000D02*
X174698246Y-77300000D01*
X173538246Y-80180000D02*
X173538246Y-86197000D01*
X177778246Y-75350000D02*
X177778246Y-82130000D01*
X171258246Y-70703000D02*
X171258246Y-86777000D01*
X174338246Y-80180000D02*
X174338246Y-85812000D01*
X172018246Y-70819000D02*
X172018246Y-86661000D01*
X173378246Y-80180000D02*
X173378246Y-86262000D01*
X178058246Y-76029000D02*
X178058246Y-81451000D01*
X170857246Y-70671000D02*
X170857246Y-86809000D01*
X173058246Y-71101000D02*
X173058246Y-77300000D01*
X177618246Y-75025000D02*
X177618246Y-82455000D01*
X171738246Y-70768000D02*
X171738246Y-86712000D01*
X173938246Y-80180000D02*
X173938246Y-86018000D01*
X175378246Y-72350000D02*
X175378246Y-77300000D01*
X174418246Y-71713000D02*
X174418246Y-77300000D01*
X177818246Y-75437000D02*
X177818246Y-82043000D01*
X173738246Y-71369000D02*
X173738246Y-77300000D01*
X175418246Y-80180000D02*
X175418246Y-85098000D01*
X176058246Y-72938000D02*
X176058246Y-84542000D01*
X176658246Y-73584000D02*
X176658246Y-83896000D01*
X172978246Y-71074000D02*
X172978246Y-77300000D01*
X178378246Y-77176000D02*
X178378246Y-80304000D01*
X171458246Y-70726000D02*
X171458246Y-86754000D01*
X172658246Y-70975000D02*
X172658246Y-86505000D01*
X173538246Y-71283000D02*
X173538246Y-77300000D01*
X172898246Y-80180000D02*
X172898246Y-86433000D01*
X170417246Y-70659000D02*
X170417246Y-86821000D01*
X176138246Y-73016000D02*
X176138246Y-84464000D01*
X174138246Y-80180000D02*
X174138246Y-85918000D01*
X178178246Y-76389000D02*
X178178246Y-81091000D01*
X174058246Y-71521000D02*
X174058246Y-77300000D01*
X172818246Y-80180000D02*
X172818246Y-86458000D01*
X172138246Y-70844000D02*
X172138246Y-86636000D01*
X176538246Y-73443000D02*
X176538246Y-84037000D01*
X173578246Y-71300000D02*
X173578246Y-77300000D01*
X170497246Y-70660000D02*
X170497246Y-86820000D01*
X173258246Y-80180000D02*
X173258246Y-86308000D01*
X177058246Y-74106000D02*
X177058246Y-83374000D01*
X174418246Y-80180000D02*
X174418246Y-85767000D01*
X173298246Y-71187000D02*
X173298246Y-77300000D01*
X175578246Y-80180000D02*
X175578246Y-84970000D01*
X174578246Y-71806000D02*
X174578246Y-77300000D01*
X174978246Y-80180000D02*
X174978246Y-85419000D01*
X173898246Y-71443000D02*
X173898246Y-77300000D01*
X174938246Y-72034000D02*
X174938246Y-77300000D01*
X172618246Y-70963000D02*
X172618246Y-86517000D01*
X176738246Y-73681000D02*
X176738246Y-83799000D01*
X173818246Y-80180000D02*
X173818246Y-86074000D01*
X174818246Y-80180000D02*
X174818246Y-85525000D01*
X173418246Y-80180000D02*
X173418246Y-86246000D01*
X177218246Y-74342000D02*
X177218246Y-83138000D01*
X174018246Y-80180000D02*
X174018246Y-85979000D01*
X171818246Y-70781000D02*
X171818246Y-86699000D01*
X172218246Y-70862000D02*
X172218246Y-86618000D01*
X173578246Y-80180000D02*
X173578246Y-86180000D01*
X172418246Y-70910000D02*
X172418246Y-86570000D01*
X170777246Y-70667000D02*
X170777246Y-86813000D01*
X175778246Y-72680000D02*
X175778246Y-84800000D01*
X177658246Y-75103000D02*
X177658246Y-82377000D01*
X176698246Y-73632000D02*
X176698246Y-83848000D01*
X177578246Y-74950000D02*
X177578246Y-82530000D01*
X177458246Y-74733000D02*
X177458246Y-82747000D01*
X174618246Y-71830000D02*
X174618246Y-77300000D01*
X170577246Y-70661000D02*
X170577246Y-86819000D01*
X174818246Y-71955000D02*
X174818246Y-77300000D01*
X174938246Y-80180000D02*
X174938246Y-85446000D01*
X174138246Y-71562000D02*
X174138246Y-77300000D01*
X173778246Y-80180000D02*
X173778246Y-86093000D01*
X174778246Y-71929000D02*
X174778246Y-77300000D01*
X174378246Y-80180000D02*
X174378246Y-85789000D01*
X175458246Y-72413000D02*
X175458246Y-77300000D01*
X175178246Y-72201000D02*
X175178246Y-77300000D01*
X174218246Y-71604000D02*
X174218246Y-77300000D01*
X175418246Y-72382000D02*
X175418246Y-77300000D01*
X171017246Y-70682000D02*
X171017246Y-86798000D01*
X171578246Y-70743000D02*
X171578246Y-86737000D01*
X172698246Y-70986000D02*
X172698246Y-86494000D01*
X172738246Y-70998000D02*
X172738246Y-77300000D01*
X175898246Y-72788000D02*
X175898246Y-84692000D01*
X176938246Y-73940000D02*
X176938246Y-83540000D01*
X172538246Y-70941000D02*
X172538246Y-86539000D01*
X174178246Y-80180000D02*
X174178246Y-85897000D01*
X171898246Y-70796000D02*
X171898246Y-86684000D01*
X173978246Y-71482000D02*
X173978246Y-77300000D01*
X173418246Y-71234000D02*
X173418246Y-77300000D01*
X177338246Y-74531000D02*
X177338246Y-82949000D01*
X171618246Y-70749000D02*
X171618246Y-86731000D01*
X175018246Y-80180000D02*
X175018246Y-85392000D01*
X172858246Y-71035000D02*
X172858246Y-77300000D01*
X176418246Y-73308000D02*
X176418246Y-84172000D01*
X174178246Y-71583000D02*
X174178246Y-77300000D01*
X174378246Y-71691000D02*
X174378246Y-77300000D01*
X175098246Y-80180000D02*
X175098246Y-85336000D01*
X173378246Y-71218000D02*
X173378246Y-77300000D01*
X176458246Y-73352000D02*
X176458246Y-84128000D01*
X172818246Y-71022000D02*
X172818246Y-77300000D01*
X175058246Y-80180000D02*
X175058246Y-85364000D01*
X174778246Y-80180000D02*
X174778246Y-85551000D01*
X174258246Y-80180000D02*
X174258246Y-85855000D01*
X173898246Y-80180000D02*
X173898246Y-86037000D01*
X175578246Y-72510000D02*
X175578246Y-77300000D01*
X174258246Y-71625000D02*
X174258246Y-77300000D01*
X175858246Y-72751000D02*
X175858246Y-84729000D01*
X174458246Y-80180000D02*
X174458246Y-85744000D01*
X175218246Y-72230000D02*
X175218246Y-77300000D01*
X171418246Y-70721000D02*
X171418246Y-86759000D01*
X177538246Y-74876000D02*
X177538246Y-82604000D01*
X173018246Y-71087000D02*
X173018246Y-77300000D01*
X176978246Y-73994000D02*
X176978246Y-83486000D01*
X171218246Y-70699000D02*
X171218246Y-86781000D01*
X177418246Y-74664000D02*
X177418246Y-82816000D01*
X175178246Y-80180000D02*
X175178246Y-85279000D01*
X171658246Y-70755000D02*
X171658246Y-86725000D01*
X173138246Y-71129000D02*
X173138246Y-77300000D01*
X173858246Y-71424000D02*
X173858246Y-77300000D01*
X177498246Y-74804000D02*
X177498246Y-82676000D01*
X175538246Y-80180000D02*
X175538246Y-85003000D01*
X175298246Y-80180000D02*
X175298246Y-85190000D01*
X170697246Y-70664000D02*
X170697246Y-86816000D01*
X175258246Y-80180000D02*
X175258246Y-85220000D01*
X176618246Y-73536000D02*
X176618246Y-83944000D01*
X172298246Y-70880000D02*
X172298246Y-86600000D01*
X174698246Y-80180000D02*
X174698246Y-85601000D01*
X171178246Y-70695000D02*
X171178246Y-86785000D01*
X173018246Y-80180000D02*
X173018246Y-86393000D01*
X174658246Y-80180000D02*
X174658246Y-85626000D01*
X172778246Y-71010000D02*
X172778246Y-77300000D01*
X177738246Y-75265000D02*
X177738246Y-82215000D01*
X178458246Y-77642000D02*
X178458246Y-79838000D01*
X171138246Y-70691000D02*
X171138246Y-86789000D01*
X173658246Y-71334000D02*
X173658246Y-77300000D01*
X170617246Y-70662000D02*
X170617246Y-86818000D01*
X176498246Y-73397000D02*
X176498246Y-84083000D01*
X171538246Y-70737000D02*
X171538246Y-86743000D01*
X172058246Y-70827000D02*
X172058246Y-86653000D01*
X162527755Y-73385000D02*
X162527755Y-74985000D01*
X175138246Y-80180000D02*
X175138246Y-85308000D01*
X175698246Y-72611000D02*
X175698246Y-84869000D01*
X172498246Y-70930000D02*
X172498246Y-86550000D01*
X176378246Y-73265000D02*
X176378246Y-84215000D01*
X176898246Y-73886000D02*
X176898246Y-83594000D01*
X170817246Y-70669000D02*
X170817246Y-86811000D01*
X174738246Y-80180000D02*
X174738246Y-85576000D01*
X175978246Y-72862000D02*
X175978246Y-84618000D01*
X172858246Y-80180000D02*
X172858246Y-86445000D01*
X171498246Y-70732000D02*
X171498246Y-86748000D01*
X175538246Y-72477000D02*
X175538246Y-77300000D01*
X174898246Y-80180000D02*
X174898246Y-85473000D01*
X176858246Y-73834000D02*
X176858246Y-83646000D01*
X171978246Y-70811000D02*
X171978246Y-86669000D01*
X174578246Y-80180000D02*
X174578246Y-85674000D01*
X175218246Y-80180000D02*
X175218246Y-85250000D01*
X173338246Y-71203000D02*
X173338246Y-77300000D01*
X175938246Y-72824000D02*
X175938246Y-84656000D01*
X178258246Y-76666000D02*
X178258246Y-80814000D01*
X178218246Y-76522000D02*
X178218246Y-80958000D01*
X173498246Y-71266000D02*
X173498246Y-77300000D01*
X173618246Y-71317000D02*
X173618246Y-77300000D01*
X175298246Y-72290000D02*
X175298246Y-77300000D01*
X172258246Y-70871000D02*
X172258246Y-86609000D01*
X175378246Y-80180000D02*
X175378246Y-85130000D01*
X173458246Y-80180000D02*
X173458246Y-86230000D01*
X172338246Y-70890000D02*
X172338246Y-86590000D01*
X177098246Y-74163000D02*
X177098246Y-83317000D01*
X176338246Y-73222000D02*
X176338246Y-84258000D01*
X178418246Y-77389000D02*
X178418246Y-80091000D01*
X177018246Y-74049000D02*
X177018246Y-83431000D01*
X173458246Y-71250000D02*
X173458246Y-77300000D01*
X174098246Y-71541000D02*
X174098246Y-77300000D01*
X177258246Y-74404000D02*
X177258246Y-83076000D01*
X177858246Y-75527000D02*
X177858246Y-81953000D01*
X172978246Y-80180000D02*
X172978246Y-86406000D01*
X178498246Y-77975000D02*
X178498246Y-79505000D01*
X174858246Y-71981000D02*
X174858246Y-77300000D01*
X170537246Y-70660000D02*
X170537246Y-86820000D01*
X175498246Y-72445000D02*
X175498246Y-77300000D01*
X175498246Y-80180000D02*
X175498246Y-85035000D01*
X175058246Y-72116000D02*
X175058246Y-77300000D01*
X175098246Y-72144000D02*
X175098246Y-77300000D01*
X173098246Y-71115000D02*
X173098246Y-77300000D01*
X177138246Y-74221000D02*
X177138246Y-83259000D01*
X173978246Y-80180000D02*
X173978246Y-85998000D01*
X177938246Y-75716000D02*
X177938246Y-81764000D01*
X174498246Y-71759000D02*
X174498246Y-77300000D01*
X176778246Y-73731000D02*
X176778246Y-83749000D01*
X171097246Y-70688000D02*
X171097246Y-86792000D01*
X175258246Y-72260000D02*
X175258246Y-77300000D01*
X174898246Y-72007000D02*
X174898246Y-77300000D01*
X173178246Y-80180000D02*
X173178246Y-86337000D01*
X173698246Y-80180000D02*
X173698246Y-86129000D01*
X173218246Y-80180000D02*
X173218246Y-86322000D01*
X178138246Y-76262000D02*
X178138246Y-81218000D01*
X173298246Y-80180000D02*
X173298246Y-86293000D01*
X175618246Y-72543000D02*
X175618246Y-84937000D01*
X176218246Y-73097000D02*
X176218246Y-84383000D01*
X177698246Y-75183000D02*
X177698246Y-82297000D01*
X178338246Y-76988000D02*
X178338246Y-80492000D01*
X174538246Y-71782000D02*
X174538246Y-77300000D01*
X173338246Y-80180000D02*
X173338246Y-86277000D01*
X172458246Y-70920000D02*
X172458246Y-86560000D01*
X174058246Y-80180000D02*
X174058246Y-85959000D01*
X173218246Y-71158000D02*
X173218246Y-77300000D01*
X175738246Y-72645000D02*
X175738246Y-84835000D01*
X175818246Y-72715000D02*
X175818246Y-84765000D01*
X172578246Y-70952000D02*
X172578246Y-86528000D01*
X174298246Y-71646000D02*
X174298246Y-77300000D01*
X170897246Y-70674000D02*
X170897246Y-86806000D01*
X174458246Y-71736000D02*
X174458246Y-77300000D01*
X171338246Y-70712000D02*
X171338246Y-86768000D01*
X175458246Y-80180000D02*
X175458246Y-85067000D01*
X173938246Y-71462000D02*
X173938246Y-77300000D01*
X174538246Y-80180000D02*
X174538246Y-85698000D01*
X175658246Y-72577000D02*
X175658246Y-84903000D01*
X178298246Y-76820000D02*
X178298246Y-80660000D01*
X174338246Y-71668000D02*
X174338246Y-77300000D01*
X173618246Y-80180000D02*
X173618246Y-86163000D01*
X174738246Y-71904000D02*
X174738246Y-77300000D01*
X177898246Y-75620000D02*
X177898246Y-81860000D01*
X170737246Y-70666000D02*
X170737246Y-86814000D01*
X176578246Y-73489000D02*
X176578246Y-83991000D01*
X177378246Y-74597000D02*
X177378246Y-82883000D01*
X173698246Y-71351000D02*
X173698246Y-77300000D01*
X173498246Y-80180000D02*
X173498246Y-86214000D01*
X177978246Y-75816000D02*
X177978246Y-81664000D01*
X173178246Y-71143000D02*
X173178246Y-77300000D01*
X176258246Y-73138000D02*
X176258246Y-84342000D01*
X177298246Y-74467000D02*
X177298246Y-83013000D01*
X177178246Y-74281000D02*
X177178246Y-83199000D01*
X175018246Y-72088000D02*
X175018246Y-77300000D01*
X171378246Y-70716000D02*
X171378246Y-86764000D01*
X170977246Y-70679000D02*
X170977246Y-86801000D01*
X176298246Y-73180000D02*
X176298246Y-84300000D01*
X161727755Y-74185000D02*
X163327755Y-74185000D01*
X171938246Y-70803000D02*
X171938246Y-86677000D01*
X174218246Y-80180000D02*
X174218246Y-85876000D01*
X173138246Y-80180000D02*
X173138246Y-86351000D01*
X173818246Y-71406000D02*
X173818246Y-77300000D01*
X175138246Y-72172000D02*
X175138246Y-77300000D01*
X173738246Y-80180000D02*
X173738246Y-86111000D01*
X171698246Y-70761000D02*
X171698246Y-86719000D01*
X173778246Y-71387000D02*
X173778246Y-77300000D01*
X170657246Y-70663000D02*
X170657246Y-86817000D01*
X174298246Y-80180000D02*
X174298246Y-85834000D01*
X176098246Y-72977000D02*
X176098246Y-84503000D01*
X172898246Y-71047000D02*
X172898246Y-77300000D01*
X172738246Y-80180000D02*
X172738246Y-86482000D01*
X171057246Y-70685000D02*
X171057246Y-86795000D01*
X170457246Y-70660000D02*
X170457246Y-86820000D01*
X174858246Y-80180000D02*
X174858246Y-85499000D01*
X173858246Y-80180000D02*
X173858246Y-86056000D01*
X178537246Y-78740000D02*
G75*
G03*
X178537246Y-78740000I-8120000J0D01*
G01*
X172161252Y-95340000D02*
X170738748Y-95340000D01*
X172161252Y-92620000D02*
X170738748Y-92620000D01*
X180530000Y-98320000D02*
X180530000Y-99820000D01*
X172530000Y-98320000D02*
X172530000Y-99820000D01*
X180530000Y-98320000D02*
X179030000Y-98320000D01*
X180530000Y-107420000D02*
X180530000Y-105920000D01*
X172530000Y-107420000D02*
X172530000Y-105920000D01*
X172530000Y-98320000D02*
X174030000Y-98320000D01*
X172530000Y-107420000D02*
X174030000Y-107420000D01*
X180530000Y-107420000D02*
X179030000Y-107420000D01*
X177855000Y-54160000D02*
X177855000Y-69560000D01*
X162455000Y-67760000D02*
X162455000Y-54160000D01*
X177855000Y-69560000D02*
X164255000Y-69560000D01*
X163205000Y-68510000D02*
X162455000Y-67760000D01*
X164255000Y-69560000D02*
X163505000Y-68810000D01*
X162455000Y-54160000D02*
X177855000Y-54160000D01*
X174525000Y-117882936D02*
X174525000Y-118337064D01*
X175995000Y-117882936D02*
X175995000Y-118337064D01*
X175995000Y-114072936D02*
X175995000Y-114527064D01*
X174525000Y-114072936D02*
X174525000Y-114527064D01*
X73580000Y-98020000D02*
X73580000Y-79780000D01*
X73580000Y-98020000D02*
X78820000Y-98020000D01*
X78820000Y-98020000D02*
X78820000Y-79780000D01*
X73580000Y-79780000D02*
X78820000Y-79780000D01*
X179080000Y-111945000D02*
X184150000Y-111945000D01*
X184150000Y-121715000D02*
X184150000Y-111945000D01*
X179080000Y-121715000D02*
X184150000Y-121715000D01*
X179080000Y-121715000D02*
X179080000Y-111945000D01*
X155651252Y-106320000D02*
X154228748Y-106320000D01*
X155651252Y-104500000D02*
X154228748Y-104500000D01*
X113290000Y-55000000D02*
X118990000Y-55000000D01*
X113290000Y-59300000D02*
X118990000Y-59300000D01*
X113290000Y-55000000D02*
X113290000Y-59300000D01*
X170915000Y-113291252D02*
X170915000Y-112768748D01*
X169445000Y-113291252D02*
X169445000Y-112768748D01*
X186572000Y-68436000D02*
X186968000Y-68831000D01*
X188952000Y-71348000D02*
X189348000Y-71743000D01*
X189234000Y-71097000D02*
X189614000Y-71477000D01*
X192560000Y-87650000D02*
X192560000Y-67529000D01*
X186306000Y-73702000D02*
X186686000Y-74082000D01*
X193020000Y-87650000D02*
X193020000Y-67529000D01*
X186572000Y-78436000D02*
X186968000Y-78831000D01*
X193260000Y-87890000D02*
X193260000Y-87490000D01*
X189234000Y-76097000D02*
X189614000Y-76477000D01*
X188952000Y-76348000D02*
X189348000Y-76743000D01*
X186572000Y-83436000D02*
X186679000Y-83543000D01*
X188952000Y-81348000D02*
X189348000Y-81743000D01*
X192620000Y-87890000D02*
X193260000Y-87890000D01*
X189507000Y-86372000D02*
X189614000Y-86478000D01*
X183900000Y-87650000D02*
X183900000Y-67529000D01*
X191460000Y-87650000D02*
X191460000Y-67529000D01*
X186306000Y-83702000D02*
X186413000Y-83809000D01*
X183900000Y-87650000D02*
X193020000Y-87650000D01*
X186306000Y-68702000D02*
X186686000Y-69082000D01*
X183900000Y-67529000D02*
X193020000Y-67529000D01*
X186572000Y-73436000D02*
X186968000Y-73831000D01*
X189234000Y-81097000D02*
X189614000Y-81477000D01*
X189241000Y-86638000D02*
X189348000Y-86744000D01*
X186306000Y-78702000D02*
X186686000Y-79082000D01*
X190140000Y-70090000D02*
G75*
G03*
X190140000Y-70090000I-2180000J0D01*
G01*
X190140000Y-75090000D02*
G75*
G03*
X190140000Y-75090000I-2180000J0D01*
G01*
X190140000Y-80090000D02*
G75*
G03*
X190140000Y-80090000I-2180000J0D01*
G01*
X190140000Y-85090000D02*
G75*
G03*
X190140000Y-85090000I-2180000J0D01*
G01*
D14*
X160485000Y-113065000D02*
X160485000Y-112920000D01*
X160485000Y-107965000D02*
X159085000Y-107965000D01*
X160485000Y-107915000D02*
X164635000Y-107915000D01*
X164635000Y-113065000D02*
X164635000Y-112920000D01*
X164635000Y-107915000D02*
X164635000Y-108060000D01*
X160485000Y-107915000D02*
X160485000Y-107965000D01*
X160485000Y-113065000D02*
X164635000Y-113065000D01*
G36*
X78709182Y-117941779D02*
G01*
X78753596Y-117967200D01*
X78805953Y-117997203D01*
X78865858Y-118031560D01*
X78932918Y-118070045D01*
X79006735Y-118112430D01*
X79086916Y-118158487D01*
X79173065Y-118207988D01*
X79264788Y-118260707D01*
X79361689Y-118316415D01*
X79463373Y-118374886D01*
X79569445Y-118435892D01*
X79679511Y-118499205D01*
X79793175Y-118564597D01*
X79910042Y-118631842D01*
X80029717Y-118700712D01*
X80151805Y-118770979D01*
X80275912Y-118842416D01*
X80401641Y-118914795D01*
X80528598Y-118987889D01*
X80656389Y-119061470D01*
X80784617Y-119135311D01*
X80912889Y-119209184D01*
X81040808Y-119282863D01*
X81167980Y-119356118D01*
X81294010Y-119428724D01*
X81418503Y-119500451D01*
X81541064Y-119571074D01*
X81661297Y-119640364D01*
X81778808Y-119708094D01*
X81893202Y-119774036D01*
X82004084Y-119837963D01*
X82111058Y-119899647D01*
X82213730Y-119958862D01*
X82311705Y-120015378D01*
X82404587Y-120068970D01*
X82491981Y-120119409D01*
X82573494Y-120166468D01*
X82648728Y-120209919D01*
X82717291Y-120249535D01*
X82778785Y-120285089D01*
X82832817Y-120316353D01*
X82878992Y-120343099D01*
X82916913Y-120365100D01*
X82946187Y-120382128D01*
X82966419Y-120393956D01*
X82977213Y-120400357D01*
X82978650Y-120401249D01*
X82996640Y-120414476D01*
X83018932Y-120433119D01*
X83042016Y-120454164D01*
X83053909Y-120465805D01*
X83092884Y-120511708D01*
X83120605Y-120559036D01*
X83137066Y-120607261D01*
X83142265Y-120655851D01*
X83136197Y-120704277D01*
X83118858Y-120752009D01*
X83090246Y-120798517D01*
X83056575Y-120837174D01*
X83034901Y-120857395D01*
X83010594Y-120877842D01*
X82988664Y-120894315D01*
X82987272Y-120895262D01*
X82978825Y-120900460D01*
X82960853Y-120911114D01*
X82933750Y-120927000D01*
X82897907Y-120947892D01*
X82853715Y-120973565D01*
X82801566Y-121003795D01*
X82741852Y-121038357D01*
X82674964Y-121077025D01*
X82601294Y-121119574D01*
X82521235Y-121165780D01*
X82435176Y-121215417D01*
X82343511Y-121268261D01*
X82246631Y-121324087D01*
X82144927Y-121382669D01*
X82038791Y-121443783D01*
X81928616Y-121507204D01*
X81814791Y-121572706D01*
X81697711Y-121640065D01*
X81577765Y-121709055D01*
X81455345Y-121779453D01*
X81330844Y-121851032D01*
X81204653Y-121923568D01*
X81077163Y-121996836D01*
X80948767Y-122070611D01*
X80819856Y-122144668D01*
X80690821Y-122218782D01*
X80562055Y-122292727D01*
X80433949Y-122366280D01*
X80306894Y-122439215D01*
X80181283Y-122511306D01*
X80057507Y-122582330D01*
X79935958Y-122652061D01*
X79817027Y-122720274D01*
X79701107Y-122786744D01*
X79588588Y-122851246D01*
X79479862Y-122913555D01*
X79375322Y-122973447D01*
X79275358Y-123030696D01*
X79180363Y-123085077D01*
X79090729Y-123136365D01*
X79006846Y-123184336D01*
X78929106Y-123228764D01*
X78857902Y-123269424D01*
X78793625Y-123306092D01*
X78736666Y-123338542D01*
X78687418Y-123366550D01*
X78646271Y-123389890D01*
X78613618Y-123408337D01*
X78589851Y-123421667D01*
X78575360Y-123429655D01*
X78570816Y-123432005D01*
X78510682Y-123452754D01*
X78451988Y-123463601D01*
X78395776Y-123464550D01*
X78343089Y-123455608D01*
X78294972Y-123436781D01*
X78283403Y-123430306D01*
X78245071Y-123400795D01*
X78211931Y-123361519D01*
X78184453Y-123313195D01*
X78163106Y-123256540D01*
X78158330Y-123239432D01*
X78157487Y-123235873D01*
X78156690Y-123231657D01*
X78155938Y-123226462D01*
X78155229Y-123219967D01*
X78154563Y-123211849D01*
X78153937Y-123201786D01*
X78153350Y-123189457D01*
X78152800Y-123174539D01*
X78152288Y-123156710D01*
X78151810Y-123135649D01*
X78151365Y-123111033D01*
X78150953Y-123082541D01*
X78150571Y-123049850D01*
X78150218Y-123012639D01*
X78149894Y-122970585D01*
X78149595Y-122923367D01*
X78149322Y-122870662D01*
X78149072Y-122812149D01*
X78148844Y-122747506D01*
X78148637Y-122676411D01*
X78148450Y-122598541D01*
X78148280Y-122513575D01*
X78148126Y-122421190D01*
X78147988Y-122321066D01*
X78147863Y-122212879D01*
X78147750Y-122096308D01*
X78147649Y-121971031D01*
X78147556Y-121836726D01*
X78147471Y-121693071D01*
X78147393Y-121539744D01*
X78147320Y-121376422D01*
X78147251Y-121202785D01*
X78147184Y-121018510D01*
X78147118Y-120823275D01*
X78147073Y-120687361D01*
X78147052Y-120609163D01*
X78524690Y-120609163D01*
X78524700Y-120745838D01*
X78524729Y-120882159D01*
X78524777Y-121017634D01*
X78524844Y-121151770D01*
X78524931Y-121284073D01*
X78525038Y-121414049D01*
X78525163Y-121541206D01*
X78525308Y-121665050D01*
X78525472Y-121785087D01*
X78525656Y-121900824D01*
X78525858Y-122011767D01*
X78526080Y-122117424D01*
X78526321Y-122217301D01*
X78526581Y-122310904D01*
X78526861Y-122397740D01*
X78527159Y-122477315D01*
X78527477Y-122549137D01*
X78527813Y-122612711D01*
X78528169Y-122667545D01*
X78528544Y-122713144D01*
X78528937Y-122749017D01*
X78529350Y-122774668D01*
X78529782Y-122789605D01*
X78530043Y-122793175D01*
X78540728Y-122835245D01*
X78557582Y-122869755D01*
X78579916Y-122895420D01*
X78588251Y-122901651D01*
X78616051Y-122914103D01*
X78649632Y-122920031D01*
X78685153Y-122919193D01*
X78718772Y-122911351D01*
X78722325Y-122909996D01*
X78729457Y-122906278D01*
X78746121Y-122897063D01*
X78771893Y-122882596D01*
X78806346Y-122863122D01*
X78849054Y-122838884D01*
X78899590Y-122810129D01*
X78957531Y-122777101D01*
X79022448Y-122740046D01*
X79093917Y-122699207D01*
X79171511Y-122654830D01*
X79254804Y-122607160D01*
X79343370Y-122556441D01*
X79436784Y-122502919D01*
X79534620Y-122446838D01*
X79636451Y-122388444D01*
X79741851Y-122327981D01*
X79850395Y-122265693D01*
X79961656Y-122201827D01*
X80075209Y-122136627D01*
X80190628Y-122070337D01*
X80307486Y-122003203D01*
X80425358Y-121935470D01*
X80543818Y-121867381D01*
X80662439Y-121799184D01*
X80780796Y-121731121D01*
X80898464Y-121663438D01*
X81015014Y-121596381D01*
X81130023Y-121530193D01*
X81243064Y-121465120D01*
X81353711Y-121401406D01*
X81461537Y-121339297D01*
X81566118Y-121279038D01*
X81667027Y-121220873D01*
X81763838Y-121165047D01*
X81856125Y-121111805D01*
X81943462Y-121061391D01*
X82025423Y-121014052D01*
X82101583Y-120970032D01*
X82171515Y-120929575D01*
X82234793Y-120892927D01*
X82290991Y-120860332D01*
X82339684Y-120832035D01*
X82380445Y-120808281D01*
X82412849Y-120789316D01*
X82436469Y-120775384D01*
X82450880Y-120766729D01*
X82455380Y-120763855D01*
X82486128Y-120735109D01*
X82506370Y-120703101D01*
X82516175Y-120669068D01*
X82515613Y-120634252D01*
X82504756Y-120599892D01*
X82483672Y-120567228D01*
X82452433Y-120537500D01*
X82442143Y-120530054D01*
X82434343Y-120525258D01*
X82417068Y-120515025D01*
X82390743Y-120499599D01*
X82355792Y-120479223D01*
X82312641Y-120454143D01*
X82261713Y-120424602D01*
X82203434Y-120390844D01*
X82138228Y-120353114D01*
X82066519Y-120311657D01*
X81988731Y-120266716D01*
X81905290Y-120218535D01*
X81816620Y-120167359D01*
X81723146Y-120113433D01*
X81625291Y-120056999D01*
X81523481Y-119998304D01*
X81418140Y-119937590D01*
X81309692Y-119875102D01*
X81198562Y-119811085D01*
X81085176Y-119745782D01*
X80969956Y-119679439D01*
X80853328Y-119612298D01*
X80735716Y-119544605D01*
X80617545Y-119476604D01*
X80499239Y-119408538D01*
X80381224Y-119340653D01*
X80263922Y-119273192D01*
X80147759Y-119206399D01*
X80033160Y-119140520D01*
X79920549Y-119075798D01*
X79810350Y-119012477D01*
X79702988Y-118950802D01*
X79598888Y-118891017D01*
X79498474Y-118833366D01*
X79402171Y-118778094D01*
X79310402Y-118725444D01*
X79223594Y-118675662D01*
X79142169Y-118628990D01*
X79066553Y-118585674D01*
X78997171Y-118545958D01*
X78934446Y-118510086D01*
X78878804Y-118478302D01*
X78830669Y-118450850D01*
X78790465Y-118427976D01*
X78758617Y-118409922D01*
X78735549Y-118396933D01*
X78721687Y-118389254D01*
X78717545Y-118387111D01*
X78685446Y-118379327D01*
X78651336Y-118377858D01*
X78619549Y-118382604D01*
X78600515Y-118389822D01*
X78571349Y-118410924D01*
X78549678Y-118439962D01*
X78535139Y-118477520D01*
X78529872Y-118503157D01*
X78529430Y-118511762D01*
X78529008Y-118531362D01*
X78528605Y-118561466D01*
X78528222Y-118601578D01*
X78527859Y-118651205D01*
X78527516Y-118709855D01*
X78527193Y-118777033D01*
X78526889Y-118852247D01*
X78526606Y-118935002D01*
X78526341Y-119024806D01*
X78526097Y-119121165D01*
X78525872Y-119223585D01*
X78525667Y-119331574D01*
X78525481Y-119444638D01*
X78525315Y-119562283D01*
X78525169Y-119684016D01*
X78525042Y-119809343D01*
X78524934Y-119937772D01*
X78524847Y-120068808D01*
X78524778Y-120201959D01*
X78524729Y-120336731D01*
X78524700Y-120472630D01*
X78524690Y-120609163D01*
X78147052Y-120609163D01*
X78147028Y-120517590D01*
X78147003Y-120350538D01*
X78146997Y-120186582D01*
X78147010Y-120026101D01*
X78147041Y-119869471D01*
X78147090Y-119717072D01*
X78147156Y-119569279D01*
X78147239Y-119426473D01*
X78147338Y-119289029D01*
X78147453Y-119157325D01*
X78147583Y-119031740D01*
X78147728Y-118912652D01*
X78147887Y-118800437D01*
X78148060Y-118695473D01*
X78148246Y-118598139D01*
X78148445Y-118508812D01*
X78148656Y-118427870D01*
X78148879Y-118355690D01*
X78149113Y-118292650D01*
X78149357Y-118239128D01*
X78149612Y-118195502D01*
X78149876Y-118162150D01*
X78150150Y-118139448D01*
X78150432Y-118127775D01*
X78150500Y-118126669D01*
X78155368Y-118084075D01*
X78162504Y-118048480D01*
X78173074Y-118015435D01*
X78188247Y-117980497D01*
X78189662Y-117977553D01*
X78217982Y-117930705D01*
X78252842Y-117892970D01*
X78293609Y-117864475D01*
X78339652Y-117845350D01*
X78390337Y-117835721D01*
X78445033Y-117835718D01*
X78503108Y-117845470D01*
X78563929Y-117865103D01*
X78618863Y-117890469D01*
X78627552Y-117895286D01*
X78645765Y-117905595D01*
X78651336Y-117908768D01*
X78673107Y-117921168D01*
X78709182Y-117941779D01*
G37*
G36*
X79739261Y-119854052D02*
G01*
X79755283Y-119858532D01*
X79781258Y-119865899D01*
X79816640Y-119875995D01*
X79860887Y-119888663D01*
X79913453Y-119903747D01*
X79973794Y-119921090D01*
X80041365Y-119940536D01*
X80115623Y-119961927D01*
X80196022Y-119985107D01*
X80282018Y-120009918D01*
X80373067Y-120036206D01*
X80468624Y-120063811D01*
X80568145Y-120092579D01*
X80671085Y-120122352D01*
X80754553Y-120146504D01*
X80879250Y-120182600D01*
X80993371Y-120215647D01*
X81097384Y-120245789D01*
X81191758Y-120273166D01*
X81276959Y-120297919D01*
X81353457Y-120320191D01*
X81421721Y-120340123D01*
X81482217Y-120357856D01*
X81535414Y-120373533D01*
X81581781Y-120387294D01*
X81621785Y-120399281D01*
X81655896Y-120409636D01*
X81684581Y-120418501D01*
X81708308Y-120426016D01*
X81727546Y-120432324D01*
X81742762Y-120437566D01*
X81754426Y-120441883D01*
X81763005Y-120445418D01*
X81768968Y-120448311D01*
X81772782Y-120450704D01*
X81774916Y-120452740D01*
X81775839Y-120454558D01*
X81775981Y-120455318D01*
X81775925Y-120464475D01*
X81774975Y-120483108D01*
X81773262Y-120509653D01*
X81770915Y-120542547D01*
X81768064Y-120580229D01*
X81764840Y-120621134D01*
X81761372Y-120663700D01*
X81757791Y-120706365D01*
X81754226Y-120747565D01*
X81750808Y-120785738D01*
X81747666Y-120819322D01*
X81744931Y-120846752D01*
X81742732Y-120866467D01*
X81741200Y-120876905D01*
X81740804Y-120878131D01*
X81735108Y-120876622D01*
X81719200Y-120871473D01*
X81693698Y-120862897D01*
X81659219Y-120851112D01*
X81616381Y-120836333D01*
X81565802Y-120818774D01*
X81508099Y-120798653D01*
X81443890Y-120776185D01*
X81373792Y-120751584D01*
X81298424Y-120725068D01*
X81218402Y-120696851D01*
X81134344Y-120667150D01*
X81046869Y-120636179D01*
X80983174Y-120613591D01*
X80893672Y-120581846D01*
X80807168Y-120551197D01*
X80724281Y-120521861D01*
X80645625Y-120494056D01*
X80571816Y-120467997D01*
X80503472Y-120443902D01*
X80441209Y-120421988D01*
X80385642Y-120402470D01*
X80337387Y-120385566D01*
X80297062Y-120371493D01*
X80265282Y-120360467D01*
X80242663Y-120352705D01*
X80229823Y-120348424D01*
X80226979Y-120347617D01*
X80229586Y-120352699D01*
X80237673Y-120366889D01*
X80250798Y-120389438D01*
X80268519Y-120419601D01*
X80290395Y-120456631D01*
X80315982Y-120499782D01*
X80344839Y-120548307D01*
X80376524Y-120601461D01*
X80410594Y-120658496D01*
X80446608Y-120718666D01*
X80458604Y-120738682D01*
X80495150Y-120799708D01*
X80529891Y-120857842D01*
X80562385Y-120912339D01*
X80592192Y-120962452D01*
X80618868Y-121007433D01*
X80641973Y-121046537D01*
X80661064Y-121079016D01*
X80675700Y-121104125D01*
X80685439Y-121121116D01*
X80689840Y-121129244D01*
X80690047Y-121129851D01*
X80684410Y-121128454D01*
X80668442Y-121123915D01*
X80642811Y-121116435D01*
X80608188Y-121106216D01*
X80565240Y-121093455D01*
X80514637Y-121078355D01*
X80457047Y-121061115D01*
X80393138Y-121041935D01*
X80323581Y-121021015D01*
X80249044Y-120998556D01*
X80170194Y-120974757D01*
X80087702Y-120949819D01*
X80016347Y-120928218D01*
X79931249Y-120902451D01*
X79849189Y-120877629D01*
X79770842Y-120853954D01*
X79696879Y-120831627D01*
X79627974Y-120810851D01*
X79564800Y-120791829D01*
X79508030Y-120774763D01*
X79458337Y-120759855D01*
X79416393Y-120747307D01*
X79382873Y-120737323D01*
X79358449Y-120730104D01*
X79343794Y-120725852D01*
X79339531Y-120724723D01*
X79338198Y-120730224D01*
X79336997Y-120745743D01*
X79335977Y-120769803D01*
X79335185Y-120800926D01*
X79334669Y-120837633D01*
X79334478Y-120878448D01*
X79334477Y-120879916D01*
X79334373Y-120920806D01*
X79334079Y-120957660D01*
X79333624Y-120988997D01*
X79333036Y-121013337D01*
X79332341Y-121029199D01*
X79331570Y-121035102D01*
X79331540Y-121035110D01*
X79326686Y-121031910D01*
X79313344Y-121022740D01*
X79292427Y-121008240D01*
X79264852Y-120989051D01*
X79231533Y-120965815D01*
X79193385Y-120939173D01*
X79151323Y-120909767D01*
X79106261Y-120878238D01*
X79059116Y-120845226D01*
X79010801Y-120811375D01*
X78962232Y-120777324D01*
X78914323Y-120743714D01*
X78867990Y-120711189D01*
X78824148Y-120680388D01*
X78783710Y-120651953D01*
X78747593Y-120626525D01*
X78716712Y-120604746D01*
X78691981Y-120587257D01*
X78674314Y-120574700D01*
X78664628Y-120567715D01*
X78663312Y-120566721D01*
X78668151Y-120564254D01*
X78682627Y-120557553D01*
X78705856Y-120547015D01*
X78736952Y-120533034D01*
X78775031Y-120516006D01*
X78819207Y-120496328D01*
X78868596Y-120474393D01*
X78922313Y-120450599D01*
X78979472Y-120425340D01*
X78990943Y-120420278D01*
X79048956Y-120394688D01*
X79103936Y-120370447D01*
X79154967Y-120347958D01*
X79201132Y-120327623D01*
X79241515Y-120309847D01*
X79275202Y-120295032D01*
X79301275Y-120283581D01*
X79318820Y-120275897D01*
X79326920Y-120272384D01*
X79327292Y-120272230D01*
X79329728Y-120273672D01*
X79331582Y-120280897D01*
X79332920Y-120295019D01*
X79333805Y-120317150D01*
X79334302Y-120348403D01*
X79334475Y-120389890D01*
X79334477Y-120396138D01*
X79334668Y-120433115D01*
X79335201Y-120466087D01*
X79336019Y-120493368D01*
X79337066Y-120513272D01*
X79338285Y-120524112D01*
X79338864Y-120525579D01*
X79345502Y-120527114D01*
X79362317Y-120530151D01*
X79388203Y-120534519D01*
X79422049Y-120540049D01*
X79462747Y-120546573D01*
X79509189Y-120553920D01*
X79560265Y-120561921D01*
X79614867Y-120570407D01*
X79671887Y-120579208D01*
X79730214Y-120588156D01*
X79788742Y-120597080D01*
X79846360Y-120605812D01*
X79901961Y-120614182D01*
X79954435Y-120622021D01*
X80002673Y-120629159D01*
X80045568Y-120635427D01*
X80082010Y-120640655D01*
X80110891Y-120644675D01*
X80131101Y-120647317D01*
X80141533Y-120648412D01*
X80142732Y-120648368D01*
X80140641Y-120642895D01*
X80133606Y-120628024D01*
X80122026Y-120604537D01*
X80106299Y-120573213D01*
X80086823Y-120534835D01*
X80063997Y-120490184D01*
X80038220Y-120440040D01*
X80009888Y-120385185D01*
X79979402Y-120326400D01*
X79947158Y-120264467D01*
X79939374Y-120249550D01*
X79906751Y-120187023D01*
X79875738Y-120127505D01*
X79846735Y-120071774D01*
X79820147Y-120020606D01*
X79796374Y-119974778D01*
X79775821Y-119935068D01*
X79758889Y-119902253D01*
X79745982Y-119877110D01*
X79737501Y-119860415D01*
X79733850Y-119852947D01*
X79733737Y-119852614D01*
X79739261Y-119854052D01*
G37*
D12*
X160570000Y-52550000D02*
X160570000Y-61750000D01*
X136370000Y-61750000D02*
X160570000Y-61750000D01*
X136370000Y-52550000D02*
X136370000Y-61750000D01*
X136370000Y-52550000D02*
X160570000Y-52550000D01*
X167378748Y-103405000D02*
X167901252Y-103405000D01*
X167378748Y-104875000D02*
X167901252Y-104875000D01*
X124720000Y-59300000D02*
X130420000Y-59300000D01*
X124720000Y-55000000D02*
X124720000Y-59300000D01*
X124720000Y-55000000D02*
X130420000Y-55000000D01*
D14*
X78150000Y-78870000D02*
X78150000Y-63370000D01*
X74250000Y-63370000D02*
X78150000Y-63370000D01*
X74250000Y-78870000D02*
X78150000Y-78870000D01*
X74250000Y-78870000D02*
X74250000Y-63370000D01*
D17*
X87630000Y-106172000D02*
X87630000Y-106680000D01*
X87884000Y-111252000D02*
X87884000Y-111760000D01*
X87884000Y-110236000D02*
X87884000Y-110744000D01*
X92456000Y-109220000D02*
X92456000Y-109728000D01*
X87376000Y-111252000D02*
X87376000Y-111760000D01*
X92964000Y-111252000D02*
X92964000Y-111760000D01*
X92964000Y-109220000D02*
X92964000Y-109728000D01*
X92964000Y-110236000D02*
X92964000Y-110744000D01*
X92710000Y-106172000D02*
X92710000Y-106680000D01*
X87630000Y-105156000D02*
X87630000Y-105664000D01*
X92710000Y-105156000D02*
X92710000Y-105664000D01*
X92710000Y-104140000D02*
X92710000Y-104648000D01*
X92456000Y-111252000D02*
X92456000Y-111760000D01*
X92456000Y-110236000D02*
X92456000Y-110744000D01*
X87376000Y-110236000D02*
X87376000Y-110744000D01*
X87376000Y-109220000D02*
X87376000Y-109728000D01*
X87630000Y-104140000D02*
X87630000Y-104648000D01*
X87884000Y-109220000D02*
X87884000Y-109728000D01*
D12*
X94234000Y-101346000D02*
X91186000Y-101346000D01*
X91186000Y-101346000D02*
X91186000Y-114554000D01*
X91186000Y-114554000D02*
X94234000Y-114554000D01*
X94234000Y-114554000D02*
X94234000Y-101346000D01*
X89154000Y-101346000D02*
X86106000Y-101346000D01*
X86106000Y-101346000D02*
X86106000Y-114554000D01*
X86106000Y-114554000D02*
X89154000Y-114554000D01*
X89154000Y-114554000D02*
X89154000Y-101346000D01*
X172161252Y-91530000D02*
X170738748Y-91530000D01*
X172161252Y-88810000D02*
X170738748Y-88810000D01*
X154968752Y-108485000D02*
X154446248Y-108485000D01*
X154968752Y-109955000D02*
X154446248Y-109955000D01*
X170915000Y-117882936D02*
X170915000Y-118337064D01*
X169445000Y-117882936D02*
X169445000Y-118337064D01*
X77600000Y-117840000D02*
X74800000Y-117840000D01*
X74800000Y-117840000D02*
X74800000Y-115840000D01*
X74800000Y-115840000D02*
X77600000Y-115840000D01*
X77600000Y-115840000D02*
X77600000Y-117840000D01*
%LPC*%
D18*
X153670000Y-119380000D03*
X90170000Y-68580000D03*
X90170000Y-119380000D03*
X153670000Y-68580000D03*
D19*
X102870000Y-118110000D03*
D20*
X118110000Y-118110000D03*
X125730000Y-118110000D03*
X140970000Y-118110000D03*
X102870000Y-69850000D03*
X118110000Y-69850000D03*
X125730000Y-69850000D03*
X140970000Y-69850000D03*
D21*
X77970000Y-102108000D03*
D22*
X77970000Y-107108000D03*
X77970000Y-112108000D03*
D23*
X104020000Y-57150000D03*
X89020000Y-57150000D03*
D21*
X187960000Y-106680000D03*
D22*
X187960000Y-101680000D03*
X187960000Y-96680000D03*
X187960000Y-91680000D03*
D24*
X166667246Y-78740000D03*
D25*
X174167246Y-78740000D03*
D26*
X173012500Y-93980000D03*
X169887500Y-93980000D03*
D27*
X176530000Y-105870000D03*
X176530000Y-99845000D03*
D24*
X164705000Y-67310000D03*
D25*
X175605000Y-67210000D03*
X175605000Y-56410000D03*
X164705000Y-56410000D03*
D28*
X73660000Y-55880000D03*
X190500000Y-55880000D03*
X190500000Y-121920000D03*
X73660000Y-121920000D03*
D29*
X175260000Y-117110000D03*
X175260000Y-119110000D03*
X175260000Y-113300000D03*
X175260000Y-115300000D03*
D25*
X76200000Y-96400000D03*
X76200000Y-81400000D03*
D30*
X181610000Y-114290000D03*
X181610000Y-116830000D03*
X181610000Y-119370000D03*
D31*
X156502500Y-105410000D03*
X153377500Y-105410000D03*
D32*
X114690000Y-57150000D03*
X118990000Y-57150000D03*
D33*
X170180000Y-114067500D03*
X170180000Y-111992500D03*
D21*
X187960000Y-85090000D03*
D22*
X187960000Y-80090000D03*
X187960000Y-75090000D03*
X187960000Y-70090000D03*
D34*
X162560000Y-110490000D03*
D35*
X159685000Y-108585000D03*
X159685000Y-109855000D03*
X159685000Y-111125000D03*
X159685000Y-112395000D03*
X165435000Y-112395000D03*
X165435000Y-111125000D03*
X165435000Y-109855000D03*
X165435000Y-108585000D03*
D36*
X161910000Y-111790000D03*
X161910000Y-109190000D03*
X161910000Y-110490000D03*
X163210000Y-109190000D03*
X163210000Y-110490000D03*
X163210000Y-111790000D03*
D23*
X140970000Y-57150000D03*
X155970000Y-57150000D03*
D37*
X166602500Y-104140000D03*
X168677500Y-104140000D03*
D32*
X126120000Y-57150000D03*
X130420000Y-57150000D03*
D38*
X75500000Y-74870000D03*
X76900000Y-67370000D03*
D39*
X92710000Y-102870000D03*
D40*
X92710000Y-107950000D03*
X92710000Y-113030000D03*
X87630000Y-102870000D03*
X87630000Y-107950000D03*
X87630000Y-113030000D03*
D26*
X173012500Y-90170000D03*
X169887500Y-90170000D03*
D41*
X155745000Y-109220000D03*
X153670000Y-109220000D03*
D29*
X170180000Y-117110000D03*
X170180000Y-119110000D03*
D42*
X76850000Y-116840000D03*
X75550000Y-116840000D03*
M02*
