<?xml version="1.0" standalone="no"?>
 <!DOCTYPE svg PUBLIC "-//W3C//DTD SVG 1.1//EN" 
 "http://www.w3.org/Graphics/SVG/1.1/DTD/svg11.dtd"> 
<svg
  xmlns:svg="http://www.w3.org/2000/svg"
  xmlns="http://www.w3.org/2000/svg"
  xmlns:xlink="http://www.w3.org/1999/xlink"
  version="1.1"
  width="15.128240cm" height="7.515860cm" viewBox="0 0 59560 29590">
<title>SVG Picture created as C64PowerSupply-B_Cu.svg date 2021/06/30 22:48:50 </title>
  <desc>Picture generated by PCBNEW </desc>
<g style="fill:#000000; fill-opacity:1;stroke:#000000; stroke-opacity:1;
stroke-linecap:round; stroke-linejoin:round;"
 transform="translate(0 0) scale(1 1)">
</g>
<g style="fill:#000000; fill-opacity:0.0; 
stroke:#000000; stroke-width:-0.000393701; stroke-opacity:1; 
stroke-linecap:round; stroke-linejoin:round;">
<g >
</g>
<g style="fill:#848400; fill-opacity:0.0; 
stroke:#848400; stroke-width:-0.000393701; stroke-opacity:1; 
stroke-linecap:round; stroke-linejoin:round;">
</g>
<g style="fill:#848400; fill-opacity:1.0; 
stroke:#848400; stroke-width:0; stroke-opacity:1; 
stroke-linecap:round; stroke-linejoin:round;">
<circle cx="54408" cy="11065.2" r="511.811" /> 
</g>
<g style="fill:#848400; fill-opacity:1.0; 
stroke:#848400; stroke-width:39.3701; stroke-opacity:1; 
stroke-linecap:round; stroke-linejoin:round;">
</g>
<g style="fill:#848400; fill-opacity:1.0; 
stroke:#848400; stroke-width:0; stroke-opacity:1; 
stroke-linecap:round; stroke-linejoin:round;">
<circle cx="54408" cy="13033.7" r="511.811" /> 
</g>
<g style="fill:#848400; fill-opacity:1.0; 
stroke:#848400; stroke-width:39.3701; stroke-opacity:1; 
stroke-linecap:round; stroke-linejoin:round;">
</g>
<g style="fill:#848400; fill-opacity:1.0; 
stroke:#848400; stroke-width:0; stroke-opacity:1; 
stroke-linecap:round; stroke-linejoin:round;">
<circle cx="54408" cy="15002.2" r="511.811" /> 
</g>
<g style="fill:#848400; fill-opacity:1.0; 
stroke:#848400; stroke-width:39.3701; stroke-opacity:1; 
stroke-linecap:round; stroke-linejoin:round;">
</g>
<g style="fill:#848400; fill-opacity:1.0; 
stroke:#848400; stroke-width:0; stroke-opacity:1; 
stroke-linecap:round; stroke-linejoin:round;">
<path style="fill:#848400; fill-opacity:1.0; 
stroke:#848400; stroke-width:0; stroke-opacity:1; 
stroke-linecap:round; stroke-linejoin:round;fill-rule:evenodd;"
d="M 54919.8,17482.5
53896.2,17482.5
53896.2,16458.9
54919.8,16458.9
Z" /> 
</g>
<g >
</g>
<g style="fill:#848400; fill-opacity:1.0; 
stroke:#848400; stroke-width:0; stroke-opacity:1; 
stroke-linecap:round; stroke-linejoin:round;">
<circle cx="9008.01" cy="19907.7" r="511.811" /> 
</g>
<g style="fill:#848400; fill-opacity:1.0; 
stroke:#848400; stroke-width:39.3701; stroke-opacity:1; 
stroke-linecap:round; stroke-linejoin:round;">
</g>
<g style="fill:#848400; fill-opacity:1.0; 
stroke:#848400; stroke-width:0; stroke-opacity:1; 
stroke-linecap:round; stroke-linejoin:round;">
<circle cx="9008.01" cy="17939.2" r="511.811" /> 
</g>
<g style="fill:#848400; fill-opacity:1.0; 
stroke:#848400; stroke-width:39.3701; stroke-opacity:1; 
stroke-linecap:round; stroke-linejoin:round;">
</g>
<g style="fill:#848400; fill-opacity:1.0; 
stroke:#848400; stroke-width:0; stroke-opacity:1; 
stroke-linecap:round; stroke-linejoin:round;">
<path style="fill:#848400; fill-opacity:1.0; 
stroke:#848400; stroke-width:0; stroke-opacity:1; 
stroke-linecap:round; stroke-linejoin:round;fill-rule:evenodd;"
d="M 8496.19,15458.9
9519.82,15458.9
9519.82,16482.5
8496.19,16482.5
Z" /> 
</g>
<g >
</g>
<g style="fill:#848400; fill-opacity:1.0; 
stroke:#848400; stroke-width:0; stroke-opacity:1; 
stroke-linecap:round; stroke-linejoin:round;">
<circle cx="49808" cy="13370.7" r="283.465" /> 
</g>
<g style="fill:#848400; fill-opacity:1.0; 
stroke:#848400; stroke-width:39.3701; stroke-opacity:1; 
stroke-linecap:round; stroke-linejoin:round;">
</g>
<g style="fill:#848400; fill-opacity:1.0; 
stroke:#848400; stroke-width:0; stroke-opacity:1; 
stroke-linecap:round; stroke-linejoin:round;">
<circle cx="50808" cy="12370.7" r="283.465" /> 
</g>
<g style="fill:#848400; fill-opacity:1.0; 
stroke:#848400; stroke-width:39.3701; stroke-opacity:1; 
stroke-linecap:round; stroke-linejoin:round;">
</g>
<g style="fill:#848400; fill-opacity:1.0; 
stroke:#848400; stroke-width:0; stroke-opacity:1; 
stroke-linecap:round; stroke-linejoin:round;">
<circle cx="49808" cy="11370.7" r="283.465" /> 
</g>
<g style="fill:#848400; fill-opacity:1.0; 
stroke:#848400; stroke-width:39.3701; stroke-opacity:1; 
stroke-linecap:round; stroke-linejoin:round;">
</g>
<g >
</g>
<g style="fill:#848400; fill-opacity:1.0; 
stroke:#848400; stroke-width:39.3701; stroke-opacity:1; 
stroke-linecap:round; stroke-linejoin:round;">
</g>
<g style="fill:#848400; fill-opacity:1.0; 
stroke:#848400; stroke-width:0; stroke-opacity:1; 
stroke-linecap:round; stroke-linejoin:round;">
<circle cx="38008" cy="3615.16" r="492.126" /> 
</g>
<g style="fill:#848400; fill-opacity:1.0; 
stroke:#848400; stroke-width:39.3701; stroke-opacity:1; 
stroke-linecap:round; stroke-linejoin:round;">
</g>
<g style="fill:#848400; fill-opacity:1.0; 
stroke:#848400; stroke-width:0; stroke-opacity:1; 
stroke-linecap:round; stroke-linejoin:round;">
<circle cx="38008" cy="9520.67" r="492.126" /> 
</g>
<g style="fill:#848400; fill-opacity:1.0; 
stroke:#848400; stroke-width:39.3701; stroke-opacity:1; 
stroke-linecap:round; stroke-linejoin:round;">
</g>
<g >
</g>
<g style="fill:#848400; fill-opacity:1.0; 
stroke:#848400; stroke-width:39.3701; stroke-opacity:1; 
stroke-linecap:round; stroke-linejoin:round;">
</g>
<g style="fill:#848400; fill-opacity:1.0; 
stroke:#848400; stroke-width:0; stroke-opacity:1; 
stroke-linecap:round; stroke-linejoin:round;">
<circle cx="37958" cy="18065.2" r="492.126" /> 
</g>
<g style="fill:#848400; fill-opacity:1.0; 
stroke:#848400; stroke-width:39.3701; stroke-opacity:1; 
stroke-linecap:round; stroke-linejoin:round;">
</g>
<g style="fill:#848400; fill-opacity:1.0; 
stroke:#848400; stroke-width:0; stroke-opacity:1; 
stroke-linecap:round; stroke-linejoin:round;">
<circle cx="37958" cy="23970.7" r="492.126" /> 
</g>
<g style="fill:#848400; fill-opacity:1.0; 
stroke:#848400; stroke-width:39.3701; stroke-opacity:1; 
stroke-linecap:round; stroke-linejoin:round;">
</g>
<g >
</g>
<g >
</g>
<g style="fill:#848400; fill-opacity:1.0; 
stroke:#848400; stroke-width:39.3701; stroke-opacity:1; 
stroke-linecap:round; stroke-linejoin:round;">
</g>
<g style="fill:#848400; fill-opacity:1.0; 
stroke:#848400; stroke-width:0; stroke-opacity:1; 
stroke-linecap:round; stroke-linejoin:round;">
<circle cx="8208.01" cy="23770.7" r="1122.05" /> 
</g>
<g style="fill:#848400; fill-opacity:1.0; 
stroke:#848400; stroke-width:39.3701; stroke-opacity:1; 
stroke-linecap:round; stroke-linejoin:round;">
</g>
<g >
</g>
<g style="fill:#848400; fill-opacity:1.0; 
stroke:#848400; stroke-width:39.3701; stroke-opacity:1; 
stroke-linecap:round; stroke-linejoin:round;">
</g>
<g style="fill:#848400; fill-opacity:1.0; 
stroke:#848400; stroke-width:0; stroke-opacity:1; 
stroke-linecap:round; stroke-linejoin:round;">
<circle cx="54208" cy="23770.7" r="1122.05" /> 
</g>
<g style="fill:#848400; fill-opacity:1.0; 
stroke:#848400; stroke-width:39.3701; stroke-opacity:1; 
stroke-linecap:round; stroke-linejoin:round;">
</g>
<g >
</g>
<g style="fill:#848400; fill-opacity:1.0; 
stroke:#848400; stroke-width:39.3701; stroke-opacity:1; 
stroke-linecap:round; stroke-linejoin:round;">
</g>
<g style="fill:#848400; fill-opacity:1.0; 
stroke:#848400; stroke-width:0; stroke-opacity:1; 
stroke-linecap:round; stroke-linejoin:round;">
<circle cx="54208" cy="3770.67" r="1122.05" /> 
</g>
<g style="fill:#848400; fill-opacity:1.0; 
stroke:#848400; stroke-width:39.3701; stroke-opacity:1; 
stroke-linecap:round; stroke-linejoin:round;">
</g>
<g >
</g>
<g style="fill:#848400; fill-opacity:1.0; 
stroke:#848400; stroke-width:39.3701; stroke-opacity:1; 
stroke-linecap:round; stroke-linejoin:round;">
</g>
<g style="fill:#848400; fill-opacity:1.0; 
stroke:#848400; stroke-width:0; stroke-opacity:1; 
stroke-linecap:round; stroke-linejoin:round;">
<circle cx="8208.01" cy="3770.67" r="1122.05" /> 
</g>
<g style="fill:#848400; fill-opacity:1.0; 
stroke:#848400; stroke-width:39.3701; stroke-opacity:1; 
stroke-linecap:round; stroke-linejoin:round;">
</g>
<g >
</g>
<g style="fill:#848400; fill-opacity:1.0; 
stroke:#848400; stroke-width:39.3701; stroke-opacity:1; 
stroke-linecap:round; stroke-linejoin:round;">
</g>
<g style="fill:#848400; fill-opacity:1.0; 
stroke:#848400; stroke-width:0; stroke-opacity:1; 
stroke-linecap:round; stroke-linejoin:round;">
<circle cx="42770.3" cy="16777.3" r="472.441" /> 
</g>
<g style="fill:#848400; fill-opacity:1.0; 
stroke:#848400; stroke-width:39.3701; stroke-opacity:1; 
stroke-linecap:round; stroke-linejoin:round;">
</g>
<g style="fill:#848400; fill-opacity:1.0; 
stroke:#848400; stroke-width:0; stroke-opacity:1; 
stroke-linecap:round; stroke-linejoin:round;">
<path style="fill:#848400; fill-opacity:1.0; 
stroke:#848400; stroke-width:0; stroke-opacity:1; 
stroke-linecap:round; stroke-linejoin:round;fill-rule:evenodd;"
d="M 39708,13102.5
40376.1,13770.7
39708,14438.8
39039.9,13770.7
Z" /> 
<circle cx="42742.4" cy="10736.2" r="472.441" /> 
</g>
<g style="fill:#848400; fill-opacity:1.0; 
stroke:#848400; stroke-width:39.3701; stroke-opacity:1; 
stroke-linecap:round; stroke-linejoin:round;">
</g>
<g style="fill:#848400; fill-opacity:1.0; 
stroke:#848400; stroke-width:0; stroke-opacity:1; 
stroke-linecap:round; stroke-linejoin:round;">
<circle cx="45776.9" cy="13770.7" r="472.441" /> 
</g>
<g style="fill:#848400; fill-opacity:1.0; 
stroke:#848400; stroke-width:39.3701; stroke-opacity:1; 
stroke-linecap:round; stroke-linejoin:round;">
</g>
<g >
</g>
<g style="fill:#008400; fill-opacity:1.0; 
stroke:#008400; stroke-width:39.3701; stroke-opacity:1; 
stroke-linecap:round; stroke-linejoin:round;">
</g>
<g style="fill:#008400; fill-opacity:1.0; 
stroke:#008400; stroke-width:0; stroke-opacity:1; 
stroke-linecap:round; stroke-linejoin:round;">
<path style="fill:#008400; fill-opacity:1.0; 
stroke:#008400; stroke-width:0; stroke-opacity:1; 
stroke-linecap:round; stroke-linejoin:round;fill-rule:evenodd;"
d="M 51794.8,13541.2
51804.4,13542.6
51813.7,13545
51822.8,13548.2
51831.6,13552.4
51839.9,13557.3
51847.6,13563.1
51854.8,13569.6
51861.3,13576.7
51867,13584.5
51872,13592.8
51876.1,13601.5
51879.4,13610.6
51881.7,13620
51883.1,13629.5
51883.6,13639.2
51883.6,13914.8
51883.1,13924.4
51881.7,13934
51879.4,13943.3
51876.1,13952.4
51872,13961.2
51867,13969.4
51861.3,13977.2
51854.8,13984.4
51847.6,13990.8
51839.9,13996.6
51831.6,14001.6
51822.8,14005.7
51813.7,14009
51804.4,14011.3
51794.8,14012.7
51785.2,14013.2
51430.8,14013.2
51421.2,14012.7
51411.6,14011.3
51402.3,14009
51393.2,14005.7
51384.4,14001.6
51376.2,13996.6
51368.4,13990.8
51361.2,13984.4
51354.8,13977.2
51349,13969.4
51344,13961.2
51339.9,13952.4
51336.7,13943.3
51334.3,13934
51332.9,13924.4
51332.4,13914.8
51332.4,13639.2
51332.9,13629.5
51334.3,13620
51336.7,13610.6
51339.9,13601.5
51344,13592.8
51349,13584.5
51354.8,13576.7
51361.2,13569.6
51368.4,13563.1
51376.2,13557.3
51384.4,13552.4
51393.2,13548.2
51402.3,13545
51411.6,13542.6
51421.2,13541.2
51430.8,13540.7
51785.2,13540.7
Z" /> 
<path style="fill:#008400; fill-opacity:1.0; 
stroke:#008400; stroke-width:0; stroke-opacity:1; 
stroke-linecap:round; stroke-linejoin:round;fill-rule:evenodd;"
d="M 51794.8,14328.6
51804.4,14330
51813.7,14332.4
51822.8,14335.6
51831.6,14339.8
51839.9,14344.7
51847.6,14350.5
51854.8,14357
51861.3,14364.1
51867,14371.9
51872,14380.2
51876.1,14388.9
51879.4,14398
51881.7,14407.4
51883.1,14416.9
51883.6,14426.6
51883.6,14702.2
51883.1,14711.8
51881.7,14721.4
51879.4,14730.7
51876.1,14739.8
51872,14748.6
51867,14756.8
51861.3,14764.6
51854.8,14771.8
51847.6,14778.2
51839.9,14784
51831.6,14789
51822.8,14793.1
51813.7,14796.4
51804.4,14798.7
51794.8,14800.1
51785.2,14800.6
51430.8,14800.6
51421.2,14800.1
51411.6,14798.7
51402.3,14796.4
51393.2,14793.1
51384.4,14789
51376.2,14784
51368.4,14778.2
51361.2,14771.8
51354.8,14764.6
51349,14756.8
51344,14748.6
51339.9,14739.8
51336.7,14730.7
51334.3,14721.4
51332.9,14711.8
51332.4,14702.2
51332.4,14426.6
51332.9,14416.9
51334.3,14407.4
51336.7,14398
51339.9,14388.9
51344,14380.2
51349,14371.9
51354.8,14364.1
51361.2,14357
51368.4,14350.5
51376.2,14344.7
51384.4,14339.8
51393.2,14335.6
51402.3,14332.4
51411.6,14330
51421.2,14328.6
51430.8,14328.1
51785.2,14328.1
Z" /> 
</g>
<g >
</g>
<g style="fill:#008400; fill-opacity:1.0; 
stroke:#008400; stroke-width:0; stroke-opacity:1; 
stroke-linecap:round; stroke-linejoin:round;">
<path style="fill:#008400; fill-opacity:1.0; 
stroke:#008400; stroke-width:0; stroke-opacity:1; 
stroke-linecap:round; stroke-linejoin:round;fill-rule:evenodd;"
d="M 50994.8,14328.6
51004.4,14330
51013.7,14332.4
51022.8,14335.6
51031.6,14339.8
51039.9,14344.7
51047.6,14350.5
51054.8,14357
51061.3,14364.1
51067,14371.9
51072,14380.2
51076.1,14388.9
51079.4,14398
51081.7,14407.4
51083.1,14416.9
51083.6,14426.6
51083.6,14702.2
51083.1,14711.8
51081.7,14721.4
51079.4,14730.7
51076.1,14739.8
51072,14748.6
51067,14756.8
51061.3,14764.6
51054.8,14771.8
51047.6,14778.2
51039.9,14784
51031.6,14789
51022.8,14793.1
51013.7,14796.4
51004.4,14798.7
50994.8,14800.1
50985.2,14800.6
50630.8,14800.6
50621.2,14800.1
50611.6,14798.7
50602.3,14796.4
50593.2,14793.1
50584.4,14789
50576.2,14784
50568.4,14778.2
50561.2,14771.8
50554.8,14764.6
50549,14756.8
50544,14748.6
50539.9,14739.8
50536.7,14730.7
50534.3,14721.4
50532.9,14711.8
50532.4,14702.2
50532.4,14426.6
50532.9,14416.9
50534.3,14407.4
50536.7,14398
50539.9,14388.9
50544,14380.2
50549,14371.9
50554.8,14364.1
50561.2,14357
50568.4,14350.5
50576.2,14344.7
50584.4,14339.8
50593.2,14335.6
50602.3,14332.4
50611.6,14330
50621.2,14328.6
50630.8,14328.1
50985.2,14328.1
Z" /> 
<path style="fill:#008400; fill-opacity:1.0; 
stroke:#008400; stroke-width:0; stroke-opacity:1; 
stroke-linecap:round; stroke-linejoin:round;fill-rule:evenodd;"
d="M 50994.8,13541.2
51004.4,13542.6
51013.7,13545
51022.8,13548.2
51031.6,13552.4
51039.9,13557.3
51047.6,13563.1
51054.8,13569.6
51061.3,13576.7
51067,13584.5
51072,13592.8
51076.1,13601.5
51079.4,13610.6
51081.7,13620
51083.1,13629.5
51083.6,13639.2
51083.6,13914.8
51083.1,13924.4
51081.7,13934
51079.4,13943.3
51076.1,13952.4
51072,13961.2
51067,13969.4
51061.3,13977.2
51054.8,13984.4
51047.6,13990.8
51039.9,13996.6
51031.6,14001.6
51022.8,14005.7
51013.7,14009
51004.4,14011.3
50994.8,14012.7
50985.2,14013.2
50630.8,14013.2
50621.2,14012.7
50611.6,14011.3
50602.3,14009
50593.2,14005.7
50584.4,14001.6
50576.2,13996.6
50568.4,13990.8
50561.2,13984.4
50554.8,13977.2
50549,13969.4
50544,13961.2
50539.9,13952.4
50536.7,13943.3
50534.3,13934
50532.9,13924.4
50532.4,13914.8
50532.4,13639.2
50532.9,13629.5
50534.3,13620
50536.7,13610.6
50539.9,13601.5
50544,13592.8
50549,13584.5
50554.8,13576.7
50561.2,13569.6
50568.4,13563.1
50576.2,13557.3
50584.4,13552.4
50593.2,13548.2
50602.3,13545
50611.6,13542.6
50621.2,13541.2
50630.8,13540.7
50985.2,13540.7
Z" /> 
</g>
<g >
</g>
<g >
</g>
<g style="fill:#848400; fill-opacity:1.0; 
stroke:#848400; stroke-width:0; stroke-opacity:1; 
stroke-linecap:round; stroke-linejoin:round;">
<circle cx="54586" cy="20370.7" r="314.961" /> 
</g>
<g style="fill:#848400; fill-opacity:1.0; 
stroke:#848400; stroke-width:39.3701; stroke-opacity:1; 
stroke-linecap:round; stroke-linejoin:round;">
</g>
<g style="fill:#848400; fill-opacity:1.0; 
stroke:#848400; stroke-width:0; stroke-opacity:1; 
stroke-linecap:round; stroke-linejoin:round;">
<path style="fill:#848400; fill-opacity:1.0; 
stroke:#848400; stroke-width:0; stroke-opacity:1; 
stroke-linecap:round; stroke-linejoin:round;fill-rule:evenodd;"
d="M 52893,20685.6
52893,20055.7
53523,20055.7
53523,20685.6
Z" /> 
</g>
<g >
</g>
<g >
</g>
<g style="fill:#848400; fill-opacity:1.0; 
stroke:#848400; stroke-width:0; stroke-opacity:1; 
stroke-linecap:round; stroke-linejoin:round;">
<circle cx="47530.8" cy="15970.7" r="354.331" /> 
<circle cx="48200.1" cy="17427.4" r="354.331" /> 
<circle cx="48869.4" cy="15970.7" r="354.331" /> 
<circle cx="49538.7" cy="17427.4" r="354.331" /> 
<path style="fill:#848400; fill-opacity:1.0; 
stroke:#848400; stroke-width:0; stroke-opacity:1; 
stroke-linecap:round; stroke-linejoin:round;fill-rule:evenodd;"
d="M 50562.3,15616.3
50562.3,16325
49853.7,16325
49853.7,15616.3
Z" /> 
</g>
<g >
</g>
<g style="fill:#848400; fill-opacity:1.0; 
stroke:#848400; stroke-width:0; stroke-opacity:1; 
stroke-linecap:round; stroke-linejoin:round;">
<circle cx="46430.1" cy="10770.7" r="314.961" /> 
</g>
<g style="fill:#848400; fill-opacity:1.0; 
stroke:#848400; stroke-width:39.3701; stroke-opacity:1; 
stroke-linecap:round; stroke-linejoin:round;">
</g>
<g style="fill:#848400; fill-opacity:1.0; 
stroke:#848400; stroke-width:0; stroke-opacity:1; 
stroke-linecap:round; stroke-linejoin:round;">
<path style="fill:#848400; fill-opacity:1.0; 
stroke:#848400; stroke-width:0; stroke-opacity:1; 
stroke-linecap:round; stroke-linejoin:round;fill-rule:evenodd;"
d="M 48123,10455.7
48123,11085.6
47493,11085.6
47493,10455.7
Z" /> 
</g>
<g >
</g>
<g style="fill:#848400; fill-opacity:1.0; 
stroke:#848400; stroke-width:0; stroke-opacity:1; 
stroke-linecap:round; stroke-linejoin:round;">
<circle cx="50808" cy="5617.91" r="472.441" /> 
</g>
<g style="fill:#848400; fill-opacity:1.0; 
stroke:#848400; stroke-width:39.3701; stroke-opacity:1; 
stroke-linecap:round; stroke-linejoin:round;">
</g>
<g style="fill:#848400; fill-opacity:1.0; 
stroke:#848400; stroke-width:0; stroke-opacity:1; 
stroke-linecap:round; stroke-linejoin:round;">
<path style="fill:#848400; fill-opacity:1.0; 
stroke:#848400; stroke-width:0; stroke-opacity:1; 
stroke-linecap:round; stroke-linejoin:round;fill-rule:evenodd;"
d="M 51280.4,9043.11
50335.6,9043.11
50335.6,8098.23
51280.4,8098.23
Z" /> 
</g>
<g >
</g>
<g style="fill:#848400; fill-opacity:1.0; 
stroke:#848400; stroke-width:0; stroke-opacity:1; 
stroke-linecap:round; stroke-linejoin:round;">
<circle cx="43808" cy="4217.91" r="472.441" /> 
</g>
<g style="fill:#848400; fill-opacity:1.0; 
stroke:#848400; stroke-width:39.3701; stroke-opacity:1; 
stroke-linecap:round; stroke-linejoin:round;">
</g>
<g style="fill:#848400; fill-opacity:1.0; 
stroke:#848400; stroke-width:0; stroke-opacity:1; 
stroke-linecap:round; stroke-linejoin:round;">
<path style="fill:#848400; fill-opacity:1.0; 
stroke:#848400; stroke-width:0; stroke-opacity:1; 
stroke-linecap:round; stroke-linejoin:round;fill-rule:evenodd;"
d="M 44280.4,7643.11
43335.6,7643.11
43335.6,6698.23
44280.4,6698.23
Z" /> 
</g>
<g >
</g>
<g style="fill:#848400; fill-opacity:1.0; 
stroke:#848400; stroke-width:0; stroke-opacity:1; 
stroke-linecap:round; stroke-linejoin:round;">
<circle cx="8608.01" cy="7365.16" r="472.441" /> 
</g>
<g style="fill:#848400; fill-opacity:1.0; 
stroke:#848400; stroke-width:39.3701; stroke-opacity:1; 
stroke-linecap:round; stroke-linejoin:round;">
</g>
<g style="fill:#848400; fill-opacity:1.0; 
stroke:#848400; stroke-width:0; stroke-opacity:1; 
stroke-linecap:round; stroke-linejoin:round;">
<circle cx="8608.01" cy="13270.7" r="472.441" /> 
</g>
<g style="fill:#848400; fill-opacity:1.0; 
stroke:#848400; stroke-width:39.3701; stroke-opacity:1; 
stroke-linecap:round; stroke-linejoin:round;">
</g>
<g >
</g>
<g style="fill:#848400; fill-opacity:1.0; 
stroke:#848400; stroke-width:39.3701; stroke-opacity:1; 
stroke-linecap:round; stroke-linejoin:round;">
</g>
<g style="fill:#848400; fill-opacity:1.0; 
stroke:#848400; stroke-width:0; stroke-opacity:1; 
stroke-linecap:round; stroke-linejoin:round;">
<path style="fill:#848400; fill-opacity:1.0; 
stroke:#848400; stroke-width:0; stroke-opacity:1; 
stroke-linecap:round; stroke-linejoin:round;fill-rule:evenodd;"
d="M 12542.7,24262.8
11873.4,24262.8
11873.4,23278.5
12542.7,23278.5
Z" /> 
</g>
<g style="fill:#848400; fill-opacity:1.0; 
stroke:#848400; stroke-width:669.291; stroke-opacity:1; 
stroke-linecap:round; stroke-linejoin:round;">
</g>
<g style="fill:#848400; fill-opacity:0.0; 
stroke:#848400; stroke-width:669.291; stroke-opacity:1; 
stroke-linecap:round; stroke-linejoin:round;">
<path d="M12196 21928
L12196 21613
" />
<path d="M12196 3928
L12196 3613
" />
<path d="M34208 2928
L34208 2613
" />
<path d="M34208 4928
L34208 4613
" />
<path d="M34208 22928
L34208 22613
" />
<path d="M34219 24928
L34219 24613
" />
<path d="M12208 5928
L12208 5613
" />
</g>
<g >
</g>
<g >
</g>
<g style="fill:#008400; fill-opacity:0.0; 
stroke:#008400; stroke-width:669.291; stroke-opacity:1; 
stroke-linecap:round; stroke-linejoin:round;">
</g>
<g style="fill:#008400; fill-opacity:0.0; 
stroke:#008400; stroke-width:393.701; stroke-opacity:1; 
stroke-linecap:round; stroke-linejoin:round;">
<path d="M8608 23370
L8208 23770
" />
<path d="M54585 19925
L53165 18504
" />
<path d="M54585 20370
L54585 19925
" />
<path d="M54208 20748
L54585 20370
" />
<path d="M54208 23770
L54208 20748
" />
<path d="M6621 23770
L6611 23761
" />
<path d="M8208 23770
L6621 23770
" />
<path d="M8008 3570
L8208 3770
" />
<path d="M6611 3570
L8008 3570
" />
<path d="M6808 19970
L6611 19774
" />
<path d="M8608 19970
L6808 19970
" />
<path d="M6611 23761
L6611 19774
" />
<path d="M28349 15029
L41266 15029
" />
<path d="M6611 19774
L6611 3570
" />
<path d="M47530 15970
L48869 15970
" />
<path d="M54408 11170
L53165 12413
" />
<path d="M53001 13776
L53165 13613
" />
<path d="M51608 13776
L53001 13776
" />
<path d="M53165 13613
L53165 18504
" />
<path d="M53165 12413
L53165 13613
" />
</g>
<g style="fill:#008400; fill-opacity:0.0; 
stroke:#008400; stroke-width:472.441; stroke-opacity:1; 
stroke-linecap:round; stroke-linejoin:round;">
<path d="M45811 18504
L53165 18504
" />
<path d="M45776 18539
L45811 18504
" />
<path d="M45808 15970
L45776 15939
" />
<path d="M47530 15970
L45808 15970
" />
<path d="M45776 15939
L45776 18539
" />
<path d="M45776 13770
L45776 15939
" />
<path d="M49408 4217
L51008 5817
" />
<path d="M44008 4217
L49408 4217
" />
<path d="M52160 5817
L54208 3770
" />
<path d="M51008 5817
L52160 5817
" />
<path d="M54208 10970
L54408 11170
" />
<path d="M54208 3770
L54208 10970
" />
<path d="M42525 13770
L41266 15029
" />
<path d="M45776 13770
L42525 13770
" />
<path d="M22652 15050
L22631 15029
" />
<path d="M41245 15050
L22652 15050
" />
<path d="M41266 15029
L41245 15050
" />
<path d="M22593 15050
L21969 14425
" />
<path d="M22652 15050
L22593 15050
" />
<path d="M6709 14425
L6650 14367
" />
<path d="M21969 14425
L6709 14425
" />
<path d="M37113 18065
L37958 18065
" />
<path d="M33208 21970
L37113 18065
" />
<path d="M33208 23758
L33208 21970
" />
<path d="M34219 24770
L33208 23758
" />
</g>
<g style="fill:#008400; fill-opacity:0.0; 
stroke:#008400; stroke-width:98.4252; stroke-opacity:1; 
stroke-linecap:round; stroke-linejoin:round;">
<path d="M48333 17427
L48200 17427
" />
<path d="M48200 17427
L48301 17427
" />
<path d="M51608 14564
L50808 14564
" />
<path d="M48200 17427
L48856 16770
" />
<path d="M51008 16770
L51608 16170
" />
<path d="M48856 16770
L51008 16770
" />
<path d="M51608 16170
L51608 14564
" />
</g>
<g style="fill:#008400; fill-opacity:0.0; 
stroke:#008400; stroke-width:472.441; stroke-opacity:1; 
stroke-linecap:round; stroke-linejoin:round;">
<path d="M55763 16525
L54408 15170
" />
<path d="M55763 24537
L55763 16525
" />
<path d="M54974 25325
L55763 24537
" />
<path d="M36363 25325
L54974 25325
" />
<path d="M34208 23170
L36363 25325
" />
<path d="M34208 22770
L34208 23170
" />
</g>
<g style="fill:#008400; fill-opacity:0.0; 
stroke:#008400; stroke-width:98.4252; stroke-opacity:1; 
stroke-linecap:round; stroke-linejoin:round;">
<path d="M50401 13370
L50808 13776
" />
<path d="M49808 13370
L50401 13370
" />
</g>
<g >
</g>
<g style="fill:#008400; fill-opacity:0.0; 
stroke:#008400; stroke-width:98.4252; stroke-opacity:1; 
stroke-linecap:round; stroke-linejoin:round;">
<g >
</g>
<g style="fill:#008400; fill-opacity:1.0; 
stroke:#008400; stroke-width:100; stroke-opacity:1; 
stroke-linecap:round; stroke-linejoin:round;">
<path style="fill:#008400; fill-opacity:1.0; 
stroke:#008400; stroke-width:100; stroke-opacity:1; 
stroke-linecap:round; stroke-linejoin:round;fill-rule:evenodd;"
d="M 34093.4,2037
33983.2,2070.43
33881.6,2124.72
33792.6,2197.78
33719.5,2286.81
33665.2,2388.37
33631.8,2498.58
33623.4,2584.47
33623.4,2956.87
33631.8,3042.76
33665.2,3152.97
33719.5,3254.53
33792.6,3343.56
33881.6,3416.62
33983.2,3470.91
34093.4,3504.34
34208,3515.62
34322.6,3504.34
34432.8,3470.91
34534.4,3416.62
34623.4,3343.56
34696.5,3254.53
34750.8,3152.97
34784.2,3042.76
34792.7,2956.87
34792.7,2805.3
53313.3,2805.3
54208,3699.96
55102.7,2805.3
54977.4,2626.63
54739.4,2498.52
54481,2419.29
54212.1,2391.99
53943.1,2417.68
53684.2,2495.36
53445.5,2622.04
53438.6,2626.63
53313.3,2805.3
34792.7,2805.3
34792.7,2584.47
34784.2,2498.58
34750.8,2388.37
34696.5,2286.81
34623.4,2197.78
34534.4,2124.72
34432.8,2070.43
34322.6,2037
34256.7,2030.51
55948.2,2030.51
55948.2,16023.2
55142,15217
55169.8,15077.2
55169.8,14927.1
55140.5,14780
55083.1,14641.3
54999.7,14516.5
54893.6,14410.4
54768.9,14327.1
54630.2,14269.6
54483,14240.4
54333,14240.4
54185.8,14269.6
54047.2,14327.1
53922.4,14410.4
53816.3,14516.5
53732.9,14641.3
53675.5,14780
53646.2,14927.1
53646.2,15077.2
53675.5,15224.4
53732.9,15363
53816.3,15487.8
53922.4,15593.9
54047.2,15677.3
54185.8,15734.7
54308.9,15759.2
54757.4,16207.6
53896.2,16207.6
53847.2,16212.5
53800.1,16226.8
53756.6,16250
53718.6,16281.2
53687.3,16319.3
53664.1,16362.7
53649.8,16409.8
53645,16458.9
53645,17482.5
53649.8,17531.5
53664.1,17578.6
53687.3,17622
53718.6,17660.1
53756.6,17691.4
53800.1,17714.6
53847.2,17728.9
53896.2,17733.7
54919.8,17733.7
54968.8,17728.9
55015.9,17714.6
55059.4,17691.4
55097.4,17660.1
55128.7,17622
55151.9,17578.6
55166.2,17531.5
55171,17482.5
55171,16621.3
55276.9,16727.2
55276.9,22948.6
55173.4,22876
54278.7,23770.7
54284.3,23776.2
54213.6,23846.9
54208,23841.4
53313.3,24736
53385.9,24839.6
36564.5,24839.6
35622.5,23897.6
37215.9,23897.6
37215.9,24043.8
37244.4,24187.1
37300.3,24322.2
37381.6,24443.7
37484.9,24547.1
37606.5,24628.3
37741.5,24684.3
37884.9,24712.8
38031.1,24712.8
38174.5,24684.3
38309.5,24628.3
38431.1,24547.1
38534.5,24443.7
38615.7,24322.2
38671.6,24187.1
38700.1,24043.8
38700.1,23897.6
38671.6,23754.2
38615.7,23619.1
38534.5,23497.6
38431.1,23394.2
38309.5,23313
38174.5,23257.1
38031.1,23228.5
37884.9,23228.5
37741.5,23257.1
37606.5,23313
37484.9,23394.2
37381.6,23497.6
37300.3,23619.1
37244.4,23754.2
37215.9,23897.6
35622.5,23897.6
34780.4,23055.4
34784.2,23042.8
34792.7,22956.9
34792.7,22584.5
34784.2,22498.6
34750.8,22388.4
34696.5,22286.8
34623.4,22197.8
34534.4,22124.7
34432.8,22070.4
34322.6,22037
34208,22025.7
34093.4,22037
33983.2,22070.4
33881.6,22124.7
33792.6,22197.8
33719.5,22286.8
33694.2,22334.2
33694.2,22172.1
36495.6,19370.7
40558,19370.7
40558,23770.7
40559,23780.4
40561.8,23789.8
40566.4,23798.4
40572.6,23806
40580.2,23812.2
40588.9,23816.9
40598.3,23819.7
40608,23820.7
45008,23820.7
45017.8,23819.7
45027.1,23816.9
45035.8,23812.2
45043.4,23806
45049.6,23798.4
45054.2,23789.8
45057,23780.4
45058,23770.7
45058,23766.5
52829.3,23766.5
52855,24035.6
52932.7,24294.5
53059.4,24533.2
53064,24540.1
53242.6,24665.3
54137.3,23770.7
53242.6,22876
53064,23001.3
52935.9,23239.3
52856.6,23497.7
52829.3,23766.5
45058,23766.5
45058,22805.3
53313.3,22805.3
54208,23700
55102.7,22805.3
54977.4,22626.6
54739.4,22498.5
54481,22419.3
54212.1,22392
53943.1,22417.7
53684.2,22495.4
53445.5,22622
53438.6,22626.6
53313.3,22805.3
45058,22805.3
45058,20654.3
46008,20654.3
46008,20807
46037.8,20956.7
46096.2,21097.8
46181,21224.7
46289,21332.7
46415.9,21417.5
46556.9,21475.9
46706.7,21505.7
46859.3,21505.7
47009.1,21475.9
47150.1,21417.5
47277,21332.7
47385,21224.7
47469.8,21097.8
47528.2,20956.7
47558,20807
47558,20654.3
50058,20654.3
50058,20807
50087.8,20956.7
50146.2,21097.8
50231,21224.7
50339,21332.7
50465.9,21417.5
50606.9,21475.9
50756.7,21505.7
50909.3,21505.7
51059.1,21475.9
51200.1,21417.5
51327,21332.7
51435,21224.7
51519.8,21097.8
51578.2,20956.7
51608,20807
51608,20654.3
51578.2,20504.6
51519.8,20363.6
51435,20236.6
51327,20128.7
51217.8,20055.7
52641.8,20055.7
52641.8,20685.6
52646.7,20734.6
52661,20781.8
52684.2,20825.2
52715.4,20863.3
52753.5,20894.5
52796.9,20917.7
52844,20932
52893,20936.8
53523,20936.8
53572,20932
53619.1,20917.7
53662.5,20894.5
53700.6,20863.3
53731.8,20825.2
53755.1,20781.8
53761.2,20761.5
54265.8,20761.5
54294,20857.5
54394.6,20905.1
54502.6,20932.2
54613.7,20937.7
54723.8,20921.4
54828.6,20883.9
54877.9,20857.5
54906.1,20761.5
54586,20441.4
54265.8,20761.5
53761.2,20761.5
53769.3,20734.6
53774.2,20685.6
53774.2,20398.4
54018.9,20398.4
54035.3,20508.5
54072.7,20613.3
54099.1,20662.6
54195.1,20690.8
54515.2,20370.7
54656.7,20370.7
54976.8,20690.8
55072.8,20662.6
55120.4,20562
55147.5,20454.1
55153,20342.9
55136.7,20232.8
55099.2,20128
55072.8,20078.7
54976.8,20050.6
54656.7,20370.7
54515.2,20370.7
54195.1,20050.6
54099.1,20078.7
54051.5,20179.3
54024.4,20287.3
54018.9,20398.4
53774.2,20398.4
53774.2,20055.7
53769.3,20006.7
53761.2,19979.8
54265.8,19979.8
54586,20300
54906.1,19979.8
54877.9,19883.8
54777.3,19836.2
54669.3,19809.1
54558.2,19803.7
54448.1,19820
54343.3,19857.4
54294,19883.8
54265.8,19979.8
53761.2,19979.8
53755.1,19959.6
53731.8,19916.1
53700.6,19878.1
53662.5,19846.8
53619.1,19823.6
53572,19809.3
53523,19804.5
52893,19804.5
52844,19809.3
52796.9,19823.6
52753.5,19846.8
52715.4,19878.1
52684.2,19916.1
52661,19959.6
52646.7,20006.7
52641.8,20055.7
51217.8,20055.7
51200.1,20043.9
51059.1,19985.5
50909.3,19955.7
50756.7,19955.7
50606.9,19985.5
50465.9,20043.9
50339,20128.7
50231,20236.6
50146.2,20363.6
50087.8,20504.6
50058,20654.3
47558,20654.3
47528.2,20504.6
47469.8,20363.6
47385,20236.6
47277,20128.7
47150.1,20043.9
47009.1,19985.5
46859.3,19955.7
46706.7,19955.7
46556.9,19985.5
46415.9,20043.9
46289,20128.7
46181,20236.6
46096.2,20363.6
46037.8,20504.6
46008,20654.3
45058,20654.3
45058,19370.7
45057,19360.9
45054.2,19351.5
45049.6,19342.9
45043.4,19335.3
45035.8,19329.1
45027.1,19324.5
45017.8,19321.6
45008,19320.7
40608,19320.7
40598.3,19321.6
40588.9,19324.5
40580.2,19329.1
40572.6,19335.3
40566.4,19342.9
40561.8,19351.5
40559,19360.9
40558,19370.7
36495.6,19370.7
37314.9,18551.4
37394.7,18551.4
37484.9,18641.6
37606.5,18722.8
37741.5,18778.8
37884.9,18807.3
38031.1,18807.3
38174.5,18778.8
38309.5,18722.8
38431.1,18641.6
38534.5,18538.2
38615.7,18416.7
38671.6,18281.6
38700.1,18138.3
38700.1,17992.1
38671.6,17848.7
38615.7,17713.6
38534.5,17592.1
38431.1,17488.7
38309.5,17407.5
38174.5,17351.6
38031.1,17323
37884.9,17323
37741.5,17351.6
37606.5,17407.5
37484.9,17488.7
37394.7,17578.9
37137.4,17578.9
37113.5,17576.6
37089.6,17578.9
37018.2,17586
36926.5,17613.8
36842.1,17658.9
36768,17719.7
36752.8,17738.2
32881.1,21610
32862.5,21625.2
32801.8,21699.2
32756.6,21783.7
32756.6,21783.7
32728.8,21875.4
32719.4,21970.7
32721.8,21994.6
32721.8,23735
32719.4,23758.9
32721.8,23782.7
32728.8,23854.2
32756.6,23945.8
32801.8,24030.3
32862.5,24104.3
32881.1,24119.6
33635.2,24873.6
33635.2,24956.9
33643.6,25042.8
33677.1,25153
33731.3,25254.5
33804.4,25343.6
33893.4,25416.6
33995,25470.9
34105.2,25504.3
34171.1,25510.8
14458,25510.8
14458,16706.1
42047.8,16706.1
42047.8,16848.4
42075.6,16988
42130.1,17119.5
42209.1,17237.8
42309.7,17338.4
42428.1,17417.5
42559.6,17471.9
42699.1,17499.7
42841.4,17499.7
42981,17471.9
43112.5,17417.5
43186.8,17367.8
47595.8,17367.8
47595.8,17486.9
47619,17603.6
47664.6,17713.6
47730.7,17812.6
47814.9,17896.8
47913.9,17962.9
48023.9,18008.5
48140.6,18031.7
48259.7,18031.7
48376.4,18008.5
48486.4,17962.9
48585.4,17896.8
48669.5,17812.6
48735.7,17713.6
48781.2,17603.6
48804.5,17486.9
48804.5,17367.8
48784.3,17266.4
48980.8,17069.9
49050.8,17069.9
49003.2,17141.1
48957.6,17251.1
48934.4,17367.8
48934.4,17486.9
48957.6,17603.6
49003.2,17713.6
49069.3,17812.6
49153.5,17896.8
49252.5,17962.9
49362.4,18008.5
49479.2,18031.7
49598.2,18031.7
49715,18008.5
49825,17962.9
49924,17896.8
50008.1,17812.6
50074.3,17713.6
50119.8,17603.6
50143,17486.9
50143,17367.8
50119.8,17251.1
50074.3,17141.1
50026.7,17069.9
50993.3,17069.9
51008,17071.3
51022.7,17069.9
51022.7,17069.9
51066.7,17065.6
51123.1,17048.4
51175,17020.7
51220.6,16983.3
51230,16971.8
51809.2,16392.6
51820.6,16383.3
51830,16371.9
51830,16371.9
51858,16337.7
51858,16337.7
51885.8,16285.7
51902.9,16229.3
51907.2,16185.4
51907.2,16185.4
51908.7,16170.7
51907.2,16156
51907.2,15028.8
51919,15025.2
51979.4,14992.9
52032.4,14949.4
52075.9,14896.4
52108.2,14836
52128.1,14770.4
52134.8,14702.2
52134.8,14426.6
52128.1,14358.4
52108.2,14292.8
52075.9,14232.3
52049.6,14200.3
52061.2,14190.8
52092.5,14152.8
52115.7,14109.3
52130,14062.2
52134.8,14013.2
52133.6,13889.5
52071.1,13827
51658,13827
51658,13834.8
51558,13834.8
51558,13827
51550.1,13827
51550.1,13727
51558,13727
51558,13353.2
51658,13353.2
51658,13727
52071.1,13727
52133.6,13664.5
52134.8,13540.7
52130,13491.7
52115.7,13444.6
52092.5,13401.2
52061.2,13363.1
52023.2,13331.9
51979.7,13308.7
51932.6,13294.4
51883.6,13289.5
51720.5,13290.7
51658,13353.2
51558,13353.2
51495.5,13290.7
51332.4,13289.5
51283.4,13294.4
51236.3,13308.7
51192.8,13331.9
51175.3,13346.3
51119,13316.2
51053.4,13296.3
50985.2,13289.5
50743.7,13289.5
50623.7,13169.5
50614.3,13158.1
50568.7,13120.7
50516.8,13092.9
50460.4,13075.8
50416.4,13071.5
50416.4,13071.5
50401.7,13070
50387,13071.5
50249.7,13071.5
50222.4,13030.6
50150.4,12958.6
53646.2,12958.6
53646.2,13108.7
53675.5,13255.9
53732.9,13394.5
53816.3,13519.3
53922.4,13625.4
54047.2,13708.8
54185.8,13766.2
54333,13795.5
54483,13795.5
54630.2,13766.2
54768.9,13708.8
54893.6,13625.4
54999.7,13519.3
55083.1,13394.5
55140.5,13255.9
55169.8,13108.7
55169.8,12958.6
55140.5,12811.4
55083.1,12672.8
54999.7,12548
54893.6,12441.9
54768.9,12358.6
54630.2,12301.1
54483,12271.9
54333,12271.9
54185.8,12301.1
54047.2,12358.6
53922.4,12441.9
53816.3,12548
53732.9,12672.8
53675.5,12811.4
53646.2,12958.6
50150.4,12958.6
50148.1,12956.3
50060.7,12897.9
49963.6,12857.7
49860.5,12837.2
49755.5,12837.2
49652.4,12857.7
49555.3,12897.9
49467.9,12956.3
49393.6,13030.6
49335.3,13118
49295,13215.1
49274.5,13318.1
49274.5,13423.2
49295,13526.3
49335.3,13623.4
49393.6,13710.7
49467.9,13785
49555.3,13843.4
49652.4,13883.6
49755.5,13904.1
49860.5,13904.1
49963.6,13883.6
50060.7,13843.4
50148.1,13785
50222.4,13710.7
50249.7,13669.9
50277.8,13669.9
50281.2,13673.3
50281.2,13914.8
50287.9,13983
50307.8,14048.6
50340.1,14109
50383.6,14162
50394.2,14170.7
50383.6,14179.3
50340.1,14232.3
50307.8,14292.8
50287.9,14358.4
50281.2,14426.6
50281.2,14702.2
50287.9,14770.4
50307.8,14836
50340.1,14896.4
50383.6,14949.4
50436.6,14992.9
50497,15025.2
50562.6,15045.1
50630.8,15051.8
50985.2,15051.8
51053.4,15045.1
51119,15025.2
51179.4,14992.9
51208,14969.4
51236.6,14992.9
51297,15025.2
51308.8,15028.8
51308.8,16046.7
50884.1,16471.5
50765.6,16471.5
50771.2,16464.6
50794.4,16421.1
50808.7,16374
50813.5,16325
50813.5,15616.3
50808.7,15567.3
50794.4,15520.2
50771.2,15476.8
50740,15438.7
50701.9,15407.5
50658.5,15384.3
50611.3,15370
50562.3,15365.1
49853.7,15365.1
49804.7,15370
49757.5,15384.3
49714.1,15407.5
49676,15438.7
49644.8,15476.8
49621.6,15520.2
49607.3,15567.3
49602.5,15616.3
49602.5,16325
49607.3,16374
49621.6,16421.1
49644.8,16464.6
49650.5,16471.5
49204.1,16471.5
49226.7,16458.1
49315,16379
49386.1,16284.2
49437.3,16177.4
49456.4,16114.3
49408.9,16020.7
48919.4,16020.7
48919.4,16028.5
48819.4,16028.5
48819.4,16020.7
48329.9,16020.7
48282.4,16114.3
48301.6,16177.4
48352.8,16284.2
48423.9,16379
48512.1,16458.1
48614.1,16518.4
48669,16537.7
48644.2,16558.1
48634.9,16569.5
48361.1,16843.2
48259.7,16823
48140.6,16823
48023.9,16846.3
47913.9,16891.8
47814.9,16957.9
47730.7,17042.1
47664.6,17141.1
47619,17251.1
47595.8,17367.8
43186.8,17367.8
43230.8,17338.4
43331.4,17237.8
43410.5,17119.5
43465,16988
43492.7,16848.4
43492.7,16706.1
43465,16566.5
43410.5,16435.1
43331.4,16316.7
43230.8,16216.1
43112.5,16137
43057.5,16114.3
46943.8,16114.3
46963,16177.4
47014.2,16284.2
47085.3,16379
47173.5,16458.1
47275.5,16518.4
47387.2,16557.7
47480.8,16510.4
47480.8,16020.7
47580.8,16020.7
47580.8,16510.4
47674.4,16557.7
47786.2,16518.4
47888.2,16458.1
47976.4,16379
48047.5,16284.2
48098.7,16177.4
48117.9,16114.3
48070.4,16020.7
47580.8,16020.7
47480.8,16020.7
46991.3,16020.7
46943.8,16114.3
43057.5,16114.3
42981,16082.6
42841.4,16054.8
42699.1,16054.8
42559.6,16082.6
42428.1,16137
42309.7,16216.1
42209.1,16316.7
42130.1,16435.1
42075.6,16566.5
42047.8,16706.1
14458,16706.1
14458,15827.1
46943.8,15827.1
46991.3,15920.7
47480.8,15920.7
47480.8,15430.9
47580.8,15430.9
47580.8,15920.7
48070.4,15920.7
48117.9,15827.1
48282.4,15827.1
48329.9,15920.7
48819.4,15920.7
48819.4,15430.9
48919.4,15430.9
48919.4,15920.7
49408.9,15920.7
49456.4,15827.1
49437.3,15763.9
49386.1,15657.1
49315,15562.4
49226.7,15483.3
49124.8,15422.9
49013,15383.6
48919.4,15430.9
48819.4,15430.9
48725.8,15383.6
48614.1,15422.9
48512.1,15483.3
48423.9,15562.4
48352.8,15657.1
48301.6,15763.9
48282.4,15827.1
48117.9,15827.1
48098.7,15763.9
48047.5,15657.1
47976.4,15562.4
47888.2,15483.3
47786.2,15422.9
47674.4,15383.6
47580.8,15430.9
47480.8,15430.9
47387.2,15383.6
47275.5,15422.9
47173.5,15483.3
47085.3,15562.4
47014.2,15657.1
46963,15763.9
46943.8,15827.1
14458,15827.1
14458,13662.7
22111.5,13662.7
22111.5,13878.7
22153.7,14090.5
22236.3,14290
22356.3,14469.6
22509.1,14622.3
22688.6,14742.3
22888.2,14825
23100,14867.1
23316,14867.1
23527.8,14825
23727.4,14742.3
23907,14622.3
24059.7,14469.6
24179.7,14290
24262.3,14090.5
24304.5,13878.7
24304.5,13770.7
38788.7,13770.7
38793.5,13819.7
38807.8,13866.8
38831,13910.2
38862.2,13948.3
39530.4,14616.4
39568.4,14647.7
39611.9,14670.9
39659,14685.2
39708,14690
39757,14685.2
39804.1,14670.9
39847.6,14647.7
39885.6,14616.4
40553.8,13948.3
40566,13933.3
45069.4,13933.3
45114.7,14068.2
45185.5,14191.7
45279,14299
45391.6,14386
45519.1,14449.3
45614.2,14478.1
45726.9,14432.2
45726.9,13820.7
45826.9,13820.7
45826.9,14432.2
45939.6,14478.1
46074.4,14432.8
46197.9,14362
46305.2,14268.5
46392.2,14155.9
46455.5,14028.5
46484.3,13933.3
46438.4,13820.7
45826.9,13820.7
45726.9,13820.7
45115.3,13820.7
45069.4,13933.3
40566,13933.3
40585,13910.2
40608.2,13866.8
40622.5,13819.7
40627.3,13770.7
40622.5,13721.7
40608.2,13674.5
40585,13631.1
40566,13608
45069.4,13608
45115.3,13720.7
45726.9,13720.7
45726.9,13109.1
45826.9,13109.1
45826.9,13720.7
46438.4,13720.7
46484.3,13608
46439,13473.1
46368.2,13349.6
46274.7,13242.4
46162.1,13155.4
46034.7,13092
45939.6,13063.2
45826.9,13109.1
45726.9,13109.1
45614.2,13063.2
45479.3,13108.5
45355.8,13179.3
45248.6,13272.8
45161.6,13385.4
45098.3,13512.9
45069.4,13608
40566,13608
40553.8,13593
39885.6,12924.9
39847.6,12893.7
39804.1,12870.4
39757,12856.2
39708,12851.3
39659,12856.2
39611.9,12870.4
39568.4,12893.7
39530.4,12924.9
38862.2,13593
38831,13631.1
38807.8,13674.5
38793.5,13721.7
38788.7,13770.7
24304.5,13770.7
24304.5,13662.7
24262.3,13450.8
24179.7,13251.3
24059.7,13071.7
23907,12919
23727.4,12799
23527.8,12716.3
23316,12674.2
23100,12674.2
22888.2,12716.3
22688.6,12799
22509.1,12919
22356.3,13071.7
22236.3,13251.3
22153.7,13450.8
22111.5,13662.7
14458,13662.7
14458,12318.1
50274.5,12318.1
50274.5,12423.2
50295,12526.3
50335.3,12623.4
50393.6,12710.7
50467.9,12785
50555.3,12843.4
50652.4,12883.6
50755.5,12904.1
50860.5,12904.1
50963.6,12883.6
51060.7,12843.4
51148.1,12785
51222.4,12710.7
51280.8,12623.4
51321,12526.3
51341.5,12423.2
51341.5,12318.1
51321,12215.1
51280.8,12118
51222.4,12030.6
51148.1,11956.3
51060.7,11897.9
50963.6,11857.7
50860.5,11837.2
50755.5,11837.2
50652.4,11857.7
50555.3,11897.9
50467.9,11956.3
50393.6,12030.6
50335.3,12118
50295,12215.1
50274.5,12318.1
14458,12318.1
14458,10665.1
42020,10665.1
42020,10807.4
42047.8,10947
42102.2,11078.4
42181.3,11196.8
42281.9,11297.4
42400.2,11376.5
42531.7,11430.9
42671.3,11458.7
42813.6,11458.7
42953.2,11430.9
43084.6,11376.5
43203,11297.4
43303.6,11196.8
43327.2,11161.5
46109.9,11161.5
46138.1,11257.5
46238.7,11305.1
46346.7,11332.2
46457.8,11337.7
46567.9,11321.4
46672.7,11283.9
46722,11257.5
46750.2,11161.5
46430.1,10841.4
46109.9,11161.5
43327.2,11161.5
43382.7,11078.4
43437.1,10947
43464.9,10807.4
43464.9,10798.4
45863,10798.4
45879.3,10908.5
45916.8,11013.3
45943.2,11062.6
46039.2,11090.8
46359.3,10770.7
46500.8,10770.7
46820.9,11090.8
46916.9,11062.6
46964.5,10962
46991.6,10854.1
46997.1,10742.9
46980.8,10632.8
46943.3,10528
46916.9,10478.7
46838.5,10455.7
47241.8,10455.7
47241.8,11085.6
47246.7,11134.6
47261,11181.8
47284.2,11225.2
47315.4,11263.3
47353.5,11294.5
47396.9,11317.7
47444,11332
47493,11336.8
48123,11336.8
48172,11332
48217.7,11318.1
49274.5,11318.1
49274.5,11423.2
49295,11526.3
49335.3,11623.4
49393.6,11710.7
49467.9,11785
49555.3,11843.4
49652.4,11883.6
49755.5,11904.1
49860.5,11904.1
49963.6,11883.6
50060.7,11843.4
50148.1,11785
50222.4,11710.7
50280.8,11623.4
50291.9,11596.3
53947.5,11596.3
53999.5,11712.5
54133.6,11779.8
54278.3,11819.6
54428,11830.4
54576.9,11811.8
54719.3,11764.5
54816.5,11712.5
54868.5,11596.3
54408,11135.9
53947.5,11596.3
50291.9,11596.3
50321,11526.3
50341.5,11423.2
50341.5,11318.1
50321,11215.1
50280.8,11118
50258.8,11085.1
53642.8,11085.1
53661.4,11234
53708.7,11376.5
53760.6,11473.7
53876.8,11525.6
54337.3,11065.2
54478.7,11065.2
54939.2,11525.6
55055.4,11473.7
55122.6,11339.5
55162.4,11194.9
55173.2,11045.2
55154.6,10896.3
55107.3,10753.9
55055.4,10656.6
54939.2,10604.7
54478.7,11065.2
54337.3,11065.2
53876.8,10604.7
53760.6,10656.6
53693.4,10790.8
53653.6,10935.5
53642.8,11085.1
50258.8,11085.1
50222.4,11030.6
50148.1,10956.3
50060.7,10897.9
49963.6,10857.7
49860.5,10837.2
49755.5,10837.2
49652.4,10857.7
49555.3,10897.9
49467.9,10956.3
49393.6,11030.6
49335.3,11118
49295,11215.1
49274.5,11318.1
48217.7,11318.1
48219.1,11317.7
48262.5,11294.5
48300.6,11263.3
48331.8,11225.2
48355.1,11181.8
48369.3,11134.6
48374.2,11085.6
48374.2,10534
53947.5,10534
54408,10994.4
54868.5,10534
54816.5,10417.8
54682.4,10350.5
54537.7,10310.7
54388,10299.9
54239.1,10318.5
54096.7,10365.8
53999.5,10417.8
53947.5,10534
48374.2,10534
48374.2,10455.7
48369.3,10406.7
48355.1,10359.6
48331.8,10316.1
48300.6,10278.1
48262.5,10246.8
48219.1,10223.6
48172,10209.3
48123,10204.5
47493,10204.5
47444,10209.3
47396.9,10223.6
47353.5,10246.8
47315.4,10278.1
47284.2,10316.1
47261,10359.6
47246.7,10406.7
47241.8,10455.7
46838.5,10455.7
46820.9,10450.6
46500.8,10770.7
46359.3,10770.7
46039.2,10450.6
45943.2,10478.7
45895.6,10579.3
45868.5,10687.3
45863,10798.4
43464.9,10798.4
43464.9,10665.1
43437.1,10525.5
43382.7,10394
43373.2,10379.8
46109.9,10379.8
46430.1,10700
46750.2,10379.8
46722,10283.8
46621.4,10236.2
46513.4,10209.1
46402.3,10203.7
46292.2,10220
46187.4,10257.4
46138.1,10283.8
46109.9,10379.8
43373.2,10379.8
43303.6,10275.7
43203,10175.1
43084.6,10096
42953.2,10041.6
42813.6,10013.8
42671.3,10013.8
42531.7,10041.6
42400.2,10096
42281.9,10175.1
42181.3,10275.7
42102.2,10394
42047.8,10525.5
42020,10665.1
14458,10665.1
14458,9447.58
37265.9,9447.58
37265.9,9593.76
37294.4,9737.14
37350.3,9872.2
37431.6,9993.75
37534.9,10097.1
37656.5,10178.3
37791.5,10234.3
37934.9,10262.8
38081.1,10262.8
38224.5,10234.3
38359.5,10178.3
38481.1,10097.1
38584.5,9993.75
38665.7,9872.2
38721.6,9737.14
38750.1,9593.76
38750.1,9447.58
38721.6,9304.2
38665.7,9169.14
38584.5,9047.59
38481.1,8944.22
38359.5,8863.01
38224.5,8807.06
38081.1,8778.54
37934.9,8778.54
37791.5,8807.06
37656.5,8863.01
37534.9,8944.22
37431.6,9047.59
37350.3,9169.14
37294.4,9304.2
37265.9,9447.58
14458,9447.58
14458,8098.23
50084.4,8098.23
50084.4,9043.11
50089.2,9092.12
50103.5,9139.24
50126.7,9182.67
50157.9,9220.74
50196,9251.98
50239.4,9275.2
50286.6,9289.49
50335.6,9294.32
51280.4,9294.32
51329.5,9289.49
51376.6,9275.2
51420,9251.98
51458.1,9220.74
51489.3,9182.67
51512.5,9139.24
51526.8,9092.12
51531.7,9043.11
51531.7,8098.23
51526.8,8049.22
51512.5,8002.09
51489.3,7958.66
51458.1,7920.6
51420,7889.36
51376.6,7866.14
51329.5,7851.85
51280.4,7847.02
50335.6,7847.02
50286.6,7851.85
50239.4,7866.14
50196,7889.36
50157.9,7920.6
50126.7,7958.66
50103.5,8002.09
50089.2,8049.22
50084.4,8098.23
14458,8098.23
14458,6698.23
43084.4,6698.23
43084.4,7643.11
43089.2,7692.12
43103.5,7739.24
43126.7,7782.67
43157.9,7820.74
43196,7851.98
43239.4,7875.2
43286.6,7889.49
43335.6,7894.32
44280.4,7894.32
44329.5,7889.49
44376.6,7875.2
44420,7851.98
44458.1,7820.74
44489.3,7782.67
44512.5,7739.24
44526.8,7692.12
44531.7,7643.11
44531.7,6698.23
44526.8,6649.22
44512.5,6602.09
44489.3,6558.66
44458.1,6520.6
44420,6489.36
44376.6,6466.14
44329.5,6451.85
44280.4,6447.02
43335.6,6447.02
43286.6,6451.85
43239.4,6466.14
43196,6489.36
43157.9,6520.6
43126.7,6558.66
43103.5,6602.09
43089.2,6649.22
43084.4,6698.23
14458,6698.23
14458,6121.06
50375.6,6121.06
50422.8,6233.2
50550.2,6296.54
50687.6,6333.79
50829.5,6343.53
50970.7,6325.39
51105.6,6280.06
51193.2,6233.2
51240.4,6121.06
50808,5688.62
50375.6,6121.06
14458,6121.06
14458,5639.44
50082.4,5639.44
50100.5,5780.59
50145.9,5915.49
50192.7,6003.14
50304.9,6050.34
50737.3,5617.91
50878.7,5617.91
51311.1,6050.34
51423.3,6003.14
51486.6,5875.7
51523.9,5738.36
51533.6,5596.38
51515.5,5455.24
51470.1,5320.34
51423.3,5232.68
51311.1,5185.48
50878.7,5617.91
50737.3,5617.91
50304.9,5185.48
50192.7,5232.68
50129.4,5360.12
50092.1,5497.47
50082.4,5639.44
14458,5639.44
14458,4584.47
33623.4,4584.47
33623.4,4956.87
33631.8,5042.76
33665.2,5152.97
33719.5,5254.53
33792.6,5343.56
33881.6,5416.62
33983.2,5470.91
34093.4,5504.34
34208,5515.62
34322.6,5504.34
34432.8,5470.91
34534.4,5416.62
34623.4,5343.56
34696.5,5254.53
34750.8,5152.97
34762.3,5114.77
50375.6,5114.77
50808,5547.2
51240.4,5114.77
51193.2,5002.62
51065.8,4939.29
50928.5,4902.04
50786.5,4892.3
50645.3,4910.44
50510.4,4955.77
50422.8,5002.62
50375.6,5114.77
34762.3,5114.77
34784.2,5042.76
34792.7,4956.87
34792.7,4721.06
43375.6,4721.06
43422.8,4833.2
43550.2,4896.54
43687.6,4933.79
43829.5,4943.53
43970.7,4925.39
44105.6,4880.06
44193.2,4833.2
44234.1,4736.04
53313.3,4736.04
53438.6,4914.7
53676.6,5042.82
53935,5122.05
54203.9,5149.35
54472.9,5123.66
54731.8,5045.98
54970.5,4919.29
54977.4,4914.7
55102.7,4736.04
54208,3841.38
53313.3,4736.04
44234.1,4736.04
44240.4,4721.06
43808,4288.62
43375.6,4721.06
34792.7,4721.06
34792.7,4584.47
34784.2,4498.58
34750.8,4388.37
34696.5,4286.81
34623.4,4197.78
34534.4,4124.72
34432.8,4070.43
34322.6,4037
34208,4025.71
34093.4,4037
33983.2,4070.43
33881.6,4124.72
33792.6,4197.78
33719.5,4286.81
33665.2,4388.37
33631.8,4498.58
33623.4,4584.47
14458,4584.47
14458,3542.06
37265.9,3542.06
37265.9,3688.25
37294.4,3831.63
37350.3,3966.69
37431.6,4088.24
37534.9,4191.6
37656.5,4272.82
37791.5,4328.76
37934.9,4357.28
38081.1,4357.28
38224.5,4328.76
38359.5,4272.82
38409.5,4239.44
43082.4,4239.44
43100.5,4380.59
43145.9,4515.49
43192.7,4603.14
43304.9,4650.34
43737.3,4217.91
43878.7,4217.91
44311.1,4650.34
44423.3,4603.14
44486.6,4475.7
44523.9,4338.36
44533.6,4196.38
44515.5,4055.24
44470.1,3920.34
44423.3,3832.68
44311.1,3785.48
43878.7,4217.91
43737.3,4217.91
43304.9,3785.48
43192.7,3832.68
43129.4,3960.12
43092.1,4097.47
43082.4,4239.44
38409.5,4239.44
38481.1,4191.6
38584.5,4088.24
38665.7,3966.69
38721.6,3831.63
38744.9,3714.77
43375.6,3714.77
43808,4147.2
44188.7,3766.54
52829.3,3766.54
52855,4035.59
52932.7,4294.45
53059.4,4533.19
53064,4540.06
53242.6,4665.33
54137.3,3770.67
54278.7,3770.67
55173.4,4665.33
55352,4540.06
55480.2,4302.08
55559.4,4043.69
55586.7,3774.8
55561,3505.75
55483.3,3246.89
55356.6,3008.15
55352,3001.28
55173.4,2876.01
54278.7,3770.67
54137.3,3770.67
53242.6,2876.01
53064,3001.28
52935.9,3239.26
52856.6,3497.65
52829.3,3766.54
44188.7,3766.54
44240.4,3714.77
44193.2,3602.62
44065.8,3539.29
43928.5,3502.04
43786.5,3492.3
43645.3,3510.44
43510.4,3555.77
43422.8,3602.62
43375.6,3714.77
38744.9,3714.77
38750.1,3688.25
38750.1,3542.06
38721.6,3398.69
38665.7,3263.63
38584.5,3142.08
38481.1,3038.71
38359.5,2957.49
38224.5,2901.55
38081.1,2873.03
37934.9,2873.03
37791.5,2901.55
37656.5,2957.49
37534.9,3038.71
37431.6,3142.08
37350.3,3263.63
37294.4,3398.69
37265.9,3542.06
14458,3542.06
14458,2030.51
34159.3,2030.51
Z" /> 
</g>
</g>
</g>
<g style="fill:#FFFFFF; fill-opacity:1.0; 
stroke:#FFFFFF; stroke-width:100; stroke-opacity:1; 
stroke-linecap:round; stroke-linejoin:round;">
</g>
<g style="fill:#FFFFFF; fill-opacity:1.0; 
stroke:#FFFFFF; stroke-width:0; stroke-opacity:1; 
stroke-linecap:round; stroke-linejoin:round;">
<circle cx="54408" cy="11065.2" r="255.906" /> 
</g>
<g style="fill:#FFFFFF; fill-opacity:1.0; 
stroke:#FFFFFF; stroke-width:39.3701; stroke-opacity:1; 
stroke-linecap:round; stroke-linejoin:round;">
</g>
<g style="fill:#FFFFFF; fill-opacity:1.0; 
stroke:#FFFFFF; stroke-width:0; stroke-opacity:1; 
stroke-linecap:round; stroke-linejoin:round;">
<circle cx="54408" cy="13033.7" r="255.906" /> 
</g>
<g style="fill:#FFFFFF; fill-opacity:1.0; 
stroke:#FFFFFF; stroke-width:39.3701; stroke-opacity:1; 
stroke-linecap:round; stroke-linejoin:round;">
</g>
<g style="fill:#FFFFFF; fill-opacity:1.0; 
stroke:#FFFFFF; stroke-width:0; stroke-opacity:1; 
stroke-linecap:round; stroke-linejoin:round;">
<circle cx="54408" cy="15002.2" r="255.906" /> 
</g>
<g style="fill:#FFFFFF; fill-opacity:1.0; 
stroke:#FFFFFF; stroke-width:39.3701; stroke-opacity:1; 
stroke-linecap:round; stroke-linejoin:round;">
</g>
<g style="fill:#FFFFFF; fill-opacity:1.0; 
stroke:#FFFFFF; stroke-width:0; stroke-opacity:1; 
stroke-linecap:round; stroke-linejoin:round;">
<circle cx="54408" cy="16970.7" r="255.906" /> 
</g>
<g style="fill:#FFFFFF; fill-opacity:1.0; 
stroke:#FFFFFF; stroke-width:39.3701; stroke-opacity:1; 
stroke-linecap:round; stroke-linejoin:round;">
</g>
<g style="fill:#FFFFFF; fill-opacity:1.0; 
stroke:#FFFFFF; stroke-width:0; stroke-opacity:1; 
stroke-linecap:round; stroke-linejoin:round;">
<circle cx="9008.01" cy="19907.7" r="255.906" /> 
</g>
<g style="fill:#FFFFFF; fill-opacity:1.0; 
stroke:#FFFFFF; stroke-width:39.3701; stroke-opacity:1; 
stroke-linecap:round; stroke-linejoin:round;">
</g>
<g style="fill:#FFFFFF; fill-opacity:1.0; 
stroke:#FFFFFF; stroke-width:0; stroke-opacity:1; 
stroke-linecap:round; stroke-linejoin:round;">
<circle cx="9008.01" cy="17939.2" r="255.906" /> 
</g>
<g style="fill:#FFFFFF; fill-opacity:1.0; 
stroke:#FFFFFF; stroke-width:39.3701; stroke-opacity:1; 
stroke-linecap:round; stroke-linejoin:round;">
</g>
<g style="fill:#FFFFFF; fill-opacity:1.0; 
stroke:#FFFFFF; stroke-width:0; stroke-opacity:1; 
stroke-linecap:round; stroke-linejoin:round;">
<circle cx="9008.01" cy="15970.7" r="255.906" /> 
</g>
<g style="fill:#FFFFFF; fill-opacity:1.0; 
stroke:#FFFFFF; stroke-width:39.3701; stroke-opacity:1; 
stroke-linecap:round; stroke-linejoin:round;">
</g>
<g style="fill:#FFFFFF; fill-opacity:1.0; 
stroke:#FFFFFF; stroke-width:0; stroke-opacity:1; 
stroke-linecap:round; stroke-linejoin:round;">
<circle cx="49808" cy="13370.7" r="157.48" /> 
</g>
<g style="fill:#FFFFFF; fill-opacity:1.0; 
stroke:#FFFFFF; stroke-width:39.3701; stroke-opacity:1; 
stroke-linecap:round; stroke-linejoin:round;">
</g>
<g style="fill:#FFFFFF; fill-opacity:1.0; 
stroke:#FFFFFF; stroke-width:0; stroke-opacity:1; 
stroke-linecap:round; stroke-linejoin:round;">
<circle cx="50808" cy="12370.7" r="157.48" /> 
</g>
<g style="fill:#FFFFFF; fill-opacity:1.0; 
stroke:#FFFFFF; stroke-width:39.3701; stroke-opacity:1; 
stroke-linecap:round; stroke-linejoin:round;">
</g>
<g style="fill:#FFFFFF; fill-opacity:1.0; 
stroke:#FFFFFF; stroke-width:0; stroke-opacity:1; 
stroke-linecap:round; stroke-linejoin:round;">
<circle cx="49808" cy="11370.7" r="157.48" /> 
</g>
<g style="fill:#FFFFFF; fill-opacity:1.0; 
stroke:#FFFFFF; stroke-width:39.3701; stroke-opacity:1; 
stroke-linecap:round; stroke-linejoin:round;">
</g>
<g style="fill:#FFFFFF; fill-opacity:1.0; 
stroke:#FFFFFF; stroke-width:0; stroke-opacity:1; 
stroke-linecap:round; stroke-linejoin:round;">
<circle cx="38008" cy="3615.16" r="334.646" /> 
</g>
<g style="fill:#FFFFFF; fill-opacity:1.0; 
stroke:#FFFFFF; stroke-width:39.3701; stroke-opacity:1; 
stroke-linecap:round; stroke-linejoin:round;">
</g>
<g style="fill:#FFFFFF; fill-opacity:1.0; 
stroke:#FFFFFF; stroke-width:0; stroke-opacity:1; 
stroke-linecap:round; stroke-linejoin:round;">
<circle cx="38008" cy="9520.67" r="334.646" /> 
</g>
<g style="fill:#FFFFFF; fill-opacity:1.0; 
stroke:#FFFFFF; stroke-width:39.3701; stroke-opacity:1; 
stroke-linecap:round; stroke-linejoin:round;">
</g>
<g style="fill:#FFFFFF; fill-opacity:1.0; 
stroke:#FFFFFF; stroke-width:0; stroke-opacity:1; 
stroke-linecap:round; stroke-linejoin:round;">
<circle cx="37958" cy="18065.2" r="334.646" /> 
</g>
<g style="fill:#FFFFFF; fill-opacity:1.0; 
stroke:#FFFFFF; stroke-width:39.3701; stroke-opacity:1; 
stroke-linecap:round; stroke-linejoin:round;">
</g>
<g style="fill:#FFFFFF; fill-opacity:1.0; 
stroke:#FFFFFF; stroke-width:0; stroke-opacity:1; 
stroke-linecap:round; stroke-linejoin:round;">
<circle cx="37958" cy="23970.7" r="334.646" /> 
</g>
<g style="fill:#FFFFFF; fill-opacity:1.0; 
stroke:#FFFFFF; stroke-width:39.3701; stroke-opacity:1; 
stroke-linecap:round; stroke-linejoin:round;">
</g>
<g style="fill:#FFFFFF; fill-opacity:1.0; 
stroke:#FFFFFF; stroke-width:0; stroke-opacity:1; 
stroke-linecap:round; stroke-linejoin:round;">
<circle cx="46783" cy="20730.7" r="525" /> 
</g>
<g style="fill:#FFFFFF; fill-opacity:1.0; 
stroke:#FFFFFF; stroke-width:39.3701; stroke-opacity:1; 
stroke-linecap:round; stroke-linejoin:round;">
</g>
<g style="fill:#FFFFFF; fill-opacity:1.0; 
stroke:#FFFFFF; stroke-width:0; stroke-opacity:1; 
stroke-linecap:round; stroke-linejoin:round;">
<circle cx="50833" cy="20730.7" r="525" /> 
</g>
<g style="fill:#FFFFFF; fill-opacity:1.0; 
stroke:#FFFFFF; stroke-width:39.3701; stroke-opacity:1; 
stroke-linecap:round; stroke-linejoin:round;">
</g>
<g style="fill:#FFFFFF; fill-opacity:1.0; 
stroke:#FFFFFF; stroke-width:0; stroke-opacity:1; 
stroke-linecap:round; stroke-linejoin:round;">
<circle cx="8208.01" cy="23770.7" r="629.921" /> 
</g>
<g style="fill:#FFFFFF; fill-opacity:1.0; 
stroke:#FFFFFF; stroke-width:39.3701; stroke-opacity:1; 
stroke-linecap:round; stroke-linejoin:round;">
</g>
<g style="fill:#FFFFFF; fill-opacity:1.0; 
stroke:#FFFFFF; stroke-width:0; stroke-opacity:1; 
stroke-linecap:round; stroke-linejoin:round;">
<circle cx="54208" cy="23770.7" r="629.921" /> 
</g>
<g style="fill:#FFFFFF; fill-opacity:1.0; 
stroke:#FFFFFF; stroke-width:39.3701; stroke-opacity:1; 
stroke-linecap:round; stroke-linejoin:round;">
</g>
<g style="fill:#FFFFFF; fill-opacity:1.0; 
stroke:#FFFFFF; stroke-width:0; stroke-opacity:1; 
stroke-linecap:round; stroke-linejoin:round;">
<circle cx="54208" cy="3770.67" r="629.921" /> 
</g>
<g style="fill:#FFFFFF; fill-opacity:1.0; 
stroke:#FFFFFF; stroke-width:39.3701; stroke-opacity:1; 
stroke-linecap:round; stroke-linejoin:round;">
</g>
<g style="fill:#FFFFFF; fill-opacity:1.0; 
stroke:#FFFFFF; stroke-width:0; stroke-opacity:1; 
stroke-linecap:round; stroke-linejoin:round;">
<circle cx="8208.01" cy="3770.67" r="629.921" /> 
</g>
<g style="fill:#FFFFFF; fill-opacity:1.0; 
stroke:#FFFFFF; stroke-width:39.3701; stroke-opacity:1; 
stroke-linecap:round; stroke-linejoin:round;">
</g>
<g style="fill:#FFFFFF; fill-opacity:1.0; 
stroke:#FFFFFF; stroke-width:0; stroke-opacity:1; 
stroke-linecap:round; stroke-linejoin:round;">
<circle cx="42770.3" cy="16777.3" r="236.22" /> 
</g>
<g style="fill:#FFFFFF; fill-opacity:1.0; 
stroke:#FFFFFF; stroke-width:39.3701; stroke-opacity:1; 
stroke-linecap:round; stroke-linejoin:round;">
</g>
<g style="fill:#FFFFFF; fill-opacity:1.0; 
stroke:#FFFFFF; stroke-width:0; stroke-opacity:1; 
stroke-linecap:round; stroke-linejoin:round;">
<circle cx="39708" cy="13770.7" r="236.22" /> 
</g>
<g style="fill:#FFFFFF; fill-opacity:1.0; 
stroke:#FFFFFF; stroke-width:39.3701; stroke-opacity:1; 
stroke-linecap:round; stroke-linejoin:round;">
</g>
<g style="fill:#FFFFFF; fill-opacity:1.0; 
stroke:#FFFFFF; stroke-width:0; stroke-opacity:1; 
stroke-linecap:round; stroke-linejoin:round;">
<circle cx="42742.4" cy="10736.2" r="236.22" /> 
</g>
<g style="fill:#FFFFFF; fill-opacity:1.0; 
stroke:#FFFFFF; stroke-width:39.3701; stroke-opacity:1; 
stroke-linecap:round; stroke-linejoin:round;">
</g>
<g style="fill:#FFFFFF; fill-opacity:1.0; 
stroke:#FFFFFF; stroke-width:0; stroke-opacity:1; 
stroke-linecap:round; stroke-linejoin:round;">
<circle cx="45776.9" cy="13770.7" r="236.22" /> 
</g>
<g style="fill:#FFFFFF; fill-opacity:1.0; 
stroke:#FFFFFF; stroke-width:39.3701; stroke-opacity:1; 
stroke-linecap:round; stroke-linejoin:round;">
</g>
<g style="fill:#FFFFFF; fill-opacity:1.0; 
stroke:#FFFFFF; stroke-width:0; stroke-opacity:1; 
stroke-linecap:round; stroke-linejoin:round;">
<circle cx="54586" cy="20370.7" r="157.48" /> 
</g>
<g style="fill:#FFFFFF; fill-opacity:1.0; 
stroke:#FFFFFF; stroke-width:39.3701; stroke-opacity:1; 
stroke-linecap:round; stroke-linejoin:round;">
</g>
<g style="fill:#FFFFFF; fill-opacity:1.0; 
stroke:#FFFFFF; stroke-width:0; stroke-opacity:1; 
stroke-linecap:round; stroke-linejoin:round;">
<circle cx="53208" cy="20370.7" r="157.48" /> 
</g>
<g style="fill:#FFFFFF; fill-opacity:1.0; 
stroke:#FFFFFF; stroke-width:39.3701; stroke-opacity:1; 
stroke-linecap:round; stroke-linejoin:round;">
</g>
<g style="fill:#FFFFFF; fill-opacity:1.0; 
stroke:#FFFFFF; stroke-width:0; stroke-opacity:1; 
stroke-linecap:round; stroke-linejoin:round;">
<circle cx="47530.8" cy="15970.7" r="216.535" /> 
</g>
<g style="fill:#FFFFFF; fill-opacity:1.0; 
stroke:#FFFFFF; stroke-width:39.3701; stroke-opacity:1; 
stroke-linecap:round; stroke-linejoin:round;">
</g>
<g style="fill:#FFFFFF; fill-opacity:1.0; 
stroke:#FFFFFF; stroke-width:0; stroke-opacity:1; 
stroke-linecap:round; stroke-linejoin:round;">
<circle cx="48200.1" cy="17427.4" r="216.535" /> 
</g>
<g style="fill:#FFFFFF; fill-opacity:1.0; 
stroke:#FFFFFF; stroke-width:39.3701; stroke-opacity:1; 
stroke-linecap:round; stroke-linejoin:round;">
</g>
<g style="fill:#FFFFFF; fill-opacity:1.0; 
stroke:#FFFFFF; stroke-width:0; stroke-opacity:1; 
stroke-linecap:round; stroke-linejoin:round;">
<circle cx="48869.4" cy="15970.7" r="216.535" /> 
</g>
<g style="fill:#FFFFFF; fill-opacity:1.0; 
stroke:#FFFFFF; stroke-width:39.3701; stroke-opacity:1; 
stroke-linecap:round; stroke-linejoin:round;">
</g>
<g style="fill:#FFFFFF; fill-opacity:1.0; 
stroke:#FFFFFF; stroke-width:0; stroke-opacity:1; 
stroke-linecap:round; stroke-linejoin:round;">
<circle cx="49538.7" cy="17427.4" r="216.535" /> 
</g>
<g style="fill:#FFFFFF; fill-opacity:1.0; 
stroke:#FFFFFF; stroke-width:39.3701; stroke-opacity:1; 
stroke-linecap:round; stroke-linejoin:round;">
</g>
<g style="fill:#FFFFFF; fill-opacity:1.0; 
stroke:#FFFFFF; stroke-width:0; stroke-opacity:1; 
stroke-linecap:round; stroke-linejoin:round;">
<circle cx="50208" cy="15970.7" r="216.535" /> 
</g>
<g style="fill:#FFFFFF; fill-opacity:1.0; 
stroke:#FFFFFF; stroke-width:39.3701; stroke-opacity:1; 
stroke-linecap:round; stroke-linejoin:round;">
</g>
<g style="fill:#FFFFFF; fill-opacity:1.0; 
stroke:#FFFFFF; stroke-width:0; stroke-opacity:1; 
stroke-linecap:round; stroke-linejoin:round;">
<circle cx="46430.1" cy="10770.7" r="157.48" /> 
</g>
<g style="fill:#FFFFFF; fill-opacity:1.0; 
stroke:#FFFFFF; stroke-width:39.3701; stroke-opacity:1; 
stroke-linecap:round; stroke-linejoin:round;">
</g>
<g style="fill:#FFFFFF; fill-opacity:1.0; 
stroke:#FFFFFF; stroke-width:0; stroke-opacity:1; 
stroke-linecap:round; stroke-linejoin:round;">
<circle cx="47808" cy="10770.7" r="157.48" /> 
</g>
<g style="fill:#FFFFFF; fill-opacity:1.0; 
stroke:#FFFFFF; stroke-width:39.3701; stroke-opacity:1; 
stroke-linecap:round; stroke-linejoin:round;">
</g>
<g style="fill:#FFFFFF; fill-opacity:1.0; 
stroke:#FFFFFF; stroke-width:0; stroke-opacity:1; 
stroke-linecap:round; stroke-linejoin:round;">
<circle cx="50808" cy="5617.91" r="236.22" /> 
</g>
<g style="fill:#FFFFFF; fill-opacity:1.0; 
stroke:#FFFFFF; stroke-width:39.3701; stroke-opacity:1; 
stroke-linecap:round; stroke-linejoin:round;">
</g>
<g style="fill:#FFFFFF; fill-opacity:1.0; 
stroke:#FFFFFF; stroke-width:0; stroke-opacity:1; 
stroke-linecap:round; stroke-linejoin:round;">
<circle cx="50808" cy="8570.67" r="236.22" /> 
</g>
<g style="fill:#FFFFFF; fill-opacity:1.0; 
stroke:#FFFFFF; stroke-width:39.3701; stroke-opacity:1; 
stroke-linecap:round; stroke-linejoin:round;">
</g>
<g style="fill:#FFFFFF; fill-opacity:1.0; 
stroke:#FFFFFF; stroke-width:0; stroke-opacity:1; 
stroke-linecap:round; stroke-linejoin:round;">
<circle cx="43808" cy="4217.91" r="236.22" /> 
</g>
<g style="fill:#FFFFFF; fill-opacity:1.0; 
stroke:#FFFFFF; stroke-width:39.3701; stroke-opacity:1; 
stroke-linecap:round; stroke-linejoin:round;">
</g>
<g style="fill:#FFFFFF; fill-opacity:1.0; 
stroke:#FFFFFF; stroke-width:0; stroke-opacity:1; 
stroke-linecap:round; stroke-linejoin:round;">
<circle cx="43808" cy="7170.67" r="236.22" /> 
</g>
<g style="fill:#FFFFFF; fill-opacity:1.0; 
stroke:#FFFFFF; stroke-width:39.3701; stroke-opacity:1; 
stroke-linecap:round; stroke-linejoin:round;">
</g>
<g style="fill:#FFFFFF; fill-opacity:1.0; 
stroke:#FFFFFF; stroke-width:0; stroke-opacity:1; 
stroke-linecap:round; stroke-linejoin:round;">
<circle cx="8608.01" cy="7365.16" r="236.22" /> 
</g>
<g style="fill:#FFFFFF; fill-opacity:1.0; 
stroke:#FFFFFF; stroke-width:39.3701; stroke-opacity:1; 
stroke-linecap:round; stroke-linejoin:round;">
</g>
<g style="fill:#FFFFFF; fill-opacity:1.0; 
stroke:#FFFFFF; stroke-width:0; stroke-opacity:1; 
stroke-linecap:round; stroke-linejoin:round;">
<circle cx="8608.01" cy="13270.7" r="236.22" /> 
</g>
<g style="fill:#FFFFFF; fill-opacity:1.0; 
stroke:#FFFFFF; stroke-width:39.3701; stroke-opacity:1; 
stroke-linecap:round; stroke-linejoin:round;">
</g>
<g style="fill:#FFFFFF; fill-opacity:1.0; 
stroke:#FFFFFF; stroke-width:0; stroke-opacity:1; 
stroke-linecap:round; stroke-linejoin:round;">
<circle cx="23208" cy="13770.7" r="846.456" /> 
</g>
<g style="fill:#FFFFFF; fill-opacity:1.0; 
stroke:#FFFFFF; stroke-width:39.3701; stroke-opacity:1; 
stroke-linecap:round; stroke-linejoin:round;">
</g>
<g style="fill:#FFFFFF; fill-opacity:1.0; 
stroke:#FFFFFF; stroke-width:314.961; stroke-opacity:1; 
stroke-linecap:round; stroke-linejoin:round;">
</g>
<g style="fill:#FFFFFF; fill-opacity:0.0; 
stroke:#FFFFFF; stroke-width:314.961; stroke-opacity:1; 
stroke-linecap:round; stroke-linejoin:round;">
<path d="M12208 23869
L12208 23672
" />
<path d="M12196 21869
L12196 21672
" />
<path d="M12196 3869
L12196 3672
" />
<path d="M34208 2869
L34208 2672
" />
<path d="M34208 4869
L34208 4672
" />
<path d="M34208 22869
L34208 22672
" />
<path d="M34219 24869
L34219 24672
" />
<path d="M12208 5869
L12208 5672
" />
</g>
<g style="fill:#000000; fill-opacity:0.0; 
stroke:#000000; stroke-width:314.961; stroke-opacity:1; 
stroke-linecap:round; stroke-linejoin:round;">
</g>
<g style="fill:#C2C200; fill-opacity:0.0; 
stroke:#C2C200; stroke-width:314.961; stroke-opacity:1; 
stroke-linecap:round; stroke-linejoin:round;">
</g>
<g style="fill:#C2C200; fill-opacity:0.0; 
stroke:#C2C200; stroke-width:19.685; stroke-opacity:1; 
stroke-linecap:round; stroke-linejoin:round;">
<path d="M6208 25770
L6208 1770
" />
<path d="M56208 25770
L6208 25770
" />
<path d="M56208 1770
L56208 25770
" />
<path d="M6208 1770
L56208 1770
" />
<g >
</g>
<g >
</g>
<g >
</g>
<g >
</g>
<g >
</g>
<g >
</g>
<g >
</g>
<g >
</g>
<g >
</g>
<g >
</g>
<g >
</g>
<g >
</g>
<g >
</g>
<g >
</g>
<g >
</g>
<g >
</g>
<g >
</g>
<g >
</g>
<g >
</g>
<g >
</g>
<g >
</g>
<g >
</g>
<g >
</g>
</g> 
</svg>
