<?xml version="1.0" standalone="no"?>
 <!DOCTYPE svg PUBLIC "-//W3C//DTD SVG 1.1//EN" 
 "http://www.w3.org/Graphics/SVG/1.1/DTD/svg11.dtd"> 
<svg
  xmlns:svg="http://www.w3.org/2000/svg"
  xmlns="http://www.w3.org/2000/svg"
  xmlns:xlink="http://www.w3.org/1999/xlink"
  version="1.1"
  width="15.128240cm" height="7.515860cm" viewBox="0 0 59560 29590">
<title>SVG Picture created as C64PowerSupply-F_Cu.svg date 2021/06/30 22:48:50 </title>
  <desc>Picture generated by PCBNEW </desc>
<g style="fill:#000000; fill-opacity:1;stroke:#000000; stroke-opacity:1;
stroke-linecap:round; stroke-linejoin:round;"
 transform="translate(0 0) scale(1 1)">
</g>
<g style="fill:#000000; fill-opacity:0.0; 
stroke:#000000; stroke-width:-0.000393701; stroke-opacity:1; 
stroke-linecap:round; stroke-linejoin:round;">
<g >
</g>
<g style="fill:#848400; fill-opacity:0.0; 
stroke:#848400; stroke-width:-0.000393701; stroke-opacity:1; 
stroke-linecap:round; stroke-linejoin:round;">
</g>
<g style="fill:#848400; fill-opacity:1.0; 
stroke:#848400; stroke-width:0; stroke-opacity:1; 
stroke-linecap:round; stroke-linejoin:round;">
<circle cx="54408" cy="11065.2" r="511.811" /> 
</g>
<g style="fill:#848400; fill-opacity:1.0; 
stroke:#848400; stroke-width:39.3701; stroke-opacity:1; 
stroke-linecap:round; stroke-linejoin:round;">
</g>
<g style="fill:#848400; fill-opacity:1.0; 
stroke:#848400; stroke-width:0; stroke-opacity:1; 
stroke-linecap:round; stroke-linejoin:round;">
<circle cx="54408" cy="13033.7" r="511.811" /> 
</g>
<g style="fill:#848400; fill-opacity:1.0; 
stroke:#848400; stroke-width:39.3701; stroke-opacity:1; 
stroke-linecap:round; stroke-linejoin:round;">
</g>
<g style="fill:#848400; fill-opacity:1.0; 
stroke:#848400; stroke-width:0; stroke-opacity:1; 
stroke-linecap:round; stroke-linejoin:round;">
<circle cx="54408" cy="15002.2" r="511.811" /> 
</g>
<g style="fill:#848400; fill-opacity:1.0; 
stroke:#848400; stroke-width:39.3701; stroke-opacity:1; 
stroke-linecap:round; stroke-linejoin:round;">
</g>
<g style="fill:#848400; fill-opacity:1.0; 
stroke:#848400; stroke-width:0; stroke-opacity:1; 
stroke-linecap:round; stroke-linejoin:round;">
<path style="fill:#848400; fill-opacity:1.0; 
stroke:#848400; stroke-width:0; stroke-opacity:1; 
stroke-linecap:round; stroke-linejoin:round;fill-rule:evenodd;"
d="M 54919.8,17482.5
53896.2,17482.5
53896.2,16458.9
54919.8,16458.9
Z" /> 
</g>
<g >
</g>
<g style="fill:#848400; fill-opacity:1.0; 
stroke:#848400; stroke-width:0; stroke-opacity:1; 
stroke-linecap:round; stroke-linejoin:round;">
<circle cx="9008.01" cy="19907.7" r="511.811" /> 
</g>
<g style="fill:#848400; fill-opacity:1.0; 
stroke:#848400; stroke-width:39.3701; stroke-opacity:1; 
stroke-linecap:round; stroke-linejoin:round;">
</g>
<g style="fill:#848400; fill-opacity:1.0; 
stroke:#848400; stroke-width:0; stroke-opacity:1; 
stroke-linecap:round; stroke-linejoin:round;">
<circle cx="9008.01" cy="17939.2" r="511.811" /> 
</g>
<g style="fill:#848400; fill-opacity:1.0; 
stroke:#848400; stroke-width:39.3701; stroke-opacity:1; 
stroke-linecap:round; stroke-linejoin:round;">
</g>
<g style="fill:#848400; fill-opacity:1.0; 
stroke:#848400; stroke-width:0; stroke-opacity:1; 
stroke-linecap:round; stroke-linejoin:round;">
<path style="fill:#848400; fill-opacity:1.0; 
stroke:#848400; stroke-width:0; stroke-opacity:1; 
stroke-linecap:round; stroke-linejoin:round;fill-rule:evenodd;"
d="M 8496.19,15458.9
9519.82,15458.9
9519.82,16482.5
8496.19,16482.5
Z" /> 
</g>
<g >
</g>
<g style="fill:#848400; fill-opacity:1.0; 
stroke:#848400; stroke-width:0; stroke-opacity:1; 
stroke-linecap:round; stroke-linejoin:round;">
<circle cx="49808" cy="13370.7" r="283.465" /> 
</g>
<g style="fill:#848400; fill-opacity:1.0; 
stroke:#848400; stroke-width:39.3701; stroke-opacity:1; 
stroke-linecap:round; stroke-linejoin:round;">
</g>
<g style="fill:#848400; fill-opacity:1.0; 
stroke:#848400; stroke-width:0; stroke-opacity:1; 
stroke-linecap:round; stroke-linejoin:round;">
<circle cx="50808" cy="12370.7" r="283.465" /> 
</g>
<g style="fill:#848400; fill-opacity:1.0; 
stroke:#848400; stroke-width:39.3701; stroke-opacity:1; 
stroke-linecap:round; stroke-linejoin:round;">
</g>
<g style="fill:#848400; fill-opacity:1.0; 
stroke:#848400; stroke-width:0; stroke-opacity:1; 
stroke-linecap:round; stroke-linejoin:round;">
<circle cx="49808" cy="11370.7" r="283.465" /> 
</g>
<g style="fill:#848400; fill-opacity:1.0; 
stroke:#848400; stroke-width:39.3701; stroke-opacity:1; 
stroke-linecap:round; stroke-linejoin:round;">
</g>
<g >
</g>
<g style="fill:#848400; fill-opacity:1.0; 
stroke:#848400; stroke-width:39.3701; stroke-opacity:1; 
stroke-linecap:round; stroke-linejoin:round;">
</g>
<g style="fill:#848400; fill-opacity:1.0; 
stroke:#848400; stroke-width:0; stroke-opacity:1; 
stroke-linecap:round; stroke-linejoin:round;">
<circle cx="38008" cy="3615.16" r="492.126" /> 
</g>
<g style="fill:#848400; fill-opacity:1.0; 
stroke:#848400; stroke-width:39.3701; stroke-opacity:1; 
stroke-linecap:round; stroke-linejoin:round;">
</g>
<g style="fill:#848400; fill-opacity:1.0; 
stroke:#848400; stroke-width:0; stroke-opacity:1; 
stroke-linecap:round; stroke-linejoin:round;">
<circle cx="38008" cy="9520.67" r="492.126" /> 
</g>
<g style="fill:#848400; fill-opacity:1.0; 
stroke:#848400; stroke-width:39.3701; stroke-opacity:1; 
stroke-linecap:round; stroke-linejoin:round;">
</g>
<g >
</g>
<g style="fill:#848400; fill-opacity:1.0; 
stroke:#848400; stroke-width:39.3701; stroke-opacity:1; 
stroke-linecap:round; stroke-linejoin:round;">
</g>
<g style="fill:#848400; fill-opacity:1.0; 
stroke:#848400; stroke-width:0; stroke-opacity:1; 
stroke-linecap:round; stroke-linejoin:round;">
<circle cx="37958" cy="18065.2" r="492.126" /> 
</g>
<g style="fill:#848400; fill-opacity:1.0; 
stroke:#848400; stroke-width:39.3701; stroke-opacity:1; 
stroke-linecap:round; stroke-linejoin:round;">
</g>
<g style="fill:#848400; fill-opacity:1.0; 
stroke:#848400; stroke-width:0; stroke-opacity:1; 
stroke-linecap:round; stroke-linejoin:round;">
<circle cx="37958" cy="23970.7" r="492.126" /> 
</g>
<g style="fill:#848400; fill-opacity:1.0; 
stroke:#848400; stroke-width:39.3701; stroke-opacity:1; 
stroke-linecap:round; stroke-linejoin:round;">
</g>
<g >
</g>
<g >
</g>
<g style="fill:#848400; fill-opacity:1.0; 
stroke:#848400; stroke-width:39.3701; stroke-opacity:1; 
stroke-linecap:round; stroke-linejoin:round;">
</g>
<g style="fill:#848400; fill-opacity:1.0; 
stroke:#848400; stroke-width:0; stroke-opacity:1; 
stroke-linecap:round; stroke-linejoin:round;">
<circle cx="8208.01" cy="23770.7" r="1122.05" /> 
</g>
<g style="fill:#848400; fill-opacity:1.0; 
stroke:#848400; stroke-width:39.3701; stroke-opacity:1; 
stroke-linecap:round; stroke-linejoin:round;">
</g>
<g >
</g>
<g style="fill:#848400; fill-opacity:1.0; 
stroke:#848400; stroke-width:39.3701; stroke-opacity:1; 
stroke-linecap:round; stroke-linejoin:round;">
</g>
<g style="fill:#848400; fill-opacity:1.0; 
stroke:#848400; stroke-width:0; stroke-opacity:1; 
stroke-linecap:round; stroke-linejoin:round;">
<circle cx="54208" cy="23770.7" r="1122.05" /> 
</g>
<g style="fill:#848400; fill-opacity:1.0; 
stroke:#848400; stroke-width:39.3701; stroke-opacity:1; 
stroke-linecap:round; stroke-linejoin:round;">
</g>
<g >
</g>
<g style="fill:#848400; fill-opacity:1.0; 
stroke:#848400; stroke-width:39.3701; stroke-opacity:1; 
stroke-linecap:round; stroke-linejoin:round;">
</g>
<g style="fill:#848400; fill-opacity:1.0; 
stroke:#848400; stroke-width:0; stroke-opacity:1; 
stroke-linecap:round; stroke-linejoin:round;">
<circle cx="54208" cy="3770.67" r="1122.05" /> 
</g>
<g style="fill:#848400; fill-opacity:1.0; 
stroke:#848400; stroke-width:39.3701; stroke-opacity:1; 
stroke-linecap:round; stroke-linejoin:round;">
</g>
<g >
</g>
<g style="fill:#848400; fill-opacity:1.0; 
stroke:#848400; stroke-width:39.3701; stroke-opacity:1; 
stroke-linecap:round; stroke-linejoin:round;">
</g>
<g style="fill:#848400; fill-opacity:1.0; 
stroke:#848400; stroke-width:0; stroke-opacity:1; 
stroke-linecap:round; stroke-linejoin:round;">
<circle cx="8208.01" cy="3770.67" r="1122.05" /> 
</g>
<g style="fill:#848400; fill-opacity:1.0; 
stroke:#848400; stroke-width:39.3701; stroke-opacity:1; 
stroke-linecap:round; stroke-linejoin:round;">
</g>
<g >
</g>
<g style="fill:#848400; fill-opacity:1.0; 
stroke:#848400; stroke-width:39.3701; stroke-opacity:1; 
stroke-linecap:round; stroke-linejoin:round;">
</g>
<g style="fill:#848400; fill-opacity:1.0; 
stroke:#848400; stroke-width:0; stroke-opacity:1; 
stroke-linecap:round; stroke-linejoin:round;">
<circle cx="42770.3" cy="16777.3" r="472.441" /> 
</g>
<g style="fill:#848400; fill-opacity:1.0; 
stroke:#848400; stroke-width:39.3701; stroke-opacity:1; 
stroke-linecap:round; stroke-linejoin:round;">
</g>
<g style="fill:#848400; fill-opacity:1.0; 
stroke:#848400; stroke-width:0; stroke-opacity:1; 
stroke-linecap:round; stroke-linejoin:round;">
<path style="fill:#848400; fill-opacity:1.0; 
stroke:#848400; stroke-width:0; stroke-opacity:1; 
stroke-linecap:round; stroke-linejoin:round;fill-rule:evenodd;"
d="M 39708,13102.5
40376.1,13770.7
39708,14438.8
39039.9,13770.7
Z" /> 
<circle cx="42742.4" cy="10736.2" r="472.441" /> 
</g>
<g style="fill:#848400; fill-opacity:1.0; 
stroke:#848400; stroke-width:39.3701; stroke-opacity:1; 
stroke-linecap:round; stroke-linejoin:round;">
</g>
<g style="fill:#848400; fill-opacity:1.0; 
stroke:#848400; stroke-width:0; stroke-opacity:1; 
stroke-linecap:round; stroke-linejoin:round;">
<circle cx="45776.9" cy="13770.7" r="472.441" /> 
</g>
<g style="fill:#848400; fill-opacity:1.0; 
stroke:#848400; stroke-width:39.3701; stroke-opacity:1; 
stroke-linecap:round; stroke-linejoin:round;">
</g>
<g >
</g>
<g >
</g>
<g >
</g>
<g style="fill:#840000; fill-opacity:1.0; 
stroke:#840000; stroke-width:39.3701; stroke-opacity:1; 
stroke-linecap:round; stroke-linejoin:round;">
</g>
<g style="fill:#840000; fill-opacity:1.0; 
stroke:#840000; stroke-width:0; stroke-opacity:1; 
stroke-linecap:round; stroke-linejoin:round;">
<path style="fill:#840000; fill-opacity:1.0; 
stroke:#840000; stroke-width:0; stroke-opacity:1; 
stroke-linecap:round; stroke-linejoin:round;fill-rule:evenodd;"
d="M 40800.1,22180.9
44815.9,22180.9
44815.9,23558.9
40800.1,23558.9
Z" /> 
<path style="fill:#840000; fill-opacity:1.0; 
stroke:#840000; stroke-width:0; stroke-opacity:1; 
stroke-linecap:round; stroke-linejoin:round;fill-rule:evenodd;"
d="M 40800.1,19582.5
44815.9,19582.5
44815.9,20960.4
40800.1,20960.4
Z" /> 
</g>
<g >
</g>
<g style="fill:#848400; fill-opacity:1.0; 
stroke:#848400; stroke-width:0; stroke-opacity:1; 
stroke-linecap:round; stroke-linejoin:round;">
<circle cx="54586" cy="20370.7" r="314.961" /> 
</g>
<g style="fill:#848400; fill-opacity:1.0; 
stroke:#848400; stroke-width:39.3701; stroke-opacity:1; 
stroke-linecap:round; stroke-linejoin:round;">
</g>
<g style="fill:#848400; fill-opacity:1.0; 
stroke:#848400; stroke-width:0; stroke-opacity:1; 
stroke-linecap:round; stroke-linejoin:round;">
<path style="fill:#848400; fill-opacity:1.0; 
stroke:#848400; stroke-width:0; stroke-opacity:1; 
stroke-linecap:round; stroke-linejoin:round;fill-rule:evenodd;"
d="M 52893,20685.6
52893,20055.7
53523,20055.7
53523,20685.6
Z" /> 
</g>
<g >
</g>
<g style="fill:#840000; fill-opacity:1.0; 
stroke:#840000; stroke-width:0; stroke-opacity:1; 
stroke-linecap:round; stroke-linejoin:round;">
<path style="fill:#840000; fill-opacity:1.0; 
stroke:#840000; stroke-width:0; stroke-opacity:1; 
stroke-linecap:round; stroke-linejoin:round;fill-rule:evenodd;"
d="M 46033,17120.7
45183,17120.7
45183,16420.7
46033,16420.7
Z" /> 
<path style="fill:#840000; fill-opacity:1.0; 
stroke:#840000; stroke-width:0; stroke-opacity:1; 
stroke-linecap:round; stroke-linejoin:round;fill-rule:evenodd;"
d="M 46033,18720.7
45183,18720.7
45183,18020.7
46033,18020.7
Z" /> 
</g>
<g >
</g>
<g style="fill:#848400; fill-opacity:1.0; 
stroke:#848400; stroke-width:0; stroke-opacity:1; 
stroke-linecap:round; stroke-linejoin:round;">
<circle cx="47530.8" cy="15970.7" r="354.331" /> 
<circle cx="48200.1" cy="17427.4" r="354.331" /> 
<circle cx="48869.4" cy="15970.7" r="354.331" /> 
<circle cx="49538.7" cy="17427.4" r="354.331" /> 
<path style="fill:#848400; fill-opacity:1.0; 
stroke:#848400; stroke-width:0; stroke-opacity:1; 
stroke-linecap:round; stroke-linejoin:round;fill-rule:evenodd;"
d="M 50562.3,15616.3
50562.3,16325
49853.7,16325
49853.7,15616.3
Z" /> 
</g>
<g >
</g>
<g style="fill:#848400; fill-opacity:1.0; 
stroke:#848400; stroke-width:0; stroke-opacity:1; 
stroke-linecap:round; stroke-linejoin:round;">
<circle cx="46430.1" cy="10770.7" r="314.961" /> 
</g>
<g style="fill:#848400; fill-opacity:1.0; 
stroke:#848400; stroke-width:39.3701; stroke-opacity:1; 
stroke-linecap:round; stroke-linejoin:round;">
</g>
<g style="fill:#848400; fill-opacity:1.0; 
stroke:#848400; stroke-width:0; stroke-opacity:1; 
stroke-linecap:round; stroke-linejoin:round;">
<path style="fill:#848400; fill-opacity:1.0; 
stroke:#848400; stroke-width:0; stroke-opacity:1; 
stroke-linecap:round; stroke-linejoin:round;fill-rule:evenodd;"
d="M 48123,10455.7
48123,11085.6
47493,11085.6
47493,10455.7
Z" /> 
</g>
<g >
</g>
<g style="fill:#848400; fill-opacity:1.0; 
stroke:#848400; stroke-width:0; stroke-opacity:1; 
stroke-linecap:round; stroke-linejoin:round;">
<circle cx="50808" cy="5617.91" r="472.441" /> 
</g>
<g style="fill:#848400; fill-opacity:1.0; 
stroke:#848400; stroke-width:39.3701; stroke-opacity:1; 
stroke-linecap:round; stroke-linejoin:round;">
</g>
<g style="fill:#848400; fill-opacity:1.0; 
stroke:#848400; stroke-width:0; stroke-opacity:1; 
stroke-linecap:round; stroke-linejoin:round;">
<path style="fill:#848400; fill-opacity:1.0; 
stroke:#848400; stroke-width:0; stroke-opacity:1; 
stroke-linecap:round; stroke-linejoin:round;fill-rule:evenodd;"
d="M 51280.4,9043.11
50335.6,9043.11
50335.6,8098.23
51280.4,8098.23
Z" /> 
</g>
<g >
</g>
<g style="fill:#848400; fill-opacity:1.0; 
stroke:#848400; stroke-width:0; stroke-opacity:1; 
stroke-linecap:round; stroke-linejoin:round;">
<circle cx="43808" cy="4217.91" r="472.441" /> 
</g>
<g style="fill:#848400; fill-opacity:1.0; 
stroke:#848400; stroke-width:39.3701; stroke-opacity:1; 
stroke-linecap:round; stroke-linejoin:round;">
</g>
<g style="fill:#848400; fill-opacity:1.0; 
stroke:#848400; stroke-width:0; stroke-opacity:1; 
stroke-linecap:round; stroke-linejoin:round;">
<path style="fill:#848400; fill-opacity:1.0; 
stroke:#848400; stroke-width:0; stroke-opacity:1; 
stroke-linecap:round; stroke-linejoin:round;fill-rule:evenodd;"
d="M 44280.4,7643.11
43335.6,7643.11
43335.6,6698.23
44280.4,6698.23
Z" /> 
</g>
<g >
</g>
<g style="fill:#848400; fill-opacity:1.0; 
stroke:#848400; stroke-width:0; stroke-opacity:1; 
stroke-linecap:round; stroke-linejoin:round;">
<circle cx="8608.01" cy="7365.16" r="472.441" /> 
</g>
<g style="fill:#848400; fill-opacity:1.0; 
stroke:#848400; stroke-width:39.3701; stroke-opacity:1; 
stroke-linecap:round; stroke-linejoin:round;">
</g>
<g style="fill:#848400; fill-opacity:1.0; 
stroke:#848400; stroke-width:0; stroke-opacity:1; 
stroke-linecap:round; stroke-linejoin:round;">
<circle cx="8608.01" cy="13270.7" r="472.441" /> 
</g>
<g style="fill:#848400; fill-opacity:1.0; 
stroke:#848400; stroke-width:39.3701; stroke-opacity:1; 
stroke-linecap:round; stroke-linejoin:round;">
</g>
<g >
</g>
<g style="fill:#848400; fill-opacity:1.0; 
stroke:#848400; stroke-width:39.3701; stroke-opacity:1; 
stroke-linecap:round; stroke-linejoin:round;">
</g>
<g style="fill:#848400; fill-opacity:1.0; 
stroke:#848400; stroke-width:0; stroke-opacity:1; 
stroke-linecap:round; stroke-linejoin:round;">
<path style="fill:#848400; fill-opacity:1.0; 
stroke:#848400; stroke-width:0; stroke-opacity:1; 
stroke-linecap:round; stroke-linejoin:round;fill-rule:evenodd;"
d="M 12542.7,24262.8
11873.4,24262.8
11873.4,23278.5
12542.7,23278.5
Z" /> 
</g>
<g style="fill:#848400; fill-opacity:1.0; 
stroke:#848400; stroke-width:669.291; stroke-opacity:1; 
stroke-linecap:round; stroke-linejoin:round;">
</g>
<g style="fill:#848400; fill-opacity:0.0; 
stroke:#848400; stroke-width:669.291; stroke-opacity:1; 
stroke-linecap:round; stroke-linejoin:round;">
<path d="M12196 21928
L12196 21613
" />
<path d="M12196 3928
L12196 3613
" />
<path d="M34208 2928
L34208 2613
" />
<path d="M34208 4928
L34208 4613
" />
<path d="M34208 22928
L34208 22613
" />
<path d="M34219 24928
L34219 24613
" />
<path d="M12208 5928
L12208 5613
" />
</g>
<g >
</g>
<g >
</g>
<g style="fill:#840000; fill-opacity:0.0; 
stroke:#840000; stroke-width:669.291; stroke-opacity:1; 
stroke-linecap:round; stroke-linejoin:round;">
</g>
<g style="fill:#840000; fill-opacity:0.0; 
stroke:#840000; stroke-width:472.441; stroke-opacity:1; 
stroke-linecap:round; stroke-linejoin:round;">
<path d="M9360 17970
L8608 17970
" />
<path d="M12196 20806
L9360 17970
" />
<path d="M12196 21770
L12196 20806
" />
<path d="M7387 8585
L8608 7365
" />
<path d="M7387 16750
L7387 8585
" />
<path d="M8608 17970
L7387 16750
" />
<path d="M12196 3776
L12196 3770
" />
<path d="M8608 7365
L12196 3776
" />
<path d="M8608 13270
L8608 15970
" />
<path d="M13160 22817
L12208 23770
" />
<path d="M13160 19688
L13160 22817
" />
<path d="M9443 15970
L13160 19688
" />
<path d="M8608 15970
L9443 15970
" />
<path d="M8608 13270
L8608 9370
" />
<path d="M8608 9370
L12208 5770
" />
<path d="M45608 13939
L45776 13770
" />
<path d="M45608 16770
L45608 13939
" />
<path d="M45776 11423
L46430 10770
" />
<path d="M45776 13770
L45776 11423
" />
<path d="M36852 4770
L38008 3615
" />
<path d="M34208 4770
L36852 4770
" />
<path d="M41526 9520
L42742 10736
" />
<path d="M38008 9520
L41526 9520
" />
<path d="M49408 7170
L50808 8570
" />
<path d="M43808 7170
L49408 7170
" />
<path d="M43808 7170
L43808 11770
" />
<path d="M41808 13770
L43808 11770
" />
<path d="M39708 13770
L41808 13770
" />
<path d="M48608 10770
L50808 8570
" />
<path d="M47808 10770
L48608 10770
" />
<path d="M47808 10770
L47808 13370
" />
<path d="M50208 15770
L50208 15970
" />
<path d="M47808 13370
L50208 15770
" />
</g>
<g style="fill:#840000; fill-opacity:0.0; 
stroke:#840000; stroke-width:393.701; stroke-opacity:1; 
stroke-linecap:round; stroke-linejoin:round;">
<path d="M54330 13093
L54408 13170
" />
<path d="M49808 11370
L50810 11370
" />
</g>
<g style="fill:#840000; fill-opacity:0.0; 
stroke:#840000; stroke-width:472.441; stroke-opacity:1; 
stroke-linecap:round; stroke-linejoin:round;">
<path d="M53208 14370
L54408 13170
" />
<path d="M53208 20370
L53208 14370
" />
<path d="M53408 13170
L54408 13170
" />
<path d="M52668 13170
L54408 13170
" />
<path d="M50868 11370
L52668 13170
" />
<path d="M49808 11370
L50868 11370
" />
<path d="M50708 22869
L53208 20370
" />
<path d="M42808 22869
L50708 22869
" />
<path d="M48595 18370
L45608 18370
" />
<path d="M49538 17427
L48595 18370
" />
<path d="M44708 18370
L42808 20271
" />
<path d="M45608 18370
L44708 18370
" />
<path d="M40214 16777
L42770 16777
" />
<path d="M33208 9770
L40214 16777
" />
<path d="M33208 3770
L33208 9770
" />
<path d="M34208 2770
L33208 3770
" />
</g>
<g style="fill:#840000; fill-opacity:0.0; 
stroke:#840000; stroke-width:393.701; stroke-opacity:1; 
stroke-linecap:round; stroke-linejoin:round;">
<path d="M39404 25367
L42808 25367
" />
<path d="M37958 23970
L38008 23970
" />
</g>
<g style="fill:#840000; fill-opacity:0.0; 
stroke:#840000; stroke-width:472.441; stroke-opacity:1; 
stroke-linecap:round; stroke-linejoin:round;">
<path d="M39315 25327
L39404 25327
" />
<path d="M37958 23970
L39315 25327
" />
<path d="M39313 25325
L54952 25325
" />
<path d="M37958 23970
L39313 25325
" />
<path d="M55763 24515
L54952 25325
" />
<path d="M55763 18325
L55763 24515
" />
<path d="M54408 16970
L55763 18325
" />
</g>
<g style="fill:#840000; fill-opacity:0.0; 
stroke:#840000; stroke-width:98.4252; stroke-opacity:1; 
stroke-linecap:round; stroke-linejoin:round;">
<path d="M50808 12370
L49808 13370
" />
</g>
<g >
</g>
<g style="fill:#840000; fill-opacity:0.0; 
stroke:#840000; stroke-width:98.4252; stroke-opacity:1; 
stroke-linecap:round; stroke-linejoin:round;">
<g >
</g>
<g style="fill:#840000; fill-opacity:1.0; 
stroke:#840000; stroke-width:100; stroke-opacity:1; 
stroke-linecap:round; stroke-linejoin:round;">
<path style="fill:#840000; fill-opacity:1.0; 
stroke:#840000; stroke-width:100; stroke-opacity:1; 
stroke-linecap:round; stroke-linejoin:round;fill-rule:evenodd;"
d="M 34093.4,2037
33983.2,2070.43
33881.6,2124.72
33792.6,2197.78
33719.5,2286.81
33665.2,2388.37
33631.8,2498.58
33623.4,2584.47
33623.4,2667.7
32881.1,3409.97
32862.5,3425.2
32801.8,3499.23
32756.6,3583.7
32756.6,3583.7
32728.8,3675.35
32719.4,3770.67
32721.8,3794.55
32721.8,9746.78
32719.4,9770.67
32728.8,9865.99
32747.3,9926.9
32756.6,9957.64
32801.8,10042.1
32862.5,10116.1
32881.1,10131.4
39853.9,17104.2
39869.1,17122.7
39943.2,17183.5
40027.6,17228.6
40119.3,17256.5
40190.7,17263.5
40190.7,17263.5
40214.6,17265.8
40238.5,17263.5
42234.8,17263.5
42309.7,17338.4
42428.1,17417.5
42559.6,17471.9
42699.1,17499.7
42841.4,17499.7
42981,17471.9
43112.5,17417.5
43230.8,17338.4
43331.4,17237.8
43409.7,17120.7
44931.8,17120.7
44936.6,17169.7
44950.9,17216.8
44974.1,17260.2
45005.4,17298.3
45043.4,17329.5
45086.9,17352.8
45134,17367.1
45183,17371.9
45495.5,17370.7
45558,17308.2
45558,16820.7
45658,16820.7
45658,17308.2
45720.5,17370.7
46033,17371.9
46082,17367.1
46129.1,17352.8
46172.6,17329.5
46210.6,17298.3
46241.9,17260.2
46265.1,17216.8
46279.4,17169.7
46284.2,17120.7
46283,16883.2
46220.5,16820.7
45658,16820.7
45558,16820.7
44995.5,16820.7
44933,16883.2
44931.8,17120.7
43409.7,17120.7
43410.5,17119.5
43465,16988
43492.7,16848.4
43492.7,16706.1
43465,16566.5
43410.5,16435.1
43400.9,16420.7
44931.8,16420.7
44933,16658.2
44995.5,16720.7
45558,16720.7
45558,16233.2
45658,16233.2
45658,16720.7
46220.5,16720.7
46283,16658.2
46284.2,16420.7
46279.4,16371.7
46265.1,16324.5
46241.9,16281.1
46210.6,16243
46172.6,16211.8
46129.1,16188.6
46082,16174.3
46033,16169.5
45720.5,16170.7
45658,16233.2
45558,16233.2
45495.5,16170.7
45183,16169.5
45134,16174.3
45086.9,16188.6
45043.4,16211.8
45005.4,16243
44974.1,16281.1
44950.9,16324.5
44936.6,16371.7
44931.8,16420.7
43400.9,16420.7
43331.4,16316.7
43230.8,16216.1
43112.5,16137
43057.5,16114.3
46943.8,16114.3
46963,16177.4
47014.2,16284.2
47085.3,16379
47173.5,16458.1
47275.5,16518.4
47387.2,16557.7
47480.8,16510.4
47480.8,16020.7
47580.8,16020.7
47580.8,16510.4
47674.4,16557.7
47786.2,16518.4
47888.2,16458.1
47976.4,16379
48047.5,16284.2
48098.7,16177.4
48117.9,16114.3
48282.4,16114.3
48301.6,16177.4
48352.8,16284.2
48423.9,16379
48512.1,16458.1
48614.1,16518.4
48725.8,16557.7
48819.4,16510.4
48819.4,16020.7
48919.4,16020.7
48919.4,16510.4
49013,16557.7
49124.8,16518.4
49226.7,16458.1
49315,16379
49386.1,16284.2
49437.3,16177.4
49456.4,16114.3
49408.9,16020.7
48919.4,16020.7
48819.4,16020.7
48329.9,16020.7
48282.4,16114.3
48117.9,16114.3
48070.4,16020.7
47580.8,16020.7
47480.8,16020.7
46991.3,16020.7
46943.8,16114.3
43057.5,16114.3
42981,16082.6
42841.4,16054.8
42699.1,16054.8
42559.6,16082.6
42428.1,16137
42309.7,16216.1
42234.8,16291
40416,16291
39952,15827.1
46943.8,15827.1
46991.3,15920.7
47480.8,15920.7
47480.8,15430.9
47580.8,15430.9
47580.8,15920.7
48070.4,15920.7
48117.9,15827.1
48282.4,15827.1
48329.9,15920.7
48819.4,15920.7
48819.4,15430.9
48725.8,15383.6
48614.1,15422.9
48512.1,15483.3
48423.9,15562.4
48352.8,15657.1
48301.6,15763.9
48282.4,15827.1
48117.9,15827.1
48098.7,15763.9
48047.5,15657.1
47976.4,15562.4
47888.2,15483.3
47786.2,15422.9
47674.4,15383.6
47580.8,15430.9
47480.8,15430.9
47387.2,15383.6
47275.5,15422.9
47173.5,15483.3
47085.3,15562.4
47014.2,15657.1
46963,15763.9
46943.8,15827.1
39952,15827.1
33694.2,9569.27
33694.2,9447.58
37265.9,9447.58
37265.9,9593.76
37294.4,9737.14
37350.3,9872.2
37431.6,9993.75
37534.9,10097.1
37656.5,10178.3
37791.5,10234.3
37934.9,10262.8
38081.1,10262.8
38224.5,10234.3
38359.5,10178.3
38481.1,10097.1
38571.3,10006.9
41325.5,10006.9
42020,10701.4
42020,10807.4
42047.8,10947
42102.2,11078.4
42181.3,11196.8
42281.9,11297.4
42400.2,11376.5
42531.7,11430.9
42671.3,11458.7
42813.6,11458.7
42953.2,11430.9
43084.6,11376.5
43203,11297.4
43303.6,11196.8
43321.8,11169.5
43321.8,11569.3
41606.6,13284.4
40245.2,13284.4
39885.6,12924.9
39847.6,12893.7
39804.1,12870.4
39757,12856.2
39708,12851.3
39659,12856.2
39611.9,12870.4
39568.4,12893.7
39530.4,12924.9
38862.2,13593
38831,13631.1
38807.8,13674.5
38793.5,13721.7
38788.7,13770.7
38793.5,13819.7
38807.8,13866.8
38831,13910.2
38862.2,13948.3
39530.4,14616.4
39568.4,14647.7
39611.9,14670.9
39659,14685.2
39708,14690
39757,14685.2
39804.1,14670.9
39847.6,14647.7
39885.6,14616.4
40245.2,14256.9
41784.1,14256.9
41808,14259.2
41831.9,14256.9
41903.3,14249.9
41995,14222.1
42079.4,14176.9
42153.5,14116.1
42168.7,14097.6
42332.9,13933.3
45069.4,13933.3
45114.7,14068.2
45185.5,14191.7
45279,14299
45391.6,14386
45519.1,14449.3
45614.2,14478.1
45726.9,14432.2
45726.9,13820.7
45826.9,13820.7
45826.9,14432.2
45939.6,14478.1
46074.4,14432.8
46197.9,14362
46305.2,14268.5
46392.2,14155.9
46455.5,14028.5
46484.3,13933.3
46438.4,13820.7
45826.9,13820.7
45726.9,13820.7
45115.3,13820.7
45069.4,13933.3
42332.9,13933.3
42658.3,13608
45069.4,13608
45115.3,13720.7
45726.9,13720.7
45726.9,13109.1
45826.9,13109.1
45826.9,13720.7
46438.4,13720.7
46484.3,13608
46439,13473.1
46368.2,13349.6
46274.7,13242.4
46162.1,13155.4
46034.7,13092
45939.6,13063.2
45826.9,13109.1
45726.9,13109.1
45614.2,13063.2
45479.3,13108.5
45355.8,13179.3
45248.6,13272.8
45161.6,13385.4
45098.3,13512.9
45069.4,13608
42658.3,13608
44134.9,12131.4
44153.5,12116.1
44214.2,12042.1
44259.4,11957.6
44287.2,11866
44291.8,11819.6
44296.6,11770.7
44294.2,11746.8
44294.2,11161.5
46109.9,11161.5
46138.1,11257.5
46238.7,11305.1
46346.7,11332.2
46457.8,11337.7
46567.9,11321.4
46672.7,11283.9
46722,11257.5
46750.2,11161.5
46430.1,10841.4
46109.9,11161.5
44294.2,11161.5
44294.2,10798.4
45863,10798.4
45879.3,10908.5
45916.8,11013.3
45943.2,11062.6
46039.2,11090.8
46359.3,10770.7
46500.8,10770.7
46820.9,11090.8
46916.9,11062.6
46964.5,10962
46991.6,10854.1
46997.1,10742.9
46980.8,10632.8
46943.3,10528
46916.9,10478.7
46820.9,10450.6
46500.8,10770.7
46359.3,10770.7
46039.2,10450.6
45943.2,10478.7
45895.6,10579.3
45868.5,10687.3
45863,10798.4
44294.2,10798.4
44294.2,10379.8
46109.9,10379.8
46430.1,10700
46750.2,10379.8
46722,10283.8
46621.4,10236.2
46513.4,10209.1
46402.3,10203.7
46292.2,10220
46187.4,10257.4
46138.1,10283.8
46109.9,10379.8
44294.2,10379.8
44294.2,7892.96
44329.5,7889.49
44376.6,7875.2
44420,7851.98
44458.1,7820.74
44489.3,7782.67
44512.5,7739.24
44526.8,7692.12
44530.3,7656.89
49206.6,7656.89
50084.4,8534.64
50084.4,8606.7
48406.6,10284.4
48305.8,10284.4
48300.6,10278.1
48262.5,10246.8
48219.1,10223.6
48172,10209.3
48123,10204.5
47493,10204.5
47444,10209.3
47396.9,10223.6
47353.5,10246.8
47315.4,10278.1
47284.2,10316.1
47261,10359.6
47246.7,10406.7
47241.8,10455.7
47241.8,11085.6
47246.7,11134.6
47261,11181.8
47284.2,11225.2
47315.4,11263.3
47321.8,11268.5
47321.8,13346.8
47319.4,13370.7
47328.8,13466
47356.6,13557.6
47356.6,13557.6
47401.8,13642.1
47462.5,13716.1
47481.1,13731.4
49287.2,15537.4
49226.7,15483.3
49124.8,15422.9
49013,15383.6
48919.4,15430.9
48919.4,15920.7
49408.9,15920.7
49456.4,15827.1
49437.3,15763.9
49386.1,15657.1
49323.6,15573.9
49602.5,15852.7
49602.5,16325
49607.3,16374
49621.6,16421.1
49644.8,16464.6
49676,16502.6
49714.1,16533.9
49757.5,16557.1
49804.7,16571.4
49853.7,16576.2
50562.3,16576.2
50611.3,16571.4
50658.5,16557.1
50701.9,16533.9
50740,16502.6
50771.2,16464.6
50794.4,16421.1
50808.7,16374
50813.5,16325
50813.5,15616.3
50808.7,15567.3
50794.4,15520.2
50771.2,15476.8
50740,15438.7
50701.9,15407.5
50658.5,15384.3
50611.3,15370
50562.3,15365.1
50490.1,15365.1
48294.2,13169.3
48294.2,11268.5
48300.6,11263.3
48305.8,11256.9
48584.1,11256.9
48608,11259.2
48631.9,11256.9
48703.3,11249.9
48795,11222.1
48879.4,11176.9
48953.5,11116.1
48968.7,11097.6
49532.3,10534
53947.5,10534
54408,10994.4
54868.5,10534
54816.5,10417.8
54682.4,10350.5
54537.7,10310.7
54388,10299.9
54239.1,10318.5
54096.7,10365.8
53999.5,10417.8
53947.5,10534
49532.3,10534
50772,9294.32
51280.4,9294.32
51329.5,9289.49
51376.6,9275.2
51420,9251.98
51458.1,9220.74
51489.3,9182.67
51512.5,9139.24
51526.8,9092.12
51531.7,9043.11
51531.7,8098.23
51526.8,8049.22
51512.5,8002.09
51489.3,7958.66
51458.1,7920.6
51420,7889.36
51376.6,7866.14
51329.5,7851.85
51280.4,7847.02
50772,7847.02
49768.7,6843.75
49753.5,6825.2
49679.4,6764.44
49595,6719.29
49503.3,6691.48
49431.9,6684.45
49408,6682.1
49384.1,6684.45
44530.3,6684.45
44526.8,6649.22
44512.5,6602.09
44489.3,6558.66
44458.1,6520.6
44420,6489.36
44376.6,6466.14
44329.5,6451.85
44280.4,6447.02
43335.6,6447.02
43286.6,6451.85
43239.4,6466.14
43196,6489.36
43157.9,6520.6
43126.7,6558.66
43103.5,6602.09
43089.2,6649.22
43084.4,6698.23
43084.4,7643.11
43089.2,7692.12
43103.5,7739.24
43126.7,7782.67
43157.9,7820.74
43196,7851.98
43239.4,7875.2
43286.6,7889.49
43321.8,7892.96
43321.8,10302.9
43303.6,10275.7
43203,10175.1
43084.6,10096
42953.2,10041.6
42813.6,10013.8
42707.6,10013.8
41887.6,9193.75
41872.3,9175.2
41798.3,9114.44
41713.8,9069.29
41622.2,9041.48
41550.8,9034.45
41526.9,9032.1
41503,9034.45
38571.3,9034.45
38481.1,8944.22
38359.5,8863.01
38224.5,8807.06
38081.1,8778.54
37934.9,8778.54
37791.5,8807.06
37656.5,8863.01
37534.9,8944.22
37431.6,9047.59
37350.3,9169.14
37294.4,9304.2
37265.9,9447.58
33694.2,9447.58
33694.2,6121.06
50375.6,6121.06
50422.8,6233.2
50550.2,6296.54
50687.6,6333.79
50829.5,6343.53
50970.7,6325.39
51105.6,6280.06
51193.2,6233.2
51240.4,6121.06
50808,5688.62
50375.6,6121.06
33694.2,6121.06
33694.2,5639.44
50082.4,5639.44
50100.5,5780.59
50145.9,5915.49
50192.7,6003.14
50304.9,6050.34
50737.3,5617.91
50878.7,5617.91
51311.1,6050.34
51423.3,6003.14
51486.6,5875.7
51523.9,5738.36
51533.6,5596.38
51515.5,5455.24
51470.1,5320.34
51423.3,5232.68
51311.1,5185.48
50878.7,5617.91
50737.3,5617.91
50304.9,5185.48
50192.7,5232.68
50129.4,5360.12
50092.1,5497.47
50082.4,5639.44
33694.2,5639.44
33694.2,5207.18
33719.5,5254.53
33792.6,5343.56
33881.6,5416.62
33983.2,5470.91
34093.4,5504.34
34208,5515.62
34322.6,5504.34
34432.8,5470.91
34534.4,5416.62
34623.4,5343.56
34694.5,5256.89
36828.6,5256.89
36852.5,5259.24
36876.4,5256.89
36947.8,5249.85
37039.5,5222.05
37123.9,5176.9
37198,5116.14
37199.1,5114.77
50375.6,5114.77
50808,5547.2
51240.4,5114.77
51193.2,5002.62
51065.8,4939.29
50928.5,4902.04
50786.5,4892.3
50645.3,4910.44
50510.4,4955.77
50422.8,5002.62
50375.6,5114.77
37199.1,5114.77
37213.2,5097.59
37589.7,4721.06
43375.6,4721.06
43422.8,4833.2
43550.2,4896.54
43687.6,4933.79
43829.5,4943.53
43970.7,4925.39
44105.6,4880.06
44193.2,4833.2
44234.1,4736.04
53313.3,4736.04
53438.6,4914.7
53676.6,5042.82
53935,5122.05
54203.9,5149.35
54472.9,5123.66
54731.8,5045.98
54970.5,4919.29
54977.4,4914.7
55102.7,4736.04
54208,3841.38
53313.3,4736.04
44234.1,4736.04
44240.4,4721.06
43808,4288.62
43375.6,4721.06
37589.7,4721.06
37953.5,4357.28
38081.1,4357.28
38224.5,4328.76
38359.5,4272.82
38409.5,4239.44
43082.4,4239.44
43100.5,4380.59
43145.9,4515.49
43192.7,4603.14
43304.9,4650.34
43737.3,4217.91
43878.7,4217.91
44311.1,4650.34
44423.3,4603.14
44486.6,4475.7
44523.9,4338.36
44533.6,4196.38
44515.5,4055.24
44470.1,3920.34
44423.3,3832.68
44311.1,3785.48
43878.7,4217.91
43737.3,4217.91
43304.9,3785.48
43192.7,3832.68
43129.4,3960.12
43092.1,4097.47
43082.4,4239.44
38409.5,4239.44
38481.1,4191.6
38584.5,4088.24
38665.7,3966.69
38721.6,3831.63
38744.9,3714.77
43375.6,3714.77
43808,4147.2
44188.7,3766.54
52829.3,3766.54
52855,4035.59
52932.7,4294.45
53059.4,4533.19
53064,4540.06
53242.6,4665.33
54137.3,3770.67
54278.7,3770.67
55173.4,4665.33
55352,4540.06
55480.2,4302.08
55559.4,4043.69
55586.7,3774.8
55561,3505.75
55483.3,3246.89
55356.6,3008.15
55352,3001.28
55173.4,2876.01
54278.7,3770.67
54137.3,3770.67
53242.6,2876.01
53064,3001.28
52935.9,3239.26
52856.6,3497.65
52829.3,3766.54
44188.7,3766.54
44240.4,3714.77
44193.2,3602.62
44065.8,3539.29
43928.5,3502.04
43786.5,3492.3
43645.3,3510.44
43510.4,3555.77
43422.8,3602.62
43375.6,3714.77
38744.9,3714.77
38750.1,3688.25
38750.1,3542.06
38721.6,3398.69
38665.7,3263.63
38584.5,3142.08
38481.1,3038.71
38359.5,2957.49
38224.5,2901.55
38081.1,2873.03
37934.9,2873.03
37791.5,2901.55
37656.5,2957.49
37534.9,3038.71
37431.6,3142.08
37350.3,3263.63
37294.4,3398.69
37265.9,3542.06
37265.9,3669.66
36651.1,4284.45
34694.5,4284.45
34623.4,4197.78
34534.4,4124.72
34432.8,4070.43
34322.6,4037
34208,4025.71
34093.4,4037
33983.2,4070.43
33881.6,4124.72
33792.6,4197.78
33719.5,4286.81
33694.2,4334.16
33694.2,3972.07
34155.8,3510.48
34208,3515.62
34322.6,3504.34
34432.8,3470.91
34534.4,3416.62
34623.4,3343.56
34696.5,3254.53
34750.8,3152.97
34784.2,3042.76
34792.7,2956.87
34792.7,2805.3
53313.3,2805.3
54208,3699.96
55102.7,2805.3
54977.4,2626.63
54739.4,2498.52
54481,2419.29
54212.1,2391.99
53943.1,2417.68
53684.2,2495.36
53445.5,2622.04
53438.6,2626.63
53313.3,2805.3
34792.7,2805.3
34792.7,2584.47
34784.2,2498.58
34750.8,2388.37
34696.5,2286.81
34623.4,2197.78
34534.4,2124.72
34432.8,2070.43
34322.6,2037
34256.7,2030.51
55948.2,2030.51
55948.2,17823.2
55171,17046.1
55171,16458.9
55166.2,16409.8
55151.9,16362.7
55128.7,16319.3
55097.4,16281.2
55059.4,16250
55015.9,16226.8
54968.8,16212.5
54919.8,16207.6
53896.2,16207.6
53847.2,16212.5
53800.1,16226.8
53756.6,16250
53718.6,16281.2
53694.2,16310.9
53694.2,15269.7
53732.9,15363
53816.3,15487.8
53922.4,15593.9
54047.2,15677.3
54185.8,15734.7
54333,15764
54483,15764
54630.2,15734.7
54768.9,15677.3
54893.6,15593.9
54999.7,15487.8
55083.1,15363
55140.5,15224.4
55169.8,15077.2
55169.8,14927.1
55140.5,14780
55083.1,14641.3
54999.7,14516.5
54893.6,14410.4
54768.9,14327.1
54630.2,14269.6
54483,14240.4
54333,14240.4
54185.8,14269.6
54047.2,14327.1
53922.4,14410.4
53816.3,14516.5
53732.9,14641.3
53694.2,14734.7
53694.2,14572.1
54470.8,13795.5
54483,13795.5
54630.2,13766.2
54768.9,13708.8
54893.6,13625.4
54999.7,13519.3
55083.1,13394.5
55140.5,13255.9
55169.8,13108.7
55169.8,12958.6
55140.5,12811.4
55083.1,12672.8
54999.7,12548
54893.6,12441.9
54768.9,12358.6
54630.2,12301.1
54483,12271.9
54333,12271.9
54185.8,12301.1
54047.2,12358.6
53922.4,12441.9
53816.3,12548
53732.9,12672.8
53728.1,12684.4
52869.9,12684.4
51781.8,11596.3
53947.5,11596.3
53999.5,11712.5
54133.6,11779.8
54278.3,11819.6
54428,11830.4
54576.9,11811.8
54719.3,11764.5
54816.5,11712.5
54868.5,11596.3
54408,11135.9
53947.5,11596.3
51781.8,11596.3
51270.6,11085.1
53642.8,11085.1
53661.4,11234
53708.7,11376.5
53760.6,11473.7
53876.8,11525.6
54337.3,11065.2
54478.7,11065.2
54939.2,11525.6
55055.4,11473.7
55122.6,11339.5
55162.4,11194.9
55173.2,11045.2
55154.6,10896.3
55107.3,10753.9
55055.4,10656.6
54939.2,10604.7
54478.7,11065.2
54337.3,11065.2
53876.8,10604.7
53760.6,10656.6
53693.4,10790.8
53653.6,10935.5
53642.8,11085.1
51270.6,11085.1
51229.2,11043.8
51214,11025.2
51139.9,10964.4
51055.4,10919.3
50963.8,10891.5
50892.4,10884.4
50868.5,10882.1
50844.6,10884.4
50028.2,10884.4
49963.6,10857.7
49860.5,10837.2
49755.5,10837.2
49652.4,10857.7
49555.3,10897.9
49467.9,10956.3
49393.6,11030.6
49335.3,11118
49295,11215.1
49274.5,11318.1
49274.5,11423.2
49295,11526.3
49335.3,11623.4
49393.6,11710.7
49467.9,11785
49555.3,11843.4
49652.4,11883.6
49755.5,11904.1
49860.5,11904.1
49963.6,11883.6
50028.2,11856.9
50656.5,11856.9
50652.4,11857.7
50555.3,11897.9
50467.9,11956.3
50393.6,12030.6
50335.3,12118
50295,12215.1
50274.5,12318.1
50274.5,12423.2
50284.1,12471.4
49908.7,12846.8
49860.5,12837.2
49755.5,12837.2
49652.4,12857.7
49555.3,12897.9
49467.9,12956.3
49393.6,13030.6
49335.3,13118
49295,13215.1
49274.5,13318.1
49274.5,13423.2
49295,13526.3
49335.3,13623.4
49393.6,13710.7
49467.9,13785
49555.3,13843.4
49652.4,13883.6
49755.5,13904.1
49860.5,13904.1
49963.6,13883.6
50060.7,13843.4
50148.1,13785
50222.4,13710.7
50280.8,13623.4
50321,13526.3
50341.5,13423.2
50341.5,13318.1
50331.9,13269.9
50707.3,12894.5
50755.5,12904.1
50860.5,12904.1
50963.6,12883.6
51060.7,12843.4
51148.1,12785
51222.4,12710.7
51280.8,12623.4
51321,12526.3
51323.5,12513.4
52307.8,13497.6
52323,13516.1
52397,13576.9
52481.5,13622.1
52573.2,13649.9
52644.6,13656.9
52644.6,13656.9
52668.5,13659.2
52692.4,13656.9
53234.2,13656.9
52881.1,14010
52862.5,14025.2
52801.8,14099.2
52773.8,14151.6
52756.6,14183.7
52728.8,14275.4
52719.4,14370.7
52721.8,14394.6
52721.8,19872.8
52715.4,19878.1
52684.2,19916.1
52661,19959.6
52646.7,20006.7
52641.8,20055.7
52641.8,20249.2
50507.4,22383.7
45067.1,22383.7
45067.1,22180.9
45062.3,22131.9
45058,22117.9
45058,21023.5
45062.3,21009.4
45067.1,20960.4
45067.1,20654.3
46008,20654.3
46008,20807
46037.8,20956.7
46096.2,21097.8
46181,21224.7
46289,21332.7
46415.9,21417.5
46556.9,21475.9
46706.7,21505.7
46859.3,21505.7
47009.1,21475.9
47150.1,21417.5
47277,21332.7
47385,21224.7
47469.8,21097.8
47528.2,20956.7
47558,20807
47558,20654.3
50058,20654.3
50058,20807
50087.8,20956.7
50146.2,21097.8
50231,21224.7
50339,21332.7
50465.9,21417.5
50606.9,21475.9
50756.7,21505.7
50909.3,21505.7
51059.1,21475.9
51200.1,21417.5
51327,21332.7
51435,21224.7
51519.8,21097.8
51578.2,20956.7
51608,20807
51608,20654.3
51578.2,20504.6
51519.8,20363.6
51435,20236.6
51327,20128.7
51200.1,20043.9
51059.1,19985.5
50909.3,19955.7
50756.7,19955.7
50606.9,19985.5
50465.9,20043.9
50339,20128.7
50231,20236.6
50146.2,20363.6
50087.8,20504.6
50058,20654.3
47558,20654.3
47528.2,20504.6
47469.8,20363.6
47385,20236.6
47277,20128.7
47150.1,20043.9
47009.1,19985.5
46859.3,19955.7
46706.7,19955.7
46556.9,19985.5
46415.9,20043.9
46289,20128.7
46181,20236.6
46096.2,20363.6
46037.8,20504.6
46008,20654.3
45067.1,20654.3
45067.1,19582.5
45062.3,19533.5
45058,19519.4
45058,19370.7
45057,19360.9
45054.2,19351.5
45049.6,19342.9
45043.4,19335.3
45035.8,19329.1
45027.1,19324.5
45017.8,19321.6
45008,19320.7
44446.4,19320.7
44910.2,18856.9
44972.3,18856.9
44974.1,18860.2
45005.4,18898.3
45043.4,18929.5
45086.9,18952.8
45134,18967.1
45183,18971.9
46033,18971.9
46082,18967.1
46129.1,18952.8
46172.6,18929.5
46210.6,18898.3
46241.9,18860.2
46243.7,18856.9
48571.5,18856.9
48595.4,18859.2
48619.3,18856.9
48690.7,18849.9
48782.4,18822.1
48866.8,18776.9
48940.9,18716.1
48956.1,18697.6
49627.9,18025.8
49715,18008.5
49825,17962.9
49924,17896.8
50008.1,17812.6
50074.3,17713.6
50119.8,17603.6
50143,17486.9
50143,17367.8
50119.8,17251.1
50074.3,17141.1
50008.1,17042.1
49924,16957.9
49825,16891.8
49715,16846.3
49598.2,16823
49479.2,16823
49362.4,16846.3
49252.5,16891.8
49153.5,16957.9
49069.3,17042.1
49003.2,17141.1
48957.6,17251.1
48940.3,17338.2
48804.5,17474
48804.5,17367.8
48781.2,17251.1
48735.7,17141.1
48669.5,17042.1
48585.4,16957.9
48486.4,16891.8
48376.4,16846.3
48259.7,16823
48140.6,16823
48023.9,16846.3
47913.9,16891.8
47814.9,16957.9
47730.7,17042.1
47664.6,17141.1
47619,17251.1
47595.8,17367.8
47595.8,17486.9
47619,17603.6
47664.6,17713.6
47730.7,17812.6
47802.6,17884.4
46243.7,17884.4
46241.9,17881.1
46210.6,17843
46172.6,17811.8
46129.1,17788.6
46082,17774.3
46033,17769.5
45183,17769.5
45134,17774.3
45086.9,17788.6
45043.4,17811.8
45005.4,17843
44974.1,17881.1
44972.3,17884.4
44732.7,17884.4
44708.8,17882.1
44613.5,17891.5
44521.8,17919.3
44437.4,17964.4
44363.3,18025.2
44348.1,18043.7
43071.2,19320.7
40608,19320.7
40598.3,19321.6
40588.9,19324.5
40580.2,19329.1
40572.6,19335.3
40566.4,19342.9
40561.8,19351.5
40559,19360.9
40558,19370.7
40558,19519.4
40553.7,19533.5
40548.9,19582.5
40548.9,20960.4
40553.7,21009.4
40558,21023.5
40558,22117.9
40553.7,22131.9
40548.9,22180.9
40548.9,23558.9
40553.7,23607.9
40558,23621.9
40558,23770.7
40559,23780.4
40561.8,23789.8
40566.4,23798.4
40572.6,23806
40580.2,23812.2
40588.9,23816.9
40598.3,23819.7
40608,23820.7
45008,23820.7
45017.8,23819.7
45027.1,23816.9
45035.8,23812.2
45043.4,23806
45049.6,23798.4
45054.2,23789.8
45057,23780.4
45058,23770.7
45058,23766.5
52829.3,23766.5
52855,24035.6
52932.7,24294.5
53059.4,24533.2
53064,24540.1
53242.6,24665.3
54137.3,23770.7
53242.6,22876
53064,23001.3
52935.9,23239.3
52856.6,23497.7
52829.3,23766.5
45058,23766.5
45058,23621.9
45062.3,23607.9
45067.1,23558.9
45067.1,23356.1
50684.9,23356.1
50708.8,23358.5
50732.7,23356.1
50804.1,23349.1
50895.8,23321.3
50980.2,23276.1
51054.3,23215.4
51069.5,23196.8
51461,22805.3
53313.3,22805.3
54208,23700
55102.7,22805.3
54977.4,22626.6
54739.4,22498.5
54481,22419.3
54212.1,22392
53943.1,22417.7
53684.2,22495.4
53445.5,22622
53438.6,22626.6
53313.3,22805.3
51461,22805.3
53329.5,20936.8
53523,20936.8
53572,20932
53619.1,20917.7
53662.5,20894.5
53700.6,20863.3
53731.8,20825.2
53755.1,20781.8
53761.2,20761.5
54265.8,20761.5
54294,20857.5
54394.6,20905.1
54502.6,20932.2
54613.7,20937.7
54723.8,20921.4
54828.6,20883.9
54877.9,20857.5
54906.1,20761.5
54586,20441.4
54265.8,20761.5
53761.2,20761.5
53769.3,20734.6
53774.2,20685.6
53774.2,20398.4
54018.9,20398.4
54035.3,20508.5
54072.7,20613.3
54099.1,20662.6
54195.1,20690.8
54515.2,20370.7
54656.7,20370.7
54976.8,20690.8
55072.8,20662.6
55120.4,20562
55147.5,20454.1
55153,20342.9
55136.7,20232.8
55099.2,20128
55072.8,20078.7
54976.8,20050.6
54656.7,20370.7
54515.2,20370.7
54195.1,20050.6
54099.1,20078.7
54051.5,20179.3
54024.4,20287.3
54018.9,20398.4
53774.2,20398.4
53774.2,20055.7
53769.3,20006.7
53761.2,19979.8
54265.8,19979.8
54586,20300
54906.1,19979.8
54877.9,19883.8
54777.3,19836.2
54669.3,19809.1
54558.2,19803.7
54448.1,19820
54343.3,19857.4
54294,19883.8
54265.8,19979.8
53761.2,19979.8
53755.1,19959.6
53731.8,19916.1
53700.6,19878.1
53694.2,19872.8
53694.2,17630.5
53718.6,17660.1
53756.6,17691.4
53800.1,17714.6
53847.2,17728.9
53896.2,17733.7
54483.4,17733.7
55276.9,18527.2
55276.9,22948.6
55173.4,22876
54278.7,23770.7
54284.3,23776.2
54213.6,23846.9
54208,23841.4
53313.3,24736
53385.9,24839.6
39514.5,24839.6
38700.1,24025.2
38700.1,23897.6
38671.6,23754.2
38615.7,23619.1
38534.5,23497.6
38431.1,23394.2
38309.5,23313
38174.5,23257.1
38031.1,23228.5
37884.9,23228.5
37741.5,23257.1
37606.5,23313
37484.9,23394.2
37381.6,23497.6
37300.3,23619.1
37244.4,23754.2
37215.9,23897.6
37215.9,24043.8
37244.4,24187.1
37300.3,24322.2
37381.6,24443.7
37484.9,24547.1
37606.5,24628.3
37741.5,24684.3
37884.9,24712.8
38012.5,24712.8
38810.5,25510.8
34268.5,25510.8
34334.4,25504.3
34444.6,25470.9
34546.2,25416.6
34635.2,25343.6
34708.3,25254.5
34762.6,25153
34796,25042.8
34804.5,24956.9
34804.5,24584.5
34796,24498.6
34762.6,24388.4
34708.3,24286.8
34635.2,24197.8
34546.2,24124.7
34444.6,24070.4
34334.4,24037
34219.8,24025.7
34105.2,24037
33995,24070.4
33893.4,24124.7
33804.4,24197.8
33731.3,24286.8
33677.1,24388.4
33643.6,24498.6
33635.2,24584.5
33635.2,24956.9
33643.6,25042.8
33677.1,25153
33731.3,25254.5
33804.4,25343.6
33893.4,25416.6
33995,25470.9
34105.2,25504.3
34171.1,25510.8
14458,25510.8
14458,22584.5
33623.4,22584.5
33623.4,22956.9
33631.8,23042.8
33665.2,23153
33719.5,23254.5
33792.6,23343.6
33881.6,23416.6
33983.2,23470.9
34093.4,23504.3
34208,23515.6
34322.6,23504.3
34432.8,23470.9
34534.4,23416.6
34623.4,23343.6
34696.5,23254.5
34750.8,23153
34784.2,23042.8
34792.7,22956.9
34792.7,22584.5
34784.2,22498.6
34750.8,22388.4
34696.5,22286.8
34623.4,22197.8
34534.4,22124.7
34432.8,22070.4
34322.6,22037
34208,22025.7
34093.4,22037
33983.2,22070.4
33881.6,22124.7
33792.6,22197.8
33719.5,22286.8
33665.2,22388.4
33631.8,22498.6
33623.4,22584.5
14458,22584.5
14458,17992.1
37215.9,17992.1
37215.9,18138.3
37244.4,18281.6
37300.3,18416.7
37381.6,18538.2
37484.9,18641.6
37606.5,18722.8
37741.5,18778.8
37884.9,18807.3
38031.1,18807.3
38174.5,18778.8
38309.5,18722.8
38431.1,18641.6
38534.5,18538.2
38615.7,18416.7
38671.6,18281.6
38700.1,18138.3
38700.1,17992.1
38671.6,17848.7
38615.7,17713.6
38534.5,17592.1
38431.1,17488.7
38309.5,17407.5
38174.5,17351.6
38031.1,17323
37884.9,17323
37741.5,17351.6
37606.5,17407.5
37484.9,17488.7
37381.6,17592.1
37300.3,17713.6
37244.4,17848.7
37215.9,17992.1
14458,17992.1
14458,13662.7
22111.5,13662.7
22111.5,13878.7
22153.7,14090.5
22236.3,14290
22356.3,14469.6
22509.1,14622.3
22688.6,14742.3
22888.2,14825
23100,14867.1
23316,14867.1
23527.8,14825
23727.4,14742.3
23907,14622.3
24059.7,14469.6
24179.7,14290
24262.3,14090.5
24304.5,13878.7
24304.5,13662.7
24262.3,13450.8
24179.7,13251.3
24059.7,13071.7
23907,12919
23727.4,12799
23527.8,12716.3
23316,12674.2
23100,12674.2
22888.2,12716.3
22688.6,12799
22509.1,12919
22356.3,13071.7
22236.3,13251.3
22153.7,13450.8
22111.5,13662.7
14458,13662.7
14458,2030.51
34159.3,2030.51
Z" /> 
</g>
</g>
</g>
<g style="fill:#FFFFFF; fill-opacity:1.0; 
stroke:#FFFFFF; stroke-width:100; stroke-opacity:1; 
stroke-linecap:round; stroke-linejoin:round;">
</g>
<g style="fill:#FFFFFF; fill-opacity:1.0; 
stroke:#FFFFFF; stroke-width:0; stroke-opacity:1; 
stroke-linecap:round; stroke-linejoin:round;">
<circle cx="54408" cy="11065.2" r="255.906" /> 
</g>
<g style="fill:#FFFFFF; fill-opacity:1.0; 
stroke:#FFFFFF; stroke-width:39.3701; stroke-opacity:1; 
stroke-linecap:round; stroke-linejoin:round;">
</g>
<g style="fill:#FFFFFF; fill-opacity:1.0; 
stroke:#FFFFFF; stroke-width:0; stroke-opacity:1; 
stroke-linecap:round; stroke-linejoin:round;">
<circle cx="54408" cy="13033.7" r="255.906" /> 
</g>
<g style="fill:#FFFFFF; fill-opacity:1.0; 
stroke:#FFFFFF; stroke-width:39.3701; stroke-opacity:1; 
stroke-linecap:round; stroke-linejoin:round;">
</g>
<g style="fill:#FFFFFF; fill-opacity:1.0; 
stroke:#FFFFFF; stroke-width:0; stroke-opacity:1; 
stroke-linecap:round; stroke-linejoin:round;">
<circle cx="54408" cy="15002.2" r="255.906" /> 
</g>
<g style="fill:#FFFFFF; fill-opacity:1.0; 
stroke:#FFFFFF; stroke-width:39.3701; stroke-opacity:1; 
stroke-linecap:round; stroke-linejoin:round;">
</g>
<g style="fill:#FFFFFF; fill-opacity:1.0; 
stroke:#FFFFFF; stroke-width:0; stroke-opacity:1; 
stroke-linecap:round; stroke-linejoin:round;">
<circle cx="54408" cy="16970.7" r="255.906" /> 
</g>
<g style="fill:#FFFFFF; fill-opacity:1.0; 
stroke:#FFFFFF; stroke-width:39.3701; stroke-opacity:1; 
stroke-linecap:round; stroke-linejoin:round;">
</g>
<g style="fill:#FFFFFF; fill-opacity:1.0; 
stroke:#FFFFFF; stroke-width:0; stroke-opacity:1; 
stroke-linecap:round; stroke-linejoin:round;">
<circle cx="9008.01" cy="19907.7" r="255.906" /> 
</g>
<g style="fill:#FFFFFF; fill-opacity:1.0; 
stroke:#FFFFFF; stroke-width:39.3701; stroke-opacity:1; 
stroke-linecap:round; stroke-linejoin:round;">
</g>
<g style="fill:#FFFFFF; fill-opacity:1.0; 
stroke:#FFFFFF; stroke-width:0; stroke-opacity:1; 
stroke-linecap:round; stroke-linejoin:round;">
<circle cx="9008.01" cy="17939.2" r="255.906" /> 
</g>
<g style="fill:#FFFFFF; fill-opacity:1.0; 
stroke:#FFFFFF; stroke-width:39.3701; stroke-opacity:1; 
stroke-linecap:round; stroke-linejoin:round;">
</g>
<g style="fill:#FFFFFF; fill-opacity:1.0; 
stroke:#FFFFFF; stroke-width:0; stroke-opacity:1; 
stroke-linecap:round; stroke-linejoin:round;">
<circle cx="9008.01" cy="15970.7" r="255.906" /> 
</g>
<g style="fill:#FFFFFF; fill-opacity:1.0; 
stroke:#FFFFFF; stroke-width:39.3701; stroke-opacity:1; 
stroke-linecap:round; stroke-linejoin:round;">
</g>
<g style="fill:#FFFFFF; fill-opacity:1.0; 
stroke:#FFFFFF; stroke-width:0; stroke-opacity:1; 
stroke-linecap:round; stroke-linejoin:round;">
<circle cx="49808" cy="13370.7" r="157.48" /> 
</g>
<g style="fill:#FFFFFF; fill-opacity:1.0; 
stroke:#FFFFFF; stroke-width:39.3701; stroke-opacity:1; 
stroke-linecap:round; stroke-linejoin:round;">
</g>
<g style="fill:#FFFFFF; fill-opacity:1.0; 
stroke:#FFFFFF; stroke-width:0; stroke-opacity:1; 
stroke-linecap:round; stroke-linejoin:round;">
<circle cx="50808" cy="12370.7" r="157.48" /> 
</g>
<g style="fill:#FFFFFF; fill-opacity:1.0; 
stroke:#FFFFFF; stroke-width:39.3701; stroke-opacity:1; 
stroke-linecap:round; stroke-linejoin:round;">
</g>
<g style="fill:#FFFFFF; fill-opacity:1.0; 
stroke:#FFFFFF; stroke-width:0; stroke-opacity:1; 
stroke-linecap:round; stroke-linejoin:round;">
<circle cx="49808" cy="11370.7" r="157.48" /> 
</g>
<g style="fill:#FFFFFF; fill-opacity:1.0; 
stroke:#FFFFFF; stroke-width:39.3701; stroke-opacity:1; 
stroke-linecap:round; stroke-linejoin:round;">
</g>
<g style="fill:#FFFFFF; fill-opacity:1.0; 
stroke:#FFFFFF; stroke-width:0; stroke-opacity:1; 
stroke-linecap:round; stroke-linejoin:round;">
<circle cx="38008" cy="3615.16" r="334.646" /> 
</g>
<g style="fill:#FFFFFF; fill-opacity:1.0; 
stroke:#FFFFFF; stroke-width:39.3701; stroke-opacity:1; 
stroke-linecap:round; stroke-linejoin:round;">
</g>
<g style="fill:#FFFFFF; fill-opacity:1.0; 
stroke:#FFFFFF; stroke-width:0; stroke-opacity:1; 
stroke-linecap:round; stroke-linejoin:round;">
<circle cx="38008" cy="9520.67" r="334.646" /> 
</g>
<g style="fill:#FFFFFF; fill-opacity:1.0; 
stroke:#FFFFFF; stroke-width:39.3701; stroke-opacity:1; 
stroke-linecap:round; stroke-linejoin:round;">
</g>
<g style="fill:#FFFFFF; fill-opacity:1.0; 
stroke:#FFFFFF; stroke-width:0; stroke-opacity:1; 
stroke-linecap:round; stroke-linejoin:round;">
<circle cx="37958" cy="18065.2" r="334.646" /> 
</g>
<g style="fill:#FFFFFF; fill-opacity:1.0; 
stroke:#FFFFFF; stroke-width:39.3701; stroke-opacity:1; 
stroke-linecap:round; stroke-linejoin:round;">
</g>
<g style="fill:#FFFFFF; fill-opacity:1.0; 
stroke:#FFFFFF; stroke-width:0; stroke-opacity:1; 
stroke-linecap:round; stroke-linejoin:round;">
<circle cx="37958" cy="23970.7" r="334.646" /> 
</g>
<g style="fill:#FFFFFF; fill-opacity:1.0; 
stroke:#FFFFFF; stroke-width:39.3701; stroke-opacity:1; 
stroke-linecap:round; stroke-linejoin:round;">
</g>
<g style="fill:#FFFFFF; fill-opacity:1.0; 
stroke:#FFFFFF; stroke-width:0; stroke-opacity:1; 
stroke-linecap:round; stroke-linejoin:round;">
<circle cx="46783" cy="20730.7" r="525" /> 
</g>
<g style="fill:#FFFFFF; fill-opacity:1.0; 
stroke:#FFFFFF; stroke-width:39.3701; stroke-opacity:1; 
stroke-linecap:round; stroke-linejoin:round;">
</g>
<g style="fill:#FFFFFF; fill-opacity:1.0; 
stroke:#FFFFFF; stroke-width:0; stroke-opacity:1; 
stroke-linecap:round; stroke-linejoin:round;">
<circle cx="50833" cy="20730.7" r="525" /> 
</g>
<g style="fill:#FFFFFF; fill-opacity:1.0; 
stroke:#FFFFFF; stroke-width:39.3701; stroke-opacity:1; 
stroke-linecap:round; stroke-linejoin:round;">
</g>
<g style="fill:#FFFFFF; fill-opacity:1.0; 
stroke:#FFFFFF; stroke-width:0; stroke-opacity:1; 
stroke-linecap:round; stroke-linejoin:round;">
<circle cx="8208.01" cy="23770.7" r="629.921" /> 
</g>
<g style="fill:#FFFFFF; fill-opacity:1.0; 
stroke:#FFFFFF; stroke-width:39.3701; stroke-opacity:1; 
stroke-linecap:round; stroke-linejoin:round;">
</g>
<g style="fill:#FFFFFF; fill-opacity:1.0; 
stroke:#FFFFFF; stroke-width:0; stroke-opacity:1; 
stroke-linecap:round; stroke-linejoin:round;">
<circle cx="54208" cy="23770.7" r="629.921" /> 
</g>
<g style="fill:#FFFFFF; fill-opacity:1.0; 
stroke:#FFFFFF; stroke-width:39.3701; stroke-opacity:1; 
stroke-linecap:round; stroke-linejoin:round;">
</g>
<g style="fill:#FFFFFF; fill-opacity:1.0; 
stroke:#FFFFFF; stroke-width:0; stroke-opacity:1; 
stroke-linecap:round; stroke-linejoin:round;">
<circle cx="54208" cy="3770.67" r="629.921" /> 
</g>
<g style="fill:#FFFFFF; fill-opacity:1.0; 
stroke:#FFFFFF; stroke-width:39.3701; stroke-opacity:1; 
stroke-linecap:round; stroke-linejoin:round;">
</g>
<g style="fill:#FFFFFF; fill-opacity:1.0; 
stroke:#FFFFFF; stroke-width:0; stroke-opacity:1; 
stroke-linecap:round; stroke-linejoin:round;">
<circle cx="8208.01" cy="3770.67" r="629.921" /> 
</g>
<g style="fill:#FFFFFF; fill-opacity:1.0; 
stroke:#FFFFFF; stroke-width:39.3701; stroke-opacity:1; 
stroke-linecap:round; stroke-linejoin:round;">
</g>
<g style="fill:#FFFFFF; fill-opacity:1.0; 
stroke:#FFFFFF; stroke-width:0; stroke-opacity:1; 
stroke-linecap:round; stroke-linejoin:round;">
<circle cx="42770.3" cy="16777.3" r="236.22" /> 
</g>
<g style="fill:#FFFFFF; fill-opacity:1.0; 
stroke:#FFFFFF; stroke-width:39.3701; stroke-opacity:1; 
stroke-linecap:round; stroke-linejoin:round;">
</g>
<g style="fill:#FFFFFF; fill-opacity:1.0; 
stroke:#FFFFFF; stroke-width:0; stroke-opacity:1; 
stroke-linecap:round; stroke-linejoin:round;">
<circle cx="39708" cy="13770.7" r="236.22" /> 
</g>
<g style="fill:#FFFFFF; fill-opacity:1.0; 
stroke:#FFFFFF; stroke-width:39.3701; stroke-opacity:1; 
stroke-linecap:round; stroke-linejoin:round;">
</g>
<g style="fill:#FFFFFF; fill-opacity:1.0; 
stroke:#FFFFFF; stroke-width:0; stroke-opacity:1; 
stroke-linecap:round; stroke-linejoin:round;">
<circle cx="42742.4" cy="10736.2" r="236.22" /> 
</g>
<g style="fill:#FFFFFF; fill-opacity:1.0; 
stroke:#FFFFFF; stroke-width:39.3701; stroke-opacity:1; 
stroke-linecap:round; stroke-linejoin:round;">
</g>
<g style="fill:#FFFFFF; fill-opacity:1.0; 
stroke:#FFFFFF; stroke-width:0; stroke-opacity:1; 
stroke-linecap:round; stroke-linejoin:round;">
<circle cx="45776.9" cy="13770.7" r="236.22" /> 
</g>
<g style="fill:#FFFFFF; fill-opacity:1.0; 
stroke:#FFFFFF; stroke-width:39.3701; stroke-opacity:1; 
stroke-linecap:round; stroke-linejoin:round;">
</g>
<g style="fill:#FFFFFF; fill-opacity:1.0; 
stroke:#FFFFFF; stroke-width:0; stroke-opacity:1; 
stroke-linecap:round; stroke-linejoin:round;">
<circle cx="54586" cy="20370.7" r="157.48" /> 
</g>
<g style="fill:#FFFFFF; fill-opacity:1.0; 
stroke:#FFFFFF; stroke-width:39.3701; stroke-opacity:1; 
stroke-linecap:round; stroke-linejoin:round;">
</g>
<g style="fill:#FFFFFF; fill-opacity:1.0; 
stroke:#FFFFFF; stroke-width:0; stroke-opacity:1; 
stroke-linecap:round; stroke-linejoin:round;">
<circle cx="53208" cy="20370.7" r="157.48" /> 
</g>
<g style="fill:#FFFFFF; fill-opacity:1.0; 
stroke:#FFFFFF; stroke-width:39.3701; stroke-opacity:1; 
stroke-linecap:round; stroke-linejoin:round;">
</g>
<g style="fill:#FFFFFF; fill-opacity:1.0; 
stroke:#FFFFFF; stroke-width:0; stroke-opacity:1; 
stroke-linecap:round; stroke-linejoin:round;">
<circle cx="47530.8" cy="15970.7" r="216.535" /> 
</g>
<g style="fill:#FFFFFF; fill-opacity:1.0; 
stroke:#FFFFFF; stroke-width:39.3701; stroke-opacity:1; 
stroke-linecap:round; stroke-linejoin:round;">
</g>
<g style="fill:#FFFFFF; fill-opacity:1.0; 
stroke:#FFFFFF; stroke-width:0; stroke-opacity:1; 
stroke-linecap:round; stroke-linejoin:round;">
<circle cx="48200.1" cy="17427.4" r="216.535" /> 
</g>
<g style="fill:#FFFFFF; fill-opacity:1.0; 
stroke:#FFFFFF; stroke-width:39.3701; stroke-opacity:1; 
stroke-linecap:round; stroke-linejoin:round;">
</g>
<g style="fill:#FFFFFF; fill-opacity:1.0; 
stroke:#FFFFFF; stroke-width:0; stroke-opacity:1; 
stroke-linecap:round; stroke-linejoin:round;">
<circle cx="48869.4" cy="15970.7" r="216.535" /> 
</g>
<g style="fill:#FFFFFF; fill-opacity:1.0; 
stroke:#FFFFFF; stroke-width:39.3701; stroke-opacity:1; 
stroke-linecap:round; stroke-linejoin:round;">
</g>
<g style="fill:#FFFFFF; fill-opacity:1.0; 
stroke:#FFFFFF; stroke-width:0; stroke-opacity:1; 
stroke-linecap:round; stroke-linejoin:round;">
<circle cx="49538.7" cy="17427.4" r="216.535" /> 
</g>
<g style="fill:#FFFFFF; fill-opacity:1.0; 
stroke:#FFFFFF; stroke-width:39.3701; stroke-opacity:1; 
stroke-linecap:round; stroke-linejoin:round;">
</g>
<g style="fill:#FFFFFF; fill-opacity:1.0; 
stroke:#FFFFFF; stroke-width:0; stroke-opacity:1; 
stroke-linecap:round; stroke-linejoin:round;">
<circle cx="50208" cy="15970.7" r="216.535" /> 
</g>
<g style="fill:#FFFFFF; fill-opacity:1.0; 
stroke:#FFFFFF; stroke-width:39.3701; stroke-opacity:1; 
stroke-linecap:round; stroke-linejoin:round;">
</g>
<g style="fill:#FFFFFF; fill-opacity:1.0; 
stroke:#FFFFFF; stroke-width:0; stroke-opacity:1; 
stroke-linecap:round; stroke-linejoin:round;">
<circle cx="46430.1" cy="10770.7" r="157.48" /> 
</g>
<g style="fill:#FFFFFF; fill-opacity:1.0; 
stroke:#FFFFFF; stroke-width:39.3701; stroke-opacity:1; 
stroke-linecap:round; stroke-linejoin:round;">
</g>
<g style="fill:#FFFFFF; fill-opacity:1.0; 
stroke:#FFFFFF; stroke-width:0; stroke-opacity:1; 
stroke-linecap:round; stroke-linejoin:round;">
<circle cx="47808" cy="10770.7" r="157.48" /> 
</g>
<g style="fill:#FFFFFF; fill-opacity:1.0; 
stroke:#FFFFFF; stroke-width:39.3701; stroke-opacity:1; 
stroke-linecap:round; stroke-linejoin:round;">
</g>
<g style="fill:#FFFFFF; fill-opacity:1.0; 
stroke:#FFFFFF; stroke-width:0; stroke-opacity:1; 
stroke-linecap:round; stroke-linejoin:round;">
<circle cx="50808" cy="5617.91" r="236.22" /> 
</g>
<g style="fill:#FFFFFF; fill-opacity:1.0; 
stroke:#FFFFFF; stroke-width:39.3701; stroke-opacity:1; 
stroke-linecap:round; stroke-linejoin:round;">
</g>
<g style="fill:#FFFFFF; fill-opacity:1.0; 
stroke:#FFFFFF; stroke-width:0; stroke-opacity:1; 
stroke-linecap:round; stroke-linejoin:round;">
<circle cx="50808" cy="8570.67" r="236.22" /> 
</g>
<g style="fill:#FFFFFF; fill-opacity:1.0; 
stroke:#FFFFFF; stroke-width:39.3701; stroke-opacity:1; 
stroke-linecap:round; stroke-linejoin:round;">
</g>
<g style="fill:#FFFFFF; fill-opacity:1.0; 
stroke:#FFFFFF; stroke-width:0; stroke-opacity:1; 
stroke-linecap:round; stroke-linejoin:round;">
<circle cx="43808" cy="4217.91" r="236.22" /> 
</g>
<g style="fill:#FFFFFF; fill-opacity:1.0; 
stroke:#FFFFFF; stroke-width:39.3701; stroke-opacity:1; 
stroke-linecap:round; stroke-linejoin:round;">
</g>
<g style="fill:#FFFFFF; fill-opacity:1.0; 
stroke:#FFFFFF; stroke-width:0; stroke-opacity:1; 
stroke-linecap:round; stroke-linejoin:round;">
<circle cx="43808" cy="7170.67" r="236.22" /> 
</g>
<g style="fill:#FFFFFF; fill-opacity:1.0; 
stroke:#FFFFFF; stroke-width:39.3701; stroke-opacity:1; 
stroke-linecap:round; stroke-linejoin:round;">
</g>
<g style="fill:#FFFFFF; fill-opacity:1.0; 
stroke:#FFFFFF; stroke-width:0; stroke-opacity:1; 
stroke-linecap:round; stroke-linejoin:round;">
<circle cx="8608.01" cy="7365.16" r="236.22" /> 
</g>
<g style="fill:#FFFFFF; fill-opacity:1.0; 
stroke:#FFFFFF; stroke-width:39.3701; stroke-opacity:1; 
stroke-linecap:round; stroke-linejoin:round;">
</g>
<g style="fill:#FFFFFF; fill-opacity:1.0; 
stroke:#FFFFFF; stroke-width:0; stroke-opacity:1; 
stroke-linecap:round; stroke-linejoin:round;">
<circle cx="8608.01" cy="13270.7" r="236.22" /> 
</g>
<g style="fill:#FFFFFF; fill-opacity:1.0; 
stroke:#FFFFFF; stroke-width:39.3701; stroke-opacity:1; 
stroke-linecap:round; stroke-linejoin:round;">
</g>
<g style="fill:#FFFFFF; fill-opacity:1.0; 
stroke:#FFFFFF; stroke-width:0; stroke-opacity:1; 
stroke-linecap:round; stroke-linejoin:round;">
<circle cx="23208" cy="13770.7" r="846.456" /> 
</g>
<g style="fill:#FFFFFF; fill-opacity:1.0; 
stroke:#FFFFFF; stroke-width:39.3701; stroke-opacity:1; 
stroke-linecap:round; stroke-linejoin:round;">
</g>
<g style="fill:#FFFFFF; fill-opacity:1.0; 
stroke:#FFFFFF; stroke-width:314.961; stroke-opacity:1; 
stroke-linecap:round; stroke-linejoin:round;">
</g>
<g style="fill:#FFFFFF; fill-opacity:0.0; 
stroke:#FFFFFF; stroke-width:314.961; stroke-opacity:1; 
stroke-linecap:round; stroke-linejoin:round;">
<path d="M12208 23869
L12208 23672
" />
<path d="M12196 21869
L12196 21672
" />
<path d="M12196 3869
L12196 3672
" />
<path d="M34208 2869
L34208 2672
" />
<path d="M34208 4869
L34208 4672
" />
<path d="M34208 22869
L34208 22672
" />
<path d="M34219 24869
L34219 24672
" />
<path d="M12208 5869
L12208 5672
" />
</g>
<g style="fill:#000000; fill-opacity:0.0; 
stroke:#000000; stroke-width:314.961; stroke-opacity:1; 
stroke-linecap:round; stroke-linejoin:round;">
</g>
<g style="fill:#C2C200; fill-opacity:0.0; 
stroke:#C2C200; stroke-width:314.961; stroke-opacity:1; 
stroke-linecap:round; stroke-linejoin:round;">
</g>
<g style="fill:#C2C200; fill-opacity:0.0; 
stroke:#C2C200; stroke-width:19.685; stroke-opacity:1; 
stroke-linecap:round; stroke-linejoin:round;">
<path d="M6208 25770
L6208 1770
" />
<path d="M56208 25770
L6208 25770
" />
<path d="M56208 1770
L56208 25770
" />
<path d="M6208 1770
L56208 1770
" />
<g >
</g>
<g >
</g>
<g >
</g>
<g >
</g>
<g >
</g>
<g >
</g>
<g >
</g>
<g >
</g>
<g >
</g>
<g >
</g>
<g >
</g>
<g >
</g>
<g >
</g>
<g >
</g>
<g >
</g>
<g >
</g>
<g >
</g>
<g >
</g>
<g >
</g>
<g >
</g>
<g >
</g>
<g >
</g>
<g >
</g>
</g> 
</svg>
